
<svg xmlns="http://www.w3.org/2000/svg" version="1.1" xmlns:xlink="http://www.w3.org/1999/xlink" preserveAspectRatio="none" x="0px" y="0px" width="153px" height="236px" viewBox="0 0 153 236">
<defs>
<linearGradient id="Gradient_1" gradientUnits="userSpaceOnUse" x1="123.76250000000002" y1="102.14999999999999" x2="133.8375" y2="97.45" spreadMethod="pad">
<stop  offset="0%" stop-color="#5A9DFF"/>

<stop  offset="100%" stop-color="#FFFFFF"/>
</linearGradient>

<linearGradient id="Gradient_2" gradientUnits="userSpaceOnUse" x1="112.69999999999999" y1="146.5875" x2="116.5" y2="134.9125" spreadMethod="pad">
<stop  offset="0%" stop-color="#5A9DFF"/>

<stop  offset="100%" stop-color="#FFFFFF"/>
</linearGradient>

<linearGradient id="Gradient_3" gradientUnits="userSpaceOnUse" x1="90.325" y1="175.375" x2="91.27499999999999" y2="190.02499999999998" spreadMethod="pad">
<stop  offset="0%" stop-color="#5A9DFF"/>

<stop  offset="100%" stop-color="#FFFFFF"/>
</linearGradient>

<linearGradient id="Gradient_4" gradientUnits="userSpaceOnUse" x1="48.0625" y1="144.36249999999998" x2="51.837500000000006" y2="128.0375" spreadMethod="pad">
<stop  offset="0%" stop-color="#5A9DFF"/>

<stop  offset="100%" stop-color="#FFFFFF"/>
</linearGradient>

<g id="Layer2_0_FILL">
<path fill="#6FB590" stroke="none" d="
M 767.25 231.45
Q 756.65 220.9 742.95 215.05 728.75 209.05 713.3 209.05 697.85 209.05 683.7 215.05 670 220.9 659.4 231.45 648.85 242.05 643 255.75 637 269.9 637 285.35
L 637 368.15
Q 637 383.6 643 397.75 648.85 411.45 659.4 422.05 670 432.6 683.7 438.45 697.85 444.45 713.3 444.45 728.75 444.45 742.95 438.45 756.65 432.6 767.25 422.05 777.8 411.45 783.65 397.75 789.65 383.6 789.65 368.15
L 789.65 285.35
Q 789.65 269.9 783.65 255.75 777.8 242.05 767.25 231.45 Z"/>
</g>

<g id="Layer0_0_FILL">
<path fill="#E1E1E1" stroke="none" d="
M 107.65 60.6
Q 104.3 58.5 101.25 57.5 100.1 57.1 96.3 56.3
L 89.9 54.95
Q 89.25 54.85 88.95 54.95
L 88.9 55
Q 88.45 54.5 88 54.25 87.25 53.9 85.8 53.95 84.15 54 83.6 53.85 83.4 53.8 81.65 53 79.35 52 77.05 52.35 77.15 51.9 76.6 51.7 76.35 51.55 75.8 51.55
L 68.15 51.65
Q 66.8 51.65 66.05 52 65.45 52.25 64.35 53.45 63.75 54.15 63.3 54.7 63 54.6 62.55 54.65 60.35 54.8 57.65 56.05 54.6 57.7 53.05 58.5 51.2 59.5 46.95 61.35 42.95 63.05 40.9 64.2 37.5 66.1 31.4 70.9 29.9 72.1 29.35 72.9 29.25 73 28.1 75.35 27.45 76.55 26.2 77.85 26.05 78.05 25.85 78.3 25.65 78.45 25.5 78.6 25.25 78.85 24.95 79.15 24 78.75 22.8 78.9 21.5 79.05 20.3 79.85 18.75 80.95 16.95 83.9 15.05 87.1 14.95 89.05 14.95 89.5 15.25 91.85 15.45 93.5 15.05 94.5 14.8 95.2 13.9 96.35 12.95 97.5 12.7 98.15 12.3 99.1 12.45 100.7 12.6 102.95 12.6 103.3 12.5 104.3 11.9 106.05 11.2 107.9 11.1 108.75 10.85 110.15 11.2 112.35 11.7 115.4 11.75 115.9 11.8 117.15 11.55 119.35 11.2 121.85 11.2 122.85 11.1 125.8 12.5 130.45 14.25 136.2 14.5 138.05 14.6 138.75 14.85 141.2 15.05 143.2 15.35 144.35 16.05 146.9 18.75 150.75 26.5 161.55 37 169.4 47.85 177.45 60.2 181.25 61.95 181.85 63.1 181.65 64.15 182.35 65.35 182.7 67.2 183.25 70.35 183.25 74.25 183.2 75.45 183.35 76.85 183.55 79.65 184.2 82.2 184.65 83.85 184.3 85 184 87.2 183.15 87.85 183 89.15 182.85 90.45 182.7 91.1 182.5 91.85 182.3 93.35 181.65 94.8 181 95.65 180.8 96 180.7 99.45 180.45 102.4 180.15 104.85 178.45 106.4 177.3 106.75 176.2
L 110.3 174.4
Q 112.75 173.25 114 172.35 115 171.65 116.25 170.5 116.95 169.85 117.7 169.1 122.9 164 125.5 161.05 129.6 156.4 132.1 152.05 132.7 151.05 134.9 146.65
L 139.15 137.8
Q 140.05 136 140.3 135 140.65 133.15 140.9 132.25
L 141.8 129.85
Q 142.3 128.15 141.5 126.45 141.45 126.35 141.45 126.3 141.4 125.85 141.4 125.35 141.75 124.4 141.85 123.3 141.9 122.75 141.8 121.65
L 141.4 115.25 140.85 112.55
Q 140.7 111.75 140.75 110.7 140.9 110.6 141.05 110.3 140.9 110.1 140.75 109.95 140.75 109.7 140.75 109.45 140.75 106.7 140.65 105.95 140.55 105.3 140.15 103.75
L 139.5 101.15
Q 139.5 100.95 139.45 100.75
L 139.15 99.4
Q 139.25 98.45 139.15 98 138.9 97.4 138.8 97.1 138.75 96.3 138.6 95.9 138.15 95.2 138.05 94.8 137.95 94.55 137.95 93.25 137.8 91.2 138.05 90.2
L 138.25 89.35
Q 138.4 88.8 138.4 87.7 138.4 86.55 138.25 86 138.05 85.2 137.35 84.2 136.6 83.25 135.55 82.5 134.2 81.55 134.15 81.5 133.5 80.95 132.55 79.35 131.8 78.3 131.2 78.15
L 129.85 78.25
Q 129.65 78.3 129.55 78.35 128.95 77.55 128.15 76.65 126.7 75.1 124.5 73.05 122.65 71.45 117.7 67.8
L 113.5 64.7
Q 109.9 62 107.65 60.6 Z"/>
</g>

<g id="Layer0_1_FILL">
<path fill="#242037" stroke="none" d="
M 110.4 70.75
Q 107.05 68.65 104 67.65 102.85 67.25 99.05 66.45
L 92.65 65.1
Q 92 65 91.7 65.1 91.659375 65.12578125 91.6 65.15 91.18671875 64.649609375 90.75 64.4 90 64.05 88.55 64.1 86.9 64.15 86.35 64 86.15 63.95 84.4 63.15 82.1 62.15 79.8 62.5 79.9 62.05 79.35 61.85 79.1 61.7 78.55 61.7
L 70.9 61.8
Q 69.55 61.8 68.8 62.15 68.2 62.4 67.1 63.6 66.52265625 64.321875 66.05 64.8 65.7673828125 64.728125 65.3 64.8 63.1 64.95 60.4 66.2 57.35 67.85 55.8 68.65 53.95 69.65 49.7 71.5 45.7 73.2 43.65 74.35 40.25 76.25 34.15 81.05 32.65 82.25 32.1 83.05 32 83.15 30.85 85.5 30.2 86.7 28.95 88 28.7837890625 88.18984375 28.55 88.4 28.4248046875 88.57890625 28.25 88.75 28 89.00546875 27.7 89.3 26.7431640625 88.8853515625 25.55 89.05 24.25 89.2 23.05 90 21.5 91.1 19.7 94.05 17.8 97.25 17.7 99.2 17.7 99.65 18 102 18.2 103.65 17.8 104.65 17.55 105.35 16.65 106.5 15.7 107.65 15.45 108.3 15.05 109.25 15.2 110.85 15.35 113.1 15.35 113.45 15.25 114.45 14.65 116.2 13.95 118.05 13.85 118.9 13.6 120.3 13.95 122.5 14.45 125.55 14.5 126.05 14.55 127.3 14.3 129.5 13.95 132 13.95 133 13.85 135.95 15.25 140.6 17 146.35 17.25 148.2 17.35 148.9 17.6 151.35 17.8 153.35 18.1 154.5 18.8 157.05 21.5 160.9 29.25 171.7 39.75 179.55 50.6 187.6 62.95 191.4 64.7138671875 191.9970703125 65.85 191.75 66.912890625 192.50078125 68.1 192.85 69.95 193.4 73.1 193.4 77 193.35 78.2 193.5 79.6 193.7 82.4 194.35 84.95 194.8 86.6 194.45 87.75 194.15 89.95 193.3 90.6 193.15 91.9 193 93.2 192.85 93.85 192.65 94.6 192.45 96.1 191.8 97.55 191.15 98.4 190.95 98.75 190.85 102.2 190.6 105.15 190.3 107.6 188.6 109.144140625 187.4646484375 109.5 186.3
L 113.05 184.55
Q 115.5 183.4 116.75 182.5 117.72578125 181.8169921875 119 180.65 119.6810546875 180.0189453125 120.45 179.25 125.65 174.15 128.25 171.2 132.35 166.55 134.85 162.2 135.45 161.2 137.65 156.8
L 141.9 147.95
Q 142.8 146.15 143.05 145.15 143.4 143.3 143.65 142.4
L 144.55 140
Q 145.05 138.3 144.25 136.6 144.217578125 136.5244140625 144.15 136.45 144.15390625 136.0205078125 144.15 135.5 144.5 134.55 144.6 133.45 144.65 132.9 144.55 131.8
L 144.15 125.4 143.6 122.7
Q 143.4736328125 121.878125 143.45 120.85 143.647265625 120.75546875 143.8 120.45 143.6525390625 120.2470703125 143.45 120.1 143.4859375 119.854296875 143.5 119.6 143.5 116.85 143.4 116.1 143.3 115.45 142.9 113.9
L 142.2 111.25
Q 142.23046875 111.092578125 142.2 110.9
L 141.9 109.55
Q 142 108.6 141.9 108.15 141.65 107.55 141.55 107.25 141.5 106.45 141.35 106.05 140.9 105.35 140.8 104.95 140.7 104.7 140.7 103.4 140.55 101.35 140.8 100.35
L 141 99.5
Q 141.15 98.95 141.15 97.85 141.15 96.7 141 96.15 140.8 95.35 140.1 94.35 139.35 93.4 138.3 92.65 136.95 91.7 136.9 91.65 136.25 91.1 135.3 89.5 134.55 88.45 133.95 88.3
L 132.6 88.4
Q 132.4056640625 88.4353515625 132.25 88.5 131.7171875 87.6765625 130.9 86.8 129.45 85.25 127.25 83.2 125.4 81.6 120.45 77.95
L 116.25 74.85
Q 112.65 72.15 110.4 70.75
M 101.25 73.15
L 101.6 73.75
Q 101.85 74.15 102.5 74.35 102.9 74.45 103.7 74.55 104.45 74.7 105.9 75.2
L 107.4 75.4
Q 107.95 75.5 109.3 76.05
L 111.75 77.1
Q 112.65 77.5 113.2 77.55 113.7 77.65 115.15 77.4
L 116.6 77.05 117 77.35
Q 117.27578125 77.554296875 117.5 77.75 117.5681640625 77.77578125 117.6 77.8 117.239453125 77.88671875 116.9 77.95 116.7755859375 77.995703125 116.65 78 115.0767578125 78.3576171875 114 78.45 111.3 78.65 109.3 77.9
L 107.55 77.1
Q 105.7330078125 76.34296875 103.85 76.3 103.2572265625 76.3271484375 102.65 76.4 102.95 76.95 103.8 77.1 104.3 77.15 105.3 77.2 106.1 77.25 107.25 77.75 107.85 78 109.1 78.55 112.82734375 79.891796875 118.2 78.25 118.50078125 78.4787109375 118.75 78.65 118.65 78.8296875 118.65 79.1 118.7 80.05 119.85 81.45 121.1 82.95 121.25 83.8 121.3 83.95 121.3 84.7 121.3 85.25 121.45 85.55 121.6 86 122.15 86.5 122.8 87.1 122.95 87.35 123.4 88.1 123.25 89.65 123.1 91.5 123.25 92.15 123.4 92.9 124.2 93.85 125.0330078125 94.9607421875 125.25 95.4 125.28515625 95.4666015625 125.3 95.5 125.6 96.15 125.8 97.3 126.05 98.8 126.15 99.2 126.35 99.8 126.9 101 127.3 102.05 127.25 102.85
L 127.2 103.55
Q 127.15 103.95 127.25 104.2 127.45 104.65 128.15 105.3 128.3 105.55 128.4 106.15 128.4400390625 106.3697265625 128.45 106.55 128.5400390625 106.8 128.6 106.95 128.7646484375 107.279296875 129.2 107.6 129.33515625 107.679296875 129.45 107.75 130.25 108.2 130.4 108.35 130.65 108.6 131.15 109.5 131.6 110.2 132 110.45 132.55 110.8 133.9 110.85 134.45 111 135.6 111.65 136.6 112.25 137.25 112.35 137.55 112.4 138.05 112.4 138.55 112.4 138.8 112.55 139.35 112.85 139.7 114.4 140.2 117.4 140.95 119.85
L 140.95 119.8
Q 141.1056640625 120.1056640625 141.35 120.35 141.5892578125 120.5892578125 142 120.7
L 142 122.25
Q 142 122.4791015625 142 122.65 142.0091796875 123.5458984375 142.05 123.75
L 142.75 126.75
Q 142.85 127.35 142.8 128.25
L 142.75 129.75 143.25 133.45
Q 143.348046875 134.1115234375 143.45 134.6 143.3 134.7150390625 143.3 134.95
L 143.25 133.9 143 133.9 143 134.8
Q 142.5123046875 134.35625 141.9 134.05 141.7947265625 134.260546875 141.75 134.5 141.6427734375 134.0234375 140.95 133.4 138.85 131.8 137.6 131.35 137.241796875 130.5939453125 136.55 130.15 136.3939453125 130.041796875 136.2 129.95 136.2 129.668359375 136.2 129.4 136.158203125 128.380859375 136 127.55 135.95 127.5 135.85 127.55 135.75 127.65 135.75 127.7
L 135.75 128.05
Q 135.75 128.1345703125 135.7 128.45 135.6935546875 128.6791015625 135.65 129.05 135.5 130.25 136.3 131.2 136.65 131.65 138.5 132.8 139.65 133.5 140.6 134.45 141.4 135.15 141.8 134.9
L 141.8 134.85
Q 141.86875 135.1578125 142.05 135.5 142.35 135.95 142.95 136.9 143.8 138.55 142.7 141.8 142.2 143.65 141.55 145 141.15 145.85 140.3 147.5 139.95 148.35 139.35 150.2 139.2478515625 150.4384765625 139.1 150.7
L 139.15 150
Q 139.15 149.25 139.3 148.4
L 139.65 146.95
Q 139.75 146.15 139.65 143.8 139.65 142.9 139.85 142.5
L 140.35 141.6
Q 140.6 141.05 140.5 140.15 140.35 138.9 140.35 138.7 140.4 137.95 140.4 137.9 140.4 137.45 140.15 137.2 139.65 136.95 139.4 136.75 139.2 136.5 139.2 135.9 139.25 135.2 139.1 134.95 139 134.8 138.25 134.3
L 137.6 133.65
Q 137.5 133.55 136.1 133 135.4 132.75 135.15 132.3 135 131.75 134.85 131.45 134.765625 131.17578125 134.6 131.05 134.480859375 130.937890625 134.25 131 134.2150390625 131.017578125 134.15 131.05 134.2033203125 131.1033203125 134.25 131.15 134.4587890625 131.483203125 134.5 132.1 134.55 132.9 134.8 133.15 135 133.3 135.65 133.45 136.35 133.65 137.7 134.9 138.3 135.5 138.35 135.95 138.35 136.2 138.3 136.7 138.35 137.05 138.8 137.4 139.3 137.85 139.4 138.05 139.5 138.35 139.5 138.8 139.5 139.05 139.45 139.55 139.4 139.9 139.35 140.65 139.25 141 138.9 141.6 138.55 142.3 138.55 143.9
L 138.55 147.2 138.45 147.85
Q 138.20078125 149.2623046875 138.4 151.85 138.2267578125 152.211328125 137.95 152.55 137.8966796875 152.7095703125 137.8 152.85 136.45 154.7 136.05 155.45 135.6 156.3 135 157.9 134.3 159.75 134 160.4 133.05 162.5 130.95 165.35 125.75 172.2 119.45 178.05 118.0087890625 179.3447265625 116.8 180.3 115.547265625 181.286328125 114.55 181.9 113.5 182.55 111.3 183.7 109.75625 184.553125 108.75 185.4 108.5140625 185.5359375 108.2 185.85 105.75 188.6 101.9 189
L 100.1 189.1
Q 99 189.1 98.3 189.3 97.5 189.45 96.4 189.95 94.85 190.6 94.5 190.75 93.7 191 92.35 191.25 90.7 191.5 90.15 191.65 87.95 192.35 86.8 192.65 84.85 193.2 83.45 193.05 82.8 192.95 81.8 192.65 80.5 192.3 80.15 192.2 79.1 191.95 77 191.95
L 74.15 191.9
Q 71.55 191.85 70.3 191.7 68.561328125 191.4978515625 67.2 190.95 67.2591796875 190.911328125 67.3 190.85 66.8353515625 190.726171875 66.35 190.6 65.6998046875 190.2744140625 64.95 189.7 64.6302734375 189.47734375 64.3 189.2 64.02109375 189.51875 64.1 189.9 52.4232421875 186.2767578125 42.2 179.05 33.62890625 172.9541015625 27.1 165.05
L 27.1 165.05
Q 27.05 164.3 26.85 164 26.7 163.75 26.1 163.4 25.55 163.05 25.35 162.75 25.2 162.5 25.2 161.3 25.2 160.05 23.85 157.95 23.7310546875 157.8310546875 23.65 157.75 23.75 157.6705078125 23.75 157.4 23.75 157.2 23.45 156.9 22.7 156.25 22.35 155.9 21.75 155.3 21.65 154.65 21.65 153.85 21.6 153.45 21.3 152.7 21.25 152.3 21.25 151.45 21.15 151 21 150.45 20.2 149.6 19.35 148.75 19.2 148.2 19.15 147.1 19.1 146.6 19.025 146.16875 18.85 145.9 18.8578125 145.8466796875 18.85 145.8 18.6 144.4 16.7 139.15 15.3 135.1 15.45 132.45 15.5 131.6 15.95 129.25 16.35 127.3 16.3 126.1 16.2642578125 125.563671875 15.9 123.85
L 15.95 123.85
Q 15.8 122.7 16.2 121.5 16.45 120.65 16.45 120.4 16.4 120.1 16.4 119.95 16.35 119.65 16.45 119.45
L 16.9 118.85
Q 17.15 118.55 17.35 117.7
L 18.2 114.75
Q 18.5 113.15 18.4 111.25 19.05 110.75 19.4 110.5 20 110 20.25 109.55 20.5 109.1 20.5 108 20.35 107.1 20.35 106.6 20.3 105.8 20.5 105.25 20.6 104.95 21.15 104.2 22.45 102.5 23.2 101.7 23.8 101.1 23.85 100.7 23.85 99.95 23.95 99.65 24.4 99.2 24.6 98.95 25.2033203125 98.3466796875 25 97.55 24.987890625 97.3552734375 24.9 97.15
L 24.5 97.15
Q 24.6193359375 97.627734375 24.5 98 24.391796875 98.3888671875 24 98.65 23.4 99.15 23.35 99.2 23.15 99.5 23.15 100.25 23.1 100.8 22.4 101.5
L 21.1 102.95
Q 20.45 103.65 20.05 104.25 19.45 105.4 19.55 108.35 19.55 108.9 19.45 109.1 19.3 109.4 18.7 109.7 17.95 110.2 17.7 110.85 17.5 111.3 17.5 111.95 17.45 112.35 17.45 113.1 17.45 113.6 17.25 114.6 16.75 117 16.1 117.95 15.9 118.3 15.55 118.9 15.4 119.35 15.5 120.35
L 15.3 120.95
Q 15.1130859375 119.6474609375 15.35 118.7 15.5 118.1 16.1 116.9 16.65 115.75 16.8 115.05 17 114.15 16.75 112.15 16.55 110.25 16.85 109.3 17.1 108.6 17.75 107.6 18.6 106.4 18.8 105.95 19.5 104.6 19.55 102.3 19.65 98.8 19.7 98.45 20.05 95.85 21.65 93.7 23.3 91.55 25.7 90.5 26.2060546875 90.2787109375 27 89.95 26.871484375 90.0896484375 26.7 90.25 23.9 93.05 23.55 95.5
L 29.7 89.45
Q 30.4419921875 88.66796875 30.95 88.05 31.7705078125 87.1390625 32.1 86.6 32.95 84.85 33.5 84.05 34.35 82.7 37.05 80.7 37.5466796875 80.3416015625 38 80 38.9330078125 79.3556640625 39.75 78.75 38.79453125 80.105078125 38 82.2 37.1 84.6 35.7 89.5 35.25 91.3 35.15 92.15 34.95 93.65 35.4 94.75 36.05 96.35 38.95 98.2 41.65 99.9 43.1 100.6 44.8 101.4 48.5 102.5
L 52.1 103.5
Q 56.15 104.65 57.75 105.6 58.25 105.85 59.7 106.9 60.9 107.7 61.7 108.05 63.2 108.7 65.25 108.75 66.5 108.75 68.9 108.45 69.05 110.45 67.35 114.3 65.7 118.1 65.85 120.15 66 121.8 67.05 123.55 67.65 124.55 69.25 126.5 72.55 130.45 74.1 131.9 74.7 132.5 75.95 133.7 77 134.75 77.6 135.65 78.3056640625 136.787109375 78.9 138.75
L 78.8 138.85
Q 78.8263671875 138.6517578125 78.7 138.5 78.2333984375 138.4611328125 77.25 138.6 76.9724609375 138.6443359375 76.65 138.7 75.35 138.9 74.65 138.7 74.35 138.6 73.5 138.2 72.85 137.9 72.35 137.85 72.05 137.8 70.8 138.2 69.75 138.4 69.25 137.95
L 68.75 137.15
Q 68.2 136.4 66.65 136.5 65.85 136.65 65.5 136.65 64.8 136.75 64.35 136.65 63.55 136.05 64.05 134.6 64.35 133.95 64.45 133.6 64.7 133 64.7 132.55 64.7 131.95 64.1 130.85
L 59.85 123.55
Q 59.45 122.85 58.65 122.3 57.05 121 54.95 121 53.75 121 53.45 120.55
L 53.25 119.8
Q 52.9689453125 119.0373046875 51.75 119.1 51.0658203125 118.8525390625 50 119.35 49.3 119.75 48.95 119.9 48.3 120.2 47.8 120.15 47.95 119.6 47.05 119.5 45.5 119.2 43.15 120.85 41 122.4 38.65 124.4 37.65 125.3 37.5 126 37.45 126.25 37.4 126.95 37.4 127.5 37.25 127.85 37.4296875 127.9099609375 37.6 127.8 38.0595703125 127.6306640625 38.55 126.65 39.05 125.65 40.9 124.3
L 46.45 120.65
Q 46.95 121.4 48 121.4 48.9 121.45 49.9 121 50.5287109375 120.7119140625 51.15 120.3 52.005078125 120.3025390625 52.1 120.35 51.95 121.3 52.95 121.9 53.5 122.25 54.8 122.45 58.05 122.95 58.75 124.7 58.9 125.05 59.15 125.75 59.4 126.05 60 126.6
L 60.25 127.3
Q 60.45 127.7 60.8 127.65 61.2 129.7 62.6 131.35 63.05 131.9 63.05 132.2 63.1 132.55 62.8 133.15 61.9 135 62.7 137.05 62.95 137.65 63.35 137.9 63.75 138.15 64.3 138.15 65.95 138.3 67.7 137.9 67.9 138.1 68.05 138.75 68.15 139.4 68.4 139.6 68.6 139.75 69.1 139.75
L 71.5 139.8
Q 71.5 139.35 72.05 139.35 72.3 139.35 72.8 139.6 74.6443359375 140.46796875 76.5 140.15 75.406640625 140.70859375 74.95 140.8 74.1724609375 140.900390625 73.6 141 73.073828125 141.1505859375 72.75 141.3 72 141.75 71.65 141.9 71 142.25 70.5 142.1 70.451953125 142.2123046875 70.4 142.3 70.366015625 142.5623046875 70.4 142.8 73.820703125 142.5833984375 77.95 140.3 78.5416015625 139.9712890625 79.15 139.6 79.2041015625 139.77578125 79.25 139.95 79.5330078125 141.110546875 79.7 142.1 80.1509765625 144.64453125 79.9 146.15 79.7 147.5 78.6 150.05 77.5 152.55 77.25 153.9 76.8 156.45 78.05 160.75 79.55 165.7 79.6 167.65 79.65 168.2 79.65 169.25 79.75 170.15 80.05 170.7 81.15 172.7 84.7 172.4 85.0220703125 172.169921875 84.8 171.75 84.819921875 171.7359375 84.8 171.7 84.55 171.3 84.1 171.2 83 171.3 82.45 171.2 81.45 170.95 81.1 169.7 80.85 169 80.75 167.35 80.7 165.6 79.15 160 77.85 155.5 78.6 152.8 78.8 151.95 79.35 150.7 80.1 149.05 80.25 148.6 81.25078125 145.6666015625 80.7 141.75 80.5384765625 140.378515625 80.15 138.85 80.7822265625 138.2125 80.75 137.6
L 80.6 137.3
Q 80.4 137.25 80 138 79.978125 138.051171875 79.95 138.1 79.25 135.7 78.6 134.65 77.95 133.6 76.8 132.4 75.4 131.1 74.7 130.4 72.8 128.6 69.6 124.7 67.8 122.5 67.4 121.15 66.8 119 68.5 114.5 70.15 110.15 69.3 107.95 68.2 107.45 65.7 107.45 63.25 107.4 62.1 106.85 61.4 106.5 60.35 105.5 59.2 104.45 58.6 104.1 57.8 103.7 56.25 103.4 54.45 103.1 53.75 102.85 53.1 102.6 51.2 101.4 49.6 100.4 48.5 100.3 48 100.2 46.5 100.35 45.2 100.45 44.5 100.2 43.65 99.85 42.6 98.55 41.5 97.2 40.8 96.8 40.4 96.55 39.15 96.25 38.05 95.95 37.6 95.5 36.45 94.45 37 91.55
L 37.7 87.65
Q 38.2 85.15 38.55 83.95 40.0638671875 79.164453125 43.7 76.5 43.8111328125 76.4619140625 43.9 76.4 43.831640625 76.4 43.75 76.4 43.5275390625 76.4111328125 43.3 76.45 43.60859375 76.2541015625 43.9 76.05 46.0947265625 74.712890625 47.65 74 48.6 73.55 51.25 72.5 53.5 71.55 54.8 70.9 55.45 70.55 58.9 68.4 58.922265625 68.3861328125 58.95 68.35 59.7748046875 67.8591796875 60.5 67.45 60.9470703125 67.8759765625 61.65 68 62.45 68.15 63.25 67.9 64.25 67.6 66 66.5 66.8 66.2 67.05 65.85
L 67.45 65.1
Q 68.1 63.85 69.85 63.3 70.65 63.1 72.95 63.1
L 77.4 63.25
Q 78.2 63.25 78.6 63.45
L 79.45 63.85
Q 79.8 64 80.6 63.9 82 63.8 83.3 64.35 83.55 64.45 84.55 64.95 85.25 65.35 85.75 65.45 86.2 65.55 88.35 65.55 90 65.55 90.75 66.3 91.07578125 66.579296875 91.45 67.25 91.0111328125 67.2255859375 90.5 67.25
L 90.5 67.85 91.85 68.05
Q 92.0478515625 68.3224609375 92.15 68.45 92.5939453125 68.8939453125 93.75 69.35 94.01875 69.527734375 94.35 69.7 95.05 70.1 96.5 70.65 97.05 70.9 98.05 71.6
L 98.95 72.35
Q 99.55 72.75 100.15 72.9 101.1 73 101.25 73.15
M 104.25 69.2
Q 106.15 69.85 108.35 71.25 109.5 71.95 112.15 73.85
L 115.9 76.55
Q 115.566796875 76.569140625 115.15 76.6 113.7 76.7 113.1 76.6 112.65 76.5 111.75 76.1
L 108.6 74.8 103.55 73.65
Q 102.75 73.55 102.45 73.2 102.05 72.55 101.8 72.3 101.5 72.05 100.6 72 99.75 71.95 99.45 71.65 99.05 71 98.8 70.75 98.55 70.55 98.1 70.45 97.65 70.35 97.4 70.25 96.45 69.55 95.9 69.35 95.16640625 69.2125 94.75 69.05 94.73671875 68.971484375 94.65 68.85 93.8 68 93.4 67.55 93.2087890625 67.3205078125 92.55 66.45 94.6234375 67.225 97.95 67.8 102.5 68.6 104.25 69.2
M 122.6 84.85
Q 122.95 82.95 121.65 81.5 120.0642578125 80.2611328125 119.7 79.35 123.95 82.5166015625 124.65 83.1 127.8 85.65 129.8 87.7 131.95 89.9 133.45 92.05 133.5619140625 90.7630859375 132.75 89.25
L 133.1 89.3
Q 133.55 89.4 133.9 89.8 134.25 90.2 134.85 91.5 135.4 92.6 135.95 93.05 136.25 93.25 136.9 93.6 137.55 93.9 137.85 94.15 138.25 94.45 138.85 95.35
L 139.4 96.3
Q 139.6 96.8 139.7 97.45 139.7 98.2 139.35 99.7 139.15 100.65 139.15 102.7 139.15 104.55 139.35 105.45
L 139.85 106.95
Q 140.25 108.2 140.5 109.9
L 141.05 112.55
Q 141.121875 112.9091796875 141.25 113 141.509375 113.7158203125 141.55 114
L 141.9 116.65
Q 142.0611328125 117.4158203125 142 118.45 141.8982421875 118.3638671875 141.65 118.3 141.655078125 118.2220703125 141.65 118.15 141.45 115.15 141.05 113.15 140.85 112.05 140.45 111.65 140 111.15 139 111 137.9 110.9 137.35 110.75 136.85 110.6 136 110.05 135.1 109.55 134.6 109.4 133.95 109.3 133.6 109.25 133.05 109.15 132.75 108.95 132.45 108.7 132.1 108.1 131.7 107.4 131.45 107.2 131.3 107.05 130.7 106.75 130.25 106.5 130.1 106.2 129.95 105.95 129.9 105.5 129.85 104.95 129.75 104.75 129.65 104.5 129.35 104.15 128.95 103.75 128.85 103.5 128.7 103.15 128.7 102.5 128.7 101.6 128.65 101.4 128.6 100.85 128.3 100.1
L 127.75 98.85
Q 127.55 98.3 127.35 96.85 127.15 95.55 126.8 94.85 126.6 94.4 125.7 93.25 125.5474609375 93.056640625 125.4 92.85 124.909375 92.1576171875 124.75 91.6 124.65 91.3 124.65 89.6 124.75 88 124.35 86.9 123.85 85.35 122.6 84.85
M 64.95 65.9
Q 63.55 67.05 62.1 67.05 61.58203125 67.05 61.2 67.05 62.273046875 66.52578125 63.15 66.2 64.23515625 65.8203125 65.15 65.7 65.0484375 65.827734375 64.95 65.9
M 23.15 158.05
L 23.3 158.6
Q 24.2 160.3 24.25 161.3 24.2595703125 161.3666015625 24.25 161.45 23.4921875 160.3873046875 22.75 159.3 20.55 156.2 19.9 153.8 19.45703125 152.3728515625 19.25 149.9 19.43515625 150.1078125 19.65 150.3 20.25 151.1 20.45 153.2 20.65 155.25 21.35 156.05 21.65 156.4 22.4 156.95 23.0197265625 157.3927734375 23.3 157.7 23.20625 157.7966796875 23.15 158.05
M 109.2 172.65
Q 109.0474609375 172.8302734375 108.85 173 108.0046875 173.919140625 106.8 174.6 105.7689453125 175.21328125 104.5 175.65 102.5 176.3 98.8 176.85 97.2 177.05 96.35 177.45 94.95 178.5 94.15 178.8 93.25 179 92.85 179.2 91.6439453125 179.8029296875 91.25 181.9 90.5794921875 181.7978515625 90 182.3 90.508203125 182.6126953125 91.15 182.75 91.15859375 182.86875 91.15 183
L 91.5 183.05
Q 91.4396484375 183.6740234375 92.15 184.05 92.6 184.25 93.6 184.25
L 97.75 184.3
Q 100.2978515625 184.243359375 102.6 184 103.515625 183.9388671875 104.4 183.8 103.8103515625 184.0517578125 103.2 184.3 102.838671875 184.499609375 102.45 184.7 102.8 185.2 103.9 184.85 104.0232421875 184.80078125 104.15 184.75 106.0416015625 184.0314453125 108.2 183.75 108.3931640625 183.733203125 108.55 183.7
L 108.55 183.75
Q 108.5 183.95 108.6 184.1 109.6 184.05 110.7 183.3 112.25 182.2 112.65 182.05 113.2 181.85 113.3 181.75 113.5044921875 181.5455078125 113.55 181.35 113.6 181.2794921875 113.6 181.2 112.801171875 181.365234375 112.05 181.7 112.127734375 181.5541015625 112.2 181.4
L 111.5 181.2
Q 111.25 181.65 110.7 182.1
L 110 182.5 109.2 182.65
Q 108.085546875 182.7755859375 107 183 106.3091796875 183.1859375 105.6 183.4 104.7572265625 183 103 183
L 100.55 183.1 92.8 183.4
Q 92.6935546875 182.690234375 92.15 182.25 92.2919921875 181.95 92.4 181.5 92.7 180.5 93.2 180.2 93.5 180.05 94.1 179.95 94.9 179.7 96.15 178.55 96.8 178.15 99.05 177.8 102.93203125 177.3091796875 106.35 175.65 106.7912109375 175.4650390625 107.2 175.25 109.45 174.05 109.2 172.65
M 100.25 147.2
Q 99.9162109375 147.75234375 99.5 148.4 99.3998046875 148.544140625 99.3 148.65 98.1947265625 150.2083984375 97.05 151.05 97.00078125 151.112890625 96.95 151.15 96.4 151.55 94.8 152.4 93.4 153.15 92.7 153.75 92 154.35 90.85 155.85
L 90.1 156.7
Q 89.7 157.25 89.5 157.65 89.25 158.25 89.2 158.9
L 88.75 161.4
Q 88.4544921875 161.6251953125 88.2 161.85 87.64140625 162.335546875 87.25 162.8 86.65 163.63046875 86.65 164.4 86.65 164.6 86.8 165.75 86.941015625 166.501953125 86.65 166.95
L 86.65 167
Q 86.4 167.35 85.6 167.85 84.6 168.75 84.8 171.25 84.8 171.5462890625 84.85 171.75 84.9078125 171.934765625 85 172.05 85.2 172.25 86.05 172.35 86.45 172.4 87.3 172.6 88.05 172.7 88.5 172.5
L 89.5 171.8
Q 89.95 171.55 91 171.55
L 93.25 171.5 94.05 171.5
Q 95.5 171.5 96.15 171.4
L 98.25 170.95
Q 99.65 170.65 101.6 170.75 102.75 170.75 105.05 170.95 106.15 171.05 106.65 170.9 108.35 170.45 109.6 167.5 109.345703125 167.245703125 108.95 167.25 108.8759765625 167.284765625 108.8 167.3 108.3 167.45 108 167.85 107.8 168.1 107.45 168.65 107.15 169.05 106.8 169.25 106.3 169.5 105.5 169.4 103.9 169.35 100.45 169.15 100.2404296875 169.15 100.05 169.15 98.69453125 169.1623046875 98.3 169.25 97 169.6 96.4 169.75
L 90.3 170.05
Q 89.4 170.05 88.95 170.2 88.1 170.75 87.65 170.9 86.75 171.3 86.35 170.7 86 170 86.85 169.25 87.75 168.6 88.05 168.1 88.280859375 167.737109375 88.3 167 88.3314453125 166.7587890625 88.3 166.45 88.3091796875 166.325 88.3 166.2 88.2 164.8 88.5 164.25 88.7 163.85 89.25 163.35 89.85 162.8 90.05 162.45 90.3 162.05 90.4 161.35 90.5 160.55 90.55 160.15 90.8080078125 158.4724609375 92.05 156.85 92.2173828125 156.666015625 92.35 156.45 92.9640625 155.7876953125 93.75 155.1 94.45 154.45 95.6 153.75 96.9 153 97.5 152.6 98.6 151.9 99.25 151.25 100.1 150.4 101.1 148.4
L 102.25 146.1 102.55 145.6
Q 102.6154296875 145.447265625 102.65 145.3 102.788671875 145.088671875 102.9 144.9 102.9248046875 144.88828125 102.95 144.85 103.4689453125 144.6208984375 104.15 144.1 105.2 143.25 105.55 143.05 106.85 142.4 107.05 141.9 107.15 141.5 107.05 141.05
L 106.95 139.7
Q 107.1705078125 139.685546875 107.3 139.7
L 108.25 140.05
Q 108.55 140.2 109.75 140.3 111.25 140.3 111.5 140.25 112.3 140.15 113.55 139.75
L 114.1 139.55 116.4 138.75
Q 115.8 138.15 114.7 138.35 113.666796875 138.7375 113.1 138.95 113.0263671875 138.972265625 112.95 139 110.7 139.8 108.4 139.1 107.53203125 138.823828125 107.1 138.8 106.984375 138.789453125 106.9 138.8 106.45 138.85 105.8 139.25 105 139.7 104.7 139.8 104.35 139.9 103.3 139.9 102.45 139.9 102 140.2 101.95 140.55 102.5 140.55 104.1 140.7 105.55 140.1 106.1224609375 139.9017578125 106.5 139.8 106.5697265625 140.55078125 106.45 140.95 106.2 141.95 105.5 142.15
L 104.8 142.35
Q 104.55 142.45 104.25 142.85 103.94765625 143.15234375 103.65 143.35 103.3099609375 143.5021484375 102.95 143.75 102.23984375 144.2564453125 101.55 145.25 101.0658203125 145.976171875 100.25 147.2
M 83.8 142.1
L 83.8 142.05
Q 83.8 141.6 83.7 141.4
L 83.3 141.4
Q 83.35 141.75 83.2 142.35
L 83.3 143 83.3 143.2 83.5 143.4
Q 83.5431640625 143.378515625 83.6 143.3 83.6861328125 143.1775390625 83.8 142.95
L 83.9 142.35 83.8 142.1
M 125.15 134.8
Q 124.45 134.05 122.85 133.15 120.85 131.95 119.75 131.8 117.8 131.85 116.95 131.45
L 115.7 130.75
Q 115.05 130.45 113.9 130.45 113.4880859375 130.43046875 113.1 130.45
L 113.15 130.4
Q 113.55 129.8 113.8 129.55 114 129.25 115.5 128.15 116.6 127.15 116.7 126.35
L 116.7 125.45
Q 116.65 124.9 116.85 124.6
L 117.5 124
Q 117.95 123.5 117.95 122.3 117.95 121.75 117.8 121.2 117.75 120.95 117.3 120.3 116.7 119.25 116 118.8 115.6 118.55 114.5 118.35 111.9 117.65 110.5 115.45 110.2 114.95 109.95 114.75 109.75 114.6 108.85 114.5 107.95 114.35 106.55 113.5
L 106 113.2 105.35 112.75
Q 105.3306640625 111.5201171875 104.9 110.85 104.4 110.3 104.25 110 104.1 109.55 104.1 109.05
L 103.95 107
Q 103.95 106.6 103.75 106.4 103.65 106.3 103.25 106.2 102.15 106.1 101.7 106.3
L 101.7 106.55 101.7 106.65 103.2 106.95
Q 103.1771484375 107.0873046875 103.15 107.2 102.73671875 110.0072265625 103.5 111.2 103.7 111.5 104.05 112.05 104.3072265625 112.4359375 104.2 112.75 104.18125 112.8826171875 104.15 113 104.013671875 113.3115234375 103.4 113.75
L 100.85 115.3 100.35 115.6
Q 100.9 116.05 101.9 115.65 103.15 115.3 103.5 115.35 103.5 115.1 104.05 114.75 104.75 114.5 104.85 114.45 104.9953125 114.3337890625 105.1 114.15
L 106.9 115.15
Q 107.7 115.65 108.15 115.8
L 108.9 116.1 109.8 117
Q 111.35 118.9 113.85 119.8 115.4 120.3 115.6 120.45 115.5 120.75 115.75 121.05 115.85 121.25 116.2 121.6 116.75 122.4 116.15 123.15 115.9 123.45 115.3 124 115.05 124.45 115.2 125.55 115.1 126.2 114.45 126.8 114.1 127.15 113.25 127.8 112.5 128.45 111.4 130.15 111.1966796875 130.5197265625 111.05 130.8 110.928515625 130.8728515625 110.8 130.95 110.5 131.15 109.7 131.85 109.126953125 132.423046875 108.65 132.55
L 108.6 132.6
Q 107.6 132.8 107.1 133 106.65 133.15 105.6 134 104.9373046875 134.60234375 104.05 135.15 103.4458984375 135.512109375 102.75 135.85
L 102.7 135.85
Q 102.684375 135.8728515625 102.65 135.9 102.6068359375 135.9048828125 102.55 135.9 102.3841796875 136.0287109375 102.35 136.2 102.25 136.5 102.55 136.65 102.7826171875 136.76640625 103.05 136.75 103.121484375 136.7611328125 103.2 136.75 104.15 136.6 105.45 135.65 107 134.55 107.65 134.3 109.05 133.95 109.65 133.6 110.05 133.45 110.65 132.9 111.103125 132.5166015625 111.4 132.3 111.6416015625 132.4107421875 111.9 132.3 111.9 132.1744140625 111.9 132.05 112.61640625 131.85 114 131.85 115.15 132 115.35 132.05 115.75 132.25 116.5 132.7 116.85 132.9 118.05 133.1
L 119.95 133.35
Q 120.8 133.45 121.05 133.7 121.25 133.9 121.5 134.35 121.75 134.6 122.5 134.8 123.75 135.2 124.15 135.8 124.3 136.05 124.65 136.65 124.95 136.95 125.5 137 125.85 137 126.5 137 127.45 137.1 128.15 137.85 128.85 138.55 128.9 139.5 128.95 139.95 129 140.95 129.1 141.2 129.4 141.55
L 129.9 142.15
Q 130.35 142.7 130.9 144.2 131.35 145.65 131.3 146.25 131.3 146.5857421875 131.3 146.85 131.315234375 146.875390625 131.3 146.9 131.2 147.203515625 131.2 147.55 131.2 147.95 131.2 148.75 131.2 149.4 130.95 149.8 130.59375 148.990234375 130 148.4 129.9623046875 148.360546875 129.9 148.3 129.64375 148.034375 129.3 147.8 128.65 147.35 128.5 147.05 128.414453125 146.836328125 128.35 146.55 128.3572265625 146.50078125 128.35 146.45
L 128.35 145.8
Q 128.25 144.8 127.3 144.45 126.9 144.35 126.65 144.3 126.3 144.15 126.15 143.95 126.05 143.8 126 143.4 126 142.95 125.95 142.8 125.8 142.2 124.75 141.7
L 122 140.1
Q 120.7123046875 139.3845703125 119.75 139.2 120.2361328125 138.9173828125 120.5 138.8 120 138.3 119.3 138.65
L 118.85 139
Q 118.6904296875 139.1435546875 118.55 139.25 118.23828125 139.4978515625 118 139.6 117.45 139.85 116.25 139.9 116.0896484375 139.9134765625 115.95 139.9 115.81640625 139.9384765625 115.7 139.95 114.9150390625 140.0490234375 114.5 140.2
L 114.5 140.4
Q 115.15 140.6 116.5 140.6 117.2 140.6 117.55 140.55 118.121875 140.40703125 118.95 139.75 119.8640625 140.0376953125 121.45 140.85
L 122.65 141.5 124.05 142.25
Q 124.95 142.8 125.1 143.3 125.1 143.37578125 125.1 143.5 125.1 143.6775390625 125.1 143.9 125.05 144.25 125.15 144.5 125.35 144.9 126.2 145.15 127.15 145.45 127.35 145.8 127.5 146.1 127.5 146.7 127.45 147.35 127.55 147.6 127.8 148.25 129.1 148.9 129.2275390625 149.0275390625 129.35 149.2 129.4775390625 149.3794921875 129.6 149.6
L 130 150.4
Q 130.75 151.45 131.5 151 131.9 150.75 131.95 150.2 131.95 150 131.9 149.15 131.77890625 148.3509765625 131.9 147.6 132.1791015625 147.58125 132.4 147.25 132.55 147.05 132.65 146.45 132.75 144.75 131.6 141.95 131 140.5 130.15 140.4 130.45 139.2 129.95 138 129.5 136.75 128.45 136.05 127.75 135.5 127.05 135.45 126 135.45 125.9 135.4 125.7 135.35 125.15 134.8
M 100.45 185.35
Q 101.15 185.1 101.2 184.75 100.25 185 96.2 186.2
L 96.3 186.4
Q 96.65 186.45 97.6 186.2
L 100.45 185.35
M 98.5 185
Q 99.2 184.65 99 184.3 94.5 185.65 89.85 185.65 89.65 185.65 89.5 185.75 89.35 185.85 89.4 186 92.4 186.3 93.9 186.2 94.9 186.1 95.8 185.9 97.25 185.55 98.5 185
M 79.2 181.45
Q 76.1 181.95 74.75 182.95 74.25 183.35 73.3 184.15 72.65 184.5 71.35 184.7 69.8 184.95 69.25 185.1 68.6 185.3 68.45 185.7 68.35 185.95 68.4 186.5 68.5 187 68.35 187.25 68.2 187.6 67.7 187.75 67.15 187.9 66.85 187.95 66.2 188.15 65.95 188.5 65.577734375 188.9654296875 65.75 189.4 65.7826171875 189.4654296875 65.8 189.5 65.95 189.75 66.25 189.8 66.55 189.9 66.75 189.75 67.55 189.3 68.5 189.15 69.55 189.05 69.8 188.65 69.95 188.4 69.9 187.8 69.85 187.15 69.9 186.9 70.45 186.6 71.95 186.4 73.35 186.25 73.95 185.8 74.9 184.8 75.4 184.35 76.1 183.75 77.2 183.45 77.55 183.35 79.25 183.05 81.85 182.65 84.15 181.7 85.1 181.4 85.5 180.9 85.7 180.7 86 180.15 86.25 179.6 86.45 179.35 86.7 179.05 87.35 178.7 88 178.3 88.25 178 88.3537109375 177.8703125 88.45 177.75 88.466796875 177.85859375 88.5 177.95 89.0328125 177.4705078125 89.45 177.15 89.6505859375 177.15 89.9 177.15 90.55 177.05 90.75 176.65
L 90.7 176.6
Q 91.330859375 176.4646484375 92.3 176.4 93.1611328125 176.342578125 94.35 176.25 96.2720703125 176.1734375 99.05 176.05 102.05 175.85 103.2 175.45 104.7787109375 174.923828125 107.05 173.25 107.619140625 172.8974609375 108.2 172.45 108.114453125 172.3521484375 108 172.3 107.6705078125 172.1599609375 107.1 172.4 107.05078125 172.426171875 107 172.45 105.39453125 173.40703125 104.2 173.95 103.5046875 174.2779296875 102.95 174.45 101.6 174.95 98.65 175.05
L 91.9 175.4
Q 90.3 175.4 89.5 175.85 89.15 176.025 88.9 176.3 88.05 176.45 87.15 177.15 86.65 177.55 85.5 178.7 84.45 179.7 83.75 180.15 82.5 180.95 79.2 181.45
M 80.95 151
Q 80.75 151.65 80.85 152.65 80.9 153.25 81.05 154.4 81.1318359375 154.9728515625 81.1 156.45 81.1091796875 156.777734375 81.1 157.15 81.0828125 157.7505859375 81.1 158.25 81.1357421875 159.2431640625 81.3 159.9 81.4 160.35 81.65 160.2 81.8662109375 159.0330078125 81.95 157.8 82.030859375 156.880078125 82 155.9 82.0341796875 155.2607421875 82 154.6 82 153.75 81.8 153.15 81.55 152.4 81.55 152.25 81.5259765625 152.0330078125 81.65 151.6 81.765234375 151.124609375 82.05 150.4 82.5890625 149.321875 82.15 148.7 82.1109375 148.616015625 82.05 148.55
L 81.7 148.5
Q 81.85 149 81.55 149.75 81.35 150.15 80.95 151
M 36.3 129.35
L 36.1 129.2
Q 35.15 129.3 34.2 129.9 33.1 130.6 32.65 130.45 32 129.8 31.05 129.8 30.1 129.8 29.45 130.4 29.25 130.65 28.6 131.65 28.05 132.45 27.55 132.7 27.1 132.95 27.1 133.15 27.1 133.3583984375 27.3 133.45 27.4125 133.51953125 27.55 133.55 28.4 133.6 29.35 132.25 29.777734375 131.6724609375 30.15 131.3
L 30.2 131.3
Q 30.2302734375 131.2751953125 30.25 131.25 30.7126953125 130.9 31.1 130.9
L 31.45 130.95
Q 31.6 131.05 31.75 131.3 31.9 131.45 32.5 131.55 33.85 131.65 34.4 131.35 35.1 130.65 35.5 130.35 35.95 130.1 36.15 130 36.45 129.75 36.5 129.45
L 36.3 129.35
M 80.9 131.9
Q 80.3 131.3 79.8 131.05 79.674609375 130.9943359375 79.55 130.95 79.3361328125 130.8220703125 79.3 130.75 79.2376953125 130.6876953125 79.2 130.6 79.0416015625 130.398046875 79.2 130.2
L 78.7 130.1
Q 78.6591796875 130.1328125 78.6 130.15 78.45 130.3572265625 78.45 130.65 78.45 130.95 78.7 131.2 78.85 131.4 79.7 131.9 80.55 132.45 81 133.25 81.4 133.8 81.5 133.85 81.7 133.95 82.15 134.15 82.2 134.25 82.35 134.9 82.4 135.3 82.85 135.9 83.15 136.45 83.15 137.75 83.15 139.05 83.4 139.6 83.6244140625 139.6 83.7 139.45 83.85 139.2759765625 83.85 138.95
L 84 137.4
Q 84.1 136.5 83.9 135.85
L 83.35 134.9 83 134.05
Q 82.9 133.9 81.9 132.9 81.25 132.2 80.9 131.9
M 43.85 132.6
Q 43.9 132.35 43.55 132.25 43.25 132.15 42.95 132.25 41.15 132.8 39.75 134.1 38.45 135.4 38 135.6 37.55 135.8 36.7 136.05 36.3 136.25 35.7 136.95 34.45 137.9 31.7 137.05
L 30.05 136.5 29.25 136.25
Q 29.9736328125 136.8021484375 30.75 137.2 32.044921875 137.8712890625 33.5 138.15 34.65 138.4 35.5 138.1 35.85 137.95 36.4 137.55 36.95 137.1 37.25 136.95 37.55 136.8 38.25 136.65 38.85 136.4 40.15 135.1 41.3552734375 133.8947265625 42.85 133.05 43.33203125 132.8220703125 43.85 132.6
M 50.75 136
Q 50.906640625 135.949609375 51.05 135.9 51.5244140625 136.15234375 52 136.85 52.95 138.25 53.35 138.5 53.75 138.8 55.2 139.05 56.35 139.25 56.75 139.85 56.95 140.1 57.1 140.7 57.25 141.25 57.4 141.5 57.75 142.05 58.85 142.45
L 63.05 144.1
Q 65.35 144.95 66.45 144.5 66.85 144.3 67.4 143.9
L 68.25 143.15
Q 69.5 142.3 70.4 142.85 70.0798828125 142.5578125 69.75 142.35 69.0134765625 141.86953125 68.4 142.05 68.1 142.15 67.75 142.5 67.6 142.65 67.2 143.05 66 144.1 64.45 143.7 64 143.3 62.9 142.9
L 59.2 141.65
Q 58.7 141.5 58.35 141.2 58.25 141.1 57.85 140 57.25 138.3 53.7 137.85 53.5 136.8 52.6 136.05 52.241796875 135.733984375 51.85 135.5 52.2728515625 135.2796875 52.4 135 52.15 134.6 51.25 134.8
L 49.8 135.2
Q 48.65 135.5 48.1 135.3 47.75 135.15 47.15 134.55 46.6 134.05 46.15 133.95 45.6 133.95 45.35 133.85 44.85 133.55 44.55 133.4 44.1939453125 133.2220703125 43.15 133.25 43.0375 133.2890625 42.9 133.3 42.5 133.45 42.6 133.65 43.8 133.75 44.3 134.05 44.6 134.2 45.1 134.5 45.35 134.6 45.85 134.75 46.25 134.9 46.45 135.15
L 46.85 135.7
Q 47 135.9 47.35 136 48.5 136.5 50.75 136
M 72.35 108.3
Q 72.05 108.75 71.8 109.85 71.5 110.75 70.6 112.35 69.65 114.5 69.75 119 69.75 120.6 70.2 121.45 70.45 121.95 71.45 122.95 71.496484375 122.99921875 71.55 123.05 72.384765625 123.9564453125 73.85 125.8 75.3 127.4 76.75 127.85 77 127.45 76.4 126.85 74.15 124.45 72.3 122.65 72.3 122.3 71.95 121.9 71.55 121.5 71.4 121.25 70.95 120.65 70.85 119.3 70.7 116.95 70.75 115.9 70.7763671875 114.8994140625 70.95 114.05 71.1423828125 113.2890625 71.45 112.65 72.2 111.25 72.45 110.55 72.95 109.15 72.35 108.3
M 39.85 92.6
Q 39.25 92.5 39 92.25 38.65 91.95 38.5 91 38.4 90.1 38 89.9
L 37.7 90.05
Q 38.05 90.15 38.15 90.8
L 38.05 91.65
Q 38.15 92.8 39.1 93.1 39.15 93.1 39.65 93.2 40 93.3 40.2 93.4
L 40.75 94.05
Q 40.8 94.1 41.2 94.3 41.45 94.45 41.55 94.65 41.65 94.9 41.65 95.4 41.7 95.5 42.25 96.05 43.05 96.85 42.8 97.85 43.55 98.05 44 97.7 43.7 97.55 43.55 97 43.4 96.25 43.3 96.1 43.2 95.9 42.8 95.55 42.45 95.25 42.35 94.95 42.35 94.746875 42.3 94.55 42.3048828125 94.387109375 42.25 94.25 42.15 94.05 41.85 93.85 41.530078125 93.672265625 41.4 93.6
L 41.35 93.55
Q 41 93.1 40.75 92.9 40.5 92.7 39.85 92.6
M 45.5 97.45
L 45.3 97.55 45.3 97.85 45.9 97.95 46.1 97.95 46.5 97.75 46.3 97.45 46.15 97.45 45.5 97.35 45.5 97.45
M 110.85 85.85
Q 110.6662109375 86.000390625 110.55 86.25 110.3333984375 86.784375 110.4 87.75 110.5 89.25 110 89.65 109.8 89.85 109.3 89.95 108.8 90.1 108.6 90.25 108 90.65 108.05 92 108.05 93.55 107.7 94.05 107.55 94.35 107 94.7 106.5 95.1 106.3 95.35 106 95.75 105.95 96.7 105.85 97.7 105.6 98.1 105.25 98.65 104.1 99.1 102.85 99.55 102.5 100.05 102.3 100.35 102 101.5 101.8974609375 101.98671875 101.7 102.3 101.5439453125 102.6037109375 101.3 102.75 101.05 102.9 100.55 102.95 100.4177734375 102.96015625 100.3 102.95 99.8796875 103 99.8 103 99.4 103.1 99.1 103.35 99.0150390625 103.4349609375 98.95 103.5 98.8283203125 103.7490234375 98.9 104 101.1 104.1 101.95 103.45 102.78359375 102.883203125 103.05 101.8 103.2 101.2662109375 103.2 100.6 106.4 99.3 106.75 97.5
L 106.85 96.65
Q 106.85 96.1 107.05 95.85 107.25 95.55 107.8 95.15 108.4 94.75 108.55 94.5 108.8 94.05 108.7 92.9 108.55 91.8 108.9 91.35 109.2 90.95 110.1 90.55 111.15 89.9 111.25 88.35 111.3 87.6 110.85 85.85
M 112.9 85.05
L 112.85 85.05
Q 112.601953125 85.2619140625 112.65 85.55 112.6921875 85.760546875 113.1 86.1 113.1630859375 86.17890625 113.25 86.25 114.1908203125 86.814453125 114.7 87.8 114.7673828125 87.8849609375 114.8 87.95 115.25 88.8 114.95 89.25 114.9017578125 89.2822265625 114.85 89.3 114.333984375 89.6701171875 114.15 89.9 114 90.1 114 91.2 114 91.6 113.8 92.2
L 113.35 93.45 112.5 95 112 96.35
Q 111.9 96.55 111.05 97.95 110.45 98.9 110.4 99.6 110.4 100.5 110.25 100.7 110.1 101 109.35 101.3 108.25 101.85 107.25 102.65 106.75 103.05 106.8 103.5
L 102.8 104.75
Q 102.5060546875 104.867578125 102.35 104.95 102.270703125 105.067578125 102.25 105.15 102.1 105.6 102.8 105.85 104.1 106.35 106.85 105.4 107.7 105.1 108.05 104.7
L 108.45 103.9
Q 108.8 103.35 109.5 103 109.9 102.8 110.75 102.4 111.5 102 111.7 101.45 111.8 101.2 111.95 100.15 112.05 99.45 112.75 98.15
L 114.7 94.3 115.45 91.8
Q 115.6 90.85 115.6 90.8 115.7 90.55 116.1 90.15 116.26171875 89.98828125 116.35 89.85 116.5404296875 89.669140625 116.6 89.55 116.9 88.9 116.55 88.15 116.25 87.55 115.7 87
L 114.55 85.65
Q 114.05 85 113.55 84.9 113.2 84.85 112.9 85.05
M 100.5 75.9
L 100.65 76 101.6 76.3
Q 101.9 76.35 102.4 76.25
L 102.55 76.2 102.55 76 102.6 75.95 101.75 75.6 101.45 75.4 100.7 75.25 100.7 75.35
Q 100.5 75.25 100.4 75.45
L 100.4 75.45 100.4 75.75 100.5 75.9
M 118.5 158.1
Q 118.05 158.2 118.2 158.45 119.2 158.3 120.85 157.8
L 124.55 156.7
Q 124.95 156.55 124.8 156.4 124.15 156.4 122.75 156.8
L 118.5 158.1
M 111.5 156.9
L 111.4 157.25
Q 117.5 158.35 123.2 155.95
L 123 155.65
Q 117.35 157.75 111.5 156.9
M 52.55 153.25
Q 52.7 153.1 52.6 153 51.25 153 49.8 153.4
L 49.9 153.6
Q 50.75 153.65 52.25 153.35
L 52.55 153.25
M 60.75 172.3
Q 61.2 172.15 61 171.95 59.16171875 172.3322265625 57.35 172.8
L 58.85 172.25
Q 56.45 172.5 53 173.6
L 47.3 175.4
Q 44.85 176.1 41.95 176.5 42.2 177.4 43.85 177.05 46.623828125 176.4494140625 50.55 175.15 51.1541015625 175.057421875 52.35 174.75
L 60.75 172.3
M 39.7 151.95
Q 38 151.85 36.85 151.3 36 150.95 35.7 151.05 36.95 152.2 39.05 152.5 40.5 152.65 42.95 152.4
L 54.7 151.35
Q 55.5 151.25 55.6 150.9
L 42.65 151.85
Q 40.7 152 39.7 151.95
M 85.5 95.25
L 85.2 95.35 85.1 95.35 85.05 95.45 85 95.65
Q 85 95.75 85.1 96.25
L 85.9 96.25 86.1 95.65 86 95.35 85.9 95.3 85.5 95.15 85.5 95.25
M 87.1 70.6
Q 86.9 70.8 86.75 71.15 86.65 71.4 86.5 71.85 86.05 73.05 84.5 73.65 83.7 73.95 81.6 74.35 78.7 74.8 77 76
L 75 77.75
Q 74.65 78 72.8 79.15 71.45 79.95 70.8 80.75 69.85 81.85 69.25 84.5 68.65 86.9 69.4 87.95 69.8 88.5 71.55 89.35 73.05 90.1 73.25 91 73.3 91.15 73.3 91.65 73.35 92.05 73.45 92.3 73.7 92.75 74.95 93.15 76.05 93.55 76.05 94.15 71.65 93.7 67.55 91.8 66.3 91.2 65.95 90.55 65.8447265625 90.3658203125 65.75 89.9 65.6447265625 89.5421875 65.55 88.95 65.4 87.95 64.9 87.55 64.6 87.25 63.55 87.05 58.5 86.5 53.8 88.25 52.5 88.75 52.05 89.35 51.7 89.85 51.5 90.65 50.9 92.7 50.9 94.85 50.8 96.05 51.35 96.6 52.05 97.35 53.65 96.95 56.55 96.45 59.4 95.05 59.6 97.6 60.5 98.55 60.75 98.8 61.7 99.5 61.73828125 99.528125 61.75 99.55 62.465234375 100.0755859375 62.75 100.55 62.9271484375 100.86875 63.05 101.45 63.10625 101.673046875 63.15 101.95 63.3 102.95 63.5 103.35 64.05 104.4 66.35 105 66.402734375 105.015625 66.45 105 68.2328125 105.55 69.35 105.55 70.75 105.5 72.45 104.7 74.4 103.65 75.35 103.1 79.2 101.1 81.5 102.45
L 82.7 103.25
Q 83.55 103.7 85.15 103.8 87.35 103.9 88.15 104.1 89.8 104.45 90.6 105.45 90.8 105.75 91.15 106.35 91.3787109375 106.7091796875 91.6 106.95 90.6158203125 107.1552734375 88.8 107.7
L 84.2 109.1 84.3 109.4
Q 87.4 108.65 90.85 107.5 91.4939453125 107.3390625 91.7 107.05 91.784375 107.103125 91.85 107.15 92.35 107.5 93.15 107.5 93.65 107.5 94.6 107.4 97.15 107.25 99.2 108.5
L 99.15 109.7
Q 99.15 110.5 99.25 110.7 99.45 111.35 100 111.25 99.95 111.5 100.3 112.35 100.45 112.75 100.4 113.4 100.4 113.75 100.35 114.45 100.4158203125 114.81171875 100.55 114.95 100.5732421875 114.98125 100.6 115 100.6455078125 115.0390625 100.7 115.05 100.74453125 115.033203125 100.75 115 101.1 114.8220703125 101.1 114.2 101.2 112.3 100.9 111.4 100.5 110.45 99.9 110.35 99.9421875 109.5916015625 99.9 108.8 100.2201171875 108.9208984375 100.45 108.9 100.719921875 108.880078125 100.9 108.7 101.2 108.3 100.9 107.8 100.65 107.35 100.1 107.05 99.933984375 106.964453125 99.75 106.85 99.7595703125 106.8185546875 99.75 106.75 99.62265625 106.75 99.5 106.75 99.204296875 106.637109375 98.85 106.5 97.85546875 106.18125 96.85 106.15 95.3 106.15 94.55 106.1 93.2 106 92.5 105.35 91.7 104.4 91.3 103.95 90.25 102.85 87.65 102.45 84.55 102.1 83.7 101.8 82.55 101.25 81.95 101.05 80.95 100.7 78.85 100.6 77.35 100.6 76.65 100.85 75.9 101.1 74.7 102 72 103.8 68.85 104 65.85 104.2 64.85 102.5 64.6 102.05 64.4 101.1 64.15 100.15 63.9 99.7 63.6 99.2 62.4 98.35 61.696875 97.838671875 61.35 97.4 61.140234375 97.1345703125 61.05 96.9 60.95 96.7 60.75 95.3 60.6 94.3 60.05 94 59.4 93.6 58.35 94 55.5 95.3 54 95.65 52.8 95.85 52.35 95.35 52 94.9 52.2 93.7
L 53.05 90.35
Q 55.15 88.8 58.35 88.45 60.45 88.2 64.25 88.45 64.1166015625 88.956640625 64.15 89.5 64.2400390625 89.9599609375 64.45 90.45 64.85 91.45 65.7 92.15 66.75 93 69.45 93.95 72.75 95.15 74.95 95.55 76.6 95.85 77.25 95.25 77.75 94.75 77.7 93.95 77.6 93.2 77.1 92.65 76.45 91.9 74.6 91.3 75 89.95 73.7 88.85 73.15 88.35 71.3 87.5 70.75 87.15 70.6 86.9 70.35 86.55 70.55 85.8 71.05 82.75 72.2 81.5 72.7 81 73.65 80.45 75 79.65 75.15 79.55 75.65 79.2 77 78 78.1 77 78.9 76.6 79.9 76.1 82.65 75.5 85.1 75 86.25 74.15 87.7703125 73.009765625 88.05 71.15 88.42578125 71.2736328125 89.1 71.4 89.45 71.6 89.95 72.2 90.45 72.8 90.8 72.95 91.2 73.2 91.9 73.2 92.35 73.2 93.15 73.2 93.960546875 73.24765625 94.85 73.8 94.905859375 73.8220703125 94.95 73.85 95.35 74.1 96.55 75 98.6 76.55 100.1 76.4 98.612109375 75.3224609375 97.45 74.55 96.4046875 73.889453125 95.65 73.5 93.05 72.1 90.7 72.05 90.75 71.65 90.45 71.25 90.15 70.9 89.7 70.75 88.55 70.5 88.05 70.2 87.35 69.5 86.95 69.2 86.15 68.6 84.55 68.3 80.05 67.4 77.8 67.4 75.6 67.5 74.5 67.45 73.6 67.35 73.15 67.35 72.35 67.25 71.85 67.35 71.15 67.45 70.3 67.85 69.83125 68.1078125 69.45 68.3 69.065625 68.49375 68.8 68.6 67.107421875 69.42578125 65.4 69.45 65.057421875 69.476171875 64.7 69.45 64.35 69.45 62.2 69.05 61.39453125 68.9228515625 59.9 68.8 59.6392578125 68.815234375 59.35 68.8 58.8 68.8 58.75 69.05 58.75 69.35 59.25 69.45
L 63.25 70.2
Q 65.75 70.7 67 70.45 67.85 70.25 69.75 69.25 71.4 68.35 72.45 68.25 73.25 68.2 74.8 68.35 75.75 68.4 77.65 68.15 79.7 68 83.6 68.8 85.55 69.2 86.35 69.8 86.6 70.05 87.1 70.55
L 87.1 70.55 87.1 70.6
M 78.55 109.4
Q 77.75 109.65 77.9 110.1 83.15 108.35 90.35 106.4 90.2 105.95 89.5 106.2
L 78.55 109.4
M 65 83.25
L 64.7 82.95
Q 64.7 83.05 64.55 83.05
L 64.4 83.05 64.2 83.2
Q 63.7 83.6 63.65 83.7
L 63.6 84.15
Q 63.75 84.2 63.95 84.1
L 64.7 83.6
Q 65 83.35 65 83.25
M 72.55 76.55
Q 74.05 75.6 75.2 74.35 74.65 74.45 73.85 75.15 72.95 75.9 72.5 76.05 72.2 76.2 71.55 76.5 71.3 76.8 71.1 77.55 70.85 78.05 70.1 78.4 69.2 78.7 68.8 78.9 67.7 79.5 67.4 80.65 67.25 81.2 67.4 81.75 68.1 81.85 68.25 81.25
L 68.35 80.6
Q 68.45 80.2 69.2 79.75 70.45 79.05 70.65 78.9 71.4 78.35 71.7 77.7 71.95 77.05 72 77 72.05 76.9 72.55 76.55 Z"/>

<path fill="#FFFFFF" stroke="none" d="
M 23.3 158.6
L 23.15 158.05
Q 23.20625 157.7966796875 23.3 157.7 23.0197265625 157.3927734375 22.4 156.95 21.65 156.4 21.35 156.05 20.65 155.25 20.45 153.2 20.25 151.1 19.65 150.3 19.43515625 150.1078125 19.25 149.9 19.45703125 152.3728515625 19.9 153.8 20.55 156.2 22.75 159.3 23.4921875 160.3873046875 24.25 161.45 24.2595703125 161.3666015625 24.25 161.3 24.2 160.3 23.3 158.6
M 62.1 67.05
Q 63.55 67.05 64.95 65.9 65.0484375 65.827734375 65.15 65.7 64.23515625 65.8203125 63.15 66.2 62.273046875 66.52578125 61.2 67.05 61.58203125 67.05 62.1 67.05
M 111.2 167
L 111.2 166.35
Q 108.65 165.8 107.4 165.45 105.1 164.85 104.45 162.7 101.4 163 100.25 161.35 99.55 159.6 99 159.6 98.1 159.6 96.4 161.2 95.2 162.25 94.35 163.35 92.55 165.5 91.1 166 89.54296875 166.5189453125 88.3 167 88.280859375 167.737109375 88.05 168.1 87.75 168.6 86.85 169.25 86 170 86.35 170.7 86.75 171.3 87.65 170.9 88.1 170.75 88.95 170.2 89.4 170.05 90.3 170.05
L 96.4 169.75
Q 97 169.6 98.3 169.25 98.69453125 169.1623046875 100.05 169.15 100.2404296875 169.15 100.45 169.15 103.9 169.35 105.5 169.4 106.3 169.5 106.8 169.25 107.15 169.05 107.45 168.65 107.8 168.1 108 167.85 108.3 167.45 108.8 167.3 108.8759765625 167.284765625 108.95 167.25 109.0796875 167.1671875 109.2 167.15 109.55 167.1 111.2 167
M 102.75 135.85
Q 103.4458984375 135.512109375 104.05 135.15 103.402734375 135.4912109375 102.7 135.85
L 102.75 135.85
M 103.15 107.2
Q 103.1771484375 107.0873046875 103.2 106.95
L 101.7 106.65 101.7 106.55
Q 101.0306640625 106.35 100.55 106.35 100.1 106.35 100 106.45 99.8326171875 106.550390625 99.75 106.85 99.933984375 106.964453125 100.1 107.05 100.65 107.35 100.9 107.8 101.2 108.3 100.9 108.7 100.719921875 108.880078125 100.45 108.9 100.2201171875 108.9208984375 99.9 108.8 99.9421875 109.5916015625 99.9 110.35 100.5 110.45 100.9 111.4 101.2 112.3 101.1 114.2 101.1 114.8220703125 100.75 115 100.81484375 115.005859375 100.85 115 100.85 115.173046875 100.85 115.3
L 103.4 113.75
Q 104.013671875 113.3115234375 104.15 113 104.18125 112.8826171875 104.2 112.75 104.3072265625 112.4359375 104.05 112.05 103.7 111.5 103.5 111.2 102.73671875 110.0072265625 103.15 107.2
M 124.05 142.25
L 122.65 141.5
Q 123.7640625 142.3517578125 125.1 143.5 125.1 143.37578125 125.1 143.3 124.95 142.8 124.05 142.25
M 135.35 127.35
L 135.35 127.15
Q 135 127.4 134.7 128.1 134.45 128.75 134.45 129.05 134.45 129.414453125 134.45 129.75 134.5056640625 130.4677734375 134.6 131.05 134.765625 131.17578125 134.85 131.45 135 131.75 135.15 132.3 135.4 132.75 136.1 133 137.5 133.55 137.6 133.65
L 138.25 134.3
Q 139 134.8 139.1 134.95 139.25 135.2 139.2 135.9 139.2 136.5 139.4 136.75 139.65 136.95 140.15 137.2 140.4 137.45 140.4 137.9 140.4 137.95 140.35 138.7 140.35 138.9 140.5 140.15 140.6 141.05 140.35 141.6
L 139.85 142.5
Q 139.65 142.9 139.65 143.8 139.75 146.15 139.65 146.95
L 139.3 148.4
Q 139.15 149.25 139.15 150
L 139.1 150.7
Q 139.2478515625 150.4384765625 139.35 150.2 139.95 148.35 140.3 147.5 141.15 145.85 141.55 145 142.2 143.65 142.7 141.8 143.8 138.55 142.95 136.9 142.35 135.95 142.05 135.5 141.86875 135.1578125 141.8 134.85
L 141.8 134.9
Q 141.4 135.15 140.6 134.45 139.65 133.5 138.5 132.8 136.65 131.65 136.3 131.2 135.5 130.25 135.65 129.05 135.6935546875 128.6791015625 135.7 128.45 135.35 127.6931640625 135.35 127.35
M 27 89.95
Q 26.2060546875 90.2787109375 25.7 90.5 23.3 91.55 21.65 93.7 20.05 95.85 19.7 98.45 19.65 98.8 19.55 102.3 19.5 104.6 18.8 105.95 18.6 106.4 17.75 107.6 17.1 108.6 16.85 109.3 16.55 110.25 16.75 112.15 17 114.15 16.8 115.05 16.65 115.75 16.1 116.9 15.5 118.1 15.35 118.7 15.1130859375 119.6474609375 15.3 120.95
L 15.5 120.35
Q 15.4 119.35 15.55 118.9 15.9 118.3 16.1 117.95 16.75 117 17.25 114.6 17.45 113.6 17.45 113.1 17.45 112.35 17.5 111.95 17.5 111.3 17.7 110.85 17.95 110.2 18.7 109.7 19.3 109.4 19.45 109.1 19.55 108.9 19.55 108.35 19.45 105.4 20.05 104.25 20.45 103.65 21.1 102.95
L 22.4 101.5
Q 23.1 100.8 23.15 100.25 23.15 99.5 23.35 99.2 23.4 99.15 24 98.65 24.391796875 98.3888671875 24.5 98 24.6193359375 97.627734375 24.5 97.15
L 24.9 97.15
Q 24.987890625 97.3552734375 25 97.55 26.5146484375 96.278125 26.9 95.85 27.9 94.65 28.45 92.9 28.4 92.2 28.4 91.8 28.35 91.1 29.15 90.65 30.4 89.9 30.75 89.45 31.05 89.05 31.05 88.45
L 30.95 88.05
Q 30.4419921875 88.66796875 29.7 89.45
L 23.55 95.5
Q 23.9 93.05 26.7 90.25 26.871484375 90.0896484375 27 89.95
M 112.7 84.95
Q 112.25 84.65 112.1 84.3 111.8 83.65 111.3 83.1 110.75 82.5 110.3 82.5 109.8 82.5 109.8 83.5 109.8 83.9 110.1 84.2 110.4 84.55 110.45 85
L 110.55 86.25
Q 110.6662109375 86.000390625 110.85 85.85 111.3 87.6 111.25 88.35 111.15 89.9 110.1 90.55 109.2 90.95 108.9 91.35 108.55 91.8 108.7 92.9 108.8 94.05 108.55 94.5 108.4 94.75 107.8 95.15 107.25 95.55 107.05 95.85 106.85 96.1 106.85 96.65
L 106.75 97.5
Q 106.4 99.3 103.2 100.6 103.2 101.2662109375 103.05 101.8 102.78359375 102.883203125 101.95 103.45 101.1 104.1 98.9 104 98.8283203125 103.7490234375 98.95 103.5 98.45859375 103.65 97.45 103.65 97.6 104.45 99.1 104.35 101 104.25 101.5 104.55
L 101.55 104.55
Q 101.98671875 104.811328125 102.35 104.95 102.5060546875 104.867578125 102.8 104.75
L 106.8 103.5
Q 106.75 103.05 107.25 102.65 108.25 101.85 109.35 101.3 110.1 101 110.25 100.7 110.4 100.5 110.4 99.6 110.45 98.9 111.05 97.95 111.9 96.55 112 96.35
L 112.5 95 113.35 93.45 113.8 92.2
Q 114 91.6 114 91.2 114 90.1 114.15 89.9 114.333984375 89.6701171875 114.85 89.3 114.81015625 88.45 114.7 87.8 114.1908203125 86.814453125 113.25 86.25 113.1630859375 86.17890625 113.1 86.1 112.6921875 85.760546875 112.65 85.55 112.601953125 85.2619140625 112.85 85.05 112.7935546875 85.0095703125 112.7 84.95
M 101.6 73.75
L 101.25 73.15
Q 101.1 73 100.15 72.9 99.55 72.75 98.95 72.35
L 98.05 71.6
Q 97.05 70.9 96.5 70.65 95.05 70.1 94.35 69.7 94.01875 69.527734375 93.75 69.35 92.5939453125 68.8939453125 92.15 68.45 92.0478515625 68.3224609375 91.85 68.05
L 90.5 67.85 90.5 67.25
Q 91.0111328125 67.2255859375 91.45 67.25 91.07578125 66.579296875 90.75 66.3 90 65.55 88.35 65.55 86.2 65.55 85.75 65.45 85.25 65.35 84.55 64.95 83.55 64.45 83.3 64.35 82 63.8 80.6 63.9 79.8 64 79.45 63.85
L 78.6 63.45
Q 78.2 63.25 77.4 63.25
L 72.95 63.1
Q 70.65 63.1 69.85 63.3 68.1 63.85 67.45 65.1
L 67.05 65.85
Q 66.8 66.2 66 66.5 64.25 67.6 63.25 67.9 62.45 68.15 61.65 68 60.9470703125 67.8759765625 60.5 67.45 59.7748046875 67.8591796875 58.95 68.35 59.3873046875 68.5779296875 59.9 68.8 61.39453125 68.9228515625 62.2 69.05 64.35 69.45 64.7 69.45 65.057421875 69.476171875 65.4 69.45 67.107421875 69.42578125 68.8 68.6 69.065625 68.49375 69.45 68.3 69.83125 68.1078125 70.3 67.85 71.15 67.45 71.85 67.35 72.35 67.25 73.15 67.35 73.6 67.35 74.5 67.45 75.6 67.5 77.8 67.4 80.05 67.4 84.55 68.3 86.15 68.6 86.95 69.2 87.35 69.5 88.05 70.2 88.55 70.5 89.7 70.75 90.15 70.9 90.45 71.25 90.75 71.65 90.7 72.05 93.05 72.1 95.65 73.5 96.4046875 73.889453125 97.45 74.55 98.840625 75.04296875 100.4 75.45
L 100.4 75.45
Q 100.5 75.25 100.7 75.35
L 100.7 75.25 101.45 75.4 101.75 75.6 102.6 75.95 102.55 76
Q 103.204296875 76.1806640625 103.85 76.3 105.7330078125 76.34296875 107.55 77.1
L 109.3 77.9
Q 111.3 78.65 114 78.45 115.0767578125 78.3576171875 116.65 78 116.7755859375 77.995703125 116.9 77.95 117.239453125 77.88671875 117.6 77.8 117.5681640625 77.77578125 117.5 77.75 117.27578125 77.554296875 117 77.35
L 116.6 77.05 115.15 77.4
Q 113.7 77.65 113.2 77.55 112.65 77.5 111.75 77.1
L 109.3 76.05
Q 107.95 75.5 107.4 75.4
L 105.9 75.2
Q 104.45 74.7 103.7 74.55 102.9 74.45 102.5 74.35 101.85 74.15 101.6 73.75 Z"/>

<path fill="url(#Gradient_1)" stroke="none" d="
M 121.65 81.5
Q 122.95 82.95 122.6 84.85 123.85 85.35 124.35 86.9 124.75 88 124.65 89.6 124.65 91.3 124.75 91.6 124.909375 92.1576171875 125.4 92.85 125.5474609375 93.056640625 125.7 93.25 126.6 94.4 126.8 94.85 127.15 95.55 127.35 96.85 127.55 98.3 127.75 98.85
L 128.3 100.1
Q 128.6 100.85 128.65 101.4 128.7 101.6 128.7 102.5 128.7 103.15 128.85 103.5 128.95 103.75 129.35 104.15 129.65 104.5 129.75 104.75 129.85 104.95 129.9 105.5 129.95 105.95 130.1 106.2 130.25 106.5 130.7 106.75 131.3 107.05 131.45 107.2 131.7 107.4 132.1 108.1 132.45 108.7 132.75 108.95 133.05 109.15 133.6 109.25 133.95 109.3 134.6 109.4 135.1 109.55 136 110.05 136.85 110.6 137.35 110.75 137.9 110.9 139 111 140 111.15 140.45 111.65 140.85 112.05 141.05 113.15 141.45 115.15 141.65 118.15 141.655078125 118.2220703125 141.65 118.3 141.8982421875 118.3638671875 142 118.45 142.0611328125 117.4158203125 141.9 116.65
L 141.55 114
Q 141.509375 113.7158203125 141.25 113 141.121875 112.9091796875 141.05 112.55
L 140.5 109.9
Q 140.25 108.2 139.85 106.95
L 139.35 105.45
Q 139.15 104.55 139.15 102.7 139.15 100.65 139.35 99.7 139.7 98.2 139.7 97.45 139.6 96.8 139.4 96.3
L 138.85 95.35
Q 138.25 94.45 137.85 94.15 137.55 93.9 136.9 93.6 136.25 93.25 135.95 93.05 135.4 92.6 134.85 91.5 134.25 90.2 133.9 89.8 133.55 89.4 133.1 89.3
L 132.75 89.25
Q 133.5619140625 90.7630859375 133.45 92.05 131.95 89.9 129.8 87.7 127.8 85.65 124.65 83.1 123.95 82.5166015625 119.7 79.35 120.0642578125 80.2611328125 121.65 81.5 Z"/>

<path fill="#81B4FF" stroke="none" d="
M 108.35 71.25
Q 106.15 69.85 104.25 69.2 102.5 68.6 97.95 67.8 94.6234375 67.225 92.55 66.45 93.2087890625 67.3205078125 93.4 67.55 93.8 68 94.65 68.85 94.73671875 68.971484375 94.75 69.05 95.16640625 69.2125 95.9 69.35 96.45 69.55 97.4 70.25 97.65 70.35 98.1 70.45 98.55 70.55 98.8 70.75 99.05 71 99.45 71.65 99.75 71.95 100.6 72 101.5 72.05 101.8 72.3 102.05 72.55 102.45 73.2 102.75 73.55 103.55 73.65
L 108.6 74.8 111.75 76.1
Q 112.65 76.5 113.1 76.6 113.7 76.7 115.15 76.6 115.566796875 76.569140625 115.9 76.55
L 112.15 73.85
Q 109.5 71.95 108.35 71.25
M 114.7 87.8
Q 114.81015625 88.45 114.85 89.3 114.9017578125 89.2822265625 114.95 89.25 115.25 88.8 114.8 87.95 114.7673828125 87.8849609375 114.7 87.8
M 89.95 72.2
Q 89.45 71.6 89.1 71.4 88.42578125 71.2736328125 88.05 71.15 87.7703125 73.009765625 86.25 74.15 85.1 75 82.65 75.5 79.9 76.1 78.9 76.6 78.1 77 77 78 75.65 79.2 75.15 79.55 75 79.65 73.65 80.45 72.7 81 72.2 81.5 71.05 82.75 70.55 85.8 70.35 86.55 70.6 86.9 70.75 87.15 71.3 87.5 73.15 88.35 73.7 88.85 75 89.95 74.6 91.3 76.45 91.9 77.1 92.65 77.6 93.2 77.7 93.95 77.75 94.75 77.25 95.25 76.6 95.85 74.95 95.55 72.75 95.15 69.45 93.95 66.75 93 65.7 92.15 64.85 91.45 64.45 90.45 64.2400390625 89.9599609375 64.15 89.5 62.7935546875 89.112109375 62.4 89.05 61.9 88.95 58.15 88.95 57.4 88.95 56.15 89.35 54.7 89.8 53.55 90.5
L 53.55 93.35 60.9 93.35
Q 61.1810546875 95.9724609375 61.35 97.4 61.696875 97.838671875 62.4 98.35 63.6 99.2 63.9 99.7 64.15 100.15 64.4 101.1 64.6 102.05 64.85 102.5 65.85 104.2 68.85 104 72 103.8 74.7 102 75.9 101.1 76.65 100.85 77.35 100.6 78.85 100.6 80.95 100.7 81.95 101.05 82.55 101.25 83.7 101.8 84.55 102.1 87.65 102.45 90.25 102.85 91.3 103.95 91.7 104.4 92.5 105.35 93.2 106 94.55 106.1 95.3 106.15 96.85 106.15 97.85546875 106.18125 98.85 106.5 98.85 106.405078125 98.85 106.3 98.85 105.65 100.15 105.25 100.87578125 105.0341796875 101.55 104.55
L 101.5 104.55
Q 101 104.25 99.1 104.35 97.6 104.45 97.45 103.65 98.45859375 103.65 98.95 103.5 99.0150390625 103.4349609375 99.1 103.35 99.4 103.1 99.8 103 99.8796875 103 100.3 102.95 100.4177734375 102.96015625 100.55 102.95 101.05 102.9 101.3 102.75 101.5439453125 102.6037109375 101.7 102.3 101.8974609375 101.98671875 102 101.5 102.3 100.35 102.5 100.05 102.85 99.55 104.1 99.1 105.25 98.65 105.6 98.1 105.85 97.7 105.95 96.7 106 95.75 106.3 95.35 106.5 95.1 107 94.7 107.55 94.35 107.7 94.05 108.05 93.55 108.05 92 108 90.65 108.6 90.25 108.8 90.1 109.3 89.95 109.8 89.85 110 89.65 110.5 89.25 110.4 87.75 110.3333984375 86.784375 110.55 86.25
L 110.45 85
Q 110.4 84.55 110.1 84.2 109.8 83.9 109.8 83.5 109.8 82.5 110.3 82.5 110.75 82.5 111.3 83.1 111.8 83.65 112.1 84.3 112.25 84.65 112.7 84.95 112.7935546875 85.0095703125 112.85 85.05
L 112.9 85.05
Q 113.2 84.85 113.55 84.9 114.05 85 114.55 85.65
L 115.7 87
Q 116.25 87.55 116.55 88.15 116.9 88.9 116.6 89.55 116.5404296875 89.669140625 116.35 89.85 116.4572265625 90.1505859375 116.5 90.45 116.7 91.9 116.3 94.5 116.3 95.3 115.25 96.6 114.15 97.9 114.15 98.45 114.1 99.2 113.55 101.1 112.9 103.1 112.5 103.55 110.45 104.7 108.75 105.7 105.5 107.65 105.5 109.15 105.5 109.8 106 110.75 106.5 111.7 106.5 112.15 106.5 112.7787109375 106 113.2
L 106.55 113.5
Q 107.95 114.35 108.85 114.5 109.75 114.6 109.95 114.75 110.2 114.95 110.5 115.45 111.9 117.65 114.5 118.35 115.6 118.55 116 118.8 116.7 119.25 117.3 120.3 117.75 120.95 117.8 121.2 117.95 121.75 117.95 122.3 117.95 123.5 117.5 124
L 116.85 124.6
Q 116.65 124.9 116.7 125.45
L 116.7 126.35
Q 116.6 127.15 115.5 128.15 114 129.25 113.8 129.55 113.55 129.8 113.15 130.4
L 113.1 130.45
Q 113.4880859375 130.43046875 113.9 130.45 115.05 130.45 115.7 130.75
L 116.95 131.45
Q 117.8 131.85 119.75 131.8 120.85 131.95 122.85 133.15 124.45 134.05 125.15 134.8 125.7 135.35 125.9 135.4 126 135.45 127.05 135.45 127.75 135.5 128.45 136.05 129.5 136.75 129.95 138 130.45 139.2 130.15 140.4 131 140.5 131.6 141.95 132.75 144.75 132.65 146.45 132.55 147.05 132.4 147.25 132.1791015625 147.58125 131.9 147.6 131.77890625 148.3509765625 131.9 149.15 131.95 150 131.95 150.2 131.9 150.75 131.5 151 130.75 151.45 130 150.4
L 129.6 149.6
Q 129.4775390625 149.3794921875 129.35 149.2 128.8998046875 149.75 128.7 149.75 123.35 144.9 122.4 144.35 122 144.15 120.05 142.2 118.75 140.85 116.5 140.85 115.4 140.85 113.45 141.25 111.1 141.75 109.35 142.5 107.5 143.25 105.65 144.3 103.7361328125 145.3349609375 102.25 146.1
L 101.1 148.4
Q 100.1 150.4 99.25 151.25 98.6 151.9 97.5 152.6 96.9 153 95.6 153.75 94.45 154.45 93.75 155.1 92.9640625 155.7876953125 92.35 156.45 92.2173828125 156.666015625 92.05 156.85 90.8080078125 158.4724609375 90.55 160.15 90.5 160.55 90.4 161.35 90.3 162.05 90.05 162.45 89.85 162.8 89.25 163.35 88.7 163.85 88.5 164.25 88.2 164.8 88.3 166.2 88.3091796875 166.325 88.3 166.45 88.3314453125 166.7587890625 88.3 167 89.54296875 166.5189453125 91.1 166 92.55 165.5 94.35 163.35 95.2 162.25 96.4 161.2 98.1 159.6 99 159.6 99.55 159.6 100.25 161.35 101.4 163 104.45 162.7 105.1 164.85 107.4 165.45 108.65 165.8 111.2 166.35
L 111.2 167
Q 109.55 167.1 109.2 167.15 109.0796875 167.1671875 108.95 167.25 109.345703125 167.245703125 109.6 167.5 108.35 170.45 106.65 170.9 106.15 171.05 105.05 170.95 102.75 170.75 101.6 170.75 99.65 170.65 98.25 170.95
L 96.15 171.4
Q 95.5 171.5 94.05 171.5
L 93.25 171.5
Q 89.408984375 172.753515625 83.5 174.6 82.05 174.6 79.75 170.35 77.75 166.55 77.75 165.75 77.7 163.75 76.1 158.75 74.55 154.15 74.55 154.05 74.55 151.3 76.5 149.55 78.45 147.85 78.45 143.55 78.45 143.148828125 78.4 142.75 77.5583984375 143.2154296875 76.4 143.9 73.4 145.65 71.7 145.65 65.95 146.6 65.5 146.6 61.75 146.6 56 142.15 50.3 137.7 48.15 137.7
L 40.95 137.4
Q 40.1 137.4 38.9 138.2 37.7 138.95 36.5 138.95 34.95 138.95 31.25 137.7 26.75 136.15 26.45 134.45 26.6830078125 134.45 27.3 134.35 27.15 134.061328125 27.15 133.75 27.15 133.6478515625 27.3 133.45 27.1 133.3583984375 27.1 133.15 27.1 132.95 27.55 132.7 28.05 132.45 28.6 131.65 29.25 130.65 29.45 130.4 30.1 129.8 31.05 129.8 32 129.8 32.65 130.45 33.1 130.6 34.2 129.9 35.15 129.3 36.1 129.2
L 36.3 129.35
Q 36.8697265625 128.8353515625 37.4 128.15 37.5103515625 127.9857421875 37.6 127.8 37.4296875 127.9099609375 37.25 127.85 37.4 127.5 37.4 126.95 37.45 126.25 37.5 126 37.65 125.3 38.65 124.4 41 122.4 43.15 120.85 45.5 119.2 47.05 119.5 47.95 119.6 47.8 120.15 48.3 120.2 48.95 119.9 49.3 119.75 50 119.35 51.0658203125 118.8525390625 51.75 119.1 52.9689453125 119.0373046875 53.25 119.8
L 53.45 120.55
Q 53.75 121 54.95 121 57.05 121 58.65 122.3 59.45 122.85 59.85 123.55
L 64.1 130.85
Q 64.7 131.95 64.7 132.55 64.7 133 64.45 133.6 64.35 133.95 64.05 134.6 63.55 136.05 64.35 136.65 64.8 136.75 65.5 136.65 65.85 136.65 66.65 136.5 68.2 136.4 68.75 137.15
L 69.25 137.95
Q 69.75 138.4 70.8 138.2 72.05 137.8 72.35 137.85 72.85 137.9 73.5 138.2 74.35 138.6 74.65 138.7 75.35 138.9 76.65 138.7 76.9724609375 138.6443359375 77.25 138.6 76.826953125 137.7630859375 76.25 136.95 75.1 135.3 71.4 131.7 64.35 124.9 64.35 118.05 64.35 117.4 64.85 115.85 65.3 114.35 65.3 113.45 65.3 109.7 59.8 108.05 52.4 106.5 48.45 104.85 46.65 104.1 44.55 102.5 42 100.55 41.1 100.05 38.3 99.2 36 98.15 31.55 96.2 31.55 94 31.55 90.2576171875 38 80 37.5466796875 80.3416015625 37.05 80.7 34.35 82.7 33.5 84.05 32.95 84.85 32.1 86.6 31.7705078125 87.1390625 30.95 88.05
L 31.05 88.45
Q 31.05 89.05 30.75 89.45 30.4 89.9 29.15 90.65 28.35 91.1 28.4 91.8 28.4 92.2 28.45 92.9 27.9 94.65 26.9 95.85 26.5146484375 96.278125 25 97.55 25.2033203125 98.3466796875 24.6 98.95 24.4 99.2 23.95 99.65 23.85 99.95 23.85 100.7 23.8 101.1 23.2 101.7 22.45 102.5 21.15 104.2 20.6 104.95 20.5 105.25 20.3 105.8 20.35 106.6 20.35 107.1 20.5 108 20.5 109.1 20.25 109.55 20 110 19.4 110.5 19.05 110.75 18.4 111.25 18.5 113.15 18.2 114.75
L 17.35 117.7
Q 17.15 118.55 16.9 118.85
L 16.45 119.45
Q 16.35 119.65 16.4 119.95 16.4 120.1 16.45 120.4 16.45 120.65 16.2 121.5 15.8 122.7 15.95 123.85
L 15.9 123.85
Q 16.2642578125 125.563671875 16.3 126.1 16.35 127.3 15.95 129.25 15.5 131.6 15.45 132.45 15.3 135.1 16.7 139.15 18.6 144.4 18.85 145.8 18.8578125 145.8466796875 18.85 145.9 19.025 146.16875 19.1 146.6 19.15 147.1 19.2 148.2 19.35 148.75 20.2 149.6 21 150.45 21.15 151 21.25 151.45 21.25 152.3 21.3 152.7 21.6 153.45 21.65 153.85 21.65 154.65 21.75 155.3 22.35 155.9 22.7 156.25 23.45 156.9 23.75 157.2 23.75 157.4 23.75 157.6705078125 23.65 157.75 23.7310546875 157.8310546875 23.85 157.95 25.2 160.05 25.2 161.3 25.2 162.5 25.35 162.75 25.55 163.05 26.1 163.4 26.7 163.75 26.85 164 27.05 164.3 27.1 165.05
L 27.1 165.05
Q 33.62890625 172.9541015625 42.2 179.05 52.4232421875 186.2767578125 64.1 189.9 64.02109375 189.51875 64.3 189.2 64.6302734375 189.47734375 64.95 189.7 65.1814453125 189.5591796875 65.7 189.45 65.7341796875 189.4408203125 65.75 189.4 65.577734375 188.9654296875 65.95 188.5 66.2 188.15 66.85 187.95 67.15 187.9 67.7 187.75 68.2 187.6 68.35 187.25 68.5 187 68.4 186.5 68.35 185.95 68.45 185.7 68.6 185.3 69.25 185.1 69.8 184.95 71.35 184.7 72.65 184.5 73.3 184.15 74.25 183.35 74.75 182.95 76.1 181.95 79.2 181.45 82.5 180.95 83.75 180.15 84.45 179.7 85.5 178.7 86.65 177.55 87.15 177.15 88.05 176.45 88.9 176.3 89.15 176.025 89.5 175.85 90.3 175.4 91.9 175.4
L 98.65 175.05
Q 101.6 174.95 102.95 174.45 103.5046875 174.2779296875 104.2 173.95 105.39453125 173.40703125 107 172.45 107.05078125 172.426171875 107.1 172.4 107.6705078125 172.1599609375 108 172.3 108.9 172.3 108.9 172.9 108.9 172.9484375 108.85 173 109.0474609375 172.8302734375 109.2 172.65 109.45 174.05 107.2 175.25 106.7912109375 175.4650390625 106.35 175.65 105.2763671875 177.7978515625 102.65 178.75 100.55 179.55 97.2 180.35 97.3 181.65 100.45 183.05 100.5017578125 183.0732421875 100.55 183.1
L 103 183
Q 104.7572265625 183 105.6 183.4 106.3091796875 183.1859375 107 183 108.085546875 182.7755859375 109.2 182.65
L 110 182.5 110.7 182.1
Q 111.25 181.65 111.5 181.2
L 112.2 181.4
Q 112.127734375 181.5541015625 112.05 181.7 112.801171875 181.365234375 113.6 181.2 113.6 181.2794921875 113.55 181.35 115.6251953125 180.53125 116.8 180.3 118.0087890625 179.3447265625 119.45 178.05 125.75 172.2 130.95 165.35 133.05 162.5 134 160.4 134.3 159.75 135 157.9 135.6 156.3 136.05 155.45 136.45 154.7 137.8 152.85 137.8966796875 152.7095703125 137.95 152.55 138 152.123046875 138 152 138 151.35 136.05 142.6 136.05 141.65 136.75 140.05 137.4 138.45 137.4 137.85 137.4 136.9 135.65 135.95 133.85 135 133.85 133.85 134.04921875 132.5546875 134.25 131.15 134.2033203125 131.1033203125 134.15 131.05 134.2150390625 131.017578125 134.25 131 134.480859375 130.937890625 134.6 131.05 134.5056640625 130.4677734375 134.45 129.75 134.45 129.414453125 134.45 129.05 134.45 128.75 134.7 128.1 135 127.4 135.35 127.15
L 135.35 127.35
Q 135.35 127.6931640625 135.7 128.45 135.75 128.1345703125 135.75 128.05
L 135.75 127.7
Q 135.75 127.65 135.85 127.55 135.95 127.5 136 127.55 136.158203125 128.380859375 136.2 129.4 136.2 129.668359375 136.2 129.95 136.3939453125 130.041796875 136.55 130.15 137.241796875 130.5939453125 137.6 131.35 138.85 131.8 140.95 133.4 141.6427734375 134.0234375 141.75 134.5 141.7947265625 134.260546875 141.9 134.05 142.5123046875 134.35625 143 134.8
L 143 133.9 143.25 133.9 143.3 134.95
Q 143.3 134.7150390625 143.45 134.6 143.348046875 134.1115234375 143.25 133.45
L 142.75 129.75 142.8 128.25
Q 142.85 127.35 142.75 126.75
L 142.05 123.75
Q 142.0091796875 123.5458984375 142 122.65 141.538671875 122.13125 141 121.4 138.6 118.15 137.7 117.6 136.65 117 133.65 116.6 131.85 116.35 131.9 114.75 132.0375 111.725390625 129.2 107.6 128.7646484375 107.279296875 128.6 106.95 128.5400390625 106.8 128.45 106.55 128.4400390625 106.3697265625 128.4 106.15 128.3 105.55 128.15 105.3 127.45 104.65 127.25 104.2 127.15 103.95 127.2 103.55
L 127.25 102.85
Q 127.3 102.05 126.9 101 126.35 99.8 126.15 99.2 126.05 98.8 125.8 97.3 125.6 96.15 125.3 95.5 125.28515625 95.4666015625 125.25 95.4 125.0330078125 94.9607421875 124.2 93.85 123.4 92.9 123.25 92.15 123.1 91.5 123.25 89.65 123.4 88.1 122.95 87.35 122.8 87.1 122.15 86.5 121.6 86 121.45 85.55 121.3 85.25 121.3 84.7 121.3 83.95 121.25 83.8 121.1 82.95 119.85 81.45 118.7 80.05 118.65 79.1 118.65 78.8296875 118.75 78.65 118.50078125 78.4787109375 118.2 78.25 112.82734375 79.891796875 109.1 78.55 107.85 78 107.25 77.75 106.1 77.25 105.3 77.2 104.3 77.15 103.8 77.1 102.95 76.95 102.65 76.4 103.2572265625 76.3271484375 103.85 76.3 103.204296875 76.1806640625 102.55 76
L 102.55 76.2 102.4 76.25
Q 101.9 76.35 101.6 76.3
L 100.65 76 100.5 75.9 100.4 75.75 100.4 75.45
Q 98.840625 75.04296875 97.45 74.55 98.612109375 75.3224609375 100.1 76.4 98.6 76.55 96.55 75 95.35 74.1 94.95 73.85 94.905859375 73.8220703125 94.85 73.8 93.960546875 73.24765625 93.15 73.2 92.35 73.2 91.9 73.2 91.2 73.2 90.8 72.95 90.45 72.8 89.95 72.2
M 85.2 95.35
L 85.5 95.25 85.5 95.15 85.9 95.3 86 95.35 86.1 95.65 85.9 96.25 85.1 96.25
Q 85 95.75 85 95.65
L 85.05 95.45 85.1 95.35 85.2 95.35
M 36.85 151.3
Q 38 151.85 39.7 151.95 40.7 152 42.65 151.85
L 55.6 150.9
Q 55.5 151.25 54.7 151.35
L 42.95 152.4
Q 40.5 152.65 39.05 152.5 36.95 152.2 35.7 151.05 36 150.95 36.85 151.3
M 61 171.95
Q 61.2 172.15 60.75 172.3
L 52.35 174.75
Q 51.1541015625 175.057421875 50.55 175.15 46.623828125 176.4494140625 43.85 177.05 42.2 177.4 41.95 176.5 44.85 176.1 47.3 175.4
L 53 173.6
Q 56.45 172.5 58.85 172.25
L 57.35 172.8
Q 59.16171875 172.3322265625 61 171.95
M 52.6 153
Q 52.7 153.1 52.55 153.25
L 52.25 153.35
Q 50.75 153.65 49.9 153.6
L 49.8 153.4
Q 51.25 153 52.6 153
M 111.4 157.25
L 111.5 156.9
Q 117.35 157.75 123 155.65
L 123.2 155.95
Q 117.5 158.35 111.4 157.25
M 118.2 158.45
Q 118.05 158.2 118.5 158.1
L 122.75 156.8
Q 124.15 156.4 124.8 156.4 124.95 156.55 124.55 156.7
L 120.85 157.8
Q 119.2 158.3 118.2 158.45 Z"/>

<path fill="#5A9DFF" stroke="none" d="
M 94.1 179.95
Q 93.5 180.05 93.2 180.2 92.7 180.5 92.4 181.5 92.2919921875 181.95 92.15 182.25 92.6935546875 182.690234375 92.8 183.4
L 100.55 183.1
Q 100.5017578125 183.0732421875 100.45 183.05 97.3 181.65 97.2 180.35 100.55 179.55 102.65 178.75 105.2763671875 177.7978515625 106.35 175.65 102.93203125 177.3091796875 99.05 177.8 96.8 178.15 96.15 178.55 94.9 179.7 94.1 179.95
M 126.2 145.15
Q 125.35 144.9 125.15 144.5 125.05 144.25 125.1 143.9 125.1 143.6775390625 125.1 143.5 123.7640625 142.3517578125 122.65 141.5
L 121.45 140.85
Q 119.8640625 140.0376953125 118.95 139.75 118.121875 140.40703125 117.55 140.55 117.2 140.6 116.5 140.6 115.15 140.6 114.5 140.4
L 114.5 140.2
Q 114.9150390625 140.0490234375 115.7 139.95 114.95 139.95 114.7 139.85 114.4619140625 139.7650390625 114.1 139.55
L 113.55 139.75
Q 112.3 140.15 111.5 140.25 111.25 140.3 109.75 140.3 108.55 140.2 108.25 140.05
L 107.3 139.7
Q 107.1705078125 139.685546875 106.95 139.7
L 107.05 141.05
Q 107.15 141.5 107.05 141.9 106.85 142.4 105.55 143.05 105.2 143.25 104.15 144.1 103.4689453125 144.6208984375 102.95 144.85 102.9248046875 144.88828125 102.9 144.9 102.788671875 145.088671875 102.65 145.3 102.6154296875 145.447265625 102.55 145.6
L 102.25 146.1
Q 103.7361328125 145.3349609375 105.65 144.3 107.5 143.25 109.35 142.5 111.1 141.75 113.45 141.25 115.4 140.85 116.5 140.85 118.75 140.85 120.05 142.2 122 144.15 122.4 144.35 123.35 144.9 128.7 149.75 128.8998046875 149.75 129.35 149.2 129.2275390625 149.0275390625 129.1 148.9 127.8 148.25 127.55 147.6 127.45 147.35 127.5 146.7 127.5 146.1 127.35 145.8 127.15 145.45 126.2 145.15
M 134.5 132.1
Q 134.4587890625 131.483203125 134.25 131.15 134.04921875 132.5546875 133.85 133.85 133.85 135 135.65 135.95 137.4 136.9 137.4 137.85 137.4 138.45 136.75 140.05 136.05 141.65 136.05 142.6 138 151.35 138 152 138 152.123046875 137.95 152.55 138.2267578125 152.211328125 138.4 151.85 138.20078125 149.2623046875 138.45 147.85
L 138.55 147.2 138.55 143.9
Q 138.55 142.3 138.9 141.6 139.25 141 139.35 140.65 139.4 139.9 139.45 139.55 139.5 139.05 139.5 138.8 139.5 138.35 139.4 138.05 139.3 137.85 138.8 137.4 138.35 137.05 138.3 136.7 138.35 136.2 138.35 135.95 138.3 135.5 137.7 134.9 136.35 133.65 135.65 133.45 135 133.3 134.8 133.15 134.55 132.9 134.5 132.1
M 142 122.65
Q 142 122.4791015625 142 122.25
L 142 120.7
Q 141.5892578125 120.5892578125 141.35 120.35 141.1056640625 120.1056640625 140.95 119.8
L 140.95 119.85
Q 140.2 117.4 139.7 114.4 139.35 112.85 138.8 112.55 138.55 112.4 138.05 112.4 137.55 112.4 137.25 112.35 136.6 112.25 135.6 111.65 134.45 111 133.9 110.85 132.55 110.8 132 110.45 131.6 110.2 131.15 109.5 130.65 108.6 130.4 108.35 130.25 108.2 129.45 107.75 129.33515625 107.679296875 129.2 107.6 132.0375 111.725390625 131.9 114.75 131.85 116.35 133.65 116.6 136.65 117 137.7 117.6 138.6 118.15 141 121.4 141.538671875 122.13125 142 122.65
M 51.05 135.9
Q 50.906640625 135.949609375 50.75 136 48.5 136.5 47.35 136 47 135.9 46.85 135.7
L 46.45 135.15
Q 46.25 134.9 45.85 134.75 45.35 134.6 45.1 134.5 44.6 134.2 44.3 134.05 43.8 133.75 42.6 133.65 42.5 133.45 42.9 133.3 43.0375 133.2890625 43.15 133.25 42.9876953125 133.1544921875 42.85 133.05 41.3552734375 133.8947265625 40.15 135.1 38.85 136.4 38.25 136.65 37.55 136.8 37.25 136.95 36.95 137.1 36.4 137.55 35.85 137.95 35.5 138.1 34.65 138.4 33.5 138.15 32.044921875 137.8712890625 30.75 137.2 29.9736328125 136.8021484375 29.25 136.25
L 30.05 136.5
Q 29.2341796875 135.80703125 28.15 135.15 27.5390625 134.7833984375 27.3 134.35 26.6830078125 134.45 26.45 134.45 26.75 136.15 31.25 137.7 34.95 138.95 36.5 138.95 37.7 138.95 38.9 138.2 40.1 137.4 40.95 137.4
L 48.15 137.7
Q 50.3 137.7 56 142.15 61.75 146.6 65.5 146.6 65.95 146.6 71.7 145.65 73.4 145.65 76.4 143.9 77.5583984375 143.2154296875 78.4 142.75 78.45 143.148828125 78.45 143.55 78.45 147.85 76.5 149.55 74.55 151.3 74.55 154.05 74.55 154.15 76.1 158.75 77.7 163.75 77.75 165.75 77.75 166.55 79.75 170.35 82.05 174.6 83.5 174.6 89.408984375 172.753515625 93.25 171.5
L 91 171.55
Q 89.95 171.55 89.5 171.8
L 88.5 172.5
Q 88.05 172.7 87.3 172.6 86.45 172.4 86.05 172.35 85.2 172.25 85 172.05 84.9078125 171.934765625 84.85 171.75
L 84.8 171.75
Q 85.0220703125 172.169921875 84.7 172.4 81.15 172.7 80.05 170.7 79.75 170.15 79.65 169.25 79.65 168.2 79.6 167.65 79.55 165.7 78.05 160.75 76.8 156.45 77.25 153.9 77.5 152.55 78.6 150.05 79.7 147.5 79.9 146.15 80.1509765625 144.64453125 79.7 142.1 79.5330078125 141.110546875 79.25 139.95 79.2041015625 139.77578125 79.15 139.6 78.5416015625 139.9712890625 77.95 140.3 73.820703125 142.5833984375 70.4 142.8 70.366015625 142.5623046875 70.4 142.3 70.0966796875 142.3634765625 69.75 142.35 70.0798828125 142.5578125 70.4 142.85 69.5 142.3 68.25 143.15
L 67.4 143.9
Q 66.85 144.3 66.45 144.5 65.35 144.95 63.05 144.1
L 58.85 142.45
Q 57.75 142.05 57.4 141.5 57.25 141.25 57.1 140.7 56.95 140.1 56.75 139.85 56.35 139.25 55.2 139.05 53.75 138.8 53.35 138.5 52.95 138.25 52 136.85 51.5244140625 136.15234375 51.05 135.9
M 56.15 89.35
Q 57.4 88.95 58.15 88.95 61.9 88.95 62.4 89.05 62.7935546875 89.112109375 64.15 89.5 64.1166015625 88.956640625 64.25 88.45 60.45 88.2 58.35 88.45 55.15 88.8 53.05 90.35
L 52.2 93.7
Q 52 94.9 52.35 95.35 52.8 95.85 54 95.65 55.5 95.3 58.35 94 59.4 93.6 60.05 94 60.6 94.3 60.75 95.3 60.95 96.7 61.05 96.9 61.140234375 97.1345703125 61.35 97.4 61.1810546875 95.9724609375 60.9 93.35
L 53.55 93.35 53.55 90.5
Q 54.7 89.8 56.15 89.35
M 38 82.2
Q 38.79453125 80.105078125 39.75 78.75 38.9330078125 79.3556640625 38 80 31.55 90.2576171875 31.55 94 31.55 96.2 36 98.15 38.3 99.2 41.1 100.05 42 100.55 44.55 102.5 46.65 104.1 48.45 104.85 52.4 106.5 59.8 108.05 65.3 109.7 65.3 113.45 65.3 114.35 64.85 115.85 64.35 117.4 64.35 118.05 64.35 124.9 71.4 131.7 75.1 135.3 76.25 136.95 76.826953125 137.7630859375 77.25 138.6 78.2333984375 138.4611328125 78.7 138.5 78.8263671875 138.6517578125 78.8 138.85
L 78.9 138.75
Q 78.3056640625 136.787109375 77.6 135.65 77 134.75 75.95 133.7 74.7 132.5 74.1 131.9 72.55 130.45 69.25 126.5 67.65 124.55 67.05 123.55 66 121.8 65.85 120.15 65.7 118.1 67.35 114.3 69.05 110.45 68.9 108.45 66.5 108.75 65.25 108.75 63.2 108.7 61.7 108.05 60.9 107.7 59.7 106.9 58.25 105.85 57.75 105.6 56.15 104.65 52.1 103.5
L 48.5 102.5
Q 44.8 101.4 43.1 100.6 41.65 99.9 38.95 98.2 36.05 96.35 35.4 94.75 34.95 93.65 35.15 92.15 35.25 91.3 35.7 89.5 37.1 84.6 38 82.2
M 116.1 90.15
Q 115.7 90.55 115.6 90.8 115.6 90.85 115.45 91.8
L 114.7 94.3 112.75 98.15
Q 112.05 99.45 111.95 100.15 111.8 101.2 111.7 101.45 111.5 102 110.75 102.4 109.9 102.8 109.5 103 108.8 103.35 108.45 103.9
L 108.05 104.7
Q 107.7 105.1 106.85 105.4 104.1 106.35 102.8 105.85 102.1 105.6 102.25 105.15 102.270703125 105.067578125 102.35 104.95 101.98671875 104.811328125 101.55 104.55 100.87578125 105.0341796875 100.15 105.25 98.85 105.65 98.85 106.3 98.85 106.405078125 98.85 106.5 99.204296875 106.637109375 99.5 106.75 99.62265625 106.75 99.75 106.75 99.7595703125 106.8185546875 99.75 106.85 99.8326171875 106.550390625 100 106.45 100.1 106.35 100.55 106.35 101.0306640625 106.35 101.7 106.55
L 101.7 106.3
Q 102.15 106.1 103.25 106.2 103.65 106.3 103.75 106.4 103.95 106.6 103.95 107
L 104.1 109.05
Q 104.1 109.55 104.25 110 104.4 110.3 104.9 110.85 105.3306640625 111.5201171875 105.35 112.75
L 106 113.2
Q 106.5 112.7787109375 106.5 112.15 106.5 111.7 106 110.75 105.5 109.8 105.5 109.15 105.5 107.65 108.75 105.7 110.45 104.7 112.5 103.55 112.9 103.1 113.55 101.1 114.1 99.2 114.15 98.45 114.15 97.9 115.25 96.6 116.3 95.3 116.3 94.5 116.7 91.9 116.5 90.45 116.4572265625 90.1505859375 116.35 89.85 116.26171875 89.98828125 116.1 90.15 Z"/>

<path fill="#B0D181" stroke="none" d="
M 97.2 141.5
Q 97.2 142.8 99.15 143 100.3 143.15 102.95 143.1
L 102.95 143.75
Q 103.3099609375 143.5021484375 103.65 143.35 103.94765625 143.15234375 104.25 142.85 104.55 142.45 104.8 142.35
L 105.5 142.15
Q 106.2 141.95 106.45 140.95 106.5697265625 140.55078125 106.5 139.8 106.1224609375 139.9017578125 105.55 140.1 104.1 140.7 102.5 140.55 101.95 140.55 102 140.2 102.45 139.9 103.3 139.9 104.35 139.9 104.7 139.8 105 139.7 105.8 139.25 106.45 138.85 106.9 138.8 106.984375 138.789453125 107.1 138.8
L 107.1 138.6
Q 106.55 138.9 103.5 139.45 100.65 139.95 99.75 139.95 99.35 139.95 98.75 139.75 98.5673828125 139.6890625 98.4 139.65 97.2 140.5416015625 97.2 141.5
M 39 92.25
Q 39.25 92.5 39.85 92.6 40.5 92.7 40.75 92.9 41 93.1 41.35 93.55
L 41.4 93.6
Q 39.5 91.1943359375 39.5 87.6 39.5 86.75 41.45 82 42.901171875 78.5396484375 43.7 76.5 40.0638671875 79.164453125 38.55 83.95 38.2 85.15 37.7 87.65
L 37 91.55
Q 36.45 94.45 37.6 95.5 38.05 95.95 39.15 96.25 40.4 96.55 40.8 96.8 41.5 97.2 42.6 98.55 43.65 99.85 44.5 100.2 45.2 100.45 46.5 100.35 48 100.2 48.5 100.3 49.6 100.4 51.2 101.4 53.1 102.6 53.75 102.85 54.45 103.1 56.25 103.4 57.8 103.7 58.6 104.1 59.2 104.45 60.35 105.5 61.4 106.5 62.1 106.85 63.25 107.4 65.7 107.45 68.2 107.45 69.3 107.95 70.15 110.15 68.5 114.5 66.8 119 67.4 121.15 67.8 122.5 69.6 124.7 72.8 128.6 74.7 130.4 75.4 131.1 76.8 132.4 77.95 133.6 78.6 134.65 79.25 135.7 79.95 138.1 79.978125 138.051171875 80 138 80.4 137.25 80.6 137.3
L 80.75 137.6
Q 80.7822265625 138.2125 80.15 138.85 80.5384765625 140.378515625 80.7 141.75 81.25078125 145.6666015625 80.25 148.6 80.1 149.05 79.35 150.7 78.8 151.95 78.6 152.8 77.85 155.5 79.15 160 80.7 165.6 80.75 167.35 80.85 169 81.1 169.7 81.45 170.95 82.45 171.2 83 171.3 84.1 171.2 84.55 171.3 84.8 171.7 84.819921875 171.7359375 84.8 171.75
L 84.85 171.75
Q 84.8 171.5462890625 84.8 171.25 84.6 168.75 85.6 167.85 86.4 167.35 86.65 167
L 86.65 166.95
Q 86.5921875 166.95 86.5 166.95 84.45 166.95 82.6 163.75 81.048828125 161.063671875 81.1 158.25 81.0828125 157.7505859375 81.1 157.15 81.1091796875 156.777734375 81.1 156.45 81.1318359375 154.9728515625 81.05 154.4 80.9 153.25 80.85 152.65 80.75 151.65 80.95 151 81.35 150.15 81.55 149.75 81.85 149 81.7 148.5
L 82.05 148.55
Q 82.1109375 148.616015625 82.15 148.7 82.4021484375 147.794921875 82.75 146.6 83.3310546875 144.5134765625 83.6 143.3 83.5431640625 143.378515625 83.5 143.4
L 83.3 143.2 83.3 143 83.2 142.35
Q 83.35 141.75 83.3 141.4
L 83.7 141.4
Q 83.8 141.6 83.8 142.05
L 83.8 142.1
Q 83.85 141.9271484375 83.85 141.8 83.85 140.5603515625 83.7 139.45 83.6244140625 139.6 83.4 139.6 83.15 139.05 83.15 137.75 83.15 136.45 82.85 135.9 82.4 135.3 82.35 134.9 82.2 134.25 82.15 134.15 81.7 133.95 81.5 133.85 81.4 133.8 81 133.25 80.55 132.45 79.7 131.9 78.85 131.4 78.7 131.2 78.45 130.95 78.45 130.65 78.45 130.3572265625 78.6 130.15 77.9462890625 129.6466796875 77.15 129.1 73.75 126.75 72.5 124.85 71.95078125 124.026171875 71.55 123.05 71.496484375 122.99921875 71.45 122.95 70.45 121.95 70.2 121.45 69.75 120.6 69.75 119 69.65 114.5 70.6 112.35 71.5 110.75 71.8 109.85 72.05 108.75 72.35 108.3 72.95 109.15 72.45 110.55 72.2 111.25 71.45 112.65 71.1423828125 113.2890625 70.95 114.05 71.323828125 113.0982421875 71.9 111.85 73.35 108.6 73.35 107.7 73.35 105.55 69.6 105.55 65.25 105.9 64.05 105.8 61.65 105.6 58.8 103.5 56.1 101.25 55.2 100.7 53.3 99.55 49.85 98.3 45.95 96.85 44.75 96.25 43.354296875 95.5322265625 42.3 94.55 42.35 94.746875 42.35 94.95 42.45 95.25 42.8 95.55 43.2 95.9 43.3 96.1 43.4 96.25 43.55 97 43.7 97.55 44 97.7 43.55 98.05 42.8 97.85 43.05 96.85 42.25 96.05 41.7 95.5 41.65 95.4 41.65 94.9 41.55 94.65 41.45 94.45 41.2 94.3 40.8 94.1 40.75 94.05
L 40.2 93.4
Q 40 93.3 39.65 93.2 39.15 93.1 39.1 93.1 38.15 92.8 38.05 91.65
L 38.15 90.8
Q 38.05 90.15 37.7 90.05
L 38 89.9
Q 38.4 90.1 38.5 91 38.65 91.95 39 92.25
M 45.3 97.55
L 45.5 97.45 45.5 97.35 46.15 97.45 46.3 97.45 46.5 97.75 46.1 97.95 45.9 97.95 45.3 97.85 45.3 97.55 Z"/>

<path fill="url(#Gradient_2)" stroke="none" d="
M 124.15 135.8
Q 123.75 135.2 122.5 134.8 121.75 134.6 121.5 134.35 121.25 133.9 121.05 133.7 120.8 133.45 119.95 133.35
L 118.05 133.1
Q 116.85 132.9 116.5 132.7 115.75 132.25 115.35 132.05 115.15 132 114 131.85 112.61640625 131.85 111.9 132.05 111.9 132.1744140625 111.9 132.3 111.6416015625 132.4107421875 111.4 132.3 111.103125 132.5166015625 110.65 132.9 110.05 133.45 109.65 133.6 109.05 133.95 107.65 134.3 107 134.55 105.45 135.65 104.15 136.6 103.2 136.75 103.121484375 136.7611328125 103.05 136.75 102.7826171875 136.76640625 102.55 136.65 102.25 136.5 102.35 136.2 102.3841796875 136.0287109375 102.55 135.9 100.3775390625 137.0552734375 97.85 138.3
L 97.85 139.55
Q 98.05859375 139.55 98.4 139.65 98.5673828125 139.6890625 98.75 139.75 99.35 139.95 99.75 139.95 100.65 139.95 103.5 139.45 106.55 138.9 107.1 138.6
L 107.1 138.8
Q 107.53203125 138.823828125 108.4 139.1 110.7 139.8 112.95 139 113.0263671875 138.972265625 113.1 138.95 113.666796875 138.7375 114.7 138.35 115.8 138.15 116.4 138.75
L 114.1 139.55
Q 114.4619140625 139.7650390625 114.7 139.85 114.95 139.95 115.7 139.95 115.81640625 139.9384765625 115.95 139.9 116.0896484375 139.9134765625 116.25 139.9 117.45 139.85 118 139.6 118.23828125 139.4978515625 118.55 139.25 118.6904296875 139.1435546875 118.85 139
L 119.3 138.65
Q 120 138.3 120.5 138.8 120.2361328125 138.9173828125 119.75 139.2 120.7123046875 139.3845703125 122 140.1
L 124.75 141.7
Q 125.8 142.2 125.95 142.8 126 142.95 126 143.4 126.05 143.8 126.15 143.95 126.3 144.15 126.65 144.3 126.9 144.35 127.3 144.45 128.25 144.8 128.35 145.8
L 128.35 146.45
Q 128.3572265625 146.50078125 128.35 146.55 128.414453125 146.836328125 128.5 147.05 128.65 147.35 129.3 147.8 129.64375 148.034375 129.9 148.3 129.9623046875 148.360546875 130 148.4 130.59375 148.990234375 130.95 149.8 131.2 149.4 131.2 148.75 131.2 147.95 131.2 147.55 131.2 147.203515625 131.3 146.9 131.315234375 146.875390625 131.3 146.85 131.3 146.5857421875 131.3 146.25 131.35 145.65 130.9 144.2 130.35 142.7 129.9 142.15
L 129.4 141.55
Q 129.1 141.2 129 140.95 128.95 139.95 128.9 139.5 128.85 138.55 128.15 137.85 127.45 137.1 126.5 137 125.85 137 125.5 137 124.95 136.95 124.65 136.65 124.3 136.05 124.15 135.8 Z"/>

<path fill="url(#Gradient_3)" stroke="none" d="
M 79.25 183.05
Q 77.55 183.35 77.2 183.45 76.1 183.75 75.4 184.35 74.9 184.8 73.95 185.8 73.35 186.25 71.95 186.4 70.45 186.6 69.9 186.9 69.85 187.15 69.9 187.8 69.95 188.4 69.8 188.65 69.55 189.05 68.5 189.15 67.55 189.3 66.75 189.75 66.55 189.9 66.25 189.8 65.95 189.75 65.8 189.5 65.7826171875 189.4654296875 65.75 189.4 65.7341796875 189.4408203125 65.7 189.45 65.1814453125 189.5591796875 64.95 189.7 65.6998046875 190.2744140625 66.35 190.6 66.8353515625 190.726171875 67.3 190.85 67.2591796875 190.911328125 67.2 190.95 68.561328125 191.4978515625 70.3 191.7 71.55 191.85 74.15 191.9
L 77 191.95
Q 79.1 191.95 80.15 192.2 80.5 192.3 81.8 192.65 82.8 192.95 83.45 193.05 84.85 193.2 86.8 192.65 87.95 192.35 90.15 191.65 90.7 191.5 92.35 191.25 93.7 191 94.5 190.75 94.85 190.6 96.4 189.95 97.5 189.45 98.3 189.3 99 189.1 100.1 189.1
L 101.9 189
Q 105.75 188.6 108.2 185.85 108.5140625 185.5359375 108.75 185.4 109.75625 184.553125 111.3 183.7 113.5 182.55 114.55 181.9 115.547265625 181.286328125 116.8 180.3 115.6251953125 180.53125 113.55 181.35 113.5044921875 181.5455078125 113.3 181.75 113.2 181.85 112.65 182.05 112.25 182.2 110.7 183.3 109.6 184.05 108.6 184.1 108.5 183.95 108.55 183.75
L 108.55 183.7
Q 108.3931640625 183.733203125 108.2 183.75 106.0416015625 184.0314453125 104.15 184.75 104.0232421875 184.80078125 103.9 184.85 102.8 185.2 102.45 184.7 102.838671875 184.499609375 103.2 184.3 103.8103515625 184.0517578125 104.4 183.8 103.515625 183.9388671875 102.6 184 100.2978515625 184.243359375 97.75 184.3
L 93.6 184.25
Q 92.6 184.25 92.15 184.05 91.4396484375 183.6740234375 91.5 183.05
L 91.15 183
Q 91.15859375 182.86875 91.15 182.75 90.508203125 182.6126953125 90 182.3 90.5794921875 181.7978515625 91.25 181.9 91.6439453125 179.8029296875 92.85 179.2 93.25 179 94.15 178.8 94.95 178.5 96.35 177.45 97.2 177.05 98.8 176.85 102.5 176.3 104.5 175.65 105.7689453125 175.21328125 106.8 174.6 108.0046875 173.919140625 108.85 173 108.9 172.9484375 108.9 172.9 108.9 172.3 108 172.3 108.114453125 172.3521484375 108.2 172.45 107.619140625 172.8974609375 107.05 173.25 104.7787109375 174.923828125 103.2 175.45 102.05 175.85 99.05 176.05 96.2720703125 176.1734375 94.35 176.25 93.1611328125 176.342578125 92.3 176.4 91.330859375 176.4646484375 90.7 176.6
L 90.75 176.65
Q 90.55 177.05 89.9 177.15 89.6505859375 177.15 89.45 177.15 89.0328125 177.4705078125 88.5 177.95 88.466796875 177.85859375 88.45 177.75 88.3537109375 177.8703125 88.25 178 88 178.3 87.35 178.7 86.7 179.05 86.45 179.35 86.25 179.6 86 180.15 85.7 180.7 85.5 180.9 85.1 181.4 84.15 181.7 81.85 182.65 79.25 183.05
M 99 184.3
Q 99.2 184.65 98.5 185 97.25 185.55 95.8 185.9 94.9 186.1 93.9 186.2 92.4 186.3 89.4 186 89.35 185.85 89.5 185.75 89.65 185.65 89.85 185.65 94.5 185.65 99 184.3
M 101.2 184.75
Q 101.15 185.1 100.45 185.35
L 97.6 186.2
Q 96.65 186.45 96.3 186.4
L 96.2 186.2
Q 100.25 185 101.2 184.75 Z"/>

<path fill="url(#Gradient_4)" stroke="none" d="
M 49.9 121
Q 48.9 121.45 48 121.4 46.95 121.4 46.45 120.65
L 40.9 124.3
Q 39.05 125.65 38.55 126.65 38.0595703125 127.6306640625 37.6 127.8 37.5103515625 127.9857421875 37.4 128.15 36.8697265625 128.8353515625 36.3 129.35
L 36.5 129.45
Q 36.45 129.75 36.15 130 35.95 130.1 35.5 130.35 35.1 130.65 34.4 131.35 33.85 131.65 32.5 131.55 31.9 131.45 31.75 131.3 31.6 131.05 31.45 130.95
L 31.1 130.9
Q 30.7126953125 130.9 30.25 131.25 30.2302734375 131.2751953125 30.2 131.3
L 30.15 131.3
Q 29.777734375 131.6724609375 29.35 132.25 28.4 133.6 27.55 133.55 27.4125 133.51953125 27.3 133.45 27.15 133.6478515625 27.15 133.75 27.15 134.061328125 27.3 134.35 27.5390625 134.7833984375 28.15 135.15 29.2341796875 135.80703125 30.05 136.5
L 31.7 137.05
Q 34.45 137.9 35.7 136.95 36.3 136.25 36.7 136.05 37.55 135.8 38 135.6 38.45 135.4 39.75 134.1 41.15 132.8 42.95 132.25 43.25 132.15 43.55 132.25 43.9 132.35 43.85 132.6 43.33203125 132.8220703125 42.85 133.05 42.9876953125 133.1544921875 43.15 133.25 44.1939453125 133.2220703125 44.55 133.4 44.85 133.55 45.35 133.85 45.6 133.95 46.15 133.95 46.6 134.05 47.15 134.55 47.75 135.15 48.1 135.3 48.65 135.5 49.8 135.2
L 51.25 134.8
Q 52.15 134.6 52.4 135 52.2728515625 135.2796875 51.85 135.5 52.241796875 135.733984375 52.6 136.05 53.5 136.8 53.7 137.85 57.25 138.3 57.85 140 58.25 141.1 58.35 141.2 58.7 141.5 59.2 141.65
L 62.9 142.9
Q 64 143.3 64.45 143.7 66 144.1 67.2 143.05 67.6 142.65 67.75 142.5 68.1 142.15 68.4 142.05 69.0134765625 141.86953125 69.75 142.35 70.0966796875 142.3634765625 70.4 142.3 70.451953125 142.2123046875 70.5 142.1 71 142.25 71.65 141.9 72 141.75 72.75 141.3 73.073828125 141.1505859375 73.6 141 74.1724609375 140.900390625 74.95 140.8 75.406640625 140.70859375 76.5 140.15 74.6443359375 140.46796875 72.8 139.6 72.3 139.35 72.05 139.35 71.5 139.35 71.5 139.8
L 69.1 139.75
Q 68.6 139.75 68.4 139.6 68.15 139.4 68.05 138.75 67.9 138.1 67.7 137.9 65.95 138.3 64.3 138.15 63.75 138.15 63.35 137.9 62.95 137.65 62.7 137.05 61.9 135 62.8 133.15 63.1 132.55 63.05 132.2 63.05 131.9 62.6 131.35 61.2 129.7 60.8 127.65 60.45 127.7 60.25 127.3
L 60 126.6
Q 59.4 126.05 59.15 125.75 58.9 125.05 58.75 124.7 58.05 122.95 54.8 122.45 53.5 122.25 52.95 121.9 51.95 121.3 52.1 120.35 52.005078125 120.3025390625 51.15 120.3 50.5287109375 120.7119140625 49.9 121 Z"/>

<path fill="#C9EE95" stroke="none" d="
M 86.75 71.15
Q 86.9 70.8 87.1 70.6
L 87.1 70.55 87.1 70.55
Q 86.6 70.05 86.35 69.8 85.55 69.2 83.6 68.8 79.7 68 77.65 68.15 75.75 68.4 74.8 68.35 73.25 68.2 72.45 68.25 71.4 68.35 69.75 69.25 67.85 70.25 67 70.45 65.75 70.7 63.25 70.2
L 59.25 69.45
Q 58.75 69.35 58.75 69.05 58.8 68.8 59.35 68.8 59.6392578125 68.815234375 59.9 68.8 59.3873046875 68.5779296875 58.95 68.35 58.922265625 68.3861328125 58.9 68.4 55.45 70.55 54.8 70.9 53.5 71.55 51.25 72.5 48.6 73.55 47.65 74 46.0947265625 74.712890625 43.9 76.05 43.60859375 76.2541015625 43.3 76.45 43.5275390625 76.4111328125 43.75 76.4 43.831640625 76.4 43.9 76.4 43.8111328125 76.4619140625 43.7 76.5 42.901171875 78.5396484375 41.45 82 39.5 86.75 39.5 87.6 39.5 91.1943359375 41.4 93.6 41.530078125 93.672265625 41.85 93.85 42.15 94.05 42.25 94.25 42.3048828125 94.387109375 42.3 94.55 43.354296875 95.5322265625 44.75 96.25 45.95 96.85 49.85 98.3 53.3 99.55 55.2 100.7 56.1 101.25 58.8 103.5 61.65 105.6 64.05 105.8 65.25 105.9 69.6 105.55 73.35 105.55 73.35 107.7 73.35 108.6 71.9 111.85 71.323828125 113.0982421875 70.95 114.05 70.7763671875 114.8994140625 70.75 115.9 70.7 116.95 70.85 119.3 70.95 120.65 71.4 121.25 71.55 121.5 71.95 121.9 72.3 122.3 72.3 122.65 74.15 124.45 76.4 126.85 77 127.45 76.75 127.85 75.3 127.4 73.85 125.8 72.384765625 123.9564453125 71.55 123.05 71.95078125 124.026171875 72.5 124.85 73.75 126.75 77.15 129.1 77.9462890625 129.6466796875 78.6 130.15 78.6591796875 130.1328125 78.7 130.1
L 79.2 130.2
Q 79.0416015625 130.398046875 79.2 130.6 79.2376953125 130.6876953125 79.3 130.75 79.3361328125 130.8220703125 79.55 130.95 79.674609375 130.9943359375 79.8 131.05 80.3 131.3 80.9 131.9 81.25 132.2 81.9 132.9 82.9 133.9 83 134.05
L 83.35 134.9 83.9 135.85
Q 84.1 136.5 84 137.4
L 83.85 138.95
Q 83.85 139.2759765625 83.7 139.45 83.85 140.5603515625 83.85 141.8 83.85 141.9271484375 83.8 142.1
L 83.9 142.35 83.8 142.95
Q 83.6861328125 143.1775390625 83.6 143.3 83.3310546875 144.5134765625 82.75 146.6 82.4021484375 147.794921875 82.15 148.7 82.5890625 149.321875 82.05 150.4 81.765234375 151.124609375 81.65 151.6 81.5259765625 152.0330078125 81.55 152.25 81.55 152.4 81.8 153.15 82 153.75 82 154.6 82.0341796875 155.2607421875 82 155.9 82.030859375 156.880078125 81.95 157.8 81.8662109375 159.0330078125 81.65 160.2 81.4 160.35 81.3 159.9 81.1357421875 159.2431640625 81.1 158.25 81.048828125 161.063671875 82.6 163.75 84.45 166.95 86.5 166.95 86.5921875 166.95 86.65 166.95 86.941015625 166.501953125 86.8 165.75 86.65 164.6 86.65 164.4 86.65 163.63046875 87.25 162.8 87.64140625 162.335546875 88.2 161.85 88.4544921875 161.6251953125 88.75 161.4
L 89.2 158.9
Q 89.25 158.25 89.5 157.65 89.7 157.25 90.1 156.7
L 90.85 155.85
Q 92 154.35 92.7 153.75 93.4 153.15 94.8 152.4 96.4 151.55 96.95 151.15 97.00078125 151.112890625 97.05 151.05 98.1947265625 150.2083984375 99.3 148.65 99.3998046875 148.544140625 99.5 148.4 99.9162109375 147.75234375 100.25 147.2 101.0658203125 145.976171875 101.55 145.25 102.23984375 144.2564453125 102.95 143.75
L 102.95 143.1
Q 100.3 143.15 99.15 143 97.2 142.8 97.2 141.5 97.2 140.5416015625 98.4 139.65 98.05859375 139.55 97.85 139.55
L 97.85 138.3
Q 100.3775390625 137.0552734375 102.55 135.9 102.6068359375 135.9048828125 102.65 135.9 102.684375 135.8728515625 102.7 135.85 103.402734375 135.4912109375 104.05 135.15 104.9373046875 134.60234375 105.6 134 106.65 133.15 107.1 133 107.6 132.8 108.6 132.6
L 108.65 132.55
Q 109.126953125 132.423046875 109.7 131.85 110.5 131.15 110.8 130.95 110.928515625 130.8728515625 111.05 130.8 111.1966796875 130.5197265625 111.4 130.15 112.5 128.45 113.25 127.8 114.1 127.15 114.45 126.8 115.1 126.2 115.2 125.55 115.05 124.45 115.3 124 115.9 123.45 116.15 123.15 116.75 122.4 116.2 121.6 115.85 121.25 115.75 121.05 115.5 120.75 115.6 120.45 115.4 120.3 113.85 119.8 111.35 118.9 109.8 117
L 108.9 116.1 108.15 115.8
Q 107.7 115.65 106.9 115.15
L 105.1 114.15
Q 104.9953125 114.3337890625 104.85 114.45 104.75 114.5 104.05 114.75 103.5 115.1 103.5 115.35 103.15 115.3 101.9 115.65 100.9 116.05 100.35 115.6
L 100.85 115.3
Q 100.85 115.173046875 100.85 115 100.81484375 115.005859375 100.75 115 100.74453125 115.033203125 100.7 115.05 100.6455078125 115.0390625 100.6 115 100.5732421875 114.98125 100.55 114.95 100.4158203125 114.81171875 100.35 114.45 100.4 113.75 100.4 113.4 100.45 112.75 100.3 112.35 99.95 111.5 100 111.25 99.45 111.35 99.25 110.7 99.15 110.5 99.15 109.7
L 99.2 108.5
Q 97.15 107.25 94.6 107.4 93.65 107.5 93.15 107.5 92.35 107.5 91.85 107.15 91.784375 107.103125 91.7 107.05 91.4939453125 107.3390625 90.85 107.5 87.4 108.65 84.3 109.4
L 84.2 109.1 88.8 107.7
Q 90.6158203125 107.1552734375 91.6 106.95 91.3787109375 106.7091796875 91.15 106.35 90.8 105.75 90.6 105.45 89.8 104.45 88.15 104.1 87.35 103.9 85.15 103.8 83.55 103.7 82.7 103.25
L 81.5 102.45
Q 79.2 101.1 75.35 103.1 74.4 103.65 72.45 104.7 70.75 105.5 69.35 105.55 68.2328125 105.55 66.45 105 66.402734375 105.015625 66.35 105 64.05 104.4 63.5 103.35 63.3 102.95 63.15 101.95 63.10625 101.673046875 63.05 101.45 62.9271484375 100.86875 62.75 100.55 62.465234375 100.0755859375 61.75 99.55 61.73828125 99.528125 61.7 99.5 60.75 98.8 60.5 98.55 59.6 97.6 59.4 95.05 56.55 96.45 53.65 96.95 52.05 97.35 51.35 96.6 50.8 96.05 50.9 94.85 50.9 92.7 51.5 90.65 51.7 89.85 52.05 89.35 52.5 88.75 53.8 88.25 58.5 86.5 63.55 87.05 64.6 87.25 64.9 87.55 65.4 87.95 65.55 88.95 65.6447265625 89.5421875 65.75 89.9 65.8447265625 90.3658203125 65.95 90.55 66.3 91.2 67.55 91.8 71.65 93.7 76.05 94.15 76.05 93.55 74.95 93.15 73.7 92.75 73.45 92.3 73.35 92.05 73.3 91.65 73.3 91.15 73.25 91 73.05 90.1 71.55 89.35 69.8 88.5 69.4 87.95 68.65 86.9 69.25 84.5 69.85 81.85 70.8 80.75 71.45 79.95 72.8 79.15 74.65 78 75 77.75
L 77 76
Q 78.7 74.8 81.6 74.35 83.7 73.95 84.5 73.65 86.05 73.05 86.5 71.85 86.65 71.4 86.75 71.15
M 75.2 74.35
Q 74.05 75.6 72.55 76.55 72.05 76.9 72 77 71.95 77.05 71.7 77.7 71.4 78.35 70.65 78.9 70.45 79.05 69.2 79.75 68.45 80.2 68.35 80.6
L 68.25 81.25
Q 68.1 81.85 67.4 81.75 67.25 81.2 67.4 80.65 67.7 79.5 68.8 78.9 69.2 78.7 70.1 78.4 70.85 78.05 71.1 77.55 71.3 76.8 71.55 76.5 72.2 76.2 72.5 76.05 72.95 75.9 73.85 75.15 74.65 74.45 75.2 74.35
M 64.7 82.95
L 65 83.25
Q 65 83.35 64.7 83.6
L 63.95 84.1
Q 63.75 84.2 63.6 84.15
L 63.65 83.7
Q 63.7 83.6 64.2 83.2
L 64.4 83.05 64.55 83.05
Q 64.7 83.05 64.7 82.95
M 77.9 110.1
Q 77.75 109.65 78.55 109.4
L 89.5 106.2
Q 90.2 105.95 90.35 106.4 83.15 108.35 77.9 110.1 Z"/>
</g>
</defs>

<g transform="matrix( 1, 0, 0, 1, -636.8,-208.75) ">
<use xlink:href="#Layer2_0_FILL"/>
</g>

<g transform="matrix( 1, 0, 0, 1, 0,0) ">
<use xlink:href="#Layer0_0_FILL"/>
</g>

<g transform="matrix( 1, 0, 0, 1, -2.75,-10.15) ">
<use xlink:href="#Layer0_1_FILL"/>
</g>
</svg>
