<?xml version="1.0" encoding="utf-8"?>
<!-- Generator: Adobe Illustrator 24.3.0, SVG Export Plug-In . SVG Version: 6.00 Build 0)  -->
<svg version="1.1" id="Camada_1" xmlns="http://www.w3.org/2000/svg" xmlns:xlink="http://www.w3.org/1999/xlink" x="0px" y="0px"
	 viewBox="0 0 415 330" style="enable-background:new 0 0 415 330;" xml:space="preserve">
<style type="text/css">
	.st0{fill:#CFF09F;}
	.st1{fill:#0C486C;}
	.st2{fill:#144162;}
	.st3{fill-rule:evenodd;clip-rule:evenodd;fill:#144162;}
</style>
<g>
	<g>
		<path class="st0" d="M261.3,46.9h-202c-8.2,0-14.9-6.7-14.9-14.9l0,0c0-8.2,6.7-14.9,14.9-14.9h202c8.2,0,14.9,6.7,14.9,14.9l0,0
			C276.3,40.2,269.6,46.9,261.3,46.9z"/>
		<g>
			<path class="st1" d="M100.9,33.3c0.1,0,0.2,0,0.3,0.1l0.7,0.8c-0.4,0.5-0.9,0.9-1.5,1.1c-0.6,0.3-1.3,0.4-2.1,0.4
				c-0.7,0-1.4-0.1-2-0.4s-1.1-0.6-1.5-1.1c-0.4-0.4-0.7-1-1-1.6c-0.2-0.6-0.3-1.3-0.3-2s0.1-1.4,0.4-2c0.2-0.6,0.6-1.2,1-1.6
				s1-0.8,1.6-1s1.3-0.4,2.1-0.4c0.7,0,1.4,0.1,1.9,0.4c0.6,0.2,1,0.5,1.4,0.9l-0.6,0.9c0,0.1-0.1,0.1-0.1,0.1
				c-0.1,0-0.1,0.1-0.2,0.1s-0.2,0-0.3-0.1c-0.1-0.1-0.2-0.2-0.4-0.3c-0.2-0.1-0.4-0.2-0.6-0.3s-0.6-0.1-1-0.1
				c-0.5,0-0.9,0.1-1.3,0.2c-0.4,0.2-0.7,0.4-1,0.7c-0.3,0.3-0.5,0.7-0.7,1.1s-0.2,0.9-0.2,1.5s0.1,1.1,0.2,1.5
				c0.2,0.4,0.4,0.8,0.6,1.1c0.3,0.3,0.6,0.5,1,0.7s0.8,0.2,1.2,0.2c0.3,0,0.5,0,0.7,0s0.4-0.1,0.6-0.1c0.2-0.1,0.3-0.1,0.5-0.2
				s0.3-0.2,0.5-0.3l0.1-0.1C100.8,33.3,100.8,33.3,100.9,33.3z"/>
			<path class="st1" d="M106.2,28.5c0.5,0,1,0.1,1.4,0.3c0.4,0.2,0.8,0.4,1.1,0.7c0.3,0.3,0.5,0.7,0.7,1.1s0.2,0.9,0.2,1.5
				s-0.1,1.1-0.2,1.5c-0.2,0.4-0.4,0.8-0.7,1.1c-0.3,0.3-0.7,0.6-1.1,0.7c-0.4,0.2-0.9,0.3-1.4,0.3s-1-0.1-1.4-0.3s-0.8-0.4-1.1-0.7
				c-0.3-0.3-0.5-0.7-0.7-1.1s-0.3-1-0.3-1.5c0-0.6,0.1-1.1,0.3-1.5c0.2-0.4,0.4-0.8,0.7-1.1c0.3-0.3,0.7-0.6,1.1-0.7
				C105.2,28.6,105.6,28.5,106.2,28.5z M106.2,34.4c0.6,0,1-0.2,1.3-0.6s0.4-1,0.4-1.7c0-0.8-0.1-1.3-0.4-1.7s-0.7-0.6-1.3-0.6
				c-0.6,0-1,0.2-1.3,0.6s-0.4,1-0.4,1.7s0.1,1.3,0.4,1.7C105.1,34.2,105.6,34.4,106.2,34.4z"/>
			<path class="st1" d="M111,35.6v-7h1c0.2,0,0.4,0.1,0.4,0.3l0.1,0.5c0.1-0.1,0.3-0.3,0.4-0.4s0.3-0.2,0.4-0.3
				c0.2-0.1,0.3-0.1,0.5-0.2c0.2,0,0.4-0.1,0.6-0.1c0.4,0,0.8,0.1,1.1,0.4c0.3,0.2,0.5,0.6,0.6,1c0.1-0.2,0.2-0.4,0.4-0.6
				c0.2-0.2,0.3-0.3,0.5-0.4s0.4-0.2,0.6-0.2c0.2-0.1,0.4-0.1,0.7-0.1c0.4,0,0.7,0.1,1,0.2s0.6,0.3,0.8,0.5c0.2,0.2,0.4,0.5,0.5,0.8
				s0.2,0.7,0.2,1.1v4.5h-1.7v-4.5c0-0.4-0.1-0.8-0.3-1c-0.2-0.2-0.5-0.3-0.9-0.3c-0.2,0-0.3,0-0.5,0.1c-0.1,0.1-0.3,0.1-0.4,0.3
				c-0.1,0.1-0.2,0.3-0.3,0.4c-0.1,0.2-0.1,0.4-0.1,0.6v4.5h-1.7v-4.5c0-0.5-0.1-0.8-0.3-1c-0.2-0.2-0.5-0.3-0.8-0.3
				c-0.2,0-0.5,0.1-0.7,0.2s-0.4,0.3-0.6,0.5v5.2H111V35.6z"/>
			<path class="st1" d="M124.1,28.6v4.5c0,0.4,0.1,0.8,0.3,1c0.2,0.2,0.5,0.4,0.9,0.4c0.3,0,0.6-0.1,0.8-0.2s0.5-0.3,0.7-0.5v-5.1
				h1.7v7h-1c-0.2,0-0.4-0.1-0.4-0.3l-0.1-0.6c-0.1,0.1-0.3,0.3-0.5,0.4c-0.2,0.1-0.3,0.2-0.5,0.3s-0.4,0.2-0.6,0.2
				s-0.4,0.1-0.7,0.1c-0.4,0-0.7-0.1-1-0.2s-0.5-0.3-0.7-0.6s-0.4-0.5-0.5-0.8s-0.2-0.7-0.2-1.1v-4.5
				C122.3,28.6,124.1,28.6,124.1,28.6z"/>
			<path class="st1" d="M130.3,35.6v-7h1c0.2,0,0.4,0.1,0.4,0.3l0.1,0.6c0.1-0.1,0.3-0.3,0.4-0.4c0.2-0.1,0.3-0.2,0.5-0.3
				c0.2-0.1,0.4-0.2,0.6-0.2c0.2,0,0.4-0.1,0.7-0.1c0.4,0,0.7,0.1,1,0.2s0.5,0.3,0.7,0.5s0.3,0.5,0.5,0.8c0.1,0.3,0.2,0.7,0.2,1.1
				v4.5h-1.7v-4.5c0-0.4-0.1-0.8-0.3-1s-0.5-0.4-0.9-0.4c-0.3,0-0.6,0.1-0.8,0.2c-0.3,0.1-0.5,0.3-0.7,0.5v5.1L130.3,35.6
				L130.3,35.6z"/>
			<path class="st1" d="M140.2,26.5c0,0.1,0,0.3-0.1,0.4s-0.1,0.2-0.2,0.3c-0.1,0.1-0.2,0.2-0.3,0.2c-0.1,0.1-0.3,0.1-0.4,0.1
				c-0.1,0-0.3,0-0.4-0.1s-0.2-0.1-0.3-0.2s-0.2-0.2-0.2-0.3c-0.1-0.1-0.1-0.3-0.1-0.4c0-0.2,0-0.3,0.1-0.4s0.1-0.2,0.2-0.3
				s0.2-0.2,0.3-0.2s0.3-0.1,0.4-0.1c0.2,0,0.3,0,0.4,0.1c0.1,0.1,0.2,0.1,0.3,0.2s0.2,0.2,0.2,0.3
				C140.2,26.2,140.2,26.4,140.2,26.5z M139.9,28.6v7h-1.7v-7C138.2,28.6,139.9,28.6,139.9,28.6z"/>
			<path class="st1" d="M146.8,35.6c-0.2,0-0.4-0.1-0.4-0.3l-0.1-0.7c-0.1,0.2-0.3,0.3-0.5,0.4s-0.3,0.2-0.5,0.3s-0.4,0.2-0.6,0.2
				c-0.2,0.1-0.4,0.1-0.7,0.1c-0.4,0-0.7-0.1-1.1-0.2s-0.6-0.4-0.8-0.7s-0.4-0.7-0.5-1.1c-0.1-0.4-0.2-1-0.2-1.5s0.1-1,0.2-1.5
				c0.1-0.4,0.3-0.8,0.6-1.2c0.3-0.3,0.6-0.6,1-0.8c0.4-0.2,0.8-0.3,1.2-0.3s0.7,0.1,1,0.2s0.5,0.3,0.7,0.5v-3.7h1.7v10.2
				L146.8,35.6L146.8,35.6z M144.5,34.4c0.4,0,0.7-0.1,0.9-0.2s0.5-0.4,0.7-0.6v-3.2c-0.2-0.2-0.4-0.4-0.6-0.5s-0.5-0.1-0.7-0.1
				c-0.3,0-0.5,0-0.7,0.1s-0.4,0.2-0.5,0.4c-0.1,0.2-0.3,0.4-0.3,0.7c-0.1,0.3-0.1,0.7-0.1,1.1c0,0.4,0,0.8,0.1,1
				c0.1,0.3,0.2,0.5,0.3,0.7s0.3,0.3,0.5,0.4C144.1,34.3,144.3,34.4,144.5,34.4z"/>
			<path class="st1" d="M155.2,35.6h-0.8c-0.2,0-0.3,0-0.4-0.1c-0.1,0-0.2-0.1-0.2-0.3l-0.2-0.5c-0.2,0.2-0.4,0.3-0.5,0.4
				c-0.2,0.1-0.3,0.2-0.5,0.3s-0.4,0.1-0.6,0.2c-0.2,0-0.4,0.1-0.7,0.1s-0.6,0-0.8-0.1c-0.3-0.1-0.5-0.2-0.6-0.4s-0.3-0.4-0.4-0.6
				c-0.1-0.2-0.2-0.5-0.2-0.8s0.1-0.5,0.2-0.8s0.4-0.5,0.7-0.7s0.8-0.4,1.3-0.5s1.2-0.2,2-0.2v-0.4c0-0.5-0.1-0.8-0.3-1.1
				s-0.5-0.3-0.9-0.3c-0.3,0-0.5,0-0.7,0.1s-0.3,0.1-0.5,0.2c-0.1,0.1-0.3,0.2-0.4,0.2c-0.1,0.1-0.2,0.1-0.4,0.1
				c-0.1,0-0.2,0-0.3-0.1s-0.1-0.1-0.2-0.2l-0.3-0.5c0.8-0.7,1.8-1.1,2.9-1.1c0.4,0,0.8,0.1,1.1,0.2s0.6,0.3,0.8,0.6
				c0.2,0.2,0.4,0.5,0.5,0.9c0.1,0.3,0.2,0.7,0.2,1.1v4.3H155.2z M151.9,34.6c0.2,0,0.3,0,0.5,0c0.1,0,0.3-0.1,0.4-0.1
				s0.3-0.1,0.4-0.2c0.1-0.1,0.2-0.2,0.4-0.3v-1.2c-0.5,0-0.9,0-1.2,0.1s-0.6,0.1-0.8,0.2c-0.2,0.1-0.3,0.2-0.4,0.3
				c-0.1,0.1-0.1,0.3-0.1,0.4c0,0.3,0.1,0.5,0.3,0.6C151.4,34.5,151.6,34.6,151.9,34.6z"/>
			<path class="st1" d="M161.8,35.6c-0.2,0-0.4-0.1-0.4-0.3l-0.1-0.7c-0.1,0.2-0.3,0.3-0.5,0.4s-0.3,0.2-0.5,0.3s-0.4,0.2-0.6,0.2
				c-0.2,0.1-0.4,0.1-0.7,0.1c-0.4,0-0.7-0.1-1.1-0.2s-0.6-0.4-0.8-0.7s-0.4-0.7-0.5-1.1c-0.1-0.4-0.2-1-0.2-1.5s0.1-1,0.2-1.5
				c0.1-0.4,0.3-0.8,0.6-1.2c0.3-0.3,0.6-0.6,1-0.8c0.4-0.2,0.8-0.3,1.2-0.3s0.7,0.1,1,0.2s0.5,0.3,0.7,0.5v-3.7h1.7v10.2
				L161.8,35.6L161.8,35.6z M159.6,34.4c0.4,0,0.7-0.1,0.9-0.2s0.5-0.4,0.7-0.6v-3.2c-0.2-0.2-0.4-0.4-0.6-0.5s-0.5-0.1-0.7-0.1
				c-0.3,0-0.5,0-0.7,0.1s-0.4,0.2-0.5,0.4c-0.1,0.2-0.3,0.4-0.3,0.7c-0.1,0.3-0.1,0.7-0.1,1.1c0,0.4,0,0.8,0.1,1
				c0.1,0.3,0.2,0.5,0.3,0.7s0.3,0.3,0.5,0.4C159.1,34.3,159.3,34.4,159.6,34.4z"/>
			<path class="st1" d="M167.6,28.5c0.4,0,0.9,0.1,1.2,0.2c0.4,0.1,0.7,0.3,1,0.6c0.3,0.3,0.5,0.6,0.6,1c0.2,0.4,0.2,0.8,0.2,1.4
				c0,0.1,0,0.2,0,0.3s0,0.2-0.1,0.2l-0.1,0.1c-0.1,0-0.1,0-0.2,0h-4.4c0.1,0.7,0.2,1.3,0.6,1.6c0.3,0.3,0.8,0.5,1.3,0.5
				c0.3,0,0.5,0,0.7-0.1s0.4-0.1,0.5-0.2c0.1-0.1,0.3-0.1,0.4-0.2c0.1-0.1,0.2-0.1,0.3-0.1s0.1,0,0.2,0c0.1,0,0.1,0.1,0.1,0.1
				l0.5,0.6c-0.2,0.2-0.4,0.4-0.6,0.6c-0.2,0.1-0.5,0.3-0.7,0.4s-0.5,0.2-0.8,0.2s-0.5,0.1-0.8,0.1c-0.5,0-0.9-0.1-1.4-0.2
				c-0.4-0.2-0.8-0.4-1.1-0.7s-0.6-0.7-0.7-1.2c-0.2-0.5-0.3-1-0.3-1.6c0-0.5,0.1-0.9,0.2-1.4c0.2-0.4,0.4-0.8,0.7-1.1
				s0.6-0.6,1.1-0.7C166.6,28.6,167.1,28.5,167.6,28.5z M167.6,29.7c-0.5,0-0.9,0.1-1.2,0.4s-0.5,0.7-0.5,1.2h3.2
				c0-0.2,0-0.4-0.1-0.6s-0.2-0.4-0.3-0.5s-0.3-0.3-0.5-0.3C168.1,29.7,167.9,29.7,167.6,29.7z"/>
			<path class="st1" d="M176.2,30c0,0.1-0.1,0.1-0.1,0.2c-0.1,0-0.1,0-0.2,0c-0.1,0-0.2,0-0.3-0.1c-0.1,0-0.2-0.1-0.3-0.2
				s-0.3-0.1-0.4-0.2s-0.3-0.1-0.6-0.1s-0.6,0.1-0.8,0.2s-0.3,0.3-0.3,0.6c0,0.2,0,0.3,0.1,0.4s0.2,0.2,0.4,0.3s0.3,0.1,0.6,0.2
				c0.2,0.1,0.4,0.1,0.6,0.2c0.2,0.1,0.4,0.2,0.6,0.3c0.2,0.1,0.4,0.2,0.6,0.4s0.3,0.3,0.4,0.5c0.1,0.2,0.1,0.4,0.1,0.7
				s-0.1,0.7-0.2,0.9c-0.1,0.3-0.3,0.5-0.5,0.7s-0.5,0.4-0.9,0.5s-0.8,0.2-1.2,0.2c-0.2,0-0.5,0-0.7-0.1s-0.5-0.1-0.7-0.2
				s-0.4-0.2-0.6-0.3c-0.2-0.1-0.3-0.2-0.5-0.3l0.4-0.6c0.1-0.1,0.1-0.1,0.2-0.2c0.1,0,0.2-0.1,0.3-0.1s0.2,0,0.3,0.1
				s0.2,0.1,0.3,0.2c0.1,0.1,0.3,0.1,0.4,0.2s0.4,0.1,0.6,0.1c0.2,0,0.4,0,0.5-0.1c0.1,0,0.3-0.1,0.4-0.2c0.1-0.1,0.2-0.2,0.2-0.3
				s0.1-0.2,0.1-0.3c0-0.2,0-0.3-0.1-0.4c-0.1-0.1-0.2-0.2-0.4-0.3s-0.3-0.1-0.6-0.2c-0.2-0.1-0.4-0.1-0.6-0.2s-0.4-0.2-0.6-0.3
				c-0.2-0.1-0.4-0.2-0.6-0.4c-0.2-0.2-0.3-0.3-0.4-0.6c-0.1-0.2-0.1-0.5-0.1-0.8s0.1-0.6,0.2-0.8s0.3-0.5,0.5-0.7s0.5-0.4,0.8-0.5
				s0.7-0.2,1.1-0.2c0.5,0,0.9,0.1,1.3,0.2c0.4,0.2,0.7,0.4,1,0.6L176.2,30z"/>
			<path class="st1" d="M182.7,26.5c0,0.1,0,0.3-0.1,0.4s-0.1,0.2-0.2,0.3c-0.1,0.1-0.2,0.2-0.3,0.2c-0.1,0.1-0.3,0.1-0.4,0.1
				c-0.1,0-0.3,0-0.4-0.1s-0.2-0.1-0.3-0.2s-0.2-0.2-0.2-0.3c-0.1-0.1-0.1-0.3-0.1-0.4c0-0.2,0-0.3,0.1-0.4s0.1-0.2,0.2-0.3
				s0.2-0.2,0.3-0.2s0.3-0.1,0.4-0.1c0.2,0,0.3,0,0.4,0.1c0.1,0.1,0.2,0.1,0.3,0.2s0.2,0.2,0.2,0.3
				C182.7,26.2,182.7,26.4,182.7,26.5z M182.5,28.6v7h-1.7v-7C180.8,28.6,182.5,28.6,182.5,28.6z"/>
			<path class="st1" d="M184.4,35.6v-7h1c0.2,0,0.4,0.1,0.4,0.3l0.1,0.6c0.1-0.1,0.3-0.3,0.4-0.4c0.2-0.1,0.3-0.2,0.5-0.3
				c0.2-0.1,0.4-0.2,0.6-0.2c0.2,0,0.4-0.1,0.7-0.1c0.4,0,0.7,0.1,1,0.2s0.5,0.3,0.7,0.5s0.3,0.5,0.5,0.8c0.1,0.3,0.2,0.7,0.2,1.1
				v4.5h-1.7v-4.5c0-0.4-0.1-0.8-0.3-1s-0.5-0.4-0.9-0.4c-0.3,0-0.6,0.1-0.8,0.2c-0.3,0.1-0.5,0.3-0.7,0.5v5.1L184.4,35.6
				L184.4,35.6z"/>
			<path class="st1" d="M197.1,35.6c-0.2,0-0.4-0.1-0.4-0.3l-0.1-0.7c-0.1,0.2-0.3,0.3-0.5,0.4s-0.3,0.2-0.5,0.3s-0.4,0.2-0.6,0.2
				c-0.2,0.1-0.4,0.1-0.7,0.1c-0.4,0-0.7-0.1-1.1-0.2s-0.6-0.4-0.8-0.7s-0.4-0.7-0.5-1.1c-0.1-0.4-0.2-1-0.2-1.5s0.1-1,0.2-1.5
				c0.1-0.4,0.3-0.8,0.6-1.2c0.3-0.3,0.6-0.6,1-0.8c0.4-0.2,0.8-0.3,1.2-0.3s0.7,0.1,1,0.2s0.5,0.3,0.7,0.5v-3.7h1.7v10.2
				L197.1,35.6L197.1,35.6z M194.9,34.4c0.4,0,0.7-0.1,0.9-0.2s0.5-0.4,0.7-0.6v-3.2c-0.2-0.2-0.4-0.4-0.6-0.5s-0.5-0.1-0.7-0.1
				c-0.3,0-0.5,0-0.7,0.1s-0.4,0.2-0.5,0.4c-0.1,0.2-0.3,0.4-0.3,0.7c-0.1,0.3-0.1,0.7-0.1,1.1c0,0.4,0,0.8,0.1,1
				c0.1,0.3,0.2,0.5,0.3,0.7s0.3,0.3,0.5,0.4C194.5,34.3,194.7,34.4,194.9,34.4z"/>
			<path class="st1" d="M203.4,25.6l-1.7,1.8c-0.1,0.1-0.2,0.2-0.3,0.2s-0.2,0.1-0.3,0.1h-1l1-1.7c0.1-0.1,0.1-0.2,0.2-0.3
				c0.1-0.1,0.2-0.1,0.4-0.1H203.4z M201.8,28.6v7h-1.7v-7C200.1,28.6,201.8,28.6,201.8,28.6z"/>
			<path class="st1" d="M206.2,28.5c0.3,0,0.6,0,0.9,0.1c0.3,0.1,0.5,0.2,0.7,0.3h2v0.6c0,0.1,0,0.2-0.1,0.2
				c-0.1,0.1-0.1,0.1-0.3,0.1l-0.6,0.1c0,0.1,0.1,0.2,0.1,0.4c0,0.1,0,0.3,0,0.4c0,0.3-0.1,0.7-0.2,0.9c-0.1,0.3-0.3,0.5-0.6,0.7
				c-0.2,0.2-0.5,0.3-0.9,0.5c-0.3,0.1-0.7,0.2-1.1,0.2c-0.3,0-0.5,0-0.8-0.1c-0.2,0.1-0.3,0.3-0.3,0.4c0,0.1,0.1,0.2,0.2,0.3
				c0.1,0.1,0.3,0.1,0.5,0.1s0.5,0,0.7,0c0.3,0,0.5,0,0.8,0s0.6,0.1,0.8,0.1c0.3,0.1,0.5,0.1,0.7,0.3c0.2,0.1,0.4,0.3,0.5,0.5
				s0.2,0.5,0.2,0.8s-0.1,0.6-0.2,0.9c-0.2,0.3-0.4,0.6-0.7,0.8s-0.6,0.4-1.1,0.6c-0.4,0.1-0.9,0.2-1.4,0.2s-1-0.1-1.4-0.2
				c-0.4-0.1-0.7-0.2-1-0.4s-0.5-0.4-0.6-0.6c-0.1-0.2-0.2-0.5-0.2-0.7c0-0.3,0.1-0.6,0.3-0.8s0.5-0.4,0.8-0.5
				c-0.2-0.1-0.3-0.2-0.4-0.4c-0.1-0.2-0.2-0.4-0.2-0.6c0-0.1,0-0.2,0.1-0.3c0-0.1,0.1-0.2,0.2-0.3c0.1-0.1,0.2-0.2,0.3-0.3
				s0.2-0.2,0.4-0.3c-0.4-0.2-0.6-0.4-0.8-0.8s-0.3-0.7-0.3-1.1c0-0.3,0.1-0.7,0.2-0.9s0.3-0.5,0.6-0.7c0.2-0.2,0.5-0.4,0.9-0.5
				C205.4,28.5,205.8,28.5,206.2,28.5z M208,35.9c0-0.1,0-0.3-0.1-0.3c-0.1-0.1-0.2-0.2-0.3-0.2s-0.3-0.1-0.5-0.1s-0.4,0-0.6,0
				c-0.2,0-0.4,0-0.7,0s-0.4,0-0.7-0.1c-0.2,0.1-0.3,0.2-0.5,0.4s-0.2,0.3-0.2,0.5c0,0.1,0,0.2,0.1,0.3s0.2,0.2,0.3,0.3
				s0.3,0.1,0.5,0.2c0.2,0,0.5,0.1,0.8,0.1s0.6,0,0.8-0.1c0.2,0,0.4-0.1,0.6-0.2c0.1-0.1,0.3-0.2,0.3-0.3S208,36.1,208,35.9z
				 M206.2,31.9c0.2,0,0.4,0,0.5-0.1c0.2-0.1,0.3-0.1,0.4-0.2c0.1-0.1,0.2-0.2,0.2-0.4s0.1-0.3,0.1-0.5c0-0.3-0.1-0.6-0.3-0.8
				c-0.2-0.2-0.5-0.3-0.9-0.3s-0.7,0.1-0.9,0.3c-0.2,0.2-0.3,0.5-0.3,0.8c0,0.2,0,0.3,0.1,0.5c0.1,0.1,0.1,0.3,0.2,0.4
				s0.2,0.2,0.4,0.2C205.8,31.9,206,31.9,206.2,31.9z"/>
			<path class="st1" d="M213.7,28.5c0.4,0,0.9,0.1,1.2,0.2c0.4,0.1,0.7,0.3,1,0.6c0.3,0.3,0.5,0.6,0.6,1c0.2,0.4,0.2,0.8,0.2,1.4
				c0,0.1,0,0.2,0,0.3s0,0.2-0.1,0.2l-0.1,0.1c-0.1,0-0.1,0-0.2,0h-4.4c0.1,0.7,0.2,1.3,0.6,1.6c0.3,0.3,0.8,0.5,1.3,0.5
				c0.3,0,0.5,0,0.7-0.1s0.4-0.1,0.5-0.2c0.1-0.1,0.3-0.1,0.4-0.2c0.1-0.1,0.2-0.1,0.3-0.1s0.1,0,0.2,0c0.1,0,0.1,0.1,0.1,0.1
				l0.5,0.6c-0.2,0.2-0.4,0.4-0.6,0.6c-0.2,0.1-0.5,0.3-0.7,0.4s-0.5,0.2-0.8,0.2s-0.5,0.1-0.8,0.1c-0.5,0-0.9-0.1-1.4-0.2
				c-0.4-0.2-0.8-0.4-1.1-0.7s-0.6-0.7-0.7-1.2c-0.2-0.5-0.3-1-0.3-1.6c0-0.5,0.1-0.9,0.2-1.4c0.2-0.4,0.4-0.8,0.7-1.1
				s0.6-0.6,1.1-0.7S213.2,28.5,213.7,28.5z M213.8,29.7c-0.5,0-0.9,0.1-1.2,0.4s-0.5,0.7-0.5,1.2h3.2c0-0.2,0-0.4-0.1-0.6
				s-0.2-0.4-0.3-0.5s-0.3-0.3-0.5-0.3C214.3,29.7,214,29.7,213.8,29.7z"/>
			<path class="st1" d="M218.2,35.6v-7h1c0.2,0,0.4,0.1,0.4,0.3l0.1,0.6c0.1-0.1,0.3-0.3,0.4-0.4c0.2-0.1,0.3-0.2,0.5-0.3
				c0.2-0.1,0.4-0.2,0.6-0.2c0.2,0,0.4-0.1,0.7-0.1c0.4,0,0.7,0.1,1,0.2s0.5,0.3,0.7,0.5s0.3,0.5,0.5,0.8c0.1,0.3,0.2,0.7,0.2,1.1
				v4.5h-1.7v-4.5c0-0.4-0.1-0.8-0.3-1s-0.5-0.4-0.9-0.4c-0.3,0-0.6,0.1-0.8,0.2c-0.3,0.1-0.5,0.3-0.7,0.5v5.1L218.2,35.6
				L218.2,35.6z"/>
			<path class="st1" d="M231.5,35.6h-0.8c-0.2,0-0.3,0-0.4-0.1c-0.1,0-0.2-0.1-0.2-0.3l-0.2-0.5c-0.2,0.2-0.4,0.3-0.5,0.4
				c-0.2,0.1-0.3,0.2-0.5,0.3s-0.4,0.1-0.6,0.2c-0.2,0-0.4,0.1-0.7,0.1s-0.6,0-0.8-0.1c-0.3-0.1-0.5-0.2-0.6-0.4
				c-0.2-0.2-0.3-0.4-0.4-0.6c-0.1-0.2-0.2-0.5-0.2-0.8s0.1-0.5,0.2-0.8s0.4-0.5,0.7-0.7s0.8-0.4,1.3-0.5s1.2-0.2,2-0.2v-0.4
				c0-0.5-0.1-0.8-0.3-1.1s-0.5-0.3-0.9-0.3c-0.3,0-0.5,0-0.7,0.1s-0.3,0.1-0.5,0.2s-0.3,0.2-0.4,0.2c-0.1,0.1-0.2,0.1-0.4,0.1
				c-0.1,0-0.2,0-0.3-0.1s-0.1-0.1-0.2-0.2l-0.3-0.5c0.8-0.7,1.8-1.1,2.9-1.1c0.4,0,0.8,0.1,1.1,0.2s0.6,0.3,0.8,0.6
				c0.2,0.2,0.4,0.5,0.5,0.9c0.1,0.3,0.2,0.7,0.2,1.1v4.3H231.5z M228.2,34.6c0.2,0,0.3,0,0.5,0c0.1,0,0.3-0.1,0.4-0.1
				s0.3-0.1,0.4-0.2s0.2-0.2,0.4-0.3v-1.2c-0.5,0-0.9,0-1.2,0.1s-0.6,0.1-0.8,0.2c-0.2,0.1-0.3,0.2-0.4,0.3s-0.1,0.3-0.1,0.4
				c0,0.3,0.1,0.5,0.3,0.6C227.7,34.5,227.9,34.6,228.2,34.6z"/>
			<path class="st1" d="M237.3,30c0,0.1-0.1,0.1-0.1,0.2c-0.1,0-0.1,0-0.2,0c-0.1,0-0.2,0-0.3-0.1c-0.1,0-0.2-0.1-0.3-0.2
				s-0.3-0.1-0.4-0.2s-0.3-0.1-0.6-0.1s-0.6,0.1-0.8,0.2s-0.3,0.3-0.3,0.6c0,0.2,0,0.3,0.1,0.4s0.2,0.2,0.4,0.3
				c0.2,0.1,0.3,0.1,0.6,0.2c0.2,0.1,0.4,0.1,0.6,0.2s0.4,0.2,0.6,0.3c0.2,0.1,0.4,0.2,0.6,0.4s0.3,0.3,0.4,0.5
				c0.1,0.2,0.1,0.4,0.1,0.7s-0.1,0.7-0.2,0.9c-0.1,0.3-0.3,0.5-0.5,0.7s-0.5,0.4-0.9,0.5c-0.3,0.1-0.8,0.2-1.2,0.2
				c-0.2,0-0.5,0-0.7-0.1s-0.5-0.1-0.7-0.2s-0.4-0.2-0.6-0.3c-0.2-0.1-0.3-0.2-0.5-0.3l0.4-0.6c0-0.1,0.1-0.1,0.2-0.2
				c0.1,0,0.2-0.1,0.3-0.1s0.2,0,0.3,0.1s0.2,0.1,0.3,0.2c0.1,0.1,0.3,0.1,0.4,0.2c0.2,0.1,0.4,0.1,0.6,0.1c0.2,0,0.4,0,0.5-0.1
				c0.1,0,0.3-0.1,0.4-0.2c0.1-0.1,0.2-0.2,0.2-0.3s0.1-0.2,0.1-0.3c0-0.2,0-0.3-0.1-0.4c-0.1-0.1-0.2-0.2-0.4-0.3s-0.3-0.1-0.6-0.2
				c-0.2-0.1-0.4-0.1-0.6-0.2s-0.4-0.2-0.6-0.3c-0.2-0.1-0.4-0.2-0.6-0.4c-0.2-0.2-0.3-0.3-0.4-0.6c-0.1-0.2-0.1-0.5-0.1-0.8
				s0.1-0.6,0.2-0.8s0.3-0.5,0.5-0.7s0.5-0.4,0.8-0.5s0.7-0.2,1.1-0.2c0.5,0,0.9,0.1,1.3,0.2c0.4,0.2,0.7,0.4,1,0.6L237.3,30z"/>
		</g>
		<circle class="st0" cx="32.3" cy="32" r="31.6"/>
		<g>
			<g transform="matrix( 0.1983795166015625, 0, 0, 0.1984100341796875, 12.35,20.95) ">
				<g>
					<g id="Layer1_0_FILL_16_">
						<path class="st2" d="M134.5,57.5c0-1.1,0.2-2,0.4-2.9c-14.1,3.9-26.5,8.1-37.1,12.6c-14.1,6-25.5,12.7-34.2,20
							c-10.3,8.8-16.8,18.5-19.4,29.3c-3,12.4-0.7,26.2,6.7,41.1c3.3-8.9,7.6-17.6,12.7-26.2c5-8.4,10.6-16.3,16.9-23.7
							c3.9-10.1,11.5-19.9,22.7-29.5C111.7,71.1,122.2,64.1,134.5,57.5 M155,75.9c-2.9,0.4-5.7,0.2-8.5-0.7
							c-6.6,7.4-12.3,15.2-17.1,23.6c-5.5,9.7-8.9,18.5-10.2,26.6c-1.5,9.4,0.1,17.1,4.7,23.1c5.3,6.9,14.5,11.3,27.6,13.1
							c-8.4-12.4-11.8-26.7-10.4-42.9C142.4,104.9,147,90.7,155,75.9 M140.8,72c-2.5-2.1-4.3-4.7-5.3-7.7
							c-11.2,6.1-20.7,12.5-28.6,19.2c-10.4,8.9-17.3,17.9-20.7,27c-3.2,9.4-3,18.5,0.6,27.4c3,7.3,8.6,14.7,16.7,22.3
							c3.2-8.3,6.1-17.5,8.8-27.6c0-6.5,1.3-13.5,4.1-21.1c2.5-6.7,5.9-13.6,10.4-20.7C130.9,84.2,135.6,77.9,140.8,72 M129,38.4
							c0.2-1.9,0.5-3.7,0.9-5.6c-16.3-2.3-28.6-3.7-36.9-4.3c-14.3-0.9-26.5-0.4-36.6,1.6c-12.5,2.4-22.7,7.1-30.6,14
							c-9.1,8-15.3,19-18.8,33.2c8.5-4,15.5-7.1,20.8-9.3C39.4,58.7,55.4,51.6,76,46.6c7.9-1.9,16.9-3.6,27.1-5.1
							C109.1,40.7,117.7,39.7,129,38.4 M144.2,50.4c-2.2,2.2-3.3,4.9-3.3,8s1.1,5.8,3.3,8s4.9,3.3,8,3.3c3.1,0,5.8-1.1,8-3.3
							c2.2-2.2,3.3-4.9,3.3-8s-1.1-5.8-3.3-8c-2.2-2.2-4.9-3.3-8-3.3C149.1,47.1,146.4,48.2,144.2,50.4 M138.6,47.1
							c0.4-0.6,1-1.2,1.6-1.7c-3.7-1.4-14.2-0.8-31.3,1.8c-13.2,2-23.9,4-32,6c-22.1,5.4-38.4,13.5-49.1,24.1
							c-13.6,13.5-18.6,31.5-15,54c7.8-14.4,20-27.3,36.7-38.8c0.7-0.5,2.3-2,4.8-4.6c2.7-2.8,4.5-4.6,5.4-5.3
							c9.7-8.2,22.6-15.6,38.5-22.2C109.5,55.6,123,51.2,138.6,47.1 M167.2,23.7c-5.2,4.4-9.9,10-14.1,16.9c3.2,0.1,6.2,1.1,8.9,2.9
							c6.8-6,11.6-10,14.5-12c4.6-3.2,10.3-6.2,17.1-8.8l-7.3-10.1C178.8,15.6,172.4,19.3,167.2,23.7 M142.2,9.6
							c2.7-3.3,5.5-6.3,8.4-8.9c-11-7.6-23.2-14-36.6-18.9c-13.7-5.1-27-8.2-40.1-9.4c-13.5-1.2-25.6-0.1-36.3,3.2
							C25.7-20.7,16-14.2,8.6-5c11.2,1,19.8,1.9,25.7,2.5c14-6.9,32-8.2,54-3.8c7.8,1.6,17.1,4,27.9,7.5
							C122.2,3.1,130.9,5.9,142.2,9.6 M155.8-3.5c2.8-2.1,5.7-3.8,8.4-5.1c-9.9-10.2-20.3-18.6-31.2-25.3c-11.5-7-23.2-11.8-35-14.4
							C88.2-50.4,78.4-51,68.6-50c-10.3,1-20.3,3.8-30.3,8.3c5.4,0.3,12.1,1.2,19.9,2.6c9.5,1.7,15.4,3.5,17.7,5.2
							c13.6,1.4,27.5,4.8,41.7,10.3C131.8-18.3,144.4-11.6,155.8-3.5 M120.3,9.3C113,7,107,5.2,102,3.8C88.1,0,76.1-2,66.2-2.2
							C53.8-2.4,43,0.2,33.9,5.5C23.5,11.6,15,21.5,8.3,35.2c7.7-1.9,16.1-3.4,25.1-4.5c12.4-6.4,28.6-9.5,48.5-9.2
							c7.6,0.1,16.2,0.7,25.9,1.8c5,0.6,13.1,1.7,24.2,3.3c1.5-3.6,3.5-7.5,6.1-11.5C130.2,12.5,124.3,10.6,120.3,9.3 M182.5,7.3
							L173.4-5c-4.5,1-9.1,3-13.6,6.2c-4.2,2.9-8.1,6.5-11.7,10.8c-3.5,4.1-6.3,8.5-8.5,13.1c-2.3,4.6-3.6,8.9-4.1,13
							c2,0.1,3.8,0.3,5.3,0.7c1.7,0.5,3.3,1.2,4.8,2.1c4.7-8.3,9.8-15,15.4-20.2C166.9,15.2,174.1,10.8,182.5,7.3z"/>
					</g>
				</g>
			</g>
		</g>
	</g>
	<g>
		<path class="st0" d="M261.3,135.6h-202c-8.2,0-14.9-6.7-14.9-14.9l0,0c0-8.2,6.7-14.9,14.9-14.9h202c8.2,0,14.9,6.7,14.9,14.9l0,0
			C276.3,128.9,269.6,135.6,261.3,135.6z"/>
		<g>
			<path class="st1" d="M105,120.8v3.5h-1.8v-9.9h3.2c0.7,0,1.2,0.1,1.7,0.2c0.5,0.2,0.9,0.4,1.2,0.7c0.3,0.3,0.5,0.6,0.7,1
				s0.2,0.8,0.2,1.3s-0.1,0.9-0.2,1.3c-0.2,0.4-0.4,0.7-0.7,1c-0.3,0.3-0.7,0.5-1.2,0.7s-1,0.2-1.7,0.2
				C106.4,120.8,105,120.8,105,120.8z M105,119.4h1.4c0.3,0,0.6,0,0.9-0.1s0.5-0.2,0.6-0.4c0.2-0.2,0.3-0.3,0.4-0.6
				c0.1-0.2,0.1-0.5,0.1-0.8s0-0.5-0.1-0.7s-0.2-0.4-0.4-0.5c-0.2-0.2-0.4-0.3-0.6-0.3c-0.3-0.1-0.5-0.1-0.9-0.1H105V119.4z"/>
			<path class="st1" d="M114.4,117.2c0.5,0,1,0.1,1.4,0.3c0.4,0.2,0.8,0.4,1.1,0.7c0.3,0.3,0.5,0.7,0.7,1.1s0.2,0.9,0.2,1.5
				s-0.1,1.1-0.2,1.5c-0.2,0.4-0.4,0.8-0.7,1.1c-0.3,0.3-0.7,0.6-1.1,0.7c-0.4,0.2-0.9,0.3-1.4,0.3s-1-0.1-1.4-0.3
				c-0.4-0.2-0.8-0.4-1.1-0.7c-0.3-0.3-0.5-0.7-0.7-1.1s-0.3-1-0.3-1.5c0-0.6,0.1-1.1,0.3-1.5c0.2-0.4,0.4-0.8,0.7-1.1
				c0.3-0.3,0.7-0.6,1.1-0.7C113.4,117.2,113.8,117.2,114.4,117.2z M114.4,123.1c0.6,0,1-0.2,1.3-0.6s0.4-1,0.4-1.7
				c0-0.8-0.1-1.3-0.4-1.7s-0.7-0.6-1.3-0.6c-0.6,0-1,0.2-1.3,0.6s-0.4,1-0.4,1.7s0.1,1.3,0.4,1.7
				C113.3,122.9,113.8,123.1,114.4,123.1z"/>
			<path class="st1" d="M119.2,126.6v-9.3h1c0.1,0,0.2,0,0.3,0.1c0.1,0.1,0.1,0.1,0.2,0.2l0.1,0.7c0.3-0.3,0.6-0.6,1-0.8
				s0.8-0.3,1.3-0.3c0.4,0,0.7,0.1,1.1,0.2s0.6,0.4,0.8,0.7c0.2,0.3,0.4,0.7,0.5,1.1s0.2,1,0.2,1.5s-0.1,1-0.2,1.5
				c-0.1,0.4-0.3,0.8-0.6,1.2c-0.3,0.3-0.6,0.6-1,0.8c-0.4,0.2-0.8,0.3-1.3,0.3c-0.4,0-0.7-0.1-1-0.2s-0.5-0.3-0.7-0.5v2.9
				L119.2,126.6L119.2,126.6z M122.5,118.5c-0.4,0-0.7,0.1-0.9,0.2c-0.2,0.1-0.5,0.4-0.7,0.6v3.2c0.2,0.2,0.4,0.4,0.6,0.5
				s0.5,0.1,0.7,0.1c0.3,0,0.5,0,0.7-0.1s0.4-0.2,0.5-0.4c0.1-0.2,0.3-0.4,0.3-0.7c0.1-0.3,0.1-0.7,0.1-1.1s0-0.8-0.1-1
				c-0.1-0.3-0.2-0.5-0.3-0.7c-0.1-0.2-0.3-0.3-0.4-0.4C122.9,118.5,122.7,118.5,122.5,118.5z"/>
			<path class="st1" d="M128.5,117.3v4.5c0,0.4,0.1,0.8,0.3,1s0.5,0.4,0.9,0.4c0.3,0,0.6-0.1,0.8-0.2s0.5-0.3,0.7-0.5v-5.1h1.7v7h-1
				c-0.2,0-0.4-0.1-0.4-0.3l-0.1-0.6c-0.1,0.1-0.3,0.3-0.5,0.4s-0.3,0.2-0.5,0.3c-0.2,0.1-0.4,0.2-0.6,0.2c-0.2,0-0.4,0.1-0.7,0.1
				c-0.4,0-0.7-0.1-1-0.2s-0.5-0.3-0.7-0.6s-0.4-0.5-0.5-0.8s-0.2-0.7-0.2-1.1v-4.5C126.7,117.3,128.5,117.3,128.5,117.3z"/>
			<path class="st1" d="M136.5,114.1v10.2h-1.7v-10.2H136.5z"/>
			<path class="st1" d="M144,124.3h-0.8c-0.2,0-0.3,0-0.4-0.1c-0.1,0-0.2-0.1-0.2-0.3l-0.2-0.5c-0.2,0.2-0.4,0.3-0.5,0.4
				c-0.2,0.1-0.3,0.2-0.5,0.3s-0.4,0.1-0.6,0.2c-0.2,0-0.4,0.1-0.7,0.1s-0.6,0-0.8-0.1c-0.3-0.1-0.5-0.2-0.6-0.4s-0.3-0.4-0.4-0.6
				c-0.1-0.2-0.2-0.5-0.2-0.8s0.1-0.5,0.2-0.8s0.4-0.5,0.7-0.7s0.8-0.4,1.3-0.5s1.2-0.2,2-0.2v-0.4c0-0.5-0.1-0.8-0.3-1.1
				s-0.5-0.3-0.9-0.3c-0.3,0-0.5,0-0.7,0.1s-0.3,0.1-0.5,0.2c-0.1,0.1-0.3,0.2-0.4,0.2c-0.1,0.1-0.2,0.1-0.4,0.1
				c-0.1,0-0.2,0-0.3-0.1s-0.1-0.1-0.2-0.2l-0.3-0.5c0.8-0.7,1.8-1.1,2.9-1.1c0.4,0,0.8,0.1,1.1,0.2s0.6,0.3,0.8,0.6
				c0.2,0.2,0.4,0.5,0.5,0.9c0.1,0.3,0.2,0.7,0.2,1.1v4.3H144z M140.7,123.3c0.2,0,0.3,0,0.5,0c0.1,0,0.3-0.1,0.4-0.1
				s0.3-0.1,0.4-0.2c0.1-0.1,0.2-0.2,0.4-0.3v-1.2c-0.5,0-0.9,0-1.2,0.1s-0.6,0.1-0.8,0.2s-0.3,0.2-0.4,0.3
				c-0.1,0.1-0.1,0.3-0.1,0.4c0,0.3,0.1,0.5,0.3,0.6C140.2,123.2,140.4,123.3,140.7,123.3z"/>
			<path class="st1" d="M147.5,125.9C147.5,125.9,147.6,125.9,147.5,125.9c0.1,0,0.2,0,0.2,0h0.1c0,0,0.1,0,0.2,0
				c0.2,0,0.3,0,0.3-0.1c0.1-0.1,0.1-0.1,0.1-0.2s-0.1-0.2-0.2-0.3c-0.2-0.1-0.4-0.1-0.8-0.2l0.3-0.9c-0.4-0.1-0.7-0.2-1-0.4
				c-0.3-0.2-0.6-0.4-0.8-0.7c-0.2-0.3-0.4-0.7-0.5-1.1s-0.2-0.9-0.2-1.4s0.1-1,0.2-1.4c0.1-0.4,0.4-0.8,0.7-1.1
				c0.3-0.3,0.6-0.6,1.1-0.8c0.4-0.2,0.9-0.3,1.5-0.3c0.5,0,1,0.1,1.4,0.3c0.4,0.2,0.8,0.4,1.1,0.7l-0.4,0.6
				c-0.1,0.1-0.1,0.1-0.1,0.2c0,0-0.1,0.1-0.2,0.1c-0.1,0-0.2,0-0.3-0.1s-0.2-0.1-0.3-0.2s-0.3-0.1-0.4-0.2
				c-0.2-0.1-0.4-0.1-0.6-0.1c-0.3,0-0.6,0.1-0.8,0.2s-0.4,0.3-0.6,0.5c-0.1,0.2-0.3,0.4-0.3,0.7s-0.1,0.6-0.1,1s0,0.7,0.1,1
				s0.2,0.5,0.3,0.7c0.2,0.2,0.3,0.3,0.5,0.5c0.2,0.1,0.5,0.2,0.7,0.2s0.5,0,0.7-0.1s0.3-0.1,0.4-0.2s0.2-0.2,0.3-0.2
				c0.1-0.1,0.2-0.1,0.3-0.1s0.2,0.1,0.3,0.2l0.5,0.6c-0.3,0.4-0.7,0.6-1.1,0.8c-0.4,0.2-0.8,0.3-1.2,0.3l-0.1,0.3
				c0.4,0.1,0.7,0.2,0.9,0.4c0.2,0.2,0.2,0.4,0.2,0.6s0,0.3-0.1,0.4s-0.2,0.2-0.3,0.3s-0.3,0.2-0.5,0.2s-0.4,0.1-0.7,0.1
				c-0.2,0-0.4,0-0.5,0c-0.2,0-0.3-0.1-0.5-0.1l0.2-0.5C147.3,125.9,147.4,125.9,147.5,125.9z"/>
			<path class="st1" d="M157.7,124.3h-0.8c-0.2,0-0.3,0-0.4-0.1c-0.1,0-0.2-0.1-0.2-0.3l-0.2-0.5c-0.2,0.2-0.4,0.3-0.5,0.4
				c-0.2,0.1-0.3,0.2-0.5,0.3s-0.4,0.1-0.6,0.2c-0.2,0-0.4,0.1-0.7,0.1s-0.6,0-0.8-0.1c-0.3-0.1-0.5-0.2-0.6-0.4s-0.3-0.4-0.4-0.6
				c-0.1-0.2-0.2-0.5-0.2-0.8s0.1-0.5,0.2-0.8s0.4-0.5,0.7-0.7s0.8-0.4,1.3-0.5s1.2-0.2,2-0.2v-0.4c0-0.5-0.1-0.8-0.3-1.1
				s-0.5-0.3-0.9-0.3c-0.3,0-0.5,0-0.7,0.1s-0.3,0.1-0.5,0.2c-0.1,0.1-0.3,0.2-0.4,0.2c-0.1,0.1-0.2,0.1-0.4,0.1
				c-0.1,0-0.2,0-0.3-0.1s-0.1-0.1-0.2-0.2l-0.3-0.5c0.8-0.7,1.8-1.1,2.9-1.1c0.4,0,0.8,0.1,1.1,0.2s0.6,0.3,0.8,0.6
				c0.2,0.2,0.4,0.5,0.5,0.9c0.1,0.3,0.2,0.7,0.2,1.1v4.3H157.7z M155.8,115c0.1,0,0.2,0,0.3-0.1s0.1-0.2,0.1-0.4h1
				c0,0.3,0,0.5-0.1,0.7s-0.2,0.4-0.3,0.5s-0.3,0.3-0.4,0.3s-0.4,0.1-0.6,0.1c-0.2,0-0.3,0-0.5-0.1c-0.1-0.1-0.3-0.1-0.4-0.2
				c-0.1-0.1-0.2-0.1-0.3-0.2s-0.2-0.1-0.3-0.1s-0.2,0-0.3,0.1s-0.1,0.2-0.1,0.4h-1c0-0.3,0-0.5,0.1-0.7s0.2-0.4,0.3-0.5
				s0.3-0.3,0.4-0.3c0.2-0.1,0.4-0.1,0.6-0.1c0.2,0,0.3,0,0.5,0.1c0.1,0.1,0.3,0.1,0.4,0.2c0.1,0.1,0.2,0.1,0.3,0.2
				S155.7,115,155.8,115z M154.4,123.3c0.2,0,0.3,0,0.5,0c0.1,0,0.3-0.1,0.4-0.1s0.3-0.1,0.4-0.2c0.1-0.1,0.2-0.2,0.4-0.3v-1.2
				c-0.5,0-0.9,0-1.2,0.1s-0.6,0.1-0.8,0.2s-0.3,0.2-0.4,0.3c-0.1,0.1-0.1,0.3-0.1,0.4c0,0.3,0.1,0.5,0.3,0.6
				C153.9,123.2,154.1,123.3,154.4,123.3z"/>
			<path class="st1" d="M162.4,117.2c0.5,0,1,0.1,1.4,0.3c0.4,0.2,0.8,0.4,1.1,0.7c0.3,0.3,0.5,0.7,0.7,1.1s0.2,0.9,0.2,1.5
				s-0.1,1.1-0.2,1.5c-0.2,0.4-0.4,0.8-0.7,1.1c-0.3,0.3-0.7,0.6-1.1,0.7c-0.4,0.2-0.9,0.3-1.4,0.3s-1-0.1-1.4-0.3
				c-0.4-0.2-0.8-0.4-1.1-0.7c-0.3-0.3-0.5-0.7-0.7-1.1s-0.3-1-0.3-1.5c0-0.6,0.1-1.1,0.3-1.5s0.4-0.8,0.7-1.1
				c0.3-0.3,0.7-0.6,1.1-0.7C161.4,117.2,161.8,117.2,162.4,117.2z M162.4,123.1c0.6,0,1-0.2,1.3-0.6s0.4-1,0.4-1.7
				c0-0.8-0.1-1.3-0.4-1.7s-0.7-0.6-1.3-0.6s-1,0.2-1.3,0.6s-0.4,1-0.4,1.7s0.1,1.3,0.4,1.7C161.3,122.9,161.8,123.1,162.4,123.1z"
				/>
			<path class="st1" d="M169.8,124.3v-7h1c0.2,0,0.3,0,0.4,0.1c0.1,0.1,0.1,0.2,0.1,0.3l0.1,0.9c0.3-0.4,0.5-0.8,0.9-1
				c0.3-0.3,0.7-0.4,1.1-0.4c0.3,0,0.6,0.1,0.9,0.2l-0.2,1.3c0,0.1,0,0.1-0.1,0.2c0,0-0.1,0.1-0.2,0.1c-0.1,0-0.2,0-0.3,0
				s-0.3,0-0.5,0c-0.4,0-0.7,0.1-0.9,0.3s-0.5,0.5-0.6,0.9v4.4h-1.7V124.3z"/>
			<path class="st1" d="M177.5,115.2c0,0.1,0,0.3-0.1,0.4s-0.1,0.2-0.2,0.3c-0.1,0.1-0.2,0.2-0.3,0.2c-0.1,0.1-0.3,0.1-0.4,0.1
				c-0.1,0-0.3,0-0.4-0.1s-0.2-0.1-0.3-0.2s-0.2-0.2-0.2-0.3c-0.1-0.1-0.1-0.3-0.1-0.4c0-0.2,0-0.3,0.1-0.4s0.1-0.2,0.2-0.3
				s0.2-0.2,0.3-0.2s0.3-0.1,0.4-0.1c0.2,0,0.3,0,0.4,0.1c0.1,0.1,0.2,0.1,0.3,0.2s0.2,0.2,0.2,0.3S177.5,115.1,177.5,115.2z
				 M177.2,117.3v7h-1.7v-7H177.2z"/>
			<path class="st1" d="M179.2,124.3v-10.2h1.7v4c0.3-0.3,0.6-0.5,0.9-0.7c0.4-0.2,0.8-0.3,1.2-0.3s0.7,0.1,1.1,0.2
				c0.3,0.2,0.6,0.4,0.8,0.7c0.2,0.3,0.4,0.7,0.5,1.1s0.2,1,0.2,1.5s-0.1,1-0.2,1.5c-0.1,0.4-0.3,0.8-0.6,1.2
				c-0.3,0.3-0.6,0.6-1,0.8c-0.4,0.2-0.8,0.3-1.3,0.3c-0.2,0-0.4,0-0.6-0.1c-0.2,0-0.3-0.1-0.5-0.2c-0.1-0.1-0.3-0.2-0.4-0.3
				c-0.1-0.1-0.2-0.2-0.4-0.4l-0.1,0.5c0,0.1-0.1,0.2-0.1,0.3c-0.1,0.1-0.2,0.1-0.3,0.1H179.2z M182.5,118.5c-0.4,0-0.7,0.1-0.9,0.2
				s-0.5,0.4-0.7,0.6v3.2c0.2,0.2,0.4,0.4,0.6,0.5s0.5,0.1,0.7,0.1c0.3,0,0.5,0,0.7-0.1s0.4-0.2,0.5-0.4s0.3-0.4,0.3-0.7
				c0.1-0.3,0.1-0.7,0.1-1.1s0-0.8-0.1-1c-0.1-0.3-0.2-0.5-0.3-0.7s-0.3-0.3-0.4-0.4C182.9,118.5,182.7,118.5,182.5,118.5z"/>
			<path class="st1" d="M189.9,117.2c0.4,0,0.9,0.1,1.2,0.2c0.4,0.1,0.7,0.3,1,0.6c0.3,0.3,0.5,0.6,0.6,1c0.2,0.4,0.2,0.8,0.2,1.4
				c0,0.1,0,0.2,0,0.3c0,0.1,0,0.2-0.1,0.2l-0.1,0.1c-0.1,0-0.1,0-0.2,0h-4.4c0.1,0.7,0.2,1.3,0.6,1.6c0.3,0.3,0.8,0.5,1.3,0.5
				c0.3,0,0.5,0,0.7-0.1s0.4-0.1,0.5-0.2s0.3-0.1,0.4-0.2c0.1-0.1,0.2-0.1,0.3-0.1s0.1,0,0.2,0c0.1,0,0.1,0.1,0.1,0.1l0.5,0.6
				c-0.2,0.2-0.4,0.4-0.6,0.6c-0.2,0.1-0.5,0.3-0.7,0.4s-0.5,0.2-0.8,0.2s-0.5,0.1-0.8,0.1c-0.5,0-0.9-0.1-1.4-0.2
				c-0.4-0.2-0.8-0.4-1.1-0.7c-0.3-0.3-0.6-0.7-0.7-1.2c-0.2-0.5-0.3-1-0.3-1.6c0-0.5,0.1-0.9,0.2-1.4c0.2-0.4,0.4-0.8,0.7-1.1
				s0.6-0.6,1.1-0.7C188.9,117.2,189.3,117.2,189.9,117.2z M189.9,118.4c-0.5,0-0.9,0.1-1.2,0.4s-0.5,0.7-0.5,1.2h3.2
				c0-0.2,0-0.4-0.1-0.6s-0.2-0.4-0.3-0.5s-0.3-0.3-0.5-0.3C190.4,118.4,190.2,118.4,189.9,118.4z"/>
			<path class="st1" d="M196.4,115.2c0,0.1,0,0.3-0.1,0.4s-0.1,0.2-0.2,0.3c-0.1,0.1-0.2,0.2-0.3,0.2c-0.1,0.1-0.3,0.1-0.4,0.1
				c-0.1,0-0.3,0-0.4-0.1s-0.2-0.1-0.3-0.2s-0.2-0.2-0.2-0.3c-0.1-0.1-0.1-0.3-0.1-0.4c0-0.2,0-0.3,0.1-0.4s0.1-0.2,0.2-0.3
				s0.2-0.2,0.3-0.2s0.3-0.1,0.4-0.1c0.2,0,0.3,0,0.4,0.1c0.1,0.1,0.2,0.1,0.3,0.2s0.2,0.2,0.2,0.3
				C196.3,114.9,196.4,115.1,196.4,115.2z M196.1,117.3v7h-1.7v-7H196.1z"/>
			<path class="st1" d="M198,124.3v-7h1c0.2,0,0.3,0,0.4,0.1c0.1,0.1,0.1,0.2,0.1,0.3l0.1,0.9c0.3-0.4,0.5-0.8,0.9-1
				c0.3-0.3,0.7-0.4,1.1-0.4c0.3,0,0.6,0.1,0.9,0.2l-0.2,1.3c0,0.1,0,0.1-0.1,0.2c0,0-0.1,0.1-0.2,0.1c-0.1,0-0.2,0-0.3,0
				s-0.3,0-0.5,0c-0.4,0-0.7,0.1-0.9,0.3s-0.5,0.5-0.6,0.9v4.4H198V124.3z"/>
			<path class="st1" d="M205.7,115.2c0,0.1,0,0.3-0.1,0.4s-0.1,0.2-0.2,0.3c-0.1,0.1-0.2,0.2-0.3,0.2c-0.1,0.1-0.3,0.1-0.4,0.1
				c-0.1,0-0.3,0-0.4-0.1s-0.2-0.1-0.3-0.2s-0.2-0.2-0.2-0.3c-0.1-0.1-0.1-0.3-0.1-0.4c0-0.2,0-0.3,0.1-0.4s0.1-0.2,0.2-0.3
				s0.2-0.2,0.3-0.2s0.3-0.1,0.4-0.1c0.2,0,0.3,0,0.4,0.1c0.1,0.1,0.2,0.1,0.3,0.2s0.2,0.2,0.2,0.3
				C205.7,114.9,205.7,115.1,205.7,115.2z M205.4,117.3v7h-1.7v-7H205.4z"/>
			<path class="st1" d="M207.3,124.3v-7h1c0.2,0,0.4,0.1,0.4,0.3l0.1,0.6c0.1-0.1,0.3-0.3,0.4-0.4c0.2-0.1,0.3-0.2,0.5-0.3
				c0.2-0.1,0.4-0.2,0.6-0.2c0.2,0,0.4-0.1,0.7-0.1c0.4,0,0.7,0.1,1,0.2s0.5,0.3,0.7,0.5s0.3,0.5,0.5,0.8c0.1,0.3,0.2,0.7,0.2,1.1
				v4.5h-1.7v-4.5c0-0.4-0.1-0.8-0.3-1s-0.5-0.4-0.9-0.4c-0.3,0-0.6,0.1-0.8,0.2c-0.3,0.1-0.5,0.3-0.7,0.5v5.1h-1.7V124.3z"/>
			<path class="st1" d="M215.1,124.3v-10.2h1.7v3.9c0.3-0.3,0.6-0.5,0.9-0.6c0.3-0.2,0.7-0.2,1.2-0.2c0.4,0,0.7,0.1,1,0.2
				s0.5,0.3,0.7,0.5s0.3,0.5,0.5,0.8c0.1,0.3,0.2,0.7,0.2,1.1v4.5h-1.7v-4.5c0-0.4-0.1-0.8-0.3-1s-0.5-0.4-0.9-0.4
				c-0.3,0-0.6,0.1-0.8,0.2c-0.3,0.1-0.5,0.3-0.7,0.5v5.1L215.1,124.3L215.1,124.3z"/>
			<path class="st1" d="M228.5,124.3h-0.8c-0.2,0-0.3,0-0.4-0.1c-0.1,0-0.2-0.1-0.2-0.3l-0.2-0.5c-0.2,0.2-0.4,0.3-0.5,0.4
				c-0.2,0.1-0.3,0.2-0.5,0.3s-0.4,0.1-0.6,0.2c-0.2,0-0.4,0.1-0.7,0.1s-0.6,0-0.8-0.1c-0.3-0.1-0.5-0.2-0.6-0.4
				c-0.2-0.2-0.3-0.4-0.4-0.6c-0.1-0.2-0.2-0.5-0.2-0.8s0.1-0.5,0.2-0.8s0.4-0.5,0.7-0.7s0.8-0.4,1.3-0.5s1.2-0.2,2-0.2v-0.4
				c0-0.5-0.1-0.8-0.3-1.1s-0.5-0.3-0.9-0.3c-0.3,0-0.5,0-0.7,0.1s-0.3,0.1-0.5,0.2s-0.3,0.2-0.4,0.2c-0.1,0.1-0.2,0.1-0.4,0.1
				c-0.1,0-0.2,0-0.3-0.1s-0.1-0.1-0.2-0.2l-0.3-0.5c0.8-0.7,1.8-1.1,2.9-1.1c0.4,0,0.8,0.1,1.1,0.2s0.6,0.3,0.8,0.6
				c0.2,0.2,0.4,0.5,0.5,0.9c0.1,0.3,0.2,0.7,0.2,1.1v4.3H228.5z M225.2,123.3c0.2,0,0.3,0,0.5,0c0.1,0,0.3-0.1,0.4-0.1
				s0.3-0.1,0.4-0.2s0.2-0.2,0.4-0.3v-1.2c-0.5,0-0.9,0-1.2,0.1s-0.6,0.1-0.8,0.2s-0.3,0.2-0.4,0.3s-0.1,0.3-0.1,0.4
				c0,0.3,0.1,0.5,0.3,0.6C224.7,123.2,224.9,123.3,225.2,123.3z"/>
		</g>
		<circle class="st0" cx="32.3" cy="120.7" r="31.6"/>
		<g>
			<g transform="matrix( 0.1839447021484375, 0, 0, 0.1839752197265625, 12.05,25) ">
				<g>
					<g id="Layer1_0_MEMBER_0_FILL_24_">
						<path class="st2" d="M156.7,481.9c-2.7-2.2-5.8-3.1-9.3-2.8c-3.5,0.3-6.3,1.9-8.5,4.6l-9.1,10.9l-13.4-6.5
							c-4.2-3.3-9-4.3-14.5-3c-5.5,1.3-9.5,4.5-12,9.5c-3.8,7.8-9.4,19.2-16.8,34c-1.7,3.4-2.8,5.8-3.2,7H45.6v-8
							c0-2-0.7-3.7-2.1-5.1c-1.4-1.4-3.1-2.1-5.1-2.1h-24c-2.7,0-4.7,1.1-6.2,3.3c-1.4,2.2-1.6,4.4-0.7,6.8l12,29.4
							c3.1,2,6,3,8.6,2.9c2.7-0.1,5.6-1.3,8.8-3.6c7.5-5.5,15.1-8.3,22.9-8.2c7.5,0.1,14.9,2.8,22.1,8.2c3.3,2.5,6.2,3.8,8.9,3.8
							c2.7,0,5.8-1.3,9.2-3.8c11.4-8.1,22.5-10.1,33.4-6.2l2.2-17.4h-25.8l9.1-18.1l8.7,4.3c2.5,1.3,5.2,1.6,8.2,1
							c2.9-0.6,5.2-2,7.1-4.2l2.2-2.9l-5.1,40.6c1.4,0.7,2.8,1.6,4.3,2.6c1.4,1,2.3,1.6,2.6,1.8l6.9-55.5l4.7-5.5
							c2.2-2.7,3.1-5.8,2.8-9.3C160.9,486.9,159.4,484.1,156.7,481.9z"/>
					</g>
				</g>
			</g>
			<g transform="matrix( 0.1839447021484375, 0, 0, 0.1839752197265625, 12.05,25) ">
				<g>
					<g id="Layer1_0_MEMBER_1_FILL_18_">
						<path class="st2" d="M103.1,444.1c-3.9,3.9-5.9,8.6-5.9,14.2s2,10.3,5.9,14.2s8.5,5.9,14,6.1c5.6,0,10.4-2,14.4-5.9
							c4-4,5.9-8.8,5.9-14.4c0-5.5-2-10.1-5.9-14c-4-3.9-8.8-5.9-14.4-5.9C111.6,438.4,106.9,440.3,103.1,444.1z"/>
					</g>
				</g>
			</g>
			<g transform="matrix( 0.1839447021484375, 0, 0, 0.1839752197265625, 12.05,25) ">
				<g>
					<g id="Layer1_0_MEMBER_2_FILL_15_">
						<path class="st2" d="M154.1,563.2c1.3,0,2.8-0.3,4.3-0.9c1.7-0.6,3.3-1.6,4.8-2.8c5-3.9,10.3-6.5,15.8-7.6
							c5.8-1.2,11.5-0.9,17.2,1.1l9.4-22.5c1.1-2.3,0.9-4.6-0.5-6.8s-3.4-3.3-6-3.3h-23.9c-2,0-3.7,0.7-5.1,2.1
							c-1.4,1.4-2.1,3.1-2.1,5.1v8h-10.5L154.1,563.2z"/>
					</g>
				</g>
			</g>
			<g transform="matrix( 0.1839447021484375, 0, 0, 0.1839752197265625, 12.05,25) ">
				<g>
					<g id="Layer1_0_MEMBER_3_FILL_6_">
						<path class="st2" d="M122.7,558.3c-6.1-0.1-12.2,2.2-18.3,6.7c-4.7,3.5-9.2,5.2-13.4,5.2c-4.2,0-8.7-1.7-13.4-5.2
							c-6-4.4-12.1-6.6-18-6.7c-6.1-0.1-12.2,2.2-18.3,6.7c-4.6,3.4-9.2,5.1-13.7,5c-4.4,0-8.7-1.7-13.2-5c-2.8-2-5.2-3.5-7.2-4.4
							c-3.3-1.4-7-2.2-11-2.2c-1.1,0-2,0.4-2.8,1.2s-1.2,1.7-1.2,2.8s0.4,2,1.2,2.8s1.7,1.2,2.8,1.2c2.9,0,5.5,0.5,7.7,1.5
							c1.3,0.6,3.2,1.8,5.7,3.6c5.9,4.5,12,6.7,18.1,6.7c6,0,12.1-2.3,18.1-6.7c4.5-3.4,9-5.2,13.3-5.2s8.8,1.7,13.6,5.2
							c6,4.5,12,6.8,18,6.8s12.1-2.3,18.3-6.8c4.5-3.4,9-5.2,13.3-5.2s8.8,1.7,13.6,5.2c6,4.5,12,6.8,18,6.8c6,0,12.1-2.3,18.3-6.8
							c4.4-3.3,8.7-5,12.6-5.2c4.5-0.2,9.2,1.5,14.2,5.2c2.8,2,5.2,3.5,7.2,4.4c3.3,1.4,7,2.2,11,2.2c1.1,0,2-0.4,2.8-1.2
							s1.2-1.7,1.2-2.8s-0.4-2-1.2-2.8s-1.7-1.2-2.8-1.2c-2.9,0-5.5-0.5-7.7-1.5c-1.3-0.6-3.3-1.8-5.8-3.6
							c-6.4-4.7-12.8-6.9-19.1-6.7c-5.7,0.2-11.4,2.4-17.2,6.7c-4.7,3.5-9.2,5.2-13.4,5.2c-4.2,0-8.7-1.7-13.4-5.2
							C134.6,560.6,128.6,558.4,122.7,558.3z"/>
					</g>
				</g>
			</g>
			<g transform="matrix( 0.1839447021484375, 0, 0, 0.1839752197265625, 12.05,25) ">
				<g>
					<g id="Layer1_0_MEMBER_4_FILL_2_">
						<path class="st2" d="M67.4,589.7c3.4,0,6.9,1.6,10.5,5c5.1,4.6,10.3,6.9,15.4,6.9c5.2,0,10.4-2.3,15.4-6.9
							c3.7-3.3,7.1-5,10.4-5s6.9,1.6,10.7,5c5.1,4.6,10.3,6.9,15.4,6.9c5.2,0,10.4-2.3,15.4-6.9c3.4-3.2,6.5-4.8,9.6-5
							c3.5-0.2,7.4,1.4,11.5,5c2.5,2.2,4.6,3.8,6.2,4.7c2.8,1.5,5.9,2.2,9.4,2.2c1,0,1.8-0.3,2.5-1c0.8-0.7,1.1-1.6,1.1-2.6
							s-0.4-1.8-1.1-2.5c-0.8-0.8-1.7-1.1-2.9-1.1c-2.3,0-4.3-0.5-6.1-1.5c-1.2-0.7-2.7-1.9-4.4-3.6c-5.1-4.5-10.2-6.8-15.4-6.8
							c-5.2,0-10.3,2.3-15.4,6.8c-3.6,3.4-7.1,5.2-10.5,5.2c-3.4,0-6.9-1.7-10.5-5.2c-5.1-4.5-10.2-6.8-15.4-6.8
							c-5.2,0-10.3,2.3-15.4,6.8c-3.6,3.4-7.1,5.2-10.5,5.2c-3.4,0-6.9-1.7-10.5-5.2c-5.1-4.5-10.2-6.8-15.4-6.8s-10.3,2.3-15.4,6.8
							c-3.8,3.4-7.3,5.1-10.7,5c-3.3,0-6.7-1.7-10.4-5c-2.2-2.2-4.1-3.7-5.8-4.7c-2.7-1.5-5.8-2.2-9.4-2.2c-1.1,0-1.9,0.4-2.6,1.1
							c-0.7,0.7-1,1.5-1,2.5c0,1.1,0.3,2,1,2.7s1.5,1,2.6,1c2.3,0,4.3,0.5,6.1,1.5c1.2,0.7,2.7,1.9,4.4,3.6
							c5.1,4.5,10.2,6.8,15.4,6.8s10.3-2.3,15.4-6.8C60.6,591.4,64.1,589.7,67.4,589.7z"/>
					</g>
				</g>
			</g>
		</g>
	</g>
	<g>
		<path class="st0" d="M261.3,224.3h-202c-8.2,0-14.9-6.7-14.9-14.9l0,0c0-8.2,6.7-14.9,14.9-14.9h202c8.2,0,14.9,6.7,14.9,14.9l0,0
			C276.3,217.6,269.6,224.3,261.3,224.3z"/>
		<g>
			<path class="st1" d="M72.4,209.5v3.5h-1.8v-9.9h3.2c0.7,0,1.2,0.1,1.7,0.2s0.9,0.4,1.2,0.7c0.3,0.3,0.5,0.6,0.7,1
				s0.2,0.8,0.2,1.3s-0.1,0.9-0.2,1.3c-0.2,0.4-0.4,0.7-0.7,1c-0.3,0.3-0.7,0.5-1.2,0.7s-1,0.2-1.7,0.2H72.4z M72.4,208.1h1.4
				c0.3,0,0.6,0,0.9-0.1s0.5-0.2,0.6-0.4c0.2-0.2,0.3-0.3,0.4-0.6c0.1-0.2,0.1-0.5,0.1-0.8s0-0.5-0.1-0.7s-0.2-0.4-0.4-0.5
				c-0.2-0.2-0.4-0.3-0.6-0.3c-0.3-0.1-0.5-0.1-0.9-0.1h-1.4V208.1z"/>
			<path class="st1" d="M81.8,205.8c0.5,0,1,0.1,1.4,0.3s0.8,0.4,1.1,0.7c0.3,0.3,0.5,0.7,0.7,1.1c0.2,0.4,0.2,0.9,0.2,1.5
				s-0.1,1.1-0.2,1.5c-0.2,0.4-0.4,0.8-0.7,1.1c-0.3,0.3-0.7,0.6-1.1,0.7s-0.9,0.3-1.4,0.3s-1-0.1-1.4-0.3s-0.8-0.4-1.1-0.7
				s-0.5-0.7-0.7-1.1s-0.3-1-0.3-1.5c0-0.6,0.1-1.1,0.3-1.5c0.2-0.4,0.4-0.8,0.7-1.1s0.7-0.6,1.1-0.7S81.3,205.8,81.8,205.8z
				 M81.8,211.8c0.6,0,1-0.2,1.3-0.6s0.4-1,0.4-1.7c0-0.8-0.1-1.3-0.4-1.7s-0.7-0.6-1.3-0.6c-0.6,0-1,0.2-1.3,0.6s-0.4,1-0.4,1.7
				s0.1,1.3,0.4,1.7S81.2,211.8,81.8,211.8z"/>
			<path class="st1" d="M86.6,215.3V206h1c0.1,0,0.2,0,0.3,0.1c0.1,0,0.1,0.1,0.2,0.2l0.1,0.7c0.3-0.3,0.6-0.6,1-0.8
				s0.8-0.3,1.3-0.3c0.4,0,0.7,0.1,1.1,0.2s0.6,0.4,0.8,0.7c0.2,0.3,0.4,0.7,0.5,1.1c0.1,0.4,0.2,1,0.2,1.5s-0.1,1-0.2,1.5
				c-0.1,0.4-0.3,0.8-0.6,1.2c-0.3,0.3-0.6,0.6-1,0.8s-0.8,0.3-1.3,0.3c-0.4,0-0.7-0.1-1-0.2s-0.5-0.3-0.7-0.5v2.9L86.6,215.3
				L86.6,215.3z M89.9,207.2c-0.4,0-0.7,0.1-0.9,0.2c-0.2,0.1-0.5,0.4-0.7,0.6v3.2c0.2,0.2,0.4,0.4,0.6,0.5s0.5,0.1,0.7,0.1
				c0.3,0,0.5,0,0.7-0.1s0.4-0.2,0.5-0.4s0.3-0.4,0.3-0.7c0.1-0.3,0.1-0.7,0.1-1.1c0-0.4,0-0.8-0.1-1c-0.1-0.3-0.2-0.5-0.3-0.7
				c-0.1-0.2-0.3-0.3-0.4-0.4C90.3,207.2,90.1,207.2,89.9,207.2z"/>
			<path class="st1" d="M95.9,205.9v4.5c0,0.4,0.1,0.8,0.3,1c0.2,0.2,0.5,0.4,0.9,0.4c0.3,0,0.6-0.1,0.8-0.2
				c0.3-0.1,0.5-0.3,0.7-0.5V206h1.7v7h-1c-0.2,0-0.4-0.1-0.4-0.3l-0.1-0.6c-0.1,0.1-0.3,0.3-0.5,0.4c-0.2,0.1-0.3,0.2-0.5,0.3
				s-0.4,0.2-0.6,0.2s-0.4,0.1-0.7,0.1c-0.4,0-0.7-0.1-1-0.2c-0.3-0.1-0.5-0.3-0.7-0.6c-0.2-0.2-0.4-0.5-0.5-0.8s-0.2-0.7-0.2-1.1
				v-4.5L95.9,205.9L95.9,205.9z"/>
			<path class="st1" d="M104,202.8V213h-1.7v-10.2H104z"/>
			<path class="st1" d="M111.4,213h-0.8c-0.2,0-0.3,0-0.4-0.1c-0.1,0-0.2-0.1-0.2-0.3l-0.2-0.5c-0.2,0.2-0.4,0.3-0.5,0.4
				c-0.2,0.1-0.3,0.2-0.5,0.3s-0.4,0.1-0.6,0.2c-0.2,0-0.4,0.1-0.7,0.1c-0.3,0-0.6,0-0.8-0.1s-0.5-0.2-0.6-0.4
				c-0.2-0.2-0.3-0.4-0.4-0.6c-0.1-0.2-0.2-0.5-0.2-0.8s0.1-0.5,0.2-0.8s0.4-0.5,0.7-0.7c0.3-0.2,0.8-0.4,1.3-0.5s1.2-0.2,2-0.2
				v-0.4c0-0.5-0.1-0.8-0.3-1.1c-0.2-0.2-0.5-0.3-0.9-0.3c-0.3,0-0.5,0-0.7,0.1s-0.3,0.1-0.5,0.2c-0.1,0.1-0.3,0.2-0.4,0.2
				c-0.1,0.1-0.2,0.1-0.4,0.1c-0.1,0-0.2,0-0.3-0.1c-0.1-0.1-0.1-0.1-0.2-0.2l-0.3-0.5c0.8-0.7,1.8-1.1,2.9-1.1
				c0.4,0,0.8,0.1,1.1,0.2c0.3,0.1,0.6,0.3,0.8,0.6c0.2,0.2,0.4,0.5,0.5,0.9c0.1,0.3,0.2,0.7,0.2,1.1v4.3H111.4z M108.1,211.9
				c0.2,0,0.3,0,0.5,0s0.3-0.1,0.4-0.1c0.1-0.1,0.3-0.1,0.4-0.2c0.1-0.1,0.2-0.2,0.4-0.3V210c-0.5,0-0.9,0-1.2,0.1
				c-0.3,0.1-0.6,0.1-0.8,0.2c-0.2,0.1-0.3,0.2-0.4,0.3s-0.1,0.3-0.1,0.4c0,0.3,0.1,0.5,0.3,0.6
				C107.6,211.9,107.8,211.9,108.1,211.9z"/>
			<path class="st1" d="M114.9,214.5C115,214.5,115,214.6,114.9,214.5c0.1,0,0.2,0,0.2,0h0.1c0.1,0,0.1,0,0.2,0c0.2,0,0.3,0,0.3-0.1
				c0.1-0.1,0.1-0.1,0.1-0.2c0-0.1-0.1-0.2-0.2-0.3c-0.2-0.1-0.4-0.1-0.8-0.2l0.3-0.9c-0.4-0.1-0.7-0.2-1-0.4s-0.6-0.4-0.8-0.7
				c-0.2-0.3-0.4-0.7-0.5-1.1s-0.2-0.9-0.2-1.4s0.1-1,0.2-1.4s0.4-0.8,0.7-1.1c0.3-0.3,0.6-0.6,1.1-0.8c0.4-0.2,0.9-0.3,1.5-0.3
				c0.5,0,1,0.1,1.4,0.3s0.8,0.4,1.1,0.7l-0.4,0.6c-0.1,0.1-0.1,0.1-0.1,0.2c0,0-0.1,0.1-0.2,0.1s-0.2,0-0.3-0.1
				c-0.1-0.1-0.2-0.1-0.3-0.2c-0.1-0.1-0.3-0.1-0.4-0.2c-0.2-0.1-0.4-0.1-0.6-0.1c-0.3,0-0.6,0.1-0.8,0.2s-0.4,0.3-0.6,0.5
				c-0.1,0.2-0.3,0.4-0.3,0.7s-0.1,0.6-0.1,1s0,0.7,0.1,1s0.2,0.5,0.3,0.7s0.3,0.3,0.5,0.5c0.2,0.1,0.5,0.2,0.7,0.2s0.5,0,0.7-0.1
				s0.3-0.1,0.4-0.2s0.2-0.2,0.3-0.2c0.1-0.1,0.2-0.1,0.3-0.1c0.1,0,0.2,0.1,0.3,0.2l0.5,0.6c-0.3,0.4-0.7,0.6-1.1,0.8
				s-0.8,0.3-1.2,0.3l-0.1,0.3c0.4,0.1,0.7,0.2,0.9,0.4c0.2,0.2,0.2,0.4,0.2,0.6c0,0.2,0,0.3-0.1,0.4s-0.2,0.2-0.3,0.3
				s-0.3,0.2-0.5,0.2s-0.4,0.1-0.7,0.1c-0.2,0-0.4,0-0.5,0c-0.2,0-0.3-0.1-0.5-0.1l0.2-0.5C114.8,214.6,114.8,214.5,114.9,214.5z"/>
			<path class="st1" d="M125.1,213h-0.8c-0.2,0-0.3,0-0.4-0.1c-0.1,0-0.2-0.1-0.2-0.3l-0.2-0.5c-0.2,0.2-0.4,0.3-0.5,0.4
				c-0.2,0.1-0.3,0.2-0.5,0.3s-0.4,0.1-0.6,0.2c-0.2,0-0.4,0.1-0.7,0.1c-0.3,0-0.6,0-0.8-0.1s-0.5-0.2-0.6-0.4
				c-0.2-0.2-0.3-0.4-0.4-0.6c-0.1-0.2-0.2-0.5-0.2-0.8s0.1-0.5,0.2-0.8s0.4-0.5,0.7-0.7c0.3-0.2,0.8-0.4,1.3-0.5s1.2-0.2,2-0.2
				v-0.4c0-0.5-0.1-0.8-0.3-1.1c-0.2-0.2-0.5-0.3-0.9-0.3c-0.3,0-0.5,0-0.7,0.1s-0.3,0.1-0.5,0.2c-0.1,0.1-0.3,0.2-0.4,0.2
				c-0.1,0.1-0.2,0.1-0.4,0.1c-0.1,0-0.2,0-0.3-0.1c-0.1-0.1-0.1-0.1-0.2-0.2l-0.3-0.5c0.8-0.7,1.8-1.1,2.9-1.1
				c0.4,0,0.8,0.1,1.1,0.2c0.3,0.1,0.6,0.3,0.8,0.6c0.2,0.2,0.4,0.5,0.5,0.9c0.1,0.3,0.2,0.7,0.2,1.1v4.3H125.1z M123.2,203.7
				c0.1,0,0.2,0,0.3-0.1c0.1-0.1,0.1-0.2,0.1-0.4h1c0,0.3,0,0.5-0.1,0.7s-0.2,0.4-0.3,0.5c-0.1,0.1-0.3,0.3-0.4,0.3
				s-0.4,0.1-0.6,0.1s-0.3,0-0.5-0.1c-0.1-0.1-0.3-0.1-0.4-0.2s-0.2-0.1-0.3-0.2s-0.2-0.1-0.3-0.1c-0.1,0-0.2,0-0.3,0.1
				s-0.1,0.2-0.1,0.4h-1c0-0.3,0-0.5,0.1-0.7s0.2-0.4,0.3-0.5c0.1-0.1,0.3-0.3,0.4-0.3c0.2-0.1,0.4-0.1,0.6-0.1s0.3,0,0.5,0.1
				c0.1,0.1,0.3,0.1,0.4,0.2s0.2,0.1,0.3,0.2C123,203.6,123.1,203.7,123.2,203.7z M121.8,211.9c0.2,0,0.3,0,0.5,0s0.3-0.1,0.4-0.1
				c0.1-0.1,0.3-0.1,0.4-0.2c0.1-0.1,0.2-0.2,0.4-0.3V210c-0.5,0-0.9,0-1.2,0.1c-0.3,0.1-0.6,0.1-0.8,0.2c-0.2,0.1-0.3,0.2-0.4,0.3
				s-0.1,0.3-0.1,0.4c0,0.3,0.1,0.5,0.3,0.6C121.3,211.9,121.6,211.9,121.8,211.9z"/>
			<path class="st1" d="M129.8,205.8c0.5,0,1,0.1,1.4,0.3s0.8,0.4,1.1,0.7s0.5,0.7,0.7,1.1c0.2,0.4,0.2,0.9,0.2,1.5
				s-0.1,1.1-0.2,1.5c-0.2,0.4-0.4,0.8-0.7,1.1s-0.7,0.6-1.1,0.7s-0.9,0.3-1.4,0.3s-1-0.1-1.4-0.3s-0.8-0.4-1.1-0.7
				s-0.5-0.7-0.7-1.1s-0.3-1-0.3-1.5c0-0.6,0.1-1.1,0.3-1.5c0.2-0.4,0.4-0.8,0.7-1.1s0.7-0.6,1.1-0.7S129.3,205.8,129.8,205.8z
				 M129.8,211.8c0.6,0,1-0.2,1.3-0.6s0.4-1,0.4-1.7c0-0.8-0.1-1.3-0.4-1.7c-0.3-0.4-0.7-0.6-1.3-0.6s-1,0.2-1.3,0.6s-0.4,1-0.4,1.7
				s0.1,1.3,0.4,1.7S129.2,211.8,129.8,211.8z"/>
			<path class="st1" d="M137.3,215.3V206h1c0.1,0,0.2,0,0.3,0.1c0.1,0,0.1,0.1,0.2,0.2l0.1,0.7c0.3-0.3,0.6-0.6,1-0.8
				s0.8-0.3,1.3-0.3c0.4,0,0.7,0.1,1.1,0.2s0.6,0.4,0.8,0.7s0.4,0.7,0.5,1.1c0.1,0.4,0.2,1,0.2,1.5s-0.1,1-0.2,1.5
				c-0.1,0.4-0.3,0.8-0.6,1.2c-0.3,0.3-0.6,0.6-1,0.8s-0.8,0.3-1.3,0.3c-0.4,0-0.7-0.1-1-0.2s-0.5-0.3-0.7-0.5v2.9L137.3,215.3
				L137.3,215.3z M140.6,207.2c-0.4,0-0.7,0.1-0.9,0.2c-0.2,0.1-0.5,0.4-0.7,0.6v3.2c0.2,0.2,0.4,0.4,0.6,0.5s0.5,0.1,0.7,0.1
				c0.3,0,0.5,0,0.7-0.1s0.4-0.2,0.5-0.4s0.3-0.4,0.3-0.7c0.1-0.3,0.1-0.7,0.1-1.1c0-0.4,0-0.8-0.1-1c-0.1-0.3-0.2-0.5-0.3-0.7
				s-0.3-0.3-0.4-0.4C141,207.2,140.8,207.2,140.6,207.2z"/>
			<path class="st1" d="M145,213v-7h1c0.2,0,0.3,0,0.4,0.1c0.1,0.1,0.1,0.2,0.1,0.3l0.1,0.9c0.3-0.4,0.5-0.8,0.9-1
				c0.3-0.3,0.7-0.4,1.1-0.4c0.3,0,0.6,0.1,0.9,0.2l-0.2,1.3c0,0.1,0,0.1-0.1,0.2c0,0-0.1,0.1-0.2,0.1c-0.1,0-0.2,0-0.3,0
				s-0.3,0-0.5,0c-0.4,0-0.7,0.1-0.9,0.3s-0.5,0.5-0.6,0.9v4.4H145V213z"/>
			<path class="st1" d="M152.7,203.9c0,0.1,0,0.3-0.1,0.4s-0.1,0.2-0.2,0.3c-0.1,0.1-0.2,0.2-0.3,0.2c-0.1,0.1-0.3,0.1-0.4,0.1
				c-0.1,0-0.3,0-0.4-0.1c-0.1-0.1-0.2-0.1-0.3-0.2c-0.1-0.1-0.2-0.2-0.2-0.3s-0.1-0.3-0.1-0.4c0-0.2,0-0.3,0.1-0.4
				c0.1-0.1,0.1-0.2,0.2-0.3c0.1-0.1,0.2-0.2,0.3-0.2c0.1-0.1,0.3-0.1,0.4-0.1c0.2,0,0.3,0,0.4,0.1c0.1,0.1,0.2,0.1,0.3,0.2
				c0.1,0.1,0.2,0.2,0.2,0.3C152.7,203.6,152.7,203.7,152.7,203.9z M152.4,205.9v7h-1.7v-7H152.4z"/>
			<path class="st1" d="M157.9,213h-1.5l-2.8-7h1.4c0.1,0,0.2,0,0.3,0.1s0.1,0.1,0.2,0.2l1.4,3.8c0.1,0.2,0.1,0.4,0.2,0.6
				c0.1,0.2,0.1,0.4,0.1,0.6c0-0.2,0.1-0.4,0.1-0.6c0.1-0.2,0.1-0.4,0.2-0.6l1.4-3.8c0-0.1,0.1-0.2,0.2-0.2s0.2-0.1,0.3-0.1h1.3
				L157.9,213z"/>
			<path class="st1" d="M167.2,213h-0.8c-0.2,0-0.3,0-0.4-0.1c-0.1,0-0.2-0.1-0.2-0.3l-0.2-0.5c-0.2,0.2-0.4,0.3-0.5,0.4
				c-0.2,0.1-0.3,0.2-0.5,0.3s-0.4,0.1-0.6,0.2c-0.2,0-0.4,0.1-0.7,0.1s-0.6,0-0.8-0.1s-0.5-0.2-0.6-0.4c-0.2-0.2-0.3-0.4-0.4-0.6
				c-0.1-0.2-0.2-0.5-0.2-0.8s0.1-0.5,0.2-0.8c0.1-0.3,0.4-0.5,0.7-0.7s0.8-0.4,1.3-0.5s1.2-0.2,2-0.2v-0.4c0-0.5-0.1-0.8-0.3-1.1
				c-0.2-0.2-0.5-0.3-0.9-0.3c-0.3,0-0.5,0-0.7,0.1s-0.3,0.1-0.5,0.2c-0.1,0.1-0.3,0.2-0.4,0.2c-0.1,0.1-0.2,0.1-0.4,0.1
				c-0.1,0-0.2,0-0.3-0.1s-0.1-0.1-0.2-0.2l-0.3-0.5c0.8-0.7,1.8-1.1,2.9-1.1c0.4,0,0.8,0.1,1.1,0.2c0.3,0.1,0.6,0.3,0.8,0.6
				c0.2,0.2,0.4,0.5,0.5,0.9c0.1,0.3,0.2,0.7,0.2,1.1v4.3H167.2z M163.9,211.9c0.2,0,0.3,0,0.5,0s0.3-0.1,0.4-0.1
				c0.1-0.1,0.3-0.1,0.4-0.2c0.1-0.1,0.2-0.2,0.4-0.3V210c-0.5,0-0.9,0-1.2,0.1s-0.6,0.1-0.8,0.2c-0.2,0.1-0.3,0.2-0.4,0.3
				c-0.1,0.1-0.1,0.3-0.1,0.4c0,0.3,0.1,0.5,0.3,0.6C163.4,211.9,163.6,211.9,163.9,211.9z"/>
			<path class="st1" d="M173.8,213c-0.2,0-0.4-0.1-0.4-0.3l-0.1-0.7c-0.1,0.2-0.3,0.3-0.5,0.4s-0.3,0.2-0.5,0.3s-0.4,0.2-0.6,0.2
				c-0.2,0.1-0.4,0.1-0.7,0.1c-0.4,0-0.7-0.1-1.1-0.2s-0.6-0.4-0.8-0.7s-0.4-0.7-0.5-1.1c-0.1-0.4-0.2-1-0.2-1.5s0.1-1,0.2-1.5
				s0.3-0.8,0.6-1.2c0.3-0.3,0.6-0.6,1-0.8s0.8-0.3,1.2-0.3s0.7,0.1,1,0.2c0.3,0.1,0.5,0.3,0.7,0.5v-3.7h1.7V213H173.8z
				 M171.5,211.7c0.4,0,0.7-0.1,0.9-0.2s0.5-0.4,0.7-0.6v-3.2c-0.2-0.2-0.4-0.4-0.6-0.5c-0.2-0.1-0.5-0.1-0.7-0.1
				c-0.3,0-0.5,0-0.7,0.1s-0.4,0.2-0.5,0.4s-0.3,0.4-0.3,0.7c-0.1,0.3-0.1,0.7-0.1,1.1c0,0.4,0,0.8,0.1,1c0.1,0.3,0.2,0.5,0.3,0.7
				s0.3,0.3,0.5,0.4C171.1,211.7,171.3,211.7,171.5,211.7z"/>
			<path class="st1" d="M182.2,213h-0.8c-0.2,0-0.3,0-0.4-0.1c-0.1,0-0.2-0.1-0.2-0.3l-0.2-0.5c-0.2,0.2-0.4,0.3-0.5,0.4
				c-0.2,0.1-0.3,0.2-0.5,0.3s-0.4,0.1-0.6,0.2c-0.2,0-0.4,0.1-0.7,0.1s-0.6,0-0.8-0.1s-0.5-0.2-0.6-0.4c-0.2-0.2-0.3-0.4-0.4-0.6
				c-0.1-0.2-0.2-0.5-0.2-0.8s0.1-0.5,0.2-0.8c0.1-0.3,0.4-0.5,0.7-0.7s0.8-0.4,1.3-0.5s1.2-0.2,2-0.2v-0.4c0-0.5-0.1-0.8-0.3-1.1
				c-0.2-0.2-0.5-0.3-0.9-0.3c-0.3,0-0.5,0-0.7,0.1s-0.3,0.1-0.5,0.2c-0.1,0.1-0.3,0.2-0.4,0.2c-0.1,0.1-0.2,0.1-0.4,0.1
				c-0.1,0-0.2,0-0.3-0.1s-0.1-0.1-0.2-0.2l-0.3-0.5c0.8-0.7,1.8-1.1,2.9-1.1c0.4,0,0.8,0.1,1.1,0.2c0.3,0.1,0.6,0.3,0.8,0.6
				c0.2,0.2,0.4,0.5,0.5,0.9c0.1,0.3,0.2,0.7,0.2,1.1v4.3H182.2z M178.9,211.9c0.2,0,0.3,0,0.5,0s0.3-0.1,0.4-0.1
				c0.1-0.1,0.3-0.1,0.4-0.2c0.1-0.1,0.2-0.2,0.4-0.3V210c-0.5,0-0.9,0-1.2,0.1s-0.6,0.1-0.8,0.2c-0.2,0.1-0.3,0.2-0.4,0.3
				c-0.1,0.1-0.1,0.3-0.1,0.4c0,0.3,0.1,0.5,0.3,0.6C178.4,211.9,178.6,211.9,178.9,211.9z"/>
			<path class="st1" d="M191.5,213c-0.2,0-0.4-0.1-0.4-0.3L191,212c-0.1,0.2-0.3,0.3-0.5,0.4s-0.3,0.2-0.5,0.3s-0.4,0.2-0.6,0.2
				c-0.2,0.1-0.4,0.1-0.7,0.1c-0.4,0-0.7-0.1-1.1-0.2s-0.6-0.4-0.8-0.7s-0.4-0.7-0.5-1.1c-0.1-0.4-0.2-1-0.2-1.5s0.1-1,0.2-1.5
				s0.3-0.8,0.6-1.2c0.3-0.3,0.6-0.6,1-0.8s0.8-0.3,1.2-0.3s0.7,0.1,1,0.2c0.3,0.1,0.5,0.3,0.7,0.5v-3.7h1.7V213H191.5z
				 M189.2,211.7c0.4,0,0.7-0.1,0.9-0.2s0.5-0.4,0.7-0.6v-3.2c-0.2-0.2-0.4-0.4-0.6-0.5c-0.2-0.1-0.5-0.1-0.7-0.1
				c-0.3,0-0.5,0-0.7,0.1s-0.4,0.2-0.5,0.4s-0.3,0.4-0.3,0.7c-0.1,0.3-0.1,0.7-0.1,1.1c0,0.4,0,0.8,0.1,1c0.1,0.3,0.2,0.5,0.3,0.7
				s0.3,0.3,0.5,0.4C188.8,211.7,189,211.7,189.2,211.7z"/>
			<path class="st1" d="M197.2,205.8c0.4,0,0.9,0.1,1.2,0.2c0.4,0.1,0.7,0.3,1,0.6s0.5,0.6,0.6,1c0.2,0.4,0.2,0.8,0.2,1.4
				c0,0.1,0,0.2,0,0.3s0,0.2-0.1,0.2l-0.1,0.1c-0.1,0-0.1,0-0.2,0h-4.4c0.1,0.7,0.2,1.3,0.6,1.6c0.3,0.3,0.8,0.5,1.3,0.5
				c0.3,0,0.5,0,0.7-0.1s0.4-0.1,0.5-0.2c0.1-0.1,0.3-0.1,0.4-0.2c0.1-0.1,0.2-0.1,0.3-0.1s0.1,0,0.2,0c0.1,0,0.1,0.1,0.1,0.1
				l0.5,0.6c-0.2,0.2-0.4,0.4-0.6,0.6c-0.2,0.1-0.5,0.3-0.7,0.4c-0.3,0.1-0.5,0.2-0.8,0.2s-0.5,0.1-0.8,0.1c-0.5,0-0.9-0.1-1.4-0.2
				c-0.4-0.2-0.8-0.4-1.1-0.7s-0.6-0.7-0.7-1.2c-0.2-0.5-0.3-1-0.3-1.6c0-0.5,0.1-0.9,0.2-1.4c0.2-0.4,0.4-0.8,0.7-1.1
				s0.6-0.6,1.1-0.7C196.2,205.9,196.7,205.8,197.2,205.8z M197.3,207.1c-0.5,0-0.9,0.1-1.2,0.4c-0.3,0.3-0.5,0.7-0.5,1.2h3.2
				c0-0.2,0-0.4-0.1-0.6c-0.1-0.2-0.2-0.4-0.3-0.5s-0.3-0.3-0.5-0.3S197.5,207.1,197.3,207.1z"/>
			<path class="st1" d="M206.1,202.8V213h-1.7v-10.2H206.1z"/>
			<path class="st1" d="M210.1,203.9c0,0.1,0,0.3-0.1,0.4s-0.1,0.2-0.2,0.3c-0.1,0.1-0.2,0.2-0.3,0.2c-0.1,0.1-0.3,0.1-0.4,0.1
				c-0.1,0-0.3,0-0.4-0.1c-0.1-0.1-0.2-0.1-0.3-0.2c-0.1-0.1-0.2-0.2-0.2-0.3c-0.1-0.1-0.1-0.3-0.1-0.4c0-0.2,0-0.3,0.1-0.4
				c0.1-0.1,0.1-0.2,0.2-0.3c0.1-0.1,0.2-0.2,0.3-0.2c0.1-0.1,0.3-0.1,0.4-0.1c0.2,0,0.3,0,0.4,0.1c0.1,0.1,0.2,0.1,0.3,0.2
				c0.1,0.1,0.2,0.2,0.2,0.3C210.1,203.6,210.1,203.7,210.1,203.9z M209.8,205.9v7h-1.7v-7H209.8z"/>
			<path class="st1" d="M211.8,213v-10.2h1.7v4c0.3-0.3,0.6-0.5,0.9-0.7c0.4-0.2,0.8-0.3,1.2-0.3s0.7,0.1,1.1,0.2
				c0.3,0.2,0.6,0.4,0.8,0.7s0.4,0.7,0.5,1.1c0.1,0.4,0.2,1,0.2,1.5s-0.1,1-0.2,1.5c-0.1,0.4-0.3,0.8-0.6,1.2
				c-0.3,0.3-0.6,0.6-1,0.8s-0.8,0.3-1.3,0.3c-0.2,0-0.4,0-0.6-0.1c-0.2,0-0.3-0.1-0.5-0.2c-0.1-0.1-0.3-0.2-0.4-0.3
				c-0.1-0.1-0.2-0.2-0.4-0.4l-0.1,0.5c0,0.1-0.1,0.2-0.1,0.3c-0.1,0.1-0.2,0.1-0.3,0.1L211.8,213L211.8,213z M215.1,207.2
				c-0.4,0-0.7,0.1-0.9,0.2c-0.2,0.1-0.5,0.4-0.7,0.6v3.2c0.2,0.2,0.4,0.4,0.6,0.5s0.5,0.1,0.7,0.1c0.3,0,0.5,0,0.7-0.1
				s0.4-0.2,0.5-0.4s0.3-0.4,0.3-0.7c0.1-0.3,0.1-0.7,0.1-1.1c0-0.4,0-0.8-0.1-1s-0.2-0.5-0.3-0.7s-0.3-0.3-0.4-0.4
				C215.5,207.2,215.3,207.2,215.1,207.2z"/>
			<path class="st1" d="M222.5,205.8c0.4,0,0.9,0.1,1.2,0.2c0.4,0.1,0.7,0.3,1,0.6s0.5,0.6,0.6,1c0.2,0.4,0.2,0.8,0.2,1.4
				c0,0.1,0,0.2,0,0.3s0,0.2-0.1,0.2l-0.1,0.1c-0.1,0-0.1,0-0.2,0h-4.4c0.1,0.7,0.2,1.3,0.6,1.6c0.3,0.3,0.8,0.5,1.3,0.5
				c0.3,0,0.5,0,0.7-0.1s0.4-0.1,0.5-0.2c0.1-0.1,0.3-0.1,0.4-0.2c0.1-0.1,0.2-0.1,0.3-0.1s0.1,0,0.2,0c0.1,0,0.1,0.1,0.1,0.1
				l0.5,0.6c-0.2,0.2-0.4,0.4-0.6,0.6c-0.2,0.1-0.5,0.3-0.7,0.4c-0.3,0.1-0.5,0.2-0.8,0.2s-0.5,0.1-0.8,0.1c-0.5,0-0.9-0.1-1.4-0.2
				c-0.4-0.2-0.8-0.4-1.1-0.7s-0.6-0.7-0.7-1.2c-0.2-0.5-0.3-1-0.3-1.6c0-0.5,0.1-0.9,0.2-1.4c0.2-0.4,0.4-0.8,0.7-1.1
				s0.6-0.6,1.1-0.7C221.5,205.9,222,205.8,222.5,205.8z M222.5,207.1c-0.5,0-0.9,0.1-1.2,0.4c-0.3,0.3-0.5,0.7-0.5,1.2h3.2
				c0-0.2,0-0.4-0.1-0.6c-0.1-0.2-0.2-0.4-0.3-0.5s-0.3-0.3-0.5-0.3S222.8,207.1,222.5,207.1z"/>
			<path class="st1" d="M226.9,213v-7h1c0.2,0,0.3,0,0.4,0.1s0.1,0.2,0.1,0.3l0.1,0.9c0.3-0.4,0.5-0.8,0.9-1
				c0.3-0.3,0.7-0.4,1.1-0.4c0.3,0,0.6,0.1,0.9,0.2l-0.2,1.3c0,0.1,0,0.1-0.1,0.2c0,0-0.1,0.1-0.2,0.1c-0.1,0-0.2,0-0.3,0
				s-0.3,0-0.5,0c-0.4,0-0.7,0.1-0.9,0.3s-0.5,0.5-0.6,0.9v4.4h-1.7V213z"/>
			<path class="st1" d="M237.5,213c-0.2,0-0.4-0.1-0.4-0.3L237,212c-0.1,0.2-0.3,0.3-0.5,0.4s-0.3,0.2-0.5,0.3s-0.4,0.2-0.6,0.2
				c-0.2,0.1-0.4,0.1-0.7,0.1c-0.4,0-0.7-0.1-1.1-0.2s-0.6-0.4-0.8-0.7s-0.4-0.7-0.5-1.1c-0.1-0.4-0.2-1-0.2-1.5s0.1-1,0.2-1.5
				s0.3-0.8,0.6-1.2s0.6-0.6,1-0.8s0.8-0.3,1.2-0.3s0.7,0.1,1,0.2c0.3,0.1,0.5,0.3,0.7,0.5v-3.7h1.7V213H237.5z M235.2,211.7
				c0.4,0,0.7-0.1,0.9-0.2c0.2-0.1,0.5-0.4,0.7-0.6v-3.2c-0.2-0.2-0.4-0.4-0.6-0.5c-0.2-0.1-0.5-0.1-0.7-0.1c-0.3,0-0.5,0-0.7,0.1
				s-0.4,0.2-0.5,0.4s-0.3,0.4-0.3,0.7c-0.1,0.3-0.1,0.7-0.1,1.1c0,0.4,0,0.8,0.1,1c0.1,0.3,0.2,0.5,0.3,0.7s0.3,0.3,0.5,0.4
				C234.8,211.7,235,211.7,235.2,211.7z"/>
			<path class="st1" d="M245.9,213h-0.8c-0.2,0-0.3,0-0.4-0.1c-0.1,0-0.2-0.1-0.2-0.3l-0.2-0.5c-0.2,0.2-0.4,0.3-0.5,0.4
				c-0.2,0.1-0.3,0.2-0.5,0.3s-0.4,0.1-0.6,0.2c-0.2,0-0.4,0.1-0.7,0.1s-0.6,0-0.8-0.1s-0.5-0.2-0.6-0.4c-0.2-0.2-0.3-0.4-0.4-0.6
				c-0.1-0.2-0.2-0.5-0.2-0.8s0.1-0.5,0.2-0.8c0.1-0.3,0.4-0.5,0.7-0.7s0.8-0.4,1.3-0.5s1.2-0.2,2-0.2v-0.4c0-0.5-0.1-0.8-0.3-1.1
				c-0.2-0.2-0.5-0.3-0.9-0.3c-0.3,0-0.5,0-0.7,0.1s-0.3,0.1-0.5,0.2s-0.3,0.2-0.4,0.2c-0.1,0.1-0.2,0.1-0.4,0.1
				c-0.1,0-0.2,0-0.3-0.1s-0.1-0.1-0.2-0.2l-0.3-0.5c0.8-0.7,1.8-1.1,2.9-1.1c0.4,0,0.8,0.1,1.1,0.2c0.3,0.1,0.6,0.3,0.8,0.6
				c0.2,0.2,0.4,0.5,0.5,0.9c0.1,0.3,0.2,0.7,0.2,1.1v4.3H245.9z M242.6,211.9c0.2,0,0.3,0,0.5,0s0.3-0.1,0.4-0.1
				c0.1-0.1,0.3-0.1,0.4-0.2c0.1-0.1,0.2-0.2,0.4-0.3V210c-0.5,0-0.9,0-1.2,0.1s-0.6,0.1-0.8,0.2c-0.2,0.1-0.3,0.2-0.4,0.3
				c-0.1,0.1-0.1,0.3-0.1,0.4c0,0.3,0.1,0.5,0.3,0.6C242.1,211.9,242.3,211.9,242.6,211.9z"/>
			<path class="st1" d="M252.5,213c-0.2,0-0.4-0.1-0.4-0.3L252,212c-0.1,0.2-0.3,0.3-0.5,0.4s-0.3,0.2-0.5,0.3s-0.4,0.2-0.6,0.2
				c-0.2,0.1-0.4,0.1-0.7,0.1c-0.4,0-0.7-0.1-1.1-0.2s-0.6-0.4-0.8-0.7s-0.4-0.7-0.5-1.1c-0.1-0.4-0.2-1-0.2-1.5s0.1-1,0.2-1.5
				c0.1-0.4,0.3-0.8,0.6-1.2s0.6-0.6,1-0.8s0.8-0.3,1.2-0.3s0.7,0.1,1,0.2c0.3,0.1,0.5,0.3,0.7,0.5v-3.7h1.7V213H252.5z
				 M250.2,211.7c0.4,0,0.7-0.1,0.9-0.2s0.5-0.4,0.7-0.6v-3.2c-0.2-0.2-0.4-0.4-0.6-0.5c-0.2-0.1-0.5-0.1-0.7-0.1
				c-0.3,0-0.5,0-0.7,0.1s-0.4,0.2-0.5,0.4s-0.3,0.4-0.3,0.7s-0.1,0.7-0.1,1.1c0,0.4,0,0.8,0.1,1c0.1,0.3,0.2,0.5,0.3,0.7
				s0.3,0.3,0.5,0.4C249.8,211.7,250,211.7,250.2,211.7z"/>
			<path class="st1" d="M258.3,205.8c0.4,0,0.9,0.1,1.2,0.2c0.4,0.1,0.7,0.3,1,0.6s0.5,0.6,0.6,1s0.2,0.8,0.2,1.4c0,0.1,0,0.2,0,0.3
				s0,0.2-0.1,0.2l-0.1,0.1c-0.1,0-0.1,0-0.2,0h-4.4c0,0.7,0.2,1.3,0.6,1.6c0.3,0.3,0.8,0.5,1.3,0.5c0.3,0,0.5,0,0.7-0.1
				s0.4-0.1,0.5-0.2c0.1-0.1,0.3-0.1,0.4-0.2c0.1-0.1,0.2-0.1,0.3-0.1c0.1,0,0.1,0,0.2,0s0.1,0.1,0.1,0.1l0.5,0.6
				c-0.2,0.2-0.4,0.4-0.6,0.6c-0.2,0.1-0.5,0.3-0.7,0.4c-0.3,0.1-0.5,0.2-0.8,0.2s-0.5,0.1-0.8,0.1c-0.5,0-0.9-0.1-1.4-0.2
				c-0.4-0.2-0.8-0.4-1.1-0.7c-0.3-0.3-0.6-0.7-0.7-1.2c-0.2-0.5-0.3-1-0.3-1.6c0-0.5,0.1-0.9,0.2-1.4s0.4-0.8,0.7-1.1
				s0.6-0.6,1.1-0.7C257.3,205.9,257.7,205.8,258.3,205.8z M258.3,207.1c-0.5,0-0.9,0.1-1.2,0.4c-0.3,0.3-0.5,0.7-0.5,1.2h3.2
				c0-0.2,0-0.4-0.1-0.6c-0.1-0.2-0.2-0.4-0.3-0.5c-0.1-0.1-0.3-0.3-0.5-0.3S258.6,207.1,258.3,207.1z"/>
		</g>
		<circle class="st0" cx="32.3" cy="209.3" r="31.6"/>
		<g>
			<g transform="matrix( 0.1881561279296875, 0, 0, 0.188201904296875, 10.6,22.6) ">
				<g>
					<g id="Layer1_0_FILL_17_">
						<path class="st2" d="M201.7,897.7H22.5v189h179.2V897.7 M127.7,952.5c-2.4-3.3-5.6-5.7-9.5-7v-21.3h29V961
							c-1.5,0.5-2.7,1.3-3.7,2.3c-1.9,1.9-2.8,4.2-2.8,6.9s0.9,5,2.8,6.9c1.3,1.3,2.5,2.6,3.7,4v6.1c-5.6,1.3-15.2,1.9-29,2v-6.7
							c3.9-1.3,7.1-3.7,9.5-7c2.5-3.4,3.7-7.3,3.7-11.5S130.2,955.9,127.7,952.5 M106.1,924.2v21.1c-4,1.2-7.3,3.6-9.9,7
							c-2.6,3.5-3.9,7.4-3.9,11.7c0,4.4,1.3,8.3,3.9,11.7c2.5,3.4,5.8,5.7,9.9,7v6.5c-13.7-0.2-23.3-0.9-29-2.3v-6.4
							c0.8-0.9,1.9-2.1,3.1-3.4c1.9-1.9,2.9-4.2,2.9-6.9s-1-5-2.9-6.9c-0.9-0.9-1.9-1.6-3.1-2.1v-37L106.1,924.2 M134.6,1008.2
							c4.9-0.3,9.1-0.7,12.5-1.3v54.3h-12.5V1008.2 M169.3,993.5c1.9-4.7,1.7-9.8-0.8-15.2c-1.8-4-5-8.3-9.3-12.9v-41.1h20.6
							l-0.1,137h-20.5v-57.7C164.2,1001.2,167.5,997.9,169.3,993.5 M56.3,976.5c-3,6-3.5,11.5-1.4,16.5c1.8,4.2,5.1,7.6,10.2,10
							v58.3H44.6l-0.1-137.1H65v40.6C61.1,968.9,58.2,972.8,56.3,976.5 M77.1,1006.6c3.8,0.7,8.1,1.2,12.9,1.5v53.2H77.1V1006.6z"/>
					</g>
				</g>
			</g>
		</g>
	</g>
	<g>
		<path class="st0" d="M261.3,313h-202c-8.2,0-14.9-6.7-14.9-14.9l0,0c0-8.2,6.7-14.9,14.9-14.9h202c8.2,0,14.9,6.7,14.9,14.9l0,0
			C276.3,306.2,269.6,313,261.3,313z"/>
		<g>
			<path class="st1" d="M115.9,298.2v3.5h-1.8v-9.9h3.2c0.7,0,1.2,0.1,1.7,0.2s0.9,0.4,1.2,0.7c0.3,0.3,0.5,0.6,0.7,1
				s0.2,0.8,0.2,1.3s-0.1,0.9-0.2,1.3c-0.2,0.4-0.4,0.7-0.7,1c-0.3,0.3-0.7,0.5-1.2,0.7s-1,0.2-1.7,0.2L115.9,298.2L115.9,298.2z
				 M115.9,296.7h1.4c0.3,0,0.6,0,0.9-0.1s0.5-0.2,0.6-0.4c0.2-0.2,0.3-0.3,0.4-0.6c0.1-0.2,0.1-0.5,0.1-0.8s0-0.5-0.1-0.7
				s-0.2-0.4-0.4-0.5c-0.2-0.2-0.4-0.3-0.6-0.3c-0.3-0.1-0.5-0.1-0.9-0.1h-1.4V296.7z"/>
			<path class="st1" d="M125.3,294.5c0.5,0,1,0.1,1.4,0.3s0.8,0.4,1.1,0.7c0.3,0.3,0.5,0.7,0.7,1.1s0.2,0.9,0.2,1.5
				s-0.1,1.1-0.2,1.5c-0.2,0.4-0.4,0.8-0.7,1.1c-0.3,0.3-0.7,0.6-1.1,0.7s-0.9,0.3-1.4,0.3s-1-0.1-1.4-0.3s-0.8-0.4-1.1-0.7
				s-0.5-0.7-0.7-1.1s-0.3-1-0.3-1.5c0-0.6,0.1-1.1,0.3-1.5c0.2-0.4,0.4-0.8,0.7-1.1s0.7-0.6,1.1-0.7S124.8,294.5,125.3,294.5z
				 M125.3,300.5c0.6,0,1-0.2,1.3-0.6s0.4-1,0.4-1.7c0-0.8-0.1-1.3-0.4-1.7c-0.3-0.4-0.7-0.6-1.3-0.6c-0.6,0-1,0.2-1.3,0.6
				s-0.4,1-0.4,1.7s0.1,1.3,0.4,1.7S124.7,300.5,125.3,300.5z"/>
			<path class="st1" d="M130.1,304v-9.3h1c0.1,0,0.2,0,0.3,0.1c0.1,0,0.1,0.1,0.2,0.2l0.1,0.7c0.3-0.3,0.6-0.6,1-0.8
				s0.8-0.3,1.3-0.3c0.4,0,0.7,0.1,1.1,0.2s0.6,0.4,0.8,0.7c0.2,0.3,0.4,0.7,0.5,1.1s0.2,1,0.2,1.5s-0.1,1-0.2,1.5
				c-0.1,0.4-0.3,0.8-0.6,1.2c-0.3,0.3-0.6,0.6-1,0.8c-0.4,0.2-0.8,0.3-1.3,0.3c-0.4,0-0.7-0.1-1-0.2s-0.5-0.3-0.7-0.5v2.9h-1.7V304
				z M133.4,295.8c-0.4,0-0.7,0.1-0.9,0.2s-0.5,0.4-0.7,0.6v3.2c0.2,0.2,0.4,0.4,0.6,0.5s0.5,0.1,0.7,0.1c0.3,0,0.5,0,0.7-0.1
				s0.4-0.2,0.5-0.4c0.1-0.2,0.3-0.4,0.3-0.7c0.1-0.3,0.1-0.7,0.1-1.1s0-0.8-0.1-1c-0.1-0.3-0.2-0.5-0.3-0.7s-0.3-0.3-0.4-0.4
				C133.8,295.9,133.6,295.8,133.4,295.8z"/>
			<path class="st1" d="M139.4,294.6v4.5c0,0.4,0.1,0.8,0.3,1s0.5,0.4,0.9,0.4c0.3,0,0.6-0.1,0.8-0.2c0.3-0.1,0.5-0.3,0.7-0.5v-5.1
				h1.7v7h-1c-0.2,0-0.4-0.1-0.4-0.3l-0.1-0.6c-0.1,0.1-0.3,0.3-0.5,0.4s-0.3,0.2-0.5,0.3c-0.2,0.1-0.4,0.2-0.6,0.2
				c-0.2,0-0.4,0.1-0.7,0.1c-0.4,0-0.7-0.1-1-0.2s-0.5-0.3-0.7-0.6c-0.2-0.2-0.4-0.5-0.5-0.8s-0.2-0.7-0.2-1.1v-4.5L139.4,294.6
				L139.4,294.6z"/>
			<path class="st1" d="M147.5,291.5v10.2h-1.7v-10.2H147.5z"/>
			<path class="st1" d="M154.9,301.7h-0.8c-0.2,0-0.3,0-0.4-0.1c-0.1,0-0.2-0.1-0.2-0.3l-0.2-0.5c-0.2,0.2-0.4,0.3-0.5,0.4
				c-0.2,0.1-0.3,0.2-0.5,0.3c-0.2,0.1-0.4,0.1-0.6,0.2c-0.2,0-0.4,0.1-0.7,0.1s-0.6,0-0.8-0.1s-0.5-0.2-0.6-0.4
				c-0.2-0.2-0.3-0.4-0.4-0.6c-0.1-0.2-0.2-0.5-0.2-0.8s0.1-0.5,0.2-0.8c0.1-0.3,0.4-0.5,0.7-0.7s0.8-0.4,1.3-0.5s1.2-0.2,2-0.2
				v-0.4c0-0.5-0.1-0.8-0.3-1.1c-0.2-0.2-0.5-0.3-0.9-0.3c-0.3,0-0.5,0-0.7,0.1s-0.3,0.1-0.5,0.2c-0.1,0.1-0.3,0.2-0.4,0.2
				c-0.1,0.1-0.2,0.1-0.4,0.1c-0.1,0-0.2,0-0.3-0.1s-0.1-0.1-0.2-0.2l-0.3-0.5c0.8-0.7,1.8-1.1,2.9-1.1c0.4,0,0.8,0.1,1.1,0.2
				s0.6,0.3,0.8,0.6c0.2,0.2,0.4,0.5,0.5,0.9c0.1,0.3,0.2,0.7,0.2,1.1v4.3H154.9z M151.6,300.6c0.2,0,0.3,0,0.5,0s0.3-0.1,0.4-0.1
				c0.1-0.1,0.3-0.1,0.4-0.2c0.1-0.1,0.2-0.2,0.4-0.3v-1.2c-0.5,0-0.9,0-1.2,0.1s-0.6,0.1-0.8,0.2s-0.3,0.2-0.4,0.3
				c-0.1,0.1-0.1,0.3-0.1,0.4c0,0.3,0.1,0.5,0.3,0.6C151.1,300.6,151.3,300.6,151.6,300.6z"/>
			<path class="st1" d="M158.5,303.2L158.5,303.2c0.1,0,0.2,0,0.2,0h0.1c0.1,0,0.1,0,0.2,0c0.2,0,0.3,0,0.3-0.1
				c0.1-0.1,0.1-0.1,0.1-0.2s-0.1-0.2-0.2-0.3c-0.2-0.1-0.4-0.1-0.8-0.2l0.3-0.9c-0.4-0.1-0.7-0.2-1-0.4s-0.6-0.4-0.8-0.7
				c-0.2-0.3-0.4-0.7-0.5-1.1s-0.2-0.9-0.2-1.4s0.1-1,0.2-1.4c0.1-0.4,0.4-0.8,0.7-1.1c0.3-0.3,0.6-0.6,1.1-0.8
				c0.4-0.2,0.9-0.3,1.5-0.3c0.5,0,1,0.1,1.4,0.3c0.4,0.2,0.8,0.4,1.1,0.7l-0.4,0.6c-0.1,0.1-0.1,0.1-0.1,0.2c0,0-0.1,0.1-0.2,0.1
				c-0.1,0-0.2,0-0.3-0.1s-0.2-0.1-0.3-0.2s-0.3-0.1-0.4-0.2c-0.2-0.1-0.4-0.1-0.6-0.1c-0.3,0-0.6,0.1-0.8,0.2s-0.4,0.3-0.6,0.5
				c-0.1,0.2-0.3,0.4-0.3,0.7s-0.1,0.6-0.1,1s0,0.7,0.1,1s0.2,0.5,0.3,0.7s0.3,0.3,0.5,0.5c0.2,0.1,0.5,0.2,0.7,0.2s0.5,0,0.7-0.1
				s0.3-0.1,0.4-0.2s0.2-0.2,0.3-0.2c0.1-0.1,0.2-0.1,0.3-0.1s0.2,0.1,0.3,0.2l0.5,0.6c-0.3,0.4-0.7,0.6-1.1,0.8
				c-0.4,0.2-0.8,0.3-1.2,0.3l-0.1,0.3c0.4,0.1,0.7,0.2,0.9,0.4c0.2,0.2,0.2,0.4,0.2,0.6s0,0.3-0.1,0.4s-0.2,0.2-0.3,0.3
				s-0.3,0.2-0.5,0.2s-0.4,0.1-0.7,0.1c-0.2,0-0.4,0-0.5,0c-0.2,0-0.3-0.1-0.5-0.1l0.2-0.5C158.3,303.3,158.4,303.2,158.5,303.2z"/>
			<path class="st1" d="M168.7,301.7h-0.8c-0.2,0-0.3,0-0.4-0.1c-0.1,0-0.2-0.1-0.2-0.3l-0.2-0.5c-0.2,0.2-0.4,0.3-0.5,0.4
				c-0.2,0.1-0.3,0.2-0.5,0.3c-0.2,0.1-0.4,0.1-0.6,0.2c-0.2,0-0.4,0.1-0.7,0.1s-0.6,0-0.8-0.1s-0.5-0.2-0.6-0.4
				c-0.2-0.2-0.3-0.4-0.4-0.6c-0.1-0.2-0.2-0.5-0.2-0.8s0.1-0.5,0.2-0.8c0.1-0.3,0.4-0.5,0.7-0.7s0.8-0.4,1.3-0.5s1.2-0.2,2-0.2
				v-0.4c0-0.5-0.1-0.8-0.3-1.1c-0.2-0.2-0.5-0.3-0.9-0.3c-0.3,0-0.5,0-0.7,0.1s-0.3,0.1-0.5,0.2c-0.1,0.1-0.3,0.2-0.4,0.2
				c-0.1,0.1-0.2,0.1-0.4,0.1c-0.1,0-0.2,0-0.3-0.1s-0.1-0.1-0.2-0.2l-0.3-0.5c0.8-0.7,1.8-1.1,2.9-1.1c0.4,0,0.8,0.1,1.1,0.2
				s0.6,0.3,0.8,0.6c0.2,0.2,0.4,0.5,0.5,0.9c0.1,0.3,0.2,0.7,0.2,1.1v4.3H168.7z M166.7,292.3c0.1,0,0.2,0,0.3-0.1s0.1-0.2,0.1-0.4
				h1c0,0.3,0,0.5-0.1,0.7s-0.2,0.4-0.3,0.5s-0.3,0.3-0.4,0.3s-0.4,0.1-0.6,0.1c-0.2,0-0.3,0-0.5-0.1c-0.1-0.1-0.3-0.1-0.4-0.2
				s-0.2-0.1-0.3-0.2s-0.2-0.1-0.3-0.1s-0.2,0-0.3,0.1s-0.1,0.2-0.1,0.4h-1c0-0.3,0-0.5,0.1-0.7s0.2-0.4,0.3-0.5s0.3-0.3,0.4-0.3
				c0.2-0.1,0.4-0.1,0.6-0.1c0.2,0,0.3,0,0.5,0.1c0.1,0.1,0.3,0.1,0.4,0.2s0.2,0.1,0.3,0.2S166.6,292.3,166.7,292.3z M165.4,300.6
				c0.2,0,0.3,0,0.5,0s0.3-0.1,0.4-0.1c0.1-0.1,0.3-0.1,0.4-0.2c0.1-0.1,0.2-0.2,0.4-0.3v-1.2c-0.5,0-0.9,0-1.2,0.1
				s-0.6,0.1-0.8,0.2s-0.3,0.2-0.4,0.3c-0.1,0.1-0.1,0.3-0.1,0.4c0,0.3,0.1,0.5,0.3,0.6C164.8,300.6,165.1,300.6,165.4,300.6z"/>
			<path class="st1" d="M173.3,294.5c0.5,0,1,0.1,1.4,0.3s0.8,0.4,1.1,0.7c0.3,0.3,0.5,0.7,0.7,1.1s0.2,0.9,0.2,1.5
				s-0.1,1.1-0.2,1.5c-0.2,0.4-0.4,0.8-0.7,1.1c-0.3,0.3-0.7,0.6-1.1,0.7s-0.9,0.3-1.4,0.3s-1-0.1-1.4-0.3s-0.8-0.4-1.1-0.7
				s-0.5-0.7-0.7-1.1s-0.3-1-0.3-1.5c0-0.6,0.1-1.1,0.3-1.5s0.4-0.8,0.7-1.1s0.7-0.6,1.1-0.7S172.8,294.5,173.3,294.5z M173.3,300.5
				c0.6,0,1-0.2,1.3-0.6s0.4-1,0.4-1.7c0-0.8-0.1-1.3-0.4-1.7c-0.3-0.4-0.7-0.6-1.3-0.6s-1,0.2-1.3,0.6s-0.4,1-0.4,1.7
				s0.1,1.3,0.4,1.7S172.7,300.5,173.3,300.5z"/>
			<path class="st1" d="M185.7,301.7c-0.2,0-0.4-0.1-0.4-0.3l-0.1-0.7c-0.1,0.2-0.3,0.3-0.5,0.4s-0.3,0.2-0.5,0.3
				c-0.2,0.1-0.4,0.2-0.6,0.2c-0.2,0.1-0.4,0.1-0.7,0.1c-0.4,0-0.7-0.1-1.1-0.2s-0.6-0.4-0.8-0.7s-0.4-0.7-0.5-1.1s-0.2-1-0.2-1.5
				s0.1-1,0.2-1.5s0.3-0.8,0.6-1.2c0.3-0.3,0.6-0.6,1-0.8c0.4-0.2,0.8-0.3,1.2-0.3s0.7,0.1,1,0.2s0.5,0.3,0.7,0.5v-3.7h1.7v10.2h-1
				V301.7z M183.5,300.4c0.4,0,0.7-0.1,0.9-0.2s0.5-0.4,0.7-0.6v-3.2c-0.2-0.2-0.4-0.4-0.6-0.5c-0.2-0.1-0.5-0.1-0.7-0.1
				c-0.3,0-0.5,0-0.7,0.1s-0.4,0.2-0.5,0.4s-0.3,0.4-0.3,0.7c-0.1,0.3-0.1,0.7-0.1,1.1s0,0.8,0.1,1c0.1,0.3,0.2,0.5,0.3,0.7
				s0.3,0.3,0.5,0.4C183.1,300.4,183.2,300.4,183.5,300.4z"/>
			<path class="st1" d="M191.5,294.5c0.4,0,0.9,0.1,1.2,0.2c0.4,0.1,0.7,0.3,1,0.6s0.5,0.6,0.6,1c0.2,0.4,0.2,0.8,0.2,1.4
				c0,0.1,0,0.2,0,0.3c0,0.1,0,0.2-0.1,0.2l-0.1,0.1c-0.1,0-0.1,0-0.2,0h-4.4c0.1,0.7,0.2,1.3,0.6,1.6c0.3,0.3,0.8,0.5,1.3,0.5
				c0.3,0,0.5,0,0.7-0.1s0.4-0.1,0.5-0.2s0.3-0.1,0.4-0.2c0.1-0.1,0.2-0.1,0.3-0.1s0.1,0,0.2,0c0.1,0,0.1,0.1,0.1,0.1l0.5,0.6
				c-0.2,0.2-0.4,0.4-0.6,0.6c-0.2,0.1-0.5,0.3-0.7,0.4c-0.3,0.1-0.5,0.2-0.8,0.2s-0.5,0.1-0.8,0.1c-0.5,0-0.9-0.1-1.4-0.2
				c-0.4-0.2-0.8-0.4-1.1-0.7c-0.3-0.3-0.6-0.7-0.7-1.2c-0.2-0.5-0.3-1-0.3-1.6c0-0.5,0.1-0.9,0.2-1.4c0.2-0.4,0.4-0.8,0.7-1.1
				s0.6-0.6,1.1-0.7C190.5,294.6,191,294.5,191.5,294.5z M191.5,295.7c-0.5,0-0.9,0.1-1.2,0.4s-0.5,0.7-0.5,1.2h3.2
				c0-0.2,0-0.4-0.1-0.6s-0.2-0.4-0.3-0.5s-0.3-0.3-0.5-0.3S191.8,295.7,191.5,295.7z"/>
			<path class="st1" d="M198.6,301.7v-7h1c0.2,0,0.3,0,0.4,0.1c0.1,0.1,0.1,0.2,0.1,0.3l0.1,0.9c0.3-0.4,0.5-0.8,0.9-1
				c0.3-0.3,0.7-0.4,1.1-0.4c0.3,0,0.6,0.1,0.9,0.2l-0.2,1.3c0,0.1,0,0.1-0.1,0.2c0,0-0.1,0.1-0.2,0.1c-0.1,0-0.2,0-0.3,0
				s-0.3,0-0.5,0c-0.4,0-0.7,0.1-0.9,0.3s-0.5,0.5-0.6,0.9v4.4h-1.7V301.7z"/>
			<path class="st1" d="M205.7,294.6v4.5c0,0.4,0.1,0.8,0.3,1s0.5,0.4,0.9,0.4c0.3,0,0.6-0.1,0.8-0.2c0.3-0.1,0.5-0.3,0.7-0.5v-5.1
				h1.7v7h-1c-0.2,0-0.4-0.1-0.4-0.3l-0.1-0.6c-0.1,0.1-0.3,0.3-0.5,0.4s-0.3,0.2-0.5,0.3c-0.2,0.1-0.4,0.2-0.6,0.2
				c-0.2,0-0.4,0.1-0.7,0.1c-0.4,0-0.7-0.1-1-0.2s-0.5-0.3-0.7-0.6c-0.2-0.2-0.4-0.5-0.5-0.8s-0.2-0.7-0.2-1.1v-4.5L205.7,294.6
				L205.7,294.6z"/>
			<path class="st1" d="M217.5,301.7h-0.8c-0.2,0-0.3,0-0.4-0.1c-0.1,0-0.2-0.1-0.2-0.3l-0.2-0.5c-0.2,0.2-0.4,0.3-0.5,0.4
				c-0.2,0.1-0.3,0.2-0.5,0.3c-0.2,0.1-0.4,0.1-0.6,0.2c-0.2,0-0.4,0.1-0.7,0.1s-0.6,0-0.8-0.1c-0.3-0.1-0.5-0.2-0.6-0.4
				c-0.2-0.2-0.3-0.4-0.4-0.6c-0.1-0.2-0.2-0.5-0.2-0.8s0.1-0.5,0.2-0.8c0.1-0.3,0.4-0.5,0.7-0.7s0.8-0.4,1.3-0.5s1.2-0.2,2-0.2
				v-0.4c0-0.5-0.1-0.8-0.3-1.1c-0.2-0.2-0.5-0.3-0.9-0.3c-0.3,0-0.5,0-0.7,0.1s-0.3,0.1-0.5,0.2s-0.3,0.2-0.4,0.2
				c-0.1,0.1-0.2,0.1-0.4,0.1c-0.1,0-0.2,0-0.3-0.1s-0.1-0.1-0.2-0.2l-0.3-0.5c0.8-0.7,1.8-1.1,2.9-1.1c0.4,0,0.8,0.1,1.1,0.2
				s0.6,0.3,0.8,0.6c0.2,0.2,0.4,0.5,0.5,0.9c0.1,0.3,0.2,0.7,0.2,1.1v4.3H217.5z M214.2,300.6c0.2,0,0.3,0,0.5,0s0.3-0.1,0.4-0.1
				c0.1-0.1,0.3-0.1,0.4-0.2c0.1-0.1,0.2-0.2,0.4-0.3v-1.2c-0.5,0-0.9,0-1.2,0.1s-0.6,0.1-0.8,0.2s-0.3,0.2-0.4,0.3
				s-0.1,0.3-0.1,0.4c0,0.3,0.1,0.5,0.3,0.6C213.7,300.6,213.9,300.6,214.2,300.6z"/>
		</g>
		<circle class="st0" cx="32.3" cy="298" r="31.6"/>
		<g>
			<g>
				<path class="st2" d="M16.7,302.7c0,1.9-1.5,3.4-3.4,3.4c-1.9,0-3.4-1.5-3.4-3.4c0-1.9,1.5-3.4,3.4-3.4
					C15.2,299.3,16.7,300.9,16.7,302.7z"/>
				<path class="st2" d="M20.9,308.6L20.9,308.6c0,0.1,0,0.2,0,0.2v0.2c0,0.7-0.5,1.3-1.2,1.3c0,0,0,0-0.1,0h-0.4v0h-7.6
					c-0.7,0-1.3-0.6-1.3-1.3c0-0.7,0.6-1.3,1.3-1.3h6.7V302c0-0.7,0.6-1.3,1.3-1.3c0.7,0,1.3,0.6,1.3,1.3L20.9,308.6L20.9,308.6z"/>
				<path class="st2" d="M23,310.3c0,0,0-5,0-8.1c0-2.9,2.6-3.4,6.2-2.7c0,0,0.1,0,0.3,0.1h0c0.1,0,0.3,0,0.4,0l19.4,2.9
					c1.2,0.2,2.8,0.9,2.8,2.8l0,5.1L23,310.3z"/>
			</g>
			<path class="st3" d="M40.1,283.3c3.3,0,5.9,2.6,5.9,5.9c0,3.3-2.6,5.9-5.9,5.9c-3.3,0-5.9-2.7-5.9-5.9c0-0.4,0-0.9,0.1-1.3
				c0.4,1.5,1.8,2.6,3.5,2.6c2,0,3.6-1.6,3.6-3.6c0-1.7-1.1-3-2.6-3.5C39.2,283.3,39.7,283.3,40.1,283.3L40.1,283.3z"/>
		</g>
	</g>
	<g>
		<path class="st0" d="M358.2,179.9h-202c-8.2,0-14.9-6.7-14.9-14.9l0,0c0-8.2,6.7-14.9,14.9-14.9h202c8.2,0,14.9,6.7,14.9,14.9l0,0
			C373.1,173.2,366.4,179.9,358.2,179.9z"/>
		<g>
			<path class="st1" d="M231.7,166.3c0.1,0,0.2,0,0.3,0.1l0.7,0.8c-0.4,0.5-0.9,0.9-1.5,1.1c-0.6,0.3-1.3,0.4-2.1,0.4
				c-0.7,0-1.4-0.1-2-0.4c-0.6-0.3-1.1-0.6-1.5-1.1c-0.4-0.4-0.7-1-1-1.6c-0.2-0.6-0.3-1.3-0.3-2s0.1-1.4,0.4-2
				c0.2-0.6,0.6-1.2,1-1.6s1-0.8,1.6-1s1.3-0.4,2.1-0.4c0.7,0,1.4,0.1,1.9,0.4c0.6,0.2,1,0.5,1.4,0.9l-0.6,0.9
				c0,0.1-0.1,0.1-0.1,0.1c-0.1,0-0.1,0.1-0.2,0.1c-0.1,0-0.2,0-0.3-0.1s-0.2-0.2-0.4-0.3s-0.4-0.2-0.6-0.3c-0.3-0.1-0.6-0.1-1-0.1
				c-0.5,0-0.9,0.1-1.3,0.2c-0.4,0.2-0.7,0.4-1,0.7s-0.5,0.7-0.7,1.1c-0.2,0.4-0.2,0.9-0.2,1.5s0.1,1.1,0.2,1.5
				c0.2,0.4,0.4,0.8,0.6,1.1c0.3,0.3,0.6,0.5,1,0.7s0.8,0.2,1.2,0.2c0.3,0,0.5,0,0.7,0s0.4-0.1,0.6-0.1c0.2-0.1,0.3-0.1,0.5-0.2
				s0.3-0.2,0.5-0.3l0.1-0.1C231.6,166.3,231.6,166.3,231.7,166.3z"/>
			<path class="st1" d="M234,168.7v-7h1c0.2,0,0.3,0,0.4,0.1c0.1,0.1,0.1,0.2,0.1,0.3l0.1,0.9c0.3-0.4,0.5-0.8,0.9-1
				c0.3-0.3,0.7-0.4,1.1-0.4c0.3,0,0.6,0.1,0.9,0.2l-0.2,1.3c0,0.1,0,0.1-0.1,0.2s-0.1,0.1-0.2,0.1c-0.1,0-0.2,0-0.3,0s-0.3,0-0.5,0
				c-0.4,0-0.7,0.1-0.9,0.3c-0.3,0.2-0.5,0.5-0.6,0.9v4.4H234V168.7z"/>
			<path class="st1" d="M241.7,159.6c0,0.1,0,0.3-0.1,0.4c-0.1,0.1-0.1,0.2-0.2,0.3c-0.1,0.1-0.2,0.2-0.3,0.2
				c-0.1,0.1-0.3,0.1-0.4,0.1c-0.1,0-0.3,0-0.4-0.1c-0.1-0.1-0.2-0.1-0.3-0.2c-0.1-0.1-0.2-0.2-0.2-0.3c-0.1-0.1-0.1-0.3-0.1-0.4
				c0-0.2,0-0.3,0.1-0.4c0.1-0.1,0.1-0.2,0.2-0.3c0.1-0.1,0.2-0.2,0.3-0.2c0.1-0.1,0.3-0.1,0.4-0.1c0.2,0,0.3,0,0.4,0.1
				c0.1,0.1,0.2,0.1,0.3,0.2c0.1,0.1,0.2,0.2,0.2,0.3C241.6,159.3,241.7,159.4,241.7,159.6z M241.4,161.6v7h-1.7v-7H241.4z"/>
			<path class="st1" d="M248.8,168.7H248c-0.2,0-0.3,0-0.4-0.1c-0.1,0-0.2-0.1-0.2-0.3l-0.2-0.5c-0.2,0.2-0.4,0.3-0.5,0.4
				c-0.2,0.1-0.3,0.2-0.5,0.3s-0.4,0.1-0.6,0.2c-0.2,0-0.4,0.1-0.7,0.1s-0.6,0-0.8-0.1c-0.3-0.1-0.5-0.2-0.6-0.4
				c-0.2-0.2-0.3-0.4-0.4-0.6c-0.1-0.2-0.2-0.5-0.2-0.8s0.1-0.5,0.2-0.8c0.1-0.3,0.4-0.5,0.7-0.7s0.8-0.4,1.3-0.5s1.2-0.2,2-0.2
				v-0.4c0-0.5-0.1-0.8-0.3-1.1s-0.5-0.3-0.9-0.3c-0.3,0-0.5,0-0.7,0.1s-0.3,0.1-0.5,0.2c-0.1,0.1-0.3,0.2-0.4,0.2
				c-0.1,0.1-0.2,0.1-0.4,0.1c-0.1,0-0.2,0-0.3-0.1s-0.1-0.1-0.2-0.2l-0.3-0.5c0.8-0.7,1.8-1.1,2.9-1.1c0.4,0,0.8,0.1,1.1,0.2
				c0.3,0.1,0.6,0.3,0.8,0.6c0.2,0.2,0.4,0.5,0.5,0.9c0.1,0.3,0.2,0.7,0.2,1.1v4.3H248.8z M245.5,167.6c0.2,0,0.3,0,0.5,0
				s0.3-0.1,0.4-0.1c0.1-0.1,0.3-0.1,0.4-0.2c0.1-0.1,0.2-0.2,0.4-0.3v-1.2c-0.5,0-0.9,0-1.2,0.1s-0.6,0.1-0.8,0.2
				c-0.2,0.1-0.3,0.2-0.4,0.3s-0.1,0.3-0.1,0.4c0,0.3,0.1,0.5,0.3,0.6C245,167.5,245.3,167.6,245.5,167.6z"/>
			<path class="st1" d="M250.5,168.7v-7h1c0.2,0,0.4,0.1,0.4,0.3l0.1,0.6c0.1-0.1,0.3-0.3,0.5-0.4c0.2-0.1,0.3-0.2,0.5-0.3
				s0.4-0.2,0.6-0.2c0.2,0,0.4-0.1,0.7-0.1c0.4,0,0.7,0.1,1,0.2s0.5,0.3,0.7,0.5c0.2,0.2,0.3,0.5,0.5,0.8c0.1,0.3,0.2,0.7,0.2,1.1
				v4.5H255v-4.5c0-0.4-0.1-0.8-0.3-1s-0.5-0.4-0.9-0.4c-0.3,0-0.6,0.1-0.8,0.2c-0.3,0.1-0.5,0.3-0.7,0.5v5.1L250.5,168.7
				L250.5,168.7z"/>
			<path class="st1" d="M260.2,170.2L260.2,170.2c0.1,0,0.2,0,0.2,0h0.1c0.1,0,0.1,0,0.2,0c0.2,0,0.3,0,0.3-0.1
				c0.1-0.1,0.1-0.1,0.1-0.2c0-0.1-0.1-0.2-0.2-0.3c-0.2-0.1-0.4-0.1-0.8-0.2l0.3-0.9c-0.4-0.1-0.7-0.2-1-0.4s-0.6-0.4-0.8-0.7
				c-0.2-0.3-0.4-0.7-0.5-1.1s-0.2-0.9-0.2-1.4s0.1-1,0.2-1.4s0.4-0.8,0.7-1.1c0.3-0.3,0.6-0.6,1.1-0.8c0.4-0.2,0.9-0.3,1.5-0.3
				c0.5,0,1,0.1,1.4,0.3s0.8,0.4,1.1,0.7l-0.4,0.6c0,0.1-0.1,0.1-0.1,0.2s-0.1,0.1-0.2,0.1s-0.2,0-0.3-0.1c-0.1-0.1-0.2-0.1-0.3-0.2
				c-0.1-0.1-0.3-0.1-0.4-0.2c-0.2-0.1-0.4-0.1-0.6-0.1c-0.3,0-0.6,0.1-0.8,0.2c-0.2,0.1-0.4,0.3-0.6,0.5c-0.1,0.2-0.3,0.4-0.3,0.7
				s-0.1,0.6-0.1,1s0,0.7,0.1,1s0.2,0.5,0.3,0.7c0.2,0.2,0.3,0.3,0.5,0.5c0.2,0.1,0.5,0.2,0.7,0.2c0.3,0,0.5,0,0.7-0.1
				s0.3-0.1,0.4-0.2s0.2-0.2,0.3-0.2c0.1-0.1,0.2-0.1,0.3-0.1c0.1,0,0.2,0.1,0.3,0.2l0.5,0.6c-0.3,0.4-0.7,0.6-1.1,0.8
				s-0.8,0.3-1.2,0.3l-0.1,0.3c0.4,0.1,0.7,0.2,0.9,0.4c0.2,0.2,0.2,0.4,0.2,0.6c0,0.2,0,0.3-0.1,0.4s-0.2,0.2-0.3,0.3
				s-0.3,0.2-0.5,0.2s-0.4,0.1-0.7,0.1c-0.2,0-0.4,0-0.5,0s-0.3-0.1-0.5-0.1l0.2-0.5C260,170.3,260.1,170.2,260.2,170.2z"/>
			<path class="st1" d="M270.4,168.7h-0.8c-0.2,0-0.3,0-0.4-0.1s-0.2-0.1-0.2-0.3l-0.2-0.5c-0.2,0.2-0.4,0.3-0.5,0.4
				c-0.2,0.1-0.3,0.2-0.5,0.3s-0.4,0.1-0.6,0.2s-0.4,0.1-0.7,0.1c-0.3,0-0.6,0-0.8-0.1c-0.3-0.1-0.5-0.2-0.6-0.4
				c-0.2-0.2-0.3-0.4-0.4-0.6c-0.1-0.2-0.2-0.5-0.2-0.8s0.1-0.5,0.2-0.8s0.4-0.5,0.7-0.7c0.3-0.2,0.8-0.4,1.3-0.5s1.2-0.2,2-0.2
				v-0.4c0-0.5-0.1-0.8-0.3-1.1s-0.5-0.3-0.9-0.3c-0.3,0-0.5,0-0.7,0.1s-0.3,0.1-0.5,0.2s-0.3,0.2-0.4,0.2c-0.1,0.1-0.2,0.1-0.4,0.1
				c-0.1,0-0.2,0-0.3-0.1c-0.1-0.1-0.1-0.1-0.2-0.2l-0.3-0.5c0.8-0.7,1.8-1.1,2.9-1.1c0.4,0,0.8,0.1,1.1,0.2
				c0.3,0.1,0.6,0.3,0.8,0.6c0.2,0.2,0.4,0.5,0.5,0.9c0.1,0.3,0.2,0.7,0.2,1.1v4.3H270.4z M267.1,167.6c0.2,0,0.3,0,0.5,0
				s0.3-0.1,0.4-0.1c0.1-0.1,0.3-0.1,0.4-0.2c0.1-0.1,0.2-0.2,0.4-0.3v-1.2c-0.5,0-0.9,0-1.2,0.1c-0.3,0.1-0.6,0.1-0.8,0.2
				c-0.2,0.1-0.3,0.2-0.4,0.3s-0.1,0.3-0.1,0.4c0,0.3,0.1,0.5,0.3,0.6C266.6,167.5,266.8,167.6,267.1,167.6z"/>
			<path class="st1" d="M276.2,163c0,0.1-0.1,0.1-0.1,0.2c-0.1,0-0.1,0-0.2,0s-0.2,0-0.3-0.1c-0.1,0-0.2-0.1-0.3-0.2
				c-0.1-0.1-0.3-0.1-0.4-0.2c-0.2,0-0.3-0.1-0.6-0.1c-0.3,0-0.6,0.1-0.8,0.2c-0.2,0.1-0.3,0.3-0.3,0.6c0,0.2,0,0.3,0.1,0.4
				s0.2,0.2,0.4,0.3c0.2,0.1,0.3,0.1,0.6,0.2c0.2,0.1,0.4,0.1,0.6,0.2s0.4,0.2,0.6,0.3s0.4,0.2,0.6,0.4c0.2,0.1,0.3,0.3,0.4,0.5
				s0.1,0.4,0.1,0.7s-0.1,0.7-0.2,0.9c-0.1,0.3-0.3,0.5-0.5,0.7s-0.5,0.4-0.9,0.5s-0.8,0.2-1.2,0.2c-0.2,0-0.5,0-0.7-0.1
				c-0.2,0-0.5-0.1-0.7-0.2c-0.2-0.1-0.4-0.2-0.6-0.3s-0.3-0.2-0.5-0.3l0.4-0.6c0.1-0.1,0.1-0.1,0.2-0.2c0.1,0,0.2-0.1,0.3-0.1
				s0.2,0,0.3,0.1c0.1,0.1,0.2,0.1,0.3,0.2c0.1,0.1,0.3,0.1,0.4,0.2s0.4,0.1,0.6,0.1s0.4,0,0.5-0.1c0.1,0,0.3-0.1,0.4-0.2
				c0.1-0.1,0.2-0.2,0.2-0.3s0.1-0.2,0.1-0.3c0-0.2,0-0.3-0.1-0.4c-0.1-0.1-0.2-0.2-0.4-0.3c-0.2-0.1-0.3-0.1-0.6-0.2
				c-0.2-0.1-0.4-0.1-0.6-0.2c-0.2-0.1-0.4-0.2-0.6-0.3s-0.4-0.2-0.6-0.4s-0.3-0.3-0.4-0.6s-0.1-0.5-0.1-0.8s0.1-0.6,0.2-0.8
				s0.3-0.5,0.5-0.7s0.5-0.4,0.8-0.5s0.7-0.2,1.1-0.2c0.5,0,0.9,0.1,1.3,0.2c0.4,0.2,0.7,0.4,1,0.6L276.2,163z"/>
		</g>
		<circle class="st0" cx="382.7" cy="165" r="31.6"/>
		<g>
			<g transform="matrix( 0.207000732421875, 0, 0, 0.206939697265625, 4.05,18.55) ">
				<g>
					<g id="Layer1_0_MEMBER_0_FILL_21_">
						<path class="st2" d="M1779.6,620.5c-6.5,0-12,2.3-16.5,6.9c-4.6,4.6-6.9,10.1-6.9,16.6c0,6.5,2.3,12,6.9,16.5
							c4.6,4.6,10.1,6.9,16.5,6.9c6.5,0,12-2.3,16.6-6.9c4.6-4.6,6.9-10.1,6.9-16.5c0-6.5-2.3-12-6.9-16.6
							S1786.1,620.5,1779.6,620.5z"/>
					</g>
				</g>
			</g>
			<g transform="matrix( 0.207000732421875, 0, 0, 0.206939697265625, 4.05,18.55) ">
				<g>
					<g id="Layer1_0_MEMBER_1_FILL_15_">
						<path class="st2" d="M1826.8,712.5c-0.1-2.3-1-4.2-2.7-5.7l-31.1-27.9c-0.4-0.4-1-0.8-1.8-1.2l-1.1-0.5
							c-0.5-0.2-0.9-0.3-1.4-0.3h-0.2c-0.4-0.1-0.7-0.1-0.9-0.1h-16c-0.2,0-0.5,0-0.9,0.1h-0.2c-0.5,0.1-0.9,0.2-1.4,0.3
							c-0.1,0-0.3,0.1-0.7,0.3l-0.4,0.2c-0.8,0.4-1.4,0.8-1.8,1.2l-31,27.9c-1.7,1.5-2.6,3.4-2.7,5.7s0.6,4.2,2.1,5.9
							s3.4,2.6,5.7,2.7c2.3,0.1,4.3-0.6,5.9-2.1l10-9l-8.4,28.7c-0.7,2.4-0.3,4.7,1.2,6.7c1.5,2,3.5,3,6.1,3h3.1l-5.4,36.3
							c-0.3,2.2,0.2,4.3,1.5,6.1s3.1,2.9,5.4,3.2c2.2,0.3,4.3-0.2,6.1-1.5c1.8-1.4,2.9-3.2,3.2-5.4l5.7-38.7h9.6l5.7,38.7
							c0.3,2.2,1.4,4,3.2,5.4c1.8,1.3,3.9,1.9,6.1,1.5c2.2-0.3,4-1.4,5.4-3.2c1.3-1.8,1.9-3.9,1.5-6.1l-5.4-36.3h3.1
							c2.5,0,4.5-1,6.1-3c1.5-2,1.9-4.2,1.2-6.7l-8.4-28.7l10,9c1.7,1.5,3.7,2.2,5.9,2.1c2.3-0.1,4.2-1,5.7-2.7
							C1826.2,716.7,1826.9,714.8,1826.8,712.5z"/>
					</g>
				</g>
			</g>
			<g transform="matrix( 0.207000732421875, 0, 0, 0.206939697265625, 4.05,18.55) ">
				<g>
					<g id="Layer1_0_MEMBER_2_FILL_12_">
						<path class="st2" d="M1862.9,681.2c-0.8,0.5-1.5,1.1-2.1,1.7l-29.9,26.9c-1.7,1.5-2.6,3.4-2.7,5.7s0.6,4.2,2.1,5.9
							s3.4,2.6,5.7,2.7c2.3,0.1,4.3-0.6,5.9-2.1l16.4-14.8v29.2c0,1.3,0.3,2.5,0.8,3.7c0.5,1.1,1.2,2.1,2.1,3l-6.3,42.2
							c-0.3,2.2,0.2,4.3,1.5,6.1s3.1,2.9,5.4,3.2c2.2,0.3,4.3-0.2,6.1-1.5c1.8-1.4,2.9-3.2,3.2-5.4l6.2-41.9h8.7l6.2,41.9
							c0.3,2.2,1.4,4,3.2,5.4c1.8,1.3,3.9,1.9,6.1,1.5c2.2-0.3,4-1.4,5.4-3.2c1.3-1.8,1.9-3.9,1.5-6.1l-6.3-42.2
							c0.9-0.9,1.6-1.9,2.1-3c0.5-1.2,0.8-2.4,0.8-3.7v-29.8l17.1,15.4c1.7,1.5,3.6,2.2,5.9,2.1c2.3-0.1,4.2-1,5.7-2.7
							s2.2-3.6,2.1-5.9c-0.1-2.3-1-4.2-2.7-5.7l-31-27.9c-0.8-0.8-1.8-1.3-2.9-1.7c-1-0.3-2.1-0.5-3.2-0.4h-0.4h-27.9h-0.3
							C1865.8,679.8,1864.3,680.2,1862.9,681.2z"/>
					</g>
				</g>
			</g>
			<g transform="matrix( 0.207000732421875, 0, 0, 0.206939697265625, 4.05,18.55) ">
				<g>
					<g id="Layer1_0_MEMBER_3_FILL_4_">
						<path class="st2" d="M1898.3,660.5c4.6-4.6,6.9-10.1,6.9-16.5c0-6.5-2.3-12-6.9-16.6s-10.1-6.9-16.6-6.9s-12,2.3-16.5,6.9
							c-4.6,4.6-6.9,10.1-6.9,16.6c0,6.5,2.3,12,6.9,16.5c4.6,4.6,10.1,6.9,16.5,6.9C1888.2,667.4,1893.7,665.1,1898.3,660.5z"/>
					</g>
				</g>
			</g>
		</g>
	</g>
	<g>
		<path class="st0" d="M358.2,268.6h-202c-8.2,0-14.9-6.7-14.9-14.9l0,0c0-8.2,6.7-14.9,14.9-14.9h202c8.2,0,14.9,6.7,14.9,14.9l0,0
			C373.1,261.9,366.4,268.6,358.2,268.6z"/>
		<g>
			<path class="st1" d="M207.2,252.4c0,0.7-0.1,1.4-0.4,2c-0.2,0.6-0.6,1.1-1,1.6c-0.4,0.4-1,0.8-1.6,1s-1.3,0.4-2.1,0.4h-3.8v-9.9
				h3.8c0.8,0,1.4,0.1,2.1,0.4s1.1,0.6,1.6,1c0.4,0.4,0.8,1,1,1.6C207,251,207.2,251.6,207.2,252.4z M205.3,252.4
				c0-0.5-0.1-1-0.2-1.5c-0.1-0.4-0.4-0.8-0.6-1.1s-0.6-0.5-1-0.7s-0.8-0.2-1.3-0.2h-1.9v7h1.9c0.5,0,0.9-0.1,1.3-0.2s0.7-0.4,1-0.7
				s0.5-0.7,0.6-1.1S205.3,252.9,205.3,252.4z"/>
			<path class="st1" d="M211.5,250.2c0.5,0,1,0.1,1.4,0.3s0.8,0.4,1.1,0.7s0.5,0.7,0.7,1.1c0.2,0.4,0.2,0.9,0.2,1.5
				s-0.1,1.1-0.2,1.5c-0.2,0.4-0.4,0.8-0.7,1.1s-0.7,0.6-1.1,0.7s-0.9,0.3-1.4,0.3s-1-0.1-1.4-0.3c-0.4-0.2-0.8-0.4-1.1-0.7
				c-0.3-0.3-0.5-0.7-0.7-1.1s-0.3-1-0.3-1.5c0-0.6,0.1-1.1,0.3-1.5s0.4-0.8,0.7-1.1s0.7-0.6,1.1-0.7
				C210.5,250.3,211,250.2,211.5,250.2z M211.5,256.1c0.6,0,1-0.2,1.3-0.6s0.4-1,0.4-1.7c0-0.8-0.1-1.3-0.4-1.7
				c-0.3-0.4-0.7-0.6-1.3-0.6s-1,0.2-1.3,0.6c-0.3,0.4-0.4,1-0.4,1.7s0.1,1.3,0.4,1.7C210.5,255.9,210.9,256.1,211.5,256.1z"/>
			<path class="st1" d="M219.2,250.2c0.4,0,0.9,0.1,1.2,0.2s0.7,0.3,1,0.6s0.5,0.6,0.6,1s0.2,0.8,0.2,1.4c0,0.1,0,0.2,0,0.3
				s0,0.2-0.1,0.2L222,254c0,0-0.1,0-0.2,0h-4.4c0,0.7,0.2,1.3,0.6,1.6s0.8,0.5,1.3,0.5c0.3,0,0.5,0,0.7-0.1s0.4-0.1,0.5-0.2
				c0.1-0.1,0.3-0.1,0.4-0.2c0.1-0.1,0.2-0.1,0.3-0.1s0.1,0,0.2,0c0.1,0,0.1,0.1,0.1,0.1l0.5,0.6c-0.2,0.2-0.4,0.4-0.6,0.6
				c-0.2,0.1-0.5,0.3-0.7,0.4c-0.3,0.1-0.5,0.2-0.8,0.2s-0.5,0.1-0.8,0.1c-0.5,0-0.9-0.1-1.4-0.2c-0.4-0.2-0.8-0.4-1.1-0.7
				c-0.3-0.3-0.6-0.7-0.7-1.2s-0.3-1-0.3-1.6c0-0.5,0.1-0.9,0.2-1.4s0.4-0.8,0.7-1.1s0.6-0.6,1.1-0.7
				C218.2,250.3,218.7,250.2,219.2,250.2z M219.3,251.4c-0.5,0-0.9,0.1-1.2,0.4c-0.3,0.3-0.5,0.7-0.5,1.2h3.2c0-0.2,0-0.4-0.1-0.6
				c-0.1-0.2-0.2-0.4-0.3-0.5s-0.3-0.3-0.5-0.3S219.5,251.4,219.3,251.4z"/>
			<path class="st1" d="M223.7,257.3v-7h1c0.2,0,0.4,0.1,0.4,0.3l0.1,0.6c0.1-0.1,0.3-0.3,0.5-0.4c0.2-0.1,0.3-0.2,0.5-0.3
				s0.4-0.2,0.6-0.2c0.2,0,0.4-0.1,0.7-0.1c0.4,0,0.7,0.1,1,0.2c0.3,0.1,0.5,0.3,0.7,0.5s0.3,0.5,0.5,0.8c0.1,0.3,0.2,0.7,0.2,1.1
				v4.5h-1.7v-4.5c0-0.4-0.1-0.8-0.3-1s-0.5-0.4-0.9-0.4c-0.3,0-0.6,0.1-0.8,0.2c-0.3,0.1-0.5,0.3-0.7,0.5v5.1h-1.8V257.3z"/>
			<path class="st1" d="M233.8,257.4c-0.6,0-1.1-0.2-1.4-0.5c-0.3-0.3-0.5-0.8-0.5-1.4v-3.9h-0.7c-0.1,0-0.2,0-0.2-0.1
				s-0.1-0.1-0.1-0.3v-0.7l1.1-0.2l0.4-1.9c0-0.1,0.1-0.2,0.1-0.2c0.1,0,0.1-0.1,0.2-0.1h0.9v2.2h1.9v1.2h-1.9v3.8
				c0,0.2,0.1,0.4,0.2,0.5c0.1,0.1,0.3,0.2,0.4,0.2c0.1,0,0.2,0,0.3,0s0.1-0.1,0.2-0.1c0.1,0,0.1-0.1,0.1-0.1h0.1c0.1,0,0.1,0,0.1,0
				l0.1,0.1l0.5,0.8c-0.2,0.2-0.5,0.4-0.9,0.5C234.4,257.4,234.1,257.4,233.8,257.4z"/>
			<path class="st1" d="M239.7,250.2c0.4,0,0.9,0.1,1.2,0.2c0.4,0.1,0.7,0.3,1,0.6s0.5,0.6,0.6,1c0.2,0.4,0.2,0.8,0.2,1.4
				c0,0.1,0,0.2,0,0.3s0,0.2-0.1,0.2l-0.1,0.1c-0.1,0-0.1,0-0.2,0H238c0.1,0.7,0.2,1.3,0.6,1.6c0.3,0.3,0.8,0.5,1.3,0.5
				c0.3,0,0.5,0,0.7-0.1s0.4-0.1,0.5-0.2c0.1-0.1,0.3-0.1,0.4-0.2c0.1-0.1,0.2-0.1,0.3-0.1s0.1,0,0.2,0l0.1,0.1l0.5,0.6
				c-0.2,0.2-0.4,0.4-0.6,0.6c-0.2,0.1-0.5,0.3-0.7,0.4c-0.3,0.1-0.5,0.2-0.8,0.2s-0.5,0.1-0.8,0.1c-0.5,0-0.9-0.1-1.4-0.2
				c-0.4-0.2-0.8-0.4-1.1-0.7c-0.3-0.3-0.6-0.7-0.7-1.2c-0.2-0.5-0.3-1-0.3-1.6c0-0.5,0.1-0.9,0.2-1.4c0.2-0.4,0.4-0.8,0.7-1.1
				s0.6-0.6,1.1-0.7C238.7,250.3,239.1,250.2,239.7,250.2z M239.7,251.4c-0.5,0-0.9,0.1-1.2,0.4c-0.3,0.3-0.5,0.7-0.5,1.2h3.2
				c0-0.2,0-0.4-0.1-0.6c-0.1-0.2-0.2-0.4-0.3-0.5s-0.3-0.3-0.5-0.3S240,251.4,239.7,251.4z"/>
			<path class="st1" d="M248.3,251.7c0,0.1-0.1,0.1-0.1,0.2c-0.1,0-0.1,0-0.2,0c-0.1,0-0.2,0-0.3-0.1c-0.1,0-0.2-0.1-0.3-0.2
				c-0.1-0.1-0.3-0.1-0.4-0.2c-0.2,0-0.3-0.1-0.6-0.1s-0.6,0.1-0.8,0.2s-0.3,0.3-0.3,0.6c0,0.2,0,0.3,0.1,0.4
				c0.1,0.1,0.2,0.2,0.4,0.3s0.3,0.1,0.6,0.2s0.4,0.1,0.6,0.2c0.2,0.1,0.4,0.2,0.6,0.3s0.4,0.2,0.6,0.4c0.2,0.1,0.3,0.3,0.4,0.5
				c0.1,0.2,0.1,0.4,0.1,0.7s-0.1,0.7-0.2,0.9c-0.1,0.3-0.3,0.5-0.5,0.7s-0.5,0.4-0.9,0.5s-0.8,0.2-1.2,0.2c-0.2,0-0.5,0-0.7-0.1
				c-0.2,0-0.5-0.1-0.7-0.2s-0.4-0.2-0.6-0.3s-0.3-0.2-0.5-0.3l0.4-0.6c0-0.1,0.1-0.1,0.2-0.2c0.1,0,0.2-0.1,0.3-0.1s0.2,0,0.3,0.1
				s0.2,0.1,0.3,0.2c0.1,0.1,0.3,0.1,0.4,0.2s0.4,0.1,0.6,0.1c0.2,0,0.4,0,0.5-0.1c0.1,0,0.3-0.1,0.4-0.2c0.1-0.1,0.2-0.2,0.2-0.3
				s0.1-0.2,0.1-0.3c0-0.2,0-0.3-0.1-0.4c-0.1-0.1-0.2-0.2-0.4-0.3s-0.3-0.1-0.6-0.2s-0.4-0.1-0.6-0.2c-0.2-0.1-0.4-0.2-0.6-0.3
				s-0.4-0.2-0.6-0.4s-0.3-0.3-0.4-0.6c-0.1-0.2-0.1-0.5-0.1-0.8s0.1-0.6,0.2-0.8s0.3-0.5,0.5-0.7s0.5-0.3,0.8-0.5
				c0.3-0.1,0.7-0.2,1.1-0.2c0.5,0,0.9,0.1,1.3,0.2c0.4,0.2,0.7,0.4,1,0.6L248.3,251.7z"/>
			<path class="st1" d="M257.7,251.8c0,0.1-0.1,0.1-0.1,0.2c0,0-0.1,0.1-0.2,0.1s-0.2,0-0.3-0.1c-0.1-0.1-0.2-0.1-0.3-0.2
				c-0.1-0.1-0.3-0.1-0.4-0.2c-0.2-0.1-0.4-0.1-0.6-0.1c-0.3,0-0.6,0.1-0.8,0.2c-0.2,0.1-0.4,0.3-0.6,0.5c-0.1,0.2-0.3,0.4-0.3,0.7
				s-0.1,0.6-0.1,1s0,0.7,0.1,1s0.2,0.5,0.3,0.7c0.2,0.2,0.3,0.3,0.5,0.5c0.2,0.1,0.5,0.2,0.7,0.2c0.3,0,0.5,0,0.7-0.1
				s0.3-0.1,0.4-0.2s0.2-0.2,0.3-0.2c0.1-0.1,0.2-0.1,0.3-0.1c0.1,0,0.2,0.1,0.3,0.2l0.5,0.6c-0.2,0.2-0.4,0.4-0.6,0.6
				c-0.2,0.1-0.4,0.3-0.7,0.4c-0.2,0.1-0.5,0.2-0.7,0.2c-0.3,0-0.5,0.1-0.7,0.1c-0.4,0-0.8-0.1-1.2-0.2c-0.4-0.2-0.7-0.4-1-0.7
				c-0.3-0.3-0.5-0.7-0.7-1.1c-0.2-0.5-0.3-1-0.3-1.5s0.1-1,0.2-1.4s0.4-0.8,0.7-1.1s0.6-0.6,1.1-0.8c0.4-0.2,0.9-0.3,1.5-0.3
				c0.5,0,1,0.1,1.4,0.3s0.8,0.4,1.1,0.7L257.7,251.8z"/>
			<path class="st1" d="M259.3,257.3v-7h1c0.2,0,0.3,0,0.4,0.1s0.1,0.2,0.1,0.3l0.1,0.9c0.3-0.4,0.5-0.8,0.9-1
				c0.3-0.3,0.7-0.4,1.1-0.4c0.3,0,0.6,0.1,0.9,0.2l-0.2,1.3c0,0.1,0,0.1-0.1,0.2s-0.1,0.1-0.2,0.1s-0.2,0-0.3,0s-0.3,0-0.5,0
				c-0.4,0-0.7,0.1-0.9,0.3c-0.3,0.2-0.5,0.5-0.6,0.9v4.4h-1.7V257.3z"/>
			<path class="st1" d="M267.9,250.2c0.5,0,1,0.1,1.4,0.3s0.8,0.4,1.1,0.7s0.5,0.7,0.7,1.1c0.2,0.4,0.2,0.9,0.2,1.5
				s-0.1,1.1-0.2,1.5s-0.4,0.8-0.7,1.1s-0.7,0.6-1.1,0.7s-0.9,0.3-1.4,0.3s-1-0.1-1.4-0.3c-0.4-0.2-0.8-0.4-1.1-0.7
				c-0.3-0.3-0.5-0.7-0.7-1.1s-0.2-1-0.2-1.5c0-0.6,0.1-1.1,0.2-1.5c0.2-0.4,0.4-0.8,0.7-1.1c0.3-0.3,0.7-0.6,1.1-0.7
				C266.9,250.3,267.4,250.2,267.9,250.2z M270.3,249.3h-1.1c-0.1,0-0.3,0-0.3-0.1l-0.7-0.7c0,0,0,0-0.1-0.1c0,0,0,0-0.1-0.1
				c0,0,0,0.1-0.1,0.1c0,0,0,0-0.1,0.1l-0.7,0.7l-0.1,0.1c-0.1,0-0.1,0-0.2,0h-1.2l1.6-1.9h1.6L270.3,249.3z M267.9,256.1
				c0.6,0,1-0.2,1.3-0.6s0.4-1,0.4-1.7c0-0.8-0.1-1.3-0.4-1.7s-0.7-0.6-1.3-0.6c-0.6,0-1,0.2-1.3,0.6c-0.3,0.4-0.4,1-0.4,1.7
				s0.1,1.3,0.4,1.7S267.3,256.1,267.9,256.1z"/>
			<path class="st1" d="M272.7,257.3v-7h1c0.2,0,0.4,0.1,0.4,0.3l0.1,0.6c0.1-0.1,0.3-0.3,0.4-0.4c0.2-0.1,0.3-0.2,0.5-0.3
				s0.4-0.2,0.6-0.2s0.4-0.1,0.7-0.1c0.4,0,0.7,0.1,1,0.2c0.3,0.1,0.5,0.3,0.7,0.5s0.3,0.5,0.5,0.8c0.1,0.3,0.2,0.7,0.2,1.1v4.5
				h-1.7v-4.5c0-0.4-0.1-0.8-0.3-1c-0.2-0.2-0.5-0.4-0.9-0.4c-0.3,0-0.6,0.1-0.8,0.2s-0.5,0.3-0.7,0.5v5.1h-1.7V257.3z"/>
			<path class="st1" d="M282.6,248.2c0,0.1,0,0.3-0.1,0.4s-0.1,0.2-0.2,0.3s-0.2,0.2-0.3,0.2c-0.1,0.1-0.3,0.1-0.4,0.1
				s-0.3,0-0.4-0.1s-0.2-0.1-0.3-0.2c-0.1-0.1-0.2-0.2-0.2-0.3c-0.1-0.1-0.1-0.3-0.1-0.4c0-0.2,0-0.3,0.1-0.4
				c0.1-0.1,0.1-0.2,0.2-0.3s0.2-0.2,0.3-0.2c0.1-0.1,0.3-0.1,0.4-0.1c0.2,0,0.3,0,0.4,0.1s0.2,0.1,0.3,0.2c0.1,0.1,0.2,0.2,0.2,0.3
				C282.5,247.9,282.6,248.1,282.6,248.2z M282.3,250.3v7h-1.7v-7L282.3,250.3L282.3,250.3z"/>
			<path class="st1" d="M289.2,251.8c-0.1,0.1-0.1,0.1-0.1,0.2c0,0-0.1,0.1-0.2,0.1s-0.2,0-0.3-0.1c-0.1-0.1-0.2-0.1-0.3-0.2
				s-0.2-0.1-0.4-0.2s-0.4-0.1-0.6-0.1c-0.3,0-0.6,0.1-0.8,0.2c-0.2,0.1-0.4,0.3-0.6,0.5s-0.3,0.4-0.3,0.7s-0.1,0.6-0.1,1
				s0,0.7,0.1,1s0.2,0.5,0.3,0.7c0.2,0.2,0.3,0.3,0.5,0.5c0.2,0.1,0.5,0.2,0.7,0.2c0.3,0,0.5,0,0.7-0.1s0.3-0.1,0.4-0.2
				s0.2-0.2,0.3-0.2s0.2-0.1,0.3-0.1c0.1,0,0.2,0.1,0.3,0.2l0.5,0.6c-0.2,0.2-0.4,0.4-0.6,0.6c-0.2,0.1-0.4,0.3-0.7,0.4
				c-0.2,0.1-0.5,0.2-0.7,0.2c-0.3,0-0.5,0.1-0.7,0.1c-0.4,0-0.8-0.1-1.2-0.2c-0.4-0.2-0.7-0.4-1-0.7c-0.3-0.3-0.5-0.7-0.7-1.1
				c-0.2-0.5-0.2-1-0.2-1.5s0.1-1,0.2-1.4s0.4-0.8,0.7-1.1c0.3-0.3,0.6-0.6,1.1-0.8c0.4-0.2,0.9-0.3,1.5-0.3c0.5,0,1,0.1,1.4,0.3
				s0.8,0.4,1.1,0.7L289.2,251.8z"/>
			<path class="st1" d="M293.8,250.2c0.5,0,1,0.1,1.4,0.3s0.8,0.4,1.1,0.7s0.5,0.7,0.7,1.1c0.2,0.4,0.2,0.9,0.2,1.5
				s-0.1,1.1-0.2,1.5s-0.4,0.8-0.7,1.1s-0.7,0.6-1.1,0.7s-0.9,0.3-1.4,0.3s-1-0.1-1.4-0.3c-0.4-0.2-0.8-0.4-1.1-0.7
				c-0.3-0.3-0.5-0.7-0.7-1.1s-0.2-1-0.2-1.5c0-0.6,0.1-1.1,0.2-1.5c0.2-0.4,0.4-0.8,0.7-1.1c0.3-0.3,0.7-0.6,1.1-0.7
				C292.8,250.3,293.3,250.2,293.8,250.2z M293.8,256.1c0.6,0,1-0.2,1.3-0.6s0.4-1,0.4-1.7c0-0.8-0.1-1.3-0.4-1.7s-0.7-0.6-1.3-0.6
				c-0.6,0-1,0.2-1.3,0.6c-0.3,0.4-0.4,1-0.4,1.7s0.1,1.3,0.4,1.7C292.7,255.9,293.2,256.1,293.8,256.1z"/>
			<path class="st1" d="M302.8,251.7c0,0.1-0.1,0.1-0.1,0.2c-0.1,0-0.1,0-0.2,0s-0.2,0-0.3-0.1c-0.1,0-0.2-0.1-0.3-0.2
				c-0.1-0.1-0.3-0.1-0.4-0.2c-0.2,0-0.3-0.1-0.6-0.1c-0.3,0-0.6,0.1-0.8,0.2c-0.2,0.1-0.3,0.3-0.3,0.6c0,0.2,0,0.3,0.1,0.4
				c0.1,0.1,0.2,0.2,0.4,0.3c0.2,0.1,0.3,0.1,0.6,0.2c0.2,0.1,0.4,0.1,0.6,0.2s0.4,0.2,0.6,0.3s0.4,0.2,0.6,0.4
				c0.2,0.1,0.3,0.3,0.4,0.5s0.1,0.4,0.1,0.7s-0.1,0.7-0.2,0.9c-0.1,0.3-0.3,0.5-0.5,0.7s-0.5,0.4-0.9,0.5s-0.8,0.2-1.2,0.2
				c-0.2,0-0.5,0-0.7-0.1c-0.2,0-0.5-0.1-0.7-0.2s-0.4-0.2-0.6-0.3s-0.3-0.2-0.5-0.3l0.4-0.6c0.1-0.1,0.1-0.1,0.2-0.2
				c0.1,0,0.2-0.1,0.3-0.1s0.2,0,0.3,0.1c0.1,0.1,0.2,0.1,0.3,0.2c0.1,0.1,0.3,0.1,0.4,0.2s0.4,0.1,0.6,0.1s0.4,0,0.5-0.1
				c0.1,0,0.3-0.1,0.4-0.2c0.1-0.1,0.2-0.2,0.2-0.3s0.1-0.2,0.1-0.3c0-0.2,0-0.3-0.1-0.4c-0.1-0.1-0.2-0.2-0.4-0.3
				c-0.2-0.1-0.3-0.1-0.6-0.2s-0.4-0.1-0.6-0.2c-0.2-0.1-0.4-0.2-0.6-0.3s-0.4-0.2-0.6-0.4s-0.3-0.3-0.4-0.6s-0.1-0.5-0.1-0.8
				s0.1-0.6,0.2-0.8s0.3-0.5,0.5-0.7s0.5-0.3,0.8-0.5c0.3-0.1,0.7-0.2,1.1-0.2c0.5,0,0.9,0.1,1.3,0.2c0.4,0.2,0.7,0.4,1,0.6
				L302.8,251.7z"/>
		</g>
		<circle class="st0" cx="382.7" cy="253.7" r="31.6"/>
		<g>
			<g transform="matrix( 0.1786346435546875, 0, 0, 0.1785736083984375, 14,26.5) ">
				<g>
					<g id="Layer1_0_MEMBER_0_FILL_20_">
						<path class="st2" d="M2059.7,1191.3c4.2-4.2,6.3-9.3,6.3-15.3s-2.1-11.1-6.3-15.3c-4.2-4.2-9.3-6.4-15.3-6.4
							c-6,0-11.1,2.1-15.3,6.4c-4.2,4.2-6.3,9.3-6.3,15.3s2.1,11.1,6.3,15.3c4.2,4.2,9.3,6.3,15.3,6.3
							C2050.4,1197.6,2055.5,1195.5,2059.7,1191.3z"/>
					</g>
				</g>
			</g>
			<g transform="matrix( 0.1786346435546875, 0, 0, 0.1785736083984375, 14,26.5) ">
				<g>
					<g id="Layer1_0_MEMBER_1_FILL_14_">
						<path class="st2" d="M2108.2,1305v0.3c2.4,6.5,3.8,13.3,4.1,20.4l8,40c0.6,2.8,2,5.2,4.3,7c2.2,1.8,4.8,2.7,7.6,2.7
							c0.9,0,1.6-0.1,2.4-0.2c3.3-0.7,5.8-2.4,7.7-5.2c1.9-2.8,2.5-5.8,1.8-9.1l-14.1-70.4c-0.6-2.8-2-5.1-4.2-7
							c-2.2-1.8-4.8-2.8-7.7-2.8h-25.8C2099.4,1287.7,2104.7,1295.7,2108.2,1305L2108.2,1305z"/>
					</g>
				</g>
			</g>
			<g transform="matrix( 0.1786346435546875, 0, 0, 0.1785736083984375, 14,26.5) ">
				<g>
					<g id="Layer1_0_MEMBER_2_FILL_11_">
						<path class="st2" d="M2067.5,1292c-3.2-1.9-6.6-3.4-10.2-4.4c-3.7-1-7.5-1.6-11.4-1.6c-1.1,0-2.2,0-3.3,0.1
							c-4.3,0.3-8.4,1.3-12.3,2.9c0.8,4.6,3,8.4,6.6,11.4s7.7,4.5,12.4,4.5c0.5,0,1,0,1.5-0.1h0.1c0.8,0.1,1.3,0.1,1.7,0.1h28.5
							C2077.6,1299.6,2073.1,1295.3,2067.5,1292z"/>
					</g>
				</g>
			</g>
			<g transform="matrix( 0.1786346435546875, 0, 0, 0.1785736083984375, 14,26.5) ">
				<g>
					<g id="Layer1_0_MEMBER_3_FILL_3_">
						<path class="st2" d="M2063.7,1221.9c-0.4-5.3-2.7-9.7-6.7-13.2c-4.1-3.5-8.8-5-14.1-4.6c-5.3,0.4-9.7,2.7-13.2,6.7
							c-3.5,4.1-5,8.8-4.6,14.1l3.1,39.2c4.6-1.3,9.4-2,14.2-2.3c1-0.1,2.2-0.1,3.5-0.1c7.3,0,14.3,1.2,21.2,3.5
							c5,1.7,9.6,3.9,14.1,6.7h34.6c2.3,0,4.3-0.8,6-2.5s2.5-3.7,2.5-6s-0.8-4.3-2.5-6s-3.7-2.5-6-2.5h-49.5L2063.7,1221.9z"/>
					</g>
				</g>
			</g>
			<g transform="matrix( 0.1786346435546875, 0, 0, 0.1785736083984375, 14,26.5) ">
				<g>
					<g id="Layer1_0_MEMBER_4_FILL">
						<path class="st2" d="M2070.9,1272c-1.2-0.5-2.3-1-3.4-1.4c-6.9-2.6-14.1-3.9-21.6-3.9c-0.7,0-1.7,0-3,0.1
							c-4.9,0.2-9.7,1-14.3,2.4c-13,3.8-23.5,11.1-31.8,21.9c-8.4,11-12.6,23.5-12.6,37.3c0,8.4,1.6,16.4,4.9,24
							c3.1,7.4,7.5,13.9,13.2,19.6s12.2,10.1,19.6,13.2c7.6,3.2,15.6,4.9,24,4.9c8.4,0,16.3-1.6,24-4.9c7.4-3.1,13.9-7.5,19.6-13.2
							c5.7-5.7,10.1-12.2,13.2-19.6c3.2-7.6,4.9-15.6,4.9-24c0-8.1-1.5-15.9-4.6-23.4c-1.9-4.7-4.4-9.1-7.5-13.2
							c-3-4.1-6.5-7.7-10.4-11C2080.7,1277.2,2076,1274.2,2070.9,1272 M2078.9,1294.7c3.1,3.1,5.7,6.5,7.9,10.2
							c2,3.5,3.5,7.2,4.6,11.1c1.1,4,1.6,8.1,1.6,12.3c0,6.4-1.2,12.5-3.7,18.4c-2.4,5.6-5.8,10.6-10.1,15c-4.4,4.4-9.3,7.7-15,10.1
							c-5.8,2.5-11.9,3.7-18.3,3.7c-6.4,0-12.5-1.2-18.3-3.7c-5.6-2.4-10.6-5.8-15-10.1c-4.4-4.4-7.7-9.4-10.1-15
							c-2.5-5.8-3.7-12-3.7-18.4c0-10,2.9-19.1,8.7-27.3c5.7-8,13.1-13.7,22.3-17c5.2-1.9,10.6-2.8,16.1-2.8c1.1,0,2.2,0,3.2,0.1
							c6.9,0.4,13.3,2.4,19.4,5.7C2072.4,1289.1,2075.8,1291.7,2078.9,1294.7z"/>
					</g>
				</g>
			</g>
		</g>
	</g>
	<g>
		<path class="st0" d="M358.2,91.3h-202c-8.2,0-14.9-6.7-14.9-14.9l0,0c0-8.2,6.7-14.9,14.9-14.9h202c8.2,0,14.9,6.7,14.9,14.9l0,0
			C373.1,84.5,366.4,91.3,358.2,91.3z"/>
		<g>
			<path class="st1" d="M236.7,80h-1.9V70h1.9V80z"/>
			<path class="st1" d="M243.8,80c-0.2,0-0.4-0.1-0.4-0.3l-0.1-0.7c-0.1,0.2-0.3,0.3-0.5,0.4s-0.3,0.2-0.5,0.3
				c-0.2,0.1-0.4,0.2-0.6,0.2c-0.2,0.1-0.4,0.1-0.7,0.1c-0.4,0-0.7-0.1-1.1-0.2s-0.6-0.4-0.8-0.7c-0.2-0.3-0.4-0.7-0.5-1.1
				s-0.2-1-0.2-1.5s0.1-1,0.2-1.5c0.1-0.4,0.3-0.8,0.6-1.2c0.3-0.3,0.6-0.6,1-0.8c0.4-0.2,0.8-0.3,1.2-0.3s0.7,0.1,1,0.2
				s0.5,0.3,0.7,0.5v-3.7h1.7V80H243.8z M241.6,78.7c0.4,0,0.7-0.1,0.9-0.2s0.5-0.4,0.7-0.6v-3.2c-0.2-0.2-0.4-0.4-0.6-0.5
				s-0.5-0.1-0.7-0.1c-0.3,0-0.5,0-0.7,0.1s-0.4,0.2-0.5,0.4c-0.1,0.2-0.3,0.4-0.3,0.7c-0.1,0.3-0.1,0.7-0.1,1.1s0,0.8,0.1,1
				c0.1,0.3,0.2,0.5,0.3,0.7s0.3,0.3,0.5,0.4C241.1,78.7,241.3,78.7,241.6,78.7z"/>
			<path class="st1" d="M249.7,72.8c0.5,0,1,0.1,1.4,0.3c0.4,0.2,0.8,0.4,1.1,0.7c0.3,0.3,0.5,0.7,0.7,1.1s0.2,0.9,0.2,1.5
				s-0.1,1.1-0.2,1.5c-0.2,0.4-0.4,0.8-0.7,1.1c-0.3,0.3-0.7,0.6-1.1,0.7c-0.4,0.2-0.9,0.3-1.4,0.3s-1-0.1-1.4-0.3
				c-0.4-0.2-0.8-0.4-1.1-0.7c-0.3-0.3-0.5-0.7-0.7-1.1s-0.3-1-0.3-1.5c0-0.6,0.1-1.1,0.3-1.5s0.4-0.8,0.7-1.1
				c0.3-0.3,0.7-0.6,1.1-0.7C248.7,72.9,249.2,72.8,249.7,72.8z M249.7,78.8c0.6,0,1-0.2,1.3-0.6s0.4-1,0.4-1.7
				c0-0.8-0.1-1.3-0.4-1.7s-0.7-0.6-1.3-0.6s-1,0.2-1.3,0.6s-0.4,1-0.4,1.7s0.1,1.3,0.4,1.7C248.7,78.6,249.1,78.8,249.7,78.8z"/>
			<path class="st1" d="M258.7,74.3c0,0.1-0.1,0.1-0.1,0.2s-0.1,0-0.2,0s-0.2,0-0.3-0.1c-0.1,0-0.2-0.1-0.3-0.2
				c-0.1-0.1-0.3-0.1-0.4-0.2c-0.2,0-0.3-0.1-0.6-0.1c-0.3,0-0.6,0.1-0.8,0.2c-0.2,0.1-0.3,0.3-0.3,0.6c0,0.2,0,0.3,0.1,0.4
				s0.2,0.2,0.4,0.3c0.2,0.1,0.3,0.1,0.6,0.2c0.2,0.1,0.4,0.1,0.6,0.2s0.4,0.2,0.6,0.3s0.4,0.2,0.6,0.4c0.2,0.1,0.3,0.3,0.4,0.5
				s0.1,0.4,0.1,0.7c0,0.3-0.1,0.7-0.2,0.9c-0.1,0.3-0.3,0.5-0.5,0.7s-0.5,0.4-0.9,0.5s-0.8,0.2-1.2,0.2c-0.2,0-0.5,0-0.7-0.1
				c-0.2,0-0.5-0.1-0.7-0.2s-0.4-0.2-0.6-0.3c-0.2-0.1-0.3-0.2-0.5-0.3l0.4-0.6c0-0.1,0.1-0.1,0.2-0.2c0.1,0,0.2-0.1,0.3-0.1
				s0.2,0,0.3,0.1s0.2,0.1,0.3,0.2s0.3,0.1,0.4,0.2s0.4,0.1,0.6,0.1s0.4,0,0.5-0.1c0.1,0,0.3-0.1,0.4-0.2s0.2-0.2,0.2-0.3
				c0-0.1,0.1-0.2,0.1-0.3c0-0.2,0-0.3-0.1-0.4s-0.2-0.2-0.4-0.3c-0.2-0.1-0.3-0.1-0.6-0.2c-0.2-0.1-0.4-0.1-0.6-0.2
				c-0.2-0.1-0.4-0.2-0.6-0.3c-0.2-0.1-0.4-0.2-0.6-0.4c-0.2-0.2-0.3-0.3-0.4-0.6c-0.1-0.2-0.1-0.5-0.1-0.8s0.1-0.6,0.2-0.8
				s0.3-0.5,0.5-0.7s0.5-0.4,0.8-0.5s0.7-0.2,1.1-0.2c0.5,0,0.9,0.1,1.3,0.2c0.4,0.2,0.7,0.4,1,0.6L258.7,74.3z"/>
			<path class="st1" d="M263.5,72.8c0.5,0,1,0.1,1.4,0.3c0.4,0.2,0.8,0.4,1.1,0.7c0.3,0.3,0.5,0.7,0.7,1.1s0.2,0.9,0.2,1.5
				s-0.1,1.1-0.2,1.5s-0.4,0.8-0.7,1.1c-0.3,0.3-0.7,0.6-1.1,0.7c-0.4,0.2-0.9,0.3-1.4,0.3s-1-0.1-1.4-0.3c-0.4-0.2-0.8-0.4-1.1-0.7
				c-0.3-0.3-0.5-0.7-0.7-1.1s-0.2-1-0.2-1.5c0-0.6,0.1-1.1,0.2-1.5c0.2-0.4,0.4-0.8,0.7-1.1c0.3-0.3,0.7-0.6,1.1-0.7
				C262.5,72.9,263,72.8,263.5,72.8z M263.5,78.8c0.6,0,1-0.2,1.3-0.6s0.4-1,0.4-1.7c0-0.8-0.1-1.3-0.4-1.7s-0.7-0.6-1.3-0.6
				c-0.6,0-1,0.2-1.3,0.6s-0.4,1-0.4,1.7s0.1,1.3,0.4,1.7S262.9,78.8,263.5,78.8z"/>
		</g>
		<circle class="st0" cx="382.7" cy="76.3" r="31.6"/>
		<g>
			<g transform="matrix( 0.1879730224609375, 0, 0, 0.187957763671875, 10.65,23.85) ">
				<g>
					<g id="Layer1_0_MEMBER_0_FILL_22_">
						<path class="st2" d="M2029.2,288.1c-1.4,2.3-2.1,5-2.1,8v88.4c0,1.8,0.6,3.3,1.9,4.6c1.3,1.3,2.9,2,4.7,2
							c1.8,0,3.3-0.6,4.6-1.9c1.3-1.3,2-2.9,2-4.7v-88.4c0-0.8,0.3-1.5,0.9-2s1.2-0.8,1.9-0.8c0.8,0,1.5,0.3,2,0.8s0.8,1.2,0.8,2
							c0,1.8,0.6,3.3,1.9,4.6c1.3,1.3,2.9,2,4.7,2s3.3-0.6,4.6-1.9s2-2.9,2-4.7c-0.2-3.3-1.3-6.3-3.1-8.9s-4.2-4.5-7-5.7l0,0
							c-2,2.3-4.4,4-7.2,5.2c-2.8,1.2-5.9,1.8-9.1,1.6L2029.2,288.1z"/>
					</g>
				</g>
			</g>
			<g transform="matrix( 0.1879730224609375, 0, 0, 0.187957763671875, 10.65,23.85) ">
				<g>
					<g id="Layer1_0_MEMBER_1_FILL_16_">
						<path class="st2" d="M1996,221.8l-1.6-1.4c-4.9-4.2-10.3-7.7-16.3-10.4c-5.8-2.7-12-4.6-18.4-5.6l-27.6-4.2
							c-2.7-0.4-5.3,0.1-7.7,1.3c-2.4,1.2-4.3,3-5.7,5.3l-13.4,24.3c-1.8,3.2-2.1,6.5-1.2,9.9c1,3.4,3,6,6.1,7.8
							c3.2,1.8,6.5,2.1,9.9,1.2c3.4-1,6-3,7.8-6.1l9.2-16.5l13.7,2.1l-29.2,39.4c-2,2.7-3.1,5.7-3.2,9.1c-0.1,3.3,0.8,6.4,2.7,9.1
							l28.3,41.5v47.2c0,4.3,1.5,8,4.6,11.1c3,3,6.7,4.5,11,4.5s8-1.5,11.1-4.6c3-3,4.5-6.7,4.5-11v-52.1c0-3.2-0.9-6.1-2.8-8.7
							l-14.4-21c0.5-0.5,0.8-0.9,0.9-1.2L1991,260l6.6,12.7c1.1,2,2.6,3.7,4.6,4.9c2,1.3,4.2,1.9,6.5,1.9l25.2,1.2
							c3.5,0,6.4-1.2,9-3.6s3.9-5.4,4-8.9c0.1-3.6-1-6.7-3.4-9.3c-2.4-2.7-5.5-4-9.1-4.1l-16.8-0.7l-7.8-14.8
							C2005.9,232,2001.3,226.3,1996,221.8z"/>
					</g>
				</g>
			</g>
			<g transform="matrix( 0.1879730224609375, 0, 0, 0.187957763671875, 10.65,23.85) ">
				<g>
					<g id="Layer1_0_MEMBER_2_FILL_13_">
						<path class="st2" d="M2034.8,174.9c-5.2-5.2-11.5-7.8-18.8-7.8c-7.4,0-13.6,2.6-18.8,7.8c-5.2,5.2-7.8,11.5-7.8,18.8
							c0,7.3,2.6,13.6,7.8,18.8c5.2,5.2,11.5,7.8,18.8,7.8c7.4,0,13.6-2.6,18.8-7.8c5.2-5.2,7.8-11.5,7.8-18.8
							C2042.6,186.4,2040.1,180.1,2034.8,174.9z"/>
					</g>
				</g>
			</g>
		</g>
	</g>
</g>
</svg>
