<?xml version="1.0" encoding="utf-8"?>
<!-- Generator: Adobe Illustrator 24.3.0, SVG Export Plug-In . SVG Version: 6.00 Build 0)  -->
<svg version="1.1" id="Camada_1" xmlns="http://www.w3.org/2000/svg" xmlns:xlink="http://www.w3.org/1999/xlink" x="0px" y="0px"
	 viewBox="0 0 381.7 290" style="enable-background:new 0 0 381.7 290;" xml:space="preserve">
<style type="text/css">
	.st0{fill:#0C486C;}
	.st1{opacity:0.95;fill:#C9EE95;enable-background:new    ;}
	.st2{fill:#6FB590;}
</style>
<g id="QD">
</g>
<g>
	<path class="st0" d="M138.8,28.5l11.6,16.7c43.8-16.6,95-2,122.9,38.3c32.8,47.4,20.9,112.5-26.5,145.2s-112.5,20.9-145.2-26.5
		c-27.9-40.3-23.5-93.3,7.6-128.5L97.5,57C57.5,98.8,51,164.1,85.1,213.5c39,56.5,116.4,70.6,172.9,31.6s70.6-116.4,31.6-172.9
		C255.4,22.8,191.9,5.8,138.8,28.5z"/>
	<polygon class="st0" points="116.3,49.7 112.8,81.6 85.2,57.6 	"/>
</g>
<path class="st1" d="M238.1,56.3H138c-6.6,0-12-5.4-12-12V23.7c0-6.6,5.4-12,12-12h100.1c6.6,0,12,5.4,12,12v20.6
	C250.1,50.9,244.7,56.3,238.1,56.3z"/>
<path class="st1" d="M238.1,278.3H138c-6.6,0-12-5.4-12-12v-20.6c0-6.6,5.4-12,12-12h100.1c6.6,0,12,5.4,12,12v20.6
	C250.1,272.9,244.7,278.3,238.1,278.3z"/>
<path class="st1" d="M354.1,139.1H254c-6.6,0-12-5.4-12-12v-20.6c0-6.6,5.4-12,12-12h100.1c6.6,0,12,5.4,12,12v20.6
	C366.1,133.7,360.7,139.1,354.1,139.1z"/>
<path class="st1" d="M344.1,207.6H244c-6.6,0-12-5.4-12-12V175c0-6.6,5.4-12,12-12h100.1c6.6,0,12,5.4,12,12v20.6
	C356.1,202.2,350.7,207.6,344.1,207.6z"/>
<path class="st1" d="M127.7,139.1H27.6c-6.6,0-12-5.4-12-12v-20.6c0-6.6,5.4-12,12-12h100.1c6.6,0,12,5.4,12,12v20.6
	C139.7,133.7,134.3,139.1,127.7,139.1z"/>
<path class="st2" d="M127.7,207.6H27.6c-6.6,0-12-5.4-12-12V175c0-6.6,5.4-12,12-12h100.1c6.6,0,12,5.4,12,12v20.6
	C139.7,202.2,134.3,207.6,127.7,207.6z"/>
<g>
	<path class="st0" d="M136.3,25.2c0,0.1-0.1,0.1-0.2,0.2s-0.1,0.1-0.2,0.1s-0.2,0-0.3-0.1s-0.2-0.1-0.4-0.2
		c-0.1-0.1-0.3-0.1-0.5-0.2s-0.4-0.1-0.6-0.1c-0.2,0-0.4,0-0.6,0.1c-0.2,0.1-0.3,0.1-0.4,0.2c-0.1,0.1-0.2,0.2-0.3,0.3
		c-0.1,0.1-0.1,0.3-0.1,0.4c0,0.2,0.1,0.4,0.2,0.5c0.1,0.1,0.3,0.3,0.5,0.3c0.2,0.1,0.4,0.2,0.6,0.3c0.2,0.1,0.5,0.2,0.7,0.2
		s0.5,0.2,0.7,0.3c0.2,0.1,0.5,0.3,0.6,0.4c0.2,0.2,0.3,0.4,0.5,0.6c0.1,0.3,0.2,0.6,0.2,0.9c0,0.4-0.1,0.8-0.2,1.1
		c-0.1,0.3-0.3,0.6-0.6,0.9s-0.6,0.5-0.9,0.6c-0.4,0.1-0.8,0.2-1.3,0.2c-0.3,0-0.5,0-0.8-0.1c-0.3-0.1-0.5-0.1-0.8-0.2
		c-0.2-0.1-0.5-0.2-0.7-0.4c-0.2-0.1-0.4-0.3-0.6-0.5l0.5-0.8c0-0.1,0.1-0.1,0.2-0.1s0.1-0.1,0.2-0.1c0.1,0,0.2,0,0.3,0.1
		s0.3,0.2,0.4,0.3c0.2,0.1,0.3,0.2,0.6,0.3c0.2,0.1,0.5,0.1,0.8,0.1c0.5,0,0.8-0.1,1.1-0.3c0.3-0.2,0.4-0.5,0.4-0.9
		c0-0.2-0.1-0.4-0.2-0.6c-0.1-0.1-0.3-0.3-0.5-0.4s-0.4-0.2-0.6-0.2c-0.2-0.1-0.5-0.1-0.7-0.2s-0.5-0.2-0.7-0.3
		c-0.2-0.1-0.5-0.3-0.6-0.4c-0.2-0.2-0.3-0.4-0.5-0.7c-0.1-0.3-0.2-0.6-0.2-1c0-0.3,0.1-0.6,0.2-0.9c0.1-0.3,0.3-0.6,0.6-0.8
		c0.2-0.2,0.5-0.4,0.9-0.6s0.8-0.2,1.2-0.2c0.5,0,1,0.1,1.4,0.2c0.4,0.2,0.8,0.4,1.1,0.7L136.3,25.2z"/>
	<path class="st0" d="M139.4,26.2v3.9c0,0.4,0.1,0.7,0.3,0.9c0.2,0.2,0.4,0.3,0.8,0.3c0.3,0,0.5-0.1,0.7-0.2s0.4-0.3,0.6-0.5v-4.5
		h1.5v6.2h-0.9c-0.2,0-0.3-0.1-0.4-0.3l-0.1-0.5c-0.1,0.1-0.3,0.2-0.4,0.4c-0.1,0.1-0.3,0.2-0.4,0.3c-0.2,0.1-0.3,0.1-0.5,0.2
		c-0.2,0-0.4,0.1-0.6,0.1c-0.3,0-0.6-0.1-0.9-0.2c-0.3-0.1-0.5-0.3-0.7-0.5s-0.3-0.5-0.4-0.7c-0.1-0.3-0.1-0.6-0.1-0.9v-3.9
		L139.4,26.2L139.4,26.2z"/>
	<path class="st0" d="M148.5,27.4c0,0.1-0.1,0.1-0.1,0.1s-0.1,0-0.2,0c-0.1,0-0.1,0-0.2-0.1s-0.2-0.1-0.3-0.1s-0.2-0.1-0.4-0.1
		c-0.1,0-0.3-0.1-0.5-0.1c-0.3,0-0.5,0.1-0.7,0.2s-0.3,0.3-0.3,0.5c0,0.1,0,0.2,0.1,0.3s0.2,0.2,0.3,0.2c0.1,0.1,0.3,0.1,0.5,0.2
		s0.4,0.1,0.6,0.2s0.4,0.1,0.6,0.2s0.3,0.2,0.5,0.3s0.3,0.3,0.3,0.5c0.1,0.2,0.1,0.4,0.1,0.6c0,0.3-0.1,0.6-0.2,0.8
		s-0.3,0.5-0.5,0.6c-0.2,0.2-0.5,0.3-0.8,0.4s-0.7,0.2-1.1,0.2c-0.2,0-0.4,0-0.6-0.1c-0.2,0-0.4-0.1-0.6-0.2
		c-0.2-0.1-0.4-0.1-0.5-0.2c-0.2-0.1-0.3-0.2-0.4-0.3l0.3-0.6c0-0.1,0.1-0.1,0.2-0.2c0.1,0,0.1-0.1,0.2-0.1c0.1,0,0.2,0,0.3,0.1
		s0.2,0.1,0.3,0.2s0.2,0.1,0.4,0.2c0.1,0.1,0.3,0.1,0.6,0.1c0.2,0,0.3,0,0.5-0.1s0.2-0.1,0.3-0.2s0.1-0.1,0.2-0.2
		c0-0.1,0.1-0.2,0.1-0.3c0-0.1,0-0.3-0.1-0.4s-0.2-0.2-0.3-0.2c-0.1-0.1-0.3-0.1-0.5-0.2s-0.4-0.1-0.6-0.2s-0.4-0.1-0.6-0.2
		c-0.2-0.1-0.3-0.2-0.5-0.3c-0.1-0.1-0.3-0.3-0.3-0.5c-0.1-0.2-0.1-0.4-0.1-0.7c0-0.3,0-0.5,0.1-0.7s0.2-0.4,0.4-0.6
		s0.4-0.3,0.7-0.4s0.6-0.2,1-0.2s0.8,0.1,1.2,0.2c0.3,0.1,0.6,0.3,0.9,0.6L148.5,27.4z"/>
	<path class="st0" d="M150.1,34.3v-8.2h0.9c0.1,0,0.2,0,0.2,0.1c0.1,0,0.1,0.1,0.1,0.2l0.1,0.6c0.2-0.3,0.5-0.5,0.9-0.7
		c0.3-0.2,0.7-0.3,1.1-0.3c0.3,0,0.6,0.1,0.9,0.2c0.3,0.1,0.5,0.3,0.7,0.6c0.2,0.3,0.4,0.6,0.5,1s0.2,0.8,0.2,1.3s-0.1,0.9-0.2,1.3
		c-0.1,0.4-0.3,0.7-0.5,1s-0.5,0.5-0.8,0.7c-0.3,0.2-0.7,0.2-1.1,0.2c-0.3,0-0.6-0.1-0.9-0.2c-0.2-0.1-0.5-0.3-0.7-0.4v2.5h-1.4
		V34.3z M153,27.2c-0.3,0-0.6,0.1-0.8,0.2s-0.4,0.3-0.6,0.5v2.8c0.2,0.2,0.4,0.4,0.5,0.4c0.2,0.1,0.4,0.1,0.6,0.1
		c0.2,0,0.4,0,0.6-0.1c0.2-0.1,0.3-0.2,0.5-0.4s0.2-0.4,0.3-0.7c0.1-0.3,0.1-0.6,0.1-0.9c0-0.4,0-0.7-0.1-0.9s-0.1-0.5-0.2-0.6
		c-0.1-0.2-0.2-0.3-0.4-0.3C153.3,27.2,153.2,27.2,153,27.2z"/>
	<path class="st0" d="M159.4,26.1c0.4,0,0.7,0.1,1.1,0.2c0.3,0.1,0.6,0.3,0.8,0.5s0.4,0.5,0.6,0.9c0.1,0.3,0.2,0.7,0.2,1.2
		c0,0.1,0,0.2,0,0.3c0,0.1,0,0.1-0.1,0.2l-0.1,0.1c0,0-0.1,0-0.2,0h-3.8c0,0.6,0.2,1.1,0.5,1.4s0.7,0.4,1.2,0.4c0.2,0,0.4,0,0.6-0.1
		c0.2-0.1,0.3-0.1,0.5-0.2c0.1-0.1,0.2-0.1,0.3-0.2s0.2-0.1,0.3-0.1s0.1,0,0.2,0s0.1,0.1,0.1,0.1l0.4,0.5c-0.2,0.2-0.3,0.4-0.6,0.5
		c-0.2,0.1-0.4,0.2-0.6,0.3c-0.2,0.1-0.4,0.1-0.7,0.2c-0.2,0-0.5,0-0.7,0c-0.4,0-0.8-0.1-1.2-0.2s-0.7-0.4-1-0.6s-0.5-0.6-0.6-1
		c-0.2-0.4-0.2-0.9-0.2-1.4c0-0.4,0.1-0.8,0.2-1.2c0.1-0.4,0.3-0.7,0.6-1s0.6-0.5,0.9-0.7C158.5,26.1,159,26.1,159.4,26.1z
		 M159.4,27.1c-0.4,0-0.8,0.1-1,0.4c-0.2,0.2-0.4,0.6-0.5,1h2.8c0-0.2,0-0.4-0.1-0.5c-0.1-0.2-0.1-0.3-0.2-0.4s-0.2-0.2-0.4-0.3
		C159.9,27.2,159.7,27.1,159.4,27.1z"/>
	<path class="st0" d="M165.1,24.4c0,0.1,0,0.2-0.1,0.4c-0.1,0.1-0.1,0.2-0.2,0.3c-0.1,0.1-0.2,0.2-0.3,0.2c-0.1,0.1-0.2,0.1-0.4,0.1
		c-0.1,0-0.2,0-0.4-0.1c-0.1,0-0.2-0.1-0.3-0.2s-0.2-0.2-0.2-0.3c-0.1-0.1-0.1-0.2-0.1-0.4c0-0.1,0-0.3,0.1-0.4
		c0-0.1,0.1-0.2,0.2-0.3s0.2-0.2,0.3-0.2s0.2-0.1,0.4-0.1c0.1,0,0.3,0,0.4,0.1c0.1,0.1,0.2,0.1,0.3,0.2s0.2,0.2,0.2,0.3
		C165.1,24.1,165.1,24.2,165.1,24.4z M164.9,26.2v6.2h-1.5v-6.2H164.9z"/>
	<path class="st0" d="M168.6,32.4c-0.5,0-0.9-0.2-1.2-0.5s-0.4-0.7-0.4-1.3v-3.4h-0.6c-0.1,0-0.1,0-0.2-0.1
		c-0.1-0.1-0.1-0.1-0.1-0.2v-0.6l1-0.2l0.3-1.7c0-0.1,0.1-0.1,0.1-0.2s0.1-0.1,0.2-0.1h0.8V26h1.6v1.1h-1.6v3.3c0,0.2,0,0.3,0.1,0.5
		c0.1,0.1,0.2,0.2,0.4,0.2c0.1,0,0.2,0,0.2,0s0.1,0,0.2-0.1c0,0,0.1,0,0.1-0.1h0.1h0.1l0.1,0.1l0.4,0.7c-0.2,0.2-0.5,0.3-0.7,0.4
		C169.1,32.4,168.9,32.4,168.6,32.4z"/>
	<path class="st0" d="M176,32.3h-0.7c-0.1,0-0.2,0-0.3-0.1s-0.1-0.1-0.2-0.3l-0.1-0.4c-0.2,0.1-0.3,0.3-0.5,0.4
		c-0.1,0.1-0.3,0.2-0.5,0.3s-0.3,0.1-0.5,0.2s-0.4,0.1-0.6,0.1c-0.3,0-0.5,0-0.7-0.1s-0.4-0.2-0.6-0.3c-0.2-0.1-0.3-0.3-0.4-0.5
		c-0.1-0.2-0.1-0.5-0.1-0.7s0.1-0.5,0.2-0.7c0.1-0.2,0.3-0.4,0.6-0.6s0.7-0.3,1.1-0.5c0.5-0.1,1.1-0.2,1.8-0.2v-0.4
		c0-0.4-0.1-0.7-0.3-0.9c-0.2-0.2-0.4-0.3-0.8-0.3c-0.2,0-0.4,0-0.6,0.1c-0.2,0.1-0.3,0.1-0.4,0.2c-0.1,0.1-0.2,0.1-0.3,0.2
		s-0.2,0.1-0.3,0.1s-0.2,0-0.3-0.1s-0.1-0.1-0.2-0.2l-0.3-0.5c0.7-0.6,1.6-1,2.6-1c0.4,0,0.7,0.1,1,0.2s0.5,0.3,0.7,0.5
		s0.3,0.5,0.4,0.8s0.2,0.6,0.2,1v3.7C175.9,32.3,176,32.3,176,32.3z M173.1,31.4c0.2,0,0.3,0,0.4,0c0.1,0,0.2-0.1,0.4-0.1
		c0.1-0.1,0.2-0.1,0.3-0.2s0.2-0.2,0.3-0.3v-1c-0.4,0-0.8,0-1.1,0.1s-0.5,0.1-0.7,0.2s-0.3,0.2-0.4,0.3c-0.1,0.1-0.1,0.2-0.1,0.4
		c0,0.3,0.1,0.4,0.2,0.6C172.7,31.3,172.9,31.4,173.1,31.4z"/>
	<path class="st0" d="M178,32.3c0,0.1-0.1,0.2-0.1,0.2c-0.1,0.1-0.1,0.1-0.2,0.2c-0.1,0-0.1,0.1-0.2,0.1c-0.1,0-0.2,0-0.2,0h-0.6
		l3.5-9c0.1-0.2,0.2-0.3,0.3-0.4s0.3-0.1,0.5-0.1h0.6L178,32.3z"/>
	<path class="st0" d="M189.9,28c0,0.6-0.1,1.2-0.3,1.8c-0.2,0.5-0.5,1-0.9,1.4s-0.8,0.7-1.4,0.9c-0.5,0.2-1.1,0.3-1.8,0.3h-3.3v-8.7
		h3.3c0.7,0,1.3,0.1,1.8,0.3s1,0.5,1.4,0.9s0.7,0.8,0.9,1.4C189.8,26.8,189.9,27.3,189.9,28z M188.2,28c0-0.5-0.1-0.9-0.2-1.3
		c-0.1-0.4-0.3-0.7-0.5-1s-0.5-0.5-0.9-0.6c-0.3-0.1-0.7-0.2-1.1-0.2h-1.7V31h1.7c0.4,0,0.8-0.1,1.1-0.2s0.6-0.3,0.9-0.6
		c0.2-0.3,0.4-0.6,0.5-1C188.2,28.9,188.2,28.4,188.2,28z"/>
	<path class="st0" d="M192.9,24.4c0,0.1,0,0.2-0.1,0.4c-0.1,0.1-0.1,0.2-0.2,0.3c-0.1,0.1-0.2,0.2-0.3,0.2c-0.1,0.1-0.2,0.1-0.4,0.1
		c-0.1,0-0.2,0-0.4-0.1c-0.1,0-0.2-0.1-0.3-0.2s-0.2-0.2-0.2-0.3c-0.1-0.1-0.1-0.2-0.1-0.4c0-0.1,0-0.3,0.1-0.4
		c0-0.1,0.1-0.2,0.2-0.3s0.2-0.2,0.3-0.2s0.2-0.1,0.4-0.1c0.1,0,0.3,0,0.4,0.1c0.1,0.1,0.2,0.1,0.3,0.2s0.2,0.2,0.2,0.3
		C192.8,24.1,192.9,24.2,192.9,24.4z M192.7,26.2v6.2h-1.5v-6.2H192.7z"/>
	<path class="st0" d="M199.1,32.3h-0.7c-0.1,0-0.2,0-0.3-0.1S198,32.1,198,32l-0.1-0.4c-0.2,0.1-0.3,0.3-0.5,0.4
		c-0.2,0.1-0.3,0.2-0.5,0.3s-0.3,0.1-0.5,0.2c-0.2,0-0.4,0.1-0.6,0.1c-0.3,0-0.5,0-0.7-0.1s-0.4-0.2-0.6-0.3
		c-0.2-0.1-0.3-0.3-0.4-0.5s-0.1-0.7-0.1-1c0-0.2,0.1-0.5,0.2-0.7c0.1-0.2,0.3-0.4,0.6-0.6s0.7-0.3,1.1-0.5c0.5-0.1,1.1-0.2,1.8-0.2
		v-0.4c0-0.4-0.1-0.7-0.3-0.9s-0.4-0.3-0.8-0.3c-0.2,0-0.4,0-0.6,0.1c-0.2,0.1-0.3,0.1-0.4,0.2c-0.1,0.1-0.2,0.1-0.3,0.2
		s-0.2,0.1-0.3,0.1s-0.2,0-0.3-0.1s-0.1-0.1-0.2-0.2l-0.3-0.5c0.7-0.6,1.6-1,2.6-1c0.4,0,0.7,0.1,1,0.2s0.5,0.3,0.7,0.5
		s0.3,0.5,0.4,0.8c0.1,0.3,0.2,0.6,0.2,1L199.1,32.3L199.1,32.3z M196.3,31.4c0.2,0,0.3,0,0.4,0s0.2-0.1,0.4-0.1
		c0.1-0.1,0.2-0.1,0.3-0.2s0.2-0.2,0.3-0.3v-1c-0.4,0-0.8,0-1.1,0.1s-0.5,0.1-0.7,0.2s-0.3,0.2-0.4,0.3c-0.1,0.1-0.1,0.2-0.1,0.4
		c0,0.3,0.1,0.4,0.2,0.6C195.8,31.3,196,31.4,196.3,31.4z"/>
	<path class="st0" d="M202.7,26c0.3,0,0.5,0,0.7,0.1s0.4,0.1,0.6,0.2h1.8v0.6c0,0.1,0,0.2-0.1,0.2c0,0.1-0.1,0.1-0.2,0.1l-0.6,0.1
		c0,0.1,0.1,0.2,0.1,0.3c0,0.1,0,0.2,0,0.4c0,0.3-0.1,0.6-0.2,0.8c-0.1,0.2-0.3,0.5-0.5,0.6c-0.2,0.2-0.5,0.3-0.8,0.4
		s-0.6,0.1-1,0.1c-0.2,0-0.5,0-0.7-0.1c-0.2,0.1-0.3,0.2-0.3,0.4c0,0.1,0.1,0.2,0.2,0.3c0.1,0.1,0.3,0.1,0.5,0.1s0.4,0,0.6,0
		c0.2,0,0.5,0,0.7,0s0.5,0.1,0.7,0.1s0.4,0.1,0.6,0.2c0.2,0.1,0.3,0.3,0.5,0.4s0.2,0.4,0.2,0.7s-0.1,0.5-0.2,0.8
		c-0.1,0.3-0.3,0.5-0.6,0.7s-0.6,0.4-0.9,0.5s-0.8,0.2-1.3,0.2s-0.9,0-1.2-0.1s-0.6-0.2-0.9-0.4s-0.4-0.3-0.5-0.5s-0.2-0.4-0.2-0.6
		c0-0.3,0.1-0.5,0.3-0.7s0.4-0.4,0.7-0.5c-0.2-0.1-0.3-0.2-0.4-0.3c-0.1-0.1-0.1-0.3-0.1-0.5c0-0.1,0-0.2,0-0.3
		c0-0.1,0.1-0.2,0.1-0.3c0.1-0.1,0.1-0.2,0.2-0.3c0.1-0.1,0.2-0.2,0.4-0.2c-0.3-0.2-0.6-0.4-0.7-0.7c-0.2-0.3-0.3-0.6-0.3-1
		c0-0.3,0.1-0.6,0.2-0.8c0.1-0.2,0.3-0.5,0.5-0.6c0.2-0.2,0.5-0.3,0.8-0.4S202.4,26,202.7,26z M204.4,32.6c0-0.1,0-0.2-0.1-0.3
		s-0.2-0.1-0.3-0.2s-0.3-0.1-0.4-0.1c-0.2,0-0.3,0-0.5,0s-0.4,0-0.6,0s-0.4,0-0.6-0.1c-0.2,0.1-0.3,0.2-0.4,0.3
		c-0.1,0.1-0.2,0.3-0.2,0.4c0,0.1,0,0.2,0.1,0.3s0.1,0.2,0.3,0.2s0.3,0.1,0.5,0.2c0.2,0,0.4,0.1,0.7,0.1s0.5,0,0.7-0.1
		c0.2,0,0.4-0.1,0.5-0.2c0.1-0.1,0.2-0.2,0.3-0.3C204.3,32.8,204.4,32.7,204.4,32.6z M202.7,29.1c0.2,0,0.3,0,0.5-0.1
		c0.1,0,0.2-0.1,0.3-0.2s0.2-0.2,0.2-0.3s0.1-0.3,0.1-0.4c0-0.3-0.1-0.5-0.3-0.7s-0.5-0.3-0.8-0.3c-0.4,0-0.6,0.1-0.8,0.3
		c-0.2,0.2-0.3,0.4-0.3,0.7c0,0.1,0,0.3,0.1,0.4s0.1,0.2,0.2,0.3c0.1,0.1,0.2,0.2,0.3,0.2C202.4,29.1,202.6,29.1,202.7,29.1z"/>
	<path class="st0" d="M206.8,32.3v-6.2h0.9c0.2,0,0.3,0.1,0.4,0.3l0.1,0.5c0.1-0.1,0.3-0.2,0.4-0.3s0.3-0.2,0.4-0.3
		c0.2-0.1,0.3-0.1,0.5-0.2c0.2,0,0.4-0.1,0.6-0.1c0.3,0,0.6,0.1,0.9,0.2c0.3,0.1,0.5,0.3,0.7,0.5s0.3,0.5,0.4,0.7
		c0.1,0.3,0.1,0.6,0.1,0.9v3.9h-1.5v-3.9c0-0.4-0.1-0.7-0.3-0.9s-0.4-0.3-0.8-0.3c-0.3,0-0.5,0.1-0.7,0.2s-0.4,0.3-0.6,0.5v4.5
		C208.3,32.3,206.8,32.3,206.8,32.3z"/>
	<path class="st0" d="M216.3,26.1c0.5,0,0.9,0.1,1.3,0.2s0.7,0.4,1,0.6c0.3,0.3,0.5,0.6,0.6,1s0.2,0.8,0.2,1.3s-0.1,0.9-0.2,1.3
		c-0.1,0.4-0.3,0.7-0.6,1s-0.6,0.5-1,0.6s-0.8,0.2-1.3,0.2s-0.9-0.1-1.3-0.2s-0.7-0.4-1-0.6c-0.3-0.3-0.5-0.6-0.6-1
		s-0.2-0.8-0.2-1.3s0.1-0.9,0.2-1.3c0.1-0.4,0.4-0.7,0.6-1c0.3-0.3,0.6-0.5,1-0.6S215.8,26.1,216.3,26.1z M216.3,31.3
		c0.5,0,0.9-0.2,1.1-0.5c0.2-0.3,0.4-0.8,0.4-1.5s-0.1-1.2-0.4-1.5c-0.2-0.3-0.6-0.5-1.1-0.5s-0.9,0.2-1.2,0.5
		c-0.2,0.3-0.4,0.9-0.4,1.5c0,0.7,0.1,1.2,0.4,1.5C215.4,31.1,215.7,31.3,216.3,31.3z M218.3,23.5l-1.5,1.6
		c-0.1,0.1-0.1,0.1-0.2,0.2s-0.2,0-0.3,0h-0.9l0.9-1.5c0.1-0.1,0.1-0.2,0.2-0.2c0.1-0.1,0.2-0.1,0.4-0.1H218.3z"/>
	<path class="st0" d="M224.1,27.4c0,0.1-0.1,0.1-0.1,0.1s-0.1,0-0.2,0c-0.1,0-0.1,0-0.2-0.1s-0.2-0.1-0.3-0.1s-0.2-0.1-0.4-0.1
		c-0.1,0-0.3-0.1-0.5-0.1c-0.3,0-0.5,0.1-0.7,0.2s-0.3,0.3-0.3,0.5c0,0.1,0,0.2,0.1,0.3s0.2,0.2,0.3,0.2c0.1,0.1,0.3,0.1,0.5,0.2
		s0.4,0.1,0.6,0.2c0.2,0.1,0.4,0.1,0.6,0.2c0.2,0.1,0.3,0.2,0.5,0.3c0.1,0.1,0.3,0.3,0.3,0.5c0.1,0.2,0.1,0.4,0.1,0.6
		c0,0.3-0.1,0.6-0.2,0.8c-0.1,0.2-0.3,0.5-0.5,0.6c-0.2,0.2-0.5,0.3-0.8,0.4c-0.3,0.1-0.7,0.2-1.1,0.2c-0.2,0-0.4,0-0.6-0.1
		c-0.2,0-0.4-0.1-0.6-0.2c-0.2-0.1-0.4-0.1-0.5-0.2c-0.2-0.1-0.3-0.2-0.4-0.3l0.3-0.6c0-0.1,0.1-0.1,0.2-0.2c0.1,0,0.1-0.1,0.2-0.1
		c0.1,0,0.2,0,0.3,0.1s0.2,0.1,0.3,0.2s0.2,0.1,0.4,0.2c0.1,0.1,0.3,0.1,0.6,0.1c0.2,0,0.3,0,0.5-0.1s0.2-0.1,0.3-0.2
		s0.1-0.1,0.2-0.2c0-0.1,0.1-0.2,0.1-0.3c0-0.1,0-0.3-0.1-0.4s-0.2-0.2-0.3-0.2c-0.1-0.1-0.3-0.1-0.5-0.2s-0.4-0.1-0.6-0.2
		c-0.2-0.1-0.4-0.1-0.6-0.2c-0.2-0.1-0.3-0.2-0.5-0.3c-0.1-0.1-0.3-0.3-0.3-0.5c-0.1-0.2-0.1-0.4-0.1-0.7c0-0.3,0-0.5,0.1-0.7
		s0.2-0.4,0.4-0.6s0.4-0.3,0.7-0.4s0.6-0.2,1-0.2s0.8,0.1,1.2,0.2s0.6,0.3,0.9,0.6L224.1,27.4z"/>
	<path class="st0" d="M227.7,32.4c-0.5,0-0.9-0.2-1.2-0.5s-0.4-0.7-0.4-1.3v-3.4h-0.6c-0.1,0-0.1,0-0.2-0.1
		c-0.1-0.1-0.1-0.1-0.1-0.2v-0.6l1-0.2l0.3-1.7c0-0.1,0.1-0.1,0.1-0.2c0.1,0,0.1-0.1,0.2-0.1h0.8V26h1.6v1.1h-1.6v3.3
		c0,0.2,0,0.3,0.1,0.5c0.1,0.1,0.2,0.2,0.4,0.2c0.1,0,0.2,0,0.2,0c0.1,0,0.1,0,0.2-0.1c0,0,0.1,0,0.1-0.1h0.1h0.1l0.1,0.1l0.4,0.7
		c-0.2,0.2-0.5,0.3-0.7,0.4C228.3,32.4,228,32.4,227.7,32.4z"/>
	<path class="st0" d="M232.1,24.4c0,0.1,0,0.2-0.1,0.4c-0.1,0.1-0.1,0.2-0.2,0.3s-0.2,0.2-0.3,0.2c-0.1,0.1-0.2,0.1-0.4,0.1
		c-0.1,0-0.2,0-0.4-0.1c-0.1,0-0.2-0.1-0.3-0.2s-0.2-0.2-0.2-0.3c0-0.1-0.1-0.2-0.1-0.4c0-0.1,0-0.3,0.1-0.4c0-0.1,0.1-0.2,0.2-0.3
		s0.2-0.2,0.3-0.2s0.2-0.1,0.4-0.1c0.1,0,0.3,0,0.4,0.1c0.1,0.1,0.2,0.1,0.3,0.2s0.2,0.2,0.2,0.3C232.1,24.1,232.1,24.2,232.1,24.4z
		 M231.9,26.2v6.2h-1.5v-6.2H231.9z"/>
	<path class="st0" d="M237.9,27.5c0,0.1-0.1,0.1-0.1,0.1s-0.1,0-0.2,0c-0.1,0-0.2,0-0.2-0.1c-0.1,0-0.2-0.1-0.3-0.2
		s-0.2-0.1-0.4-0.2c-0.1,0-0.3-0.1-0.5-0.1c-0.3,0-0.5,0-0.7,0.1s-0.4,0.2-0.5,0.4c-0.1,0.2-0.2,0.4-0.3,0.6s-0.1,0.5-0.1,0.8
		s0,0.6,0.1,0.9s0.2,0.5,0.3,0.6c0.1,0.2,0.3,0.3,0.5,0.4s0.4,0.1,0.6,0.1c0.2,0,0.4,0,0.6-0.1c0.1-0.1,0.3-0.1,0.4-0.2
		c0.1-0.1,0.2-0.1,0.3-0.2s0.2-0.1,0.2-0.1c0.1,0,0.2,0,0.3,0.1l0.4,0.5c-0.2,0.2-0.3,0.4-0.5,0.5s-0.4,0.2-0.6,0.3
		s-0.4,0.1-0.6,0.2c-0.2,0-0.4,0-0.7,0c-0.4,0-0.7-0.1-1.1-0.2s-0.6-0.3-0.9-0.6s-0.4-0.6-0.6-1c-0.1-0.4-0.2-0.8-0.2-1.3
		s0.1-0.9,0.2-1.3c0.1-0.4,0.3-0.7,0.6-1s0.6-0.5,0.9-0.7c0.4-0.2,0.8-0.2,1.3-0.2s0.9,0.1,1.2,0.2s0.7,0.4,0.9,0.6L237.9,27.5z"/>
	<path class="st0" d="M242,26.1c0.5,0,0.9,0.1,1.3,0.2s0.7,0.4,1,0.6c0.3,0.3,0.5,0.6,0.6,1s0.2,0.8,0.2,1.3s-0.1,0.9-0.2,1.3
		s-0.3,0.7-0.6,1s-0.6,0.5-1,0.6s-0.8,0.2-1.3,0.2s-0.9-0.1-1.3-0.2s-0.7-0.4-1-0.6s-0.5-0.6-0.6-1s-0.2-0.8-0.2-1.3
		s0.1-0.9,0.2-1.3c0.1-0.4,0.4-0.7,0.6-1s0.6-0.5,1-0.6S241.5,26.1,242,26.1z M242,31.3c0.5,0,0.9-0.2,1.1-0.5
		c0.2-0.3,0.4-0.8,0.4-1.5s-0.1-1.2-0.4-1.5c-0.2-0.3-0.6-0.5-1.1-0.5s-0.9,0.2-1.2,0.5c-0.2,0.3-0.4,0.9-0.4,1.5
		c0,0.7,0.1,1.2,0.4,1.5C241,31.1,241.4,31.3,242,31.3z"/>
	<path class="st0" d="M161.6,46.7c0,0.1-0.1,0.2-0.1,0.2c-0.1,0.1-0.1,0.1-0.2,0.2c-0.1,0-0.1,0.1-0.2,0.1c-0.1,0-0.2,0-0.2,0h-0.6
		l3.5-9c0.1-0.2,0.2-0.3,0.3-0.4c0.1-0.1,0.3-0.1,0.5-0.1h0.6L161.6,46.7z"/>
	<path class="st0" d="M173.5,42.4c0,0.6-0.1,1.2-0.3,1.8c-0.2,0.5-0.5,1-0.9,1.4s-0.8,0.7-1.4,0.9s-1.1,0.3-1.8,0.3h-3.3V38h3.3
		c0.7,0,1.3,0.1,1.8,0.3s1,0.5,1.4,0.9s0.7,0.8,0.9,1.4C173.4,41.2,173.5,41.7,173.5,42.4z M171.8,42.4c0-0.5-0.1-0.9-0.2-1.3
		c-0.1-0.4-0.3-0.7-0.5-1s-0.5-0.5-0.9-0.6c-0.3-0.1-0.7-0.2-1.1-0.2h-1.7v6.1h1.7c0.4,0,0.8-0.1,1.1-0.2c0.3-0.1,0.6-0.3,0.9-0.6
		c0.2-0.3,0.4-0.6,0.5-1C171.8,43.3,171.8,42.8,171.8,42.4z"/>
	<path class="st0" d="M177.2,40.5c0.4,0,0.7,0.1,1.1,0.2c0.3,0.1,0.6,0.3,0.8,0.5s0.4,0.5,0.6,0.9c0.1,0.3,0.2,0.7,0.2,1.2
		c0,0.1,0,0.2,0,0.3s0,0.1-0.1,0.2l-0.1,0.1c0,0-0.1,0-0.2,0h-3.8c0,0.6,0.2,1.1,0.5,1.4c0.3,0.3,0.7,0.4,1.2,0.4
		c0.2,0,0.4,0,0.6-0.1c0.2-0.1,0.3-0.1,0.5-0.2c0.1-0.1,0.2-0.1,0.3-0.2c0.1-0.1,0.2-0.1,0.3-0.1s0.1,0,0.2,0s0.1,0.1,0.1,0.1
		l0.4,0.5c-0.2,0.2-0.3,0.4-0.6,0.5s-0.4,0.2-0.6,0.3c-0.2,0.1-0.4,0.1-0.7,0.2c-0.2,0-0.5,0-0.7,0c-0.4,0-0.8-0.1-1.2-0.2
		s-0.7-0.4-1-0.6s-0.5-0.6-0.6-1c-0.2-0.4-0.2-0.9-0.2-1.4c0-0.4,0.1-0.8,0.2-1.2c0.1-0.4,0.3-0.7,0.6-1s0.6-0.5,0.9-0.7
		C176.3,40.5,176.7,40.5,177.2,40.5z M177.2,41.5c-0.4,0-0.8,0.1-1,0.4c-0.2,0.2-0.4,0.6-0.5,1h2.8c0-0.2,0-0.4-0.1-0.5
		c-0.1-0.2-0.1-0.3-0.2-0.4s-0.2-0.2-0.4-0.3C177.6,41.6,177.5,41.5,177.2,41.5z"/>
	<path class="st0" d="M183.1,46.8c-0.5,0-0.9-0.2-1.2-0.5s-0.4-0.7-0.4-1.3v-3.4h-0.6c-0.1,0-0.1,0-0.2-0.1
		c-0.1-0.1-0.1-0.1-0.1-0.2v-0.6l1-0.2l0.3-1.7c0-0.1,0.1-0.1,0.1-0.2s0.1-0.1,0.2-0.1h0.8v1.9h1.6v1.1H183V45c0,0.2,0,0.3,0.1,0.5
		c0.1,0.1,0.2,0.2,0.4,0.2c0.1,0,0.2,0,0.2,0s0.1,0,0.2-0.1c0,0,0.1,0,0.1-0.1h0.1h0.1l0.1,0.1l0.4,0.7c-0.2,0.2-0.5,0.3-0.7,0.4
		C183.7,46.8,183.4,46.8,183.1,46.8z"/>
	<path class="st0" d="M188.3,40.5c0.4,0,0.7,0.1,1.1,0.2c0.3,0.1,0.6,0.3,0.8,0.5s0.4,0.5,0.6,0.9s0.2,0.7,0.2,1.2
		c0,0.1,0,0.2,0,0.3s0,0.1-0.1,0.2s-0.1,0.1-0.1,0.1s-0.1,0-0.2,0h-3.8c0,0.6,0.2,1.1,0.5,1.4c0.3,0.3,0.7,0.4,1.2,0.4
		c0.2,0,0.4,0,0.6-0.1c0.2-0.1,0.3-0.1,0.5-0.2c0.1-0.1,0.2-0.1,0.3-0.2c0.1-0.1,0.2-0.1,0.3-0.1s0.1,0,0.2,0s0.1,0.1,0.1,0.1
		l0.4,0.5c-0.2,0.2-0.3,0.4-0.6,0.5s-0.4,0.2-0.6,0.3s-0.4,0.1-0.7,0.2c-0.2,0-0.5,0-0.7,0c-0.4,0-0.8-0.1-1.2-0.2s-0.7-0.4-1-0.6
		s-0.5-0.6-0.6-1c-0.2-0.4-0.2-0.9-0.2-1.4c0-0.4,0.1-0.8,0.2-1.2c0.1-0.4,0.3-0.7,0.6-1s0.6-0.5,0.9-0.7
		C187.4,40.5,187.8,40.5,188.3,40.5z M188.3,41.5c-0.4,0-0.8,0.1-1,0.4c-0.2,0.2-0.4,0.6-0.5,1h2.8c0-0.2,0-0.4-0.1-0.5
		s-0.1-0.3-0.2-0.4c-0.1-0.1-0.2-0.2-0.4-0.3C188.7,41.6,188.5,41.5,188.3,41.5z"/>
	<path class="st0" d="M196.5,41.9c0,0.1-0.1,0.1-0.1,0.1s-0.1,0-0.2,0c-0.1,0-0.2,0-0.2-0.1c-0.1,0-0.2-0.1-0.3-0.2
		s-0.2-0.1-0.4-0.2c-0.1,0-0.3-0.1-0.5-0.1c-0.3,0-0.5,0-0.7,0.1s-0.4,0.2-0.5,0.4s-0.2,0.4-0.3,0.6s-0.1,0.5-0.1,0.8s0,0.6,0.1,0.9
		c0.1,0.3,0.2,0.5,0.3,0.6c0.1,0.2,0.3,0.3,0.5,0.4c0.2,0.1,0.4,0.1,0.6,0.1c0.2,0,0.4,0,0.6-0.1c0.1-0.1,0.3-0.1,0.4-0.2
		s0.2-0.1,0.3-0.2c0.1-0.1,0.2-0.1,0.2-0.1c0.1,0,0.2,0,0.3,0.1l0.4,0.5c-0.2,0.2-0.3,0.4-0.5,0.5s-0.4,0.2-0.6,0.3
		s-0.4,0.1-0.6,0.2c-0.2,0-0.4,0-0.7,0c-0.4,0-0.7-0.1-1.1-0.2s-0.6-0.3-0.9-0.6s-0.4-0.6-0.6-1c-0.1-0.4-0.2-0.8-0.2-1.3
		s0.1-0.9,0.2-1.3c0.1-0.4,0.3-0.7,0.6-1s0.6-0.5,0.9-0.7c0.4-0.2,0.8-0.2,1.3-0.2s0.9,0.1,1.2,0.2s0.7,0.4,0.9,0.6L196.5,41.9z"/>
	<path class="st0" d="M199.5,48.1L199.5,48.1c0.1,0,0.2,0,0.2,0h0.1c0,0,0.1,0,0.2,0c0.1,0,0.2,0,0.3-0.1s0.1-0.1,0.1-0.2
		c0-0.1-0.1-0.2-0.2-0.2c-0.1,0-0.4-0.1-0.7-0.1l0.2-0.8c-0.3-0.1-0.6-0.2-0.9-0.3c-0.3-0.2-0.5-0.4-0.7-0.6
		c-0.2-0.3-0.4-0.6-0.5-0.9c-0.1-0.4-0.2-0.8-0.2-1.2c0-0.5,0.1-0.9,0.2-1.3c0.1-0.4,0.3-0.7,0.6-1s0.6-0.5,0.9-0.7
		c0.4-0.2,0.8-0.2,1.3-0.2s0.9,0.1,1.2,0.2s0.7,0.4,0.9,0.6l-0.4,0.5c0,0.1-0.1,0.1-0.1,0.1s-0.1,0-0.2,0c-0.1,0-0.2,0-0.2-0.1
		c-0.1,0-0.2-0.1-0.3-0.2s-0.2-0.1-0.4-0.2c-0.1,0-0.3-0.1-0.5-0.1c-0.3,0-0.5,0-0.7,0.1s-0.4,0.2-0.5,0.4s-0.2,0.4-0.3,0.6
		s-0.1,0.5-0.1,0.8s0,0.6,0.1,0.9c0.1,0.3,0.2,0.5,0.3,0.6c0.1,0.2,0.3,0.3,0.5,0.4c0.2,0.1,0.4,0.1,0.6,0.1c0.2,0,0.4,0,0.6-0.1
		c0.1-0.1,0.3-0.1,0.4-0.2s0.2-0.1,0.3-0.2c0.1-0.1,0.2-0.1,0.2-0.1c0.1,0,0.2,0,0.3,0.1l0.4,0.5c-0.3,0.3-0.6,0.6-0.9,0.7
		c-0.3,0.1-0.7,0.2-1.1,0.3l-0.1,0.3c0.4,0.1,0.6,0.2,0.8,0.4c0.1,0.1,0.2,0.3,0.2,0.5c0,0.1,0,0.3-0.1,0.4
		c-0.1,0.1-0.2,0.2-0.3,0.3s-0.3,0.1-0.5,0.2c-0.2,0-0.4,0.1-0.6,0.1c-0.2,0-0.3,0-0.5,0c-0.1,0-0.3-0.1-0.4-0.1l0.1-0.5
		C199.3,48.1,199.4,48.1,199.5,48.1z"/>
	<path class="st0" d="M208.4,46.7h-0.7c-0.1,0-0.2,0-0.3-0.1s-0.1-0.1-0.2-0.3l-0.1-0.4c-0.2,0.1-0.3,0.3-0.5,0.4
		c-0.2,0.1-0.3,0.2-0.5,0.3s-0.3,0.1-0.5,0.2c-0.2,0-0.4,0.1-0.6,0.1c-0.3,0-0.5,0-0.7-0.1s-0.4-0.2-0.6-0.3
		c-0.2-0.1-0.3-0.3-0.4-0.5s-0.1-0.5-0.1-0.7s0.1-0.5,0.2-0.7c0.1-0.2,0.3-0.4,0.6-0.6s0.7-0.3,1.1-0.5c0.5-0.1,1.1-0.2,1.8-0.2
		v-0.4c0-0.4-0.1-0.7-0.3-0.9s-0.4-0.3-0.8-0.3c-0.2,0-0.4,0-0.6,0.1c-0.2,0.1-0.3,0.1-0.4,0.2c-0.1,0.1-0.2,0.1-0.3,0.2
		c-0.1,0.1-0.2,0.1-0.3,0.1s-0.2,0-0.3-0.1s-0.1-0.1-0.2-0.2l-0.3-0.5c0.7-0.6,1.6-1,2.6-1c0.4,0,0.7,0.1,1,0.2
		c0.3,0.1,0.5,0.3,0.7,0.5s0.3,0.5,0.4,0.8c0.1,0.3,0.2,0.6,0.2,1v3.7H208.4z M206.7,38.6c0.1,0,0.2,0,0.3-0.1s0.1-0.2,0.1-0.4h0.9
		c0,0.2,0,0.4-0.1,0.6c-0.1,0.2-0.1,0.3-0.3,0.5c-0.1,0.1-0.2,0.2-0.4,0.3c-0.1,0.1-0.3,0.1-0.5,0.1c-0.1,0-0.3,0-0.4-0.1
		c-0.1-0.1-0.2-0.1-0.3-0.2c-0.1-0.1-0.2-0.1-0.3-0.2c-0.1-0.1-0.2-0.1-0.3-0.1s-0.2,0-0.3,0.1s-0.1,0.2-0.1,0.4h-0.9
		c0-0.2,0-0.4,0.1-0.6c0.1-0.2,0.1-0.3,0.3-0.5c0.1-0.1,0.2-0.2,0.4-0.3s0.3-0.1,0.5-0.1c0.1,0,0.3,0,0.4,0.1
		c0.1,0.1,0.2,0.1,0.4,0.2c0.1,0.1,0.2,0.1,0.3,0.2C206.5,38.5,206.6,38.6,206.7,38.6z M205.5,45.8c0.2,0,0.3,0,0.4,0
		s0.2-0.1,0.4-0.1c0.1-0.1,0.2-0.1,0.3-0.2c0.1-0.1,0.2-0.2,0.3-0.3v-1c-0.4,0-0.8,0-1.1,0.1s-0.5,0.1-0.7,0.2
		c-0.2,0.1-0.3,0.2-0.4,0.3c-0.1,0.1-0.1,0.2-0.1,0.4c0,0.3,0.1,0.4,0.2,0.6C205.1,45.7,205.3,45.8,205.5,45.8z"/>
	<path class="st0" d="M212.5,40.5c0.5,0,0.9,0.1,1.3,0.2s0.7,0.4,1,0.6c0.3,0.3,0.5,0.6,0.6,1s0.2,0.8,0.2,1.3s-0.1,0.9-0.2,1.3
		s-0.3,0.7-0.6,1s-0.6,0.5-1,0.6s-0.8,0.2-1.3,0.2s-0.9-0.1-1.3-0.2s-0.7-0.4-1-0.6s-0.5-0.6-0.6-1s-0.2-0.8-0.2-1.3
		s0.1-0.9,0.2-1.3c0.1-0.4,0.4-0.7,0.6-1s0.6-0.5,1-0.6S212,40.5,212.5,40.5z M212.5,45.7c0.5,0,0.9-0.2,1.1-0.5
		c0.2-0.3,0.4-0.8,0.4-1.5s-0.1-1.2-0.4-1.5c-0.2-0.3-0.6-0.5-1.1-0.5s-0.9,0.2-1.2,0.5c-0.2,0.3-0.4,0.9-0.4,1.5
		c0,0.7,0.1,1.2,0.4,1.5C211.6,45.5,212,45.7,212.5,45.7z"/>
</g>
<g>
	<path class="st0" d="M156.2,253c0.1,0,0.2,0,0.2,0.1l0.6,0.7c-0.4,0.4-0.8,0.8-1.3,1s-1.1,0.3-1.9,0.3c-0.6,0-1.2-0.1-1.7-0.3
		s-1-0.5-1.3-0.9c-0.4-0.4-0.6-0.9-0.8-1.4s-0.3-1.1-0.3-1.8s0.1-1.2,0.3-1.8c0.2-0.5,0.5-1,0.9-1.4s0.9-0.7,1.4-0.9
		s1.1-0.3,1.8-0.3c0.6,0,1.2,0.1,1.7,0.3s0.9,0.5,1.2,0.8l-0.5,0.8l-0.1,0.1c0,0-0.1,0.1-0.2,0.1c-0.1,0-0.2,0-0.3-0.1
		s-0.2-0.2-0.4-0.2s-0.3-0.2-0.6-0.2c-0.2-0.1-0.5-0.1-0.9-0.1s-0.8,0.1-1.1,0.2c-0.3,0.1-0.6,0.3-0.9,0.6c-0.2,0.3-0.4,0.6-0.6,1
		c-0.1,0.4-0.2,0.8-0.2,1.3s0.1,0.9,0.2,1.3c0.1,0.4,0.3,0.7,0.6,1c0.2,0.3,0.5,0.5,0.8,0.6s0.7,0.2,1,0.2c0.2,0,0.4,0,0.6,0
		c0.2,0,0.3-0.1,0.5-0.1s0.3-0.1,0.4-0.2c0.1-0.1,0.3-0.2,0.4-0.3l0.1-0.1C156.1,253,156.2,253,156.2,253z"/>
	<path class="st0" d="M160.9,248.8c0.5,0,0.9,0.1,1.3,0.2c0.4,0.1,0.7,0.4,1,0.6c0.3,0.3,0.5,0.6,0.6,1s0.2,0.8,0.2,1.3
		s-0.1,0.9-0.2,1.3c-0.1,0.4-0.3,0.7-0.6,1s-0.6,0.5-1,0.6s-0.8,0.2-1.3,0.2s-0.9-0.1-1.3-0.2c-0.4-0.1-0.7-0.4-1-0.6
		c-0.3-0.3-0.5-0.6-0.6-1s-0.2-0.8-0.2-1.3s0.1-0.9,0.2-1.3c0.1-0.4,0.4-0.7,0.6-1c0.3-0.3,0.6-0.5,1-0.6
		C160,248.9,160.4,248.8,160.9,248.8z M160.9,254c0.5,0,0.9-0.2,1.1-0.5c0.2-0.3,0.4-0.8,0.4-1.5s-0.1-1.2-0.4-1.5s-0.6-0.5-1.1-0.5
		s-0.9,0.2-1.2,0.5s-0.4,0.9-0.4,1.5c0,0.7,0.1,1.2,0.4,1.5C160,253.8,160.3,254,160.9,254z"/>
	<path class="st0" d="M165.1,255.1v-6.2h0.9c0.2,0,0.3,0.1,0.4,0.3l0.1,0.5c0.1-0.1,0.2-0.2,0.3-0.3s0.2-0.2,0.4-0.3
		c0.1-0.1,0.3-0.1,0.4-0.2c0.2,0,0.3-0.1,0.5-0.1c0.4,0,0.7,0.1,1,0.3s0.4,0.5,0.6,0.8c0.1-0.2,0.2-0.4,0.4-0.5
		c0.1-0.1,0.3-0.3,0.5-0.4c0.2-0.1,0.4-0.2,0.5-0.2s0.4-0.1,0.6-0.1c0.3,0,0.6,0.1,0.9,0.2c0.3,0.1,0.5,0.3,0.7,0.5s0.3,0.4,0.4,0.7
		c0.1,0.3,0.1,0.6,0.1,1v3.9h-1.5v-3.9c0-0.4-0.1-0.7-0.3-0.9s-0.4-0.3-0.8-0.3c-0.2,0-0.3,0-0.4,0.1s-0.2,0.1-0.3,0.2
		c-0.1,0.1-0.2,0.2-0.2,0.4c-0.1,0.1-0.1,0.3-0.1,0.5v3.9h-1.5v-3.9c0-0.4-0.1-0.7-0.2-0.9c-0.2-0.2-0.4-0.3-0.7-0.3
		c-0.2,0-0.4,0.1-0.6,0.2c-0.2,0.1-0.4,0.3-0.5,0.4v4.5h-1.6L165.1,255.1L165.1,255.1z"/>
	<path class="st0" d="M176.5,248.9v3.9c0,0.4,0.1,0.7,0.3,0.9s0.4,0.3,0.8,0.3c0.3,0,0.5-0.1,0.7-0.2c0.2-0.1,0.4-0.3,0.6-0.5v-4.5
		h1.5v6.2h-0.9c-0.2,0-0.3-0.1-0.4-0.3l-0.1-0.5c-0.1,0.1-0.3,0.2-0.4,0.4c-0.1,0.1-0.3,0.2-0.4,0.3s-0.3,0.1-0.5,0.2
		c-0.2,0-0.4,0.1-0.6,0.1c-0.3,0-0.6-0.1-0.9-0.2c-0.3-0.1-0.5-0.3-0.7-0.5s-0.3-0.5-0.4-0.7c-0.1-0.3-0.1-0.6-0.1-0.9V249h1.5
		L176.5,248.9L176.5,248.9z"/>
	<path class="st0" d="M182,255.1v-6.2h0.9c0.2,0,0.3,0.1,0.4,0.3l0.1,0.5c0.1-0.1,0.3-0.2,0.4-0.3c0.1-0.1,0.3-0.2,0.4-0.3
		c0.2-0.1,0.3-0.1,0.5-0.2c0.2,0,0.4-0.1,0.6-0.1c0.3,0,0.6,0.1,0.9,0.2c0.3,0.1,0.5,0.3,0.7,0.5s0.3,0.5,0.4,0.7
		c0.1,0.3,0.1,0.6,0.1,0.9v3.9h-1.5v-3.9c0-0.4-0.1-0.7-0.3-0.9s-0.4-0.3-0.8-0.3c-0.3,0-0.5,0.1-0.7,0.2c-0.2,0.1-0.4,0.3-0.6,0.5
		v4.5L182,255.1L182,255.1z"/>
	<path class="st0" d="M190.6,247.1c0,0.1,0,0.2-0.1,0.4c-0.1,0.1-0.1,0.2-0.2,0.3c-0.1,0.1-0.2,0.2-0.3,0.2s-0.2,0.1-0.4,0.1
		c-0.1,0-0.2,0-0.4-0.1c-0.1,0-0.2-0.1-0.3-0.2s-0.2-0.2-0.2-0.3c-0.1-0.1-0.1-0.2-0.1-0.4c0-0.1,0-0.3,0.1-0.4
		c0-0.1,0.1-0.2,0.2-0.3s0.2-0.2,0.3-0.2s0.2-0.1,0.4-0.1c0.1,0,0.3,0,0.4,0.1c0.1,0.1,0.2,0.1,0.3,0.2c0.1,0.1,0.2,0.2,0.2,0.3
		C190.6,246.9,190.6,247,190.6,247.1z M190.4,248.9v6.2h-1.5v-6.2H190.4z"/>
	<path class="st0" d="M196.4,250.2c0,0.1-0.1,0.1-0.1,0.1s-0.1,0-0.2,0c-0.1,0-0.2,0-0.2-0.1c-0.1,0-0.2-0.1-0.3-0.2
		c-0.1-0.1-0.2-0.1-0.4-0.2c-0.1,0-0.3-0.1-0.5-0.1c-0.3,0-0.5,0-0.7,0.1s-0.4,0.2-0.5,0.4s-0.2,0.4-0.3,0.6s-0.1,0.5-0.1,0.8
		s0,0.6,0.1,0.9c0.1,0.3,0.2,0.5,0.3,0.6c0.1,0.2,0.3,0.3,0.5,0.4s0.4,0.1,0.6,0.1c0.2,0,0.4,0,0.6-0.1c0.1-0.1,0.3-0.1,0.4-0.2
		c0.1-0.1,0.2-0.1,0.3-0.2s0.2-0.1,0.2-0.1c0.1,0,0.2,0,0.3,0.1l0.4,0.5c-0.2,0.2-0.3,0.4-0.5,0.5s-0.4,0.2-0.6,0.3
		s-0.4,0.1-0.6,0.2c-0.2,0-0.4,0-0.7,0c-0.4,0-0.7-0.1-1.1-0.2c-0.3-0.1-0.6-0.3-0.9-0.6c-0.2-0.3-0.4-0.6-0.6-1
		c-0.1-0.4-0.2-0.8-0.2-1.3s0.1-0.9,0.2-1.3s0.3-0.7,0.6-1s0.6-0.5,0.9-0.7s0.8-0.2,1.3-0.2s0.9,0.1,1.2,0.2
		c0.3,0.1,0.7,0.4,0.9,0.6L196.4,250.2z"/>
	<path class="st0" d="M202.6,255.1h-0.7c-0.1,0-0.2,0-0.3-0.1s-0.1-0.1-0.2-0.3l-0.1-0.4c-0.2,0.1-0.3,0.3-0.5,0.4
		c-0.2,0.1-0.3,0.2-0.5,0.3s-0.3,0.1-0.5,0.2c-0.2,0-0.4,0.1-0.6,0.1c-0.3,0-0.5,0-0.7-0.1s-0.4-0.2-0.6-0.3s-0.3-0.3-0.4-0.5
		c-0.1-0.2-0.1-0.5-0.1-0.7s0.1-0.5,0.2-0.7s0.3-0.4,0.6-0.6s0.7-0.3,1.1-0.5s1.1-0.2,1.8-0.2v-0.4c0-0.4-0.1-0.7-0.3-0.9
		s-0.4-0.3-0.8-0.3c-0.2,0-0.4,0-0.6,0.1c-0.2,0.1-0.3,0.1-0.4,0.2c-0.1,0.1-0.2,0.1-0.3,0.2c-0.1,0.1-0.2,0.1-0.3,0.1
		s-0.2,0-0.3-0.1s-0.1-0.1-0.2-0.2l-0.3-0.5c0.7-0.6,1.6-1,2.6-1c0.4,0,0.7,0.1,1,0.2c0.3,0.1,0.5,0.3,0.7,0.5s0.3,0.5,0.4,0.8
		c0.1,0.3,0.2,0.6,0.2,1v3.7H202.6z M199.7,254.1c0.2,0,0.3,0,0.4,0s0.2-0.1,0.4-0.1c0.1-0.1,0.2-0.1,0.3-0.2
		c0.1-0.1,0.2-0.2,0.3-0.3v-1c-0.4,0-0.8,0-1.1,0.1s-0.5,0.1-0.7,0.2c-0.2,0.1-0.3,0.2-0.4,0.3c-0.1,0.1-0.1,0.2-0.1,0.4
		c0,0.3,0.1,0.4,0.2,0.6C199.3,254.1,199.5,254.1,199.7,254.1z"/>
	<path class="st0" d="M205.7,256.4C205.7,256.4,205.8,256.4,205.7,256.4c0.1,0,0.2,0,0.2,0h0.1c0,0,0.1,0,0.2,0c0.1,0,0.2,0,0.3-0.1
		c0.1,0,0.1-0.1,0.1-0.2s-0.1-0.2-0.2-0.2c-0.1,0-0.4-0.1-0.7-0.1l0.2-0.8c-0.3-0.1-0.6-0.2-0.9-0.3c-0.3-0.2-0.5-0.4-0.7-0.6
		s-0.4-0.6-0.5-0.9c-0.1-0.4-0.2-0.8-0.2-1.2c0-0.5,0.1-0.9,0.2-1.3s0.3-0.7,0.6-1s0.6-0.5,0.9-0.7s0.8-0.2,1.3-0.2s0.9,0.1,1.2,0.2
		c0.3,0.1,0.7,0.4,0.9,0.6l-0.4,0.5c0,0.1-0.1,0.1-0.1,0.1s-0.1,0-0.2,0c-0.1,0-0.2,0-0.2-0.1c-0.1,0-0.2-0.1-0.3-0.2
		c-0.1-0.1-0.2-0.1-0.4-0.2c-0.1,0-0.3-0.1-0.5-0.1c-0.3,0-0.5,0-0.7,0.1s-0.4,0.2-0.5,0.4s-0.2,0.4-0.3,0.6s-0.1,0.5-0.1,0.8
		s0,0.6,0.1,0.9c0.1,0.3,0.2,0.5,0.3,0.6c0.1,0.2,0.3,0.3,0.5,0.4s0.4,0.1,0.6,0.1c0.2,0,0.4,0,0.6-0.1c0.1-0.1,0.3-0.1,0.4-0.2
		c0.1-0.1,0.2-0.1,0.3-0.2s0.2-0.1,0.2-0.1c0.1,0,0.2,0,0.3,0.1l0.4,0.5c-0.3,0.3-0.6,0.6-0.9,0.7c-0.3,0.2-0.7,0.2-1.1,0.3
		l-0.1,0.3c0.4,0.1,0.6,0.2,0.8,0.4c0.1,0.1,0.2,0.3,0.2,0.5c0,0.1,0,0.3-0.1,0.4c-0.1,0.1-0.2,0.2-0.3,0.3s-0.3,0.1-0.5,0.2
		c-0.2,0-0.4,0.1-0.6,0.1c-0.2,0-0.3,0-0.5,0c-0.1,0-0.3-0.1-0.4-0.1l0.1-0.5C205.6,256.5,205.6,256.4,205.7,256.4z"/>
	<path class="st0" d="M214.6,255.1h-0.7c-0.1,0-0.2,0-0.3-0.1s-0.1-0.1-0.2-0.3l-0.1-0.4c-0.2,0.1-0.3,0.3-0.5,0.4
		c-0.2,0.1-0.3,0.2-0.5,0.3s-0.3,0.1-0.5,0.2c-0.2,0-0.4,0.1-0.6,0.1c-0.3,0-0.5,0-0.7-0.1s-0.4-0.2-0.6-0.3s-0.3-0.3-0.4-0.5
		c-0.1-0.2-0.1-0.5-0.1-0.7s0.1-0.5,0.2-0.7s0.3-0.4,0.6-0.6s0.7-0.3,1.1-0.5s1.1-0.2,1.8-0.2v-0.4c0-0.4-0.1-0.7-0.3-0.9
		s-0.4-0.3-0.8-0.3c-0.2,0-0.4,0-0.6,0.1c-0.2,0.1-0.3,0.1-0.4,0.2c-0.1,0.1-0.2,0.1-0.3,0.2c-0.1,0.1-0.2,0.1-0.3,0.1
		s-0.2,0-0.3-0.1s-0.1-0.1-0.2-0.2l-0.3-0.5c0.7-0.6,1.6-1,2.6-1c0.4,0,0.7,0.1,1,0.2c0.3,0.1,0.5,0.3,0.7,0.5s0.3,0.5,0.4,0.8
		c0.1,0.3,0.2,0.6,0.2,1v3.7H214.6z M212.9,246.9c0.1,0,0.2,0,0.3-0.1s0.1-0.2,0.1-0.4h0.9c0,0.2,0,0.4-0.1,0.6
		c-0.1,0.2-0.1,0.3-0.3,0.5c-0.1,0.1-0.2,0.2-0.4,0.3c-0.1,0.1-0.3,0.1-0.5,0.1c-0.1,0-0.3,0-0.4-0.1c-0.1-0.1-0.2-0.1-0.3-0.2
		c-0.1-0.1-0.2-0.1-0.3-0.2c-0.1-0.1-0.2-0.1-0.3-0.1s-0.2,0-0.3,0.1s-0.1,0.2-0.1,0.4h-0.9c0-0.2,0-0.4,0.1-0.6
		c0.1-0.2,0.1-0.3,0.3-0.5c0.1-0.1,0.2-0.2,0.4-0.3s0.3-0.1,0.5-0.1c0.1,0,0.3,0,0.4,0.1c0.1,0.1,0.2,0.1,0.4,0.2
		c0.1,0.1,0.2,0.1,0.3,0.2C212.7,246.9,212.8,246.9,212.9,246.9z M211.7,254.1c0.2,0,0.3,0,0.4,0s0.2-0.1,0.4-0.1
		c0.1-0.1,0.2-0.1,0.3-0.2c0.1-0.1,0.2-0.2,0.3-0.3v-1c-0.4,0-0.8,0-1.1,0.1s-0.5,0.1-0.7,0.2c-0.2,0.1-0.3,0.2-0.4,0.3
		c-0.1,0.1-0.1,0.2-0.1,0.4c0,0.3,0.1,0.4,0.2,0.6C211.3,254.1,211.5,254.1,211.7,254.1z"/>
	<path class="st0" d="M218.7,248.8c0.5,0,0.9,0.1,1.3,0.2c0.4,0.1,0.7,0.4,1,0.6c0.3,0.3,0.5,0.6,0.6,1s0.2,0.8,0.2,1.3
		s-0.1,0.9-0.2,1.3c-0.1,0.4-0.3,0.7-0.6,1s-0.6,0.5-1,0.6s-0.8,0.2-1.3,0.2s-0.9-0.1-1.3-0.2c-0.4-0.1-0.7-0.4-1-0.6
		c-0.3-0.3-0.5-0.6-0.6-1s-0.2-0.8-0.2-1.3s0.1-0.9,0.2-1.3c0.1-0.4,0.4-0.7,0.6-1c0.3-0.3,0.6-0.5,1-0.6
		C217.8,248.9,218.2,248.8,218.7,248.8z M218.7,254c0.5,0,0.9-0.2,1.1-0.5c0.2-0.3,0.4-0.8,0.4-1.5s-0.1-1.2-0.4-1.5
		s-0.6-0.5-1.1-0.5s-0.9,0.2-1.2,0.5s-0.4,0.9-0.4,1.5c0,0.7,0.1,1.2,0.4,1.5C217.8,253.8,218.2,254,218.7,254z"/>
	<path class="st0" d="M223.4,255.1c0,0.1-0.1,0.2-0.1,0.2c-0.1,0.1-0.1,0.1-0.2,0.2c-0.1,0-0.1,0.1-0.2,0.1s-0.2,0-0.2,0H222l3.5-9
		c0.1-0.2,0.2-0.3,0.3-0.4c0.1-0.1,0.3-0.1,0.5-0.1h0.6L223.4,255.1z"/>
	<path class="st0" d="M168.7,260.8v1.3h-3.8v2.6h3.2v1.3h-3.2v3.5h-1.6v-8.7L168.7,260.8L168.7,260.8z"/>
	<path class="st0" d="M172,263.2c0.4,0,0.7,0.1,1.1,0.2c0.3,0.1,0.6,0.3,0.8,0.5s0.4,0.5,0.6,0.9c0.1,0.3,0.2,0.7,0.2,1.2
		c0,0.1,0,0.2,0,0.3c0,0.1,0,0.1-0.1,0.2l-0.1,0.1c0,0-0.1,0-0.2,0h-3.8c0,0.6,0.2,1.1,0.5,1.4s0.7,0.4,1.2,0.4c0.2,0,0.4,0,0.6-0.1
		c0.2-0.1,0.3-0.1,0.5-0.2c0.1-0.1,0.2-0.1,0.3-0.2s0.2-0.1,0.3-0.1s0.1,0,0.2,0l0.1,0.1l0.4,0.5c-0.2,0.2-0.3,0.4-0.6,0.5
		s-0.4,0.2-0.6,0.3c-0.2,0.1-0.4,0.1-0.7,0.2c-0.2,0-0.5,0-0.7,0c-0.4,0-0.8-0.1-1.2-0.2s-0.7-0.4-1-0.6c-0.3-0.3-0.5-0.6-0.6-1
		c-0.2-0.4-0.2-0.9-0.2-1.4c0-0.4,0.1-0.8,0.2-1.2c0.1-0.4,0.3-0.7,0.6-1s0.6-0.5,0.9-0.7C171.1,263.3,171.6,263.2,172,263.2z
		 M172,264.3c-0.4,0-0.8,0.1-1,0.4c-0.2,0.2-0.4,0.6-0.5,1h2.8c0-0.2,0-0.4-0.1-0.5c-0.1-0.2-0.1-0.3-0.2-0.4s-0.2-0.2-0.4-0.3
		S172.3,264.3,172,264.3z"/>
	<path class="st0" d="M178.4,263.2c0.4,0,0.7,0.1,1.1,0.2c0.3,0.1,0.6,0.3,0.8,0.5s0.4,0.5,0.6,0.9c0.1,0.3,0.2,0.7,0.2,1.2
		c0,0.1,0,0.2,0,0.3c0,0.1,0,0.1-0.1,0.2l-0.1,0.1c0,0-0.1,0-0.2,0h-3.8c0,0.6,0.2,1.1,0.5,1.4s0.7,0.4,1.2,0.4c0.2,0,0.4,0,0.6-0.1
		c0.2-0.1,0.3-0.1,0.5-0.2c0.1-0.1,0.2-0.1,0.3-0.2s0.2-0.1,0.3-0.1s0.1,0,0.2,0l0.1,0.1l0.4,0.5c-0.2,0.2-0.3,0.4-0.6,0.5
		s-0.4,0.2-0.6,0.3c-0.2,0.1-0.4,0.1-0.7,0.2c-0.2,0-0.5,0-0.7,0c-0.4,0-0.8-0.1-1.2-0.2s-0.7-0.4-1-0.6c-0.3-0.3-0.5-0.6-0.6-1
		c-0.2-0.4-0.2-0.9-0.2-1.4c0-0.4,0.1-0.8,0.2-1.2c0.1-0.4,0.3-0.7,0.6-1s0.6-0.5,0.9-0.7C177.6,263.3,178,263.2,178.4,263.2z
		 M178.5,264.3c-0.4,0-0.8,0.1-1,0.4c-0.2,0.2-0.4,0.6-0.5,1h2.8c0-0.2,0-0.4-0.1-0.5c-0.1-0.2-0.1-0.3-0.2-0.4s-0.2-0.2-0.4-0.3
		S178.7,264.3,178.5,264.3z"/>
	<path class="st0" d="M186.6,269.5c-0.2,0-0.3-0.1-0.4-0.3l-0.1-0.6c-0.1,0.1-0.3,0.3-0.4,0.4c-0.1,0.1-0.3,0.2-0.5,0.3
		s-0.3,0.1-0.5,0.2s-0.4,0.1-0.6,0.1c-0.3,0-0.6-0.1-0.9-0.2c-0.3-0.1-0.5-0.3-0.7-0.6c-0.2-0.3-0.4-0.6-0.5-1s-0.2-0.8-0.2-1.3
		s0.1-0.9,0.2-1.3c0.1-0.4,0.3-0.7,0.5-1s0.5-0.5,0.8-0.7s0.7-0.2,1.1-0.2c0.3,0,0.6,0.1,0.9,0.2c0.2,0.1,0.5,0.3,0.7,0.4v-3.3h1.5
		v8.9H186.6z M184.7,268.4c0.3,0,0.6-0.1,0.8-0.2s0.4-0.3,0.6-0.5v-2.8c-0.2-0.2-0.4-0.3-0.5-0.4c-0.2-0.1-0.4-0.1-0.6-0.1
		c-0.2,0-0.4,0-0.6,0.1s-0.3,0.2-0.5,0.4c-0.1,0.2-0.2,0.4-0.3,0.6s-0.1,0.6-0.1,0.9c0,0.4,0,0.7,0.1,0.9s0.1,0.5,0.2,0.6
		s0.2,0.3,0.4,0.3C184.3,268.3,184.5,268.4,184.7,268.4z"/>
	<path class="st0" d="M189.2,269.5v-8.9h1.5v3.5c0.2-0.3,0.5-0.5,0.8-0.6c0.3-0.2,0.7-0.2,1.1-0.2c0.3,0,0.6,0.1,0.9,0.2
		c0.3,0.1,0.5,0.3,0.7,0.6c0.2,0.3,0.4,0.6,0.5,1s0.2,0.8,0.2,1.3s-0.1,0.9-0.2,1.3c-0.1,0.4-0.3,0.7-0.5,1s-0.5,0.5-0.8,0.7
		s-0.7,0.2-1.1,0.2c-0.2,0-0.4,0-0.5-0.1c-0.2,0-0.3-0.1-0.4-0.2c-0.1-0.1-0.2-0.2-0.4-0.2c-0.1-0.1-0.2-0.2-0.3-0.3l-0.1,0.4
		c0,0.1-0.1,0.2-0.1,0.2c-0.1,0-0.1,0.1-0.2,0.1H189.2z M192,264.4c-0.3,0-0.6,0.1-0.8,0.2s-0.4,0.3-0.6,0.5v2.8
		c0.2,0.2,0.4,0.4,0.5,0.4c0.2,0.1,0.4,0.1,0.6,0.1c0.2,0,0.4,0,0.6-0.1c0.2-0.1,0.3-0.2,0.5-0.4s0.2-0.4,0.3-0.7
		c0.1-0.3,0.1-0.6,0.1-0.9c0-0.4,0-0.7-0.1-0.9c-0.1-0.2-0.1-0.5-0.2-0.6c-0.1-0.2-0.2-0.3-0.4-0.3
		C192.4,264.4,192.2,264.4,192,264.4z"/>
	<path class="st0" d="M200.8,269.5h-0.7c-0.1,0-0.2,0-0.3-0.1s-0.1-0.1-0.2-0.3l-0.1-0.4c-0.2,0.1-0.3,0.3-0.5,0.4s-0.3,0.2-0.5,0.3
		c-0.2,0.1-0.3,0.1-0.5,0.2c-0.2,0-0.4,0.1-0.6,0.1c-0.3,0-0.5,0-0.7-0.1s-0.4-0.2-0.6-0.3c-0.2-0.1-0.3-0.3-0.4-0.5
		c-0.1-0.2-0.1-0.5-0.1-0.7s0.1-0.5,0.2-0.7c0.1-0.2,0.3-0.4,0.6-0.6s0.7-0.3,1.1-0.5c0.5-0.1,1.1-0.2,1.8-0.2v-0.4
		c0-0.4-0.1-0.7-0.3-0.9c-0.2-0.2-0.4-0.3-0.8-0.3c-0.2,0-0.4,0-0.6,0.1c-0.2,0.1-0.3,0.1-0.4,0.2c-0.1,0.1-0.2,0.1-0.3,0.2
		s-0.2,0.1-0.3,0.1s-0.2,0-0.3-0.1s-0.1-0.1-0.2-0.2l-0.3-0.5c0.7-0.6,1.6-1,2.6-1c0.4,0,0.7,0.1,1,0.2s0.5,0.3,0.7,0.5
		s0.3,0.5,0.4,0.8c0.1,0.3,0.2,0.6,0.2,1v3.7L200.8,269.5L200.8,269.5z M197.9,268.5c0.2,0,0.3,0,0.4,0s0.2-0.1,0.4-0.1
		c0.1-0.1,0.2-0.1,0.3-0.2s0.2-0.2,0.3-0.3v-1c-0.4,0-0.8,0-1.1,0.1s-0.5,0.1-0.7,0.2s-0.3,0.2-0.4,0.3c-0.1,0.1-0.1,0.2-0.1,0.4
		c0,0.3,0.1,0.4,0.2,0.6C197.5,268.5,197.7,268.5,197.9,268.5z"/>
	<path class="st0" d="M206.6,264.6c0,0.1-0.1,0.1-0.1,0.1s-0.1,0-0.2,0c-0.1,0-0.2,0-0.2-0.1c-0.1,0-0.2-0.1-0.3-0.2
		s-0.2-0.1-0.4-0.2c-0.1,0-0.3-0.1-0.5-0.1c-0.3,0-0.5,0-0.7,0.1s-0.4,0.2-0.5,0.4s-0.2,0.4-0.3,0.6s-0.1,0.5-0.1,0.8s0,0.6,0.1,0.9
		s0.2,0.5,0.3,0.6c0.1,0.2,0.3,0.3,0.5,0.4s0.4,0.1,0.6,0.1c0.2,0,0.4,0,0.6-0.1c0.1-0.1,0.3-0.1,0.4-0.2c0.1-0.1,0.2-0.1,0.3-0.2
		s0.2-0.1,0.2-0.1c0.1,0,0.2,0,0.3,0.1l0.4,0.5c-0.2,0.2-0.3,0.4-0.5,0.5s-0.4,0.2-0.6,0.3s-0.4,0.1-0.6,0.2c-0.2,0-0.4,0-0.7,0
		c-0.4,0-0.7-0.1-1.1-0.2c-0.3-0.1-0.6-0.3-0.9-0.6c-0.2-0.3-0.4-0.6-0.6-1c-0.1-0.4-0.2-0.8-0.2-1.3s0.1-0.9,0.2-1.3
		c0.1-0.4,0.3-0.7,0.6-1s0.6-0.5,0.9-0.7c0.4-0.2,0.8-0.2,1.3-0.2s0.9,0.1,1.2,0.2s0.7,0.4,0.9,0.6L206.6,264.6z"/>
	<path class="st0" d="M209.5,260.5v5.1h0.3c0.1,0,0.2,0,0.2,0c0.1,0,0.1-0.1,0.2-0.2l1.5-1.9c0.1-0.1,0.1-0.1,0.2-0.2
		c0.1,0,0.2-0.1,0.3-0.1h1.4l-1.9,2.3c-0.1,0.1-0.1,0.2-0.2,0.2c-0.1,0.1-0.1,0.1-0.2,0.2c0.1,0.1,0.2,0.1,0.2,0.2
		c0.1,0.1,0.1,0.2,0.2,0.3l2.1,3h-1.3c-0.1,0-0.2,0-0.3-0.1s-0.2-0.1-0.2-0.2l-1.6-2.3c-0.1-0.1-0.1-0.2-0.2-0.2c-0.1,0-0.2,0-0.3,0
		h-0.3v2.8H208v-8.9L209.5,260.5L209.5,260.5z"/>
</g>
<g>
	<path class="st0" d="M264.8,112.8c0.1,0,0.2,0,0.2,0.1l0.6,0.7c-0.4,0.4-0.8,0.8-1.3,1s-1.1,0.3-1.9,0.3c-0.6,0-1.2-0.1-1.7-0.3
		c-0.5-0.2-1-0.5-1.3-0.9c-0.4-0.4-0.6-0.9-0.8-1.4c-0.2-0.5-0.3-1.1-0.3-1.8c0-0.7,0.1-1.2,0.3-1.8c0.2-0.5,0.5-1,0.9-1.4
		s0.9-0.7,1.4-0.9c0.5-0.2,1.1-0.3,1.8-0.3c0.6,0,1.2,0.1,1.7,0.3s0.9,0.5,1.2,0.8l-0.5,0.8l-0.1,0.1c0,0-0.1,0.1-0.2,0.1
		s-0.2,0-0.3-0.1c-0.1-0.1-0.2-0.2-0.4-0.2c-0.1-0.1-0.3-0.2-0.6-0.2c-0.2-0.1-0.5-0.1-0.9-0.1s-0.8,0.1-1.1,0.2s-0.6,0.3-0.9,0.6
		c-0.2,0.3-0.4,0.6-0.6,1c-0.1,0.4-0.2,0.8-0.2,1.3s0.1,0.9,0.2,1.3s0.3,0.7,0.6,1c0.2,0.3,0.5,0.5,0.8,0.6s0.7,0.2,1,0.2
		c0.2,0,0.4,0,0.6,0s0.3-0.1,0.5-0.1c0.1-0.1,0.3-0.1,0.4-0.2s0.3-0.2,0.4-0.3l0.1-0.1L264.8,112.8z"/>
	<path class="st0" d="M269.5,108.6c0.5,0,0.9,0.1,1.3,0.2s0.7,0.4,1,0.6c0.3,0.3,0.5,0.6,0.6,1s0.2,0.8,0.2,1.3s-0.1,0.9-0.2,1.3
		s-0.3,0.7-0.6,1c-0.3,0.3-0.6,0.5-1,0.6s-0.8,0.2-1.3,0.2s-0.9-0.1-1.3-0.2s-0.7-0.4-1-0.6c-0.3-0.3-0.5-0.6-0.6-1
		s-0.2-0.8-0.2-1.3s0.1-0.9,0.2-1.3s0.4-0.7,0.6-1c0.3-0.3,0.6-0.5,1-0.6S269,108.6,269.5,108.6z M269.5,113.8
		c0.5,0,0.9-0.2,1.1-0.5s0.4-0.8,0.4-1.5s-0.1-1.2-0.4-1.5c-0.2-0.3-0.6-0.5-1.1-0.5s-0.9,0.2-1.2,0.5c-0.2,0.3-0.4,0.9-0.4,1.5
		c0,0.7,0.1,1.2,0.4,1.5C268.6,113.6,268.9,113.8,269.5,113.8z"/>
	<path class="st0" d="M275.2,105.9v8.9h-1.5v-8.9H275.2z"/>
	<path class="st0" d="M279.5,108.6c0.4,0,0.7,0.1,1.1,0.2s0.6,0.3,0.8,0.5c0.2,0.2,0.4,0.5,0.6,0.9c0.1,0.3,0.2,0.7,0.2,1.2
		c0,0.1,0,0.2,0,0.3c0,0.1,0,0.1-0.1,0.2L282,112c0,0-0.1,0-0.2,0H278c0,0.6,0.2,1.1,0.5,1.4s0.7,0.4,1.2,0.4c0.2,0,0.4,0,0.6-0.1
		s0.3-0.1,0.5-0.2c0.1-0.1,0.2-0.1,0.3-0.2c0.1-0.1,0.2-0.1,0.3-0.1c0.1,0,0.1,0,0.2,0s0.1,0.1,0.1,0.1l0.4,0.5
		c-0.2,0.2-0.3,0.4-0.6,0.5s-0.4,0.2-0.6,0.3c-0.2,0.1-0.4,0.1-0.7,0.2c-0.2,0-0.5,0-0.7,0c-0.4,0-0.8-0.1-1.2-0.2s-0.7-0.4-1-0.6
		c-0.3-0.3-0.5-0.6-0.6-1c-0.2-0.4-0.2-0.9-0.2-1.4c0-0.4,0.1-0.8,0.2-1.2s0.3-0.7,0.6-1s0.6-0.5,0.9-0.7
		C278.6,108.6,279,108.6,279.5,108.6z M279.5,109.6c-0.4,0-0.8,0.1-1,0.4c-0.2,0.2-0.4,0.6-0.5,1h2.8c0-0.2,0-0.4-0.1-0.5
		c-0.1-0.2-0.1-0.3-0.2-0.4s-0.2-0.2-0.4-0.3C279.9,109.7,279.7,109.6,279.5,109.6z"/>
	<path class="st0" d="M285.3,114.9c-0.5,0-0.9-0.2-1.2-0.5c-0.3-0.3-0.4-0.7-0.4-1.3v-3.4h-0.6c-0.1,0-0.1,0-0.2-0.1
		s-0.1-0.1-0.1-0.2v-0.6l1-0.2l0.3-1.7c0-0.1,0.1-0.1,0.1-0.2c0.1,0,0.1-0.1,0.2-0.1h0.8v1.9h1.6v1.1h-1.6v3.3c0,0.2,0,0.3,0.1,0.5
		c0.1,0.1,0.2,0.2,0.4,0.2c0.1,0,0.2,0,0.2,0c0.1,0,0.1,0,0.2-0.1c0,0,0.1,0,0.1-0.1s0.1,0,0.1,0h0.1l0.1,0.1l0.4,0.7
		c-0.2,0.2-0.5,0.3-0.7,0.4S285.6,114.9,285.3,114.9z"/>
	<path class="st0" d="M292.8,114.8h-0.7c-0.1,0-0.2,0-0.3-0.1s-0.1-0.1-0.2-0.3l-0.1-0.4c-0.2,0.1-0.3,0.3-0.5,0.4s-0.3,0.2-0.5,0.3
		c-0.2,0.1-0.3,0.1-0.5,0.2c-0.2,0-0.4,0.1-0.6,0.1c-0.3,0-0.5,0-0.7-0.1s-0.4-0.2-0.6-0.3c-0.2-0.1-0.3-0.3-0.4-0.5
		s-0.1-0.5-0.1-0.7s0.1-0.5,0.2-0.7s0.3-0.4,0.6-0.6s0.7-0.3,1.1-0.5c0.5-0.1,1.1-0.2,1.8-0.2V111c0-0.4-0.1-0.7-0.3-0.9
		s-0.4-0.3-0.8-0.3c-0.2,0-0.4,0-0.6,0.1s-0.3,0.1-0.4,0.2s-0.2,0.1-0.3,0.2c-0.1,0.1-0.2,0.1-0.3,0.1c-0.1,0-0.2,0-0.3-0.1
		c-0.1-0.1-0.1-0.1-0.2-0.2l-0.3-0.5c0.7-0.6,1.6-1,2.6-1c0.4,0,0.7,0.1,1,0.2s0.5,0.3,0.7,0.5s0.3,0.5,0.4,0.8s0.2,0.6,0.2,1
		L292.8,114.8L292.8,114.8z M289.9,113.9c0.2,0,0.3,0,0.4,0s0.2-0.1,0.4-0.1c0.1-0.1,0.2-0.1,0.3-0.2c0.1-0.1,0.2-0.2,0.3-0.3v-1
		c-0.4,0-0.8,0-1.1,0.1c-0.3,0.1-0.5,0.1-0.7,0.2s-0.3,0.2-0.4,0.3c-0.1,0.1-0.1,0.2-0.1,0.4c0,0.3,0.1,0.4,0.2,0.6
		C289.5,113.8,289.7,113.9,289.9,113.9z"/>
	<path class="st0" d="M300.9,114.8c-0.2,0-0.3-0.1-0.4-0.3l-0.1-0.6c-0.1,0.1-0.3,0.3-0.4,0.4s-0.3,0.2-0.5,0.3s-0.3,0.1-0.5,0.2
		c-0.2,0-0.4,0.1-0.6,0.1c-0.3,0-0.6-0.1-0.9-0.2s-0.5-0.3-0.7-0.6s-0.4-0.6-0.5-1s-0.2-0.8-0.2-1.3s0.1-0.9,0.2-1.3s0.3-0.7,0.5-1
		s0.5-0.5,0.8-0.7s0.7-0.2,1.1-0.2c0.3,0,0.6,0.1,0.9,0.2c0.2,0.1,0.5,0.3,0.7,0.4v-3.3h1.5v8.9H300.9z M298.9,113.7
		c0.3,0,0.6-0.1,0.8-0.2s0.4-0.3,0.6-0.5v-2.8c-0.2-0.2-0.4-0.3-0.5-0.4s-0.4-0.1-0.6-0.1s-0.4,0-0.6,0.1s-0.3,0.2-0.5,0.4
		c-0.1,0.2-0.2,0.4-0.3,0.6c-0.1,0.3-0.1,0.6-0.1,0.9c0,0.4,0,0.7,0.1,0.9c0.1,0.2,0.1,0.5,0.2,0.6c0.1,0.2,0.2,0.3,0.4,0.3
		C298.6,113.7,298.7,113.7,298.9,113.7z"/>
	<path class="st0" d="M305.9,108.6c0.4,0,0.7,0.1,1.1,0.2s0.6,0.3,0.8,0.5c0.2,0.2,0.4,0.5,0.6,0.9c0.1,0.3,0.2,0.7,0.2,1.2
		c0,0.1,0,0.2,0,0.3c0,0.1,0,0.1-0.1,0.2l-0.1,0.1c0,0-0.1,0-0.2,0h-3.8c0,0.6,0.2,1.1,0.5,1.4s0.7,0.4,1.2,0.4c0.2,0,0.4,0,0.6-0.1
		s0.3-0.1,0.5-0.2c0.1-0.1,0.2-0.1,0.3-0.2c0.1-0.1,0.2-0.1,0.3-0.1c0.1,0,0.1,0,0.2,0s0.1,0.1,0.1,0.1l0.4,0.5
		c-0.2,0.2-0.3,0.4-0.6,0.5s-0.4,0.2-0.6,0.3c-0.2,0.1-0.4,0.1-0.7,0.2c-0.2,0-0.5,0-0.7,0c-0.4,0-0.8-0.1-1.2-0.2s-0.7-0.4-1-0.6
		c-0.3-0.3-0.5-0.6-0.6-1c-0.2-0.4-0.2-0.9-0.2-1.4c0-0.4,0.1-0.8,0.2-1.2s0.3-0.7,0.6-1s0.6-0.5,0.9-0.7
		C305.1,108.6,305.5,108.6,305.9,108.6z M306,109.6c-0.4,0-0.8,0.1-1,0.4c-0.2,0.2-0.4,0.6-0.5,1h2.8c0-0.2,0-0.4-0.1-0.5
		c-0.1-0.2-0.1-0.3-0.2-0.4s-0.2-0.2-0.4-0.3C306.4,109.7,306.2,109.6,306,109.6z"/>
	<path class="st0" d="M319.9,110.5c0,0.6-0.1,1.2-0.3,1.8c-0.2,0.5-0.5,1-0.9,1.4s-0.8,0.7-1.4,0.9s-1.1,0.3-1.8,0.3h-3.3v-8.7h3.3
		c0.7,0,1.3,0.1,1.8,0.3s1,0.5,1.4,0.9s0.7,0.8,0.9,1.4C319.8,109.3,319.9,109.8,319.9,110.5z M318.3,110.5c0-0.5-0.1-0.9-0.2-1.3
		s-0.3-0.7-0.5-1s-0.5-0.5-0.9-0.6c-0.3-0.1-0.7-0.2-1.1-0.2h-1.7v6.1h1.7c0.4,0,0.8-0.1,1.1-0.2c0.3-0.1,0.6-0.3,0.9-0.6
		c0.2-0.3,0.4-0.6,0.5-1S318.3,110.9,318.3,110.5z"/>
	<path class="st0" d="M325.9,114.8h-0.7c-0.1,0-0.2,0-0.3-0.1s-0.1-0.1-0.2-0.3l-0.1-0.4c-0.2,0.1-0.3,0.3-0.5,0.4
		c-0.1,0.1-0.3,0.2-0.5,0.3c-0.2,0.1-0.3,0.1-0.5,0.2c-0.2,0-0.4,0.1-0.6,0.1c-0.3,0-0.5,0-0.7-0.1s-0.4-0.2-0.6-0.3
		c-0.2-0.1-0.3-0.3-0.4-0.5s-0.1-0.5-0.1-0.7s0.1-0.5,0.2-0.7s0.3-0.4,0.6-0.6c0.3-0.2,0.7-0.3,1.1-0.5c0.5-0.1,1.1-0.2,1.8-0.2V111
		c0-0.4-0.1-0.7-0.3-0.9c-0.2-0.2-0.4-0.3-0.8-0.3c-0.2,0-0.4,0-0.6,0.1s-0.3,0.1-0.4,0.2s-0.2,0.1-0.3,0.2
		c-0.1,0.1-0.2,0.1-0.3,0.1c-0.1,0-0.2,0-0.3-0.1c-0.1-0.1-0.1-0.1-0.2-0.2l-0.3-0.5c0.7-0.6,1.6-1,2.6-1c0.4,0,0.7,0.1,1,0.2
		s0.5,0.3,0.7,0.5s0.3,0.5,0.4,0.8s0.2,0.6,0.2,1L325.9,114.8L325.9,114.8z M323,113.9c0.2,0,0.3,0,0.4,0s0.2-0.1,0.4-0.1
		s0.2-0.1,0.3-0.2c0.1-0.1,0.2-0.2,0.3-0.3v-1c-0.4,0-0.8,0-1.1,0.1c-0.3,0.1-0.5,0.1-0.7,0.2s-0.3,0.2-0.4,0.3s-0.1,0.2-0.1,0.4
		c0,0.3,0.1,0.4,0.2,0.6S322.8,113.9,323,113.9z"/>
	<path class="st0" d="M331.7,114.8c-0.2,0-0.3-0.1-0.4-0.3l-0.1-0.6c-0.1,0.1-0.3,0.3-0.4,0.4s-0.3,0.2-0.5,0.3s-0.3,0.1-0.5,0.2
		c-0.2,0-0.4,0.1-0.6,0.1c-0.3,0-0.6-0.1-0.9-0.2s-0.5-0.3-0.7-0.6s-0.4-0.6-0.5-1s-0.2-0.8-0.2-1.3s0.1-0.9,0.2-1.3s0.3-0.7,0.5-1
		s0.5-0.5,0.8-0.7s0.7-0.2,1.1-0.2c0.3,0,0.6,0.1,0.9,0.2s0.5,0.3,0.7,0.4v-3.3h1.5v8.9H331.7z M329.7,113.7c0.3,0,0.6-0.1,0.8-0.2
		s0.4-0.3,0.6-0.5v-2.8c-0.2-0.2-0.4-0.3-0.5-0.4c-0.2-0.1-0.4-0.1-0.6-0.1s-0.4,0-0.6,0.1s-0.3,0.2-0.5,0.4
		c-0.1,0.2-0.2,0.4-0.3,0.6c-0.1,0.3-0.1,0.6-0.1,0.9c0,0.4,0,0.7,0.1,0.9c0.1,0.2,0.1,0.5,0.2,0.6c0.1,0.2,0.2,0.3,0.4,0.3
		S329.6,113.7,329.7,113.7z"/>
	<path class="st0" d="M336.9,108.6c0.5,0,0.9,0.1,1.3,0.2s0.7,0.4,1,0.6c0.3,0.3,0.5,0.6,0.6,1s0.2,0.8,0.2,1.3s-0.1,0.9-0.2,1.3
		s-0.3,0.7-0.6,1c-0.3,0.3-0.6,0.5-1,0.6s-0.8,0.2-1.3,0.2s-0.9-0.1-1.3-0.2s-0.7-0.4-1-0.6c-0.3-0.3-0.5-0.6-0.6-1
		s-0.2-0.8-0.2-1.3s0.1-0.9,0.2-1.3s0.4-0.7,0.6-1c0.3-0.3,0.6-0.5,1-0.6S336.4,108.6,336.9,108.6z M336.9,113.8
		c0.5,0,0.9-0.2,1.1-0.5s0.4-0.8,0.4-1.5s-0.1-1.2-0.4-1.5c-0.2-0.3-0.6-0.5-1.1-0.5s-0.9,0.2-1.2,0.5c-0.2,0.3-0.4,0.9-0.4,1.5
		c0,0.7,0.1,1.2,0.4,1.5C335.9,113.6,336.3,113.8,336.9,113.8z"/>
	<path class="st0" d="M344.7,109.9c0,0.1-0.1,0.1-0.1,0.1s-0.1,0-0.2,0s-0.1,0-0.2-0.1s-0.2-0.1-0.3-0.1c-0.1,0-0.2-0.1-0.4-0.1
		c-0.1,0-0.3-0.1-0.5-0.1c-0.3,0-0.5,0.1-0.7,0.2s-0.3,0.3-0.3,0.5c0,0.1,0,0.2,0.1,0.3s0.2,0.2,0.3,0.2c0.1,0.1,0.3,0.1,0.5,0.2
		s0.4,0.1,0.6,0.2s0.4,0.1,0.6,0.2s0.3,0.2,0.5,0.3c0.1,0.1,0.3,0.3,0.3,0.5c0.1,0.2,0.1,0.4,0.1,0.6c0,0.3-0.1,0.6-0.2,0.8
		c-0.1,0.2-0.3,0.5-0.5,0.6s-0.5,0.3-0.8,0.4s-0.7,0.2-1.1,0.2c-0.2,0-0.4,0-0.6-0.1c-0.2,0-0.4-0.1-0.6-0.2s-0.4-0.1-0.5-0.2
		c-0.2-0.1-0.3-0.2-0.4-0.3l0.3-0.6c0-0.1,0.1-0.1,0.2-0.2c0.1,0,0.1-0.1,0.2-0.1s0.2,0,0.3,0.1s0.2,0.1,0.3,0.2
		c0.1,0.1,0.2,0.1,0.4,0.2c0.1,0.1,0.3,0.1,0.6,0.1c0.2,0,0.3,0,0.5-0.1s0.2-0.1,0.3-0.2s0.1-0.1,0.2-0.2c0-0.1,0.1-0.2,0.1-0.3
		c0-0.1,0-0.3-0.1-0.4s-0.2-0.2-0.3-0.2c-0.1-0.1-0.3-0.1-0.5-0.2s-0.4-0.1-0.6-0.2s-0.4-0.1-0.6-0.2s-0.3-0.2-0.5-0.3
		c-0.1-0.1-0.3-0.3-0.3-0.5c-0.1-0.2-0.1-0.4-0.1-0.7c0-0.3,0-0.5,0.1-0.7s0.2-0.4,0.4-0.6c0.2-0.2,0.4-0.3,0.7-0.4s0.6-0.2,1-0.2
		s0.8,0.1,1.2,0.2s0.6,0.3,0.9,0.6L344.7,109.9z"/>
	<path class="st0" d="M346.8,114.8c0,0.1-0.1,0.2-0.1,0.2c-0.1,0.1-0.1,0.1-0.2,0.2c-0.1,0-0.1,0.1-0.2,0.1s-0.2,0-0.2,0h-0.6l3.5-9
		c0.1-0.2,0.2-0.3,0.3-0.4c0.1-0.1,0.3-0.1,0.5-0.1h0.6L346.8,114.8z"/>
	<path class="st0" d="M275.1,120.5h0.1c0,0,0.1,0,0.1,0.1l0.1,0.1l4.6,5.8c0-0.1,0-0.3,0-0.4s0-0.3,0-0.4v-5.3h1.4v8.7h-0.8
		c-0.1,0-0.2,0-0.3-0.1s-0.2-0.1-0.2-0.2l-4.5-5.8c0,0.1,0,0.3,0,0.4s0,0.2,0,0.3v5.3H274v-8.7h0.8
		C274.9,120.5,275,120.5,275.1,120.5z"/>
	<path class="st0" d="M285.6,123c0.5,0,0.9,0.1,1.3,0.2s0.7,0.4,1,0.6c0.3,0.3,0.5,0.6,0.6,1s0.2,0.8,0.2,1.3s-0.1,0.9-0.2,1.3
		s-0.3,0.7-0.6,1c-0.3,0.3-0.6,0.5-1,0.6s-0.8,0.2-1.3,0.2s-0.9-0.1-1.3-0.2s-0.7-0.4-1-0.6s-0.5-0.6-0.6-1s-0.2-0.8-0.2-1.3
		s0.1-0.9,0.2-1.3s0.4-0.7,0.6-1s0.6-0.5,1-0.6S285.2,123,285.6,123z M285.6,128.2c0.5,0,0.9-0.2,1.1-0.5s0.4-0.8,0.4-1.5
		s-0.1-1.2-0.4-1.5c-0.2-0.3-0.6-0.5-1.1-0.5s-0.9,0.2-1.2,0.5c-0.2,0.3-0.4,0.9-0.4,1.5c0,0.7,0.1,1.2,0.4,1.5
		C284.7,128,285.1,128.2,285.6,128.2z"/>
	<path class="st0" d="M291.9,129.3c-0.5,0-0.9-0.2-1.2-0.5c-0.3-0.3-0.4-0.7-0.4-1.3v-3.4h-0.6c-0.1,0-0.1,0-0.2-0.1
		s-0.1-0.1-0.1-0.2v-0.6l1-0.2l0.3-1.7c0-0.1,0.1-0.1,0.1-0.2c0.1,0,0.1-0.1,0.2-0.1h0.8v1.9h1.6v1.1h-1.6v3.3c0,0.2,0,0.3,0.1,0.5
		c0.1,0.1,0.2,0.2,0.4,0.2c0.1,0,0.2,0,0.2,0c0.1,0,0.1,0,0.2-0.1c0,0,0.1,0,0.1-0.1s0.1,0,0.1,0h0.1l0.1,0.1l0.4,0.7
		c-0.2,0.2-0.5,0.3-0.7,0.4S292.2,129.3,291.9,129.3z"/>
	<path class="st0" d="M296.3,121.3c0,0.1,0,0.2-0.1,0.4c-0.1,0.1-0.1,0.2-0.2,0.3c-0.1,0.1-0.2,0.2-0.3,0.2
		c-0.1,0.1-0.2,0.1-0.4,0.1c-0.1,0-0.2,0-0.4-0.1c-0.1,0-0.2-0.1-0.3-0.2s-0.2-0.2-0.2-0.3c-0.1-0.1-0.1-0.2-0.1-0.4
		c0-0.1,0-0.3,0.1-0.4c0-0.1,0.1-0.2,0.2-0.3s0.2-0.2,0.3-0.2c0.1,0,0.2-0.1,0.4-0.1c0.1,0,0.3,0,0.4,0.1s0.2,0.1,0.3,0.2
		c0.1,0.1,0.2,0.2,0.2,0.3C296.3,121,296.3,121.1,296.3,121.3z M296.1,123.1v6.2h-1.5v-6.2C294.6,123.1,296.1,123.1,296.1,123.1z"/>
	<path class="st0" d="M298,129.2v-5l-0.5-0.1c-0.1,0-0.2-0.1-0.3-0.1s-0.1-0.1-0.1-0.3v-0.6h0.9v-0.2c0-0.4,0.1-0.7,0.2-1
		s0.3-0.6,0.6-0.8c0.3-0.2,0.6-0.4,1-0.6c0.4-0.1,0.8-0.2,1.4-0.2c0.2,0,0.3,0,0.5,0s0.3,0,0.5,0.1v0.8c0,0.1-0.1,0.1-0.1,0.2
		c-0.1,0-0.2,0-0.3,0c-0.4,0-0.7,0-1,0.1s-0.5,0.2-0.6,0.3s-0.3,0.3-0.3,0.5c-0.1,0.2-0.1,0.4-0.1,0.7v0.1h3.8v6.1h-1.5v-5h-2.3v5
		H298z"/>
	<path class="st0" d="M309.3,124.4c0,0.1-0.1,0.1-0.1,0.1s-0.1,0-0.2,0s-0.2,0-0.2-0.1c-0.1,0-0.2-0.1-0.3-0.2s-0.2-0.1-0.4-0.2
		c-0.1,0-0.3-0.1-0.5-0.1c-0.3,0-0.5,0-0.7,0.1s-0.4,0.2-0.5,0.4c-0.1,0.2-0.2,0.4-0.3,0.6s-0.1,0.5-0.1,0.8s0,0.6,0.1,0.9
		s0.2,0.5,0.3,0.6c0.1,0.2,0.3,0.3,0.5,0.4s0.4,0.1,0.6,0.1s0.4,0,0.6-0.1c0.1-0.1,0.3-0.1,0.4-0.2s0.2-0.1,0.3-0.2
		c0.1-0.1,0.2-0.1,0.2-0.1c0.1,0,0.2,0,0.3,0.1l0.4,0.5c-0.2,0.2-0.3,0.4-0.5,0.5s-0.4,0.2-0.6,0.3s-0.4,0.1-0.6,0.2
		c-0.2,0-0.4,0-0.7,0c-0.4,0-0.7-0.1-1.1-0.2s-0.6-0.3-0.9-0.6s-0.4-0.6-0.6-1c-0.1-0.4-0.2-0.8-0.2-1.3s0.1-0.9,0.2-1.3
		s0.3-0.7,0.6-1c0.3-0.3,0.6-0.5,0.9-0.7c0.4-0.2,0.8-0.2,1.3-0.2s0.9,0.1,1.2,0.2s0.7,0.4,0.9,0.6L309.3,124.4z"/>
	<path class="st0" d="M315.5,129.2h-0.7c-0.1,0-0.2,0-0.3-0.1s-0.1-0.1-0.2-0.3l-0.1-0.4c-0.2,0.1-0.3,0.3-0.5,0.4
		c-0.1,0.1-0.3,0.2-0.5,0.3s-0.3,0.1-0.5,0.2c-0.2,0-0.4,0.1-0.6,0.1c-0.3,0-0.5,0-0.7-0.1s-0.4-0.2-0.6-0.3s-0.3-0.3-0.4-0.5
		s-0.1-0.5-0.1-0.7s0.1-0.5,0.2-0.7s0.3-0.4,0.6-0.6c0.3-0.2,0.7-0.3,1.1-0.5c0.5-0.1,1.1-0.2,1.8-0.2v-0.4c0-0.4-0.1-0.7-0.3-0.9
		c-0.2-0.2-0.4-0.3-0.8-0.3c-0.2,0-0.4,0-0.6,0.1s-0.3,0.1-0.4,0.2s-0.2,0.1-0.3,0.2c-0.1,0.1-0.2,0.1-0.3,0.1c-0.1,0-0.2,0-0.3-0.1
		c-0.1-0.1-0.1-0.1-0.2-0.2l-0.3-0.5c0.7-0.6,1.6-1,2.6-1c0.4,0,0.7,0.1,1,0.2s0.5,0.3,0.7,0.5s0.3,0.5,0.4,0.8s0.2,0.6,0.2,1
		L315.5,129.2L315.5,129.2z M312.6,128.3c0.2,0,0.3,0,0.4,0s0.2-0.1,0.4-0.1s0.2-0.1,0.3-0.2c0.1-0.1,0.2-0.2,0.3-0.3v-1
		c-0.4,0-0.8,0-1.1,0.1c-0.3,0.1-0.5,0.1-0.7,0.2s-0.3,0.2-0.4,0.3s-0.1,0.2-0.1,0.4c0,0.3,0.1,0.4,0.2,0.6S312.4,128.3,312.6,128.3
		z"/>
	<path class="st0" d="M318.6,130.6L318.6,130.6c0.1,0,0.2,0,0.2,0h0.1c0,0,0.1,0,0.2,0s0.2,0,0.3-0.1c0.1-0.1,0.1-0.1,0.1-0.2
		c0-0.1-0.1-0.2-0.2-0.2s-0.4-0.1-0.7-0.1l0.2-0.8c-0.3-0.1-0.6-0.2-0.9-0.3s-0.5-0.4-0.7-0.6c-0.2-0.3-0.4-0.6-0.5-0.9
		c-0.1-0.4-0.2-0.8-0.2-1.2c0-0.5,0.1-0.9,0.2-1.3s0.3-0.7,0.6-1c0.3-0.3,0.6-0.5,0.9-0.7c0.4-0.2,0.8-0.2,1.3-0.2s0.9,0.1,1.2,0.2
		c0.3,0.1,0.7,0.4,0.9,0.6l-0.4,0.5c0,0.1-0.1,0.1-0.1,0.1s-0.1,0-0.2,0s-0.2,0-0.2-0.1c-0.1,0-0.2-0.1-0.3-0.2
		c-0.1-0.1-0.2-0.1-0.4-0.2c-0.1,0-0.3-0.1-0.5-0.1c-0.3,0-0.5,0-0.7,0.1s-0.4,0.2-0.5,0.4c-0.1,0.2-0.2,0.4-0.3,0.6
		c-0.1,0.2-0.1,0.5-0.1,0.8s0,0.6,0.1,0.9s0.2,0.5,0.3,0.6c0.1,0.2,0.3,0.3,0.5,0.4s0.4,0.1,0.6,0.1s0.4,0,0.6-0.1
		c0.1-0.1,0.3-0.1,0.4-0.2s0.2-0.1,0.3-0.2c0.1-0.1,0.2-0.1,0.2-0.1c0.1,0,0.2,0,0.3,0.1l0.4,0.5c-0.3,0.3-0.6,0.6-0.9,0.7
		s-0.7,0.2-1.1,0.3l-0.1,0.3c0.4,0.1,0.6,0.2,0.8,0.4c0.1,0.1,0.2,0.3,0.2,0.5c0,0.1,0,0.3-0.1,0.4c-0.1,0.1-0.2,0.2-0.3,0.3
		s-0.3,0.1-0.5,0.2c-0.2,0-0.4,0.1-0.6,0.1s-0.3,0-0.5,0c-0.1,0-0.3-0.1-0.4-0.1l0.1-0.5C318.4,130.6,318.5,130.6,318.6,130.6z"/>
	<path class="st0" d="M327.5,129.2h-0.7c-0.1,0-0.2,0-0.3-0.1s-0.1-0.1-0.2-0.3l-0.1-0.4c-0.2,0.1-0.3,0.3-0.5,0.4
		c-0.1,0.1-0.3,0.2-0.5,0.3s-0.3,0.1-0.5,0.2c-0.2,0-0.4,0.1-0.6,0.1c-0.3,0-0.5,0-0.7-0.1s-0.4-0.2-0.6-0.3s-0.3-0.3-0.4-0.5
		s-0.1-0.5-0.1-0.7s0.1-0.5,0.2-0.7s0.3-0.4,0.6-0.6c0.3-0.2,0.7-0.3,1.1-0.5c0.5-0.1,1.1-0.2,1.8-0.2v-0.4c0-0.4-0.1-0.7-0.3-0.9
		c-0.2-0.2-0.4-0.3-0.8-0.3c-0.2,0-0.4,0-0.6,0.1s-0.3,0.1-0.4,0.2s-0.2,0.1-0.3,0.2c-0.1,0.1-0.2,0.1-0.3,0.1c-0.1,0-0.2,0-0.3-0.1
		c-0.1-0.1-0.1-0.1-0.2-0.2l-0.3-0.5c0.7-0.6,1.6-1,2.6-1c0.4,0,0.7,0.1,1,0.2s0.5,0.3,0.7,0.5s0.3,0.5,0.4,0.8s0.2,0.6,0.2,1
		L327.5,129.2L327.5,129.2z M325.8,121.1c0.1,0,0.2,0,0.3-0.1c0.1-0.1,0.1-0.2,0.1-0.4h0.9c0,0.2,0,0.4-0.1,0.6s-0.1,0.3-0.3,0.5
		c-0.1,0.1-0.2,0.2-0.4,0.3s-0.3,0.1-0.5,0.1c-0.1,0-0.3,0-0.4-0.1s-0.2-0.1-0.3-0.2s-0.2-0.1-0.3-0.2c-0.1-0.1-0.2-0.1-0.3-0.1
		c-0.1,0-0.2,0-0.3,0.1c-0.1,0.1-0.1,0.2-0.1,0.4h-0.9c0-0.2,0-0.4,0.1-0.6s0.1-0.3,0.3-0.5s0.2-0.2,0.4-0.3
		c0.1-0.1,0.3-0.1,0.5-0.1c0.1,0,0.3,0,0.4,0.1s0.2,0.1,0.4,0.2c0.1,0.1,0.2,0.1,0.3,0.2C325.6,121,325.7,121.1,325.8,121.1z
		 M324.6,128.3c0.2,0,0.3,0,0.4,0s0.2-0.1,0.4-0.1s0.2-0.1,0.3-0.2c0.1-0.1,0.2-0.2,0.3-0.3v-1c-0.4,0-0.8,0-1.1,0.1
		c-0.3,0.1-0.5,0.1-0.7,0.2s-0.3,0.2-0.4,0.3s-0.1,0.2-0.1,0.4c0,0.3,0.1,0.4,0.2,0.6S324.4,128.3,324.6,128.3z"/>
	<path class="st0" d="M331.6,123c0.5,0,0.9,0.1,1.3,0.2s0.7,0.4,1,0.6c0.3,0.3,0.5,0.6,0.6,1s0.2,0.8,0.2,1.3s-0.1,0.9-0.2,1.3
		s-0.3,0.7-0.6,1c-0.3,0.3-0.6,0.5-1,0.6s-0.8,0.2-1.3,0.2s-0.9-0.1-1.3-0.2s-0.7-0.4-1-0.6c-0.3-0.3-0.5-0.6-0.6-1
		s-0.2-0.8-0.2-1.3s0.1-0.9,0.2-1.3s0.4-0.7,0.6-1c0.3-0.3,0.6-0.5,1-0.6S331.1,123,331.6,123z M331.6,128.2c0.5,0,0.9-0.2,1.1-0.5
		s0.4-0.8,0.4-1.5s-0.1-1.2-0.4-1.5c-0.2-0.3-0.6-0.5-1.1-0.5s-0.9,0.2-1.2,0.5c-0.2,0.3-0.4,0.9-0.4,1.5c0,0.7,0.1,1.2,0.4,1.5
		C330.7,128,331.1,128.2,331.6,128.2z"/>
</g>
<g>
	<path class="st0" d="M278.3,182.1h-1.2c-0.1,0-0.3,0-0.3-0.1c-0.1-0.1-0.2-0.2-0.2-0.3l-0.6-1.8h-3.6l-0.6,1.8
		c0,0.1-0.1,0.2-0.2,0.3s-0.2,0.1-0.3,0.1H270l3.4-8.7h1.7L278.3,182.1z M272.7,178.8h2.8l-1.1-2.9c0-0.1-0.1-0.3-0.2-0.5
		s-0.1-0.4-0.2-0.6c-0.1,0.2-0.1,0.4-0.2,0.6c-0.1,0.2-0.1,0.3-0.2,0.5L272.7,178.8z"/>
	<path class="st0" d="M279.1,182.1v-6.2h0.9c0.2,0,0.3,0.1,0.4,0.3l0.1,0.5c0.1-0.1,0.3-0.2,0.4-0.3s0.3-0.2,0.4-0.3
		c0.2-0.1,0.3-0.1,0.5-0.2c0.2,0,0.4-0.1,0.6-0.1c0.3,0,0.6,0.1,0.9,0.2c0.3,0.1,0.5,0.3,0.7,0.5s0.3,0.5,0.4,0.7
		c0.1,0.3,0.1,0.6,0.1,0.9v3.9H283v-3.9c0-0.4-0.1-0.7-0.3-0.9s-0.4-0.3-0.8-0.3c-0.3,0-0.5,0.1-0.7,0.2s-0.4,0.3-0.6,0.5v4.5
		L279.1,182.1L279.1,182.1z"/>
	<path class="st0" d="M290.8,182.1h-0.7c-0.1,0-0.2,0-0.3-0.1s-0.1-0.1-0.2-0.3l-0.1-0.4c-0.2,0.1-0.3,0.3-0.5,0.4
		c-0.1,0.1-0.3,0.2-0.5,0.3s-0.3,0.1-0.5,0.2c-0.2,0-0.4,0.1-0.6,0.1c-0.3,0-0.5,0-0.7-0.1s-0.4-0.2-0.6-0.3s-0.3-0.3-0.4-0.5
		s-0.1-0.5-0.1-0.7s0.1-0.5,0.2-0.7s0.3-0.4,0.6-0.6c0.3-0.2,0.7-0.3,1.1-0.5c0.5-0.1,1.1-0.2,1.8-0.2v-0.4c0-0.4-0.1-0.7-0.3-0.9
		c-0.2-0.2-0.4-0.3-0.8-0.3c-0.2,0-0.4,0-0.6,0.1s-0.3,0.1-0.4,0.2c-0.1,0.1-0.2,0.1-0.3,0.2s-0.2,0.1-0.3,0.1c-0.1,0-0.2,0-0.3-0.1
		s-0.1-0.1-0.2-0.2l-0.3-0.5c0.7-0.6,1.6-1,2.6-1c0.4,0,0.7,0.1,1,0.2s0.5,0.3,0.7,0.5s0.3,0.5,0.4,0.8s0.2,0.6,0.2,1L290.8,182.1
		L290.8,182.1z M287.9,181.1c0.2,0,0.3,0,0.4,0s0.2-0.1,0.4-0.1c0.1-0.1,0.2-0.1,0.3-0.2c0.1-0.1,0.2-0.2,0.3-0.3v-1
		c-0.4,0-0.8,0-1.1,0.1s-0.5,0.1-0.7,0.2c-0.2,0.1-0.3,0.2-0.4,0.3s-0.1,0.2-0.1,0.4c0,0.3,0.1,0.4,0.2,0.6
		C287.4,181.1,287.6,181.1,287.9,181.1z M290.5,173.3l-1.5,1.6c-0.1,0.1-0.1,0.1-0.2,0.2c-0.1,0-0.2,0-0.3,0h-0.9l0.9-1.5
		c0.1-0.1,0.1-0.2,0.2-0.2c0.1-0.1,0.2-0.1,0.4-0.1H290.5z"/>
	<path class="st0" d="M293.8,173.1v8.9h-1.5v-8.9H293.8z"/>
	<path class="st0" d="M297.3,174.1c0,0.1,0,0.2-0.1,0.4s-0.1,0.2-0.2,0.3s-0.2,0.2-0.3,0.2s-0.2,0.1-0.4,0.1c-0.1,0-0.2,0-0.4-0.1
		s-0.2-0.1-0.3-0.2s-0.2-0.2-0.2-0.3s-0.1-0.2-0.1-0.4c0-0.1,0-0.3,0.1-0.4c0-0.1,0.1-0.2,0.2-0.3s0.2-0.2,0.3-0.2
		c0.1,0,0.2-0.1,0.4-0.1c0.1,0,0.3,0,0.4,0.1s0.2,0.1,0.3,0.2s0.2,0.2,0.2,0.3C297.3,173.9,297.3,174,297.3,174.1z M297.1,175.9v6.2
		h-1.5v-6.2H297.1z"/>
	<path class="st0" d="M302.4,177.1c0,0.1-0.1,0.1-0.1,0.1s-0.1,0-0.2,0s-0.1,0-0.2-0.1s-0.2-0.1-0.3-0.1s-0.2-0.1-0.4-0.1
		s-0.3-0.1-0.5-0.1c-0.3,0-0.5,0.1-0.7,0.2s-0.3,0.3-0.3,0.5c0,0.1,0,0.2,0.1,0.3s0.2,0.2,0.3,0.2s0.3,0.1,0.5,0.2
		c0.2,0.1,0.4,0.1,0.6,0.2c0.2,0.1,0.4,0.1,0.6,0.2c0.2,0.1,0.3,0.2,0.5,0.3c0.1,0.1,0.3,0.3,0.3,0.5s0.1,0.4,0.1,0.6
		c0,0.3-0.1,0.6-0.2,0.8s-0.3,0.5-0.5,0.6c-0.2,0.2-0.5,0.3-0.8,0.4c-0.3,0.1-0.7,0.2-1.1,0.2c-0.2,0-0.4,0-0.6-0.1
		s-0.4-0.1-0.6-0.2c-0.2-0.1-0.4-0.1-0.5-0.2c-0.2-0.1-0.3-0.2-0.4-0.3l0.3-0.6c0-0.1,0.1-0.1,0.2-0.2c0.1,0,0.1-0.1,0.2-0.1
		s0.2,0,0.3,0.1s0.2,0.1,0.3,0.2c0.1,0.1,0.2,0.1,0.4,0.2c0.1,0.1,0.3,0.1,0.6,0.1c0.2,0,0.3,0,0.5-0.1s0.2-0.1,0.3-0.2
		c0.1-0.1,0.1-0.1,0.2-0.2c0-0.1,0.1-0.2,0.1-0.3s0-0.3-0.1-0.4c-0.1-0.1-0.2-0.2-0.3-0.2c-0.1-0.1-0.3-0.1-0.5-0.2
		c-0.2-0.1-0.4-0.1-0.6-0.2c-0.2-0.1-0.4-0.1-0.6-0.2c-0.2-0.1-0.3-0.2-0.5-0.3c-0.1-0.1-0.3-0.3-0.3-0.5s-0.1-0.4-0.1-0.7
		s0-0.5,0.2-0.7c0.1-0.2,0.2-0.4,0.4-0.6c0.2-0.2,0.4-0.3,0.7-0.4c0.3-0.1,0.6-0.2,1-0.2s0.8,0.1,1.2,0.2c0.3,0.1,0.6,0.3,0.9,0.6
		L302.4,177.1z"/>
	<path class="st0" d="M306.5,175.8c0.4,0,0.7,0.1,1.1,0.2c0.3,0.1,0.6,0.3,0.8,0.5c0.2,0.2,0.4,0.5,0.6,0.9c0.1,0.3,0.2,0.7,0.2,1.2
		c0,0.1,0,0.2,0,0.3s0,0.1-0.1,0.2s-0.1,0.1-0.1,0.1s-0.1,0-0.2,0H305c0,0.6,0.2,1.1,0.5,1.4c0.3,0.3,0.7,0.4,1.2,0.4
		c0.2,0,0.4,0,0.6-0.1s0.3-0.1,0.5-0.2c0.1-0.1,0.2-0.1,0.3-0.2c0.1-0.1,0.2-0.1,0.3-0.1c0.1,0,0.1,0,0.2,0l0.1,0.1l0.4,0.5
		c-0.2,0.2-0.3,0.4-0.6,0.5s-0.4,0.2-0.6,0.3s-0.4,0.1-0.7,0.2c-0.2,0-0.5,0-0.7,0c-0.4,0-0.8-0.1-1.2-0.2c-0.4-0.1-0.7-0.4-1-0.6
		c-0.3-0.3-0.5-0.6-0.6-1c-0.2-0.4-0.2-0.9-0.2-1.4c0-0.4,0.1-0.8,0.2-1.2s0.3-0.7,0.6-1c0.3-0.3,0.6-0.5,0.9-0.7
		S306.1,175.8,306.5,175.8z M306.5,176.9c-0.4,0-0.8,0.1-1,0.4c-0.2,0.2-0.4,0.6-0.5,1h2.8c0-0.2,0-0.4-0.1-0.5s-0.1-0.3-0.2-0.4
		c-0.1-0.1-0.2-0.2-0.4-0.3C307,176.9,306.8,176.9,306.5,176.9z"/>
	<path class="st0" d="M315.2,175.8c0.4,0,0.7,0.1,1.1,0.2s0.6,0.3,0.8,0.5c0.2,0.2,0.4,0.5,0.6,0.9c0.1,0.3,0.2,0.7,0.2,1.2
		c0,0.1,0,0.2,0,0.3s0,0.1-0.1,0.2l-0.1,0.1c0,0-0.1,0-0.2,0h-3.8c0,0.6,0.2,1.1,0.5,1.4s0.7,0.4,1.2,0.4c0.2,0,0.4,0,0.6-0.1
		s0.3-0.1,0.5-0.2c0.1-0.1,0.2-0.1,0.3-0.2c0.1-0.1,0.2-0.1,0.3-0.1c0.1,0,0.1,0,0.2,0l0.1,0.1l0.4,0.5c-0.2,0.2-0.3,0.4-0.6,0.5
		s-0.4,0.2-0.6,0.3s-0.4,0.1-0.7,0.2c-0.2,0-0.5,0-0.7,0c-0.4,0-0.8-0.1-1.2-0.2c-0.4-0.1-0.7-0.4-1-0.6c-0.3-0.3-0.5-0.6-0.6-1
		c-0.2-0.4-0.2-0.9-0.2-1.4c0-0.4,0.1-0.8,0.2-1.2s0.3-0.7,0.6-1c0.3-0.3,0.6-0.5,0.9-0.7C314.4,175.9,314.8,175.8,315.2,175.8z
		 M315.3,176.9c-0.4,0-0.8,0.1-1,0.4c-0.2,0.2-0.4,0.6-0.5,1h2.8c0-0.2,0-0.4-0.1-0.5c-0.1-0.2-0.1-0.3-0.2-0.4
		c-0.1-0.1-0.2-0.2-0.4-0.3C315.7,176.9,315.5,176.9,315.3,176.9z"/>
	<path class="st0" d="M259.6,196.5H258v-8.7h1.6V196.5z"/>
	<path class="st0" d="M261.4,196.5v-6.2h0.9c0.2,0,0.3,0.1,0.4,0.3l0.1,0.5c0.1-0.1,0.3-0.2,0.4-0.3s0.3-0.2,0.4-0.3
		c0.2-0.1,0.3-0.1,0.5-0.2s0.4-0.1,0.6-0.1c0.3,0,0.6,0.1,0.9,0.2s0.5,0.3,0.7,0.5s0.3,0.5,0.4,0.7s0.1,0.6,0.1,0.9v3.9h-1.5v-3.9
		c0-0.4-0.1-0.7-0.3-0.9c-0.2-0.2-0.4-0.3-0.8-0.3c-0.3,0-0.5,0.1-0.7,0.2c-0.2,0.1-0.4,0.3-0.6,0.5v4.5L261.4,196.5L261.4,196.5z"
		/>
	<path class="st0" d="M270.3,196.6c-0.5,0-0.9-0.2-1.2-0.5s-0.4-0.7-0.4-1.3v-3.4H268c-0.1,0-0.1,0-0.2-0.1s-0.1-0.1-0.1-0.2v-0.6
		l1-0.2l0.3-1.7c0-0.1,0.1-0.1,0.1-0.2c0.1,0,0.1-0.1,0.2-0.1h0.8v1.9h1.6v1.1h-1.6v3.3c0,0.2,0,0.3,0.1,0.5
		c0.1,0.1,0.2,0.2,0.4,0.2c0.1,0,0.2,0,0.2,0c0.1,0,0.1,0,0.2-0.1c0,0,0.1,0,0.1-0.1h0.1h0.1l0.1,0.1l0.4,0.7
		c-0.2,0.2-0.5,0.3-0.7,0.4C270.9,196.5,270.6,196.6,270.3,196.6z"/>
	<path class="st0" d="M275.4,190.2c0.4,0,0.7,0.1,1.1,0.2c0.3,0.1,0.6,0.3,0.8,0.5c0.2,0.2,0.4,0.5,0.6,0.9c0.1,0.3,0.2,0.7,0.2,1.2
		c0,0.1,0,0.2,0,0.3s0,0.1-0.1,0.2s-0.1,0.1-0.1,0.1s-0.1,0-0.2,0H274c0,0.6,0.2,1.1,0.5,1.4c0.3,0.3,0.7,0.4,1.2,0.4
		c0.2,0,0.4,0,0.6-0.1s0.3-0.1,0.5-0.2c0.1-0.1,0.2-0.1,0.3-0.2c0.1-0.1,0.2-0.1,0.3-0.1c0.1,0,0.1,0,0.2,0l0.1,0.1l0.4,0.5
		c-0.2,0.2-0.3,0.4-0.6,0.5s-0.4,0.2-0.6,0.3s-0.4,0.1-0.7,0.2c-0.2,0-0.5,0-0.7,0c-0.4,0-0.8-0.1-1.2-0.2c-0.4-0.1-0.7-0.4-1-0.6
		c-0.3-0.3-0.5-0.6-0.6-1c-0.2-0.4-0.2-0.9-0.2-1.4c0-0.4,0.1-0.8,0.2-1.2s0.3-0.7,0.6-1c0.3-0.3,0.6-0.5,0.9-0.7
		C274.6,190.3,275,190.2,275.4,190.2z M275.5,191.3c-0.4,0-0.8,0.1-1,0.4s-0.4,0.6-0.5,1h2.8c0-0.2,0-0.4-0.1-0.5s-0.1-0.3-0.2-0.4
		c-0.1-0.1-0.2-0.2-0.4-0.3S275.7,191.3,275.5,191.3z"/>
	<path class="st0" d="M279.3,196.5v-6.2h0.9c0.2,0,0.3,0,0.3,0.1c0.1,0.1,0.1,0.2,0.1,0.3l0.1,0.7c0.2-0.4,0.5-0.7,0.8-0.9
		s0.6-0.3,1-0.3c0.3,0,0.6,0.1,0.8,0.2l-0.2,1.1c0,0.1,0,0.1-0.1,0.2c0,0-0.1,0-0.2,0s-0.1,0-0.2,0s-0.2,0-0.4,0
		c-0.3,0-0.6,0.1-0.8,0.3c-0.2,0.2-0.4,0.4-0.6,0.7v3.8L279.3,196.5L279.3,196.5z"/>
	<path class="st0" d="M284.2,198.5v-8.2h0.9c0.1,0,0.2,0,0.2,0.1s0.1,0.1,0.1,0.2l0.1,0.6c0.2-0.3,0.5-0.5,0.9-0.7
		c0.3-0.2,0.7-0.3,1.1-0.3c0.3,0,0.6,0.1,0.9,0.2c0.3,0.1,0.5,0.3,0.7,0.6s0.4,0.6,0.5,1s0.2,0.8,0.2,1.3s-0.1,0.9-0.2,1.3
		c-0.1,0.4-0.3,0.7-0.5,1s-0.5,0.5-0.8,0.7s-0.7,0.2-1.1,0.2c-0.3,0-0.6-0.1-0.9-0.2c-0.2-0.1-0.5-0.3-0.7-0.4v2.5L284.2,198.5
		L284.2,198.5z M287.1,191.4c-0.3,0-0.6,0.1-0.8,0.2c-0.2,0.1-0.4,0.3-0.6,0.5v2.8c0.2,0.2,0.4,0.4,0.5,0.4s0.4,0.1,0.6,0.1
		s0.4,0,0.6-0.1s0.3-0.2,0.5-0.4s0.2-0.4,0.3-0.7s0.1-0.6,0.1-0.9c0-0.4,0-0.7-0.1-0.9s-0.1-0.5-0.2-0.6c-0.1-0.2-0.2-0.3-0.4-0.3
		S287.3,191.4,287.1,191.4z"/>
	<path class="st0" d="M291,196.5v-6.2h0.9c0.2,0,0.3,0,0.3,0.1c0.1,0.1,0.1,0.2,0.1,0.3l0.1,0.7c0.2-0.4,0.5-0.7,0.8-0.9
		s0.6-0.3,1-0.3c0.3,0,0.6,0.1,0.8,0.2l-0.2,1.1c0,0.1,0,0.1-0.1,0.2c0,0-0.1,0-0.2,0s-0.1,0-0.2,0s-0.2,0-0.4,0
		c-0.3,0-0.6,0.1-0.8,0.3c-0.2,0.2-0.4,0.4-0.6,0.7v3.8L291,196.5L291,196.5z"/>
	<path class="st0" d="M298.4,190.2c0.4,0,0.7,0.1,1.1,0.2s0.6,0.3,0.8,0.5c0.2,0.2,0.4,0.5,0.6,0.9c0.1,0.3,0.2,0.7,0.2,1.2
		c0,0.1,0,0.2,0,0.3s0,0.1-0.1,0.2l-0.1,0.1c0,0-0.1,0-0.2,0H297c0,0.6,0.2,1.1,0.5,1.4s0.7,0.4,1.2,0.4c0.2,0,0.4,0,0.6-0.1
		s0.3-0.1,0.5-0.2s0.2-0.1,0.3-0.2c0.1-0.1,0.2-0.1,0.3-0.1c0.1,0,0.1,0,0.2,0l0.1,0.1l0.4,0.5c-0.2,0.2-0.3,0.4-0.6,0.5
		s-0.4,0.2-0.6,0.3s-0.4,0.1-0.7,0.2c-0.2,0-0.5,0-0.7,0c-0.4,0-0.8-0.1-1.2-0.2c-0.4-0.1-0.7-0.4-1-0.6c-0.3-0.3-0.5-0.6-0.6-1
		s-0.2-0.9-0.2-1.4c0-0.4,0.1-0.8,0.2-1.2s0.3-0.7,0.6-1c0.3-0.3,0.6-0.5,0.9-0.7C297.6,190.3,298,190.2,298.4,190.2z M298.5,191.3
		c-0.4,0-0.8,0.1-1,0.4c-0.2,0.2-0.4,0.6-0.5,1h2.8c0-0.2,0-0.4-0.1-0.5c-0.1-0.2-0.1-0.3-0.2-0.4c-0.1-0.1-0.2-0.2-0.4-0.3
		S298.7,191.3,298.5,191.3z"/>
	<path class="st0" d="M304.3,196.6c-0.5,0-0.9-0.2-1.2-0.5s-0.4-0.7-0.4-1.3v-3.4H302c-0.1,0-0.1,0-0.2-0.1s-0.1-0.1-0.1-0.2v-0.6
		l1-0.2l0.3-1.7c0-0.1,0.1-0.1,0.1-0.2c0.1,0,0.1-0.1,0.2-0.1h0.8v1.9h1.6v1.1h-1.6v3.3c0,0.2,0,0.3,0.1,0.5
		c0.1,0.1,0.2,0.2,0.4,0.2c0.1,0,0.2,0,0.2,0c0.1,0,0.1,0,0.2-0.1s0.1,0,0.1-0.1h0.1h0.1l0.1,0.1l0.4,0.7c-0.2,0.2-0.5,0.3-0.7,0.4
		S304.6,196.6,304.3,196.6z"/>
	<path class="st0" d="M311.8,196.5h-0.7c-0.1,0-0.2,0-0.3-0.1s-0.1-0.1-0.2-0.3l-0.1-0.4c-0.2,0.1-0.3,0.3-0.5,0.4
		c-0.2,0.1-0.3,0.2-0.5,0.3s-0.3,0.1-0.5,0.2c-0.2,0-0.4,0.1-0.6,0.1c-0.3,0-0.5,0-0.7-0.1s-0.4-0.2-0.6-0.3s-0.3-0.3-0.4-0.5
		s-0.1-0.5-0.1-0.7s0.1-0.5,0.2-0.7s0.3-0.4,0.6-0.6s0.7-0.3,1.1-0.5c0.5-0.1,1.1-0.2,1.8-0.2v-0.4c0-0.4-0.1-0.7-0.3-0.9
		c-0.2-0.2-0.4-0.3-0.8-0.3c-0.2,0-0.4,0-0.6,0.1s-0.3,0.1-0.4,0.2c-0.1,0.1-0.2,0.1-0.3,0.2c-0.1,0.1-0.2,0.1-0.3,0.1
		c-0.1,0-0.2,0-0.3-0.1c-0.1-0.1-0.1-0.1-0.2-0.2l-0.3-0.5c0.7-0.6,1.6-1,2.6-1c0.4,0,0.7,0.1,1,0.2c0.3,0.1,0.5,0.3,0.7,0.5
		s0.3,0.5,0.4,0.8s0.2,0.6,0.2,1L311.8,196.5L311.8,196.5z M308.9,195.5c0.2,0,0.3,0,0.4,0s0.2-0.1,0.4-0.1c0.1-0.1,0.2-0.1,0.3-0.2
		c0.1-0.1,0.2-0.2,0.3-0.3v-1c-0.4,0-0.8,0-1.1,0.1c-0.3,0.1-0.5,0.1-0.7,0.2c-0.2,0.1-0.3,0.2-0.4,0.3s-0.1,0.2-0.1,0.4
		c0,0.3,0.1,0.4,0.2,0.6C308.4,195.5,308.6,195.5,308.9,195.5z"/>
	<path class="st0" d="M314.9,197.8L314.9,197.8c0.1,0,0.2,0,0.2,0h0.1c0,0,0.1,0,0.2,0s0.2,0,0.3-0.1c0.1-0.1,0.1-0.1,0.1-0.2
		c0-0.1-0.1-0.2-0.2-0.2s-0.4-0.1-0.7-0.1l0.2-0.8c-0.3-0.1-0.6-0.2-0.9-0.3s-0.5-0.4-0.7-0.6c-0.2-0.3-0.4-0.6-0.5-0.9
		s-0.2-0.8-0.2-1.2c0-0.5,0.1-0.9,0.2-1.3c0.1-0.4,0.3-0.7,0.6-1c0.3-0.3,0.6-0.5,0.9-0.7c0.4-0.2,0.8-0.2,1.3-0.2s0.9,0.1,1.2,0.2
		c0.3,0.1,0.7,0.4,0.9,0.6l-0.4,0.5c0,0.1-0.1,0.1-0.1,0.1s-0.1,0-0.2,0s-0.2,0-0.2-0.1c-0.1,0-0.2-0.1-0.3-0.2
		c-0.1-0.1-0.2-0.1-0.4-0.2c-0.1,0-0.3-0.1-0.5-0.1c-0.3,0-0.5,0-0.7,0.1s-0.4,0.2-0.5,0.4s-0.2,0.4-0.3,0.6
		c-0.1,0.2-0.1,0.5-0.1,0.8s0,0.6,0.1,0.9c0.1,0.3,0.2,0.5,0.3,0.6s0.3,0.3,0.5,0.4c0.2,0.1,0.4,0.1,0.6,0.1s0.4,0,0.6-0.1
		c0.1-0.1,0.3-0.1,0.4-0.2c0.1-0.1,0.2-0.1,0.3-0.2c0.1-0.1,0.2-0.1,0.2-0.1c0.1,0,0.2,0,0.3,0.1l0.4,0.5c-0.3,0.3-0.6,0.6-0.9,0.7
		c-0.3,0.1-0.7,0.2-1.1,0.3l-0.1,0.3c0.4,0.1,0.6,0.2,0.8,0.4c0.1,0.2,0.2,0.3,0.2,0.5c0,0.1,0,0.3-0.1,0.4
		c-0.1,0.1-0.2,0.2-0.3,0.3s-0.3,0.1-0.5,0.2c-0.2,0-0.4,0.1-0.6,0.1s-0.3,0-0.5,0c-0.1,0-0.3-0.1-0.4-0.1l0.1-0.5
		C314.7,197.9,314.8,197.8,314.9,197.8z"/>
	<path class="st0" d="M323.8,196.5h-0.7c-0.1,0-0.2,0-0.3-0.1s-0.1-0.1-0.2-0.3l-0.1-0.4c-0.2,0.1-0.3,0.3-0.5,0.4
		c-0.1,0.1-0.3,0.2-0.5,0.3s-0.3,0.1-0.5,0.2c-0.2,0-0.4,0.1-0.6,0.1c-0.3,0-0.5,0-0.7-0.1s-0.4-0.2-0.6-0.3s-0.3-0.3-0.4-0.5
		s-0.1-0.5-0.1-0.7s0.1-0.5,0.2-0.7s0.3-0.4,0.6-0.6c0.3-0.2,0.7-0.3,1.1-0.5c0.5-0.1,1.1-0.2,1.8-0.2v-0.4c0-0.4-0.1-0.7-0.3-0.9
		c-0.2-0.2-0.4-0.3-0.8-0.3c-0.2,0-0.4,0-0.6,0.1s-0.3,0.1-0.4,0.2s-0.2,0.1-0.3,0.2c-0.1,0.1-0.2,0.1-0.3,0.1c-0.1,0-0.2,0-0.3-0.1
		c-0.1-0.1-0.1-0.1-0.2-0.2l-0.3-0.5c0.7-0.6,1.6-1,2.6-1c0.4,0,0.7,0.1,1,0.2c0.3,0.1,0.5,0.3,0.7,0.5s0.3,0.5,0.4,0.8
		s0.2,0.6,0.2,1L323.8,196.5L323.8,196.5z M322.1,188.3c0.1,0,0.2,0,0.3-0.1c0.1-0.1,0.1-0.2,0.1-0.4h0.9c0,0.2,0,0.4-0.1,0.6
		c-0.1,0.2-0.1,0.3-0.3,0.5c-0.1,0.1-0.2,0.2-0.4,0.3c-0.2,0.1-0.3,0.1-0.5,0.1c-0.1,0-0.3,0-0.4-0.1s-0.2-0.1-0.3-0.2
		c-0.1-0.1-0.2-0.1-0.3-0.2s-0.2-0.1-0.3-0.1c-0.1,0-0.2,0-0.3,0.1c-0.1,0.1-0.1,0.2-0.1,0.4h-0.9c0-0.2,0-0.4,0.1-0.6
		c0.1-0.2,0.1-0.3,0.3-0.5s0.2-0.2,0.4-0.3c0.1-0.1,0.3-0.1,0.5-0.1c0.1,0,0.3,0,0.4,0.1s0.2,0.1,0.4,0.2c0.1,0.1,0.2,0.1,0.3,0.2
		C321.9,188.3,322,188.3,322.1,188.3z M320.9,195.5c0.2,0,0.3,0,0.4,0s0.2-0.1,0.4-0.1c0.1-0.1,0.2-0.1,0.3-0.2
		c0.1-0.1,0.2-0.2,0.3-0.3v-1c-0.4,0-0.8,0-1.1,0.1c-0.3,0.1-0.5,0.1-0.7,0.2c-0.2,0.1-0.3,0.2-0.4,0.3s-0.1,0.2-0.1,0.4
		c0,0.3,0.1,0.4,0.2,0.6C320.5,195.5,320.7,195.5,320.9,195.5z"/>
	<path class="st0" d="M327.9,190.2c0.5,0,0.9,0.1,1.3,0.2c0.4,0.1,0.7,0.4,1,0.6c0.3,0.3,0.5,0.6,0.6,1s0.2,0.8,0.2,1.3
		s-0.1,0.9-0.2,1.3c-0.1,0.4-0.3,0.7-0.6,1c-0.3,0.3-0.6,0.5-1,0.6s-0.8,0.2-1.3,0.2s-0.9-0.1-1.3-0.2c-0.4-0.1-0.7-0.4-1-0.6
		c-0.3-0.3-0.5-0.6-0.6-1s-0.2-0.8-0.2-1.3s0.1-0.9,0.2-1.3c0.1-0.4,0.4-0.7,0.6-1c0.3-0.3,0.6-0.5,1-0.6
		C327,190.3,327.4,190.2,327.9,190.2z M327.9,195.4c0.5,0,0.9-0.2,1.1-0.5s0.4-0.8,0.4-1.5s-0.1-1.2-0.4-1.5
		c-0.2-0.3-0.6-0.5-1.1-0.5s-0.9,0.2-1.2,0.5c-0.2,0.3-0.4,0.9-0.4,1.5s0.1,1.2,0.4,1.5S327.3,195.4,327.9,195.4z"/>
</g>
<g>
	<path class="st0" d="M36.1,111.6c0.1,0.1,0.1,0.3,0.2,0.4c0.1-0.1,0.1-0.3,0.2-0.4s0.1-0.3,0.2-0.4l2.6-4.8c0-0.1,0.1-0.1,0.1-0.1
		l0.1-0.1h0.1c0.1,0,0.1,0,0.2,0H41v8.7h-1.4v-5.6c0-0.1,0-0.2,0-0.3s0-0.2,0-0.4l-2.6,4.9c-0.1,0.1-0.1,0.2-0.2,0.3
		s-0.2,0.1-0.3,0.1h-0.2c-0.1,0-0.2,0-0.3-0.1s-0.2-0.1-0.2-0.3l-2.7-4.9c0,0.1,0,0.3,0,0.4s0,0.2,0,0.4v5.6h-1.4v-8.7h1.2
		c0.1,0,0.1,0,0.2,0c0.1,0,0.1,0,0.1,0s0.1,0,0.1,0.1s0.1,0.1,0.1,0.1l2.6,4.8C35.9,111.3,36,111.5,36.1,111.6z"/>
	<path class="st0" d="M45.2,108.6c0.5,0,0.9,0.1,1.3,0.2s0.7,0.4,1,0.6s0.5,0.6,0.6,1s0.2,0.8,0.2,1.3s-0.1,0.9-0.2,1.3
		c-0.1,0.4-0.3,0.7-0.6,1s-0.6,0.5-1,0.6s-0.8,0.2-1.3,0.2s-0.9-0.1-1.3-0.2s-0.7-0.4-1-0.6c-0.3-0.3-0.5-0.6-0.6-1
		s-0.2-0.8-0.2-1.3s0.1-0.9,0.2-1.3s0.4-0.7,0.6-1c0.3-0.3,0.6-0.5,1-0.6S44.8,108.6,45.2,108.6z M45.2,113.8c0.5,0,0.9-0.2,1.1-0.5
		c0.2-0.3,0.4-0.8,0.4-1.5s-0.1-1.2-0.4-1.5c-0.2-0.3-0.6-0.5-1.1-0.5s-0.9,0.2-1.2,0.5c-0.2,0.3-0.4,0.9-0.4,1.5
		c0,0.7,0.1,1.2,0.4,1.5C44.3,113.6,44.7,113.8,45.2,113.8z"/>
	<path class="st0" d="M49.4,114.8v-6.2h0.9c0.2,0,0.3,0.1,0.4,0.3l0.1,0.5c0.1-0.1,0.3-0.2,0.4-0.3c0.1-0.1,0.3-0.2,0.4-0.3
		c0.2-0.1,0.3-0.1,0.5-0.2c0.2,0,0.4-0.1,0.6-0.1c0.3,0,0.6,0.1,0.9,0.2c0.3,0.1,0.5,0.3,0.7,0.5s0.3,0.5,0.4,0.7
		c0.1,0.3,0.1,0.6,0.1,0.9v3.9h-1.5v-3.9c0-0.4-0.1-0.7-0.3-0.9c-0.2-0.2-0.4-0.3-0.8-0.3c-0.3,0-0.5,0.1-0.7,0.2s-0.4,0.3-0.6,0.5
		v4.5C50.9,114.8,49.4,114.8,49.4,114.8z"/>
	<path class="st0" d="M58,106.9c0,0.1,0,0.2-0.1,0.4c-0.1,0.1-0.1,0.2-0.2,0.3c-0.1,0.1-0.2,0.2-0.3,0.2c-0.1,0.1-0.2,0.1-0.4,0.1
		c-0.1,0-0.2,0-0.4-0.1c-0.1,0-0.2-0.1-0.3-0.2s-0.2-0.2-0.2-0.3c-0.1-0.1-0.1-0.2-0.1-0.4c0-0.1,0-0.3,0.1-0.4
		c0-0.1,0.1-0.2,0.2-0.3s0.2-0.2,0.3-0.2s0.2-0.1,0.4-0.1c0.1,0,0.3,0,0.4,0.1c0.1,0.1,0.2,0.1,0.3,0.2s0.2,0.2,0.2,0.3
		C58,106.6,58,106.7,58,106.9z M57.8,108.7v6.2h-1.5v-6.2H57.8z"/>
	<path class="st0" d="M61.5,114.9c-0.5,0-0.9-0.2-1.2-0.5s-0.4-0.7-0.4-1.3v-3.4h-0.6c-0.1,0-0.1,0-0.2-0.1
		c-0.1-0.1-0.1-0.1-0.1-0.2v-0.6l1-0.2l0.3-1.7c0-0.1,0.1-0.1,0.1-0.2s0.1-0.1,0.2-0.1h0.8v1.9H63v1.1h-1.6v3.3c0,0.2,0,0.3,0.1,0.5
		c0.1,0.1,0.2,0.2,0.4,0.2c0.1,0,0.2,0,0.2,0s0.1,0,0.2-0.1c0,0,0.1,0,0.1-0.1h0.1h0.1l0.1,0.1l0.4,0.7c-0.2,0.2-0.5,0.3-0.7,0.4
		C62.1,114.9,61.8,114.9,61.5,114.9z"/>
	<path class="st0" d="M66.8,108.6c0.5,0,0.9,0.1,1.3,0.2s0.7,0.4,1,0.6s0.5,0.6,0.6,1s0.2,0.8,0.2,1.3s-0.1,0.9-0.2,1.3
		s-0.3,0.7-0.6,1s-0.6,0.5-1,0.6s-0.8,0.2-1.3,0.2s-0.9-0.1-1.3-0.2s-0.7-0.4-1-0.6c-0.3-0.3-0.5-0.6-0.6-1s-0.2-0.8-0.2-1.3
		s0.1-0.9,0.2-1.3c0.1-0.4,0.4-0.7,0.6-1c0.3-0.3,0.6-0.5,1-0.6S66.3,108.6,66.8,108.6z M66.8,113.8c0.5,0,0.9-0.2,1.1-0.5
		s0.4-0.8,0.4-1.5s-0.1-1.2-0.4-1.5c-0.2-0.3-0.6-0.5-1.1-0.5s-0.9,0.2-1.2,0.5c-0.2,0.3-0.4,0.9-0.4,1.5c0,0.7,0.1,1.2,0.4,1.5
		C65.9,113.6,66.2,113.8,66.8,113.8z"/>
	<path class="st0" d="M71,114.8v-6.2h0.9c0.2,0,0.3,0,0.3,0.1c0.1,0.1,0.1,0.2,0.1,0.3l0.1,0.7c0.2-0.4,0.5-0.7,0.8-0.9
		s0.6-0.3,1-0.3c0.3,0,0.6,0.1,0.8,0.2l-0.2,1.1c0,0.1,0,0.1-0.1,0.2c0,0-0.1,0-0.2,0s-0.1,0-0.2,0s-0.2,0-0.4,0
		c-0.3,0-0.6,0.1-0.8,0.3c-0.2,0.2-0.4,0.4-0.6,0.7v3.8C72.5,114.8,71,114.8,71,114.8z"/>
	<path class="st0" d="M80.5,114.8h-0.7c-0.1,0-0.2,0-0.3-0.1s-0.1-0.1-0.2-0.3l-0.1-0.4c-0.2,0.1-0.3,0.3-0.5,0.4
		c-0.1,0.1-0.3,0.2-0.5,0.3c-0.2,0.1-0.3,0.1-0.5,0.2s-0.4,0.1-0.6,0.1c-0.3,0-0.5,0-0.7-0.1s-0.4-0.2-0.6-0.3
		c-0.2-0.1-0.3-0.3-0.4-0.5s-0.1-0.5-0.1-0.7s0.1-0.5,0.2-0.7s0.3-0.4,0.6-0.6c0.3-0.2,0.7-0.3,1.1-0.5c0.5-0.1,1.1-0.2,1.8-0.2V111
		c0-0.4-0.1-0.7-0.3-0.9c-0.2-0.2-0.4-0.3-0.8-0.3c-0.2,0-0.4,0-0.6,0.1s-0.3,0.1-0.4,0.2s-0.2,0.1-0.3,0.2
		c-0.1,0.1-0.2,0.1-0.3,0.1c-0.1,0-0.2,0-0.3-0.1c-0.1-0.1-0.1-0.1-0.2-0.2l-0.3-0.5c0.7-0.6,1.6-1,2.6-1c0.4,0,0.7,0.1,1,0.2
		s0.5,0.3,0.7,0.5s0.3,0.5,0.4,0.8s0.2,0.6,0.2,1v3.7L80.5,114.8L80.5,114.8z M77.6,113.9c0.2,0,0.3,0,0.4,0s0.2-0.1,0.4-0.1
		c0.1-0.1,0.2-0.1,0.3-0.2c0.1-0.1,0.2-0.2,0.3-0.3v-1c-0.4,0-0.8,0-1.1,0.1c-0.3,0.1-0.5,0.1-0.7,0.2s-0.3,0.2-0.4,0.3
		c-0.1,0.1-0.1,0.2-0.1,0.4c0,0.3,0.1,0.4,0.2,0.6C77.2,113.8,77.4,113.9,77.6,113.9z"/>
	<path class="st0" d="M82,114.8v-6.2h0.9c0.2,0,0.3,0.1,0.4,0.3l0.1,0.5c0.1-0.1,0.2-0.2,0.3-0.3c0.1-0.1,0.2-0.2,0.4-0.3
		c0.1-0.1,0.3-0.1,0.4-0.2c0.2,0,0.3-0.1,0.5-0.1c0.4,0,0.7,0.1,1,0.3s0.4,0.5,0.6,0.8c0.1-0.2,0.2-0.4,0.4-0.5s0.3-0.3,0.5-0.4
		s0.4-0.2,0.5-0.2s0.4-0.1,0.6-0.1c0.3,0,0.6,0.1,0.9,0.2s0.5,0.3,0.7,0.5s0.3,0.4,0.4,0.7c0.1,0.3,0.1,0.6,0.1,1v3.9h-1.5v-3.9
		c0-0.4-0.1-0.7-0.3-0.9c-0.2-0.2-0.4-0.3-0.8-0.3c-0.2,0-0.3,0-0.4,0.1s-0.2,0.1-0.3,0.2c-0.1,0.1-0.2,0.2-0.2,0.4
		c-0.1,0.1-0.1,0.3-0.1,0.5v3.9h-1.5v-3.9c0-0.4-0.1-0.7-0.2-0.9s-0.4-0.3-0.7-0.3c-0.2,0-0.4,0.1-0.6,0.2s-0.4,0.3-0.5,0.4v4.5H82
		V114.8z"/>
	<path class="st0" d="M94.6,108.6c0.4,0,0.7,0.1,1.1,0.2c0.3,0.1,0.6,0.3,0.8,0.5s0.4,0.5,0.6,0.9c0.1,0.3,0.2,0.7,0.2,1.2
		c0,0.1,0,0.2,0,0.3c0,0.1,0,0.1-0.1,0.2l-0.1,0.1c0,0-0.1,0-0.2,0h-3.8c0,0.6,0.2,1.1,0.5,1.4s0.7,0.4,1.2,0.4c0.2,0,0.4,0,0.6-0.1
		s0.3-0.1,0.5-0.2c0.1-0.1,0.2-0.1,0.3-0.2c0.1-0.1,0.2-0.1,0.3-0.1c0.1,0,0.1,0,0.2,0s0.1,0.1,0.1,0.1l0.4,0.5
		c-0.2,0.2-0.3,0.4-0.6,0.5s-0.4,0.2-0.6,0.3c-0.2,0.1-0.4,0.1-0.7,0.2c-0.2,0-0.5,0-0.7,0c-0.4,0-0.8-0.1-1.2-0.2s-0.7-0.4-1-0.6
		s-0.5-0.6-0.6-1c-0.2-0.4-0.2-0.9-0.2-1.4c0-0.4,0.1-0.8,0.2-1.2c0.1-0.4,0.3-0.7,0.6-1s0.6-0.5,0.9-0.7
		C93.7,108.6,94.2,108.6,94.6,108.6z M94.6,109.6c-0.4,0-0.8,0.1-1,0.4c-0.2,0.2-0.4,0.6-0.5,1h2.8c0-0.2,0-0.4-0.1-0.5
		c-0.1-0.2-0.1-0.3-0.2-0.4s-0.2-0.2-0.4-0.3C95.1,109.7,94.9,109.6,94.6,109.6z"/>
	<path class="st0" d="M98.5,114.8v-6.2h0.9c0.2,0,0.3,0.1,0.4,0.3l0.1,0.5c0.1-0.1,0.3-0.2,0.4-0.3c0.1-0.1,0.3-0.2,0.4-0.3
		c0.2-0.1,0.3-0.1,0.5-0.2c0.2,0,0.4-0.1,0.6-0.1c0.3,0,0.6,0.1,0.9,0.2s0.5,0.3,0.7,0.5s0.3,0.5,0.4,0.7c0.1,0.3,0.1,0.6,0.1,0.9
		v3.9h-1.5v-3.9c0-0.4-0.1-0.7-0.3-0.9c-0.2-0.2-0.4-0.3-0.8-0.3c-0.3,0-0.5,0.1-0.7,0.2s-0.4,0.3-0.6,0.5v4.5
		C100,114.8,98.5,114.8,98.5,114.8z"/>
	<path class="st0" d="M107.3,114.9c-0.5,0-0.9-0.2-1.2-0.5c-0.3-0.3-0.4-0.7-0.4-1.3v-3.4H105c-0.1,0-0.1,0-0.2-0.1
		s-0.1-0.1-0.1-0.2v-0.6l1-0.2l0.3-1.7c0-0.1,0.1-0.1,0.1-0.2s0.1-0.1,0.2-0.1h0.8v1.9h1.6v1.1h-1.6v3.3c0,0.2,0,0.3,0.1,0.5
		c0.1,0.1,0.2,0.2,0.4,0.2c0.1,0,0.2,0,0.2,0s0.1,0,0.2-0.1c0,0,0.1,0,0.1-0.1h0.1h0.1l0.1,0.1l0.4,0.7c-0.2,0.2-0.5,0.3-0.7,0.4
		C107.9,114.9,107.6,114.9,107.3,114.9z"/>
	<path class="st0" d="M112.6,108.6c0.5,0,0.9,0.1,1.3,0.2s0.7,0.4,1,0.6s0.5,0.6,0.6,1s0.2,0.8,0.2,1.3s-0.1,0.9-0.2,1.3
		s-0.3,0.7-0.6,1s-0.6,0.5-1,0.6s-0.8,0.2-1.3,0.2s-0.9-0.1-1.3-0.2s-0.7-0.4-1-0.6c-0.3-0.3-0.5-0.6-0.6-1s-0.2-0.8-0.2-1.3
		s0.1-0.9,0.2-1.3s0.4-0.7,0.6-1c0.3-0.3,0.6-0.5,1-0.6S112.1,108.6,112.6,108.6z M112.6,113.8c0.5,0,0.9-0.2,1.1-0.5
		s0.4-0.8,0.4-1.5s-0.1-1.2-0.4-1.5c-0.2-0.3-0.6-0.5-1.1-0.5s-0.9,0.2-1.2,0.5c-0.2,0.3-0.4,0.9-0.4,1.5c0,0.7,0.1,1.2,0.4,1.5
		C111.7,113.6,112.1,113.8,112.6,113.8z"/>
	<path class="st0" d="M121.6,108.6c0.4,0,0.7,0.1,1.1,0.2c0.3,0.1,0.6,0.3,0.8,0.5s0.4,0.5,0.6,0.9c0.1,0.3,0.2,0.7,0.2,1.2
		c0,0.1,0,0.2,0,0.3c0,0.1,0,0.1-0.1,0.2l-0.1,0.1c0,0-0.1,0-0.2,0h-3.8c0,0.6,0.2,1.1,0.5,1.4s0.7,0.4,1.2,0.4c0.2,0,0.4,0,0.6-0.1
		s0.3-0.1,0.5-0.2c0.1-0.1,0.2-0.1,0.3-0.2c0.1-0.1,0.2-0.1,0.3-0.1c0.1,0,0.1,0,0.2,0s0.1,0.1,0.1,0.1l0.4,0.5
		c-0.2,0.2-0.3,0.4-0.6,0.5s-0.4,0.2-0.6,0.3c-0.2,0.1-0.4,0.1-0.7,0.2c-0.2,0-0.5,0-0.7,0c-0.4,0-0.8-0.1-1.2-0.2s-0.7-0.4-1-0.6
		s-0.5-0.6-0.6-1c-0.2-0.4-0.2-0.9-0.2-1.4c0-0.4,0.1-0.8,0.2-1.2c0.1-0.4,0.3-0.7,0.6-1s0.6-0.5,0.9-0.7
		C120.8,108.6,121.2,108.6,121.6,108.6z M121.7,109.6c-0.4,0-0.8,0.1-1,0.4c-0.2,0.2-0.4,0.6-0.5,1h2.8c0-0.2,0-0.4-0.1-0.5
		c-0.1-0.2-0.1-0.3-0.2-0.4s-0.2-0.2-0.4-0.3C122.1,109.7,121.9,109.6,121.7,109.6z"/>
	<path class="st0" d="M60,129.2h-1.2c-0.1,0-0.3,0-0.3-0.1c-0.1-0.1-0.2-0.2-0.2-0.3l-0.6-1.8H54l-0.6,1.8c0,0.1-0.1,0.2-0.2,0.3
		c-0.1,0.1-0.2,0.1-0.3,0.1h-1.3l3.4-8.7h1.7L60,129.2z M54.4,125.9h2.8l-1.1-2.9c0-0.1-0.1-0.3-0.2-0.5c-0.1-0.2-0.1-0.4-0.2-0.6
		c-0.1,0.2-0.1,0.4-0.2,0.6c-0.1,0.2-0.1,0.3-0.2,0.5L54.4,125.9z"/>
	<path class="st0" d="M63.4,129.2h-1.3l-2.4-6.2h1.2c0.1,0,0.2,0,0.3,0.1s0.1,0.1,0.2,0.2l1.2,3.3c0.1,0.2,0.1,0.4,0.2,0.6
		c0,0.2,0.1,0.4,0.1,0.6c0-0.2,0.1-0.4,0.1-0.6s0.1-0.4,0.2-0.6l1.2-3.3c0-0.1,0.1-0.1,0.1-0.2c0.1-0.1,0.2-0.1,0.3-0.1H66
		L63.4,129.2z"/>
	<path class="st0" d="M71.5,129.2h-0.7c-0.1,0-0.2,0-0.3-0.1s-0.1-0.1-0.2-0.3l-0.1-0.4c-0.2,0.1-0.3,0.3-0.5,0.4
		c-0.1,0.1-0.3,0.2-0.5,0.3s-0.3,0.1-0.5,0.2s-0.4,0.1-0.6,0.1c-0.3,0-0.5,0-0.7-0.1s-0.4-0.2-0.6-0.3s-0.3-0.3-0.4-0.5
		s-0.1-0.5-0.1-0.7s0.1-0.5,0.2-0.7s0.3-0.4,0.6-0.6c0.3-0.2,0.7-0.3,1.1-0.5c0.5-0.1,1.1-0.2,1.8-0.2v-0.4c0-0.4-0.1-0.7-0.3-0.9
		c-0.2-0.2-0.4-0.3-0.8-0.3c-0.2,0-0.4,0-0.6,0.1s-0.3,0.1-0.4,0.2s-0.2,0.1-0.3,0.2c-0.1,0.1-0.2,0.1-0.3,0.1c-0.1,0-0.2,0-0.3-0.1
		c-0.1-0.1-0.1-0.1-0.2-0.2l-0.3-0.5c0.7-0.6,1.6-1,2.6-1c0.4,0,0.7,0.1,1,0.2s0.5,0.3,0.7,0.5s0.3,0.5,0.4,0.8s0.2,0.6,0.2,1v3.7
		L71.5,129.2L71.5,129.2z M68.7,128.3c0.2,0,0.3,0,0.4,0s0.2-0.1,0.4-0.1c0.1-0.1,0.2-0.1,0.3-0.2c0.1-0.1,0.2-0.2,0.3-0.3v-1
		c-0.4,0-0.8,0-1.1,0.1c-0.3,0.1-0.5,0.1-0.7,0.2s-0.3,0.2-0.4,0.3c-0.1,0.1-0.1,0.2-0.1,0.4c0,0.3,0.1,0.4,0.2,0.6
		C68.2,128.2,68.4,128.3,68.7,128.3z"/>
	<path class="st0" d="M74.6,120.3v8.9h-1.5v-8.9C73.1,120.3,74.6,120.3,74.6,120.3z"/>
	<path class="st0" d="M78,121.3c0,0.1,0,0.2-0.1,0.4c-0.1,0.1-0.1,0.2-0.2,0.3c-0.1,0.1-0.2,0.2-0.3,0.2c-0.1,0.1-0.2,0.1-0.4,0.1
		c-0.1,0-0.2,0-0.4-0.1c-0.1,0-0.2-0.1-0.3-0.2s-0.2-0.2-0.2-0.3c-0.1-0.1-0.1-0.2-0.1-0.4c0-0.1,0-0.3,0.1-0.4
		c0-0.1,0.1-0.2,0.2-0.3s0.2-0.2,0.3-0.2c0.1,0,0.2-0.1,0.4-0.1c0.1,0,0.3,0,0.4,0.1s0.2,0.1,0.3,0.2c0.1,0.1,0.2,0.2,0.2,0.3
		C78,121,78,121.1,78,121.3z M77.8,123.1v6.2h-1.5v-6.2C76.3,123.1,77.8,123.1,77.8,123.1z"/>
	<path class="st0" d="M84.3,129.2h-0.7c-0.1,0-0.2,0-0.3-0.1s-0.1-0.1-0.2-0.3l-0.1-0.4c-0.2,0.1-0.3,0.3-0.5,0.4
		c-0.1,0.1-0.3,0.2-0.5,0.3s-0.3,0.1-0.5,0.2s-0.4,0.1-0.6,0.1c-0.3,0-0.5,0-0.7-0.1s-0.4-0.2-0.6-0.3s-0.3-0.3-0.4-0.5
		s-0.1-0.5-0.1-0.7s0.1-0.5,0.2-0.7s0.3-0.4,0.6-0.6c0.3-0.2,0.7-0.3,1.1-0.5c0.5-0.1,1.1-0.2,1.8-0.2v-0.4c0-0.4-0.1-0.7-0.3-0.9
		c-0.2-0.2-0.4-0.3-0.8-0.3c-0.2,0-0.4,0-0.6,0.1s-0.3,0.1-0.4,0.2s-0.2,0.1-0.3,0.2c-0.1,0.1-0.2,0.1-0.3,0.1c-0.1,0-0.2,0-0.3-0.1
		c-0.1-0.1-0.1-0.1-0.2-0.2l-0.3-0.5c0.7-0.6,1.6-1,2.6-1c0.4,0,0.7,0.1,1,0.2s0.5,0.3,0.7,0.5s0.3,0.5,0.4,0.8s0.2,0.6,0.2,1v3.7
		L84.3,129.2L84.3,129.2z M81.4,128.3c0.2,0,0.3,0,0.4,0s0.2-0.1,0.4-0.1c0.1-0.1,0.2-0.1,0.3-0.2c0.1-0.1,0.2-0.2,0.3-0.3v-1
		c-0.4,0-0.8,0-1.1,0.1c-0.3,0.1-0.5,0.1-0.7,0.2s-0.3,0.2-0.4,0.3c-0.1,0.1-0.1,0.2-0.1,0.4c0,0.3,0.1,0.4,0.2,0.6
		C81,128.2,81.2,128.3,81.4,128.3z"/>
	<path class="st0" d="M87.4,130.6C87.4,130.6,87.5,130.6,87.4,130.6c0.1,0,0.2,0,0.2,0h0.1c0,0,0.1,0,0.2,0s0.2,0,0.3-0.1
		c0.1-0.1,0.1-0.1,0.1-0.2c0-0.1-0.1-0.2-0.2-0.2s-0.4-0.1-0.7-0.1l0.2-0.8c-0.3-0.1-0.6-0.2-0.9-0.3c-0.3-0.2-0.5-0.4-0.7-0.6
		c-0.2-0.3-0.4-0.6-0.5-0.9c-0.1-0.4-0.2-0.8-0.2-1.2c0-0.5,0.1-0.9,0.2-1.3s0.3-0.7,0.6-1c0.3-0.3,0.6-0.5,0.9-0.7
		c0.4-0.2,0.8-0.2,1.3-0.2s0.9,0.1,1.2,0.2c0.3,0.1,0.7,0.4,0.9,0.6l-0.4,0.5c0,0.1-0.1,0.1-0.1,0.1s-0.1,0-0.2,0s-0.2,0-0.2-0.1
		c-0.1,0-0.2-0.1-0.3-0.2c-0.1-0.1-0.2-0.1-0.4-0.2c-0.1,0-0.3-0.1-0.5-0.1c-0.3,0-0.5,0-0.7,0.1s-0.4,0.2-0.5,0.4
		c-0.1,0.2-0.2,0.4-0.3,0.6c-0.1,0.2-0.1,0.5-0.1,0.8s0,0.6,0.1,0.9s0.2,0.5,0.3,0.6c0.1,0.2,0.3,0.3,0.5,0.4s0.4,0.1,0.6,0.1
		s0.4,0,0.6-0.1s0.3-0.1,0.4-0.2s0.2-0.1,0.3-0.2c0.1-0.1,0.2-0.1,0.2-0.1c0.1,0,0.2,0,0.3,0.1l0.4,0.5c-0.3,0.3-0.6,0.6-0.9,0.7
		s-0.7,0.2-1.1,0.3l-0.1,0.3c0.4,0.1,0.6,0.2,0.8,0.4s0.2,0.3,0.2,0.5c0,0.1,0,0.3-0.1,0.4s-0.2,0.2-0.3,0.3s-0.3,0.1-0.5,0.2
		c-0.2,0-0.4,0.1-0.6,0.1s-0.3,0-0.5,0s-0.3-0.1-0.4-0.1l0.1-0.5C87.3,130.6,87.3,130.6,87.4,130.6z"/>
	<path class="st0" d="M96.3,129.2h-0.7c-0.1,0-0.2,0-0.3-0.1s-0.1-0.1-0.2-0.3l-0.1-0.4c-0.2,0.1-0.3,0.3-0.5,0.4
		c-0.1,0.1-0.3,0.2-0.5,0.3s-0.3,0.1-0.5,0.2s-0.4,0.1-0.6,0.1c-0.3,0-0.5,0-0.7-0.1s-0.4-0.2-0.6-0.3s-0.3-0.3-0.4-0.5
		s-0.1-0.5-0.1-0.7s0.1-0.5,0.2-0.7s0.3-0.4,0.6-0.6c0.3-0.2,0.7-0.3,1.1-0.5c0.5-0.1,1.1-0.2,1.8-0.2v-0.4c0-0.4-0.1-0.7-0.3-0.9
		c-0.2-0.2-0.4-0.3-0.8-0.3c-0.2,0-0.4,0-0.6,0.1s-0.3,0.1-0.4,0.2s-0.2,0.1-0.3,0.2c-0.1,0.1-0.2,0.1-0.3,0.1c-0.1,0-0.2,0-0.3-0.1
		c-0.1-0.1-0.1-0.1-0.2-0.2l-0.3-0.5c0.7-0.6,1.6-1,2.6-1c0.4,0,0.7,0.1,1,0.2s0.5,0.3,0.7,0.5s0.3,0.5,0.4,0.8s0.2,0.6,0.2,1v3.7
		L96.3,129.2L96.3,129.2z M94.6,121.1c0.1,0,0.2,0,0.3-0.1c0.1-0.1,0.1-0.2,0.1-0.4h0.9c0,0.2,0,0.4-0.1,0.6s-0.1,0.3-0.3,0.5
		c-0.1,0.1-0.2,0.2-0.4,0.3c-0.1,0.1-0.3,0.1-0.5,0.1c-0.1,0-0.3,0-0.4-0.1s-0.2-0.1-0.3-0.2c-0.1-0.1-0.2-0.1-0.3-0.2
		c-0.1-0.1-0.2-0.1-0.3-0.1c-0.1,0-0.2,0-0.3,0.1c-0.1,0.1-0.1,0.2-0.1,0.4H92c0-0.2,0-0.4,0.1-0.6s0.1-0.3,0.3-0.5
		c0.1-0.1,0.2-0.2,0.4-0.3c0.1-0.1,0.3-0.1,0.5-0.1c0.1,0,0.3,0,0.4,0.1s0.2,0.1,0.4,0.2s0.2,0.1,0.3,0.2
		C94.5,121,94.6,121.1,94.6,121.1z M93.4,128.3c0.2,0,0.3,0,0.4,0s0.2-0.1,0.4-0.1c0.1-0.1,0.2-0.1,0.3-0.2c0.1-0.1,0.2-0.2,0.3-0.3
		v-1c-0.4,0-0.8,0-1.1,0.1c-0.3,0.1-0.5,0.1-0.7,0.2s-0.3,0.2-0.4,0.3c-0.1,0.1-0.1,0.2-0.1,0.4c0,0.3,0.1,0.4,0.2,0.6
		C93,128.2,93.2,128.3,93.4,128.3z"/>
	<path class="st0" d="M100.4,123c0.5,0,0.9,0.1,1.3,0.2s0.7,0.4,1,0.6s0.5,0.6,0.6,1s0.2,0.8,0.2,1.3s-0.1,0.9-0.2,1.3
		s-0.3,0.7-0.6,1s-0.6,0.5-1,0.6s-0.8,0.2-1.3,0.2s-0.9-0.1-1.3-0.2s-0.7-0.4-1-0.6c-0.3-0.3-0.5-0.6-0.6-1s-0.2-0.8-0.2-1.3
		s0.1-0.9,0.2-1.3s0.4-0.7,0.6-1c0.3-0.3,0.6-0.5,1-0.6S100,123,100.4,123z M100.4,128.2c0.5,0,0.9-0.2,1.1-0.5s0.4-0.8,0.4-1.5
		s-0.1-1.2-0.4-1.5c-0.2-0.3-0.6-0.5-1.1-0.5s-0.9,0.2-1.2,0.5c-0.2,0.3-0.4,0.9-0.4,1.5c0,0.7,0.1,1.2,0.4,1.5
		C99.5,128,99.9,128.2,100.4,128.2z"/>
</g>
<g>
	<path class="st0" d="M70.2,182.1H69c-0.1,0-0.3,0-0.3-0.1c-0.1-0.1-0.2-0.2-0.2-0.3l-0.6-1.8h-3.6l-0.6,1.8c0,0.1-0.1,0.2-0.2,0.3
		c-0.1,0.1-0.2,0.1-0.3,0.1h-1.3l3.4-8.7H67L70.2,182.1z M64.6,178.8h2.8l-1.1-2.9c0-0.1-0.1-0.3-0.2-0.5s-0.1-0.4-0.2-0.6
		c-0.1,0.2-0.1,0.4-0.2,0.6c-0.1,0.2-0.1,0.3-0.2,0.5L64.6,178.8z"/>
	<path class="st0" d="M72.6,183.4C72.7,183.4,72.7,183.4,72.6,183.4c0.1,0,0.2,0,0.2,0h0.1c0,0,0.1,0,0.2,0s0.2,0,0.3-0.1
		s0.1-0.1,0.1-0.2c0-0.1-0.1-0.2-0.2-0.2s-0.4-0.1-0.7-0.1l0.2-0.8c-0.3-0.1-0.6-0.2-0.9-0.3c-0.3-0.2-0.5-0.4-0.7-0.6
		c-0.2-0.3-0.4-0.6-0.5-0.9c-0.1-0.4-0.2-0.8-0.2-1.2c0-0.5,0.1-0.9,0.2-1.3c0.1-0.4,0.3-0.7,0.6-1s0.6-0.5,0.9-0.7s0.8-0.2,1.3-0.2
		s0.9,0.1,1.2,0.2c0.3,0.1,0.7,0.4,0.9,0.6l-0.4,0.5c0,0.1-0.1,0.1-0.1,0.1s-0.1,0-0.2,0s-0.2,0-0.2-0.1c-0.1,0-0.2-0.1-0.3-0.2
		c-0.1-0.1-0.2-0.1-0.4-0.2c-0.1,0-0.3-0.1-0.5-0.1c-0.3,0-0.5,0-0.7,0.1s-0.4,0.2-0.5,0.4s-0.2,0.4-0.3,0.6
		c-0.1,0.2-0.1,0.5-0.1,0.8s0,0.6,0.1,0.9s0.2,0.5,0.3,0.6c0.1,0.2,0.3,0.3,0.5,0.4c0.2,0.1,0.4,0.1,0.6,0.1s0.4,0,0.6-0.1
		c0.1-0.1,0.3-0.1,0.4-0.2c0.1-0.1,0.2-0.1,0.3-0.2c0.1-0.1,0.2-0.1,0.2-0.1c0.1,0,0.2,0,0.3,0.1l0.4,0.5c-0.3,0.3-0.6,0.6-0.9,0.7
		c-0.3,0.2-0.7,0.2-1.1,0.3l-0.1,0.3c0.4,0.1,0.6,0.2,0.8,0.4c0.1,0.1,0.2,0.3,0.2,0.5c0,0.1,0,0.3-0.1,0.4
		c-0.1,0.1-0.2,0.2-0.3,0.3s-0.3,0.1-0.5,0.2c-0.2,0-0.4,0.1-0.6,0.1s-0.3,0-0.5,0c-0.1,0-0.3-0.1-0.4-0.1l0.1-0.5
		C72.5,183.5,72.5,183.4,72.6,183.4z"/>
	<path class="st0" d="M81.5,182.1h-0.7c-0.1,0-0.2,0-0.3-0.1s-0.1-0.1-0.2-0.3l-0.1-0.4c-0.2,0.1-0.3,0.3-0.5,0.4s-0.3,0.2-0.5,0.3
		s-0.3,0.1-0.5,0.2s-0.4,0.1-0.6,0.1c-0.3,0-0.5,0-0.7-0.1s-0.4-0.2-0.6-0.3s-0.3-0.3-0.4-0.5s-0.1-0.5-0.1-0.7s0.1-0.5,0.2-0.7
		s0.3-0.4,0.6-0.6c0.3-0.2,0.7-0.3,1.1-0.5c0.5-0.1,1.1-0.2,1.8-0.2v-0.4c0-0.4-0.1-0.7-0.3-0.9c-0.2-0.2-0.4-0.3-0.8-0.3
		c-0.2,0-0.4,0-0.6,0.1s-0.3,0.1-0.4,0.2c-0.1,0.1-0.2,0.1-0.3,0.2c-0.1,0.1-0.2,0.1-0.3,0.1c-0.1,0-0.2,0-0.3-0.1
		c-0.1-0.1-0.1-0.1-0.2-0.2l-0.3-0.5c0.7-0.6,1.6-1,2.6-1c0.4,0,0.7,0.1,1,0.2c0.3,0.1,0.5,0.3,0.7,0.5s0.3,0.5,0.4,0.8
		s0.2,0.6,0.2,1v3.7H81.5z M79.8,173.9c0.1,0,0.2,0,0.3-0.1c0.1-0.1,0.1-0.2,0.1-0.4h0.9c0,0.2,0,0.4-0.1,0.6
		c-0.1,0.2-0.1,0.3-0.3,0.5c-0.1,0.1-0.2,0.2-0.4,0.3c-0.1,0.1-0.3,0.1-0.5,0.1c-0.1,0-0.3,0-0.4-0.1s-0.2-0.1-0.3-0.2
		c-0.1-0.1-0.2-0.1-0.3-0.2c-0.1-0.1-0.2-0.1-0.3-0.1c-0.1,0-0.2,0-0.3,0.1c-0.1,0.1-0.1,0.2-0.1,0.4h-0.9c0-0.2,0-0.4,0.1-0.6
		s0.1-0.3,0.3-0.5c0.1-0.1,0.2-0.2,0.4-0.3c0.1-0.1,0.3-0.1,0.5-0.1c0.1,0,0.3,0,0.4,0.1s0.2,0.1,0.4,0.2c0.1,0.1,0.2,0.1,0.3,0.2
		C79.7,173.9,79.8,173.9,79.8,173.9z M78.7,181.1c0.2,0,0.3,0,0.4,0s0.2-0.1,0.4-0.1c0.1-0.1,0.2-0.1,0.3-0.2s0.2-0.2,0.3-0.3v-1
		c-0.4,0-0.8,0-1.1,0.1s-0.5,0.1-0.7,0.2c-0.2,0.1-0.3,0.2-0.4,0.3s-0.1,0.2-0.1,0.4c0,0.3,0.1,0.4,0.2,0.6
		C78.2,181.1,78.4,181.1,78.7,181.1z"/>
	<path class="st0" d="M85.6,175.8c0.5,0,0.9,0.1,1.3,0.2c0.4,0.1,0.7,0.4,1,0.6c0.3,0.3,0.5,0.6,0.6,1s0.2,0.8,0.2,1.3
		s-0.1,0.9-0.2,1.3c-0.1,0.4-0.3,0.7-0.6,1c-0.3,0.3-0.6,0.5-1,0.6s-0.8,0.2-1.3,0.2s-0.9-0.1-1.3-0.2c-0.4-0.1-0.7-0.4-1-0.6
		c-0.3-0.3-0.5-0.6-0.6-1s-0.2-0.8-0.2-1.3s0.1-0.9,0.2-1.3c0.1-0.4,0.4-0.7,0.6-1c0.3-0.3,0.6-0.5,1-0.6
		C84.8,175.9,85.2,175.8,85.6,175.8z M85.6,181c0.5,0,0.9-0.2,1.1-0.5s0.4-0.8,0.4-1.5s-0.1-1.2-0.4-1.5s-0.6-0.5-1.1-0.5
		s-0.9,0.2-1.2,0.5S84,178.4,84,179c0,0.7,0.1,1.2,0.4,1.5C84.7,180.8,85.1,181,85.6,181z"/>
	<path class="st0" d="M90.3,182.1c0,0.1-0.1,0.2-0.1,0.2c-0.1,0.1-0.1,0.1-0.2,0.2c-0.1,0-0.1,0.1-0.2,0.1s-0.2,0-0.2,0H89l3.5-9
		c0.1-0.2,0.2-0.3,0.3-0.4c0.1-0.1,0.3-0.1,0.5-0.1h0.6L90.3,182.1z"/>
	<path class="st0" d="M34.3,187.8v1.3h-2.6v7.4h-1.6v-7.4h-2.6v-1.3H34.3z"/>
	<path class="st0" d="M36.7,190.2c0.5,0,0.9,0.1,1.3,0.2c0.4,0.1,0.7,0.4,1,0.6c0.3,0.3,0.5,0.6,0.6,1s0.2,0.8,0.2,1.3
		s-0.1,0.9-0.2,1.3c-0.1,0.4-0.3,0.7-0.6,1s-0.6,0.5-1,0.6s-0.8,0.2-1.3,0.2s-0.9-0.1-1.3-0.2c-0.4-0.1-0.7-0.4-1-0.6
		c-0.3-0.3-0.5-0.6-0.6-1s-0.2-0.8-0.2-1.3s0.1-0.9,0.2-1.3c0.1-0.4,0.4-0.7,0.6-1c0.3-0.3,0.6-0.5,1-0.6
		C35.8,190.3,36.2,190.2,36.7,190.2z M36.7,195.4c0.5,0,0.9-0.2,1.1-0.5s0.4-0.8,0.4-1.5s-0.1-1.2-0.4-1.5c-0.2-0.3-0.6-0.5-1.1-0.5
		s-0.9,0.2-1.2,0.5c-0.2,0.3-0.4,0.9-0.4,1.5s0.1,1.2,0.4,1.5S36.1,195.4,36.7,195.4z"/>
	<path class="st0" d="M40.9,196.5v-6.2h0.9c0.2,0,0.3,0.1,0.4,0.3l0.1,0.5c0.1-0.1,0.2-0.2,0.3-0.3s0.2-0.2,0.4-0.3
		c0.1-0.1,0.3-0.1,0.4-0.2c0.2,0,0.3-0.1,0.5-0.1c0.4,0,0.7,0.1,1,0.3s0.4,0.5,0.6,0.8c0.1-0.2,0.2-0.4,0.4-0.5
		c0.1-0.1,0.3-0.3,0.5-0.4c0.2-0.1,0.4-0.2,0.5-0.2s0.4-0.1,0.6-0.1c0.3,0,0.6,0.1,0.9,0.2c0.3,0.1,0.5,0.3,0.7,0.5s0.3,0.4,0.4,0.7
		c0.1,0.3,0.1,0.6,0.1,1v3.9H48v-3.9c0-0.4-0.1-0.7-0.3-0.9s-0.4-0.3-0.8-0.3c-0.2,0-0.3,0-0.4,0.1c-0.1,0.1-0.2,0.1-0.3,0.2
		c-0.1,0.1-0.2,0.2-0.2,0.4c-0.1,0.1-0.1,0.3-0.1,0.5v3.9h-1.5v-3.9c0-0.4-0.1-0.7-0.2-0.9c-0.2-0.2-0.4-0.3-0.7-0.3
		c-0.2,0-0.4,0.1-0.6,0.2c-0.2,0.1-0.4,0.3-0.5,0.4v4.5h-1.5V196.5z"/>
	<path class="st0" d="M55.8,196.5h-0.7c-0.1,0-0.2,0-0.3-0.1s-0.1-0.1-0.2-0.3l-0.1-0.4c-0.2,0.1-0.3,0.3-0.5,0.4
		c-0.1,0.1-0.3,0.2-0.5,0.3s-0.3,0.1-0.5,0.2s-0.4,0.1-0.6,0.1c-0.3,0-0.5,0-0.7-0.1s-0.4-0.2-0.6-0.3c-0.2-0.1-0.3-0.3-0.4-0.5
		c-0.1-0.2-0.1-0.5-0.1-0.7s0.1-0.5,0.2-0.7c0.1-0.2,0.3-0.4,0.6-0.6c0.3-0.2,0.7-0.3,1.1-0.5c0.5-0.1,1.1-0.2,1.8-0.2v-0.4
		c0-0.4-0.1-0.7-0.3-0.9s-0.4-0.3-0.8-0.3c-0.2,0-0.4,0-0.6,0.1c-0.2,0.1-0.3,0.1-0.4,0.2c-0.1,0.1-0.2,0.1-0.3,0.2
		c-0.1,0.1-0.2,0.1-0.3,0.1s-0.2,0-0.3-0.1s-0.1-0.1-0.2-0.2l-0.3-0.5c0.7-0.6,1.6-1,2.6-1c0.4,0,0.7,0.1,1,0.2
		c0.3,0.1,0.5,0.3,0.7,0.5s0.3,0.5,0.4,0.8s0.2,0.6,0.2,1L55.8,196.5L55.8,196.5z M52.9,195.5c0.2,0,0.3,0,0.4,0
		c0.1,0,0.2-0.1,0.4-0.1c0.1-0.1,0.2-0.1,0.3-0.2c0.1-0.1,0.2-0.2,0.3-0.3v-1c-0.4,0-0.8,0-1.1,0.1s-0.5,0.1-0.7,0.2
		c-0.2,0.1-0.3,0.2-0.4,0.3c-0.1,0.1-0.1,0.2-0.1,0.4c0,0.3,0.1,0.4,0.2,0.6C52.5,195.5,52.7,195.5,52.9,195.5z"/>
	<path class="st0" d="M61.6,196.5c-0.2,0-0.3-0.1-0.4-0.3l-0.1-0.6c-0.1,0.1-0.3,0.3-0.4,0.4c-0.1,0.1-0.3,0.2-0.5,0.3
		s-0.3,0.1-0.5,0.2s-0.4,0.1-0.6,0.1c-0.3,0-0.6-0.1-0.9-0.2c-0.3-0.1-0.5-0.3-0.7-0.6s-0.4-0.6-0.5-1s-0.2-0.8-0.2-1.3
		s0.1-0.9,0.2-1.3c0.1-0.4,0.3-0.7,0.5-1s0.5-0.5,0.8-0.7s0.7-0.2,1.1-0.2c0.3,0,0.6,0.1,0.9,0.2c0.2,0.1,0.5,0.3,0.7,0.4v-3.3h1.5
		v8.9L61.6,196.5L61.6,196.5z M59.6,195.4c0.3,0,0.6-0.1,0.8-0.2s0.4-0.3,0.6-0.5v-2.8c-0.2-0.2-0.4-0.3-0.5-0.4
		c-0.2-0.1-0.4-0.1-0.6-0.1c-0.2,0-0.4,0-0.6,0.1s-0.3,0.2-0.5,0.4c-0.1,0.2-0.2,0.4-0.3,0.6s-0.1,0.6-0.1,0.9c0,0.4,0,0.7,0.1,0.9
		s0.1,0.5,0.2,0.6s0.2,0.3,0.4,0.3C59.2,195.3,59.4,195.4,59.6,195.4z"/>
	<path class="st0" d="M68.9,196.5h-0.7c-0.1,0-0.2,0-0.3-0.1s-0.1-0.1-0.2-0.3l-0.1-0.4c-0.2,0.1-0.3,0.3-0.5,0.4
		c-0.1,0.1-0.3,0.2-0.5,0.3s-0.3,0.1-0.5,0.2s-0.4,0.1-0.6,0.1c-0.3,0-0.5,0-0.7-0.1s-0.4-0.2-0.6-0.3s-0.3-0.3-0.4-0.5
		c-0.1-0.2-0.1-0.5-0.1-0.7s0.1-0.5,0.2-0.7s0.3-0.4,0.6-0.6c0.3-0.2,0.7-0.3,1.1-0.5c0.5-0.1,1.1-0.2,1.8-0.2v-0.4
		c0-0.4-0.1-0.7-0.3-0.9c-0.2-0.2-0.4-0.3-0.8-0.3c-0.2,0-0.4,0-0.6,0.1s-0.3,0.1-0.4,0.2c-0.1,0.1-0.2,0.1-0.3,0.2
		c-0.1,0.1-0.2,0.1-0.3,0.1c-0.1,0-0.2,0-0.3-0.1c-0.1-0.1-0.1-0.1-0.2-0.2l-0.3-0.5c0.7-0.6,1.6-1,2.6-1c0.4,0,0.7,0.1,1,0.2
		c0.3,0.1,0.5,0.3,0.7,0.5s0.3,0.5,0.4,0.8s0.2,0.6,0.2,1L68.9,196.5L68.9,196.5z M66,195.5c0.2,0,0.3,0,0.4,0s0.2-0.1,0.4-0.1
		c0.1-0.1,0.2-0.1,0.3-0.2c0.1-0.1,0.2-0.2,0.3-0.3v-1c-0.4,0-0.8,0-1.1,0.1c-0.3,0.1-0.5,0.1-0.7,0.2c-0.2,0.1-0.3,0.2-0.4,0.3
		s-0.1,0.2-0.1,0.4c0,0.3,0.1,0.4,0.2,0.6C65.6,195.5,65.8,195.5,66,195.5z"/>
	<path class="st0" d="M77,196.5c-0.2,0-0.3-0.1-0.4-0.3l-0.1-0.6c-0.1,0.1-0.3,0.3-0.4,0.4c-0.1,0.1-0.3,0.2-0.5,0.3
		s-0.3,0.1-0.5,0.2s-0.4,0.1-0.6,0.1c-0.3,0-0.6-0.1-0.9-0.2c-0.3-0.1-0.5-0.3-0.7-0.6s-0.4-0.6-0.5-1s-0.2-0.8-0.2-1.3
		s0.1-0.9,0.2-1.3c0.1-0.4,0.3-0.7,0.5-1s0.5-0.5,0.8-0.7s0.7-0.2,1.1-0.2c0.3,0,0.6,0.1,0.9,0.2c0.2,0.1,0.5,0.3,0.7,0.4v-3.3h1.5
		v8.9L77,196.5L77,196.5z M75,195.4c0.3,0,0.6-0.1,0.8-0.2s0.4-0.3,0.6-0.5v-2.8c-0.2-0.2-0.4-0.3-0.5-0.4c-0.2-0.1-0.4-0.1-0.6-0.1
		s-0.4,0-0.6,0.1s-0.3,0.2-0.5,0.4c-0.1,0.2-0.2,0.4-0.3,0.6s-0.1,0.6-0.1,0.9c0,0.4,0,0.7,0.1,0.9s0.1,0.5,0.2,0.6s0.2,0.3,0.4,0.3
		C74.7,195.3,74.8,195.4,75,195.4z"/>
	<path class="st0" d="M82.1,190.2c0.4,0,0.7,0.1,1.1,0.2c0.3,0.1,0.6,0.3,0.8,0.5c0.2,0.2,0.4,0.5,0.6,0.9c0.1,0.3,0.2,0.7,0.2,1.2
		c0,0.1,0,0.2,0,0.3s0,0.1-0.1,0.2l-0.1,0.1c0,0-0.1,0-0.2,0h-3.8c0,0.6,0.2,1.1,0.5,1.4c0.3,0.3,0.7,0.4,1.2,0.4
		c0.2,0,0.4,0,0.6-0.1s0.3-0.1,0.5-0.2c0.1-0.1,0.2-0.1,0.3-0.2c0.1-0.1,0.2-0.1,0.3-0.1c0.1,0,0.1,0,0.2,0l0.1,0.1l0.4,0.5
		c-0.2,0.2-0.3,0.4-0.6,0.5s-0.4,0.2-0.6,0.3s-0.4,0.1-0.7,0.2c-0.2,0-0.5,0-0.7,0c-0.4,0-0.8-0.1-1.2-0.2c-0.4-0.1-0.7-0.4-1-0.6
		c-0.3-0.3-0.5-0.6-0.6-1c-0.2-0.4-0.2-0.9-0.2-1.4c0-0.4,0.1-0.8,0.2-1.2s0.3-0.7,0.6-1c0.3-0.3,0.6-0.5,0.9-0.7
		C81.2,190.3,81.6,190.2,82.1,190.2z M82.1,191.3c-0.4,0-0.8,0.1-1,0.4c-0.2,0.2-0.4,0.6-0.5,1h2.8c0-0.2,0-0.4-0.1-0.5
		c-0.1-0.2-0.1-0.3-0.2-0.4s-0.2-0.2-0.4-0.3S82.3,191.3,82.1,191.3z"/>
	<path class="st0" d="M92.6,196.5c-0.2,0-0.3-0.1-0.4-0.3l-0.1-0.6c-0.1,0.1-0.3,0.3-0.4,0.4c-0.1,0.1-0.3,0.2-0.5,0.3
		s-0.3,0.1-0.5,0.2s-0.4,0.1-0.6,0.1c-0.3,0-0.6-0.1-0.9-0.2c-0.3-0.1-0.5-0.3-0.7-0.6s-0.4-0.6-0.5-1s-0.2-0.8-0.2-1.3
		s0.1-0.9,0.2-1.3c0.1-0.4,0.3-0.7,0.5-1s0.5-0.5,0.8-0.7s0.7-0.2,1.1-0.2c0.3,0,0.6,0.1,0.9,0.2c0.2,0.1,0.5,0.3,0.7,0.4v-3.3h1.5
		v8.9L92.6,196.5L92.6,196.5z M90.6,195.4c0.3,0,0.6-0.1,0.8-0.2s0.4-0.3,0.6-0.5v-2.8c-0.2-0.2-0.4-0.3-0.5-0.4
		c-0.2-0.1-0.4-0.1-0.6-0.1s-0.4,0-0.6,0.1s-0.3,0.2-0.5,0.4c-0.1,0.2-0.2,0.4-0.3,0.6s-0.1,0.6-0.1,0.9c0,0.4,0,0.7,0.1,0.9
		s0.1,0.5,0.2,0.6s0.2,0.3,0.4,0.3C90.2,195.3,90.4,195.4,90.6,195.4z"/>
	<path class="st0" d="M97.6,190.2c0.4,0,0.7,0.1,1.1,0.2c0.3,0.1,0.6,0.3,0.8,0.5c0.2,0.2,0.4,0.5,0.6,0.9c0.1,0.3,0.2,0.7,0.2,1.2
		c0,0.1,0,0.2,0,0.3s0,0.1-0.1,0.2l-0.1,0.1c0,0-0.1,0-0.2,0h-3.8c0,0.6,0.2,1.1,0.5,1.4c0.3,0.3,0.7,0.4,1.2,0.4
		c0.2,0,0.4,0,0.6-0.1s0.3-0.1,0.5-0.2c0.1-0.1,0.2-0.1,0.3-0.2c0.1-0.1,0.2-0.1,0.3-0.1c0.1,0,0.1,0,0.2,0l0.1,0.1l0.4,0.5
		c-0.2,0.2-0.3,0.4-0.6,0.5s-0.4,0.2-0.6,0.3s-0.4,0.1-0.7,0.2c-0.2,0-0.5,0-0.7,0c-0.4,0-0.8-0.1-1.2-0.2c-0.4-0.1-0.7-0.4-1-0.6
		c-0.3-0.3-0.5-0.6-0.6-1c-0.2-0.4-0.2-0.9-0.2-1.4c0-0.4,0.1-0.8,0.2-1.2s0.3-0.7,0.6-1c0.3-0.3,0.6-0.5,0.9-0.7
		C96.8,190.3,97.2,190.2,97.6,190.2z M97.7,191.3c-0.4,0-0.8,0.1-1,0.4c-0.2,0.2-0.4,0.6-0.5,1H99c0-0.2,0-0.4-0.1-0.5
		c-0.1-0.2-0.1-0.3-0.2-0.4s-0.2-0.2-0.4-0.3S97.9,191.3,97.7,191.3z"/>
	<path class="st0" d="M105.8,191.6c0,0.1-0.1,0.1-0.1,0.1s-0.1,0-0.2,0s-0.2,0-0.2-0.1s-0.2-0.1-0.3-0.2c-0.1-0.1-0.2-0.1-0.4-0.2
		c-0.1,0-0.3-0.1-0.5-0.1c-0.3,0-0.5,0-0.7,0.1s-0.4,0.2-0.5,0.4s-0.2,0.4-0.3,0.6c-0.1,0.2-0.1,0.5-0.1,0.8s0,0.6,0.1,0.9
		s0.2,0.5,0.3,0.6c0.1,0.2,0.3,0.3,0.5,0.4c0.2,0.1,0.4,0.1,0.6,0.1s0.4,0,0.6-0.1c0.1-0.1,0.3-0.1,0.4-0.2c0.1-0.1,0.2-0.1,0.3-0.2
		c0.1-0.1,0.2-0.1,0.2-0.1c0.1,0,0.2,0,0.3,0.1l0.4,0.5c-0.2,0.2-0.3,0.4-0.5,0.5s-0.4,0.2-0.6,0.3s-0.4,0.1-0.6,0.2
		c-0.2,0-0.4,0-0.7,0c-0.4,0-0.7-0.1-1.1-0.2c-0.3-0.1-0.6-0.3-0.9-0.6c-0.2-0.3-0.4-0.6-0.6-1s-0.2-0.8-0.2-1.3s0.1-0.9,0.2-1.3
		c0.1-0.4,0.3-0.7,0.6-1c0.3-0.3,0.6-0.5,0.9-0.7c0.4-0.2,0.8-0.2,1.3-0.2s0.9,0.1,1.2,0.2c0.3,0.1,0.7,0.4,0.9,0.6L105.8,191.6z"/>
	<path class="st0" d="M109,188.5c0,0.1,0,0.2-0.1,0.4c-0.1,0.1-0.1,0.2-0.2,0.3s-0.2,0.2-0.3,0.2c-0.1,0.1-0.2,0.1-0.4,0.1
		c-0.1,0-0.2,0-0.4-0.1c-0.1,0-0.2-0.1-0.3-0.2s-0.2-0.2-0.2-0.3c-0.1-0.1-0.1-0.2-0.1-0.4c0-0.1,0-0.3,0.1-0.4
		c0-0.1,0.1-0.2,0.2-0.3s0.2-0.2,0.3-0.2c0.1,0,0.2-0.1,0.4-0.1c0.1,0,0.3,0,0.4,0.1s0.2,0.1,0.3,0.2c0.1,0.1,0.2,0.2,0.2,0.3
		C109,188.3,109,188.4,109,188.5z M108.8,190.3v6.2h-1.5v-6.2H108.8z"/>
	<path class="st0" d="M114.1,191.5c0,0.1-0.1,0.1-0.1,0.1s-0.1,0-0.2,0s-0.1,0-0.2-0.1s-0.2-0.1-0.3-0.1c-0.1,0-0.2-0.1-0.4-0.1
		c-0.1,0-0.3-0.1-0.5-0.1c-0.3,0-0.5,0.1-0.7,0.2s-0.3,0.3-0.3,0.5c0,0.1,0,0.2,0.1,0.3s0.2,0.2,0.3,0.2c0.1,0.1,0.3,0.1,0.5,0.2
		s0.4,0.1,0.6,0.2c0.2,0.1,0.4,0.1,0.6,0.2s0.3,0.2,0.5,0.3s0.3,0.3,0.3,0.5c0.1,0.2,0.1,0.4,0.1,0.6c0,0.3-0.1,0.6-0.2,0.8
		s-0.3,0.5-0.5,0.6c-0.2,0.2-0.5,0.3-0.8,0.4c-0.3,0.1-0.7,0.2-1.1,0.2c-0.2,0-0.4,0-0.6-0.1c-0.2,0-0.4-0.1-0.6-0.2
		s-0.4-0.1-0.5-0.2s-0.3-0.2-0.4-0.3l0.3-0.6c0-0.1,0.1-0.1,0.2-0.2c0.1,0,0.1-0.1,0.2-0.1s0.2,0,0.3,0.1s0.2,0.1,0.3,0.2
		c0.1,0.1,0.2,0.1,0.4,0.2c0.1,0.1,0.3,0.1,0.6,0.1c0.2,0,0.3,0,0.5-0.1s0.2-0.1,0.3-0.2c0.1-0.1,0.1-0.1,0.2-0.2s0.1-0.2,0.1-0.3
		s0-0.3-0.1-0.4s-0.2-0.2-0.3-0.2c-0.1-0.1-0.3-0.1-0.5-0.2c-0.2-0.1-0.4-0.1-0.6-0.2c-0.2-0.1-0.4-0.1-0.6-0.2
		c-0.2-0.1-0.3-0.2-0.5-0.3s-0.3-0.3-0.3-0.5c-0.1-0.2-0.1-0.4-0.1-0.7s0-0.5,0.1-0.7s0.2-0.4,0.4-0.6s0.4-0.3,0.7-0.4
		c0.3-0.1,0.6-0.2,1-0.2s0.8,0.1,1.2,0.2c0.3,0.1,0.6,0.3,0.9,0.6L114.1,191.5z"/>
	<path class="st0" d="M120.5,196.5h-0.7c-0.1,0-0.2,0-0.3-0.1s-0.1-0.1-0.2-0.3l-0.1-0.4c-0.2,0.1-0.3,0.3-0.5,0.4
		c-0.1,0.1-0.3,0.2-0.5,0.3s-0.3,0.1-0.5,0.2s-0.4,0.1-0.6,0.1c-0.3,0-0.5,0-0.7-0.1s-0.4-0.2-0.6-0.3s-0.3-0.3-0.4-0.5
		s-0.1-0.5-0.1-0.7s0.1-0.5,0.2-0.7s0.3-0.4,0.6-0.6c0.3-0.2,0.7-0.3,1.1-0.5c0.5-0.1,1.1-0.2,1.8-0.2v-0.4c0-0.4-0.1-0.7-0.3-0.9
		c-0.2-0.2-0.4-0.3-0.8-0.3c-0.2,0-0.4,0-0.6,0.1s-0.3,0.1-0.4,0.2c-0.1,0.1-0.2,0.1-0.3,0.2c-0.1,0.1-0.2,0.1-0.3,0.1
		c-0.1,0-0.2,0-0.3-0.1c-0.1-0.1-0.1-0.1-0.2-0.2l-0.3-0.5c0.7-0.6,1.6-1,2.6-1c0.4,0,0.7,0.1,1,0.2c0.3,0.1,0.5,0.3,0.7,0.5
		s0.3,0.5,0.4,0.8s0.2,0.6,0.2,1v3.7H120.5z M118.8,188.3c0.1,0,0.2,0,0.3-0.1c0.1-0.1,0.1-0.2,0.1-0.4h0.9c0,0.2,0,0.4-0.1,0.6
		c-0.1,0.2-0.1,0.3-0.3,0.5s-0.2,0.2-0.4,0.3c-0.1,0.1-0.3,0.1-0.5,0.1c-0.1,0-0.3,0-0.4-0.1s-0.2-0.1-0.3-0.2
		c-0.1-0.1-0.2-0.1-0.3-0.2s-0.2-0.1-0.3-0.1c-0.1,0-0.2,0-0.3,0.1c-0.1,0.1-0.1,0.2-0.1,0.4h-0.9c0-0.2,0-0.4,0.1-0.6
		c0.1-0.2,0.1-0.3,0.3-0.5c0.1-0.1,0.2-0.2,0.4-0.3c0.1-0.1,0.3-0.1,0.5-0.1c0.1,0,0.3,0,0.4,0.1s0.2,0.1,0.4,0.2
		c0.1,0.1,0.2,0.1,0.3,0.2C118.7,188.3,118.8,188.3,118.8,188.3z M117.7,195.5c0.2,0,0.3,0,0.4,0s0.2-0.1,0.4-0.1
		c0.1-0.1,0.2-0.1,0.3-0.2c0.1-0.1,0.2-0.2,0.3-0.3v-1c-0.4,0-0.8,0-1.1,0.1c-0.3,0.1-0.5,0.1-0.7,0.2c-0.2,0.1-0.3,0.2-0.4,0.3
		s-0.1,0.2-0.1,0.4c0,0.3,0.1,0.4,0.2,0.6C117.2,195.5,117.4,195.5,117.7,195.5z"/>
	<path class="st0" d="M124.6,190.2c0.5,0,0.9,0.1,1.3,0.2c0.4,0.1,0.7,0.4,1,0.6c0.3,0.3,0.5,0.6,0.6,1s0.2,0.8,0.2,1.3
		s-0.1,0.9-0.2,1.3c-0.1,0.4-0.3,0.7-0.6,1c-0.3,0.3-0.6,0.5-1,0.6s-0.8,0.2-1.3,0.2s-0.9-0.1-1.3-0.2c-0.4-0.1-0.7-0.4-1-0.6
		c-0.3-0.3-0.5-0.6-0.6-1s-0.2-0.8-0.2-1.3s0.1-0.9,0.2-1.3c0.1-0.4,0.4-0.7,0.6-1c0.3-0.3,0.6-0.5,1-0.6
		C123.8,190.3,124.2,190.2,124.6,190.2z M124.6,195.4c0.5,0,0.9-0.2,1.1-0.5s0.4-0.8,0.4-1.5s-0.1-1.2-0.4-1.5
		c-0.2-0.3-0.6-0.5-1.1-0.5s-0.9,0.2-1.2,0.5c-0.2,0.3-0.4,0.9-0.4,1.5s0.1,1.2,0.4,1.5S124.1,195.4,124.6,195.4z"/>
</g>
</svg>
