
<svg xmlns="http://www.w3.org/2000/svg" version="1.1" xmlns:xlink="http://www.w3.org/1999/xlink" preserveAspectRatio="none" x="0px" y="0px" width="326px" height="390px" viewBox="0 0 326 390">
<defs>
<g id="Layer1_0_MEMBER_0_MEMBER_0_FILL">
<path fill="#144162" stroke="none" d="
M 176.35 -0.15
L 0 -0.15 0 280.4 176.35 280.4
Q 204.9 280.4 230.95 269.35 256.15 258.7 275.55 239.3 295 219.85 305.65 194.7 316.65 168.65 316.65 140.1 316.65 111.55 305.65 85.5 295 60.3 275.55 40.9 256.15 21.5 230.95 10.85 204.9 -0.15 176.35 -0.15 Z"/>
</g>

<g id="Layer1_0_MEMBER_0_MEMBER_1_FILL">
<path fill="#FFFFFF" stroke="none" d="
M 286.1 90.95
Q 276.55 68.25 259.05 50.8 241.55 33.3 218.9 23.75 195.45 13.8 169.75 13.8 144.05 13.8 120.6 23.75 97.95 33.3 80.45 50.8 62.95 68.3 53.4 90.95 43.45 114.4 43.45 140.1 43.45 165.8 53.4 189.25 62.95 211.9 80.45 229.4 97.9 246.9 120.6 256.45 144.05 266.4 169.75 266.4 195.45 266.4 218.9 256.45 241.6 246.9 259.05 229.4 276.55 211.95 286.1 189.25 296.05 165.8 296.05 140.1 296.05 114.4 286.1 90.95 Z"/>
</g>

<g id="Layer1_0_MEMBER_1_MEMBER_0_FILL">
<path fill="#FFF3CB" stroke="none" d="
M 259.05 57.5
Q 258.4 57.5 257.55 58.45 254.95 61.5 252 63.85 250.55 64.95 249.85 65.55 248.55 66.5 247.75 67.3 246.9 68.25 246.3 68.85 245.95 69.15 245.7 69.4 245 70 243.85 70.8
L 241.95 72.05
Q 240.8 72.8 237.95 75.15
L 234.85 77.65
Q 234.55 77.95 234.25 78.2 232.5 79.75 231.55 80.85 230.7 81.75 229.2 83.6
L 225 88.85
Q 224.85 89 224.75 89.2 224.6 89.1 224.45 89.05 224.1 88.95 223.8 89.1 223.45 89.3 223.25 90.25 222.75 95.15 222.6 100.5
L 222.5 106.95
Q 222.45 107.55 222.5 108.05 222.4 108.1 222.35 108.2 222.25 108.35 222.05 108.45 221.9 108.6 221.75 108.75 221.65 108.9 221.5 109 221.35 109.2 221.2 109.3 221.1 109.45 220.9 109.6 220.8 109.75 220.65 109.85 220.5 110.05 220.4 110.15 220.2 110.3 220.05 110.45 219.95 110.55 219.8 110.7 219.65 110.9 219.55 111 219.35 111.15 219.2 111.3 219.1 111.4 218.95 111.55 218.85 111.7 218.65 111.85 218.5 112 218.4 112.1 218.2 112.25 218.1 112.4 217.95 112.55 217.8 112.7 217.7 112.8 217.5 113 217.35 113.1 217.25 113.2 217.1 113.4 216.95 113.55 216.85 113.65 216.65 113.85 216.5 113.95 216.4 114.1 216.25 114.25 216.15 114.35 215.95 114.5 215.8 114.7 215.7 114.8 215.55 114.95 215.4 115.1 215.3 115.2 215.1 115.35 215 115.5 214.85 115.65 214.65 115.8 214.55 115.9 214.4 116.05 214.25 116.2 214.15 116.35 213.95 116.5 213.8 116.65 213.7 116.75 213.55 116.9 213.45 117 213.25 117.2 213.1 117.35 213 117.45 212.85 117.65 212.7 117.75 212.6 117.85 212.4 118.05 212.3 118.15 212.15 118.3 212 118.5 211.85 118.6 211.7 118.75 211.55 118.9 211.45 119 211.25 119.15 211.15 119.35 211 119.45 210.85 119.6 210.75 119.7 210.55 119.85 210.4 120 210.3 120.15 210.15 120.3 210 120.45 209.9 120.55 209.7 120.7 209.6 120.8 209.45 121 209.3 121.15 209.1771484375 121.2318359375 209.05 121.35 175.4458984375 90.25 128.95 90.25 79.8 90.25 45.05 125 31.05 139 22.65 155.4 22.45 155.15 22.3 154.95 11.4 173.75 8.3 195.85 8.2 196.35 8.15 196.85 7.05 205.1 7.05 213.75 7.05 262.95 41.8 297.7 76.6 332.5 125.75 332.5 174.85 332.5 209.65 297.7 218.8 288.55 225.55 278.4
L 225.45 278.35
Q 231.9 269.6 236.5 260.1 238.15 256.65 239.5 253.15 247.65 232.75 247.65 208.95 247.65 160.9173828125 214.45 126.65 214.5724609375 126.53515625 214.7 126.45 214.85 126.3 215 126.15 215.15 126 215.3 125.85 215.4 125.7 215.55 125.55 215.7 125.45 215.85 125.3 216 125.15 216.15 125.05 216.25 124.85 216.4 124.7 216.55 124.6 216.7 124.45 216.85 124.3 217 124.2 217.1 124.05 217.25 123.9 217.4 123.75 217.55 123.6 217.7 123.5 217.85 123.35 217.95 123.2 218.1 123.05 218.25 122.9 218.4 122.75 218.55 122.65 218.7 122.5 218.85 122.35 218.95 122.2 219.1 122.05 219.25 121.9 219.4 121.8 219.55 121.65 219.7 121.5 219.8 121.35 219.95 121.25 220.1 121.05 220.25 120.95 220.4 120.8 220.55 120.65 220.65 120.5 220.8 120.4 220.95 120.2 221.1 120.1 221.25 119.95 221.4 119.85 221.5 119.7 221.65 119.55 221.8 119.4 221.95 119.25 222.1 119.1 222.25 118.95 222.35 118.85 222.5 118.7 222.65 118.55 222.8 118.4 222.95 118.25 223.1 118.1 223.2 118 223.35 117.85 223.5 117.7 223.65 117.55 223.8 117.45 223.95 117.25 224.1 117.15 224.2 117 224.35 116.85 224.5 116.7 224.65 116.6 224.8 116.4 224.95 116.3 225.05 116.15 225.2 116.05 225.35 115.9 225.5 115.75 225.65 115.6 225.8 115.45 225.9 115.3 226.05 115.2 226.2 115.05 226.35 114.9
L 226.4 114.85
Q 226.7 114.85 227.05 114.85 236.9 114.65 246.7 114.65 247.9 114.65 248.95 114.2 253.7 111.85 257.25 107.85 259.4 105.5 261.5 103.1 262.05 102.45 262.55 101.9 263.8 100.4 265.1 98.95 265.3 98.9 265.55 98.8 265.35 98.8 265.25 98.8 268.3 95.25 271.4 91.85 277.1 85.5 282.95 79.4
L 282.8 78.25
Q 282.45 78.05 282.1 77.9 279.9 77.65 277.7 78 268.9 78.6 260.05 79.1
L 259.3 61.15 258.85 61.15 258.85 58.05 259.4 57.8 259.4 57.6
Q 259.25 57.5 259.05 57.5 Z"/>
</g>

<g id="Layer1_0_MEMBER_1_MEMBER_1_MEMBER_0_FILL">
<path fill="#053336" stroke="none" d="
M 794.6 364.65
Q 796.9 359.8 798.85 354.85 810.3 326.1 810.3 292.6 810.3 223.25 761.3 174.3 712.3 125.3 643.05 125.3 573.8 125.3 524.8 174.3 505.05 194.05 493.25 217.1 492.95 216.8 492.75 216.5 477.35 243 473 274.15 472.9 274.85 472.8 275.55 471.25 287.15 471.25 299.35 471.25 368.65 520.25 417.65 569.25 466.65 638.5 466.65 707.75 466.65 756.75 417.65 769.65 404.75 779.2 390.4
L 779.05 390.35
Q 788.15 378.05 794.6 364.65
M 794.4 355.3
Q 791.95 361.15 789.05 366.8 777.55 389.05 758.5 408.15 710.65 455.95 643 455.95 575.35 455.95 527.55 408.15 479.7 360.3 479.7 292.6 479.7 291.45 479.75 290.3 479.8 285.15 480.15 280.15 484.15 220.45 527.55 177.1 575.35 129.25 643 129.25 710.65 129.25 758.5 177.1 806.3 224.9 806.3 292.6 806.3 326.4 794.4 355.3
M 476.1 282.2
Q 475.8 287.35 475.8 292.6 475.8 361.9 524.8 410.9 573.8 459.9 643.05 459.9 682.25 459.9 714.95 444.2 680.55 462.7 638.45 462.7 570.8 462.7 523 414.9 475.15 367.05 475.15 299.35 475.15 290.5 476 281.95 476.1 280.45 476.3 278.9 476.2 280.55 476.1 282.2
M 755 379.1
Q 763.3 368.55 769.3 357.05 784.35 327.95 784.35 292.6 784.35 234.1 743 192.75 701.6 151.35 643.05 151.35 584.5 151.35 543.15 192.75 501.75 234.1 501.75 292.6 501.75 292.75 501.75 292.95 501.8 309.9 505.3 325.4 513.85 363.2 543.15 392.5 584.5 433.85 643.05 433.85 701.6 433.85 743 392.5 749.5 386 755 379.1
M 750.3 380.6
Q 746 385.65 741.2 390.45 700.55 431.05 643.1 431.05 585.65 431.05 545 390.45 518 363.45 508.95 329.05 504.6 312.55 504.4 294.45 504.35 293.4 504.35 292.35 504.35 234.9 545 194.3 585.65 153.65 643.1 153.65 700.55 153.65 741.2 194.3 781.85 234.9 781.85 292.35 781.85 328 766.2 357.2 759.65 369.45 750.3 380.6
M 701.15 387.9
Q 712.05 381.05 721.8 371.35 728.45 364.7 733.75 357.45 754.4 329.3 754.4 292.6 754.4 246.5 721.8 213.9 689.15 181.25 643.05 181.25 596.95 181.25 564.35 213.9 531.7 246.5 531.7 292.6 531.7 301.25 532.85 309.45 537.45 342.3 560.7 367.55 562.45 369.45 564.35 371.35 596.95 403.95 643.05 403.95 675.4 403.95 701.15 387.9
M 720 369.5
Q 708.8 380.7 696.05 387.95 672.3 401.4 643 401.4 598.45 401.4 566.85 370.25 566.45 369.9 566.05 369.5 540.8 344.25 535.55 310.75 534.15 301.9 534.15 292.5 534.15 247.4 566.05 215.5 597.9 183.6 643 183.6 688.1 183.6 720 215.5 751.85 247.4 751.85 292.5 751.85 329.35 730.6 357.4 725.85 363.65 720 369.5
M 728.95 292.6
Q 728.95 257.05 703.8 231.9 678.65 206.75 643.05 206.75 607.45 206.75 582.3 231.9 557.15 257.05 557.15 292.6 557.15 308.75 562.35 322.8 568.6 339.6 582.3 353.3 607.45 378.45 643.05 378.45 676.85 378.45 701.25 355.8 702.55 354.55 703.8 353.3 728.95 328.15 728.95 292.6
M 702 233.45
Q 726.45 257.9 726.45 292.5 726.45 327.1 702 351.55 699.95 353.6 697.85 355.5 674.65 376 642.95 376 608.35 376 583.9 351.55 571.45 339.1 565.35 324.05 559.45 309.5 559.45 292.5 559.45 257.9 583.9 233.45 608.35 209 642.95 209 677.55 209 702 233.45
M 703.85 292.6
Q 703.85 267.4 686.05 249.6 668.25 231.8 643.05 231.8 617.85 231.8 600.05 249.6 582.25 267.4 582.25 292.6 582.25 317.8 600.05 335.6 600.75 336.3 601.45 336.95 618.85 353.4 643.05 353.4 652.55 353.4 661 350.9 674.95 346.7 686.05 335.6 703.85 317.8 703.85 292.6
M 684.4 251.55
Q 701.45 268.6 701.45 292.75 701.45 316.9 684.4 334 671.75 346.6 655.3 349.9 649.45 351.05 643.15 351.05 622.6 351.05 607.15 338.7 604.45 336.5 601.95 334 584.85 316.9 584.85 292.75 584.85 268.6 601.95 251.55 619 234.45 643.15 234.45 667.3 234.45 684.4 251.55
M 672.4 292.6
Q 672.4 280.45 663.8 271.85 655.2 263.25 643.05 263.25 630.9 263.25 622.3 271.85 613.7 280.45 613.7 292.6 613.7 304.75 622.3 313.35 630.9 321.95 643.05 321.95 655.2 321.95 663.8 313.35 672.4 304.75 672.4 292.6
M 662.1 272.95
Q 670 280.85 670 292.05 670 303.25 662.1 311.2 654.15 319.1 642.95 319.1 631.75 319.1 623.85 311.2 615.9 303.25 615.9 292.05 615.9 280.85 623.85 272.95 631.75 265 642.95 265 654.15 265 662.1 272.95 Z"/>

<path fill="#AD0E28" stroke="none" d="
M 475.8 292.6
Q 475.8 287.35 476.1 282.2 476.2 280.55 476.3 278.9 476.1 280.45 476 281.95 475.15 290.5 475.15 299.35 475.15 367.05 523 414.9 570.8 462.7 638.45 462.7 680.55 462.7 714.95 444.2 682.25 459.9 643.05 459.9 573.8 459.9 524.8 410.9 475.8 361.9 475.8 292.6 Z"/>

<path fill="#F7393B" stroke="none" d="
M 769.3 357.05
Q 781.2 356.45 794.4 355.3 806.3 326.4 806.3 292.6 806.3 224.9 758.5 177.1 710.65 129.25 643 129.25 575.35 129.25 527.55 177.1 484.15 220.45 480.15 280.15 491 286.85 501.75 292.95 501.75 292.75 501.75 292.6 501.75 234.1 543.15 192.75 584.5 151.35 643.05 151.35 701.6 151.35 743 192.75 784.35 234.1 784.35 292.6 784.35 327.95 769.3 357.05
M 649.25 133.8
Q 649.8 133.65 650.9 133.65
L 650.9 133.35
Q 653.1 133.15 653.95 134.3 654.45 135 654.35 136.1 654.35 137.6 653.55 138.25 652.7 138.95 651.35 138.6 650.75 138.45 649.3 137.55 648 136.65 647.8 135.9 647.65 135.3 647.95 134.75 648.35 134.05 649.25 133.8
M 608.1 136.4
Q 615.2 134.75 618.45 133.7 620.3 133.15 620.65 133.1 621.85 132.85 624.35 132.85
L 637.4 132.85
Q 639.4 132.85 640.3 133.2 642 133.85 642.15 135.3 642.3 136.8 640.7 137.75 639.95 138.25 637.85 138.65 632.85 139.45 622.25 140.85 612 142.15 606.6 143.05 596.85 144.55 591.3 146.9 590.2 147.4 589.5 147.45 588.3 147.45 587.95 146.65 587.7 146.15 587.9 145 588.45 143 588.9 142.3 589.75 141.1 592.55 139.95 595.4 138.85 597.2 138.45 598.85 138.05 602.25 137.6 604.1 137.3 608.1 136.4
M 701.45 292.75
Q 701.45 268.6 684.4 251.55 667.3 234.45 643.15 234.45 619 234.45 601.95 251.55 584.85 268.6 584.85 292.75 584.85 316.9 601.95 334 604.45 336.5 607.15 338.7 630.5 345.5 655.3 349.9 671.75 346.6 684.4 334 701.45 316.9 701.45 292.75
M 663.8 271.85
Q 672.4 280.45 672.4 292.6 672.4 304.75 663.8 313.35 655.2 321.95 643.05 321.95 630.9 321.95 622.3 313.35 613.7 304.75 613.7 292.6 613.7 280.45 622.3 271.85 630.9 263.25 643.05 263.25 655.2 263.25 663.8 271.85
M 703.8 231.9
Q 728.95 257.05 728.95 292.6 728.95 328.15 703.8 353.3 702.55 354.55 701.25 355.8 715.7 356.95 730.6 357.4 751.85 329.35 751.85 292.5 751.85 247.4 720 215.5 688.1 183.6 643 183.6 597.9 183.6 566.05 215.5 534.15 247.4 534.15 292.5 534.15 301.9 535.55 310.75 549.05 317.25 562.35 322.8 557.15 308.75 557.15 292.6 557.15 257.05 582.3 231.9 607.45 206.75 643.05 206.75 678.65 206.75 703.8 231.9
M 650.85 192.95
Q 650.35 193.05 648.65 192.95 647.15 192.7 646.7 192.5 645.65 192.05 645.35 191.1 645.15 190.4 645.55 189.7 645.95 189.05 646.6 188.7 647.6 188.15 649.45 188.45
L 649.45 188.15
Q 650.7 188.15 651.4 188.55 652.4 189.05 652.65 190.05 652.75 190.75 652.5 191.4 652.3 192 652.05 192.3 651.65 192.8 650.85 192.95
M 597.95 197.25
Q 598.65 196.45 600.75 195.65 620.35 187.9 635.25 186.1 638.45 185.7 640 186.4 641.15 186.95 641.75 188.1 642.35 189.3 641.85 190.35 641.15 191.9 637.7 192.35 619.3 194.45 601.75 200.55 598.7 201.65 597.6 200.25 597.15 199.65 597.25 198.75 597.35 197.9 597.95 197.25 Z"/>

<path fill="#FF6164" stroke="none" d="
M 618.45 133.7
Q 615.2 134.75 608.1 136.4 604.1 137.3 602.25 137.6 598.85 138.05 597.2 138.45 595.4 138.85 592.55 139.95 589.75 141.1 588.9 142.3 588.45 143 587.9 145 587.7 146.15 587.95 146.65 588.3 147.45 589.5 147.45 590.2 147.4 591.3 146.9 596.85 144.55 606.6 143.05 612 142.15 622.25 140.85 632.85 139.45 637.85 138.65 639.95 138.25 640.7 137.75 642.3 136.8 642.15 135.3 642 133.85 640.3 133.2 639.4 132.85 637.4 132.85
L 624.35 132.85
Q 621.85 132.85 620.65 133.1 620.3 133.15 618.45 133.7
M 650.9 133.65
Q 649.8 133.65 649.25 133.8 648.35 134.05 647.95 134.75 647.65 135.3 647.8 135.9 648 136.65 649.3 137.55 650.75 138.45 651.35 138.6 652.7 138.95 653.55 138.25 654.35 137.6 654.35 136.1 654.45 135 653.95 134.3 653.1 133.15 650.9 133.35
L 650.9 133.65
M 600.75 195.65
Q 598.65 196.45 597.95 197.25 597.35 197.9 597.25 198.75 597.15 199.65 597.6 200.25 598.7 201.65 601.75 200.55 619.3 194.45 637.7 192.35 641.15 191.9 641.85 190.35 642.35 189.3 641.75 188.1 641.15 186.95 640 186.4 638.45 185.7 635.25 186.1 620.35 187.9 600.75 195.65
M 648.65 192.95
Q 650.35 193.05 650.85 192.95 651.65 192.8 652.05 192.3 652.3 192 652.5 191.4 652.75 190.75 652.65 190.05 652.4 189.05 651.4 188.55 650.7 188.15 649.45 188.15
L 649.45 188.45
Q 647.6 188.15 646.6 188.7 645.95 189.05 645.55 189.7 645.15 190.4 645.35 191.1 645.65 192.05 646.7 192.5 647.15 192.7 648.65 192.95 Z"/>

<path fill="#FFFDF5" stroke="none" d="
M 733.75 357.45
Q 740.4 357.6 747.1 357.6 756.2 357.6 766.2 357.2 781.85 328 781.85 292.35 781.85 234.9 741.2 194.3 700.55 153.65 643.1 153.65 585.65 153.65 545 194.3 504.35 234.9 504.35 292.35 504.35 293.4 504.4 294.45 518.7 302.5 532.85 309.45 531.7 301.25 531.7 292.6 531.7 246.5 564.35 213.9 596.95 181.25 643.05 181.25 689.15 181.25 721.8 213.9 754.4 246.5 754.4 292.6 754.4 329.3 733.75 357.45
M 670 292.05
Q 670 280.85 662.1 272.95 654.15 265 642.95 265 631.75 265 623.85 272.95 615.9 280.85 615.9 292.05 615.9 303.25 623.85 311.2 631.75 319.1 642.95 319.1 654.15 319.1 662.1 311.2 670 303.25 670 292.05
M 686.05 249.6
Q 703.85 267.4 703.85 292.6 703.85 317.8 686.05 335.6 674.95 346.7 661 350.9 679.05 353.85 697.85 355.5 699.95 353.6 702 351.55 726.45 327.1 726.45 292.5 726.45 257.9 702 233.45 677.55 209 642.95 209 608.35 209 583.9 233.45 559.45 257.9 559.45 292.5 559.45 309.5 565.35 324.05 579.9 329.95 594.2 334.65 597.8 335.85 601.45 336.95 600.75 336.3 600.05 335.6 582.25 317.8 582.25 292.6 582.25 267.4 600.05 249.6 617.85 231.8 643.05 231.8 668.25 231.8 686.05 249.6 Z"/>

<path fill="#D20526" stroke="none" d="
M 696.05 387.95
Q 708.8 380.7 720 369.5 725.85 363.65 730.6 357.4 715.7 356.95 701.25 355.8 676.85 378.45 643.05 378.45 607.45 378.45 582.3 353.3 568.6 339.6 562.35 322.8 549.05 317.25 535.55 310.75 540.8 344.25 566.05 369.5 566.45 369.9 566.85 370.25 598.45 401.4 643 401.4 672.3 401.4 696.05 387.95
M 607.15 338.7
Q 622.6 351.05 643.15 351.05 649.45 351.05 655.3 349.9 630.5 345.5 607.15 338.7
M 769.3 357.05
Q 763.3 368.55 755 379.1 749.5 386 743 392.5 701.6 433.85 643.05 433.85 584.5 433.85 543.15 392.5 513.85 363.2 505.3 325.4 501.8 309.9 501.75 292.95 491 286.85 480.15 280.15 479.8 285.15 479.75 290.3 479.7 291.45 479.7 292.6 479.7 360.3 527.55 408.15 575.35 455.95 643 455.95 710.65 455.95 758.5 408.15 777.55 389.05 789.05 366.8 791.95 361.15 794.4 355.3 781.2 356.45 769.3 357.05 Z"/>

<path fill="#FFF3CB" stroke="none" d="
M 697.85 355.5
Q 679.05 353.85 661 350.9 652.55 353.4 643.05 353.4 618.85 353.4 601.45 336.95 597.8 335.85 594.2 334.65 579.9 329.95 565.35 324.05 571.45 339.1 583.9 351.55 608.35 376 642.95 376 674.65 376 697.85 355.5
M 721.8 371.35
Q 712.05 381.05 701.15 387.9 675.4 403.95 643.05 403.95 596.95 403.95 564.35 371.35 562.45 369.45 560.7 367.55 537.45 342.3 532.85 309.45 518.7 302.5 504.4 294.45 504.6 312.55 508.95 329.05 518 363.45 545 390.45 585.65 431.05 643.1 431.05 700.55 431.05 741.2 390.45 746 385.65 750.3 380.6 759.65 369.45 766.2 357.2 756.2 357.6 747.1 357.6 740.4 357.6 733.75 357.45 728.45 364.7 721.8 371.35 Z"/>
</g>

<g id="Layer1_0_MEMBER_1_MEMBER_1_MEMBER_1_FILL">
<path fill="#FFF3CB" stroke="none" d="
M 650.3 288.9
Q 650.15 289.1 649.95 289.3 649.7 289.5 649.55 289.7 649.35 289.9 649.15 290.1 648.95 290.3 648.7 290.5 648.5 290.6 648.25 290.8 648 291 647.85 291.2 647.75 291.25 647.55 291.35 647.8 291.7 647.85 292.05 647.85 292.55 647.5 292.9 647.1 293.25 646.6 293.4 645.65 293.55 644.75 292.9 644.3 292.7 643.15 291.5
L 640.8 289
Q 640.3 291.05 639.7 293.35 638.9 296.25 638.9 301.8 638.9 307.7 641.45 310.6 643 312.35 644.2 312.35 646.1 312.35 648.95 298.2 650.05 292.75 650.7 288.55 650.5 288.75 650.3 288.9
M 788.65 115.85
Q 785.4 119.05 782.3 122.35 780.2 124.6 779 126.3 779.1 128.3 778.85 131.05 778.7 132.75 778.3 136.2 778.1 139.1 778.15 144.95 778.1 145.75 778.1 146.5 778.05 146.95 778 147.35 778.1 147.2 778.3 147 778.45 146.85 778.65 146.65 778.75 146.55 778.85 146.45 778.95 146.35 779.05 146.25 779.25 146.05 779.5 145.8 779.65 145.65 779.9 145.45 780.05 145.25 780.25 145.05 780.5 144.85 780.65 144.65 780.85 144.45 781.1 144.25 781.25 144.05 781.45 143.85 781.65 143.7 781.85 143.45 782.1 143.25 782.25 143.1 782.45 142.85 782.7 142.65 782.85 142.5 783.05 142.25 783.3 142.05 783.45 141.9 783.7 141.7 783.95 141.65 784.3 141.55 784.7 141.45 784.95 141.55 785.3 141.6
L 786.55 140.7
Q 787.4 137.2 788.1 134.15 790.65 123.15 791.25 113.4 789.8 114.7 788.65 115.85
M 828.85 137.8
Q 829.45 137.7 830.05 137.65 834.2 133.05 838.35 128.45 822.25 130.9 807.7 132.9
L 796.9 144.9
Q 808.45 143.85 825.9 142.25 827.3 140.65 828.7 139.1 814.45 142.3 800.2 142.95 799.9 142.85 800.2 142.5 800.45 142.2 800.8 142.1
L 828.85 137.8
M 824.95 85.55
Q 824.6 85.85 824.2 86.2 817.65 92.2 813.6 95.4
L 806.45 100.95
Q 804.3 107.7 802.45 115.2 802 117.45 801.55 120 800.4 126.55 799.05 131.35
L 805.7 126.35
Q 817.3 115.45 824.5 108.85 824.65 97.2 824.95 85.55 Z"/>

<path fill="#053336" stroke="none" d="
M 826.75 84.3
L 826.1 84.3 826.1 79.95 826.85 79.6 826.85 79.3
Q 826.65 79.2 826.4 79.2 825.45 79.15 824.25 80.55 820.6 84.85 816.45 88.1 814.4 89.7 813.4 90.5 811.6 91.9 810.45 93 809.25 94.3 808.4 95.15 807.9 95.6 807.55 95.95 806.6 96.8 805 97.9
L 802.3 99.7
Q 800.7 100.75 796.65 104.05
L 792.3 107.6
Q 791.85 108 791.45 108.35 789 110.55 787.6 112.1 786.45 113.35 784.35 115.95
L 778.4 123.35
Q 778.2 123.6 778.05 123.85 777.85 123.7 777.6 123.65 777.1 123.5 776.7 123.7 776.2 124 775.95 125.35 775.25 132.2 775 139.75
L 774.85 148.85
Q 774.8 149.7 774.85 150.4 774.75 150.5 774.65 150.6 774.5 150.8 774.25 151 774.05 151.2 773.85 151.4 773.65 151.6 773.5 151.75 773.25 152 773.05 152.2 772.9 152.35 772.65 152.6 772.45 152.8 772.3 152.95 772.05 153.2 771.9 153.35 771.65 153.55 771.45 153.8 771.3 153.95 771.05 154.15 770.85 154.4 770.7 154.55 770.45 154.75 770.25 155 770.1 155.15 769.85 155.35 769.7 155.55 769.45 155.75 769.25 155.95 769.1 156.15 768.85 156.35 768.65 156.55 768.5 156.75 768.25 156.95 768.1 157.1 767.85 157.35 767.65 157.55 767.5 157.7 767.25 157.95 767.05 158.15 766.9 158.3 766.65 158.55 766.45 158.75 766.3 158.9 766.05 159.15 765.9 159.3 765.65 159.5 765.45 159.75 765.3 159.9 765.05 160.1 764.85 160.35 764.7 160.5 764.45 160.7 764.3 160.9 764.1 161.1 763.85 161.3 763.7 161.5 763.45 161.7 763.25 161.9 763.1 162.1 762.85 162.3 762.65 162.5 762.5 162.7 762.25 162.9 762.1 163.05 761.85 163.3 761.65 163.5 761.5 163.65 761.25 163.9 761.05 164.1 760.9 164.25 760.65 164.5 760.5 164.65 760.3 164.85 760.05 165.1 759.9 165.25 759.65 165.45 759.45 165.7 759.3 165.85 759.05 166.05 758.85 166.3 758.7 166.45 758.45 166.65 758.3 166.85 758.05 167.05 757.85 167.25 757.7 167.45 757.45 167.65 757.25 167.85 757.1 168.05 756.85 168.25 756.7 168.4 756.5 168.65 756.25 168.85 756.1 169 755.85 169.25 755.65 169.45 755.5 169.6 755.25 169.85 755.05 170.05 754.9 170.2 754.65 170.45 754.5 170.6 754.3 170.8 754.05 171.05 753.9 171.2 753.65 171.4 753.45 171.65 753.3 171.8 753.05 172 752.9 172.2 752.7 172.4 752.45 172.6 752.3 172.8 752.05 173 751.85 173.2 751.7 173.4 751.45 173.6 751.25 173.8 751.1 174 750.85 174.2 750.7 174.35 750.5 174.6 750.25 174.8 750.1 174.95 749.85 175.2 749.65 175.4 749.5 175.55 749.25 175.8 749.1 175.95 748.9 176.15 748.65 176.4 748.5 176.55 748.25 176.75 748.05 177 747.9 177.15 747.65 177.35 747.45 177.6 747.3 177.75 747.05 177.95 746.9 178.15 746.7 178.35 746.45 178.55 746.3 178.75 746.05 178.95 745.85 179.15 745.7 179.35 745.45 179.55 745.3 179.7 745.1 179.95 744.85 180.15 744.7 180.3 744.5 180.55 744.25 180.75 744.1 180.9 743.85 181.15 743.65 181.35 743.5 181.5 743.25 181.75 743.1 181.9 742.9 182.1 742.65 182.35 742.5 182.5 742.25 182.7 742.05 182.95 741.9 183.1 741.65 183.3 741.5 183.5 741.3 183.7 741.05 183.9 740.9 184.1 740.7 184.3 740.45 184.5 740.3 184.7 740.05 184.9 739.85 185.1 739.7 185.3 739.45 185.5 739.3 185.65 739.1 185.9 738.85 186.1 738.7 186.25 738.45 186.5 738.25 186.7 738.1 186.85 737.85 187.1 737.7 187.25 737.5 187.45 737.25 187.7 737.1 187.85 736.9 188.05 736.65 188.3 736.5 188.45 736.25 188.65 736.05 188.9 735.9 189.05 735.65 189.25 735.5 189.45 735.3 189.65 735.05 189.85 734.9 190.05 734.7 190.25 734.45 190.45 734.3 190.65 734.05 190.85 733.9 191 733.7 191.25 733.45 191.45 733.3 191.6 733.1 191.85 732.85 192.05 732.7 192.2 732.45 192.45 732.25 192.65 732.1 192.8 731.85 193.05 731.7 193.2 731.5 193.4 731.25 193.65 731.1 193.8 730.9 194 730.65 194.25 730.5 194.4 730.25 194.6 730.1 194.8 729.9 195 729.65 195.2 729.5 195.4 729.3 195.6 729.05 195.8 728.9 196 728.7 196.2 728.45 196.4 728.3 196.6 728.05 196.8 727.9 196.95 727.7 197.2 727.45 197.4 727.3 197.55 727.1 197.8 726.85 198 726.7 198.15 726.45 198.4 726.3 198.55 726.1 198.75 725.85 199 725.7 199.15 725.5 199.35 725.25 199.6 725.1 199.75 724.9 199.95 724.65 200.2 724.5 200.35 724.25 200.55 724.1 200.75 723.9 200.95 723.65 201.15 723.5 201.35 723.3 201.55 723.05 201.75 722.9 201.95 722.65 202.15 722.5 202.3 722.3 202.55 722.05 202.75 721.9 202.9 721.7 203.15 721.45 203.35 721.3 203.5 721.1 203.75 720.85 203.95 720.7 204.1 720.45 204.35 720.3 204.5 720.1 204.7 719.85 204.95 719.7 205.1 719.5 205.3 719.25 205.55 719.1 205.7 718.9 205.9 718.7 206.1 718.5 206.3 718.25 206.5 718.1 206.7 717.9 206.9 717.65 207.1 717.5 207.3 717.3 207.5 717.05 207.7 716.9 207.9 716.65 208.1 716.5 208.25 716.3 208.5 716.05 208.7 715.9 208.85 715.7 209.1 715.45 209.3 715.3 209.45 715.1 209.7 714.9 209.85 714.7 210.05 714.45 210.3 714.3 210.45 714.1 210.65 713.85 210.9 713.7 211.05 713.5 211.25 713.25 211.5 713.1 211.65 712.85 211.85 712.7 212.05 712.5 212.25 712.25 212.45 712.1 212.65 711.9 212.85 711.65 213.05 711.5 213.25 711.3 213.45 711.1 213.6 710.9 213.85 710.65 214.05 710.5 214.2 710.3 214.45 710.05 214.65 709.9 214.8 709.7 215.05 709.45 215.25 709.3 215.4 709.1 215.65 708.9 215.8 708.7 216 708.45 216.25 708.3 216.4 708.1 216.6 707.85 216.85 707.7 217 707.5 217.2 707.3 217.4 707.1 217.6 706.85 217.8 706.7 218 706.5 218.2 706.25 218.4 706.1 218.6 705.9 218.8 705.65 219 705.5 219.2 705.3 219.4 705.1 219.55 704.9 219.8 704.65 220 704.5 220.15 704.3 220.4 704.05 220.6 703.9 220.75 703.7 221 703.5 221.15 703.3 221.35 703.1 221.6 702.9 221.75 702.7 221.95 702.45 222.2 702.3 222.35 702.1 222.55 701.85 222.8 701.7 222.95 701.5 223.15 701.3 223.35 701.1 223.55 700.85 223.75 700.7 223.95 700.5 224.15 700.25 224.35 700.1 224.55 699.9 224.75 699.7 224.95 699.5 225.15 699.3 225.35 699.1 225.5 698.9 225.75 698.65 225.95 698.5 226.1 698.3 226.35 698.1 226.5 697.9 226.7 697.7 226.95 697.5 227.1 697.3 227.3 697.05 227.55 696.9 227.7 696.7 227.9 696.45 228.15 696.3 228.3 696.1 228.5 695.9 228.7 695.7 228.9 695.5 229.1 695.3 229.3 695.1 229.5 694.85 229.7 694.7 229.9 694.5 230.1 694.3 230.3 694.1 230.5 693.9 230.7 693.7 230.85 693.5 231.1 693.3 231.3 693.1 231.45 692.9 231.7 692.65 231.9 692.5 232.05 692.3 232.3 692.1 232.45 691.9 232.65 691.7 232.9 691.5 233.05 691.3 233.25 691.05 233.5 690.9 233.65 690.7 233.85 690.5 234.05 690.3 234.25 690.1 234.45 689.9 234.65 689.7 234.85 689.5 235.05 689.3 235.25 689.1 235.45 688.85 235.65 688.7 235.85 688.5 236.05 688.3 236.25 688.1 236.45 687.9 236.65 687.7 236.8 687.5 237.05 687.25 237.25 687.1 237.4 686.9 237.65 686.7 237.8 686.5 238 686.3 238.25 686.1 238.4 685.9 238.6 685.7 238.85 685.5 239 685.3 239.2 685.05 239.45 684.9 239.6 684.7 239.8 684.5 240 684.3 240.2 684.1 240.4 683.9 240.6 683.7 240.8 683.5 241 683.3 241.2 683.1 241.4 682.9 241.6 682.7 241.8 682.5 242 682.3 242.2 682.1 242.4 681.9 242.6 681.7 242.75 681.5 243 681.25 243.2 681.1 243.35 680.9 243.6 680.7 243.75 680.5 243.95 680.3 244.2 680.1 244.35 679.9 244.55 679.7 244.8 679.5 244.95 679.3 245.15 679.1 245.35 678.9 245.55 678.7 245.75 678.5 245.95 678.3 246.15 678.1 246.35 677.9 246.55 677.7 246.75 677.45 246.95 677.3 247.15 677.1 247.35 676.9 247.55 676.7 247.75 676.5 247.95 676.3 248.1 676.1 248.35 675.9 248.55 675.7 248.7 675.5 248.95 675.3 249.1 675.1 249.3 674.9 249.55 674.7 249.7 674.5 249.9 674.3 250.15 674.1 250.3 673.9 250.5 673.7 250.75 673.5 250.9 673.3 251.1 673.1 251.3 672.9 251.5 672.7 251.7 672.5 251.9 672.3 252.1 672.1 252.3 671.9 252.5 671.7 252.7 671.5 252.9 671.3 253.1 671.1 253.3 670.9 253.5 670.7 253.7 670.5 253.9 670.3 254.05 670.1 254.3 669.9 254.5 669.7 254.65 669.5 254.9 669.3 255.05 669.1 255.25 668.9 255.5 668.7 255.65 668.5 255.85 668.3 256.1 668.1 256.25 667.9 256.45 667.7 256.65 667.5 256.85 667.3 257.05 667.1 257.25 666.9 257.45 666.7 257.65 666.5 257.85 666.3 258.05 666.1 258.25 665.9 258.45 665.7 258.65 665.5 258.85 665.3 259.05 665.1 259.25 664.9 259.4 664.7 259.65 664.5 259.85 664.3 260 664.1 260.25 663.9 260.4 663.7 260.6 663.5 260.85 663.3 261 663.1 261.2 662.9 261.45 662.7 261.6 662.5 261.8 662.3 262.05 662.1 262.2 661.9 262.4 661.7 262.6 661.5 262.8 661.3 263 661.1 263.2 660.9 263.4 660.7 263.6 660.5 263.8 660.3 264 660.1 264.2 659.9 264.4 659.7 264.6 659.5 264.8 659.3 265 659.1 265.2 658.9 265.35 658.7 265.6 658.5 265.8 658.3 265.95 658.1 266.2 657.9 266.35 657.7 266.55 657.5 266.8 657.3 266.95 657.1 267.15 656.9 267.4 656.7 267.55 656.5 267.75 656.3 267.95 656.1 268.15 655.9 268.35 655.7 268.55 655.5 268.75 655.3 268.95 655.1 269.15 654.9 269.35 654.7 269.55 654.5 269.75 654.3 269.95 654.1 270.15 653.9 270.35 653.7 270.55 653.5 270.75 653.3 270.95 653.1 271.15 652.9 271.3 652.7 271.55 652.5 271.7 652.3 271.9 652.1 272.15 651.9 272.3 651.7 272.5 651.5 272.75 651.3 272.9 651.1 273.1 650.9 273.35 650.7 273.5 650.5 273.7 650.3 273.9 650.1 274.1 649.9 274.3 649.7 274.5 649.5 274.7 649.3 274.9 649.1 275.1 648.9 275.3 648.7 275.5 648.5 275.7 648.3 275.9 648.1 276.1 647.9 276.3 647.7 276.5 647.5 276.65 647.3 276.9 647.1 277.1 646.9 277.25 646.7 277.5 646.5 277.65 646.3 277.85 646.1 278.1 645.9 278.25 645.7 278.45 645.5 278.7 645.3 278.85 645.1 279.05 644.9 279.25 644.7 279.45 644.5 279.65 644.3 279.85 644.1 280.05 643.9 280.25 643.7 280.45 643.5 280.65 643.3 280.85 643.1 281.05 642.9 281.25 642.7 281.45 642.5 281.65 642.3 281.85 642.1 282.05 641.9 282.25 641.7 282.45 641.5 282.6 641.3 282.85 641.1 283 640.95 283.25 640.8 283.6 640.6 283.75 640.4 283.95 640.3 284.25 640.15 284.45 640.05 284.75 639.9 285.05 639.9 285.4 639.9 285.8 640 286 640.15 286.15 640.05 286.25 640 286.35 639.4 286.9 639.55 287.35 639.55 287.5 639.95 288.1
L 640.8 289 643.15 291.5
Q 644.3 292.7 644.75 292.9 645.65 293.55 646.6 293.4 647.1 293.25 647.5 292.9 647.85 292.55 647.85 292.05 647.8 291.7 647.55 291.35 647.75 291.25 647.85 291.2 648 291 648.25 290.8 648.5 290.6 648.7 290.5 648.95 290.3 649.15 290.1 649.35 289.9 649.55 289.7 649.7 289.5 649.95 289.3 650.15 289.1 650.3 288.9 650.5 288.75 650.7 288.55
L 650.75 288.5
Q 650.9 288.3 651.15 288.1 651.3 287.95 651.55 287.7 651.75 287.5 651.9 287.35 652.15 287.15 652.35 286.9 652.5 286.75 652.75 286.55 652.95 286.3 653.15 286.15 653.35 285.95 653.5 285.75 653.75 285.55 653.95 285.35 654.1 285.15 654.35 284.95 654.55 284.75 654.7 284.55 654.95 284.35 655.1 284.15 655.35 283.95 655.55 283.75 655.7 283.55 655.95 283.35 656.15 283.15 656.3 282.95 656.55 282.75 656.75 282.55 656.9 282.35 657.15 282.15 657.3 282 657.55 281.8 657.75 281.55 657.9 281.4 658.15 281.2 658.35 280.95 658.5 280.8 658.75 280.6 658.9 280.4 659.15 280.2 659.35 280 659.5 279.8 659.75 279.6 659.95 279.4 660.1 279.2 660.35 279 660.55 278.8 660.7 278.6 660.95 278.4 661.1 278.2 661.35 278 661.55 277.8 661.7 277.6 661.95 277.4 662.15 277.2 662.3 277 662.55 276.8 662.7 276.65 662.95 276.4 663.15 276.2 663.3 276.05 663.55 275.85 663.75 275.6 663.9 275.45 664.15 275.25 664.35 275 664.5 274.85 664.75 274.65 664.9 274.45 665.15 274.25 665.35 274.05 665.5 273.85 665.75 273.65 665.95 273.45 666.1 273.25 666.35 273.05 666.5 272.85 666.7 272.65 666.95 272.45 667.1 272.25 667.35 272.05 667.55 271.85 667.7 271.65 667.95 271.45 668.15 271.25 668.3 271.05 668.55 270.85 668.7 270.7 668.95 270.45 669.15 270.25 669.3 270.1 669.55 269.9 669.75 269.65 669.9 269.5 670.15 269.3 670.3 269.1 670.5 268.9 670.75 268.7 670.9 268.5 671.15 268.3 671.35 268.1 671.5 267.9 671.75 267.7 671.95 267.5 672.1 267.3 672.35 267.1 672.5 266.9 672.75 266.7 672.95 266.5 673.1 266.3 673.35 266.1 673.55 265.9 673.7 265.7 673.95 265.5 674.1 265.35 674.3 265.1 674.55 264.9 674.7 264.75 674.95 264.55 675.15 264.3 675.3 264.15 675.55 263.95 675.75 263.7 675.9 263.55 676.15 263.35 676.3 263.15 676.5 262.95 676.75 262.75 676.9 262.55 677.15 262.35 677.35 262.15 677.5 261.95 677.75 261.75 677.9 261.55 678.1 261.35 678.35 261.15 678.5 260.95 678.75 260.75 678.95 260.55 679.1 260.35 679.35 260.15 679.55 259.95 679.7 259.75 679.95 259.55 680.1 259.4 680.3 259.15 680.55 258.95 680.7 258.8 680.95 258.6 681.15 258.35 681.3 258.2 681.55 258 681.7 257.8 681.9 257.6 682.15 257.4 682.3 257.2 682.5 257 682.75 256.8 682.9 256.6 683.15 256.4 683.35 256.2 683.5 256 683.75 255.8 683.9 255.6 684.1 255.4 684.35 255.2 684.5 255 684.75 254.8 684.95 254.6 685.1 254.4 685.35 254.2 685.5 254.05 685.7 253.8 685.95 253.6 686.1 253.45 686.3 253.25 686.55 253 686.7 252.85 686.95 252.65 687.15 252.4 687.3 252.25 687.55 252.05 687.7 251.85 687.9 251.65 688.15 251.45 688.3 251.25 688.55 251.05 688.75 250.85 688.9 250.65 689.15 250.45 689.3 250.25 689.5 250.05 689.75 249.85 689.9 249.65 690.1 249.45 690.35 249.25 690.5 249.05 690.75 248.85 690.95 248.65 691.1 248.45 691.35 248.25 691.5 248.1 691.7 247.85 691.95 247.65 692.1 247.5 692.3 247.3 692.55 247.05 692.7 246.9 692.95 246.7 693.1 246.5 693.3 246.3 693.55 246.1 693.7 245.9 693.9 245.7 694.15 245.5 694.3 245.3 694.55 245.1 694.75 244.9 694.9 244.7 695.15 244.5 695.3 244.3 695.5 244.1 695.75 243.9 695.9 243.7 696.1 243.5 696.35 243.3 696.5 243.1 696.75 242.9 696.9 242.75 697.1 242.5 697.35 242.3 697.5 242.15 697.7 241.9 697.95 241.7 698.1 241.55 698.35 241.35 698.55 241.1 698.7 240.95 698.95 240.75 699.1 240.55 699.3 240.35 699.55 240.15 699.7 239.95 699.9 239.75 700.15 239.55 700.3 239.35 700.55 239.15 700.7 238.95 700.9 238.75 701.15 238.55 701.3 238.35 701.5 238.15 701.75 237.95 701.9 237.75 702.1 237.55 702.35 237.35 702.5 237.15 702.75 236.95 702.9 236.8 703.1 236.55 703.35 236.35 703.5 236.2 703.7 236 703.95 235.75 704.1 235.6 704.35 235.4 704.5 235.2 704.7 235 704.95 234.8 705.1 234.6 705.3 234.4 705.55 234.2 705.7 234 705.9 233.8 706.15 233.6 706.3 233.4 706.55 233.2 706.7 233 706.9 232.8 707.15 232.6 707.3 232.4 707.5 232.2 707.75 232 707.9 231.8 708.15 231.6 708.3 231.45 708.5 231.2 708.75 231 708.9 230.85 709.1 230.6 709.35 230.4 709.5 230.25 709.7 230.05 709.95 229.8 710.1 229.65 710.35 229.45 710.5 229.25 710.7 229.05 710.95 228.85 711.1 228.65 711.3 228.45 711.55 228.25 711.7 228.05 711.9 227.85 712.1 227.65 712.3 227.45 712.55 227.25 712.7 227.05 712.9 226.85 713.15 226.65 713.3 226.45 713.5 226.25 713.75 226.05 713.9 225.85 714.15 225.65 714.3 225.5 714.5 225.25 714.75 225.05 714.9 224.9 715.1 224.65 715.35 224.45 715.5 224.3 715.7 224.1 715.9 223.9 716.1 223.7 716.35 223.5 716.5 223.3 716.7 223.1 716.95 222.9 717.1 222.7 717.3 222.5 717.55 222.3 717.7 222.1 717.9 221.9 718.1 221.7 718.3 221.5 718.55 221.3 718.7 221.1 718.9 220.9 719.15 220.7 719.3 220.5 719.5 220.3 719.7 220.15 719.9 219.9 720.15 219.7 720.3 219.55 720.5 219.3 720.75 219.1 720.9 218.95 721.1 218.75 721.35 218.5 721.5 218.35 721.7 218.15 721.9 217.95 722.1 217.75 722.35 217.55 722.5 217.35 722.7 217.15 722.95 216.95 723.1 216.75 723.3 216.55 723.5 216.35 723.7 216.15 723.95 215.95 724.1 215.75 724.3 215.55 724.55 215.35 724.7 215.15 724.9 214.95 725.15 214.75 725.3 214.55 725.5 214.35 725.7 214.2 725.9 213.95 726.15 213.75 726.3 213.6 726.5 213.35 726.75 213.15 726.9 213 727.1 212.8 727.3 212.6 727.5 212.4 727.7 212.2 727.9 212 728.1 211.8 728.35 211.6 728.5 211.4 728.7 211.2 728.95 211 729.1 210.8 729.3 210.6 729.5 210.4 729.7 210.2 729.95 210 730.1 209.8 730.3 209.6 730.55 209.4 730.7 209.2 730.9 209 731.1 208.85 731.3 208.6 731.5 208.4 731.7 208.25 731.9 208 732.15 207.8 732.3 207.65 732.5 207.45 732.75 207.2 732.9 207.05 733.1 206.85 733.3 206.65 733.5 206.45 733.75 206.25 733.9 206.05 734.1 205.85 734.35 205.65 734.5 205.45 734.7 205.25 734.9 205.05 735.1 204.85 735.3 204.65 735.5 204.45 735.7 204.25 735.95 204.05 736.1 203.85 736.3 203.65 736.55 203.45 736.7 203.25 736.9 203.05 737.1 202.9 737.3 202.65 737.5 202.45 737.7 202.3 737.9 202.05 738.15 201.85 738.3 201.7 738.5 201.5 738.7 201.3 738.9 201.1 739.1 200.9 739.3 200.7 739.5 200.5 739.75 200.3 739.9 200.1 740.1 199.9 740.35 199.7 740.5 199.5 740.7 199.3 740.9 199.1 741.1 198.9 741.3 198.7 741.5 198.5 741.7 198.3 741.95 198.1 742.1 197.9 742.3 197.7 742.5 197.55 742.7 197.3 742.9 197.1 743.1 196.95 743.3 196.7 743.55 196.5 743.7 196.35 743.9 196.1 744.15 195.9 744.3 195.75 744.5 195.55 744.7 195.35 744.9 195.15 745.1 194.95 745.3 194.75 745.5 194.55 745.75 194.35 745.9 194.15 746.1 193.95 746.3 193.75 746.5 193.55 746.7 193.35 746.9 193.15 747.1 192.95 747.3 192.75 747.5 192.55 747.7 192.35 747.95 192.15 748.1 191.95 748.3 191.75 748.5 191.6 748.7 191.35 748.9 191.15 749.1 191 749.3 190.75 749.55 190.55 749.7 190.4 749.9 190.2 750.1 190 750.3 189.8 750.5 189.6 750.7 189.4 750.9 189.2 751.1 189 751.3 188.8 751.5 188.6 751.75 188.4 751.9 188.2 752.1 188 752.3 187.8 752.5 187.6 752.7 187.4 752.9 187.2 753.1 187 753.3 186.8 753.5 186.6 753.7 186.4 753.9 186.25 754.1 186 754.3 185.8 754.5 185.65 754.7 185.4 754.9 185.2 755.1 185.05 755.3 184.8 755.55 184.6 755.7 184.45 755.9 184.25 756.1 184.05 756.3 183.85 756.5 183.65 756.7 183.45 756.9 183.25 757.1 183.05 757.3 182.85 757.5 182.65 757.7 182.45 757.9 182.25 758.1 182.05 758.3 181.85 758.5 181.65 758.7 181.45 758.9 181.25 759.1 181.05 759.35 180.85 759.5 180.65 759.7 180.45 759.9 180.3 760.1 180.05 760.3 179.85 760.5 179.7 760.7 179.45 760.9 179.25 761.1 179.1 761.3 178.9 761.5 178.7 761.7 178.5 761.9 178.3 762.1 178.1 762.3 177.9 762.5 177.7 762.7 177.5 762.9 177.3 763.1 177.1 763.3 176.9 763.5 176.7 763.7 176.5 763.9 176.3 764.1 176.1 764.3 175.9 764.5 175.7 764.7 175.5 764.9 175.3 765.1 175.1 765.3 174.95 765.5 174.7 765.7 174.5 765.9 174.35 766.1 174.1 766.3 173.9 766.5 173.75 766.7 173.5 766.9 173.3 767.1 173.15 767.3 172.95 767.5 172.75 767.7 172.55 767.9 172.35 768.1 172.15 768.3 171.95 768.5 171.75 768.7 171.55 768.9 171.35 769.1 171.15 769.3 170.95 769.5 170.75 769.7 170.55 769.9 170.35 770.1 170.15 770.3 169.95 770.5 169.75 770.7 169.6 770.9 169.35 771.1 169.15 771.3 169 771.5 168.75 771.7 168.55 771.9 168.4 772.1 168.15 772.3 167.95 772.5 167.8 772.7 167.55 772.9 167.4 773.1 167.2 773.3 167 773.5 166.8 773.7 166.6 773.9 166.4 774.1 166.2 774.3 166 774.5 165.8 774.7 165.6 774.9 165.4 775.1 165.2 775.3 165 775.5 164.8 775.7 164.6 775.9 164.4 776.1 164.2 776.3 164 776.5 163.8 776.7 163.65 776.9 163.4 777.1 163.2 777.3 163.05 777.5 162.8 777.7 162.6 777.9 162.45 778.1 162.2 778.3 162.05 778.5 161.85 778.7 161.65 778.9 161.45 779.1 161.25 779.3 161.05 779.5 160.85 779.7 160.65 779.9 160.45 780.1 160.25 780.3 160.05
L 780.35 160
Q 780.8 160 781.3 160 795.15 159.7 809 159.7 810.7 159.7 812.15 159.05 818.85 155.75 823.85 150.15 826.85 146.85 829.85 143.4 830.6 142.55 831.3 141.75 833.1 139.65 834.9 137.6 835.2 137.5 835.55 137.4 835.3 137.35 835.1 137.35 839.4 132.4 843.8 127.6 851.8 118.65 860.1 110.05
L 859.85 108.4
Q 859.35 108.15 858.9 107.95 855.75 107.55 852.7 108.1 840.3 108.9 827.8 109.65
L 826.75 84.3
M 824.2 86.2
Q 824.6 85.85 824.95 85.55 824.65 97.2 824.5 108.85 824.5 109.25 824.5 109.7 824.45 111.45 825.5 112.7
L 853.4 111.7
Q 845.85 120.05 838.35 128.45 834.2 133.05 830.05 137.65 829.45 137.7 828.85 137.8
L 800.8 142.1
Q 800.45 142.2 800.2 142.5 799.9 142.85 800.2 142.95 814.45 142.3 828.7 139.1 827.3 140.65 825.9 142.25 823.15 145.25 820.4 148.35 818.65 150.3 816.55 152.05 812.5 155.45 807.45 156.05 795.75 156.2 783.95 156.5 784.1 156.25 784.3 156.1 784.5 155.9 784.7 155.7 784.9 155.5 785.1 155.3 785.3 155.1 785.5 154.9 785.7 154.7 785.9 154.5 786.1 154.3 786.3 154.1 786.5 153.9 786.7 153.7 786.9 153.5 787.1 153.3 787.3 153.1 787.5 152.9 787.65 152.75 787.8 152.6
L 789.15 153.5 795.25 146.75 795.35 147.1 810 146.25
Q 810.4 146.25 810.7 146.1 811.05 145.85 810.9 145.5 802.6 145.65 795.5 146.45
L 796.9 144.9 807.7 132.9 825.05 113.6 823.5 113 805.7 126.35 799.05 131.35
Q 800.4 126.55 801.55 120 802 117.45 802.45 115.2 804.15 106.15 805.4 102.35 804.05 102.7 803.6 105.3 801.05 119.25 798.2 131.95
L 786.55 140.7 785.3 141.6
Q 784.95 141.55 784.7 141.45 784.3 141.55 783.95 141.65 783.7 141.7 783.45 141.9 783.3 142.05 783.05 142.25 782.85 142.5 782.7 142.65 782.45 142.85 782.25 143.1 782.1 143.25 781.85 143.45 781.65 143.7 781.45 143.85 781.25 144.05 781.1 144.25 780.85 144.45 780.65 144.65 780.5 144.85 780.25 145.05 780.05 145.25 779.9 145.45 779.65 145.65 779.5 145.8 779.25 146.05 779.05 146.25 778.95 146.35 778.85 146.45 778.75 146.55 778.65 146.65 778.45 146.85 778.3 147 778.1 147.2 778 147.35 778.05 146.95 778.1 146.5 778.1 145.75 778.15 144.95 778.1 139.1 778.3 136.2 778.7 132.75 778.85 131.05 779.1 128.3 779 126.3 780.2 124.6 782.3 122.35 785.4 119.05 788.65 115.85 789.8 114.7 791.25 113.4 792.85 111.9 794.8 110.2 796.6 108.65 800.05 105.95 797.95 117.65 793.85 129.35 792.55 132.75 792.45 134.7 798.6 120.55 801.05 105.1 803.15 103.45 805.8 101.45
L 806.45 100.95 813.6 95.4
Q 817.65 92.2 824.2 86.2
M 783.75 147.15
Q 783.85 147.05 783.95 146.95 784.05 146.85 784.1 146.8 784.25 146.6 784.35 146.5 784.55 146.35 784.75 146.1 784.85 146.05 784.95 145.95 785.05 145.85 785.15 145.75 785.2 145.7 785.25 145.65 785.4 145.5 785.55 145.35 785.75 145.15 785.95 144.95 786.1 144.65 786.25 144.45 786.4 144.15 786.5 143.9 786.5 143.5 786.55 143.1
L 797.15 136.45
Q 797 136.95 796.9 137.4 797.15 136.85 797.35 136.3
L 800.15 134.55 790.95 147.25
Q 790.8 147.05 790.7 146.85 790.65 146.9 790.6 146.95 790.4 146.7 790.1 146.4 789.75 146.35 789.45 146.25 789.05 146.35 788.75 146.4 788.45 146.5 788.2 146.7 788.05 146.85 787.8 147.05 787.6 147.3 787.45 147.45 787.2 147.65 787 147.9 786.85 148.05 786.6 148.25 786.4 148.5 786.2 148.65 786 148.85 785.85 149.05 785.6 149.25 785.4 149.45 785.25 149.65 785 149.85 784.8 150.05 784.65 150.25 784.4 150.45 784.25 150.6 784 150.85 783.8 151.05
L 783.8 151.1
Q 783.65 151.2 783.4 151.45 783.2 151.65 783.05 151.8 782.8 152.05 782.6 152.25 782.4 152.4 782.2 152.65 782.05 152.8 781.8 153 781.6 153.25 781.45 153.4 781.2 153.6 781 153.85 780.85 154 780.6 154.2 780.45 154.4 780.2 154.6 780 154.8 779.85 155 779.6 155.2 779.4 155.4 779.25 155.6 779 155.8 778.8 156 778.6 156.2 778.4 156.4 778.25 156.55 778 156.8 777.8 157 777.65 157.15 777.4 157.4 777.2 157.6 777.05 157.75 776.8 158 776.65 158.15 776.4 158.35 776.2 158.6 776.05 158.75 775.8 158.95 775.6 159.2 775.45 159.35 775.2 159.55 775 159.8 774.85 159.95 774.6 160.15 774.45 160.35 774.2 160.55 774 160.75 773.85 160.95 773.6 161.15 773.4 161.35 773.25 161.55 773 161.75 772.85 161.9 772.6 162.15 772.4 162.35 772.25 162.5 772 162.75 771.8 162.95 771.65 163.1 771.4 163.35 771.2 163.55 771.05 163.7 770.8 163.95 770.65 164.1 770.4 164.3 770.2 164.55 770.05 164.7 769.8 164.9 769.6 165.15 769.45 165.3 769.2 165.5 769.05 165.7 768.85 165.9 768.6 166.1 768.45 166.3 768.2 166.5 768 166.7 767.85 166.9 767.6 167.1 767.4 167.3 767.25 167.5 767 167.7 766.85 167.85 766.6 168.1 766.4 168.3 766.25 168.45 766 168.7 765.8 168.9 765.65 169.05 765.4 169.3 765.25 169.45 765.05 169.65 764.8 169.9 764.65 170.05 764.4 170.25 764.2 170.5 764.05 170.65 763.8 170.85 763.6 171.1 763.45 171.25 763.2 171.45 763.05 171.65 762.8 171.85 762.6 172.05 762.45 172.25 762.2 172.45 762 172.65 761.85 172.85 761.6 173.05 761.45 173.2 761.25 173.45 761 173.65 760.85 173.8 760.6 174.05 760.4 174.25 760.25 174.4 760 174.65 759.8 174.85 759.65 175 759.4 175.25 759.25 175.4 759.05 175.6 758.8 175.85 758.65 176 758.4 176.2 758.2 176.45 758.05 176.6 757.8 176.8 757.65 177 757.45 177.2 757.2 177.4 757.05 177.6 756.8 177.8 756.6 178 756.45 178.2 756.2 178.4 756 178.6 755.85 178.8 755.6 179 755.45 179.15 755.25 179.4 755 179.6 754.85 179.75 754.6 180 754.4 180.2 754.25 180.35 754 180.6 753.85 180.75 753.65 180.95 753.4 181.2 753.25 181.35 753 181.55 752.8 181.8 752.65 181.95 752.4 182.15 752.2 182.4 752.05 182.55 751.8 182.75 751.65 182.95 751.45 183.15 751.2 183.35 751.05 183.55 750.8 183.75 750.6 183.95 750.45 184.15 750.2 184.35 750.05 184.5 749.85 184.75 749.6 184.95 749.45 185.1 749.25 185.35 749 185.55 748.85 185.7 748.6 185.95 748.4 186.15 748.25 186.3 748 186.55 747.85 186.7 747.65 186.9 747.4 187.15 747.25 187.3 747 187.5 746.8 187.75 746.65 187.9 746.4 188.1 746.25 188.3 746.05 188.5 745.8 188.7 745.65 188.9 745.45 189.1 745.2 189.3 745.05 189.5 744.8 189.7 744.6 189.9 744.45 190.1 744.2 190.3 744.05 190.45 743.85 190.7 743.6 190.9 743.45 191.05 743.2 191.3 743 191.5 742.85 191.65 742.6 191.9 742.45 192.05 742.25 192.25 742 192.5 741.85 192.65 741.65 192.85 741.4 193.1 741.25 193.25 741 193.45 740.8 193.7 740.65 193.85 740.4 194.05 740.25 194.25 740.05 194.45 739.8 194.65 739.65 194.85 739.45 195.05 739.2 195.25 739.05 195.45 738.8 195.65 738.65 195.8 738.45 196.05 738.2 196.25 738.05 196.4 737.85 196.65 737.6 196.85 737.45 197 737.2 197.25 737 197.45 736.85 197.6 736.6 197.85 736.45 198 736.25 198.2 736 198.45 735.85 198.6 735.65 198.8 735.4 199.05 735.25 199.2 735 199.4 734.85 199.6 734.65 199.8 734.4 200 734.25 200.2 734.05 200.4 733.8 200.6 733.65 200.8 733.45 201 733.2 201.2 733.05 201.4 732.8 201.6 732.65 201.75 732.45 202 732.2 202.2 732.05 202.35 731.85 202.6 731.6 202.8 731.45 202.95 731.2 203.2 731.05 203.35 730.85 203.55 730.6 203.8 730.45 203.95 730.25 204.15 730 204.4 729.85 204.55 729.65 204.75 729.4 205 729.25 205.15 729 205.35 728.85 205.55 728.65 205.75 728.4 205.95 728.25 206.15 728.05 206.35 727.8 206.55 727.65 206.75 727.4 206.95 727.25 207.1 727.05 207.35 726.8 207.55 726.65 207.7 726.45 207.95 726.2 208.15 726.05 208.3 725.85 208.55 725.6 208.75 725.45 208.9 725.2 209.15 725.05 209.3 724.85 209.5 724.6 209.75 724.45 209.9 724.25 210.1 724 210.35 723.85 210.5 723.65 210.7 723.45 210.9 723.25 211.1 723 211.3 722.85 211.5 722.65 211.7 722.4 211.9 722.25 212.1 722.05 212.3 721.8 212.5 721.65 212.7 721.4 212.9 721.25 213.05 721.05 213.3 720.8 213.5 720.65 213.65 720.45 213.9 720.2 214.1 720.05 214.25 719.85 214.5 719.65 214.65 719.45 214.85 719.2 215.1 719.05 215.25 718.85 215.45 718.6 215.7 718.45 215.85 718.25 216.05 718 216.3 717.85 216.45 717.6 216.65 717.45 216.85 717.25 217.05 717 217.25 716.85 217.45 716.65 217.65 716.4 217.85 716.25 218.05 716.05 218.25 715.85 218.4 715.65 218.65 715.4 218.85 715.25 219 715.05 219.25 714.8 219.45 714.65 219.6 714.45 219.85 714.2 220.05 714.05 220.2 713.85 220.45 713.65 220.6 713.45 220.8 713.2 221.05 713.05 221.2 712.85 221.4 712.6 221.65 712.45 221.8 712.25 222 712.05 222.2 711.85 222.4 711.6 222.6 711.45 222.8 711.25 223 711 223.2 710.85 223.4 710.65 223.6 710.4 223.8 710.25 224 710.05 224.2 709.85 224.35 709.65 224.6 709.4 224.8 709.25 224.95 709.05 225.2 708.8 225.4 708.65 225.55 708.45 225.8 708.25 225.95 708.05 226.15 707.85 226.4 707.65 226.55 707.45 226.75 707.2 227 707.05 227.15 706.85 227.35 706.6 227.6 706.45 227.75 706.25 227.95 706.05 228.15 705.85 228.35 705.6 228.55 705.45 228.75 705.25 228.95 705 229.15 704.85 229.35 704.65 229.55 704.45 229.75 704.25 229.95 704.05 230.15 703.85 230.3 703.65 230.55 703.4 230.75 703.25 230.9 703.05 231.15 702.85 231.3 702.65 231.5 702.45 231.75 702.25 231.9 702.05 232.1 701.8 232.35 701.65 232.5 701.45 232.7 701.2 232.95 701.05 233.1 700.85 233.3 700.65 233.5 700.45 233.7 700.25 233.9 700.05 234.1 699.85 234.3 699.6 234.5 699.45 234.7 699.25 234.9 699.05 235.1 698.85 235.3 698.65 235.5 698.45 235.65 698.25 235.9 698.05 236.1 697.85 236.25 697.65 236.5 697.4 236.7 697.25 236.85 697.05 237.1 696.85 237.25 696.65 237.45 696.45 237.7 696.25 237.85 696.05 238.05 695.8 238.3 695.65 238.45 695.45 238.65 695.25 238.85 695.05 239.05 694.85 239.25 694.65 239.45 694.45 239.65 694.25 239.85 694.05 240.05 693.85 240.25 693.6 240.45 693.45 240.65 693.25 240.85 693.05 241.05 692.85 241.25 692.65 241.45 692.45 241.6 692.25 241.85 692 242.05 691.85 242.2 691.65 242.45 691.45 242.6 691.25 242.8 691.05 243.05 690.85 243.2 690.65 243.4 690.45 243.65 690.25 243.8 690.05 244 689.8 244.25 689.65 244.4 689.45 244.6 689.25 244.8 689.05 245 688.85 245.2 688.65 245.4 688.45 245.6 688.25 245.8 688.05 246 687.85 246.2 687.65 246.4 687.45 246.6 687.25 246.8 687.05 247 686.85 247.2 686.65 247.4 686.45 247.55 686.25 247.8 686 248 685.85 248.15 685.65 248.4 685.45 248.55 685.25 248.75 685.05 249 684.85 249.15 684.65 249.35 684.45 249.6 684.25 249.75 684.05 249.95 683.85 250.15 683.65 250.35 683.45 250.55 683.25 250.75 683.05 250.95 682.85 251.15 682.65 251.35 682.45 251.55 682.2 251.75 682.05 251.95 681.85 252.15 681.65 252.35 681.45 252.55 681.25 252.75 681.05 252.9 680.85 253.15 680.65 253.35 680.45 253.5 680.25 253.75 680.05 253.9 679.85 254.1 679.65 254.35 679.45 254.5 679.25 254.7 679.05 254.95 678.85 255.1 678.65 255.3 678.45 255.55 678.25 255.7 678.05 255.9 677.85 256.1 677.65 256.3 677.45 256.5 677.25 256.7 677.05 256.9 676.85 257.1 676.65 257.3 676.45 257.5 676.25 257.7 676.05 257.9 675.85 258.1 675.65 258.3 675.45 258.5 675.25 258.7 675.05 258.85 674.85 259.1 674.65 259.3 674.45 259.45 674.25 259.7 674.05 259.85 673.85 260.05 673.65 260.3 673.45 260.45 673.25 260.65 673.05 260.9 672.85 261.05 672.65 261.25 672.45 261.45 672.25 261.65 672.05 261.85 671.85 262.05 671.65 262.25 671.45 262.45 671.25 262.65 671.05 262.85 670.85 263.05 670.65 263.25 670.45 263.45 670.25 263.65 670.05 263.85 669.85 264.05 669.65 264.2 669.45 264.45 669.25 264.65 669.05 264.8 668.85 265.05 668.65 265.2 668.45 265.4 668.25 265.65 668.05 265.8 667.85 266 667.65 266.25 667.45 266.4 667.25 266.6 667.05 266.85 666.85 267 666.65 267.2 666.45 267.4 666.25 267.6 666.05 267.8 665.85 268 665.65 268.2 665.45 268.4 665.25 268.6 665.05 268.8 664.85 269 664.65 269.2 664.45 269.4 664.25 269.6 664.05 269.8 663.85 270 663.65 270.15 663.45 270.4 663.25 270.6 663.05 270.75 662.85 271 662.65 271.15 662.45 271.35 662.25 271.6 662.05 271.75 661.85 271.95 661.65 272.2 661.45 272.35 661.25 272.55 661.05 272.75 660.85 272.95 660.65 273.15 660.45 273.35 660.25 273.55 660.05 273.75 659.85 273.95 659.65 274.15 659.45 274.35 659.25 274.55 659.05 274.75 658.85 274.95 658.65 275.15 658.45 275.35 658.25 275.55 658.05 275.75 657.85 275.95 657.65 276.1 657.45 276.35 657.25 276.5 657.05 276.7 656.85 276.95 656.65 277.1 656.45 277.3 656.25 277.55 656.05 277.7 655.85 277.9 655.65 278.15 655.45 278.3 655.25 278.5 655.05 278.7 654.85 278.9 654.65 279.1 654.45 279.3 654.25 279.5 654.05 279.7 653.85 279.9 653.65 280.1 653.45 280.3 653.25 280.5 653.05 280.7 652.85 280.9 652.65 281.1 652.45 281.3 652.25 281.45 652.05 281.7 651.85 281.9 651.65 282.05 651.5 282.3
L 651.45 282.3
Q 651.25 282.45 651.05 282.65 650.85 282.9 650.65 283.05 650.45 283.25 650.25 283.5 650.05 283.65 649.85 283.85 649.65 284.05 649.45 284.25 649.25 284.45 649.05 284.65 648.85 284.85 648.65 285.05 648.45 285.25 648.25 285.45 648.05 285.65 647.85 285.85 647.65 286.05 647.45 286.25 647.25 286.45 647.05 286.65 646.85 286.85 646.65 287.05 646.45 287.25 646.25 287.4 646.05 287.65 645.85 287.8 645.7 288.05 645.6 288.35 645.4 288.5 645.2 288.7 645.05 289 644.95 289.2 643.7 288.15 642.8 286.85 643.1 286.9 643.25 286.6 643.45 286.35 643.4 286.05 643.45 286.05 643.5 286 643.75 285.8 643.95 285.7 644.2 285.5 644.4 285.3 644.6 285.1 644.8 284.9 644.95 284.7 645.2 284.5 645.4 284.3 645.55 284.1 645.8 283.9 646 283.7 646.15 283.5 646.4 283.3 646.55 283.15 646.8 282.9 647 282.7 647.15 282.55 647.4 282.35 647.6 282.1 647.75 281.95 648 281.75 648.2 281.5 648.4 281.35 648.6 281.15 648.75 280.95 649 280.75 649.2 280.55 649.35 280.35 649.6 280.15 649.8 279.95 649.95 279.75 650.2 279.55 650.35 279.35 650.6 279.15 650.8 278.95 650.95 278.75 651.2 278.55 651.4 278.35 651.55 278.15 651.8 277.95 652 277.75 652.15 277.55 652.4 277.35 652.55 277.2 652.8 277 653 276.75 653.15 276.6 653.4 276.4 653.6 276.15 653.75 276 654 275.8 654.15 275.6 654.4 275.4 654.6 275.2 654.75 275 655 274.8 655.2 274.6 655.35 274.4 655.6 274.2 655.8 274 655.95 273.8 656.2 273.6 656.35 273.4 656.6 273.2 656.8 273 656.95 272.8 657.2 272.6 657.4 272.4 657.55 272.2 657.8 272 657.95 271.85 658.2 271.6 658.4 271.4 658.55 271.25 658.8 271.05 659 270.8 659.15 270.65 659.4 270.45 659.6 270.2 659.75 270.05 660 269.85 660.15 269.65 660.4 269.45 660.6 269.25 660.75 269.05 661 268.85 661.2 268.65 661.35 268.45 661.6 268.25 661.75 268.05 661.95 267.85 662.2 267.65 662.35 267.45 662.6 267.25 662.8 267.05 662.95 266.85 663.2 266.65 663.4 266.45 663.55 266.25 663.8 266.05 663.95 265.9 664.2 265.65 664.4 265.45 664.55 265.3 664.8 265.1 665 264.85 665.15 264.7 665.4 264.5 665.55 264.3 665.75 264.1 666 263.9 666.15 263.7 666.4 263.5 666.6 263.3 666.75 263.1 667 262.9 667.2 262.7 667.35 262.5 667.6 262.3 667.75 262.1 668 261.9 668.2 261.7 668.35 261.5 668.6 261.3 668.8 261.1 668.95 260.9 669.2 260.7 669.35 260.55 669.55 260.3 669.8 260.1 669.95 259.95 670.2 259.75 670.4 259.5 670.55 259.35 670.8 259.15 671 258.9 671.15 258.75 671.4 258.55 671.55 258.35 671.75 258.15 672 257.95 672.15 257.75 672.4 257.55 672.6 257.35 672.75 257.15 673 256.95 673.15 256.75 673.35 256.55 673.6 256.35 673.75 256.15 674 255.95 674.2 255.75 674.35 255.55 674.6 255.35 674.8 255.15 674.95 254.95 675.2 254.75 675.35 254.6 675.55 254.35 675.8 254.15 675.95 254 676.2 253.8 676.4 253.55 676.55 253.4 676.8 253.2 676.95 253 677.15 252.8 677.4 252.6 677.55 252.4 677.75 252.2 678 252 678.15 251.8 678.4 251.6 678.6 251.4 678.75 251.2 679 251 679.15 250.8 679.35 250.6 679.6 250.4 679.75 250.2 680 250 680.2 249.8 680.35 249.6 680.6 249.4 680.75 249.25 680.95 249 681.2 248.8 681.35 248.65 681.55 248.45 681.8 248.2 681.95 248.05 682.2 247.85 682.4 247.6 682.55 247.45 682.8 247.25 682.95 247.05 683.15 246.85 683.4 246.65 683.55 246.45 683.8 246.25 684 246.05 684.15 245.85 684.4 245.65 684.55 245.45 684.75 245.25 685 245.05 685.15 244.85 685.35 244.65 685.6 244.45 685.75 244.25 686 244.05 686.2 243.85 686.35 243.65 686.6 243.45 686.75 243.3 686.95 243.05 687.2 242.85 687.35 242.7 687.55 242.5 687.8 242.25 687.95 242.1 688.2 241.9 688.35 241.7 688.55 241.5 688.8 241.3 688.95 241.1 689.15 240.9 689.4 240.7 689.55 240.5 689.8 240.3 690 240.1 690.15 239.9 690.4 239.7 690.55 239.5 690.75 239.3 691 239.1 691.15 238.9 691.35 238.7 691.6 238.5 691.75 238.3 692 238.1 692.15 237.95 692.35 237.7 692.6 237.5 692.75 237.35 692.95 237.1 693.2 236.9 693.35 236.75 693.6 236.55 693.8 236.3 693.95 236.15 694.2 235.95 694.35 235.75 694.55 235.55 694.8 235.35 694.95 235.15 695.15 234.95 695.4 234.75 695.55 234.55 695.8 234.35 695.95 234.15 696.15 233.95 696.4 233.75 696.55 233.55 696.75 233.35 697 233.15 697.15 232.95 697.35 232.75 697.6 232.55 697.75 232.35 698 232.15 698.15 232 698.35 231.75 698.6 231.55 698.75 231.4 698.95 231.2 699.2 230.95 699.35 230.8 699.6 230.6 699.75 230.4 699.95 230.2 700.2 230 700.35 229.8 700.55 229.6 700.8 229.4 700.95 229.2 701.15 229 701.4 228.8 701.55 228.6 701.8 228.4 701.95 228.2 702.15 228 702.4 227.8 702.55 227.6 702.75 227.4 703 227.2 703.15 227 703.4 226.8 703.55 226.65 703.75 226.4 704 226.2 704.15 226.05 704.35 225.8 704.6 225.6 704.75 225.45 704.95 225.25 705.2 225 705.35 224.85 705.6 224.65 705.75 224.45 705.95 224.25 706.2 224.05 706.35 223.85 706.55 223.65 706.8 223.45 706.95 223.25 707.15 223.05 707.35 222.85 707.55 222.65 707.8 222.45 707.95 222.25 708.15 222.05 708.4 221.85 708.55 221.65 708.75 221.45 709 221.25 709.15 221.05 709.4 220.85 709.55 220.7 709.75 220.45 710 220.25 710.15 220.1 710.35 219.85 710.6 219.65 710.75 219.5 710.95 219.3 711.15 219.1 711.35 218.9 711.6 218.7 711.75 218.5 711.95 218.3 712.2 218.1 712.35 217.9 712.55 217.7 712.8 217.5 712.95 217.3 713.15 217.1 713.35 216.9 713.55 216.7 713.8 216.5 713.95 216.3 714.15 216.1 714.4 215.9 714.55 215.7 714.75 215.5 714.95 215.35 715.15 215.1 715.4 214.9 715.55 214.75 715.75 214.5 716 214.3 716.15 214.15 716.35 213.95 716.6 213.7 716.75 213.55 716.95 213.35 717.15 213.15 717.35 212.95 717.6 212.75 717.75 212.55 717.95 212.35 718.2 212.15 718.35 211.95 718.55 211.75 718.75 211.55 718.95 211.35 719.2 211.15 719.35 210.95 719.55 210.75 719.8 210.55 719.95 210.35 720.15 210.15 720.4 209.95 720.55 209.75 720.75 209.55 720.95 209.4 721.15 209.15 721.4 208.95 721.55 208.8 721.75 208.55 722 208.35 722.15 208.2 722.35 208 722.55 207.8 722.75 207.6 722.95 207.4 723.15 207.2 723.35 207 723.6 206.8 723.75 206.6 723.95 206.4 724.2 206.2 724.35 206 724.55 205.8 724.75 205.6 724.95 205.4 725.2 205.2 725.35 205 725.55 204.8 725.8 204.6 725.95 204.4 726.15 204.2 726.35 204.05 726.55 203.8 726.75 203.6 726.95 203.45 727.15 203.2 727.4 203 727.55 202.85 727.75 202.65 728 202.4 728.15 202.25 728.35 202.05 728.55 201.85 728.75 201.65 729 201.45 729.15 201.25 729.35 201.05 729.6 200.85 729.75 200.65 729.95 200.45 730.15 200.25 730.35 200.05 730.55 199.85 730.75 199.65 730.95 199.45 731.2 199.25 731.35 199.05 731.55 198.85 731.8 198.65 731.95 198.45 732.15 198.25 732.35 198.1 732.55 197.85 732.75 197.65 732.95 197.5 733.15 197.25 733.4 197.05 733.55 196.9 733.75 196.7 733.95 196.5 734.15 196.3 734.35 196.1 734.55 195.9 734.75 195.7 735 195.5 735.15 195.3 735.35 195.1 735.6 194.9 735.75 194.7 735.95 194.5 736.15 194.3 736.35 194.1 736.55 193.9 736.75 193.7 736.95 193.5 737.2 193.3 737.35 193.1 737.55 192.9 737.75 192.75 737.95 192.5 738.15 192.3 738.35 192.15 738.55 191.9 738.8 191.7 738.95 191.55 739.15 191.3 739.4 191.1 739.55 190.95 739.75 190.75 739.95 190.55 740.15 190.35 740.35 190.15 740.55 189.95 740.75 189.75 741 189.55 741.15 189.35 741.35 189.15 741.55 188.95 741.75 188.75 741.95 188.55 742.15 188.35 742.35 188.15 742.55 187.95 742.75 187.75 742.95 187.55 743.2 187.35 743.35 187.15 743.55 186.95 743.75 186.8 743.95 186.55 744.15 186.35 744.35 186.2 744.55 185.95 744.8 185.75 744.95 185.6 745.15 185.4 745.35 185.2 745.55 185 745.75 184.8 745.95 184.6 746.15 184.4 746.35 184.2 746.55 184 746.75 183.8 747 183.6 747.15 183.4 747.35 183.2 747.55 183 747.75 182.8 747.95 182.6 748.15 182.4 748.35 182.2 748.55 182 748.75 181.8 748.95 181.6 749.15 181.45 749.35 181.2 749.55 181 749.75 180.85 749.95 180.6 750.15 180.4 750.35 180.25 750.55 180 750.8 179.8 750.95 179.65 751.15 179.45 751.35 179.25 751.55 179.05 751.75 178.85 751.95 178.65 752.15 178.45 752.35 178.25 752.55 178.05 752.75 177.85 752.95 177.65 753.15 177.45 753.35 177.25 753.55 177.05 753.75 176.85 753.95 176.65 754.15 176.45 754.35 176.25 754.6 176.05 754.75 175.85 754.95 175.65 755.15 175.5 755.35 175.25 755.55 175.05 755.75 174.9 755.95 174.65 756.15 174.45 756.35 174.3 756.55 174.1 756.75 173.9 756.95 173.7 757.15 173.5 757.35 173.3 757.55 173.1 757.75 172.9 757.95 172.7 758.15 172.5 758.35 172.3 758.55 172.1 758.75 171.9 758.95 171.7 759.15 171.5 759.35 171.3 759.55 171.1 759.75 170.9 759.95 170.7 760.15 170.5 760.35 170.3 760.55 170.15 760.75 169.9 760.95 169.7 761.15 169.55 761.35 169.3 761.55 169.1 761.75 168.95 761.95 168.7 762.15 168.5 762.35 168.35 762.55 168.15 762.75 167.95 762.95 167.75 763.15 167.55 763.35 167.35 763.55 167.15 763.75 166.95 763.95 166.75 764.15 166.55 764.35 166.35 764.55 166.15 764.75 165.95 764.95 165.75 765.15 165.55 765.35 165.35 765.55 165.15 765.75 164.95 765.95 164.8 766.15 164.55 766.35 164.35 766.55 164.2 766.75 163.95 766.95 163.75 767.15 163.6 767.35 163.35 767.55 163.15 767.75 163 767.95 162.75 768.15 162.6 768.35 162.4 768.55 162.2 768.75 162 768.95 161.8 769.15 161.6 769.35 161.4 769.55 161.2 769.75 161 769.95 160.8 770.15 160.6 770.35 160.4 770.55 160.2 770.75 160 770.95 159.8 771.15 159.6 771.35 159.4 771.55 159.2 771.75 159 771.95 158.85 772.15 158.6 772.35 158.4 772.55 158.25 772.75 158 772.95 157.8 773.15 157.65 773.35 157.4 773.55 157.25 773.75 157.05 773.95 156.85 774.15 156.65 774.35 156.45 774.55 156.25 774.75 156.05 774.95 155.85 775.15 155.65 775.35 155.45 775.55 155.25 775.75 155.05 775.95 154.85 776.15 154.65 776.35 154.45 776.55 154.25 776.75 154.05 776.95 153.85 777.15 153.65 777.35 153.5 777.55 153.25 777.75 153.05 777.95 152.9 778.15 152.65 778.35 152.45 778.55 152.3 778.75 152.05 778.95 151.85 779.15 151.7 779.35 151.45 779.55 151.3 779.75 151.1 779.95 150.9 780.15 150.7 780.35 150.5 780.55 150.3 780.75 150.1 780.95 149.9 781.15 149.7 781.35 149.5 781.55 149.3 781.75 149.1 781.95 148.9 782.15 148.7 782.35 148.5 782.55 148.3 782.75 148.1 782.95 147.9 783.15 147.7 783.35 147.55 783.55 147.3 783.6 147.25 783.65 147.2
L 783.7 147.2 783.75 147.15
M 802.1 133.85
L 800.85 134.2 803.95 132.15 802.1 133.85 Z"/>

<path fill="#FEFEFE" stroke="none" d="
M 800.85 134.2
L 802.1 133.85 803.95 132.15 800.85 134.2 Z"/>

<path fill="#576570" stroke="none" d="
M 783.95 146.95
Q 783.85 147.05 783.75 147.15
L 783.7 147.2 783.65 147.2
Q 783.6 147.25 783.55 147.3 783.35 147.55 783.15 147.7 782.95 147.9 782.75 148.1 782.55 148.3 782.35 148.5 782.15 148.7 781.95 148.9 781.75 149.1 781.55 149.3 781.35 149.5 781.15 149.7 780.95 149.9 780.75 150.1 780.55 150.3 780.35 150.5 780.15 150.7 779.95 150.9 779.75 151.1 779.55 151.3 779.35 151.45 779.15 151.7 778.95 151.85 778.75 152.05 778.55 152.3 778.35 152.45 778.15 152.65 777.95 152.9 777.75 153.05 777.55 153.25 777.35 153.5 777.15 153.65 776.95 153.85 776.75 154.05 776.55 154.25 776.35 154.45 776.15 154.65 775.95 154.85 775.75 155.05 775.55 155.25 775.35 155.45 775.15 155.65 774.95 155.85 774.75 156.05 774.55 156.25 774.35 156.45 774.15 156.65 773.95 156.85 773.75 157.05 773.55 157.25 773.35 157.4 773.15 157.65 772.95 157.8 772.75 158 772.55 158.25 772.35 158.4 772.15 158.6 771.95 158.85 771.75 159 771.55 159.2 771.35 159.4 771.15 159.6 770.95 159.8 770.75 160 770.55 160.2 770.35 160.4 770.15 160.6 769.95 160.8 769.75 161 769.55 161.2 769.35 161.4 769.15 161.6 768.95 161.8 768.75 162 768.55 162.2 768.35 162.4 768.15 162.6 767.95 162.75 767.75 163 767.55 163.15 767.35 163.35 767.15 163.6 766.95 163.75 766.75 163.95 766.55 164.2 766.35 164.35 766.15 164.55 765.95 164.8 765.75 164.95 765.55 165.15 765.35 165.35 765.15 165.55 764.95 165.75 764.75 165.95 764.55 166.15 764.35 166.35 764.15 166.55 763.95 166.75 763.75 166.95 763.55 167.15 763.35 167.35 763.15 167.55 762.95 167.75 762.75 167.95 762.55 168.15 762.35 168.35 762.15 168.5 761.95 168.7 761.75 168.95 761.55 169.1 761.35 169.3 761.15 169.55 760.95 169.7 760.75 169.9 760.55 170.15 760.35 170.3 760.15 170.5 759.95 170.7 759.75 170.9 759.55 171.1 759.35 171.3 759.15 171.5 758.95 171.7 758.75 171.9 758.55 172.1 758.35 172.3 758.15 172.5 757.95 172.7 757.75 172.9 757.55 173.1 757.35 173.3 757.15 173.5 756.95 173.7 756.75 173.9 756.55 174.1 756.35 174.3 756.15 174.45 755.95 174.65 755.75 174.9 755.55 175.05 755.35 175.25 755.15 175.5 754.95 175.65 754.75 175.85 754.6 176.05 754.35 176.25 754.15 176.45 753.95 176.65 753.75 176.85 753.55 177.05 753.35 177.25 753.15 177.45 752.95 177.65 752.75 177.85 752.55 178.05 752.35 178.25 752.15 178.45 751.95 178.65 751.75 178.85 751.55 179.05 751.35 179.25 751.15 179.45 750.95 179.65 750.8 179.8 750.55 180 750.35 180.25 750.15 180.4 749.95 180.6 749.75 180.85 749.55 181 749.35 181.2 749.15 181.45 748.95 181.6 748.75 181.8 748.55 182 748.35 182.2 748.15 182.4 747.95 182.6 747.75 182.8 747.55 183 747.35 183.2 747.15 183.4 747 183.6 746.75 183.8 746.55 184 746.35 184.2 746.15 184.4 745.95 184.6 745.75 184.8 745.55 185 745.35 185.2 745.15 185.4 744.95 185.6 744.8 185.75 744.55 185.95 744.35 186.2 744.15 186.35 743.95 186.55 743.75 186.8 743.55 186.95 743.35 187.15 743.2 187.35 742.95 187.55 742.75 187.75 742.55 187.95 742.35 188.15 742.15 188.35 741.95 188.55 741.75 188.75 741.55 188.95 741.35 189.15 741.15 189.35 741 189.55 740.75 189.75 740.55 189.95 740.35 190.15 740.15 190.35 739.95 190.55 739.75 190.75 739.55 190.95 739.4 191.1 739.15 191.3 738.95 191.55 738.8 191.7 738.55 191.9 738.35 192.15 738.15 192.3 737.95 192.5 737.75 192.75 737.55 192.9 737.35 193.1 737.2 193.3 736.95 193.5 736.75 193.7 736.55 193.9 736.35 194.1 736.15 194.3 735.95 194.5 735.75 194.7 735.6 194.9 735.35 195.1 735.15 195.3 735 195.5 734.75 195.7 734.55 195.9 734.35 196.1 734.15 196.3 733.95 196.5 733.75 196.7 733.55 196.9 733.4 197.05 733.15 197.25 732.95 197.5 732.75 197.65 732.55 197.85 732.35 198.1 732.15 198.25 731.95 198.45 731.8 198.65 731.55 198.85 731.35 199.05 731.2 199.25 730.95 199.45 730.75 199.65 730.55 199.85 730.35 200.05 730.15 200.25 729.95 200.45 729.75 200.65 729.6 200.85 729.35 201.05 729.15 201.25 729 201.45 728.75 201.65 728.55 201.85 728.35 202.05 728.15 202.25 728 202.4 727.75 202.65 727.55 202.85 727.4 203 727.15 203.2 726.95 203.45 726.75 203.6 726.55 203.8 726.35 204.05 726.15 204.2 725.95 204.4 725.8 204.6 725.55 204.8 725.35 205 725.2 205.2 724.95 205.4 724.75 205.6 724.55 205.8 724.35 206 724.2 206.2 723.95 206.4 723.75 206.6 723.6 206.8 723.35 207 723.15 207.2 722.95 207.4 722.75 207.6 722.55 207.8 722.35 208 722.15 208.2 722 208.35 721.75 208.55 721.55 208.8 721.4 208.95 721.15 209.15 720.95 209.4 720.75 209.55 720.55 209.75 720.4 209.95 720.15 210.15 719.95 210.35 719.8 210.55 719.55 210.75 719.35 210.95 719.2 211.15 718.95 211.35 718.75 211.55 718.55 211.75 718.35 211.95 718.2 212.15 717.95 212.35 717.75 212.55 717.6 212.75 717.35 212.95 717.15 213.15 716.95 213.35 716.75 213.55 716.6 213.7 716.35 213.95 716.15 214.15 716 214.3 715.75 214.5 715.55 214.75 715.4 214.9 715.15 215.1 714.95 215.35 714.75 215.5 714.55 215.7 714.4 215.9 714.15 216.1 713.95 216.3 713.8 216.5 713.55 216.7 713.35 216.9 713.15 217.1 712.95 217.3 712.8 217.5 712.55 217.7 712.35 217.9 712.2 218.1 711.95 218.3 711.75 218.5 711.6 218.7 711.35 218.9 711.15 219.1 710.95 219.3 710.75 219.5 710.6 219.65 710.35 219.85 710.15 220.1 710 220.25 709.75 220.45 709.55 220.7 709.4 220.85 709.15 221.05 709 221.25 708.75 221.45 708.55 221.65 708.4 221.85 708.15 222.05 707.95 222.25 707.8 222.45 707.55 222.65 707.35 222.85 707.15 223.05 706.95 223.25 706.8 223.45 706.55 223.65 706.35 223.85 706.2 224.05 705.95 224.25 705.75 224.45 705.6 224.65 705.35 224.85 705.2 225 704.95 225.25 704.75 225.45 704.6 225.6 704.35 225.8 704.15 226.05 704 226.2 703.75 226.4 703.55 226.65 703.4 226.8 703.15 227 703 227.2 702.75 227.4 702.55 227.6 702.4 227.8 702.15 228 701.95 228.2 701.8 228.4 701.55 228.6 701.4 228.8 701.15 229 700.95 229.2 700.8 229.4 700.55 229.6 700.35 229.8 700.2 230 699.95 230.2 699.75 230.4 699.6 230.6 699.35 230.8 699.2 230.95 698.95 231.2 698.75 231.4 698.6 231.55 698.35 231.75 698.15 232 698 232.15 697.75 232.35 697.6 232.55 697.35 232.75 697.15 232.95 697 233.15 696.75 233.35 696.55 233.55 696.4 233.75 696.15 233.95 695.95 234.15 695.8 234.35 695.55 234.55 695.4 234.75 695.15 234.95 694.95 235.15 694.8 235.35 694.55 235.55 694.35 235.75 694.2 235.95 693.95 236.15 693.8 236.3 693.6 236.55 693.35 236.75 693.2 236.9 692.95 237.1 692.75 237.35 692.6 237.5 692.35 237.7 692.15 237.95 692 238.1 691.75 238.3 691.6 238.5 691.35 238.7 691.15 238.9 691 239.1 690.75 239.3 690.55 239.5 690.4 239.7 690.15 239.9 690 240.1 689.8 240.3 689.55 240.5 689.4 240.7 689.15 240.9 688.95 241.1 688.8 241.3 688.55 241.5 688.35 241.7 688.2 241.9 687.95 242.1 687.8 242.25 687.55 242.5 687.35 242.7 687.2 242.85 686.95 243.05 686.75 243.3 686.6 243.45 686.35 243.65 686.2 243.85 686 244.05 685.75 244.25 685.6 244.45 685.35 244.65 685.15 244.85 685 245.05 684.75 245.25 684.55 245.45 684.4 245.65 684.15 245.85 684 246.05 683.8 246.25 683.55 246.45 683.4 246.65 683.15 246.85 682.95 247.05 682.8 247.25 682.55 247.45 682.4 247.6 682.2 247.85 681.95 248.05 681.8 248.2 681.55 248.45 681.35 248.65 681.2 248.8 680.95 249 680.75 249.25 680.6 249.4 680.35 249.6 680.2 249.8 680 250 679.75 250.2 679.6 250.4 679.35 250.6 679.15 250.8 679 251 678.75 251.2 678.6 251.4 678.4 251.6 678.15 251.8 678 252 677.75 252.2 677.55 252.4 677.4 252.6 677.15 252.8 676.95 253 676.8 253.2 676.55 253.4 676.4 253.55 676.2 253.8 675.95 254 675.8 254.15 675.55 254.35 675.35 254.6 675.2 254.75 674.95 254.95 674.8 255.15 674.6 255.35 674.35 255.55 674.2 255.75 674 255.95 673.75 256.15 673.6 256.35 673.35 256.55 673.15 256.75 673 256.95 672.75 257.15 672.6 257.35 672.4 257.55 672.15 257.75 672 257.95 671.75 258.15 671.55 258.35 671.4 258.55 671.15 258.75 671 258.9 670.8 259.15 670.55 259.35 670.4 259.5 670.2 259.75 669.95 259.95 669.8 260.1 669.55 260.3 669.35 260.55 669.2 260.7 668.95 260.9 668.8 261.1 668.6 261.3 668.35 261.5 668.2 261.7 668 261.9 667.75 262.1 667.6 262.3 667.35 262.5 667.2 262.7 667 262.9 666.75 263.1 666.6 263.3 666.4 263.5 666.15 263.7 666 263.9 665.75 264.1 665.55 264.3 665.4 264.5 665.15 264.7 665 264.85 664.8 265.1 664.55 265.3 664.4 265.45 664.2 265.65 663.95 265.9 663.8 266.05 663.55 266.25 663.4 266.45 663.2 266.65 662.95 266.85 662.8 267.05 662.6 267.25 662.35 267.45 662.2 267.65 661.95 267.85 661.75 268.05 661.6 268.25 661.35 268.45 661.2 268.65 661 268.85 660.75 269.05 660.6 269.25 660.4 269.45 660.15 269.65 660 269.85 659.75 270.05 659.6 270.2 659.4 270.45 659.15 270.65 659 270.8 658.8 271.05 658.55 271.25 658.4 271.4 658.2 271.6 657.95 271.85 657.8 272 657.55 272.2 657.4 272.4 657.2 272.6 656.95 272.8 656.8 273 656.6 273.2 656.35 273.4 656.2 273.6 655.95 273.8 655.8 274 655.6 274.2 655.35 274.4 655.2 274.6 655 274.8 654.75 275 654.6 275.2 654.4 275.4 654.15 275.6 654 275.8 653.75 276 653.6 276.15 653.4 276.4 653.15 276.6 653 276.75 652.8 277 652.55 277.2 652.4 277.35 652.15 277.55 652 277.75 651.8 277.95 651.55 278.15 651.4 278.35 651.2 278.55 650.95 278.75 650.8 278.95 650.6 279.15 650.35 279.35 650.2 279.55 649.95 279.75 649.8 279.95 649.6 280.15 649.35 280.35 649.2 280.55 649 280.75 648.75 280.95 648.6 281.15 648.4 281.35 648.2 281.5 648 281.75 647.75 281.95 647.6 282.1 647.4 282.35 647.15 282.55 647 282.7 646.8 282.9 646.55 283.15 646.4 283.3 646.15 283.5 646 283.7 645.8 283.9 645.55 284.1 645.4 284.3 645.2 284.5 644.95 284.7 644.8 284.9 644.6 285.1 644.4 285.3 644.2 285.5 643.95 285.7 643.75 285.8 643.5 286 643.45 286.05 643.4 286.05 643.45 286.35 643.25 286.6 643.1 286.9 642.8 286.85 643.7 288.15 644.95 289.2 645.05 289 645.2 288.7 645.4 288.5 645.6 288.35 645.7 288.05 645.85 287.8 646.05 287.65 646.25 287.4 646.45 287.25 646.65 287.05 646.85 286.85 647.05 286.65 647.25 286.45 647.45 286.25 647.65 286.05 647.85 285.85 648.05 285.65 648.25 285.45 648.45 285.25 648.65 285.05 648.85 284.85 649.05 284.65 649.25 284.45 649.45 284.25 649.65 284.05 649.85 283.85 650.05 283.65 650.25 283.5 650.45 283.25 650.65 283.05 650.85 282.9 651.05 282.65 651.25 282.45 651.45 282.3
L 651.5 282.3
Q 651.65 282.05 651.85 281.9 652.05 281.7 652.25 281.45 652.45 281.3 652.65 281.1 652.85 280.9 653.05 280.7 653.25 280.5 653.45 280.3 653.65 280.1 653.85 279.9 654.05 279.7 654.25 279.5 654.45 279.3 654.65 279.1 654.85 278.9 655.05 278.7 655.25 278.5 655.45 278.3 655.65 278.15 655.85 277.9 656.05 277.7 656.25 277.55 656.45 277.3 656.65 277.1 656.85 276.95 657.05 276.7 657.25 276.5 657.45 276.35 657.65 276.1 657.85 275.95 658.05 275.75 658.25 275.55 658.45 275.35 658.65 275.15 658.85 274.95 659.05 274.75 659.25 274.55 659.45 274.35 659.65 274.15 659.85 273.95 660.05 273.75 660.25 273.55 660.45 273.35 660.65 273.15 660.85 272.95 661.05 272.75 661.25 272.55 661.45 272.35 661.65 272.2 661.85 271.95 662.05 271.75 662.25 271.6 662.45 271.35 662.65 271.15 662.85 271 663.05 270.75 663.25 270.6 663.45 270.4 663.65 270.15 663.85 270 664.05 269.8 664.25 269.6 664.45 269.4 664.65 269.2 664.85 269 665.05 268.8 665.25 268.6 665.45 268.4 665.65 268.2 665.85 268 666.05 267.8 666.25 267.6 666.45 267.4 666.65 267.2 666.85 267 667.05 266.85 667.25 266.6 667.45 266.4 667.65 266.25 667.85 266 668.05 265.8 668.25 265.65 668.45 265.4 668.65 265.2 668.85 265.05 669.05 264.8 669.25 264.65 669.45 264.45 669.65 264.2 669.85 264.05 670.05 263.85 670.25 263.65 670.45 263.45 670.65 263.25 670.85 263.05 671.05 262.85 671.25 262.65 671.45 262.45 671.65 262.25 671.85 262.05 672.05 261.85 672.25 261.65 672.45 261.45 672.65 261.25 672.85 261.05 673.05 260.9 673.25 260.65 673.45 260.45 673.65 260.3 673.85 260.05 674.05 259.85 674.25 259.7 674.45 259.45 674.65 259.3 674.85 259.1 675.05 258.85 675.25 258.7 675.45 258.5 675.65 258.3 675.85 258.1 676.05 257.9 676.25 257.7 676.45 257.5 676.65 257.3 676.85 257.1 677.05 256.9 677.25 256.7 677.45 256.5 677.65 256.3 677.85 256.1 678.05 255.9 678.25 255.7 678.45 255.55 678.65 255.3 678.85 255.1 679.05 254.95 679.25 254.7 679.45 254.5 679.65 254.35 679.85 254.1 680.05 253.9 680.25 253.75 680.45 253.5 680.65 253.35 680.85 253.15 681.05 252.9 681.25 252.75 681.45 252.55 681.65 252.35 681.85 252.15 682.05 251.95 682.2 251.75 682.45 251.55 682.65 251.35 682.85 251.15 683.05 250.95 683.25 250.75 683.45 250.55 683.65 250.35 683.85 250.15 684.05 249.95 684.25 249.75 684.45 249.6 684.65 249.35 684.85 249.15 685.05 249 685.25 248.75 685.45 248.55 685.65 248.4 685.85 248.15 686 248 686.25 247.8 686.45 247.55 686.65 247.4 686.85 247.2 687.05 247 687.25 246.8 687.45 246.6 687.65 246.4 687.85 246.2 688.05 246 688.25 245.8 688.45 245.6 688.65 245.4 688.85 245.2 689.05 245 689.25 244.8 689.45 244.6 689.65 244.4 689.8 244.25 690.05 244 690.25 243.8 690.45 243.65 690.65 243.4 690.85 243.2 691.05 243.05 691.25 242.8 691.45 242.6 691.65 242.45 691.85 242.2 692 242.05 692.25 241.85 692.45 241.6 692.65 241.45 692.85 241.25 693.05 241.05 693.25 240.85 693.45 240.65 693.6 240.45 693.85 240.25 694.05 240.05 694.25 239.85 694.45 239.65 694.65 239.45 694.85 239.25 695.05 239.05 695.25 238.85 695.45 238.65 695.65 238.45 695.8 238.3 696.05 238.05 696.25 237.85 696.45 237.7 696.65 237.45 696.85 237.25 697.05 237.1 697.25 236.85 697.4 236.7 697.65 236.5 697.85 236.25 698.05 236.1 698.25 235.9 698.45 235.65 698.65 235.5 698.85 235.3 699.05 235.1 699.25 234.9 699.45 234.7 699.6 234.5 699.85 234.3 700.05 234.1 700.25 233.9 700.45 233.7 700.65 233.5 700.85 233.3 701.05 233.1 701.2 232.95 701.45 232.7 701.65 232.5 701.8 232.35 702.05 232.1 702.25 231.9 702.45 231.75 702.65 231.5 702.85 231.3 703.05 231.15 703.25 230.9 703.4 230.75 703.65 230.55 703.85 230.3 704.05 230.15 704.25 229.95 704.45 229.75 704.65 229.55 704.85 229.35 705 229.15 705.25 228.95 705.45 228.75 705.6 228.55 705.85 228.35 706.05 228.15 706.25 227.95 706.45 227.75 706.6 227.6 706.85 227.35 707.05 227.15 707.2 227 707.45 226.75 707.65 226.55 707.85 226.4 708.05 226.15 708.25 225.95 708.45 225.8 708.65 225.55 708.8 225.4 709.05 225.2 709.25 224.95 709.4 224.8 709.65 224.6 709.85 224.35 710.05 224.2 710.25 224 710.4 223.8 710.65 223.6 710.85 223.4 711 223.2 711.25 223 711.45 222.8 711.6 222.6 711.85 222.4 712.05 222.2 712.25 222 712.45 221.8 712.6 221.65 712.85 221.4 713.05 221.2 713.2 221.05 713.45 220.8 713.65 220.6 713.85 220.45 714.05 220.2 714.2 220.05 714.45 219.85 714.65 219.6 714.8 219.45 715.05 219.25 715.25 219 715.4 218.85 715.65 218.65 715.85 218.4 716.05 218.25 716.25 218.05 716.4 217.85 716.65 217.65 716.85 217.45 717 217.25 717.25 217.05 717.45 216.85 717.6 216.65 717.85 216.45 718 216.3 718.25 216.05 718.45 215.85 718.6 215.7 718.85 215.45 719.05 215.25 719.2 215.1 719.45 214.85 719.65 214.65 719.85 214.5 720.05 214.25 720.2 214.1 720.45 213.9 720.65 213.65 720.8 213.5 721.05 213.3 721.25 213.05 721.4 212.9 721.65 212.7 721.8 212.5 722.05 212.3 722.25 212.1 722.4 211.9 722.65 211.7 722.85 211.5 723 211.3 723.25 211.1 723.45 210.9 723.65 210.7 723.85 210.5 724 210.35 724.25 210.1 724.45 209.9 724.6 209.75 724.85 209.5 725.05 209.3 725.2 209.15 725.45 208.9 725.6 208.75 725.85 208.55 726.05 208.3 726.2 208.15 726.45 207.95 726.65 207.7 726.8 207.55 727.05 207.35 727.25 207.1 727.4 206.95 727.65 206.75 727.8 206.55 728.05 206.35 728.25 206.15 728.4 205.95 728.65 205.75 728.85 205.55 729 205.35 729.25 205.15 729.4 205 729.65 204.75 729.85 204.55 730 204.4 730.25 204.15 730.45 203.95 730.6 203.8 730.85 203.55 731.05 203.35 731.2 203.2 731.45 202.95 731.6 202.8 731.85 202.6 732.05 202.35 732.2 202.2 732.45 202 732.65 201.75 732.8 201.6 733.05 201.4 733.2 201.2 733.45 201 733.65 200.8 733.8 200.6 734.05 200.4 734.25 200.2 734.4 200 734.65 199.8 734.85 199.6 735 199.4 735.25 199.2 735.4 199.05 735.65 198.8 735.85 198.6 736 198.45 736.25 198.2 736.45 198 736.6 197.85 736.85 197.6 737 197.45 737.2 197.25 737.45 197 737.6 196.85 737.85 196.65 738.05 196.4 738.2 196.25 738.45 196.05 738.65 195.8 738.8 195.65 739.05 195.45 739.2 195.25 739.45 195.05 739.65 194.85 739.8 194.65 740.05 194.45 740.25 194.25 740.4 194.05 740.65 193.85 740.8 193.7 741 193.45 741.25 193.25 741.4 193.1 741.65 192.85 741.85 192.65 742 192.5 742.25 192.25 742.45 192.05 742.6 191.9 742.85 191.65 743 191.5 743.2 191.3 743.45 191.05 743.6 190.9 743.85 190.7 744.05 190.45 744.2 190.3 744.45 190.1 744.6 189.9 744.8 189.7 745.05 189.5 745.2 189.3 745.45 189.1 745.65 188.9 745.8 188.7 746.05 188.5 746.25 188.3 746.4 188.1 746.65 187.9 746.8 187.75 747 187.5 747.25 187.3 747.4 187.15 747.65 186.9 747.85 186.7 748 186.55 748.25 186.3 748.4 186.15 748.6 185.95 748.85 185.7 749 185.55 749.25 185.35 749.45 185.1 749.6 184.95 749.85 184.75 750.05 184.5 750.2 184.35 750.45 184.15 750.6 183.95 750.8 183.75 751.05 183.55 751.2 183.35 751.45 183.15 751.65 182.95 751.8 182.75 752.05 182.55 752.2 182.4 752.4 182.15 752.65 181.95 752.8 181.8 753 181.55 753.25 181.35 753.4 181.2 753.65 180.95 753.85 180.75 754 180.6 754.25 180.35 754.4 180.2 754.6 180 754.85 179.75 755 179.6 755.25 179.4 755.45 179.15 755.6 179 755.85 178.8 756 178.6 756.2 178.4 756.45 178.2 756.6 178 756.8 177.8 757.05 177.6 757.2 177.4 757.45 177.2 757.65 177 757.8 176.8 758.05 176.6 758.2 176.45 758.4 176.2 758.65 176 758.8 175.85 759.05 175.6 759.25 175.4 759.4 175.25 759.65 175 759.8 174.85 760 174.65 760.25 174.4 760.4 174.25 760.6 174.05 760.85 173.8 761 173.65 761.25 173.45 761.45 173.2 761.6 173.05 761.85 172.85 762 172.65 762.2 172.45 762.45 172.25 762.6 172.05 762.8 171.85 763.05 171.65 763.2 171.45 763.45 171.25 763.6 171.1 763.8 170.85 764.05 170.65 764.2 170.5 764.4 170.25 764.65 170.05 764.8 169.9 765.05 169.65 765.25 169.45 765.4 169.3 765.65 169.05 765.8 168.9 766 168.7 766.25 168.45 766.4 168.3 766.6 168.1 766.85 167.85 767 167.7 767.25 167.5 767.4 167.3 767.6 167.1 767.85 166.9 768 166.7 768.2 166.5 768.45 166.3 768.6 166.1 768.85 165.9 769.05 165.7 769.2 165.5 769.45 165.3 769.6 165.15 769.8 164.9 770.05 164.7 770.2 164.55 770.4 164.3 770.65 164.1 770.8 163.95 771.05 163.7 771.2 163.55 771.4 163.35 771.65 163.1 771.8 162.95 772 162.75 772.25 162.5 772.4 162.35 772.6 162.15 772.85 161.9 773 161.75 773.25 161.55 773.4 161.35 773.6 161.15 773.85 160.95 774 160.75 774.2 160.55 774.45 160.35 774.6 160.15 774.85 159.95 775 159.8 775.2 159.55 775.45 159.35 775.6 159.2 775.8 158.95 776.05 158.75 776.2 158.6 776.4 158.35 776.65 158.15 776.8 158 777.05 157.75 777.2 157.6 777.4 157.4 777.65 157.15 777.8 157 778 156.8 778.25 156.55 778.4 156.4 778.6 156.2 778.8 156 779 155.8 779.25 155.6 779.4 155.4 779.6 155.2 779.85 155 780 154.8 780.2 154.6 780.45 154.4 780.6 154.2 780.85 154 781 153.85 781.2 153.6 781.45 153.4 781.6 153.25 781.8 153 782.05 152.8 782.2 152.65 782.4 152.4 782.6 152.25 782.8 152.05 783.05 151.8 783.2 151.65 783.4 151.45 783.65 151.2 783.8 151.1
L 783.8 151.05
Q 784 150.85 784.25 150.6 784.4 150.45 784.65 150.25 784.8 150.05 785 149.85 785.25 149.65 785.4 149.45 785.6 149.25 785.85 149.05 786 148.85 786.2 148.65 786.4 148.5 786.6 148.25 786.85 148.05 787 147.9 787.2 147.65 787.45 147.45 787.6 147.3 787.8 147.05 788.05 146.85 788.2 146.7 788.45 146.5 788.75 146.4 789.05 146.35 789.45 146.25 789.75 146.35 790.1 146.4 790.4 146.7 790.6 146.95 790.65 146.9 790.7 146.85 790.8 147.05 790.95 147.25
L 800.15 134.55 797.35 136.3
Q 797.15 136.85 796.9 137.4 797 136.95 797.15 136.45
L 786.55 143.1
Q 786.5 143.5 786.5 143.9 786.4 144.15 786.25 144.45 786.1 144.65 785.95 144.95 785.75 145.15 785.55 145.35 785.4 145.5 785.25 145.65 785.2 145.7 785.15 145.75 785.05 145.85 784.95 145.95 784.85 146.05 784.75 146.1 784.55 146.35 784.35 146.5 784.25 146.6 784.1 146.8 784.05 146.85 783.95 146.95 Z"/>

<path fill="#FFFBEF" stroke="none" d="
M 805.8 101.45
Q 803.15 103.45 801.05 105.1 798.6 120.55 792.45 134.7 792.55 132.75 793.85 129.35 797.95 117.65 800.05 105.95 796.6 108.65 794.8 110.2 792.85 111.9 791.25 113.4 790.65 123.15 788.1 134.15 787.4 137.2 786.55 140.7
L 798.2 131.95
Q 801.05 119.25 803.6 105.3 804.05 102.7 805.4 102.35 804.15 106.15 802.45 115.2 804.3 107.7 806.45 100.95
L 805.8 101.45 Z"/>

<path fill="#FFDCCB" stroke="none" d="
M 820.4 148.35
Q 823.15 145.25 825.9 142.25 808.45 143.85 796.9 144.9
L 795.5 146.45
Q 802.6 145.65 810.9 145.5 811.05 145.85 810.7 146.1 810.4 146.25 810 146.25
L 795.35 147.1 795.25 146.75 789.15 153.5 787.8 152.6
Q 787.65 152.75 787.5 152.9 787.3 153.1 787.1 153.3 786.9 153.5 786.7 153.7 786.5 153.9 786.3 154.1 786.1 154.3 785.9 154.5 785.7 154.7 785.5 154.9 785.3 155.1 785.1 155.3 784.9 155.5 784.7 155.7 784.5 155.9 784.3 156.1 784.1 156.25 783.95 156.5 795.75 156.2 807.45 156.05 812.5 155.45 816.55 152.05 818.65 150.3 820.4 148.35
M 824.5 109.7
Q 824.5 109.25 824.5 108.85 817.3 115.45 805.7 126.35
L 823.5 113 825.05 113.6 807.7 132.9
Q 822.25 130.9 838.35 128.45 845.85 120.05 853.4 111.7
L 825.5 112.7
Q 824.45 111.45 824.5 109.7 Z"/>
</g>
</defs>

<g transform="matrix( 1, 0, 0, 1, 0,61.65) ">
<use xlink:href="#Layer1_0_MEMBER_0_MEMBER_0_FILL"/>
</g>

<g transform="matrix( 1, 0, 0, 1, 0,61.65) ">
<use xlink:href="#Layer1_0_MEMBER_0_MEMBER_1_FILL"/>
</g>

<g transform="matrix( 1, 0, 0, 1, 43,-9.25) ">
<use xlink:href="#Layer1_0_MEMBER_1_MEMBER_0_FILL"/>
</g>

<g transform="matrix( 0.70953369140625, 0, 0, 0.7096710205078125, -284.3,-8.2) ">
<use xlink:href="#Layer1_0_MEMBER_1_MEMBER_1_MEMBER_0_FILL"/>
</g>

<g transform="matrix( 0.70953369140625, 0, 0, 0.7096710205078125, -284.3,-8.2) ">
<use xlink:href="#Layer1_0_MEMBER_1_MEMBER_1_MEMBER_1_FILL"/>
</g>
</svg>
