
<svg xmlns="http://www.w3.org/2000/svg" version="1.1" xmlns:xlink="http://www.w3.org/1999/xlink" preserveAspectRatio="none" x="0px" y="0px" width="153px" height="236px" viewBox="0 0 153 236">
<defs>
<linearGradient id="Gradient_1" gradientUnits="userSpaceOnUse" x1="87.7" y1="125.875" x2="67.60000000000001" y2="74.32499999999999" spreadMethod="pad">
<stop  offset="0%" stop-color="#AFEEF5" stop-opacity="0.4980392156862745"/>

<stop  offset="98.43137254901961%" stop-color="#FFFFFF" stop-opacity="0.24705882352941178"/>
</linearGradient>

<g id="Layer1_0_FILL">
<path fill="#6FB590" stroke="none" d="
M 767.25 231.45
Q 756.65 220.9 742.95 215.05 728.75 209.05 713.3 209.05 697.85 209.05 683.7 215.05 670 220.9 659.4 231.45 648.85 242.05 643 255.75 637 269.9 637 285.35
L 637 368.15
Q 637 383.6 643 397.75 648.85 411.45 659.4 422.05 670 432.6 683.7 438.45 697.85 444.45 713.3 444.45 728.75 444.45 742.95 438.45 756.65 432.6 767.25 422.05 777.8 411.45 783.65 397.75 789.65 383.6 789.65 368.15
L 789.65 285.35
Q 789.65 269.9 783.65 255.75 777.8 242.05 767.25 231.45 Z"/>
</g>

<g id="Layer0_0_FILL">
<path fill="#ABB2B8" stroke="none" d="
M 123.8 53.3
L 110.65 53.3 108.75 44.65 69.5 53.3 29.15 53.3 29.15 62.2 16.3 65.05 29.15 123.25 29.15 182.7 42.25 182.7 44.2 191.4 83.6 182.7 123.8 182.7 123.8 179.85
Q 124.075 179.752734375 124.35 179.6 127.6 177.6 130.8 175.6 130.7 175.45 130.6 175.35 130.55 175.2 130.45 175.1 130.4 174.95 130.3 174.85 130.25 174.7 130.15 174.55 130.05 174.45 130 174.3 129.9 174.2 129.85 174.05 129.8 174 129.75 173.9 129.7 173.95 129.7 174 129.65 173.95 129.65 173.9 129.55 173.8 129.45 173.65 129.4 173.5 129.3 173.4 129.25 173.25 129.15 173.15 129.05 173 129 172.9 128.9349609375 172.8025390625 128.9 172.7
L 136.65 171 123.8 112.8 123.8 53.3 Z"/>
</g>

<g id="Layer0_1_MEMBER_0_FILL">
<path fill="#242037" stroke="none" d="
M 127.65 58.1
L 33 58.1 33 187.5 127.65 187.5 127.65 58.1
M 34.3 185.75
L 34.3 59.85 126.35 59.85 126.35 185.75 34.3 185.75 Z"/>

<path fill="#FFF3CB" stroke="none" d="
M 34.3 59.85
L 34.3 185.75 126.35 185.75 126.35 59.85 34.3 59.85 Z"/>
</g>

<g id="Layer0_1_MEMBER_0_MEMBER_0_FILL">
<path fill="#ABB2B8" stroke="none" d="
M 43.6 103.25
L 43.6 108.45 112 108.45 112 103.25 43.6 103.25 Z"/>
</g>

<g id="Layer0_1_MEMBER_0_MEMBER_1_FILL">
<path fill="#ABB2B8" stroke="none" d="
M 43.6 103.25
L 43.6 108.45 112 108.45 112 103.25 43.6 103.25 Z"/>
</g>

<g id="Layer0_1_MEMBER_0_MEMBER_2_FILL">
<path fill="#ABB2B8" stroke="none" d="
M 43.6 103.25
L 43.6 108.45 112 108.45 112 103.25 43.6 103.25 Z"/>
</g>

<g id="Layer0_1_MEMBER_0_MEMBER_3_FILL">
<path fill="#ABB2B8" stroke="none" d="
M 43.6 103.25
L 43.6 108.45 112 108.45 112 103.25 43.6 103.25 Z"/>
</g>

<g id="Layer0_1_MEMBER_0_MEMBER_4_FILL">
<path fill="#ABB2B8" stroke="none" d="
M 43.6 103.25
L 43.6 108.45 112 108.45 112 103.25 43.6 103.25 Z"/>
</g>

<g id="Layer0_1_MEMBER_0_MEMBER_5_FILL">
<path fill="#C9EE95" stroke="none" d="
M 57.2 67.25
L 47.6 67.25 47.6 105.65 57.2 105.65 57.2 67.25 Z"/>
</g>

<g id="Layer0_1_MEMBER_0_MEMBER_6_FILL">
<path fill="#144162" stroke="none" d="
M 57.2 67.25
L 47.6 67.25 47.6 105.65 57.2 105.65 57.2 67.25 Z"/>
</g>

<g id="Layer0_1_MEMBER_0_MEMBER_7_FILL">
<path fill="#6FB590" stroke="none" d="
M 57.2 67.25
L 47.6 67.25 47.6 105.65 57.2 105.65 57.2 67.25 Z"/>
</g>

<g id="Layer0_1_MEMBER_0_MEMBER_8_FILL">
<path fill="#123144" stroke="none" d="
M 57.2 67.25
L 47.6 67.25 47.6 105.65 57.2 105.65 57.2 67.25 Z"/>
</g>

<g id="Layer0_1_MEMBER_1_FILL">
<path fill="#242037" stroke="none" d="
M 127.65 58.1
L 33 58.1 33 187.5 127.65 187.5 127.65 58.1
M 34.3 185.75
L 34.3 59.85 126.35 59.85 126.35 185.75 34.3 185.75 Z"/>

<path fill="#FFF9E5" stroke="none" d="
M 34.3 59.85
L 34.3 185.75 126.35 185.75 126.35 59.85 34.3 59.85 Z"/>
</g>

<g id="Layer0_1_MEMBER_1_MEMBER_0_FILL">
<path fill="#ABB2B8" stroke="none" d="
M 43.6 103.25
L 43.6 108.45 112 108.45 112 103.25 43.6 103.25 Z"/>
</g>

<g id="Layer0_1_MEMBER_1_MEMBER_1_FILL">
<path fill="#ABB2B8" stroke="none" d="
M 43.6 103.25
L 43.6 108.45 112 108.45 112 103.25 43.6 103.25 Z"/>
</g>

<g id="Layer0_1_MEMBER_1_MEMBER_2_FILL">
<path fill="#ABB2B8" stroke="none" d="
M 43.6 103.25
L 43.6 108.45 112 108.45 112 103.25 43.6 103.25 Z"/>
</g>

<g id="Layer0_1_MEMBER_1_MEMBER_3_FILL">
<path fill="#ABB2B8" stroke="none" d="
M 43.6 103.25
L 43.6 108.45 112 108.45 112 103.25 43.6 103.25 Z"/>
</g>

<g id="Layer0_1_MEMBER_1_MEMBER_4_FILL">
<path fill="#ABB2B8" stroke="none" d="
M 43.6 103.25
L 43.6 108.45 112 108.45 112 103.25 43.6 103.25 Z"/>
</g>

<g id="Layer0_1_MEMBER_1_MEMBER_5_FILL">
<path fill="#C9EE95" stroke="none" d="
M 57.2 67.25
L 47.6 67.25 47.6 105.65 57.2 105.65 57.2 67.25 Z"/>
</g>

<g id="Layer0_1_MEMBER_1_MEMBER_6_FILL">
<path fill="#144162" stroke="none" d="
M 57.2 67.25
L 47.6 67.25 47.6 105.65 57.2 105.65 57.2 67.25 Z"/>
</g>

<g id="Layer0_1_MEMBER_1_MEMBER_7_FILL">
<path fill="#6FB590" stroke="none" d="
M 57.2 67.25
L 47.6 67.25 47.6 105.65 57.2 105.65 57.2 67.25 Z"/>
</g>

<g id="Layer0_1_MEMBER_1_MEMBER_8_FILL">
<path fill="#123144" stroke="none" d="
M 57.2 67.25
L 47.6 67.25 47.6 105.65 57.2 105.65 57.2 67.25 Z"/>
</g>

<g id="Layer0_1_MEMBER_2_FILL">
<path fill="#242037" stroke="none" d="
M 108 81.55
Q 100.25 69 85.9 65.6 71.55 62.2 59 70 46.45 77.75 43.1 92.1 39.75 106.45 47.5 119 55.25 131.5 69.6 134.9 82.25 137.9 93.4 132.25 93.45 132.3 93.45 132.35 93.55 132.5 93.6 132.6 93.7 132.75 93.8 132.85 93.85 133 93.95 133.1 94 133.25 94.1 133.4 94.15 133.5 94.25 133.65 94.35 133.75 94.4 133.9 94.5 134 94.55 134.15 94.65 134.25 94.7 134.4 94.8 134.55 94.85 134.7 94.9 134.85 95 134.95 95.05 135.1 95.15 135.2 95.25 135.35 95.3 135.45 95.4 135.6 95.45 135.7 95.55 135.85 95.6 136 95.7 136.1 95.8 136.25 95.85 136.35 95.95 136.5 96 136.6 96.1 136.75 96.15 136.85 96.25 137 96.35 137.15 96.4 137.25 96.5 137.4 96.55 137.5 96.65 137.65 96.75 137.75 96.8 137.9 96.9 138 96.95 138.15 97.05 138.25 97.1 138.4 97.2 138.55 97.35 138.6 97.4 138.75 97.5 138.85 97.55 139 97.7 139.05 97.8 139.2 97.9 139.3 98 139.45 98 139.5 98.1 139.5 97.2 140.05 96.3 140.6 96.2 140.55 96.1 140.5 96 140.55 95.9 140.6 95.8 140.7 95.7 140.85 95.75 141 95.85 141.1 95.9 141.25 96 141.35 96.15 141.45 96.25 141.55 96.4 141.6 96.5 141.6
L 96.5 141.65
Q 96.6 141.75 96.65 141.9 96.7 141.95 96.8 142.1
L 96.85 142.15
Q 96.9 142.25 97 142.4 97.05 142.55 97.15 142.65 97.2 142.8 97.3 142.9 97.4 143.05 97.45 143.15 97.55 143.3 97.6 143.4 97.7 143.55 97.75 143.7 97.85 143.8 97.95 143.95 98 144.05 98.1 144.2 98.15 144.3 98.25 144.45 98.35 144.55 98.4 144.7 98.5 144.8 98.55 144.95 98.65 145.1 98.7 145.2 98.8 145.35 98.9 145.45 98.95 145.6 99.05 145.7 99.1 145.85 99.2 145.95 99.25 146.1 99.35 146.25 99.45 146.35 99.5 146.5 99.6 146.6 99.65 146.75 99.7 146.8 99.8 146.95 99.75 147 99.7 147.1 99.65 147.25 99.65 147.45 99.75 147.5 99.9 147.65 100.05 147.6 100.2 147.6 100.25 147.65 100.3 147.75 100.4 147.9 100.45 148 100.55 148.15 100.6 148.25 100.7 148.4 100.75 148.5 100.8 148.55 100.85 148.65 100.8 148.7 100.75 148.8 100.7 148.95 100.7 149.15 100.8 149.2 100.95 149.35 101.1 149.3 101.25 149.3 101.35 149.4 101.4 149.55 101.5 149.65 101.55 149.8 101.65 149.9 101.7 150.05 101.8 150.2 101.9 150.3 101.95 150.45 102.05 150.55 102.1 150.7 102.2 150.8 102.25 150.95 102.35 151.05 102.45 151.2 102.5 151.35 102.6 151.45 102.65 151.6 102.75 151.7 102.85 151.85 102.9 151.95 103 152.1 103.05 152.2 103.15 152.35 103.2 152.5 103.3 152.6 103.4 152.75 103.45 152.85 103.55 153 103.6 153.1 103.7 153.25 103.75 153.35 103.85 153.5 103.95 153.6 104 153.75 104.1 153.9 104.15 154 104.25 154.15 104.35 154.25 104.4 154.4 104.5 154.5 104.55 154.65 104.65 154.75 104.7 154.9 104.8 155.05 104.9 155.15 104.95 155.3 105.05 155.4 105.1 155.55 105.2 155.65 105.25 155.8 105.35 155.9 105.45 156.05 105.5 156.15 105.6 156.3 105.65 156.45 105.75 156.55 105.85 156.7 105.9 156.8 106 156.95 106.05 157.05 106.15 157.2 106.2 157.3 106.3 157.45 106.4 157.6 106.45 157.7 106.55 157.85 106.6 157.95 106.7 158.1 106.75 158.2 106.85 158.35 106.95 158.45 107 158.6 107.1 158.75 107.15 158.85 107.25 159 107.35 159.1 107.4 159.25 107.5 159.35 107.55 159.5 107.65 159.6 107.7 159.75 107.8 159.85 107.9 160 107.95 160.15 108.05 160.25 108.1 160.4 108.2 160.5 108.25 160.65 108.35 160.75 108.45 160.9 108.5 161 108.6 161.15 108.65 161.3 108.75 161.4 108.85 161.55 108.9 161.65 109 161.8 109.05 161.9 109.15 162.05 109.2 162.15 109.3 162.3 109.4 162.4 109.45 162.55 109.55 162.7 109.6 162.8 109.7 162.95 109.75 163.05 109.85 163.2 109.95 163.3 110 163.45 110.1 163.55 110.15 163.7 110.25 163.85 110.35 163.95 110.4 164.1 110.5 164.2 110.55 164.35 110.65 164.45 110.7 164.6 110.8 164.7 110.9 164.85 110.95 164.95 111.05 165.1 111.1 165.25 111.2 165.35 111.25 165.5 111.35 165.6 111.45 165.75 111.5 165.85 111.6 166 111.65 166.1 111.75 166.25 111.85 166.4 111.9 166.5 112 166.65 112.05 166.75 112.15 166.9 112.2 167 112.3 167.15 112.4 167.25 112.45 167.4 112.55 167.55 112.6 167.65 112.7 167.8 112.75 167.9 112.85 168.05 112.95 168.15 113 168.3 113.1 168.4 113.15 168.55 113.25 168.65 113.35 168.8 113.4 168.95 113.5 169.05 113.55 169.2 113.65 169.3 113.7 169.45 113.8 169.55 113.9 169.7 113.95 169.8 114.05 169.95 114.1 170.1 114.2 170.2 114.25 170.35 114.35 170.45 114.45 170.6 114.5 170.7 114.6 170.85 114.65 170.95 114.75 171.1 114.85 171.2 114.9 171.35 115 171.5 115.05 171.6 115.15 171.75 115.2 171.85 115.3 172 115.4 172.1 115.45 172.25 115.55 172.35 115.6 172.5 115.7 172.65 115.75 172.75 115.85 172.9 115.95 173 116 173.15 116.1 173.25 116.15 173.35 116.2 173.5 116.3 173.6 116.4 173.75 116.45 173.85 116.55 174 116.6 174.1 116.7 174.25 116.75 174.35 116.85 174.5 116.95 174.65 117 174.75 117.1 174.9 117.15 175 117.25 175.15 117.35 175.25 117.4 175.4 117.5 175.5 117.55 175.65 117.65 175.75 117.7 175.9 117.8 176.05 117.9 176.15 117.95 176.3 118.05 176.4 118.1 176.55 118.2 176.65 118.25 176.8 118.35 176.9 118.45 177.05 118.5 177.2 118.6 177.3 118.65 177.45 118.75 177.55 118.85 177.7 118.9 177.8 119 177.95 119.05 178.05 119.15 178.2 119.2 178.3 119.3 178.45 119.4 178.6 119.45 178.7 119.55 178.85 119.6 178.95 119.7 179.1 119.75 179.2 119.85 179.35 119.95 179.45 120 179.6 120.1 179.75 120.15 179.85 120.25 180 120.35 180.1 120.4 180.25 120.5 180.35 120.55 180.5 120.65 180.6 120.7 180.75 120.8 180.85 120.9 181 120.95 181.15 121.05 181.25 121.1 181.4 121.2 181.5 121.25 181.65 121.35 181.75 121.45 181.9 121.5 182 121.6 182.15 121.65 182.3 121.75 182.4 121.85 182.55 121.9 182.65 122 182.8 122.05 182.9 122.15 183.05 122.2 183.15 122.3 183.3 122.4 183.45 122.45 183.55 122.55 183.7 122.6 183.8 122.7 183.95 122.75 184.05 122.85 184.2 122.95 184.3 123 184.45 123.1 184.55 123.15 184.7 123.25 184.85 123.35 184.95 123.4 185.1 123.5 185.2
L 123.5 185.25
Q 123.55 185.35 123.65 185.45 123.7 185.6 123.8 185.7 123.9 185.85 123.95 186 124.05 186.1 124.1 186.25
L 124.15 186.25
Q 124.2 186.4 124.25 186.5 124.3 186.55 124.35 186.55 125.8 185.7 127.3 184.85 127.75 184.65 128.2 184.4 131.45 182.4 134.65 180.4 134.55 180.25 134.45 180.15 134.4 180 134.3 179.9 134.25 179.75 134.15 179.65 134.1 179.5 134 179.35 133.9 179.25 133.85 179.1 133.75 179 133.7 178.85 133.65 178.8 133.6 178.7 133.55 178.75 133.55 178.8 133.5 178.75 133.5 178.7 133.4 178.6 133.3 178.45 133.25 178.3 133.15 178.2 133.1 178.05 133 177.95 132.9 177.8 132.85 177.7 132.75 177.55 132.7 177.45 132.6 177.3 132.55 177.2 132.45 177.05 132.35 176.9 132.3 176.8 132.2 176.65 132.15 176.55 132.05 176.4 132 176.3 131.9 176.15 131.8 176.05 131.75 175.9 131.65 175.75 131.6 175.65 131.5 175.5 131.4 175.4 131.35 175.25 131.25 175.15 131.2 175 131.1 174.9 131.05 174.75 130.95 174.6 130.85 174.5 130.8 174.35 130.7 174.25 130.65 174.1 130.55 174 130.5 173.85 130.4 173.75 130.3 173.6 130.25 173.5 130.15 173.35 130.1 173.2 130 173.1 129.9 172.95 129.85 172.85 129.75 172.7 129.7 172.6 129.6 172.45 129.55 172.35 129.45 172.2 129.35 172.05 129.3 171.95 129.2 171.8 129.15 171.7 129.05 171.55 129 171.45 128.9 171.3 128.8 171.2 128.75 171.05 128.65 170.95 128.6 170.8 128.5 170.65 128.4 170.55 128.35 170.4 128.25 170.3 128.2 170.15 128.1 170.05 128.05 169.9 127.95 169.8 127.85 169.65 127.8 169.5 127.7 169.4 127.65 169.25 127.55 169.15 127.5 169 127.4 168.9 127.3 168.75 127.25 168.65 127.15 168.5 127.1 168.4 127 168.25 126.9 168.1 126.85 168 126.75 167.85 126.7 167.75 126.6 167.6 126.55 167.5 126.45 167.35 126.35 167.25 126.3 167.1 126.25 167 126.15 166.9 126.1 166.75 126 166.65 125.9 166.5 125.85 166.4 125.75 166.25 125.7 166.1 125.6 166 125.55 165.85 125.45 165.75 125.35 165.6 125.3 165.5 125.2 165.35 125.15 165.25 125.05 165.1 125 164.95 124.9 164.85 124.8 164.7 124.75 164.6 124.65 164.45 124.6 164.35 124.5 164.2 124.4 164.1 124.35 163.95 124.25 163.85 124.2 163.7 124.1 163.55 124.05 163.45 123.95 163.3 123.85 163.2 123.8 163.05 123.7 162.95 123.65 162.8 123.55 162.7 123.5 162.55 123.4 162.4 123.3 162.3 123.25 162.15 123.15 162.05 123.1 161.9 123 161.8 122.9 161.65 122.85 161.55 122.75 161.4 122.7 161.3 122.6 161.15 122.55 161 122.45 160.9 122.35 160.75 122.3 160.65 122.2 160.5 122.15 160.4 122.05 160.25 122 160.15 121.9 160 121.8 159.85 121.75 159.75 121.65 159.6 121.6 159.5 121.5 159.35 121.4 159.25 121.35 159.1 121.25 159 121.2 158.85 121.1 158.7 121.05 158.6 120.95 158.45 120.85 158.35 120.8 158.2 120.7 158.1 120.65 157.95 120.55 157.85 120.5 157.7 120.4 157.6 120.3 157.45 120.25 157.3 120.15 157.2 120.1 157.05 120 156.95 119.9 156.8 119.85 156.7 119.75 156.55 119.7 156.45 119.6 156.3 119.55 156.15 119.45 156.05 119.35 155.9 119.3 155.8 119.2 155.65 119.15 155.55 119.05 155.4 119 155.3 118.9 155.15 118.8 155.05 118.75 154.9 118.65 154.75 118.6 154.65 118.5 154.5 118.4 154.4 118.35 154.25 118.25 154.15 118.2 154 118.1 153.9 118.05 153.75 117.95 153.6 117.85 153.5 117.8 153.35 117.7 153.25 117.65 153.1 117.55 153 117.5 152.85 117.4 152.75 117.3 152.6 117.25 152.5 117.15 152.35 117.1 152.2 117 152.1 116.9 151.95 116.85 151.85 116.75 151.7 116.7 151.6 116.6 151.45 116.55 151.35 116.45 151.2 116.35 151.05 116.3 150.95 116.2 150.8 116.15 150.7 116.05 150.55 116 150.45 115.9 150.3 115.8 150.2 115.75 150.05 115.65 149.9 115.6 149.8 115.5 149.65 115.4 149.55 115.35 149.4 115.25 149.3 115.2 149.15 115.1 149.05 115.05 148.9 114.95 148.8 114.85 148.65 114.8 148.5 114.7 148.4 114.65 148.25 114.55 148.15 114.5 148 114.4 147.9 114.3 147.75 114.25 147.65 114.15 147.5 114.1 147.35 114 147.25 113.9 147.1 113.85 147 113.75 146.85 113.7 146.75 113.6 146.6 113.55 146.5 113.45 146.35 113.35 146.25 113.3 146.1 113.2 145.95 113.15 145.85 113.05 145.7 113 145.6 112.9 145.45 112.8 145.35 112.75 145.2 112.65 145.1 112.6 144.95 112.5 144.8 112.4 144.7 112.35 144.55 112.25 144.45 112.2 144.3 112.1 144.2 112.05 144.05 111.95 143.95 111.85 143.8 111.8 143.65 111.7 143.55 111.65 143.4 111.55 143.3 111.5 143.15 111.4 143.05 111.3 142.9 111.25 142.8 111.15 142.65 111.1 142.55 111 142.4 110.9 142.25 110.85 142.15 110.75 142 110.7 141.9 110.6 141.75 110.55 141.65 110.45 141.5 110.35 141.4 110.3 141.25 110.2 141.1 110.15 141 110.05 140.85 110 140.75 109.9 140.6 109.8 140.5 109.75 140.35 109.65 140.25 109.6 140.1 109.5 140 109.4 139.85 109.35 139.7 109.25 139.6 109.2 139.45 109.1 139.35 109.05 139.2 108.95 139.1 108.85 138.95 108.8 138.85 108.7 138.7 108.65 138.55 108.55 138.45 108.5 138.3 108.4 138.2 108.3 138.05 108.25 137.95 108.15 137.8 108.1 137.7 108 137.55 107.9 137.45 107.85 137.3 107.75 137.15 107.7 137.05 107.6 136.9 107.55 136.8 107.45 136.65 107.35 136.55 107.3 136.4 107.2 136.3 107.15 136.15 107.05 136 107 135.9
L 106.95 135.85
Q 106.95 135.8 107 135.75 106.9 135.6 106.85 135.55 106.8 135.4 106.7 135.3 106.65 135.15 106.55 135.05 106.45 134.9 106.4 134.75 106.3 134.65 106.25 134.5 106.2 134.5 106.2 134.45 105.1 135.15 104 135.85 103.95 135.8 103.95 135.75 103.85 135.6 103.75 135.5 103.75 135.3 103.7 135.2 103.65 135.05 103.55 134.95 103.55 134.75 103.5 134.65 103.4 134.5 103.35 134.35 103.25 134.25 103.2 134.1 103.1 134 103.05 133.85 102.95 133.75 102.85 133.6 102.8 133.5 102.7 133.35 102.65 133.25 102.55 133.1 102.45 132.95 102.4 132.85 102.3 132.7 102.25 132.6 102.15 132.45 102.1 132.35 102 132.2 101.9 132.1 101.85 131.95 101.75 131.8 101.7 131.7 101.6 131.55 101.55 131.45 101.45 131.3 101.35 131.2 101.3 131.05 101.2 130.95 101.15 130.8 101 130.7 100.85 130.6 100.8 130.45 100.7 130.35 100.65 130.2 100.55 130.1 100.5 129.95 100.4 129.85 100.3 129.7 100.25 129.6 100.15 129.45 100.1 129.3 100 129.2 99.95 129.05 99.85 128.95 99.75 128.8 99.7 128.7 99.6 128.55 99.6 128.5 99.55 128.45 109.5 120.9 112.4 108.4 115.75 94.05 108 81.55
M 85.5 67.4
Q 99.1 70.6 106.4 82.4 113.7 94.2 110.5 107.8 107.35 121.35 95.5 128.65 83.7 135.95 70.15 132.8 56.55 129.6 49.25 117.8 41.95 106 45.15 92.4 48.3 78.85 60.1 71.55 71.95 64.25 85.5 67.4
M 96.1 132.95
Q 96.05 132.85 95.95 132.7 95.85 132.6 95.8 132.45 95.7 132.35 95.65 132.2 95.6 132.1 95.55 132.05
L 96.15 132.05
Q 96.75 132.1 97.05 132.6 98.2 132 98.5 131.7
L 99 131.15
Q 99.1 131.3 99.15 131.45 99.25 131.55 99.35 131.7 99.4 131.8 99.5 131.95 99.5 132.05 99.55 132.25 99.6 132.35 99.7 132.5 99.8 132.65 99.85 132.75 99.95 132.9 100 133 100.1 133.15 100.15 133.25 100.25 133.4 100.35 133.5 100.4 133.65 100.5 133.75 100.55 133.9 100.65 134.05 100.75 134.15 100.8 134.3 100.9 134.4 100.95 134.55 101.05 134.65 101.1 134.8 101.2 134.9 101.3 135.05 101.35 135.2 101.45 135.3 101.5 135.45 101.6 135.55 101.7 135.65 101.85 135.75 101.95 135.9 102 136 102.1 136.1 102.2 136.2 102.3 136.35 102.4 136.5 102.5 136.55 102.65 136.7 102.75 136.7 102.85 136.8 101.25 137.75 99.7 138.75 99.55 138.8 99.45 138.85 99.4 138.75 99.4 138.7 99.35 138.5 99.35 138.4 99.25 138.25 99.15 138.1 99.15 137.95 99.1 137.8 99.05 137.7 98.95 137.55 98.9 137.4 98.85 137.25 98.75 137.15 98.7 137 98.6 136.9 98.55 136.75 98.45 136.6 98.35 136.5 98.3 136.35 98.2 136.25 98.15 136.1 98.05 136 98 135.85 97.9 135.75 97.8 135.6 97.75 135.45 97.65 135.35 97.6 135.2 97.5 135.1 97.4 134.95 97.35 134.85 97.25 134.7 97.2 134.6 97.1 134.45 97.05 134.35 96.95 134.2 96.85 134.05 96.8 133.95 96.7 133.8 96.6 133.75 96.5 133.6 96.45 133.5 96.35 133.35 96.25 133.25 96.2 133.1 96.1 132.95
M 98.25 141.75
Q 98.15 141.6 98.1 141.5 98.05 141.45 98 141.35 98.8 140.95 99.6 140.45 99.55 140.35 99.5 140.2
L 99.55 140.2
Q 99.9 139.95 100.3 139.75 102.1 138.6 103.95 137.45 104.05 137.55 104.2 137.6 104.75 137.25 105.35 136.9 105.35 136.95 105.4 137 105.45 137.1 105.55 137.25 105.6 137.35 105.7 137.5 105.75 137.6 105.85 137.75 105.95 137.85 106 138 106.1 138.15 106.15 138.25 106.25 138.4 106.35 138.5 106.4 138.65 106.5 138.75 106.55 138.9 106.65 139 106.7 139.15 106.8 139.3 106.9 139.4 106.95 139.55 107.05 139.65 107.1 139.8 107.2 139.9 107.25 140.05 107.35 140.15 107.45 140.3 107.5 140.4 107.6 140.55 107.65 140.7 107.75 140.8 107.85 140.95 107.9 141.05 108 141.2 108.05 141.3 108.1 141.4 108.15 141.5 104.75 143.6 101.35 145.7
L 101.4 145.75
Q 101.15 145.9 100.9 146.05 100.85 145.95 100.75 145.8 100.7 145.7 100.6 145.55 100.55 145.45 100.45 145.3 100.35 145.2 100.3 145.05 100.2 144.9 100.15 144.8 100.05 144.65 99.95 144.55 99.9 144.4 99.8 144.3 99.75 144.15 99.65 144.05 99.6 143.9 99.5 143.8 99.4 143.65 99.35 143.5 99.25 143.4 99.2 143.25 99.1 143.15 99.05 143 98.95 142.9 98.85 142.75 98.8 142.65 98.7 142.5 98.65 142.35 98.55 142.25 98.45 142.1 98.4 142 98.3 141.85 98.25 141.75
M 101.7 147.35
Q 101.65 147.2 101.55 147.1 101.55 147.05 101.5 147 101.75 146.85 102 146.7 105.4 144.6 108.8 142.5 108.85 142.55 108.85 142.6 108.95 142.7 109 142.85 109.1 142.95 109.15 143.1 109.2 143.15 109.2 143.2 106.15 145.05 103.1 146.95
L 103.15 147
Q 102.55 147.4 101.95 147.75 101.9 147.7 101.85 147.6 101.8 147.45 101.7 147.35
M 109.85 144.2
Q 109.9 144.3 109.95 144.4 110.05 144.5 110.1 144.65 110.2 144.75 110.25 144.9 110.35 145 110.45 145.15 110.5 145.25 110.6 145.4 110.65 145.55 110.75 145.65 110.85 145.8 110.9 145.9 111 146.05 111.05 146.15 111.15 146.3 111.2 146.4 111.3 146.55 111.4 146.65 111.45 146.8 111.55 146.95 111.6 147.05 111.7 147.2 111.75 147.3 111.85 147.45 111.95 147.55 112 147.7 112.1 147.8 112.15 147.95 112.25 148.1 112.35 148.2 112.4 148.35 112.5 148.45 112.55 148.6 112.65 148.7 112.7 148.85 112.8 148.95 112.9 149.1 112.95 149.2 113.05 149.35 113.1 149.5 113.2 149.6 113.25 149.75 113.35 149.85 113.45 150 113.5 150.1 113.6 150.25 113.65 150.35 113.75 150.5 113.85 150.65 113.9 150.75 114 150.9 114.05 151 114.15 151.15 114.2 151.25 114.3 151.4 114.4 151.5 114.45 151.65 114.55 151.75 114.6 151.9 114.7 152.05 114.75 152.15 114.85 152.3 114.95 152.4 115 152.55 115.1 152.65 115.15 152.8 115.25 152.9 115.35 153.05 115.4 153.2 115.5 153.3 115.55 153.45 115.65 153.55 115.7 153.7 115.8 153.8 115.9 153.95 115.95 154.05 116.05 154.2 116.1 154.35 116.2 154.45 116.25 154.6 116.35 154.7 116.45 154.85 116.5 154.95 116.6 155.1 116.65 155.2 116.75 155.35 116.85 155.45 116.9 155.6 117 155.75 117.05 155.85 117.15 156 117.2 156.1 117.3 156.25 117.4 156.35 117.45 156.5 117.55 156.6 117.6 156.75 117.7 156.9 117.75 157 117.85 157.15 117.95 157.25 118 157.4 118.1 157.5 118.15 157.65 118.25 157.75 118.35 157.9 118.4 158 118.5 158.15 118.55 158.3 118.65 158.4 118.7 158.55 118.8 158.65 118.9 158.8 118.95 158.9 119.05 159.05 119.1 159.15 119.2 159.3 119.25 159.45 119.35 159.55 119.45 159.7 119.5 159.8 119.6 159.95 119.65 160.05 119.75 160.2 119.85 160.3 119.9 160.45 120 160.55 120.05 160.7 120.15 160.85 120.2 160.95 120.3 161.1 120.4 161.2 120.45 161.35 120.55 161.45 120.6 161.6 120.7 161.7 120.75 161.85 120.85 162 120.95 162.1 121 162.25 121.1 162.35 121.15 162.5 121.25 162.6 121.35 162.75 121.4 162.85 121.5 163 121.55 163.15 121.65 163.25 121.7 163.4 121.8 163.5 121.9 163.65 121.95 163.75 122.05 163.9 122.1 164 122.2 164.15 122.25 164.25 122.35 164.4 122.45 164.55 122.5 164.65 122.6 164.8 122.65 164.9 122.75 165.05 122.85 165.15 122.9 165.3 123 165.4 123.05 165.55 123.15 165.7 123.2 165.8 123.3 165.95 123.4 166.05 123.45 166.2 123.55 166.3 123.6 166.45 123.7 166.55 123.75 166.7 123.85 166.8 123.95 166.95 124 167.1 124.1 167.2 124.15 167.35 124.25 167.45 124.35 167.6 124.4 167.7 124.5 167.85 124.55 167.95 124.65 168.1 124.7 168.2 124.75 168.3 124.85 168.45 124.95 168.55 125 168.7 125.1 168.8 125.15 168.95 125.25 169.1 125.35 169.2 125.4 169.35 125.5 169.45 125.55 169.6 125.65 169.7 125.7 169.85 125.8 169.95 125.9 170.1 125.95 170.25 126.05 170.35 126.1 170.5 126.2 170.6 126.25 170.75 126.35 170.85 126.45 171 126.5 171.1 126.6 171.25 126.65 171.35 126.75 171.5 126.85 171.65 126.9 171.75 127 171.9 127.05 172 127.15 172.15 127.2 172.25 127.3 172.4 127.4 172.5 127.45 172.65 127.55 172.8 127.6 172.9 127.7 173.05 127.75 173.15 127.85 173.3 127.95 173.4 128 173.55 128.1 173.65 128.15 173.8 128.25 173.9 128.35 174.05 128.4 174.2 128.5 174.3 128.55 174.45 128.65 174.55 128.7 174.7 128.8 174.8 128.9 174.95 128.95 175.05 129.05 175.2 129.1 175.35 129.2 175.45 129.25 175.6 129.35 175.7 129.45 175.85 129.5 175.95 129.6 176.1 129.65 176.2 129.75 176.35 129.85 176.45 129.9 176.6 130 176.75 130.05 176.85 130.15 177 130.2 177.1 130.3 177.25 130.4 177.35 130.45 177.5 130.55 177.6 130.6 177.75 130.7 177.9 130.75 178 130.85 178.15 130.95 178.25 131 178.4 131.1 178.5 131.15 178.65 131.25 178.75 131.35 178.9 131.4 179.05 131.5 179.15 131.55 179.3 131.65 179.4 131.7 179.55 131.8 179.65 131.9 179.8 129.55 181.25 127.15 182.7 127.15 182.75 127.2 182.8 126.8 183.1 126.35 183.35 125.5 183.9 124.7 184.45 124.65 184.4 124.6 184.3 124.5 184.15 124.4 184.05 124.35 183.9 124.25 183.8 124.2 183.65 124.1 183.55 124.05 183.4 123.95 183.25 123.85 183.15 123.8 183 123.7 182.9 123.65 182.75 123.55 182.65 123.45 182.5 123.4 182.4 123.3 182.25 123.25 182.1 123.15 182 123.1 181.85 123 181.75 122.9 181.6 122.85 181.5 122.75 181.35 122.7 181.25 122.6 181.1 122.55 180.95 122.45 180.85 122.35 180.7 122.3 180.6 122.2 180.45 122.15 180.35 122.05 180.2 121.95 180.1 121.9 179.95 121.8 179.85 121.75 179.7 121.65 179.55 121.6 179.45 121.5 179.3 121.4 179.2 121.35 179.05 121.25 178.95 121.2 178.8 121.1 178.7 121.05 178.55 120.95 178.4 120.85 178.3 120.8 178.15 120.7 178.05 120.65 177.9 120.55 177.8 120.45 177.65 120.4 177.55 120.3 177.4 120.25 177.3 120.15 177.15 120.1 177 120 176.9 119.9 176.75 119.85 176.65 119.75 176.5 119.7 176.4 119.6 176.25 119.55 176.15 119.45 176 119.35 175.85 119.3 175.75 119.2 175.6 119.15 175.5 119.05 175.35 118.95 175.25 118.9 175.1 118.8 175 118.75 174.85 118.65 174.75 118.6 174.6 118.5 174.45 118.4 174.35 118.35 174.2 118.25 174.1 118.2 173.95 118.1 173.85 118.05 173.7 117.95 173.6 117.85 173.45 117.8 173.3 117.7 173.2 117.65 173.05 117.55 172.95 117.45 172.8 117.4 172.7 117.35 172.6 117.25 172.45 117.2 172.35 117.1 172.2 117.05 172.1 116.95 171.95 116.85 171.85 116.8 171.7 116.7 171.6 116.65 171.45 116.55 171.3 116.45 171.2 116.4 171.05 116.3 170.95 116.25 170.8 116.15 170.7 116.1 170.55 116 170.45 115.9 170.3 115.85 170.2 115.75 170.05 115.7 169.9 115.6 169.8 115.55 169.65 115.45 169.55 115.35 169.4 115.3 169.3 115.2 169.15 115.15 169.05 115.05 168.9 114.95 168.75 114.9 168.65 114.8 168.5 114.75 168.4 114.65 168.25 114.6 168.15 114.5 168 114.4 167.9 114.35 167.75 114.25 167.65 114.2 167.5 114.1 167.35 114.05 167.25 113.95 167.1 113.85 167 113.8 166.85 113.7 166.75 113.65 166.6 113.55 166.5 113.45 166.35 113.4 166.2 113.3 166.1 113.25 165.95 113.15 165.85 113.1 165.7 113 165.6 112.9 165.45 112.85 165.35 112.75 165.2 112.7 165.05 112.6 164.95 112.55 164.8 112.45 164.7 112.35 164.55 112.3 164.45 112.2 164.3 112.15 164.2 112.05 164.05 111.95 163.95 111.9 163.8 111.8 163.65 111.75 163.55 111.65 163.4 111.6 163.3 111.5 163.15 111.4 163.05 111.35 162.9 111.25 162.8 111.2 162.65 111.1 162.5 111.05 162.4 110.95 162.25 110.85 162.15 110.8 162 110.7 161.9 110.65 161.75 110.55 161.65 110.45 161.5 110.4 161.4 110.3 161.25 110.25 161.1 110.15 161 110.1 160.85 110 160.75 109.9 160.6 109.85 160.5 109.75 160.35 109.7 160.25 109.6 160.1 109.55 159.95 109.45 159.85 109.35 159.7 109.3 159.6 109.2 159.45 109.15 159.35 109.05 159.2 108.95 159.1 108.9 158.95 108.8 158.85 108.75 158.7 108.65 158.55 108.6 158.45 108.5 158.3 108.4 158.2 108.35 158.05 108.25 157.95 108.2 157.8 108.1 157.7 108.05 157.55 107.95 157.4 107.85 157.3 107.8 157.15 107.7 157.05 107.65 156.9 107.55 156.8 107.45 156.65 107.4 156.55 107.3 156.4 107.25 156.25 107.15 156.15 107.1 156 107 155.9 106.9 155.75 106.85 155.65 106.75 155.5 106.7 155.4 106.6 155.25 106.55 155.15 106.45 155 106.35 154.85 106.3 154.75 106.2 154.6 106.15 154.5 106.05 154.35 105.95 154.25 105.9 154.1 105.8 154 105.75 153.85 105.65 153.7 105.6 153.6 105.5 153.45 105.4 153.35 105.35 153.2 105.25 153.1 105.2 152.95 105.1 152.85 105.05 152.7 104.95 152.6 104.85 152.45 104.8 152.3 104.7 152.2 104.65 152.05 104.55 151.95 104.45 151.8 104.4 151.7 104.3 151.55 104.25 151.45 104.15 151.3 104.1 151.15 104 151.05 103.9 150.9 103.85 150.8 103.75 150.65 103.7 150.55 103.6 150.4 103.55 150.3 103.45 150.15 103.35 150.05 103.3 149.9 103.2 149.75 103.15 149.65 103.05 149.5 102.95 149.4 102.9 149.25 102.8 149.15 102.75 149 102.65 148.9 102.6 148.75 102.55 148.65 103.15 148.3 103.75 147.95 106.8 146.05 109.85 144.2
M 102.25 85.15
Q 96 75 84.4 72.25 72.75 69.55 62.6 75.85 52.45 82.15 49.75 93.7 47 105.3 53.25 115.45 59.5 125.55 71.15 128.3 82.75 131.05 92.9 124.75 103.05 118.45 105.8 106.85 108.5 95.25 102.25 85.15
M 84 73.25
Q 95.15 75.85 101.15 85.6 107.2 95.35 104.55 106.5 101.95 117.55 92.2 123.6 82.45 129.6 71.3 127.1 60.2 124.45 54.15 114.7 48.15 104.95 50.75 93.85 53.4 82.7 63.15 76.7 72.9 70.65 84 73.25 Z"/>

<path fill="#6FB590" stroke="none" d="
M 109.95 144.4
Q 109.9 144.3 109.85 144.2 106.8 146.05 103.75 147.95 103.15 148.3 102.55 148.65 102.6 148.75 102.65 148.9 102.75 149 102.8 149.15 102.9 149.25 102.95 149.4 103.05 149.5 103.15 149.65 103.2 149.75 103.3 149.9 103.35 150.05 103.45 150.15 103.55 150.3 103.6 150.4 103.7 150.55 103.75 150.65 103.85 150.8 103.9 150.9 104 151.05 104.1 151.15 104.15 151.3 104.25 151.45 104.3 151.55 104.4 151.7 104.45 151.8 104.55 151.95 104.65 152.05 104.7 152.2 104.8 152.3 104.85 152.45 104.95 152.6 105.05 152.7 105.1 152.85 105.2 152.95 105.25 153.1 105.35 153.2 105.4 153.35 105.5 153.45 105.6 153.6 105.65 153.7 105.75 153.85 105.8 154 105.9 154.1 105.95 154.25 106.05 154.35 106.15 154.5 106.2 154.6 106.3 154.75 106.35 154.85 106.45 155 106.55 155.15 106.6 155.25 106.7 155.4 106.75 155.5 106.85 155.65 106.9 155.75 107 155.9 107.1 156 107.15 156.15 107.25 156.25 107.3 156.4 107.4 156.55 107.45 156.65 107.55 156.8 107.65 156.9 107.7 157.05 107.8 157.15 107.85 157.3 107.95 157.4 108.05 157.55 108.1 157.7 108.2 157.8 108.25 157.95 108.35 158.05 108.4 158.2 108.5 158.3 108.6 158.45 108.65 158.55 108.75 158.7 108.8 158.85 108.9 158.95 108.95 159.1 109.05 159.2 109.15 159.35 109.2 159.45 109.3 159.6 109.35 159.7 109.45 159.85 109.55 159.95 109.6 160.1 109.7 160.25 109.75 160.35 109.85 160.5 109.9 160.6 110 160.75 110.1 160.85 110.15 161 110.25 161.1 110.3 161.25 110.4 161.4 110.45 161.5 110.55 161.65 110.65 161.75 110.7 161.9 110.8 162 110.85 162.15 110.95 162.25 111.05 162.4 111.1 162.5 111.2 162.65 111.25 162.8 111.35 162.9 111.4 163.05 111.5 163.15 111.6 163.3 111.65 163.4 111.75 163.55 111.8 163.65 111.9 163.8 111.95 163.95 112.05 164.05 112.15 164.2 112.2 164.3 112.3 164.45 112.35 164.55 112.45 164.7 112.55 164.8 112.6 164.95 112.7 165.05 112.75 165.2 112.85 165.35 112.9 165.45 113 165.6 113.1 165.7 113.15 165.85 113.25 165.95 113.3 166.1 113.4 166.2 113.45 166.35 113.55 166.5 113.65 166.6 113.7 166.75 113.8 166.85 113.85 167 113.95 167.1 114.05 167.25 114.1 167.35 114.2 167.5 114.25 167.65 114.35 167.75 114.4 167.9 114.5 168 114.6 168.15 114.65 168.25 114.75 168.4 114.8 168.5 114.9 168.65 114.95 168.75 115.05 168.9 115.15 169.05 115.2 169.15 115.3 169.3 115.35 169.4 115.45 169.55 115.55 169.65 115.6 169.8 115.7 169.9 115.75 170.05 115.85 170.2 115.9 170.3 116 170.45 116.1 170.55 116.15 170.7 116.25 170.8 116.3 170.95 116.4 171.05 116.45 171.2 116.55 171.3 116.65 171.45 116.7 171.6 116.8 171.7 116.85 171.85 116.95 171.95 117.05 172.1 117.1 172.2 117.2 172.35 117.25 172.45 117.35 172.6 117.4 172.7 117.45 172.8 117.55 172.95 117.65 173.05 117.7 173.2 117.8 173.3 117.85 173.45 117.95 173.6 118.05 173.7 118.1 173.85 118.2 173.95 118.25 174.1 118.35 174.2 118.4 174.35 118.5 174.45 118.6 174.6 118.65 174.75 118.75 174.85 118.8 175 118.9 175.1 118.95 175.25 119.05 175.35 119.15 175.5 119.2 175.6 119.3 175.75 119.35 175.85 119.45 176 119.55 176.15 119.6 176.25 119.7 176.4 119.75 176.5 119.85 176.65 119.9 176.75 120 176.9 120.1 177 120.15 177.15 120.25 177.3 120.3 177.4 120.4 177.55 120.45 177.65 120.55 177.8 120.65 177.9 120.7 178.05 120.8 178.15 120.85 178.3 120.95 178.4 121.05 178.55 121.1 178.7 121.2 178.8 121.25 178.95 121.35 179.05 121.4 179.2 121.5 179.3 121.6 179.45 121.65 179.55 121.75 179.7 121.8 179.85 121.9 179.95 121.95 180.1 122.05 180.2 122.15 180.35 122.2 180.45 122.3 180.6 122.35 180.7 122.45 180.85 122.55 180.95 122.6 181.1 122.7 181.25 122.75 181.35 122.85 181.5 122.9 181.6 123 181.75 123.1 181.85 123.15 182 123.25 182.1 123.3 182.25 123.4 182.4 123.45 182.5 123.55 182.65 123.65 182.75 123.7 182.9 123.8 183 123.85 183.15 123.95 183.25 124.05 183.4 124.1 183.55 124.2 183.65 124.25 183.8 124.35 183.9 124.4 184.05 124.5 184.15 124.6 184.3 124.65 184.4 124.7 184.45 125.5 183.9 126.35 183.35 126.8 183.1 127.2 182.8 127.15 182.75 127.15 182.7 129.55 181.25 131.9 179.8 131.8 179.65 131.7 179.55 131.65 179.4 131.55 179.3 131.5 179.15 131.4 179.05 131.35 178.9 131.25 178.75 131.15 178.65 131.1 178.5 131 178.4 130.95 178.25 130.85 178.15 130.75 178 130.7 177.9 130.6 177.75 130.55 177.6 130.45 177.5 130.4 177.35 130.3 177.25 130.2 177.1 130.15 177 130.05 176.85 130 176.75 129.9 176.6 129.85 176.45 129.75 176.35 129.65 176.2 129.6 176.1 129.5 175.95 129.45 175.85 129.35 175.7 129.25 175.6 129.2 175.45 129.1 175.35 129.05 175.2 128.95 175.05 128.9 174.95 128.8 174.8 128.7 174.7 128.65 174.55 128.55 174.45 128.5 174.3 128.4 174.2 128.35 174.05 128.25 173.9 128.15 173.8 128.1 173.65 128 173.55 127.95 173.4 127.85 173.3 127.75 173.15 127.7 173.05 127.6 172.9 127.55 172.8 127.45 172.65 127.4 172.5 127.3 172.4 127.2 172.25 127.15 172.15 127.05 172 127 171.9 126.9 171.75 126.85 171.65 126.75 171.5 126.65 171.35 126.6 171.25 126.5 171.1 126.45 171 126.35 170.85 126.25 170.75 126.2 170.6 126.1 170.5 126.05 170.35 125.95 170.25 125.9 170.1 125.8 169.95 125.7 169.85 125.65 169.7 125.55 169.6 125.5 169.45 125.4 169.35 125.35 169.2 125.25 169.1 125.15 168.95 125.1 168.8 125 168.7 124.95 168.55 124.85 168.45 124.75 168.3 124.7 168.2 124.65 168.1 124.55 167.95 124.5 167.85 124.4 167.7 124.35 167.6 124.25 167.45 124.15 167.35 124.1 167.2 124 167.1 123.95 166.95 123.85 166.8 123.75 166.7 123.7 166.55 123.6 166.45 123.55 166.3 123.45 166.2 123.4 166.05 123.3 165.95 123.2 165.8 123.15 165.7 123.05 165.55 123 165.4 122.9 165.3 122.85 165.15 122.75 165.05 122.65 164.9 122.6 164.8 122.5 164.65 122.45 164.55 122.35 164.4 122.25 164.25 122.2 164.15 122.1 164 122.05 163.9 121.95 163.75 121.9 163.65 121.8 163.5 121.7 163.4 121.65 163.25 121.55 163.15 121.5 163 121.4 162.85 121.35 162.75 121.25 162.6 121.15 162.5 121.1 162.35 121 162.25 120.95 162.1 120.85 162 120.75 161.85 120.7 161.7 120.6 161.6 120.55 161.45 120.45 161.35 120.4 161.2 120.3 161.1 120.2 160.95 120.15 160.85 120.05 160.7 120 160.55 119.9 160.45 119.85 160.3 119.75 160.2 119.65 160.05 119.6 159.95 119.5 159.8 119.45 159.7 119.35 159.55 119.25 159.45 119.2 159.3 119.1 159.15 119.05 159.05 118.95 158.9 118.9 158.8 118.8 158.65 118.7 158.55 118.65 158.4 118.55 158.3 118.5 158.15 118.4 158 118.35 157.9 118.25 157.75 118.15 157.65 118.1 157.5 118 157.4 117.95 157.25 117.85 157.15 117.75 157 117.7 156.9 117.6 156.75 117.55 156.6 117.45 156.5 117.4 156.35 117.3 156.25 117.2 156.1 117.15 156 117.05 155.85 117 155.75 116.9 155.6 116.85 155.45 116.75 155.35 116.65 155.2 116.6 155.1 116.5 154.95 116.45 154.85 116.35 154.7 116.25 154.6 116.2 154.45 116.1 154.35 116.05 154.2 115.95 154.05 115.9 153.95 115.8 153.8 115.7 153.7 115.65 153.55 115.55 153.45 115.5 153.3 115.4 153.2 115.35 153.05 115.25 152.9 115.15 152.8 115.1 152.65 115 152.55 114.95 152.4 114.85 152.3 114.75 152.15 114.7 152.05 114.6 151.9 114.55 151.75 114.45 151.65 114.4 151.5 114.3 151.4 114.2 151.25 114.15 151.15 114.05 151 114 150.9 113.9 150.75 113.85 150.65 113.75 150.5 113.65 150.35 113.6 150.25 113.5 150.1 113.45 150 113.35 149.85 113.25 149.75 113.2 149.6 113.1 149.5 113.05 149.35 112.95 149.2 112.9 149.1 112.8 148.95 112.7 148.85 112.65 148.7 112.55 148.6 112.5 148.45 112.4 148.35 112.35 148.2 112.25 148.1 112.15 147.95 112.1 147.8 112 147.7 111.95 147.55 111.85 147.45 111.75 147.3 111.7 147.2 111.6 147.05 111.55 146.95 111.45 146.8 111.4 146.65 111.3 146.55 111.2 146.4 111.15 146.3 111.05 146.15 111 146.05 110.9 145.9 110.85 145.8 110.75 145.65 110.65 145.55 110.6 145.4 110.5 145.25 110.45 145.15 110.35 145 110.25 144.9 110.2 144.75 110.1 144.65 110.05 144.5 109.95 144.4
M 98.1 141.5
Q 98.15 141.6 98.25 141.75 98.3 141.85 98.4 142 98.45 142.1 98.55 142.25 98.65 142.35 98.7 142.5 98.8 142.65 98.85 142.75 98.95 142.9 99.05 143 99.1 143.15 99.2 143.25 99.25 143.4 99.35 143.5 99.4 143.65 99.5 143.8 99.6 143.9 99.65 144.05 99.75 144.15 99.8 144.3 99.9 144.4 99.95 144.55 100.05 144.65 100.15 144.8 100.2 144.9 100.3 145.05 100.35 145.2 100.45 145.3 100.55 145.45 100.6 145.55 100.7 145.7 100.75 145.8 100.85 145.95 100.9 146.05 101.15 145.9 101.4 145.75
L 101.35 145.7
Q 104.75 143.6 108.15 141.5 108.1 141.4 108.05 141.3 108 141.2 107.9 141.05 107.85 140.95 107.75 140.8 107.65 140.7 107.6 140.55 107.5 140.4 107.45 140.3 107.35 140.15 107.25 140.05 107.2 139.9 107.1 139.8 107.05 139.65 106.95 139.55 106.9 139.4 106.8 139.3 106.7 139.15 106.65 139 106.55 138.9 106.5 138.75 106.4 138.65 106.35 138.5 106.25 138.4 106.15 138.25 106.1 138.15 106 138 105.95 137.85 105.85 137.75 105.75 137.6 105.7 137.5 105.6 137.35 105.55 137.25 105.45 137.1 105.4 137 105.35 136.95 105.35 136.9 104.75 137.25 104.2 137.6 104.05 137.55 103.95 137.45 102.1 138.6 100.3 139.75 99.9 139.95 99.55 140.2
L 99.5 140.2
Q 99.55 140.35 99.6 140.45 98.8 140.95 98 141.35 98.05 141.45 98.1 141.5 Z"/>

<path fill="#FFFFFF" stroke="none" d="
M 101.55 147.1
Q 101.65 147.2 101.7 147.35 101.8 147.45 101.85 147.6 101.9 147.7 101.95 147.75 102.55 147.4 103.15 147
L 103.1 146.95
Q 106.15 145.05 109.2 143.2 109.2 143.15 109.15 143.1 109.1 142.95 109 142.85 108.95 142.7 108.85 142.6 108.85 142.55 108.8 142.5 105.4 144.6 102 146.7 101.75 146.85 101.5 147 101.55 147.05 101.55 147.1 Z"/>

<path fill="#94919F" stroke="none" d="
M 95.95 132.7
Q 96.05 132.85 96.1 132.95 96.2 133.1 96.25 133.25 96.35 133.35 96.45 133.5 96.5 133.6 96.6 133.75 96.7 133.8 96.8 133.95 96.85 134.05 96.95 134.2 97.05 134.35 97.1 134.45 97.2 134.6 97.25 134.7 97.35 134.85 97.4 134.95 97.5 135.1 97.6 135.2 97.65 135.35 97.75 135.45 97.8 135.6 97.9 135.75 98 135.85 98.05 136 98.15 136.1 98.2 136.25 98.3 136.35 98.35 136.5 98.45 136.6 98.55 136.75 98.6 136.9 98.7 137 98.75 137.15 98.85 137.25 98.9 137.4 98.95 137.55 99.05 137.7 99.1 137.8 99.15 137.95 99.15 138.1 99.25 138.25 99.35 138.4 99.35 138.5 99.4 138.7 99.4 138.75 99.45 138.85 99.55 138.8 99.7 138.75 101.25 137.75 102.85 136.8 102.75 136.7 102.65 136.7 102.5 136.55 102.4 136.5 102.3 136.35 102.2 136.2 102.1 136.1 102 136 101.95 135.9 101.85 135.75 101.7 135.65 101.6 135.55 101.5 135.45 101.45 135.3 101.35 135.2 101.3 135.05 101.2 134.9 101.1 134.8 101.05 134.65 100.95 134.55 100.9 134.4 100.8 134.3 100.75 134.15 100.65 134.05 100.55 133.9 100.5 133.75 100.4 133.65 100.35 133.5 100.25 133.4 100.15 133.25 100.1 133.15 100 133 99.95 132.9 99.85 132.75 99.8 132.65 99.7 132.5 99.6 132.35 99.55 132.25 99.5 132.05 99.5 131.95 99.4 131.8 99.35 131.7 99.25 131.55 99.15 131.45 99.1 131.3 99 131.15
L 98.5 131.7
Q 98.2 132 97.05 132.6 96.75 132.1 96.15 132.05
L 95.55 132.05
Q 95.6 132.1 95.65 132.2 95.7 132.35 95.8 132.45 95.85 132.6 95.95 132.7 Z"/>

<path fill="#B1B1B1" stroke="none" d="
M 106.4 82.4
Q 99.1 70.6 85.5 67.4 71.95 64.25 60.1 71.55 48.3 78.85 45.15 92.4 41.95 106 49.25 117.8 56.55 129.6 70.15 132.8 83.7 135.95 95.5 128.65 107.35 121.35 110.5 107.8 113.7 94.2 106.4 82.4
M 84.4 72.25
Q 96 75 102.25 85.15 108.5 95.25 105.8 106.85 103.05 118.45 92.9 124.75 82.75 131.05 71.15 128.3 59.5 125.55 53.25 115.45 47 105.3 49.75 93.7 52.45 82.15 62.6 75.85 72.75 69.55 84.4 72.25 Z"/>

<path fill="url(#Gradient_1)" stroke="none" d="
M 101.15 85.6
Q 95.15 75.85 84 73.25 72.9 70.65 63.15 76.7 53.4 82.7 50.75 93.85 48.15 104.95 54.15 114.7 60.2 124.45 71.3 127.1 82.45 129.6 92.2 123.6 101.95 117.55 104.55 106.5 107.2 95.35 101.15 85.6 Z"/>
</g>
</defs>

<g transform="matrix( 1, 0, 0, 1, -636.8,-208.75) ">
<use xlink:href="#Layer1_0_FILL"/>
</g>

<g transform="matrix( 1, 0, 0, 1, 0,0) ">
<use xlink:href="#Layer0_0_FILL"/>
</g>

<g transform="matrix( 0.97650146484375, -0.2154388427734375, 0.2154388427734375, 0.97650146484375, -28.4,15.4) ">
<use xlink:href="#Layer0_1_MEMBER_0_FILL"/>
</g>

<g transform="matrix( 0.976409912109375, -0.2154083251953125, 0.2154083251953125, 0.976409912109375, -26.65,23.2) ">
<use xlink:href="#Layer0_1_MEMBER_0_MEMBER_0_FILL"/>
</g>

<g transform="matrix( 0.976409912109375, -0.2154083251953125, 0.2154083251953125, 0.976409912109375, -23.35,38.15) ">
<use xlink:href="#Layer0_1_MEMBER_0_MEMBER_1_FILL"/>
</g>

<g transform="matrix( 0.976409912109375, -0.2154083251953125, 0.2154083251953125, 0.976409912109375, -20.05,52.9) ">
<use xlink:href="#Layer0_1_MEMBER_0_MEMBER_2_FILL"/>
</g>

<g transform="matrix( 0.976409912109375, -0.2154083251953125, 0.2154083251953125, 0.976409912109375, -16.75,67.85) ">
<use xlink:href="#Layer0_1_MEMBER_0_MEMBER_3_FILL"/>
</g>

<g transform="matrix( 0.976409912109375, -0.2154083251953125, 0.2154083251953125, 0.976409912109375, -13.45,82.95) ">
<use xlink:href="#Layer0_1_MEMBER_0_MEMBER_4_FILL"/>
</g>

<g transform="matrix( 0.976409912109375, -0.2154083251953125, 0.2154083251953125, 0.976409912109375, -28.4,15.4) ">
<use xlink:href="#Layer0_1_MEMBER_0_MEMBER_5_FILL"/>
</g>

<g transform="matrix( 0.976409912109375, -0.2154083251953125, 0.1525726318359375, 0.69158935546875, -4.7,41.75) ">
<use xlink:href="#Layer0_1_MEMBER_0_MEMBER_6_FILL"/>
</g>

<g transform="matrix( 0.976409912109375, -0.2154083251953125, 0.1861419677734375, 0.843780517578125, 8.6,21.85) ">
<use xlink:href="#Layer0_1_MEMBER_0_MEMBER_7_FILL"/>
</g>

<g transform="matrix( 0.976409912109375, -0.2154083251953125, 0.1525726318359375, 0.69158935546875, 29.25,34.1) ">
<use xlink:href="#Layer0_1_MEMBER_0_MEMBER_8_FILL"/>
</g>

<g transform="matrix( 1, 0, 0, 1, -3.85,-4.8) ">
<use xlink:href="#Layer0_1_MEMBER_1_FILL"/>
</g>

<g transform="matrix( 1, 0, 0, 1, -3.85,3.2) ">
<use xlink:href="#Layer0_1_MEMBER_1_MEMBER_0_FILL"/>
</g>

<g transform="matrix( 1, 0, 0, 1, -3.85,18.5) ">
<use xlink:href="#Layer0_1_MEMBER_1_MEMBER_1_FILL"/>
</g>

<g transform="matrix( 1, 0, 0, 1, -3.85,33.8) ">
<use xlink:href="#Layer0_1_MEMBER_1_MEMBER_2_FILL"/>
</g>

<g transform="matrix( 1, 0, 0, 1, -3.85,49.1) ">
<use xlink:href="#Layer0_1_MEMBER_1_MEMBER_3_FILL"/>
</g>

<g transform="matrix( 1, 0, 0, 1, -3.85,64.4) ">
<use xlink:href="#Layer0_1_MEMBER_1_MEMBER_4_FILL"/>
</g>

<g transform="matrix( 1, 0, 0, 1, -3.85,-4.8) ">
<use xlink:href="#Layer0_1_MEMBER_1_MEMBER_5_FILL"/>
</g>

<g transform="matrix( 1, 0, 0, 0.70831298828125, 13.6,26.05) ">
<use xlink:href="#Layer0_1_MEMBER_1_MEMBER_6_FILL"/>
</g>

<g transform="matrix( 1, 0, 0, 0.8641815185546875, 31.05,9.6) ">
<use xlink:href="#Layer0_1_MEMBER_1_MEMBER_7_FILL"/>
</g>

<g transform="matrix( 1, 0, 0, 0.70831298828125, 48.55,26.05) ">
<use xlink:href="#Layer0_1_MEMBER_1_MEMBER_8_FILL"/>
</g>

<g transform="matrix( 1, 0, 0, 1, -3.85,-4.8) ">
<use xlink:href="#Layer0_1_MEMBER_2_FILL"/>
</g>
</svg>
