<?xml version="1.0" encoding="utf-8"?>
<!-- Generator: Adobe Illustrator 24.3.0, SVG Export Plug-In . SVG Version: 6.00 Build 0)  -->
<svg version="1.1" xmlns="http://www.w3.org/2000/svg" xmlns:xlink="http://www.w3.org/1999/xlink" x="0px" y="0px"
	 viewBox="0 0 510 235" style="enable-background:new 0 0 510 235;" xml:space="preserve">
<style type="text/css">
	.st0{fill:#C9EE95;}
	.st1{fill:#6FB590;}
	.st2{fill:#0C486C;}
	.st3{fill:#FFFFFF;}
</style>
<g id="Camada_2">
	<path class="st0" d="M178.5,142.3H61.7c-4.6,0-8.4-3.8-8.4-8.4V96.7c0-4.6,3.8-8.4,8.4-8.4h116.8c4.6,0,8.4,3.8,8.4,8.4v37.2
		C186.8,138.5,183.1,142.3,178.5,142.3z"/>
	<path class="st0" d="M423.1,137.6h-90.8c-5.2,0-9.4-4.2-9.4-9.4v-21.5c0-5.2,4.2-9.4,9.4-9.4h90.8c5.2,0,9.4,4.2,9.4,9.4v21.5
		C432.5,133.4,428.3,137.6,423.1,137.6z"/>
	<path class="st0" d="M294.4,53.1h-78.8c-5.2,0-9.4-4.2-9.4-9.4V23.8c0-5.2,4.2-9.4,9.4-9.4h78.8c5.2,0,9.4,4.2,9.4,9.4v19.9
		C303.7,48.9,299.5,53.1,294.4,53.1z"/>
	<path class="st0" d="M294.4,222.4h-78.8c-5.2,0-9.4-4.2-9.4-9.4v-19.9c0-5.2,4.2-9.4,9.4-9.4h78.8c5.2,0,9.4,4.2,9.4,9.4V213
		C303.7,218.1,299.5,222.4,294.4,222.4z"/>
	<circle class="st1" cx="255" cy="117.5" r="28.5"/>
</g>
<g id="Camada_1">
	<g>
		<path class="st2" d="M230.7,22.4c0,0.1-0.1,0.1-0.1,0.1c0,0-0.1,0-0.2,0c-0.1,0-0.1,0-0.2-0.1c-0.1-0.1-0.2-0.1-0.3-0.2
			c-0.1-0.1-0.3-0.2-0.5-0.2c-0.2-0.1-0.4-0.1-0.7-0.1c-0.3,0-0.5,0-0.7,0.1c-0.2,0.1-0.4,0.2-0.5,0.3c-0.1,0.1-0.2,0.3-0.3,0.4
			s-0.1,0.3-0.1,0.5c0,0.2,0.1,0.4,0.2,0.6c0.1,0.2,0.3,0.3,0.5,0.4c0.2,0.1,0.4,0.2,0.7,0.3c0.2,0.1,0.5,0.2,0.8,0.3
			c0.3,0.1,0.5,0.2,0.8,0.3c0.2,0.1,0.5,0.2,0.7,0.4c0.2,0.2,0.4,0.4,0.5,0.6c0.1,0.2,0.2,0.5,0.2,0.9c0,0.4-0.1,0.7-0.2,1.1
			c-0.1,0.3-0.3,0.6-0.6,0.9s-0.5,0.4-0.9,0.6c-0.4,0.1-0.8,0.2-1.2,0.2c-0.6,0-1.1-0.1-1.5-0.3s-0.8-0.5-1.2-0.8l0.3-0.6
			c0,0,0.1-0.1,0.1-0.1c0,0,0.1,0,0.2,0c0.1,0,0.2,0,0.3,0.1c0.1,0.1,0.2,0.2,0.4,0.3c0.2,0.1,0.4,0.2,0.6,0.3
			c0.2,0.1,0.5,0.1,0.8,0.1c0.3,0,0.5,0,0.7-0.1c0.2-0.1,0.4-0.2,0.5-0.3c0.1-0.1,0.3-0.3,0.3-0.5c0.1-0.2,0.1-0.4,0.1-0.6
			c0-0.3-0.1-0.5-0.2-0.6c-0.1-0.2-0.3-0.3-0.5-0.4c-0.2-0.1-0.4-0.2-0.7-0.3c-0.2-0.1-0.5-0.2-0.8-0.2c-0.3-0.1-0.5-0.2-0.8-0.3
			s-0.5-0.2-0.7-0.4c-0.2-0.2-0.3-0.4-0.5-0.6s-0.2-0.6-0.2-1c0-0.3,0.1-0.6,0.2-0.9s0.3-0.5,0.5-0.8c0.2-0.2,0.5-0.4,0.8-0.5
			c0.3-0.1,0.7-0.2,1.1-0.2c0.5,0,0.9,0.1,1.3,0.2c0.4,0.2,0.7,0.4,1,0.7L230.7,22.4z"/>
		<path class="st2" d="M234.9,23.5c0.4,0,0.7,0.1,1,0.2c0.3,0.1,0.6,0.3,0.8,0.5s0.4,0.5,0.5,0.9s0.2,0.7,0.2,1.2
			c0,0.2,0,0.3-0.1,0.3c0,0.1-0.1,0.1-0.2,0.1h-4c0,0.4,0.1,0.7,0.2,1c0.1,0.3,0.2,0.5,0.4,0.7c0.2,0.2,0.4,0.3,0.6,0.4
			c0.2,0.1,0.5,0.1,0.8,0.1c0.3,0,0.5,0,0.7-0.1s0.4-0.1,0.5-0.2c0.1-0.1,0.3-0.1,0.4-0.2c0.1-0.1,0.2-0.1,0.2-0.1
			c0.1,0,0.2,0,0.2,0.1l0.3,0.4c-0.1,0.2-0.3,0.3-0.5,0.4c-0.2,0.1-0.4,0.2-0.6,0.3c-0.2,0.1-0.4,0.1-0.7,0.2
			c-0.2,0-0.4,0.1-0.7,0.1c-0.4,0-0.8-0.1-1.2-0.2c-0.4-0.1-0.7-0.4-0.9-0.6c-0.3-0.3-0.5-0.6-0.6-1c-0.1-0.4-0.2-0.9-0.2-1.4
			c0-0.4,0.1-0.8,0.2-1.2c0.1-0.4,0.3-0.7,0.6-1c0.2-0.3,0.5-0.5,0.9-0.6C234.1,23.6,234.5,23.5,234.9,23.5z M234.9,24.3
			c-0.5,0-0.9,0.1-1.2,0.4s-0.5,0.7-0.6,1.2h3.3c0-0.2,0-0.5-0.1-0.7c-0.1-0.2-0.2-0.4-0.3-0.5s-0.3-0.3-0.5-0.3
			S235.2,24.3,234.9,24.3z"/>
		<path class="st2" d="M238.8,29.7v-6.1h0.6c0.1,0,0.2,0,0.2,0.1c0,0,0.1,0.1,0.1,0.2l0.1,0.9c0.2-0.4,0.5-0.8,0.8-1
			c0.3-0.2,0.7-0.4,1.1-0.4c0.2,0,0.3,0,0.5,0.1c0.1,0,0.3,0.1,0.4,0.2l-0.1,0.8c0,0.1-0.1,0.1-0.2,0.1c-0.1,0-0.1,0-0.3-0.1
			c-0.1,0-0.3-0.1-0.5-0.1c-0.4,0-0.7,0.1-0.9,0.3s-0.5,0.5-0.6,0.9v3.9H238.8z"/>
		<path class="st2" d="M242.8,23.6h0.9c0.1,0,0.2,0,0.2,0.1c0.1,0,0.1,0.1,0.1,0.2l1.5,3.9c0.1,0.1,0.1,0.3,0.1,0.4
			c0,0.1,0.1,0.3,0.1,0.4c0-0.1,0.1-0.3,0.1-0.4c0-0.1,0.1-0.3,0.1-0.4l1.6-3.9c0-0.1,0.1-0.1,0.1-0.2c0.1,0,0.1-0.1,0.2-0.1h0.8
			l-2.5,6.1h-1L242.8,23.6z"/>
		<path class="st2" d="M251.2,21.7c0,0.1,0,0.2-0.1,0.3c0,0.1-0.1,0.2-0.2,0.2c-0.1,0.1-0.2,0.1-0.2,0.2c-0.1,0-0.2,0.1-0.3,0.1
			s-0.2,0-0.3-0.1c-0.1,0-0.2-0.1-0.2-0.2c-0.1-0.1-0.1-0.1-0.2-0.2c0-0.1-0.1-0.2-0.1-0.3s0-0.2,0.1-0.3c0-0.1,0.1-0.2,0.2-0.2
			c0.1-0.1,0.1-0.1,0.2-0.2c0.1,0,0.2-0.1,0.3-0.1s0.2,0,0.3,0.1c0.1,0,0.2,0.1,0.2,0.2c0.1,0.1,0.1,0.2,0.2,0.2
			C251.2,21.5,251.2,21.6,251.2,21.7z M250.9,23.6v6.1h-1.1v-6.1H250.9z"/>
		<path class="st2" d="M254.4,31.2C254.4,31.2,254.4,31.2,254.4,31.2c0.1,0,0.2,0.1,0.2,0.1c0,0,0.1,0,0.2,0c0.1,0,0.1,0,0.2,0
			c0.2,0,0.3,0,0.4-0.1s0.1-0.2,0.1-0.3c0-0.1,0-0.1-0.1-0.2c0-0.1-0.1-0.1-0.2-0.1s-0.2-0.1-0.3-0.1s-0.3,0-0.4-0.1l0.2-0.7
			c-0.3,0-0.6-0.1-0.9-0.3c-0.3-0.2-0.5-0.4-0.7-0.6c-0.2-0.3-0.4-0.6-0.5-0.9c-0.1-0.4-0.2-0.8-0.2-1.2s0.1-0.9,0.2-1.3
			c0.1-0.4,0.3-0.7,0.6-1c0.2-0.3,0.5-0.5,0.9-0.7c0.4-0.2,0.8-0.2,1.2-0.2c0.4,0,0.8,0.1,1.1,0.2c0.3,0.1,0.6,0.3,0.9,0.6l-0.3,0.4
			c0,0-0.1,0.1-0.1,0.1c0,0-0.1,0-0.1,0c-0.1,0-0.1,0-0.2-0.1c-0.1,0-0.2-0.1-0.3-0.2s-0.2-0.1-0.4-0.2c-0.2,0-0.3-0.1-0.6-0.1
			c-0.3,0-0.6,0.1-0.8,0.2s-0.4,0.3-0.6,0.5c-0.2,0.2-0.3,0.4-0.3,0.7c-0.1,0.3-0.1,0.6-0.1,1c0,0.4,0,0.7,0.1,1s0.2,0.5,0.4,0.7
			c0.2,0.2,0.3,0.3,0.6,0.4c0.2,0.1,0.5,0.2,0.7,0.2c0.3,0,0.5,0,0.6-0.1c0.2-0.1,0.3-0.1,0.4-0.2c0.1-0.1,0.2-0.1,0.3-0.2
			s0.1-0.1,0.2-0.1c0,0,0.1,0,0.1,0s0.1,0,0.1,0.1l0.3,0.4c-0.2,0.3-0.5,0.5-0.9,0.7c-0.3,0.1-0.7,0.2-1.1,0.3l-0.1,0.3
			c0.4,0.1,0.6,0.2,0.8,0.3c0.2,0.1,0.2,0.3,0.2,0.5c0,0.1,0,0.2-0.1,0.3s-0.2,0.2-0.3,0.3c-0.1,0.1-0.3,0.1-0.4,0.2
			s-0.3,0.1-0.5,0.1c-0.2,0-0.3,0-0.5-0.1c-0.1,0-0.3-0.1-0.4-0.1l0.1-0.3C254.2,31.2,254.3,31.2,254.4,31.2z"/>
		<path class="st2" d="M260.9,23.5c0.4,0,0.8,0.1,1.2,0.2c0.4,0.1,0.7,0.4,0.9,0.6s0.4,0.6,0.6,1c0.1,0.4,0.2,0.8,0.2,1.3
			c0,0.5-0.1,0.9-0.2,1.3c-0.1,0.4-0.3,0.7-0.6,1c-0.2,0.3-0.6,0.5-0.9,0.6c-0.4,0.1-0.8,0.2-1.2,0.2c-0.4,0-0.8-0.1-1.2-0.2
			c-0.4-0.1-0.7-0.4-0.9-0.6c-0.3-0.3-0.4-0.6-0.6-1c-0.1-0.4-0.2-0.8-0.2-1.3c0-0.5,0.1-0.9,0.2-1.3s0.3-0.7,0.6-1s0.6-0.5,0.9-0.6
			C260,23.6,260.4,23.5,260.9,23.5z M260.9,28.9c0.6,0,1-0.2,1.3-0.6s0.4-1,0.4-1.7c0-0.7-0.1-1.3-0.4-1.7c-0.3-0.4-0.7-0.6-1.3-0.6
			c-0.3,0-0.6,0.1-0.8,0.2c-0.2,0.1-0.4,0.3-0.6,0.5c-0.1,0.2-0.3,0.4-0.3,0.7s-0.1,0.6-0.1,1c0,0.4,0,0.7,0.1,1
			c0.1,0.3,0.2,0.5,0.3,0.7c0.2,0.2,0.3,0.3,0.6,0.4C260.3,28.9,260.6,28.9,260.9,28.9z"/>
		<path class="st2" d="M268.6,24.6c0,0.1-0.1,0.1-0.2,0.1c-0.1,0-0.1,0-0.2-0.1c-0.1,0-0.2-0.1-0.3-0.1c-0.1-0.1-0.2-0.1-0.4-0.1
			c-0.2,0-0.3-0.1-0.5-0.1c-0.2,0-0.3,0-0.5,0.1c-0.1,0-0.3,0.1-0.4,0.2c-0.1,0.1-0.2,0.2-0.2,0.3s-0.1,0.2-0.1,0.3
			c0,0.2,0,0.3,0.1,0.4s0.2,0.2,0.4,0.3c0.1,0.1,0.3,0.1,0.5,0.2c0.2,0.1,0.4,0.1,0.6,0.2c0.2,0.1,0.4,0.1,0.6,0.2
			c0.2,0.1,0.4,0.2,0.5,0.3c0.1,0.1,0.3,0.3,0.4,0.4c0.1,0.2,0.1,0.4,0.1,0.6c0,0.3-0.1,0.5-0.2,0.8c-0.1,0.2-0.2,0.4-0.4,0.6
			c-0.2,0.2-0.4,0.3-0.7,0.4c-0.3,0.1-0.6,0.2-1,0.2c-0.4,0-0.8-0.1-1.2-0.2c-0.3-0.1-0.6-0.3-0.9-0.5l0.3-0.4
			c0-0.1,0.1-0.1,0.1-0.1s0.1,0,0.2,0c0.1,0,0.1,0,0.2,0.1s0.2,0.1,0.3,0.2s0.3,0.1,0.4,0.2s0.4,0.1,0.6,0.1c0.2,0,0.4,0,0.5-0.1
			c0.2-0.1,0.3-0.1,0.4-0.2c0.1-0.1,0.2-0.2,0.2-0.3c0-0.1,0.1-0.2,0.1-0.4c0-0.2,0-0.3-0.1-0.4c-0.1-0.1-0.2-0.2-0.4-0.3
			c-0.1-0.1-0.3-0.1-0.5-0.2c-0.2-0.1-0.4-0.1-0.6-0.2c-0.2-0.1-0.4-0.1-0.6-0.2c-0.2-0.1-0.4-0.2-0.5-0.3c-0.1-0.1-0.3-0.3-0.4-0.5
			s-0.1-0.4-0.1-0.7c0-0.2,0-0.5,0.1-0.7c0.1-0.2,0.2-0.4,0.4-0.6s0.4-0.3,0.7-0.4c0.3-0.1,0.6-0.1,0.9-0.1c0.4,0,0.8,0.1,1.1,0.2
			c0.3,0.1,0.6,0.3,0.8,0.5L268.6,24.6z"/>
		<path class="st2" d="M276.9,29.7c-0.2,0-0.2-0.1-0.3-0.2l-0.1-0.7c-0.3,0.3-0.6,0.6-0.9,0.8c-0.3,0.2-0.7,0.3-1.1,0.3
			c-0.3,0-0.7-0.1-0.9-0.2c-0.3-0.1-0.5-0.3-0.7-0.6c-0.2-0.3-0.4-0.6-0.5-1c-0.1-0.4-0.2-0.8-0.2-1.3c0-0.4,0.1-0.9,0.2-1.3
			c0.1-0.4,0.3-0.7,0.5-1c0.2-0.3,0.5-0.5,0.8-0.7s0.7-0.2,1.1-0.2c0.4,0,0.7,0.1,1,0.2c0.3,0.1,0.5,0.3,0.7,0.5v-3.4h1.1v8.8H276.9
			z M274.8,28.9c0.3,0,0.7-0.1,0.9-0.2s0.5-0.4,0.7-0.7V25c-0.2-0.3-0.4-0.4-0.6-0.6s-0.5-0.2-0.8-0.2c-0.6,0-1,0.2-1.3,0.6
			c-0.3,0.4-0.5,1-0.5,1.7c0,0.4,0,0.7,0.1,1c0.1,0.3,0.2,0.5,0.3,0.7c0.1,0.2,0.3,0.3,0.5,0.4C274.4,28.9,274.6,28.9,274.8,28.9z"
			/>
		<path class="st2" d="M281.7,23.5c0.4,0,0.7,0.1,1,0.2c0.3,0.1,0.6,0.3,0.8,0.5c0.2,0.2,0.4,0.5,0.5,0.9s0.2,0.7,0.2,1.2
			c0,0.2,0,0.3-0.1,0.3c0,0.1-0.1,0.1-0.2,0.1h-4c0,0.4,0.1,0.7,0.2,1c0.1,0.3,0.2,0.5,0.4,0.7c0.2,0.2,0.4,0.3,0.6,0.4
			c0.2,0.1,0.5,0.1,0.8,0.1c0.3,0,0.5,0,0.7-0.1c0.2-0.1,0.4-0.1,0.5-0.2c0.1-0.1,0.3-0.1,0.4-0.2c0.1-0.1,0.2-0.1,0.2-0.1
			c0.1,0,0.2,0,0.2,0.1l0.3,0.4c-0.1,0.2-0.3,0.3-0.5,0.4c-0.2,0.1-0.4,0.2-0.6,0.3c-0.2,0.1-0.4,0.1-0.7,0.2
			c-0.2,0-0.4,0.1-0.7,0.1c-0.4,0-0.8-0.1-1.2-0.2c-0.4-0.1-0.7-0.4-0.9-0.6c-0.3-0.3-0.5-0.6-0.6-1c-0.1-0.4-0.2-0.9-0.2-1.4
			c0-0.4,0.1-0.8,0.2-1.2c0.1-0.4,0.3-0.7,0.6-1s0.5-0.5,0.9-0.6C280.9,23.6,281.3,23.5,281.7,23.5z M281.8,24.3
			c-0.5,0-0.9,0.1-1.2,0.4s-0.5,0.7-0.6,1.2h3.3c0-0.2,0-0.5-0.1-0.7s-0.2-0.4-0.3-0.5s-0.3-0.3-0.5-0.3
			C282.2,24.3,282,24.3,281.8,24.3z"/>
		<path class="st2" d="M220.9,39c0,0.1-0.1,0.1-0.2,0.1c-0.1,0-0.1,0-0.2-0.1c-0.1,0-0.2-0.1-0.3-0.1c-0.1-0.1-0.2-0.1-0.4-0.1
			c-0.2,0-0.3-0.1-0.5-0.1c-0.2,0-0.3,0-0.5,0.1c-0.1,0-0.3,0.1-0.4,0.2c-0.1,0.1-0.2,0.2-0.2,0.3c-0.1,0.1-0.1,0.2-0.1,0.3
			c0,0.2,0,0.3,0.1,0.4c0.1,0.1,0.2,0.2,0.4,0.3s0.3,0.1,0.5,0.2c0.2,0.1,0.4,0.1,0.6,0.2c0.2,0.1,0.4,0.1,0.6,0.2s0.4,0.2,0.5,0.3
			c0.1,0.1,0.3,0.3,0.4,0.4c0.1,0.2,0.1,0.4,0.1,0.6c0,0.3-0.1,0.5-0.2,0.8c-0.1,0.2-0.2,0.4-0.4,0.6c-0.2,0.2-0.4,0.3-0.7,0.4
			c-0.3,0.1-0.6,0.2-1,0.2c-0.4,0-0.8-0.1-1.2-0.2c-0.3-0.1-0.6-0.3-0.9-0.5l0.3-0.4c0-0.1,0.1-0.1,0.1-0.1s0.1,0,0.2,0
			c0.1,0,0.1,0,0.2,0.1c0.1,0.1,0.2,0.1,0.3,0.2c0.1,0.1,0.3,0.1,0.4,0.2c0.2,0.1,0.4,0.1,0.6,0.1c0.2,0,0.4,0,0.5-0.1
			c0.2-0.1,0.3-0.1,0.4-0.2c0.1-0.1,0.2-0.2,0.2-0.3c0-0.1,0.1-0.2,0.1-0.4c0-0.2,0-0.3-0.1-0.4c-0.1-0.1-0.2-0.2-0.4-0.3
			s-0.3-0.1-0.5-0.2c-0.2-0.1-0.4-0.1-0.6-0.2c-0.2-0.1-0.4-0.1-0.6-0.2c-0.2-0.1-0.4-0.2-0.5-0.3s-0.3-0.3-0.4-0.5
			s-0.1-0.4-0.1-0.7c0-0.2,0-0.5,0.1-0.7c0.1-0.2,0.2-0.4,0.4-0.6c0.2-0.2,0.4-0.3,0.7-0.4c0.3-0.1,0.6-0.1,0.9-0.1
			c0.4,0,0.8,0.1,1.1,0.2s0.6,0.3,0.8,0.5L220.9,39z"/>
		<path class="st2" d="M227.1,44.1h-0.5c-0.1,0-0.2,0-0.3,0c-0.1,0-0.1-0.1-0.1-0.2l-0.1-0.6c-0.2,0.1-0.3,0.3-0.5,0.4
			c-0.2,0.1-0.3,0.2-0.5,0.3s-0.3,0.1-0.5,0.2s-0.4,0.1-0.6,0.1c-0.2,0-0.5,0-0.7-0.1c-0.2-0.1-0.4-0.2-0.5-0.3
			c-0.2-0.1-0.3-0.3-0.4-0.5s-0.1-0.4-0.1-0.7c0-0.2,0.1-0.5,0.2-0.7s0.3-0.4,0.6-0.6c0.3-0.2,0.7-0.3,1.2-0.4s1.1-0.2,1.7-0.2v-0.5
			c0-0.5-0.1-0.8-0.3-1.1c-0.2-0.2-0.5-0.4-0.9-0.4c-0.3,0-0.5,0-0.7,0.1c-0.2,0.1-0.3,0.1-0.5,0.2c-0.1,0.1-0.2,0.2-0.3,0.2
			c-0.1,0.1-0.2,0.1-0.3,0.1c-0.1,0-0.1,0-0.2-0.1s-0.1-0.1-0.1-0.1l-0.2-0.3c0.3-0.3,0.7-0.6,1.1-0.7c0.4-0.2,0.8-0.2,1.3-0.2
			c0.3,0,0.6,0.1,0.9,0.2c0.3,0.1,0.5,0.3,0.7,0.5c0.2,0.2,0.3,0.4,0.4,0.7c0.1,0.3,0.1,0.6,0.1,0.9V44.1z M224.3,43.4
			c0.2,0,0.4,0,0.5-0.1c0.2,0,0.3-0.1,0.4-0.2c0.1-0.1,0.3-0.2,0.4-0.3s0.2-0.2,0.4-0.3v-1.3c-0.5,0-0.9,0-1.3,0.1
			c-0.3,0.1-0.6,0.1-0.8,0.2c-0.2,0.1-0.4,0.2-0.5,0.4c-0.1,0.1-0.1,0.3-0.1,0.5c0,0.2,0,0.3,0.1,0.4c0.1,0.1,0.1,0.2,0.2,0.3
			c0.1,0.1,0.2,0.1,0.3,0.2C224.1,43.4,224.2,43.4,224.3,43.4z"/>
		<path class="st2" d="M229.6,38v3.9c0,0.5,0.1,0.8,0.3,1.1c0.2,0.3,0.5,0.4,1,0.4c0.3,0,0.6-0.1,0.9-0.2s0.5-0.4,0.8-0.6V38h1.1
			v6.1H233c-0.2,0-0.2-0.1-0.3-0.2l-0.1-0.7c-0.3,0.3-0.6,0.5-0.9,0.7c-0.3,0.2-0.7,0.3-1.1,0.3c-0.3,0-0.6-0.1-0.9-0.2
			c-0.3-0.1-0.5-0.3-0.6-0.5c-0.2-0.2-0.3-0.4-0.4-0.7c-0.1-0.3-0.1-0.6-0.1-0.9V38H229.6z M232.9,35.4l-1.4,1.5
			c-0.1,0.1-0.1,0.1-0.2,0.1c-0.1,0-0.1,0-0.2,0h-0.6l0.9-1.5c0.1-0.1,0.1-0.2,0.2-0.2c0.1,0,0.2-0.1,0.3-0.1H232.9z"/>
		<path class="st2" d="M239.7,44.1c-0.2,0-0.2-0.1-0.3-0.2l-0.1-0.7c-0.3,0.3-0.6,0.6-0.9,0.8c-0.3,0.2-0.7,0.3-1.1,0.3
			c-0.3,0-0.7-0.1-0.9-0.2c-0.3-0.1-0.5-0.3-0.7-0.6c-0.2-0.3-0.4-0.6-0.5-1c-0.1-0.4-0.2-0.8-0.2-1.3c0-0.4,0.1-0.9,0.2-1.3
			c0.1-0.4,0.3-0.7,0.5-1s0.5-0.5,0.8-0.7c0.3-0.2,0.7-0.2,1.1-0.2c0.4,0,0.7,0.1,1,0.2c0.3,0.1,0.5,0.3,0.7,0.5v-3.4h1.1v8.8H239.7
			z M237.6,43.3c0.3,0,0.7-0.1,0.9-0.2c0.3-0.2,0.5-0.4,0.7-0.7v-2.9c-0.2-0.3-0.4-0.4-0.6-0.6c-0.2-0.1-0.5-0.2-0.8-0.2
			c-0.6,0-1,0.2-1.3,0.6c-0.3,0.4-0.5,1-0.5,1.7c0,0.4,0,0.7,0.1,1c0.1,0.3,0.2,0.5,0.3,0.7c0.1,0.2,0.3,0.3,0.5,0.4
			C237.1,43.3,237.3,43.3,237.6,43.3z"/>
		<path class="st2" d="M244.5,37.9c0.4,0,0.7,0.1,1,0.2c0.3,0.1,0.6,0.3,0.8,0.5s0.4,0.5,0.5,0.9s0.2,0.7,0.2,1.2
			c0,0.2,0,0.3-0.1,0.3c0,0.1-0.1,0.1-0.2,0.1h-4c0,0.4,0.1,0.7,0.2,1c0.1,0.3,0.2,0.5,0.4,0.7c0.2,0.2,0.4,0.3,0.6,0.4
			c0.2,0.1,0.5,0.1,0.8,0.1c0.3,0,0.5,0,0.7-0.1s0.4-0.1,0.5-0.2c0.1-0.1,0.3-0.1,0.4-0.2c0.1-0.1,0.2-0.1,0.2-0.1
			c0.1,0,0.2,0,0.2,0.1l0.3,0.4c-0.1,0.2-0.3,0.3-0.5,0.4c-0.2,0.1-0.4,0.2-0.6,0.3c-0.2,0.1-0.4,0.1-0.7,0.2
			c-0.2,0-0.4,0.1-0.7,0.1c-0.4,0-0.8-0.1-1.2-0.2c-0.4-0.1-0.7-0.4-0.9-0.6c-0.3-0.3-0.5-0.6-0.6-1c-0.1-0.4-0.2-0.9-0.2-1.4
			c0-0.4,0.1-0.8,0.2-1.2c0.1-0.4,0.3-0.7,0.6-1c0.2-0.3,0.5-0.5,0.9-0.6C243.7,38,244.1,37.9,244.5,37.9z M244.5,38.7
			c-0.5,0-0.9,0.1-1.2,0.4s-0.5,0.7-0.6,1.2h3.3c0-0.2,0-0.5-0.1-0.7c-0.1-0.2-0.2-0.4-0.3-0.5s-0.3-0.3-0.5-0.3
			S244.8,38.7,244.5,38.7z"/>
		<path class="st2" d="M250.7,46.1V38h0.6c0.2,0,0.2,0.1,0.3,0.2l0.1,0.7c0.3-0.3,0.6-0.6,0.9-0.8s0.7-0.3,1.2-0.3
			c0.3,0,0.7,0.1,0.9,0.2c0.3,0.1,0.5,0.3,0.7,0.6c0.2,0.3,0.4,0.6,0.5,1c0.1,0.4,0.2,0.8,0.2,1.3c0,0.4-0.1,0.9-0.2,1.3
			c-0.1,0.4-0.3,0.7-0.5,1c-0.2,0.3-0.5,0.5-0.8,0.7c-0.3,0.2-0.7,0.2-1.1,0.2c-0.4,0-0.7-0.1-1-0.2s-0.5-0.3-0.7-0.5v2.7H250.7z
			 M253.4,38.8c-0.3,0-0.7,0.1-0.9,0.2c-0.3,0.2-0.5,0.4-0.7,0.7v2.9c0.2,0.3,0.4,0.4,0.6,0.6c0.2,0.1,0.5,0.2,0.8,0.2
			c0.6,0,1-0.2,1.3-0.6c0.3-0.4,0.5-1,0.5-1.7c0-0.4,0-0.7-0.1-1c-0.1-0.3-0.2-0.5-0.3-0.7c-0.1-0.2-0.3-0.3-0.5-0.4
			C253.9,38.8,253.6,38.8,253.4,38.8z"/>
		<path class="st2" d="M258.2,38v3.9c0,0.5,0.1,0.8,0.3,1.1c0.2,0.3,0.5,0.4,1,0.4c0.3,0,0.6-0.1,0.9-0.2c0.3-0.1,0.5-0.4,0.8-0.6
			V38h1.1v6.1h-0.6c-0.2,0-0.2-0.1-0.3-0.2l-0.1-0.7c-0.3,0.3-0.6,0.5-0.9,0.7c-0.3,0.2-0.7,0.3-1.1,0.3c-0.3,0-0.6-0.1-0.9-0.2
			c-0.3-0.1-0.5-0.3-0.6-0.5c-0.2-0.2-0.3-0.4-0.4-0.7c-0.1-0.3-0.1-0.6-0.1-0.9V38H258.2z M261.5,35.4l-1.4,1.5
			c-0.1,0.1-0.1,0.1-0.2,0.1c-0.1,0-0.1,0-0.2,0h-0.6l0.9-1.5c0.1-0.1,0.1-0.2,0.2-0.2s0.2-0.1,0.3-0.1H261.5z"/>
		<path class="st2" d="M264,44.1v-8.8h1.1v3.6c0.3-0.3,0.5-0.5,0.9-0.7c0.3-0.2,0.7-0.3,1.1-0.3c0.4,0,0.7,0.1,1,0.2
			s0.5,0.3,0.7,0.6c0.2,0.3,0.4,0.6,0.5,1c0.1,0.4,0.2,0.8,0.2,1.3c0,0.4-0.1,0.9-0.2,1.3c-0.1,0.4-0.3,0.7-0.5,1
			c-0.2,0.3-0.5,0.5-0.8,0.7c-0.3,0.2-0.7,0.2-1.1,0.2c-0.4,0-0.7-0.1-1-0.2c-0.3-0.2-0.5-0.4-0.7-0.6l-0.1,0.6
			c0,0.2-0.1,0.2-0.3,0.2H264z M266.7,38.8c-0.3,0-0.7,0.1-0.9,0.2c-0.3,0.2-0.5,0.4-0.7,0.7v2.9c0.2,0.3,0.4,0.4,0.6,0.6
			c0.2,0.1,0.5,0.2,0.8,0.2c0.6,0,1-0.2,1.3-0.6c0.3-0.4,0.5-1,0.5-1.7c0-0.4,0-0.7-0.1-1c-0.1-0.3-0.2-0.5-0.3-0.7
			s-0.3-0.3-0.5-0.4C267.2,38.8,267,38.8,266.7,38.8z"/>
		<path class="st2" d="M271.9,35.2v8.8h-1.1v-8.8H271.9z"/>
		<path class="st2" d="M275.2,36.1c0,0.1,0,0.2-0.1,0.3c0,0.1-0.1,0.2-0.2,0.2c-0.1,0.1-0.2,0.1-0.2,0.2s-0.2,0.1-0.3,0.1
			c-0.1,0-0.2,0-0.3-0.1s-0.2-0.1-0.2-0.2c-0.1-0.1-0.1-0.1-0.2-0.2c0-0.1-0.1-0.2-0.1-0.3s0-0.2,0.1-0.3c0-0.1,0.1-0.2,0.2-0.2
			c0.1-0.1,0.2-0.1,0.2-0.2s0.2-0.1,0.3-0.1c0.1,0,0.2,0,0.3,0.1s0.2,0.1,0.2,0.2c0.1,0.1,0.1,0.2,0.2,0.2
			C275.2,35.9,275.2,36,275.2,36.1z M275,38v6.1h-1.1V38H275z"/>
		<path class="st2" d="M281,39.1c0,0-0.1,0.1-0.1,0.1s-0.1,0-0.1,0c-0.1,0-0.1,0-0.2-0.1c-0.1,0-0.2-0.1-0.3-0.2
			c-0.1-0.1-0.2-0.1-0.4-0.2c-0.2,0-0.3-0.1-0.6-0.1c-0.3,0-0.6,0.1-0.8,0.2c-0.2,0.1-0.4,0.3-0.6,0.5c-0.2,0.2-0.3,0.4-0.3,0.7
			c-0.1,0.3-0.1,0.6-0.1,1c0,0.4,0,0.7,0.1,1s0.2,0.5,0.4,0.7c0.2,0.2,0.3,0.3,0.6,0.4c0.2,0.1,0.5,0.2,0.7,0.2c0.3,0,0.5,0,0.6-0.1
			s0.3-0.1,0.4-0.2c0.1-0.1,0.2-0.1,0.3-0.2c0.1-0.1,0.1-0.1,0.2-0.1c0.1,0,0.2,0,0.2,0.1l0.3,0.4c-0.3,0.3-0.6,0.6-1,0.7
			c-0.4,0.1-0.8,0.2-1.3,0.2c-0.4,0-0.7-0.1-1.1-0.2s-0.6-0.3-0.8-0.6s-0.4-0.6-0.6-1c-0.1-0.4-0.2-0.8-0.2-1.3
			c0-0.5,0.1-0.9,0.2-1.3c0.1-0.4,0.3-0.7,0.6-1c0.2-0.3,0.5-0.5,0.9-0.7c0.4-0.2,0.8-0.2,1.2-0.2c0.4,0,0.8,0.1,1.1,0.2
			c0.3,0.1,0.6,0.3,0.9,0.6L281,39.1z"/>
		<path class="st2" d="M284.9,37.9c0.4,0,0.8,0.1,1.2,0.2c0.4,0.1,0.7,0.4,0.9,0.6s0.4,0.6,0.6,1s0.2,0.8,0.2,1.3
			c0,0.5-0.1,0.9-0.2,1.3c-0.1,0.4-0.3,0.7-0.6,1c-0.2,0.3-0.6,0.5-0.9,0.6c-0.4,0.1-0.8,0.2-1.2,0.2c-0.4,0-0.8-0.1-1.2-0.2
			c-0.4-0.1-0.7-0.4-0.9-0.6c-0.3-0.3-0.4-0.6-0.6-1c-0.1-0.4-0.2-0.8-0.2-1.3c0-0.5,0.1-0.9,0.2-1.3c0.1-0.4,0.3-0.7,0.6-1
			c0.3-0.3,0.6-0.5,0.9-0.6C284.1,38,284.5,37.9,284.9,37.9z M284.9,43.3c0.6,0,1-0.2,1.3-0.6c0.3-0.4,0.4-1,0.4-1.7
			c0-0.7-0.1-1.3-0.4-1.7c-0.3-0.4-0.7-0.6-1.3-0.6c-0.3,0-0.6,0.1-0.8,0.2c-0.2,0.1-0.4,0.3-0.6,0.5c-0.2,0.2-0.3,0.4-0.3,0.7
			s-0.1,0.6-0.1,1c0,0.4,0,0.7,0.1,1c0.1,0.3,0.2,0.5,0.3,0.7c0.1,0.2,0.3,0.3,0.6,0.4C284.3,43.3,284.6,43.3,284.9,43.3z"/>
		<path class="st2" d="M292.6,39c0,0.1-0.1,0.1-0.2,0.1c-0.1,0-0.1,0-0.2-0.1c-0.1,0-0.2-0.1-0.3-0.1c-0.1-0.1-0.2-0.1-0.4-0.1
			c-0.2,0-0.3-0.1-0.5-0.1c-0.2,0-0.3,0-0.5,0.1c-0.1,0-0.3,0.1-0.4,0.2c-0.1,0.1-0.2,0.2-0.2,0.3c-0.1,0.1-0.1,0.2-0.1,0.3
			c0,0.2,0,0.3,0.1,0.4c0.1,0.1,0.2,0.2,0.4,0.3c0.1,0.1,0.3,0.1,0.5,0.2c0.2,0.1,0.4,0.1,0.6,0.2c0.2,0.1,0.4,0.1,0.6,0.2
			c0.2,0.1,0.4,0.2,0.5,0.3c0.1,0.1,0.3,0.3,0.4,0.4c0.1,0.2,0.1,0.4,0.1,0.6c0,0.3,0,0.5-0.2,0.8c-0.1,0.2-0.2,0.4-0.4,0.6
			c-0.2,0.2-0.4,0.3-0.7,0.4c-0.3,0.1-0.6,0.2-1,0.2c-0.4,0-0.8-0.1-1.2-0.2c-0.3-0.1-0.6-0.3-0.9-0.5l0.3-0.4
			c0-0.1,0.1-0.1,0.1-0.1s0.1,0,0.2,0s0.1,0,0.2,0.1c0.1,0.1,0.2,0.1,0.3,0.2c0.1,0.1,0.3,0.1,0.4,0.2c0.2,0.1,0.4,0.1,0.6,0.1
			c0.2,0,0.4,0,0.5-0.1c0.2-0.1,0.3-0.1,0.4-0.2c0.1-0.1,0.2-0.2,0.2-0.3s0.1-0.2,0.1-0.4c0-0.2,0-0.3-0.1-0.4
			c-0.1-0.1-0.2-0.2-0.4-0.3c-0.1-0.1-0.3-0.1-0.5-0.2c-0.2-0.1-0.4-0.1-0.6-0.2s-0.4-0.1-0.6-0.2s-0.4-0.2-0.5-0.3
			c-0.1-0.1-0.3-0.3-0.4-0.5s-0.1-0.4-0.1-0.7c0-0.2,0-0.5,0.1-0.7c0.1-0.2,0.2-0.4,0.4-0.6c0.2-0.2,0.4-0.3,0.7-0.4
			c0.3-0.1,0.6-0.1,0.9-0.1c0.4,0,0.8,0.1,1.1,0.2c0.3,0.1,0.6,0.3,0.8,0.5L292.6,39z"/>
	</g>
	<g>
		<path class="st2" d="M73.7,96.3v0.9h-4.1v2.9h3.3v0.9h-3.3v2.9h4.1v0.9h-5.3v-8.6H73.7z"/>
		<path class="st2" d="M78.7,99.8c0,0.1-0.1,0.1-0.2,0.1c-0.1,0-0.1,0-0.2-0.1c-0.1,0-0.2-0.1-0.3-0.1c-0.1-0.1-0.2-0.1-0.4-0.1
			c-0.2,0-0.3-0.1-0.5-0.1c-0.2,0-0.3,0-0.5,0.1c-0.1,0-0.3,0.1-0.4,0.2c-0.1,0.1-0.2,0.2-0.2,0.3c-0.1,0.1-0.1,0.2-0.1,0.3
			c0,0.2,0,0.3,0.1,0.4c0.1,0.1,0.2,0.2,0.4,0.3s0.3,0.1,0.5,0.2c0.2,0.1,0.4,0.1,0.6,0.2c0.2,0.1,0.4,0.1,0.6,0.2s0.4,0.2,0.5,0.3
			c0.1,0.1,0.3,0.3,0.4,0.4c0.1,0.2,0.1,0.4,0.1,0.6c0,0.3-0.1,0.5-0.2,0.8c-0.1,0.2-0.2,0.4-0.4,0.6c-0.2,0.2-0.4,0.3-0.7,0.4
			c-0.3,0.1-0.6,0.2-1,0.2c-0.4,0-0.8-0.1-1.2-0.2c-0.3-0.1-0.6-0.3-0.9-0.5l0.3-0.4c0-0.1,0.1-0.1,0.1-0.1s0.1,0,0.2,0
			c0.1,0,0.1,0,0.2,0.1c0.1,0.1,0.2,0.1,0.3,0.2c0.1,0.1,0.3,0.1,0.4,0.2c0.2,0.1,0.4,0.1,0.6,0.1c0.2,0,0.4,0,0.5-0.1
			c0.2-0.1,0.3-0.1,0.4-0.2c0.1-0.1,0.2-0.2,0.2-0.3c0-0.1,0.1-0.2,0.1-0.4c0-0.2,0-0.3-0.1-0.4c-0.1-0.1-0.2-0.2-0.4-0.3
			s-0.3-0.1-0.5-0.2c-0.2-0.1-0.4-0.1-0.6-0.2c-0.2-0.1-0.4-0.1-0.6-0.2c-0.2-0.1-0.4-0.2-0.5-0.3s-0.3-0.3-0.4-0.5
			s-0.1-0.4-0.1-0.7c0-0.2,0-0.5,0.1-0.7c0.1-0.2,0.2-0.4,0.4-0.6c0.2-0.2,0.4-0.3,0.7-0.4c0.3-0.1,0.6-0.1,0.9-0.1
			c0.4,0,0.8,0.1,1.1,0.2s0.6,0.3,0.8,0.5L78.7,99.8z"/>
		<path class="st2" d="M82.3,105c-0.5,0-0.8-0.1-1.1-0.4c-0.3-0.3-0.4-0.7-0.4-1.2v-3.7H80c-0.1,0-0.1,0-0.2-0.1
			c0,0-0.1-0.1-0.1-0.2V99l1-0.1l0.2-1.9c0-0.1,0-0.1,0.1-0.1s0.1-0.1,0.2-0.1h0.5v2.1h1.7v0.8h-1.7v3.6c0,0.3,0.1,0.4,0.2,0.6
			s0.3,0.2,0.5,0.2c0.1,0,0.2,0,0.3,0c0.1,0,0.2-0.1,0.2-0.1c0.1,0,0.1-0.1,0.2-0.1c0,0,0.1,0,0.1,0c0.1,0,0.1,0,0.1,0.1l0.3,0.5
			c-0.2,0.2-0.4,0.3-0.7,0.4C82.8,104.9,82.5,105,82.3,105z"/>
		<path class="st2" d="M89.4,104.9h-0.5c-0.1,0-0.2,0-0.3,0c-0.1,0-0.1-0.1-0.1-0.2l-0.1-0.6c-0.2,0.1-0.3,0.3-0.5,0.4
			c-0.2,0.1-0.3,0.2-0.5,0.3s-0.3,0.1-0.5,0.2s-0.4,0.1-0.6,0.1c-0.2,0-0.5,0-0.7-0.1c-0.2-0.1-0.4-0.2-0.5-0.3
			c-0.2-0.1-0.3-0.3-0.4-0.5s-0.1-0.4-0.1-0.7c0-0.2,0.1-0.5,0.2-0.7s0.3-0.4,0.6-0.6c0.3-0.2,0.7-0.3,1.2-0.4s1.1-0.2,1.7-0.2V101
			c0-0.5-0.1-0.8-0.3-1.1c-0.2-0.2-0.5-0.4-0.9-0.4c-0.3,0-0.5,0-0.7,0.1c-0.2,0.1-0.3,0.1-0.5,0.2c-0.1,0.1-0.2,0.2-0.3,0.2
			c-0.1,0.1-0.2,0.1-0.3,0.1c-0.1,0-0.1,0-0.2-0.1s-0.1-0.1-0.1-0.1l-0.2-0.3c0.3-0.3,0.7-0.6,1.1-0.7c0.4-0.2,0.8-0.2,1.3-0.2
			c0.3,0,0.6,0.1,0.9,0.2c0.3,0.1,0.5,0.3,0.7,0.5c0.2,0.2,0.3,0.4,0.4,0.7c0.1,0.3,0.1,0.6,0.1,0.9V104.9z M86.6,104.2
			c0.2,0,0.4,0,0.5-0.1c0.2,0,0.3-0.1,0.4-0.2c0.1-0.1,0.3-0.2,0.4-0.3s0.2-0.2,0.4-0.3v-1.3c-0.5,0-0.9,0-1.3,0.1
			c-0.3,0.1-0.6,0.1-0.8,0.2c-0.2,0.1-0.4,0.2-0.5,0.4c-0.1,0.1-0.1,0.3-0.1,0.5c0,0.2,0,0.3,0.1,0.4c0.1,0.1,0.1,0.2,0.2,0.3
			c0.1,0.1,0.2,0.1,0.3,0.2C86.3,104.2,86.5,104.2,86.6,104.2z"/>
		<path class="st2" d="M91,104.9V96h1.1v3.6c0.3-0.3,0.5-0.5,0.9-0.7c0.3-0.2,0.7-0.3,1.1-0.3c0.4,0,0.7,0.1,1,0.2
			c0.3,0.1,0.5,0.3,0.7,0.6c0.2,0.3,0.4,0.6,0.5,1c0.1,0.4,0.2,0.8,0.2,1.3c0,0.4-0.1,0.9-0.2,1.3c-0.1,0.4-0.3,0.7-0.5,1
			c-0.2,0.3-0.5,0.5-0.8,0.7c-0.3,0.2-0.7,0.2-1.1,0.2c-0.4,0-0.7-0.1-1-0.2s-0.5-0.4-0.7-0.6l-0.1,0.6c0,0.2-0.1,0.2-0.3,0.2H91z
			 M93.7,99.6c-0.3,0-0.7,0.1-0.9,0.2c-0.3,0.2-0.5,0.4-0.7,0.7v2.9c0.2,0.3,0.4,0.4,0.6,0.6c0.2,0.1,0.5,0.2,0.8,0.2
			c0.6,0,1-0.2,1.3-0.6c0.3-0.4,0.5-1,0.5-1.7c0-0.4,0-0.7-0.1-1c-0.1-0.3-0.2-0.5-0.3-0.7c-0.1-0.2-0.3-0.3-0.5-0.4
			C94.2,99.6,94,99.6,93.7,99.6z"/>
		<path class="st2" d="M100.1,98.7c0.4,0,0.7,0.1,1,0.2c0.3,0.1,0.6,0.3,0.8,0.5s0.4,0.5,0.5,0.9s0.2,0.7,0.2,1.2
			c0,0.2,0,0.3-0.1,0.3c0,0.1-0.1,0.1-0.2,0.1h-4c0,0.4,0.1,0.7,0.2,1c0.1,0.3,0.2,0.5,0.4,0.7c0.2,0.2,0.4,0.3,0.6,0.4
			c0.2,0.1,0.5,0.1,0.8,0.1c0.3,0,0.5,0,0.7-0.1s0.4-0.1,0.5-0.2c0.1-0.1,0.3-0.1,0.4-0.2c0.1-0.1,0.2-0.1,0.2-0.1
			c0.1,0,0.2,0,0.2,0.1l0.3,0.4c-0.1,0.2-0.3,0.3-0.5,0.4c-0.2,0.1-0.4,0.2-0.6,0.3c-0.2,0.1-0.4,0.1-0.7,0.2
			c-0.2,0-0.4,0.1-0.7,0.1c-0.4,0-0.8-0.1-1.2-0.2c-0.4-0.1-0.7-0.4-0.9-0.6c-0.3-0.3-0.5-0.6-0.6-1c-0.1-0.4-0.2-0.9-0.2-1.4
			c0-0.4,0.1-0.8,0.2-1.2c0.1-0.4,0.3-0.7,0.6-1c0.2-0.3,0.5-0.5,0.9-0.6C99.3,98.8,99.7,98.7,100.1,98.7z M100.1,99.5
			c-0.5,0-0.9,0.1-1.2,0.4s-0.5,0.7-0.6,1.2h3.3c0-0.2,0-0.5-0.1-0.7c-0.1-0.2-0.2-0.4-0.3-0.5s-0.3-0.3-0.5-0.3
			S100.4,99.5,100.1,99.5z"/>
		<path class="st2" d="M105.2,96v8.8h-1.1V96H105.2z"/>
		<path class="st2" d="M109.5,98.7c0.4,0,0.7,0.1,1,0.2c0.3,0.1,0.6,0.3,0.8,0.5s0.4,0.5,0.5,0.9s0.2,0.7,0.2,1.2
			c0,0.2,0,0.3-0.1,0.3c0,0.1-0.1,0.1-0.2,0.1h-4c0,0.4,0.1,0.7,0.2,1c0.1,0.3,0.2,0.5,0.4,0.7c0.2,0.2,0.4,0.3,0.6,0.4
			c0.2,0.1,0.5,0.1,0.8,0.1c0.3,0,0.5,0,0.7-0.1s0.4-0.1,0.5-0.2c0.1-0.1,0.3-0.1,0.4-0.2c0.1-0.1,0.2-0.1,0.2-0.1
			c0.1,0,0.2,0,0.2,0.1l0.3,0.4c-0.1,0.2-0.3,0.3-0.5,0.4c-0.2,0.1-0.4,0.2-0.6,0.3c-0.2,0.1-0.4,0.1-0.7,0.2
			c-0.2,0-0.4,0.1-0.7,0.1c-0.4,0-0.8-0.1-1.2-0.2c-0.4-0.1-0.7-0.4-0.9-0.6c-0.3-0.3-0.5-0.6-0.6-1c-0.1-0.4-0.2-0.9-0.2-1.4
			c0-0.4,0.1-0.8,0.2-1.2c0.1-0.4,0.3-0.7,0.6-1c0.2-0.3,0.5-0.5,0.9-0.6C108.6,98.8,109,98.7,109.5,98.7z M109.5,99.5
			c-0.5,0-0.9,0.1-1.2,0.4s-0.5,0.7-0.6,1.2h3.3c0-0.2,0-0.5-0.1-0.7c-0.1-0.2-0.2-0.4-0.3-0.5s-0.3-0.3-0.5-0.3
			S109.7,99.5,109.5,99.5z"/>
		<path class="st2" d="M117.5,99.9c0,0-0.1,0.1-0.1,0.1c0,0-0.1,0-0.1,0s-0.1,0-0.2-0.1c-0.1,0-0.2-0.1-0.3-0.2
			c-0.1-0.1-0.2-0.1-0.4-0.2c-0.2,0-0.3-0.1-0.6-0.1c-0.3,0-0.6,0.1-0.8,0.2s-0.4,0.3-0.6,0.5c-0.2,0.2-0.3,0.4-0.3,0.7
			c-0.1,0.3-0.1,0.6-0.1,1c0,0.4,0,0.7,0.1,1s0.2,0.5,0.4,0.7c0.2,0.2,0.3,0.3,0.6,0.4c0.2,0.1,0.5,0.2,0.7,0.2c0.3,0,0.5,0,0.6-0.1
			s0.3-0.1,0.4-0.2s0.2-0.1,0.3-0.2c0.1-0.1,0.1-0.1,0.2-0.1c0.1,0,0.2,0,0.2,0.1l0.3,0.4c-0.3,0.3-0.6,0.6-1,0.7s-0.8,0.2-1.3,0.2
			c-0.4,0-0.7-0.1-1.1-0.2s-0.6-0.3-0.8-0.6c-0.2-0.3-0.4-0.6-0.6-1c-0.1-0.4-0.2-0.8-0.2-1.3c0-0.5,0.1-0.9,0.2-1.3
			c0.1-0.4,0.3-0.7,0.6-1c0.2-0.3,0.5-0.5,0.9-0.7c0.4-0.2,0.8-0.2,1.2-0.2c0.4,0,0.8,0.1,1.1,0.2c0.3,0.1,0.6,0.3,0.9,0.6
			L117.5,99.9z"/>
		<path class="st2" d="M120.4,96.9c0,0.1,0,0.2-0.1,0.3c0,0.1-0.1,0.2-0.2,0.2c-0.1,0.1-0.2,0.1-0.2,0.2c-0.1,0-0.2,0.1-0.3,0.1
			s-0.2,0-0.3-0.1c-0.1,0-0.2-0.1-0.2-0.2c-0.1-0.1-0.1-0.1-0.2-0.2c0-0.1-0.1-0.2-0.1-0.3s0-0.2,0.1-0.3c0-0.1,0.1-0.2,0.2-0.2
			c0.1-0.1,0.1-0.1,0.2-0.2c0.1,0,0.2-0.1,0.3-0.1s0.2,0,0.3,0.1c0.1,0,0.2,0.1,0.2,0.2c0.1,0.1,0.1,0.2,0.2,0.2
			C120.4,96.7,120.4,96.8,120.4,96.9z M120.1,98.8v6.1h-1.1v-6.1H120.1z"/>
		<path class="st2" d="M122,104.9v-6.1h0.6c0.2,0,0.2,0.1,0.3,0.2l0.1,0.6c0.2-0.3,0.5-0.5,0.8-0.7c0.3-0.2,0.6-0.3,1-0.3
			c0.4,0,0.7,0.1,1,0.3c0.3,0.2,0.4,0.5,0.5,0.9c0.1-0.2,0.2-0.4,0.3-0.6c0.1-0.2,0.3-0.3,0.5-0.4c0.2-0.1,0.4-0.2,0.5-0.2
			c0.2,0,0.4-0.1,0.6-0.1c0.3,0,0.6,0.1,0.9,0.2s0.5,0.3,0.6,0.4c0.2,0.2,0.3,0.4,0.4,0.7c0.1,0.3,0.1,0.6,0.1,1v3.9h-1.1V101
			c0-0.5-0.1-0.8-0.3-1.1s-0.5-0.4-0.9-0.4c-0.2,0-0.3,0-0.5,0.1c-0.2,0.1-0.3,0.2-0.4,0.3c-0.1,0.1-0.2,0.3-0.3,0.5
			s-0.1,0.4-0.1,0.6v3.9h-1.1V101c0-0.5-0.1-0.9-0.3-1.1c-0.2-0.2-0.5-0.4-0.9-0.4c-0.3,0-0.5,0.1-0.7,0.2s-0.4,0.3-0.6,0.6v4.5H122
			z"/>
		<path class="st2" d="M134.3,98.7c0.4,0,0.7,0.1,1,0.2c0.3,0.1,0.6,0.3,0.8,0.5s0.4,0.5,0.5,0.9s0.2,0.7,0.2,1.2
			c0,0.2,0,0.3-0.1,0.3c0,0.1-0.1,0.1-0.2,0.1h-4c0,0.4,0.1,0.7,0.2,1c0.1,0.3,0.2,0.5,0.4,0.7c0.2,0.2,0.4,0.3,0.6,0.4
			c0.2,0.1,0.5,0.1,0.8,0.1c0.3,0,0.5,0,0.7-0.1s0.4-0.1,0.5-0.2c0.1-0.1,0.3-0.1,0.4-0.2c0.1-0.1,0.2-0.1,0.2-0.1
			c0.1,0,0.2,0,0.2,0.1l0.3,0.4c-0.1,0.2-0.3,0.3-0.5,0.4c-0.2,0.1-0.4,0.2-0.6,0.3c-0.2,0.1-0.4,0.1-0.7,0.2
			c-0.2,0-0.4,0.1-0.7,0.1c-0.4,0-0.8-0.1-1.2-0.2c-0.4-0.1-0.7-0.4-0.9-0.6c-0.3-0.3-0.5-0.6-0.6-1c-0.1-0.4-0.2-0.9-0.2-1.4
			c0-0.4,0.1-0.8,0.2-1.2c0.1-0.4,0.3-0.7,0.6-1c0.2-0.3,0.5-0.5,0.9-0.6C133.4,98.8,133.8,98.7,134.3,98.7z M134.3,99.5
			c-0.5,0-0.9,0.1-1.2,0.4s-0.5,0.7-0.6,1.2h3.3c0-0.2,0-0.5-0.1-0.7c-0.1-0.2-0.2-0.4-0.3-0.5s-0.3-0.3-0.5-0.3
			S134.5,99.5,134.3,99.5z"/>
		<path class="st2" d="M138.2,104.9v-6.1h0.6c0.2,0,0.2,0.1,0.3,0.2l0.1,0.7c0.3-0.3,0.6-0.5,0.9-0.7c0.3-0.2,0.7-0.3,1.1-0.3
			c0.3,0,0.6,0.1,0.9,0.2c0.3,0.1,0.5,0.3,0.6,0.5s0.3,0.4,0.4,0.7c0.1,0.3,0.1,0.6,0.1,0.9v3.9h-1.1V101c0-0.5-0.1-0.8-0.3-1.1
			c-0.2-0.3-0.5-0.4-1-0.4c-0.3,0-0.6,0.1-0.9,0.2c-0.3,0.2-0.5,0.4-0.8,0.6v4.5H138.2z"/>
		<path class="st2" d="M146.7,105c-0.5,0-0.8-0.1-1.1-0.4c-0.3-0.3-0.4-0.7-0.4-1.2v-3.7h-0.7c-0.1,0-0.1,0-0.2-0.1
			c0,0-0.1-0.1-0.1-0.2V99l1-0.1l0.2-1.9c0-0.1,0-0.1,0.1-0.1s0.1-0.1,0.2-0.1h0.5v2.1h1.7v0.8h-1.7v3.6c0,0.3,0.1,0.4,0.2,0.6
			s0.3,0.2,0.5,0.2c0.1,0,0.2,0,0.3,0c0.1,0,0.2-0.1,0.2-0.1c0.1,0,0.1-0.1,0.2-0.1c0,0,0.1,0,0.1,0c0.1,0,0.1,0,0.1,0.1l0.3,0.5
			c-0.2,0.2-0.4,0.3-0.7,0.4C147.2,104.9,146.9,105,146.7,105z"/>
		<path class="st2" d="M151.8,98.7c0.4,0,0.8,0.1,1.2,0.2s0.7,0.4,0.9,0.6s0.4,0.6,0.6,1c0.1,0.4,0.2,0.8,0.2,1.3
			c0,0.5-0.1,0.9-0.2,1.3c-0.1,0.4-0.3,0.7-0.6,1c-0.2,0.3-0.6,0.5-0.9,0.6c-0.4,0.1-0.8,0.2-1.2,0.2s-0.8-0.1-1.2-0.2
			c-0.4-0.1-0.7-0.4-0.9-0.6c-0.3-0.3-0.4-0.6-0.6-1c-0.1-0.4-0.2-0.8-0.2-1.3c0-0.5,0.1-0.9,0.2-1.3c0.1-0.4,0.3-0.7,0.6-1
			c0.3-0.3,0.6-0.5,0.9-0.6S151.3,98.7,151.8,98.7z M151.8,104.1c0.6,0,1-0.2,1.3-0.6c0.3-0.4,0.4-1,0.4-1.7c0-0.7-0.1-1.3-0.4-1.7
			c-0.3-0.4-0.7-0.6-1.3-0.6c-0.3,0-0.6,0.1-0.8,0.2c-0.2,0.1-0.4,0.3-0.6,0.5c-0.1,0.2-0.3,0.4-0.3,0.7s-0.1,0.6-0.1,1
			c0,0.4,0,0.7,0.1,1c0.1,0.3,0.2,0.5,0.3,0.7s0.3,0.3,0.6,0.4S151.5,104.1,151.8,104.1z"/>
		<path class="st2" d="M159.5,99.8c0,0.1-0.1,0.1-0.2,0.1c-0.1,0-0.1,0-0.2-0.1c-0.1,0-0.2-0.1-0.3-0.1c-0.1-0.1-0.2-0.1-0.4-0.1
			c-0.2,0-0.3-0.1-0.5-0.1c-0.2,0-0.3,0-0.5,0.1c-0.1,0-0.3,0.1-0.4,0.2c-0.1,0.1-0.2,0.2-0.2,0.3c-0.1,0.1-0.1,0.2-0.1,0.3
			c0,0.2,0,0.3,0.1,0.4c0.1,0.1,0.2,0.2,0.4,0.3s0.3,0.1,0.5,0.2c0.2,0.1,0.4,0.1,0.6,0.2c0.2,0.1,0.4,0.1,0.6,0.2s0.4,0.2,0.5,0.3
			c0.1,0.1,0.3,0.3,0.4,0.4c0.1,0.2,0.1,0.4,0.1,0.6c0,0.3-0.1,0.5-0.2,0.8c-0.1,0.2-0.2,0.4-0.4,0.6c-0.2,0.2-0.4,0.3-0.7,0.4
			c-0.3,0.1-0.6,0.2-1,0.2c-0.4,0-0.8-0.1-1.2-0.2c-0.3-0.1-0.6-0.3-0.9-0.5l0.3-0.4c0-0.1,0.1-0.1,0.1-0.1s0.1,0,0.2,0
			c0.1,0,0.1,0,0.2,0.1c0.1,0.1,0.2,0.1,0.3,0.2c0.1,0.1,0.3,0.1,0.4,0.2c0.2,0.1,0.4,0.1,0.6,0.1c0.2,0,0.4,0,0.5-0.1
			c0.2-0.1,0.3-0.1,0.4-0.2c0.1-0.1,0.2-0.2,0.2-0.3c0-0.1,0.1-0.2,0.1-0.4c0-0.2,0-0.3-0.1-0.4c-0.1-0.1-0.2-0.2-0.4-0.3
			s-0.3-0.1-0.5-0.2c-0.2-0.1-0.4-0.1-0.6-0.2c-0.2-0.1-0.4-0.1-0.6-0.2c-0.2-0.1-0.4-0.2-0.5-0.3s-0.3-0.3-0.4-0.5
			s-0.1-0.4-0.1-0.7c0-0.2,0-0.5,0.1-0.7c0.1-0.2,0.2-0.4,0.4-0.6c0.2-0.2,0.4-0.3,0.7-0.4c0.3-0.1,0.6-0.1,0.9-0.1
			c0.4,0,0.8,0.1,1.1,0.2s0.6,0.3,0.8,0.5L159.5,99.8z"/>
		<path class="st2" d="M167.8,104.9c-0.2,0-0.2-0.1-0.3-0.2l-0.1-0.7c-0.3,0.3-0.6,0.6-0.9,0.8c-0.3,0.2-0.7,0.3-1.1,0.3
			c-0.3,0-0.7-0.1-0.9-0.2c-0.3-0.1-0.5-0.3-0.7-0.6c-0.2-0.3-0.4-0.6-0.5-1c-0.1-0.4-0.2-0.8-0.2-1.3c0-0.4,0.1-0.9,0.2-1.3
			c0.1-0.4,0.3-0.7,0.5-1s0.5-0.5,0.8-0.7c0.3-0.2,0.7-0.2,1.1-0.2c0.4,0,0.7,0.1,1,0.2c0.3,0.1,0.5,0.3,0.7,0.5V96h1.1v8.8H167.8z
			 M165.7,104.1c0.3,0,0.7-0.1,0.9-0.2c0.3-0.2,0.5-0.4,0.7-0.7v-2.9c-0.2-0.3-0.4-0.4-0.6-0.6c-0.2-0.1-0.5-0.2-0.8-0.2
			c-0.6,0-1,0.2-1.3,0.6c-0.3,0.4-0.5,1-0.5,1.7c0,0.4,0,0.7,0.1,1c0.1,0.3,0.2,0.5,0.3,0.7c0.1,0.2,0.3,0.3,0.5,0.4
			C165.2,104.1,165.5,104.1,165.7,104.1z"/>
		<path class="st2" d="M172.6,98.7c0.4,0,0.7,0.1,1,0.2c0.3,0.1,0.6,0.3,0.8,0.5s0.4,0.5,0.5,0.9s0.2,0.7,0.2,1.2
			c0,0.2,0,0.3-0.1,0.3c0,0.1-0.1,0.1-0.2,0.1h-4c0,0.4,0.1,0.7,0.2,1c0.1,0.3,0.2,0.5,0.4,0.7c0.2,0.2,0.4,0.3,0.6,0.4
			c0.2,0.1,0.5,0.1,0.8,0.1c0.3,0,0.5,0,0.7-0.1s0.4-0.1,0.5-0.2c0.1-0.1,0.3-0.1,0.4-0.2c0.1-0.1,0.2-0.1,0.2-0.1
			c0.1,0,0.2,0,0.2,0.1l0.3,0.4c-0.1,0.2-0.3,0.3-0.5,0.4c-0.2,0.1-0.4,0.2-0.6,0.3c-0.2,0.1-0.4,0.1-0.7,0.2
			c-0.2,0-0.4,0.1-0.7,0.1c-0.4,0-0.8-0.1-1.2-0.2c-0.4-0.1-0.7-0.4-0.9-0.6c-0.3-0.3-0.5-0.6-0.6-1c-0.1-0.4-0.2-0.9-0.2-1.4
			c0-0.4,0.1-0.8,0.2-1.2c0.1-0.4,0.3-0.7,0.6-1c0.2-0.3,0.5-0.5,0.9-0.6C171.8,98.8,172.2,98.7,172.6,98.7z M172.6,99.5
			c-0.5,0-0.9,0.1-1.2,0.4s-0.5,0.7-0.6,1.2h3.3c0-0.2,0-0.5-0.1-0.7c-0.1-0.2-0.2-0.4-0.3-0.5s-0.3-0.3-0.5-0.3
			S172.9,99.5,172.6,99.5z"/>
		<path class="st2" d="M65.3,121.3v-8.1H66c0.2,0,0.2,0.1,0.3,0.2l0.1,0.7c0.3-0.3,0.6-0.6,0.9-0.8s0.7-0.3,1.2-0.3
			c0.3,0,0.7,0.1,0.9,0.2c0.3,0.1,0.5,0.3,0.7,0.6c0.2,0.3,0.4,0.6,0.5,1c0.1,0.4,0.2,0.8,0.2,1.3c0,0.4-0.1,0.9-0.2,1.3
			c-0.1,0.4-0.3,0.7-0.5,1c-0.2,0.3-0.5,0.5-0.8,0.7c-0.3,0.2-0.7,0.2-1.1,0.2c-0.4,0-0.7-0.1-1-0.2s-0.5-0.3-0.7-0.5v2.7H65.3z
			 M68,114c-0.3,0-0.7,0.1-0.9,0.2c-0.3,0.2-0.5,0.4-0.7,0.7v2.9c0.2,0.3,0.4,0.4,0.6,0.6c0.2,0.1,0.5,0.2,0.8,0.2
			c0.6,0,1-0.2,1.3-0.6c0.3-0.4,0.5-1,0.5-1.7c0-0.4,0-0.7-0.1-1c-0.1-0.3-0.2-0.5-0.3-0.7c-0.1-0.2-0.3-0.3-0.5-0.4
			C68.5,114,68.3,114,68,114z"/>
		<path class="st2" d="M71.9,119.3v-6.1h0.6c0.1,0,0.2,0,0.2,0.1c0,0,0.1,0.1,0.1,0.2l0.1,0.9c0.2-0.4,0.5-0.8,0.8-1
			c0.3-0.2,0.7-0.4,1.1-0.4c0.2,0,0.3,0,0.5,0.1c0.1,0,0.3,0.1,0.4,0.2l-0.1,0.8c0,0.1-0.1,0.1-0.2,0.1c-0.1,0-0.1,0-0.3-0.1
			c-0.1,0-0.3-0.1-0.5-0.1c-0.4,0-0.7,0.1-0.9,0.3s-0.5,0.5-0.6,0.9v3.9H71.9z"/>
		<path class="st2" d="M79.2,113.1c0.4,0,0.8,0.1,1.2,0.2s0.7,0.4,0.9,0.6s0.4,0.6,0.6,1c0.1,0.4,0.2,0.8,0.2,1.3
			c0,0.5-0.1,0.9-0.2,1.3c-0.1,0.4-0.3,0.7-0.6,1s-0.6,0.5-0.9,0.6s-0.8,0.2-1.2,0.2s-0.8-0.1-1.2-0.2s-0.7-0.4-0.9-0.6
			c-0.3-0.3-0.4-0.6-0.6-1c-0.1-0.4-0.2-0.8-0.2-1.3c0-0.5,0.1-0.9,0.2-1.3c0.1-0.4,0.3-0.7,0.6-1c0.3-0.3,0.6-0.5,0.9-0.6
			S78.8,113.1,79.2,113.1z M79.2,118.5c0.6,0,1-0.2,1.3-0.6c0.3-0.4,0.4-1,0.4-1.7c0-0.7-0.1-1.3-0.4-1.7c-0.3-0.4-0.7-0.6-1.3-0.6
			c-0.3,0-0.6,0.1-0.8,0.2c-0.2,0.1-0.4,0.3-0.6,0.5c-0.1,0.2-0.3,0.4-0.3,0.7s-0.1,0.6-0.1,1c0,0.4,0,0.7,0.1,1
			c0.1,0.3,0.2,0.5,0.3,0.7c0.1,0.2,0.3,0.3,0.6,0.4C78.7,118.5,78.9,118.5,79.2,118.5z"/>
		<path class="st2" d="M87.7,119.3c-0.2,0-0.2-0.1-0.3-0.2l-0.1-0.7c-0.3,0.3-0.6,0.6-0.9,0.8c-0.3,0.2-0.7,0.3-1.1,0.3
			c-0.3,0-0.7-0.1-0.9-0.2c-0.3-0.1-0.5-0.3-0.7-0.6c-0.2-0.3-0.4-0.6-0.5-1c-0.1-0.4-0.2-0.8-0.2-1.3c0-0.4,0.1-0.9,0.2-1.3
			c0.1-0.4,0.3-0.7,0.5-1s0.5-0.5,0.8-0.7c0.3-0.2,0.7-0.2,1.1-0.2c0.4,0,0.7,0.1,1,0.2c0.3,0.1,0.5,0.3,0.7,0.5v-3.4h1.1v8.8H87.7z
			 M85.7,118.5c0.3,0,0.7-0.1,0.9-0.2c0.3-0.2,0.5-0.4,0.7-0.7v-2.9c-0.2-0.3-0.4-0.4-0.6-0.6c-0.2-0.1-0.5-0.2-0.8-0.2
			c-0.6,0-1,0.2-1.3,0.6c-0.3,0.4-0.5,1-0.5,1.7c0,0.4,0,0.7,0.1,1c0.1,0.3,0.2,0.5,0.3,0.7s0.3,0.3,0.5,0.4
			C85.2,118.5,85.4,118.5,85.7,118.5z"/>
		<path class="st2" d="M91.1,113.2v3.9c0,0.5,0.1,0.8,0.3,1.1c0.2,0.3,0.5,0.4,1,0.4c0.3,0,0.6-0.1,0.9-0.2c0.3-0.1,0.5-0.4,0.8-0.6
			v-4.5h1.1v6.1h-0.6c-0.2,0-0.2-0.1-0.3-0.2l-0.1-0.7c-0.3,0.3-0.6,0.5-0.9,0.7s-0.7,0.3-1.1,0.3c-0.3,0-0.6-0.1-0.9-0.2
			c-0.3-0.1-0.5-0.3-0.6-0.5c-0.2-0.2-0.3-0.4-0.4-0.7c-0.1-0.3-0.1-0.6-0.1-0.9v-3.9H91.1z"/>
		<path class="st2" d="M98.4,120.8C98.4,120.8,98.4,120.8,98.4,120.8c0.1,0,0.2,0.1,0.2,0.1c0,0,0.1,0,0.2,0c0.1,0,0.1,0,0.2,0
			c0.2,0,0.3,0,0.4-0.1c0.1-0.1,0.1-0.2,0.1-0.3c0-0.1,0-0.1-0.1-0.2s-0.1-0.1-0.2-0.1s-0.2-0.1-0.3-0.1c-0.1,0-0.3,0-0.4-0.1
			l0.2-0.7c-0.3,0-0.6-0.1-0.9-0.3c-0.3-0.2-0.5-0.4-0.7-0.6c-0.2-0.3-0.4-0.6-0.5-0.9c-0.1-0.4-0.2-0.8-0.2-1.2s0.1-0.9,0.2-1.3
			c0.1-0.4,0.3-0.7,0.6-1c0.2-0.3,0.5-0.5,0.9-0.7c0.4-0.2,0.8-0.2,1.2-0.2c0.4,0,0.8,0.1,1.1,0.2c0.3,0.1,0.6,0.3,0.9,0.6l-0.3,0.4
			c0,0-0.1,0.1-0.1,0.1c0,0-0.1,0-0.1,0s-0.1,0-0.2-0.1c-0.1,0-0.2-0.1-0.3-0.2c-0.1-0.1-0.2-0.1-0.4-0.2c-0.2,0-0.3-0.1-0.6-0.1
			c-0.3,0-0.6,0.1-0.8,0.2s-0.4,0.3-0.6,0.5c-0.2,0.2-0.3,0.4-0.3,0.7c-0.1,0.3-0.1,0.6-0.1,1c0,0.4,0,0.7,0.1,1s0.2,0.5,0.4,0.7
			c0.2,0.2,0.3,0.3,0.6,0.4c0.2,0.1,0.5,0.2,0.7,0.2c0.3,0,0.5,0,0.6-0.1c0.2-0.1,0.3-0.1,0.4-0.2s0.2-0.1,0.3-0.2
			c0.1-0.1,0.1-0.1,0.2-0.1c0,0,0.1,0,0.1,0s0.1,0,0.1,0.1l0.3,0.4c-0.2,0.3-0.5,0.5-0.9,0.7c-0.3,0.1-0.7,0.2-1.1,0.3l-0.1,0.3
			c0.4,0.1,0.6,0.2,0.8,0.3c0.2,0.1,0.2,0.3,0.2,0.5c0,0.1,0,0.2-0.1,0.3c-0.1,0.1-0.2,0.2-0.3,0.3c-0.1,0.1-0.3,0.1-0.4,0.2
			s-0.3,0.1-0.5,0.1c-0.2,0-0.3,0-0.5-0.1c-0.1,0-0.3-0.1-0.4-0.1l0.1-0.3C98.2,120.8,98.3,120.8,98.4,120.8z"/>
		<path class="st2" d="M106.9,119.3h-0.5c-0.1,0-0.2,0-0.3,0s-0.1-0.1-0.1-0.2l-0.1-0.6c-0.2,0.1-0.3,0.3-0.5,0.4s-0.3,0.2-0.5,0.3
			s-0.3,0.1-0.5,0.2s-0.4,0.1-0.6,0.1c-0.2,0-0.5,0-0.7-0.1s-0.4-0.2-0.5-0.3c-0.2-0.1-0.3-0.3-0.4-0.5c-0.1-0.2-0.1-0.4-0.1-0.7
			c0-0.2,0.1-0.5,0.2-0.7s0.3-0.4,0.6-0.6c0.3-0.2,0.7-0.3,1.2-0.4s1.1-0.2,1.7-0.2v-0.5c0-0.5-0.1-0.8-0.3-1.1
			c-0.2-0.2-0.5-0.4-0.9-0.4c-0.3,0-0.5,0-0.7,0.1c-0.2,0.1-0.3,0.1-0.5,0.2c-0.1,0.1-0.2,0.2-0.3,0.2c-0.1,0.1-0.2,0.1-0.3,0.1
			c-0.1,0-0.1,0-0.2-0.1s-0.1-0.1-0.1-0.1l-0.2-0.3c0.3-0.3,0.7-0.6,1.1-0.7c0.4-0.2,0.8-0.2,1.3-0.2c0.3,0,0.6,0.1,0.9,0.2
			c0.3,0.1,0.5,0.3,0.7,0.5c0.2,0.2,0.3,0.4,0.4,0.7c0.1,0.3,0.1,0.6,0.1,0.9V119.3z M105.4,111.3c0.1,0,0.3,0,0.3-0.1
			c0.1-0.1,0.1-0.2,0.1-0.4h0.6c0,0.2,0,0.4-0.1,0.5c0,0.2-0.1,0.3-0.2,0.4c-0.1,0.1-0.2,0.2-0.3,0.3c-0.1,0.1-0.3,0.1-0.4,0.1
			c-0.1,0-0.3,0-0.4-0.1s-0.2-0.1-0.3-0.2c-0.1-0.1-0.2-0.1-0.3-0.2c-0.1-0.1-0.2-0.1-0.3-0.1c-0.3,0-0.4,0.2-0.4,0.5H103
			c0-0.2,0-0.4,0.1-0.5c0.1-0.2,0.1-0.3,0.2-0.4c0.1-0.1,0.2-0.2,0.3-0.3c0.1-0.1,0.3-0.1,0.4-0.1c0.1,0,0.3,0,0.4,0.1
			s0.2,0.1,0.3,0.2c0.1,0.1,0.2,0.1,0.3,0.2C105.2,111.3,105.3,111.3,105.4,111.3z M104.1,118.6c0.2,0,0.4,0,0.5-0.1
			c0.2,0,0.3-0.1,0.4-0.2c0.1-0.1,0.3-0.2,0.4-0.3c0.1-0.1,0.2-0.2,0.4-0.3v-1.3c-0.5,0-0.9,0-1.3,0.1c-0.3,0.1-0.6,0.1-0.8,0.2
			c-0.2,0.1-0.4,0.2-0.5,0.4c-0.1,0.1-0.1,0.3-0.1,0.5c0,0.2,0,0.3,0.1,0.4c0.1,0.1,0.1,0.2,0.2,0.3c0.1,0.1,0.2,0.1,0.3,0.2
			C103.9,118.6,104,118.6,104.1,118.6z"/>
		<path class="st2" d="M111,113.1c0.4,0,0.8,0.1,1.2,0.2s0.7,0.4,0.9,0.6s0.4,0.6,0.6,1c0.1,0.4,0.2,0.8,0.2,1.3
			c0,0.5-0.1,0.9-0.2,1.3c-0.1,0.4-0.3,0.7-0.6,1s-0.6,0.5-0.9,0.6s-0.8,0.2-1.2,0.2s-0.8-0.1-1.2-0.2s-0.7-0.4-0.9-0.6
			c-0.3-0.3-0.4-0.6-0.6-1c-0.1-0.4-0.2-0.8-0.2-1.3c0-0.5,0.1-0.9,0.2-1.3c0.1-0.4,0.3-0.7,0.6-1c0.3-0.3,0.6-0.5,0.9-0.6
			S110.5,113.1,111,113.1z M111,118.5c0.6,0,1-0.2,1.3-0.6c0.3-0.4,0.4-1,0.4-1.7c0-0.7-0.1-1.3-0.4-1.7c-0.3-0.4-0.7-0.6-1.3-0.6
			c-0.3,0-0.6,0.1-0.8,0.2c-0.2,0.1-0.4,0.3-0.6,0.5c-0.1,0.2-0.3,0.4-0.3,0.7s-0.1,0.6-0.1,1c0,0.4,0,0.7,0.1,1
			c0.1,0.3,0.2,0.5,0.3,0.7c0.1,0.2,0.3,0.3,0.6,0.4C110.4,118.5,110.7,118.5,111,118.5z"/>
		<path class="st2" d="M119.9,113.1c0.4,0,0.7,0.1,1,0.2c0.3,0.1,0.6,0.3,0.8,0.5s0.4,0.5,0.5,0.9s0.2,0.7,0.2,1.2
			c0,0.2,0,0.3-0.1,0.3c0,0.1-0.1,0.1-0.2,0.1h-4c0,0.4,0.1,0.7,0.2,1c0.1,0.3,0.2,0.5,0.4,0.7c0.2,0.2,0.4,0.3,0.6,0.4
			s0.5,0.1,0.8,0.1c0.3,0,0.5,0,0.7-0.1c0.2-0.1,0.4-0.1,0.5-0.2s0.3-0.1,0.4-0.2c0.1-0.1,0.2-0.1,0.2-0.1c0.1,0,0.2,0,0.2,0.1
			l0.3,0.4c-0.1,0.2-0.3,0.3-0.5,0.4s-0.4,0.2-0.6,0.3s-0.4,0.1-0.7,0.2c-0.2,0-0.4,0.1-0.7,0.1c-0.4,0-0.8-0.1-1.2-0.2
			s-0.7-0.3-0.9-0.6c-0.3-0.3-0.5-0.6-0.6-1c-0.1-0.4-0.2-0.9-0.2-1.4c0-0.4,0.1-0.8,0.2-1.2c0.1-0.4,0.3-0.7,0.6-1
			c0.2-0.3,0.5-0.5,0.9-0.6C119.1,113.2,119.5,113.1,119.9,113.1z M119.9,113.9c-0.5,0-0.9,0.1-1.2,0.4s-0.5,0.7-0.6,1.2h3.3
			c0-0.2,0-0.5-0.1-0.7c-0.1-0.2-0.2-0.4-0.3-0.5s-0.3-0.3-0.5-0.3S120.2,113.9,119.9,113.9z"/>
		<path class="st2" d="M130.3,114.3c0,0-0.1,0.1-0.1,0.1c0,0-0.1,0-0.1,0s-0.1,0-0.2-0.1c-0.1,0-0.2-0.1-0.3-0.2
			c-0.1-0.1-0.2-0.1-0.4-0.2c-0.2,0-0.3-0.1-0.6-0.1c-0.3,0-0.6,0.1-0.8,0.2s-0.4,0.3-0.6,0.5c-0.2,0.2-0.3,0.4-0.3,0.7
			c-0.1,0.3-0.1,0.6-0.1,1c0,0.4,0,0.7,0.1,1s0.2,0.5,0.4,0.7c0.2,0.2,0.3,0.3,0.6,0.4c0.2,0.1,0.5,0.2,0.7,0.2c0.3,0,0.5,0,0.6-0.1
			c0.2-0.1,0.3-0.1,0.4-0.2s0.2-0.1,0.3-0.2c0.1-0.1,0.1-0.1,0.2-0.1c0.1,0,0.2,0,0.2,0.1l0.3,0.4c-0.3,0.3-0.6,0.6-1,0.7
			c-0.4,0.1-0.8,0.2-1.3,0.2c-0.4,0-0.7-0.1-1.1-0.2c-0.3-0.1-0.6-0.3-0.8-0.6c-0.2-0.3-0.4-0.6-0.6-1c-0.1-0.4-0.2-0.8-0.2-1.3
			c0-0.5,0.1-0.9,0.2-1.3c0.1-0.4,0.3-0.7,0.6-1c0.2-0.3,0.5-0.5,0.9-0.7c0.4-0.2,0.8-0.2,1.2-0.2c0.4,0,0.8,0.1,1.1,0.2
			c0.3,0.1,0.6,0.3,0.9,0.6L130.3,114.3z"/>
		<path class="st2" d="M133.1,111.3c0,0.1,0,0.2-0.1,0.3c0,0.1-0.1,0.2-0.2,0.2c-0.1,0.1-0.2,0.1-0.2,0.2c-0.1,0-0.2,0.1-0.3,0.1
			s-0.2,0-0.3-0.1c-0.1,0-0.2-0.1-0.2-0.2c-0.1-0.1-0.1-0.1-0.2-0.2c0-0.1-0.1-0.2-0.1-0.3s0-0.2,0.1-0.3c0-0.1,0.1-0.2,0.2-0.2
			c0.1-0.1,0.1-0.1,0.2-0.2c0.1,0,0.2-0.1,0.3-0.1s0.2,0,0.3,0.1c0.1,0,0.2,0.1,0.2,0.2c0.1,0.1,0.1,0.2,0.2,0.2
			C133.1,111.1,133.1,111.2,133.1,111.3z M132.9,113.2v6.1h-1.1v-6.1H132.9z"/>
		<path class="st2" d="M134.8,119.3v-6.1h0.6c0.1,0,0.2,0,0.2,0.1c0,0,0.1,0.1,0.1,0.2l0.1,0.9c0.2-0.4,0.5-0.8,0.8-1
			c0.3-0.2,0.7-0.4,1.1-0.4c0.2,0,0.3,0,0.5,0.1c0.1,0,0.3,0.1,0.4,0.2l-0.1,0.8c0,0.1-0.1,0.1-0.2,0.1c-0.1,0-0.1,0-0.3-0.1
			c-0.1,0-0.3-0.1-0.5-0.1c-0.4,0-0.7,0.1-0.9,0.3s-0.5,0.5-0.6,0.9v3.9H134.8z"/>
		<path class="st2" d="M143.8,114.3c0,0-0.1,0.1-0.1,0.1c0,0-0.1,0-0.1,0s-0.1,0-0.2-0.1c-0.1,0-0.2-0.1-0.3-0.2
			c-0.1-0.1-0.2-0.1-0.4-0.2c-0.2,0-0.3-0.1-0.6-0.1c-0.3,0-0.6,0.1-0.8,0.2s-0.4,0.3-0.6,0.5c-0.2,0.2-0.3,0.4-0.3,0.7
			c-0.1,0.3-0.1,0.6-0.1,1c0,0.4,0,0.7,0.1,1s0.2,0.5,0.4,0.7c0.2,0.2,0.3,0.3,0.6,0.4c0.2,0.1,0.5,0.2,0.7,0.2c0.3,0,0.5,0,0.6-0.1
			c0.2-0.1,0.3-0.1,0.4-0.2s0.2-0.1,0.3-0.2c0.1-0.1,0.1-0.1,0.2-0.1c0.1,0,0.2,0,0.2,0.1l0.3,0.4c-0.3,0.3-0.6,0.6-1,0.7
			c-0.4,0.1-0.8,0.2-1.3,0.2c-0.4,0-0.7-0.1-1.1-0.2c-0.3-0.1-0.6-0.3-0.8-0.6c-0.2-0.3-0.4-0.6-0.6-1c-0.1-0.4-0.2-0.8-0.2-1.3
			c0-0.5,0.1-0.9,0.2-1.3c0.1-0.4,0.3-0.7,0.6-1c0.2-0.3,0.5-0.5,0.9-0.7c0.4-0.2,0.8-0.2,1.2-0.2c0.4,0,0.8,0.1,1.1,0.2
			c0.3,0.1,0.6,0.3,0.9,0.6L143.8,114.3z"/>
		<path class="st2" d="M146.2,113.2v3.9c0,0.5,0.1,0.8,0.3,1.1c0.2,0.3,0.5,0.4,1,0.4c0.3,0,0.6-0.1,0.9-0.2
			c0.3-0.1,0.5-0.4,0.8-0.6v-4.5h1.1v6.1h-0.6c-0.2,0-0.2-0.1-0.3-0.2l-0.1-0.7c-0.3,0.3-0.6,0.5-0.9,0.7s-0.7,0.3-1.1,0.3
			c-0.3,0-0.6-0.1-0.9-0.2c-0.3-0.1-0.5-0.3-0.6-0.5c-0.2-0.2-0.3-0.4-0.4-0.7c-0.1-0.3-0.1-0.6-0.1-0.9v-3.9H146.2z"/>
		<path class="st2" d="M153.1,110.4v8.8H152v-8.8H153.1z"/>
		<path class="st2" d="M159.4,119.3H159c-0.1,0-0.2,0-0.3,0s-0.1-0.1-0.1-0.2l-0.1-0.6c-0.2,0.1-0.3,0.3-0.5,0.4s-0.3,0.2-0.5,0.3
			s-0.3,0.1-0.5,0.2s-0.4,0.1-0.6,0.1c-0.2,0-0.5,0-0.7-0.1s-0.4-0.2-0.5-0.3c-0.2-0.1-0.3-0.3-0.4-0.5c-0.1-0.2-0.1-0.4-0.1-0.7
			c0-0.2,0.1-0.5,0.2-0.7s0.3-0.4,0.6-0.6c0.3-0.2,0.7-0.3,1.2-0.4s1.1-0.2,1.7-0.2v-0.5c0-0.5-0.1-0.8-0.3-1.1
			c-0.2-0.2-0.5-0.4-0.9-0.4c-0.3,0-0.5,0-0.7,0.1c-0.2,0.1-0.3,0.1-0.5,0.2c-0.1,0.1-0.2,0.2-0.3,0.2c-0.1,0.1-0.2,0.1-0.3,0.1
			c-0.1,0-0.1,0-0.2-0.1s-0.1-0.1-0.1-0.1l-0.2-0.3c0.3-0.3,0.7-0.6,1.1-0.7c0.4-0.2,0.8-0.2,1.3-0.2c0.3,0,0.6,0.1,0.9,0.2
			c0.3,0.1,0.5,0.3,0.7,0.5c0.2,0.2,0.3,0.4,0.4,0.7c0.1,0.3,0.1,0.6,0.1,0.9V119.3z M156.7,118.6c0.2,0,0.4,0,0.5-0.1
			c0.2,0,0.3-0.1,0.4-0.2c0.1-0.1,0.3-0.2,0.4-0.3c0.1-0.1,0.2-0.2,0.4-0.3v-1.3c-0.5,0-0.9,0-1.3,0.1c-0.3,0.1-0.6,0.1-0.8,0.2
			c-0.2,0.1-0.4,0.2-0.5,0.4c-0.1,0.1-0.1,0.3-0.1,0.5c0,0.2,0,0.3,0.1,0.4c0.1,0.1,0.1,0.2,0.2,0.3c0.1,0.1,0.2,0.1,0.3,0.2
			C156.4,118.6,156.5,118.6,156.7,118.6z"/>
		<path class="st2" d="M162.6,120.8C162.6,120.8,162.6,120.8,162.6,120.8c0.1,0,0.2,0.1,0.2,0.1c0,0,0.1,0,0.2,0c0.1,0,0.1,0,0.2,0
			c0.2,0,0.3,0,0.4-0.1c0.1-0.1,0.1-0.2,0.1-0.3c0-0.1,0-0.1-0.1-0.2s-0.1-0.1-0.2-0.1s-0.2-0.1-0.3-0.1c-0.1,0-0.3,0-0.4-0.1
			l0.2-0.7c-0.3,0-0.6-0.1-0.9-0.3c-0.3-0.2-0.5-0.4-0.7-0.6c-0.2-0.3-0.4-0.6-0.5-0.9c-0.1-0.4-0.2-0.8-0.2-1.2s0.1-0.9,0.2-1.3
			c0.1-0.4,0.3-0.7,0.6-1c0.2-0.3,0.5-0.5,0.9-0.7c0.4-0.2,0.8-0.2,1.2-0.2c0.4,0,0.8,0.1,1.1,0.2c0.3,0.1,0.6,0.3,0.9,0.6l-0.3,0.4
			c0,0-0.1,0.1-0.1,0.1c0,0-0.1,0-0.1,0s-0.1,0-0.2-0.1c-0.1,0-0.2-0.1-0.3-0.2c-0.1-0.1-0.2-0.1-0.4-0.2c-0.2,0-0.3-0.1-0.6-0.1
			c-0.3,0-0.6,0.1-0.8,0.2s-0.4,0.3-0.6,0.5c-0.2,0.2-0.3,0.4-0.3,0.7c-0.1,0.3-0.1,0.6-0.1,1c0,0.4,0,0.7,0.1,1s0.2,0.5,0.4,0.7
			c0.2,0.2,0.3,0.3,0.6,0.4c0.2,0.1,0.5,0.2,0.7,0.2c0.3,0,0.5,0,0.6-0.1c0.2-0.1,0.3-0.1,0.4-0.2s0.2-0.1,0.3-0.2
			c0.1-0.1,0.1-0.1,0.2-0.1c0,0,0.1,0,0.1,0s0.1,0,0.1,0.1l0.3,0.4c-0.2,0.3-0.5,0.5-0.9,0.7c-0.3,0.1-0.7,0.2-1.1,0.3l-0.1,0.3
			c0.4,0.1,0.6,0.2,0.8,0.3c0.2,0.1,0.2,0.3,0.2,0.5c0,0.1,0,0.2-0.1,0.3c-0.1,0.1-0.2,0.2-0.3,0.3c-0.1,0.1-0.3,0.1-0.4,0.2
			s-0.3,0.1-0.5,0.1c-0.2,0-0.3,0-0.5-0.1c-0.1,0-0.3-0.1-0.4-0.1l0.1-0.3C162.5,120.8,162.5,120.8,162.6,120.8z"/>
		<path class="st2" d="M171.1,119.3h-0.5c-0.1,0-0.2,0-0.3,0s-0.1-0.1-0.1-0.2l-0.1-0.6c-0.2,0.1-0.3,0.3-0.5,0.4s-0.3,0.2-0.5,0.3
			s-0.3,0.1-0.5,0.2s-0.4,0.1-0.6,0.1c-0.2,0-0.5,0-0.7-0.1s-0.4-0.2-0.5-0.3c-0.2-0.1-0.3-0.3-0.4-0.5c-0.1-0.2-0.1-0.4-0.1-0.7
			c0-0.2,0.1-0.5,0.2-0.7s0.3-0.4,0.6-0.6c0.3-0.2,0.7-0.3,1.2-0.4s1.1-0.2,1.7-0.2v-0.5c0-0.5-0.1-0.8-0.3-1.1
			c-0.2-0.2-0.5-0.4-0.9-0.4c-0.3,0-0.5,0-0.7,0.1c-0.2,0.1-0.3,0.1-0.5,0.2c-0.1,0.1-0.2,0.2-0.3,0.2c-0.1,0.1-0.2,0.1-0.3,0.1
			c-0.1,0-0.1,0-0.2-0.1s-0.1-0.1-0.1-0.1l-0.2-0.3c0.3-0.3,0.7-0.6,1.1-0.7c0.4-0.2,0.8-0.2,1.3-0.2c0.3,0,0.6,0.1,0.9,0.2
			c0.3,0.1,0.5,0.3,0.7,0.5c0.2,0.2,0.3,0.4,0.4,0.7c0.1,0.3,0.1,0.6,0.1,0.9V119.3z M169.6,111.3c0.1,0,0.3,0,0.3-0.1
			c0.1-0.1,0.1-0.2,0.1-0.4h0.6c0,0.2,0,0.4-0.1,0.5c0,0.2-0.1,0.3-0.2,0.4c-0.1,0.1-0.2,0.2-0.3,0.3c-0.1,0.1-0.3,0.1-0.4,0.1
			c-0.1,0-0.3,0-0.4-0.1s-0.2-0.1-0.3-0.2c-0.1-0.1-0.2-0.1-0.3-0.2c-0.1-0.1-0.2-0.1-0.3-0.1c-0.3,0-0.4,0.2-0.4,0.5h-0.7
			c0-0.2,0-0.4,0.1-0.5c0.1-0.2,0.1-0.3,0.2-0.4c0.1-0.1,0.2-0.2,0.3-0.3c0.1-0.1,0.3-0.1,0.4-0.1c0.1,0,0.3,0,0.4,0.1
			s0.2,0.1,0.3,0.2c0.1,0.1,0.2,0.1,0.3,0.2C169.4,111.3,169.5,111.3,169.6,111.3z M168.4,118.6c0.2,0,0.4,0,0.5-0.1
			c0.2,0,0.3-0.1,0.4-0.2c0.1-0.1,0.3-0.2,0.4-0.3c0.1-0.1,0.2-0.2,0.4-0.3v-1.3c-0.5,0-0.9,0-1.3,0.1c-0.3,0.1-0.6,0.1-0.8,0.2
			c-0.2,0.1-0.4,0.2-0.5,0.4c-0.1,0.1-0.1,0.3-0.1,0.5c0,0.2,0,0.3,0.1,0.4c0.1,0.1,0.1,0.2,0.2,0.3c0.1,0.1,0.2,0.1,0.3,0.2
			C168.1,118.6,168.2,118.6,168.4,118.6z"/>
		<path class="st2" d="M175.2,113.1c0.4,0,0.8,0.1,1.2,0.2s0.7,0.4,0.9,0.6s0.4,0.6,0.6,1c0.1,0.4,0.2,0.8,0.2,1.3
			c0,0.5-0.1,0.9-0.2,1.3c-0.1,0.4-0.3,0.7-0.6,1s-0.6,0.5-0.9,0.6s-0.8,0.2-1.2,0.2s-0.8-0.1-1.2-0.2s-0.7-0.4-0.9-0.6
			c-0.3-0.3-0.4-0.6-0.6-1c-0.1-0.4-0.2-0.8-0.2-1.3c0-0.5,0.1-0.9,0.2-1.3c0.1-0.4,0.3-0.7,0.6-1c0.3-0.3,0.6-0.5,0.9-0.6
			S174.8,113.1,175.2,113.1z M175.2,118.5c0.6,0,1-0.2,1.3-0.6c0.3-0.4,0.4-1,0.4-1.7c0-0.7-0.1-1.3-0.4-1.7
			c-0.3-0.4-0.7-0.6-1.3-0.6c-0.3,0-0.6,0.1-0.8,0.2c-0.2,0.1-0.4,0.3-0.6,0.5c-0.1,0.2-0.3,0.4-0.3,0.7s-0.1,0.6-0.1,1
			c0,0.4,0,0.7,0.1,1c0.1,0.3,0.2,0.5,0.3,0.7c0.1,0.2,0.3,0.3,0.6,0.4C174.6,118.5,174.9,118.5,175.2,118.5z"/>
		<path class="st2" d="M74.1,133.7c-0.2,0-0.2-0.1-0.3-0.2l-0.1-0.7c-0.3,0.3-0.6,0.6-0.9,0.8s-0.7,0.3-1.1,0.3
			c-0.3,0-0.7-0.1-0.9-0.2c-0.3-0.1-0.5-0.3-0.7-0.6c-0.2-0.3-0.4-0.6-0.5-1c-0.1-0.4-0.2-0.8-0.2-1.3c0-0.4,0.1-0.9,0.2-1.3
			c0.1-0.4,0.3-0.7,0.5-1s0.5-0.5,0.8-0.7c0.3-0.2,0.7-0.2,1.1-0.2c0.4,0,0.7,0.1,1,0.2c0.3,0.1,0.5,0.3,0.7,0.5v-3.4h1.1v8.8H74.1z
			 M72,132.9c0.3,0,0.7-0.1,0.9-0.2c0.3-0.2,0.5-0.4,0.7-0.7V129c-0.2-0.3-0.4-0.4-0.6-0.6c-0.2-0.1-0.5-0.2-0.8-0.2
			c-0.6,0-1,0.2-1.3,0.6c-0.3,0.4-0.5,1-0.5,1.7c0,0.4,0,0.7,0.1,1c0.1,0.3,0.2,0.5,0.3,0.7c0.1,0.2,0.3,0.3,0.5,0.4
			C71.5,132.9,71.7,132.9,72,132.9z"/>
		<path class="st2" d="M78.9,127.5c0.4,0,0.7,0.1,1,0.2s0.6,0.3,0.8,0.5c0.2,0.2,0.4,0.5,0.5,0.9s0.2,0.7,0.2,1.2
			c0,0.2,0,0.3-0.1,0.3s-0.1,0.1-0.2,0.1h-4c0,0.4,0.1,0.7,0.2,1c0.1,0.3,0.2,0.5,0.4,0.7c0.2,0.2,0.4,0.3,0.6,0.4
			c0.2,0.1,0.5,0.1,0.8,0.1c0.3,0,0.5,0,0.7-0.1c0.2-0.1,0.4-0.1,0.5-0.2c0.1-0.1,0.3-0.1,0.4-0.2c0.1-0.1,0.2-0.1,0.2-0.1
			c0.1,0,0.2,0,0.2,0.1l0.3,0.4c-0.1,0.2-0.3,0.3-0.5,0.4c-0.2,0.1-0.4,0.2-0.6,0.3c-0.2,0.1-0.4,0.1-0.7,0.2
			c-0.2,0-0.4,0.1-0.7,0.1c-0.4,0-0.8-0.1-1.2-0.2c-0.4-0.1-0.7-0.4-0.9-0.6c-0.3-0.3-0.5-0.6-0.6-1c-0.1-0.4-0.2-0.9-0.2-1.4
			c0-0.4,0.1-0.8,0.2-1.2c0.1-0.4,0.3-0.7,0.6-1c0.2-0.3,0.5-0.5,0.9-0.6C78.1,127.6,78.5,127.5,78.9,127.5z M78.9,128.3
			c-0.5,0-0.9,0.1-1.2,0.4s-0.5,0.7-0.6,1.2h3.3c0-0.2,0-0.5-0.1-0.7c-0.1-0.2-0.2-0.4-0.3-0.5c-0.1-0.2-0.3-0.3-0.5-0.3
			S79.2,128.3,78.9,128.3z"/>
		<path class="st2" d="M85.1,133.7v-8.8h1.1v3.6c0.3-0.3,0.5-0.5,0.9-0.7s0.7-0.3,1.1-0.3c0.4,0,0.7,0.1,1,0.2
			c0.3,0.1,0.5,0.3,0.7,0.6c0.2,0.3,0.4,0.6,0.5,1c0.1,0.4,0.2,0.8,0.2,1.3c0,0.4-0.1,0.9-0.2,1.3c-0.1,0.4-0.3,0.7-0.5,1
			c-0.2,0.3-0.5,0.5-0.8,0.7s-0.7,0.2-1.1,0.2c-0.4,0-0.7-0.1-1-0.2c-0.3-0.2-0.5-0.4-0.7-0.6l-0.1,0.6c0,0.2-0.1,0.2-0.3,0.2H85.1z
			 M87.8,128.4c-0.3,0-0.7,0.1-0.9,0.2c-0.3,0.2-0.5,0.4-0.7,0.7v2.9c0.2,0.3,0.4,0.4,0.6,0.6s0.5,0.2,0.8,0.2c0.6,0,1-0.2,1.3-0.6
			c0.3-0.4,0.5-1,0.5-1.7c0-0.4,0-0.7-0.1-1c-0.1-0.3-0.2-0.5-0.3-0.7c-0.1-0.2-0.3-0.3-0.5-0.4C88.3,128.4,88.1,128.4,87.8,128.4z"
			/>
		<path class="st2" d="M94.2,127.5c0.4,0,0.7,0.1,1,0.2s0.6,0.3,0.8,0.5c0.2,0.2,0.4,0.5,0.5,0.9s0.2,0.7,0.2,1.2
			c0,0.2,0,0.3-0.1,0.3s-0.1,0.1-0.2,0.1h-4c0,0.4,0.1,0.7,0.2,1c0.1,0.3,0.2,0.5,0.4,0.7c0.2,0.2,0.4,0.3,0.6,0.4
			c0.2,0.1,0.5,0.1,0.8,0.1c0.3,0,0.5,0,0.7-0.1c0.2-0.1,0.4-0.1,0.5-0.2c0.1-0.1,0.3-0.1,0.4-0.2c0.1-0.1,0.2-0.1,0.2-0.1
			c0.1,0,0.2,0,0.2,0.1l0.3,0.4c-0.1,0.2-0.3,0.3-0.5,0.4c-0.2,0.1-0.4,0.2-0.6,0.3c-0.2,0.1-0.4,0.1-0.7,0.2
			c-0.2,0-0.4,0.1-0.7,0.1c-0.4,0-0.8-0.1-1.2-0.2c-0.4-0.1-0.7-0.4-0.9-0.6c-0.3-0.3-0.5-0.6-0.6-1c-0.1-0.4-0.2-0.9-0.2-1.4
			c0-0.4,0.1-0.8,0.2-1.2c0.1-0.4,0.3-0.7,0.6-1c0.2-0.3,0.5-0.5,0.9-0.6C93.4,127.6,93.8,127.5,94.2,127.5z M94.2,128.3
			c-0.5,0-0.9,0.1-1.2,0.4s-0.5,0.7-0.6,1.2h3.3c0-0.2,0-0.5-0.1-0.7c-0.1-0.2-0.2-0.4-0.3-0.5c-0.1-0.2-0.3-0.3-0.5-0.3
			S94.5,128.3,94.2,128.3z"/>
		<path class="st2" d="M98.1,133.7v-6.1h0.6c0.2,0,0.2,0.1,0.3,0.2l0.1,0.7c0.3-0.3,0.6-0.5,0.9-0.7c0.3-0.2,0.7-0.3,1.1-0.3
			c0.3,0,0.6,0.1,0.9,0.2c0.3,0.1,0.5,0.3,0.6,0.5s0.3,0.4,0.4,0.7c0.1,0.3,0.1,0.6,0.1,0.9v3.9h-1.1v-3.9c0-0.5-0.1-0.8-0.3-1.1
			c-0.2-0.3-0.5-0.4-1-0.4c-0.3,0-0.6,0.1-0.9,0.2c-0.3,0.2-0.5,0.4-0.8,0.6v4.5H98.1z"/>
		<path class="st2" d="M108.2,128.6c0,0.1-0.1,0.1-0.2,0.1c-0.1,0-0.1,0-0.2-0.1c-0.1,0-0.2-0.1-0.3-0.1s-0.2-0.1-0.4-0.2
			c-0.2,0-0.3-0.1-0.5-0.1c-0.2,0-0.3,0-0.5,0.1c-0.1,0-0.3,0.1-0.4,0.2c-0.1,0.1-0.2,0.2-0.2,0.3c-0.1,0.1-0.1,0.2-0.1,0.3
			c0,0.2,0,0.3,0.1,0.4c0.1,0.1,0.2,0.2,0.4,0.3s0.3,0.1,0.5,0.2c0.2,0.1,0.4,0.1,0.6,0.2c0.2,0.1,0.4,0.1,0.6,0.2s0.4,0.2,0.5,0.3
			c0.1,0.1,0.3,0.3,0.4,0.4s0.1,0.4,0.1,0.6c0,0.3-0.1,0.5-0.2,0.8s-0.2,0.4-0.4,0.6c-0.2,0.2-0.4,0.3-0.7,0.4
			c-0.3,0.1-0.6,0.2-1,0.2c-0.4,0-0.8-0.1-1.2-0.2c-0.3-0.1-0.6-0.3-0.9-0.5l0.3-0.4c0-0.1,0.1-0.1,0.1-0.1c0,0,0.1,0,0.2,0
			c0.1,0,0.1,0,0.2,0.1c0.1,0.1,0.2,0.1,0.3,0.2c0.1,0.1,0.3,0.1,0.4,0.2c0.2,0.1,0.4,0.1,0.6,0.1c0.2,0,0.4,0,0.5-0.1
			c0.2-0.1,0.3-0.1,0.4-0.2c0.1-0.1,0.2-0.2,0.2-0.3c0-0.1,0.1-0.2,0.1-0.4c0-0.2,0-0.3-0.1-0.4c-0.1-0.1-0.2-0.2-0.4-0.3
			s-0.3-0.1-0.5-0.2s-0.4-0.1-0.6-0.2c-0.2-0.1-0.4-0.1-0.6-0.2c-0.2-0.1-0.4-0.2-0.5-0.3s-0.3-0.3-0.4-0.5
			c-0.1-0.2-0.1-0.4-0.1-0.7c0-0.2,0-0.5,0.1-0.7c0.1-0.2,0.2-0.4,0.4-0.6c0.2-0.2,0.4-0.3,0.7-0.4s0.6-0.1,0.9-0.1
			c0.4,0,0.8,0.1,1.1,0.2s0.6,0.3,0.8,0.5L108.2,128.6z"/>
		<path class="st2" d="M116.6,133.7c-0.2,0-0.2-0.1-0.3-0.2l-0.1-0.7c-0.3,0.3-0.6,0.6-0.9,0.8s-0.7,0.3-1.1,0.3
			c-0.3,0-0.7-0.1-0.9-0.2c-0.3-0.1-0.5-0.3-0.7-0.6c-0.2-0.3-0.4-0.6-0.5-1c-0.1-0.4-0.2-0.8-0.2-1.3c0-0.4,0.1-0.9,0.2-1.3
			c0.1-0.4,0.3-0.7,0.5-1s0.5-0.5,0.8-0.7c0.3-0.2,0.7-0.2,1.1-0.2c0.4,0,0.7,0.1,1,0.2c0.3,0.1,0.5,0.3,0.7,0.5v-3.4h1.1v8.8H116.6
			z M114.5,132.9c0.3,0,0.7-0.1,0.9-0.2c0.3-0.2,0.5-0.4,0.7-0.7V129c-0.2-0.3-0.4-0.4-0.6-0.6c-0.2-0.1-0.5-0.2-0.8-0.2
			c-0.6,0-1,0.2-1.3,0.6c-0.3,0.4-0.5,1-0.5,1.7c0,0.4,0,0.7,0.1,1c0.1,0.3,0.2,0.5,0.3,0.7c0.1,0.2,0.3,0.3,0.5,0.4
			C114,132.9,114.3,132.9,114.5,132.9z"/>
		<path class="st2" d="M121.4,127.5c0.4,0,0.7,0.1,1,0.2s0.6,0.3,0.8,0.5c0.2,0.2,0.4,0.5,0.5,0.9s0.2,0.7,0.2,1.2
			c0,0.2,0,0.3-0.1,0.3s-0.1,0.1-0.2,0.1h-4c0,0.4,0.1,0.7,0.2,1c0.1,0.3,0.2,0.5,0.4,0.7c0.2,0.2,0.4,0.3,0.6,0.4
			c0.2,0.1,0.5,0.1,0.8,0.1c0.3,0,0.5,0,0.7-0.1c0.2-0.1,0.4-0.1,0.5-0.2c0.1-0.1,0.3-0.1,0.4-0.2c0.1-0.1,0.2-0.1,0.2-0.1
			c0.1,0,0.2,0,0.2,0.1l0.3,0.4c-0.1,0.2-0.3,0.3-0.5,0.4c-0.2,0.1-0.4,0.2-0.6,0.3c-0.2,0.1-0.4,0.1-0.7,0.2
			c-0.2,0-0.4,0.1-0.7,0.1c-0.4,0-0.8-0.1-1.2-0.2c-0.4-0.1-0.7-0.4-0.9-0.6c-0.3-0.3-0.5-0.6-0.6-1c-0.1-0.4-0.2-0.9-0.2-1.4
			c0-0.4,0.1-0.8,0.2-1.2c0.1-0.4,0.3-0.7,0.6-1c0.2-0.3,0.5-0.5,0.9-0.6C120.6,127.6,121,127.5,121.4,127.5z M121.4,128.3
			c-0.5,0-0.9,0.1-1.2,0.4s-0.5,0.7-0.6,1.2h3.3c0-0.2,0-0.5-0.1-0.7c-0.1-0.2-0.2-0.4-0.3-0.5c-0.1-0.2-0.3-0.3-0.5-0.3
			S121.7,128.3,121.4,128.3z"/>
		<path class="st2" d="M131.7,128.7c0,0-0.1,0.1-0.1,0.1c0,0-0.1,0-0.1,0s-0.1,0-0.2-0.1c-0.1,0-0.2-0.1-0.3-0.2
			c-0.1-0.1-0.2-0.1-0.4-0.2c-0.2,0-0.3-0.1-0.6-0.1c-0.3,0-0.6,0.1-0.8,0.2c-0.2,0.1-0.4,0.3-0.6,0.5c-0.2,0.2-0.3,0.4-0.3,0.7
			c-0.1,0.3-0.1,0.6-0.1,1c0,0.4,0,0.7,0.1,1s0.2,0.5,0.4,0.7c0.2,0.2,0.3,0.3,0.6,0.4c0.2,0.1,0.5,0.2,0.7,0.2c0.3,0,0.5,0,0.6-0.1
			c0.2-0.1,0.3-0.1,0.4-0.2s0.2-0.1,0.3-0.2c0.1-0.1,0.1-0.1,0.2-0.1c0.1,0,0.2,0,0.2,0.1l0.3,0.4c-0.3,0.3-0.6,0.6-1,0.7
			c-0.4,0.2-0.8,0.2-1.3,0.2c-0.4,0-0.7-0.1-1.1-0.2c-0.3-0.1-0.6-0.3-0.8-0.6c-0.2-0.3-0.4-0.6-0.6-1c-0.1-0.4-0.2-0.8-0.2-1.3
			c0-0.5,0.1-0.9,0.2-1.3c0.1-0.4,0.3-0.7,0.6-1c0.2-0.3,0.5-0.5,0.9-0.7s0.8-0.2,1.2-0.2c0.4,0,0.8,0.1,1.1,0.2
			c0.3,0.1,0.6,0.3,0.9,0.6L131.7,128.7z"/>
		<path class="st2" d="M135.7,127.5c0.4,0,0.8,0.1,1.2,0.2c0.4,0.1,0.7,0.4,0.9,0.6c0.2,0.3,0.4,0.6,0.6,1c0.1,0.4,0.2,0.8,0.2,1.3
			c0,0.5-0.1,0.9-0.2,1.3c-0.1,0.4-0.3,0.7-0.6,1c-0.2,0.3-0.6,0.5-0.9,0.6c-0.4,0.1-0.8,0.2-1.2,0.2s-0.8-0.1-1.2-0.2
			c-0.4-0.1-0.7-0.4-0.9-0.6c-0.3-0.3-0.4-0.6-0.6-1c-0.1-0.4-0.2-0.8-0.2-1.3c0-0.5,0.1-0.9,0.2-1.3c0.1-0.4,0.3-0.7,0.6-1
			c0.3-0.3,0.6-0.5,0.9-0.6C134.8,127.6,135.2,127.5,135.7,127.5z M135.7,132.9c0.6,0,1-0.2,1.3-0.6c0.3-0.4,0.4-1,0.4-1.7
			c0-0.7-0.1-1.3-0.4-1.7c-0.3-0.4-0.7-0.6-1.3-0.6c-0.3,0-0.6,0.1-0.8,0.2c-0.2,0.1-0.4,0.3-0.6,0.5c-0.1,0.2-0.3,0.4-0.3,0.7
			s-0.1,0.6-0.1,1s0,0.7,0.1,1s0.2,0.5,0.3,0.7c0.1,0.2,0.3,0.3,0.6,0.4C135.1,132.9,135.4,132.9,135.7,132.9z"/>
		<path class="st2" d="M139.9,133.7v-6.1h0.6c0.2,0,0.2,0.1,0.3,0.2l0.1,0.7c0.3-0.3,0.6-0.5,0.9-0.7c0.3-0.2,0.7-0.3,1.1-0.3
			c0.3,0,0.6,0.1,0.9,0.2c0.3,0.1,0.5,0.3,0.6,0.5s0.3,0.4,0.4,0.7c0.1,0.3,0.1,0.6,0.1,0.9v3.9h-1.1v-3.9c0-0.5-0.1-0.8-0.3-1.1
			c-0.2-0.3-0.5-0.4-1-0.4c-0.3,0-0.6,0.1-0.9,0.2c-0.3,0.2-0.5,0.4-0.8,0.6v4.5H139.9z"/>
		<path class="st2" d="M150,128.6c0,0.1-0.1,0.1-0.2,0.1c-0.1,0-0.1,0-0.2-0.1c-0.1,0-0.2-0.1-0.3-0.1s-0.2-0.1-0.4-0.2
			c-0.2,0-0.3-0.1-0.5-0.1c-0.2,0-0.3,0-0.5,0.1c-0.1,0-0.3,0.1-0.4,0.2c-0.1,0.1-0.2,0.2-0.2,0.3c-0.1,0.1-0.1,0.2-0.1,0.3
			c0,0.2,0,0.3,0.1,0.4c0.1,0.1,0.2,0.2,0.4,0.3s0.3,0.1,0.5,0.2c0.2,0.1,0.4,0.1,0.6,0.2c0.2,0.1,0.4,0.1,0.6,0.2s0.4,0.2,0.5,0.3
			c0.1,0.1,0.3,0.3,0.4,0.4s0.1,0.4,0.1,0.6c0,0.3-0.1,0.5-0.2,0.8s-0.2,0.4-0.4,0.6c-0.2,0.2-0.4,0.3-0.7,0.4
			c-0.3,0.1-0.6,0.2-1,0.2c-0.4,0-0.8-0.1-1.2-0.2c-0.3-0.1-0.6-0.3-0.9-0.5l0.3-0.4c0-0.1,0.1-0.1,0.1-0.1c0,0,0.1,0,0.2,0
			c0.1,0,0.1,0,0.2,0.1c0.1,0.1,0.2,0.1,0.3,0.2c0.1,0.1,0.3,0.1,0.4,0.2c0.2,0.1,0.4,0.1,0.6,0.1c0.2,0,0.4,0,0.5-0.1
			c0.2-0.1,0.3-0.1,0.4-0.2c0.1-0.1,0.2-0.2,0.2-0.3c0-0.1,0.1-0.2,0.1-0.4c0-0.2,0-0.3-0.1-0.4c-0.1-0.1-0.2-0.2-0.4-0.3
			s-0.3-0.1-0.5-0.2s-0.4-0.1-0.6-0.2c-0.2-0.1-0.4-0.1-0.6-0.2c-0.2-0.1-0.4-0.2-0.5-0.3s-0.3-0.3-0.4-0.5
			c-0.1-0.2-0.1-0.4-0.1-0.7c0-0.2,0-0.5,0.1-0.7c0.1-0.2,0.2-0.4,0.4-0.6c0.2-0.2,0.4-0.3,0.7-0.4s0.6-0.1,0.9-0.1
			c0.4,0,0.8,0.1,1.1,0.2s0.6,0.3,0.8,0.5L150,128.6z"/>
		<path class="st2" d="M152.7,127.6v3.9c0,0.5,0.1,0.8,0.3,1.1c0.2,0.3,0.5,0.4,1,0.4c0.3,0,0.6-0.1,0.9-0.2
			c0.3-0.1,0.5-0.4,0.8-0.6v-4.5h1.1v6.1H156c-0.2,0-0.2-0.1-0.3-0.2l-0.1-0.7c-0.3,0.3-0.6,0.5-0.9,0.7c-0.3,0.2-0.7,0.3-1.1,0.3
			c-0.3,0-0.6-0.1-0.9-0.2c-0.3-0.1-0.5-0.3-0.6-0.5s-0.3-0.4-0.4-0.7c-0.1-0.3-0.1-0.6-0.1-0.9v-3.9H152.7z"/>
		<path class="st2" d="M158.4,133.7v-6.1h0.6c0.2,0,0.2,0.1,0.3,0.2l0.1,0.6c0.2-0.3,0.5-0.5,0.8-0.7c0.3-0.2,0.6-0.3,1-0.3
			c0.4,0,0.7,0.1,1,0.3c0.3,0.2,0.4,0.5,0.5,0.9c0.1-0.2,0.2-0.4,0.3-0.6c0.1-0.2,0.3-0.3,0.5-0.4c0.2-0.1,0.4-0.2,0.5-0.2
			c0.2,0,0.4-0.1,0.6-0.1c0.3,0,0.6,0.1,0.9,0.2c0.2,0.1,0.5,0.3,0.6,0.4c0.2,0.2,0.3,0.4,0.4,0.7c0.1,0.3,0.1,0.6,0.1,1v3.9h-1.1
			v-3.9c0-0.5-0.1-0.8-0.3-1.1s-0.5-0.4-0.9-0.4c-0.2,0-0.3,0-0.5,0.1c-0.2,0.1-0.3,0.2-0.4,0.3c-0.1,0.1-0.2,0.3-0.3,0.5
			c-0.1,0.2-0.1,0.4-0.1,0.6v3.9H162v-3.9c0-0.5-0.1-0.9-0.3-1.1c-0.2-0.2-0.5-0.4-0.9-0.4c-0.3,0-0.5,0.1-0.7,0.2
			c-0.2,0.1-0.4,0.3-0.6,0.6v4.5H158.4z"/>
		<path class="st2" d="M170.7,127.5c0.4,0,0.8,0.1,1.2,0.2c0.4,0.1,0.7,0.4,0.9,0.6c0.2,0.3,0.4,0.6,0.6,1c0.1,0.4,0.2,0.8,0.2,1.3
			c0,0.5-0.1,0.9-0.2,1.3c-0.1,0.4-0.3,0.7-0.6,1c-0.2,0.3-0.6,0.5-0.9,0.6c-0.4,0.1-0.8,0.2-1.2,0.2s-0.8-0.1-1.2-0.2
			c-0.4-0.1-0.7-0.4-0.9-0.6c-0.3-0.3-0.4-0.6-0.6-1c-0.1-0.4-0.2-0.8-0.2-1.3c0-0.5,0.1-0.9,0.2-1.3c0.1-0.4,0.3-0.7,0.6-1
			c0.3-0.3,0.6-0.5,0.9-0.6C169.9,127.6,170.3,127.5,170.7,127.5z M170.7,132.9c0.6,0,1-0.2,1.3-0.6c0.3-0.4,0.4-1,0.4-1.7
			c0-0.7-0.1-1.3-0.4-1.7c-0.3-0.4-0.7-0.6-1.3-0.6c-0.3,0-0.6,0.1-0.8,0.2c-0.2,0.1-0.4,0.3-0.6,0.5c-0.1,0.2-0.3,0.4-0.3,0.7
			s-0.1,0.6-0.1,1s0,0.7,0.1,1s0.2,0.5,0.3,0.7c0.1,0.2,0.3,0.3,0.6,0.4C170.2,132.9,170.4,132.9,170.7,132.9z"/>
	</g>
	<g>
		<path class="st2" d="M336.8,107.1c0,0.1-0.1,0.1-0.1,0.1c0,0-0.1,0-0.2,0c-0.1,0-0.1,0-0.2-0.1c-0.1-0.1-0.2-0.1-0.3-0.2
			c-0.1-0.1-0.3-0.2-0.5-0.2c-0.2-0.1-0.4-0.1-0.7-0.1c-0.3,0-0.5,0-0.7,0.1c-0.2,0.1-0.4,0.2-0.5,0.3s-0.2,0.3-0.3,0.4
			c-0.1,0.2-0.1,0.3-0.1,0.5c0,0.2,0.1,0.4,0.2,0.6c0.1,0.2,0.3,0.3,0.5,0.4c0.2,0.1,0.4,0.2,0.7,0.3c0.2,0.1,0.5,0.2,0.8,0.3
			c0.3,0.1,0.5,0.2,0.8,0.3s0.5,0.2,0.7,0.4s0.3,0.4,0.5,0.6c0.1,0.2,0.2,0.5,0.2,0.9c0,0.4-0.1,0.7-0.2,1.1
			c-0.1,0.3-0.3,0.6-0.6,0.9s-0.5,0.4-0.9,0.6c-0.4,0.1-0.8,0.2-1.2,0.2c-0.6,0-1.1-0.1-1.5-0.3s-0.8-0.5-1.2-0.8l0.3-0.6
			c0,0,0.1-0.1,0.1-0.1c0,0,0.1,0,0.2,0c0.1,0,0.2,0,0.3,0.1c0.1,0.1,0.2,0.2,0.4,0.3c0.2,0.1,0.4,0.2,0.6,0.3
			c0.2,0.1,0.5,0.1,0.8,0.1c0.3,0,0.5,0,0.7-0.1c0.2-0.1,0.4-0.2,0.5-0.3c0.2-0.1,0.3-0.3,0.3-0.5c0.1-0.2,0.1-0.4,0.1-0.6
			c0-0.3-0.1-0.5-0.2-0.6s-0.3-0.3-0.5-0.4c-0.2-0.1-0.4-0.2-0.7-0.3c-0.2-0.1-0.5-0.2-0.8-0.2s-0.5-0.2-0.8-0.3s-0.5-0.2-0.7-0.4
			s-0.3-0.4-0.5-0.6s-0.2-0.6-0.2-1c0-0.3,0.1-0.6,0.2-0.9s0.3-0.5,0.5-0.8c0.2-0.2,0.5-0.4,0.8-0.5c0.3-0.1,0.7-0.2,1.1-0.2
			c0.5,0,0.9,0.1,1.3,0.2c0.4,0.2,0.7,0.4,1,0.7L336.8,107.1z"/>
		<path class="st2" d="M341,108.2c0.4,0,0.7,0.1,1,0.2c0.3,0.1,0.6,0.3,0.8,0.5c0.2,0.2,0.4,0.5,0.5,0.9s0.2,0.7,0.2,1.2
			c0,0.2,0,0.3-0.1,0.3c0,0.1-0.1,0.1-0.2,0.1h-4c0,0.4,0.1,0.7,0.2,1c0.1,0.3,0.2,0.5,0.4,0.7c0.2,0.2,0.4,0.3,0.6,0.4
			c0.2,0.1,0.5,0.1,0.8,0.1c0.3,0,0.5,0,0.7-0.1c0.2-0.1,0.4-0.1,0.5-0.2c0.1-0.1,0.3-0.1,0.4-0.2s0.2-0.1,0.2-0.1
			c0.1,0,0.2,0,0.2,0.1l0.3,0.4c-0.1,0.2-0.3,0.3-0.5,0.4c-0.2,0.1-0.4,0.2-0.6,0.3c-0.2,0.1-0.4,0.1-0.7,0.2
			c-0.2,0-0.4,0.1-0.7,0.1c-0.4,0-0.8-0.1-1.2-0.2c-0.4-0.1-0.7-0.4-0.9-0.6s-0.5-0.6-0.6-1c-0.1-0.4-0.2-0.9-0.2-1.4
			c0-0.4,0.1-0.8,0.2-1.2c0.1-0.4,0.3-0.7,0.6-1c0.2-0.3,0.5-0.5,0.9-0.6C340.2,108.2,340.5,108.2,341,108.2z M341,109
			c-0.5,0-0.9,0.1-1.2,0.4s-0.5,0.7-0.6,1.2h3.3c0-0.2,0-0.5-0.1-0.7c-0.1-0.2-0.2-0.4-0.3-0.5s-0.3-0.3-0.5-0.3
			C341.5,109,341.3,109,341,109z"/>
		<path class="st2" d="M344.9,114.3v-6.1h0.6c0.1,0,0.2,0,0.2,0.1c0,0,0.1,0.1,0.1,0.2l0.1,0.9c0.2-0.4,0.5-0.8,0.8-1
			c0.3-0.2,0.7-0.4,1.1-0.4c0.2,0,0.3,0,0.5,0.1c0.1,0,0.3,0.1,0.4,0.2l-0.1,0.8c0,0.1-0.1,0.1-0.2,0.1c-0.1,0-0.1,0-0.3-0.1
			c-0.1,0-0.3-0.1-0.5-0.1c-0.4,0-0.7,0.1-0.9,0.3s-0.5,0.5-0.6,0.9v3.9H344.9z"/>
		<path class="st2" d="M348.9,108.3h0.9c0.1,0,0.2,0,0.2,0.1c0.1,0,0.1,0.1,0.1,0.2l1.5,3.9c0.1,0.1,0.1,0.3,0.1,0.4
			c0,0.1,0.1,0.3,0.1,0.4c0-0.1,0.1-0.3,0.1-0.4c0-0.1,0.1-0.3,0.1-0.4l1.6-3.9c0-0.1,0.1-0.1,0.1-0.2c0.1,0,0.1-0.1,0.2-0.1h0.8
			l-2.5,6.1h-1L348.9,108.3z"/>
		<path class="st2" d="M357.3,106.4c0,0.1,0,0.2-0.1,0.3c0,0.1-0.1,0.2-0.2,0.2c-0.1,0.1-0.2,0.1-0.2,0.2s-0.2,0.1-0.3,0.1
			c-0.1,0-0.2,0-0.3-0.1s-0.2-0.1-0.2-0.2c-0.1-0.1-0.1-0.1-0.2-0.2c0-0.1-0.1-0.2-0.1-0.3s0-0.2,0.1-0.3c0-0.1,0.1-0.2,0.2-0.2
			c0.1-0.1,0.2-0.1,0.2-0.2s0.2-0.1,0.3-0.1c0.1,0,0.2,0,0.3,0.1s0.2,0.1,0.2,0.2c0.1,0.1,0.1,0.2,0.2,0.2
			C357.3,106.2,357.3,106.3,357.3,106.4z M357,108.3v6.1H356v-6.1H357z"/>
		<path class="st2" d="M360.4,115.8C360.5,115.8,360.5,115.8,360.4,115.8c0.1,0,0.2,0.1,0.2,0.1c0,0,0.1,0,0.2,0c0.1,0,0.1,0,0.2,0
			c0.2,0,0.3,0,0.4-0.1s0.1-0.2,0.1-0.3c0-0.1,0-0.1-0.1-0.2c0-0.1-0.1-0.1-0.2-0.1s-0.2-0.1-0.3-0.1s-0.3,0-0.4-0.1l0.2-0.7
			c-0.3,0-0.6-0.1-0.9-0.3c-0.3-0.2-0.5-0.4-0.7-0.6s-0.4-0.6-0.5-0.9c-0.1-0.4-0.2-0.8-0.2-1.2s0.1-0.9,0.2-1.3
			c0.1-0.4,0.3-0.7,0.6-1c0.2-0.3,0.5-0.5,0.9-0.7c0.4-0.2,0.8-0.2,1.2-0.2c0.4,0,0.8,0.1,1.1,0.2c0.3,0.1,0.6,0.3,0.9,0.6l-0.3,0.4
			c0,0-0.1,0.1-0.1,0.1s-0.1,0-0.1,0c-0.1,0-0.1,0-0.2-0.1c-0.1,0-0.2-0.1-0.3-0.2c-0.1-0.1-0.2-0.1-0.4-0.2c-0.2,0-0.3-0.1-0.6-0.1
			c-0.3,0-0.6,0.1-0.8,0.2c-0.2,0.1-0.4,0.3-0.6,0.5c-0.2,0.2-0.3,0.4-0.3,0.7c-0.1,0.3-0.1,0.6-0.1,1c0,0.4,0,0.7,0.1,1
			s0.2,0.5,0.4,0.7c0.2,0.2,0.3,0.3,0.6,0.4c0.2,0.1,0.5,0.2,0.7,0.2c0.3,0,0.5,0,0.6-0.1s0.3-0.1,0.4-0.2c0.1-0.1,0.2-0.1,0.3-0.2
			c0.1-0.1,0.1-0.1,0.2-0.1c0,0,0.1,0,0.1,0s0.1,0,0.1,0.1l0.3,0.4c-0.2,0.3-0.5,0.5-0.9,0.7c-0.3,0.1-0.7,0.2-1.1,0.3l-0.1,0.3
			c0.4,0.1,0.6,0.2,0.8,0.3c0.2,0.1,0.2,0.3,0.2,0.5c0,0.1,0,0.2-0.1,0.3c-0.1,0.1-0.2,0.2-0.3,0.3c-0.1,0.1-0.3,0.1-0.4,0.2
			s-0.3,0.1-0.5,0.1c-0.2,0-0.3,0-0.5-0.1c-0.1,0-0.3-0.1-0.4-0.1l0.1-0.3C360.3,115.9,360.4,115.8,360.4,115.8z"/>
		<path class="st2" d="M367,108.2c0.4,0,0.8,0.1,1.2,0.2c0.4,0.1,0.7,0.4,0.9,0.6s0.4,0.6,0.6,1s0.2,0.8,0.2,1.3
			c0,0.5-0.1,0.9-0.2,1.3c-0.1,0.4-0.3,0.7-0.6,1c-0.2,0.3-0.6,0.5-0.9,0.6c-0.4,0.1-0.8,0.2-1.2,0.2c-0.4,0-0.8-0.1-1.2-0.2
			c-0.4-0.1-0.7-0.4-0.9-0.6c-0.3-0.3-0.4-0.6-0.6-1c-0.1-0.4-0.2-0.8-0.2-1.3c0-0.5,0.1-0.9,0.2-1.3c0.1-0.4,0.3-0.7,0.6-1
			c0.3-0.3,0.6-0.5,0.9-0.6C366.1,108.2,366.5,108.2,367,108.2z M367,113.6c0.6,0,1-0.2,1.3-0.6c0.3-0.4,0.4-1,0.4-1.7
			c0-0.7-0.1-1.3-0.4-1.7c-0.3-0.4-0.7-0.6-1.3-0.6c-0.3,0-0.6,0.1-0.8,0.2c-0.2,0.1-0.4,0.3-0.6,0.5c-0.2,0.2-0.3,0.4-0.3,0.7
			s-0.1,0.6-0.1,1c0,0.4,0,0.7,0.1,1c0.1,0.3,0.2,0.5,0.3,0.7c0.1,0.2,0.3,0.3,0.6,0.4C366.4,113.5,366.7,113.6,367,113.6z"/>
		<path class="st2" d="M374.7,109.3c0,0.1-0.1,0.1-0.2,0.1c-0.1,0-0.1,0-0.2-0.1c-0.1,0-0.2-0.1-0.3-0.1c-0.1-0.1-0.2-0.1-0.4-0.1
			c-0.2,0-0.3-0.1-0.5-0.1c-0.2,0-0.3,0-0.5,0.1c-0.1,0-0.3,0.1-0.4,0.2c-0.1,0.1-0.2,0.2-0.2,0.3c-0.1,0.1-0.1,0.2-0.1,0.3
			c0,0.2,0,0.3,0.1,0.4c0.1,0.1,0.2,0.2,0.4,0.3c0.1,0.1,0.3,0.1,0.5,0.2c0.2,0.1,0.4,0.1,0.6,0.2c0.2,0.1,0.4,0.1,0.6,0.2
			c0.2,0.1,0.4,0.2,0.5,0.3c0.1,0.1,0.3,0.3,0.4,0.4c0.1,0.2,0.1,0.4,0.1,0.6c0,0.3,0,0.5-0.2,0.8c-0.1,0.2-0.2,0.4-0.4,0.6
			c-0.2,0.2-0.4,0.3-0.7,0.4c-0.3,0.1-0.6,0.2-1,0.2c-0.4,0-0.8-0.1-1.2-0.2c-0.3-0.1-0.6-0.3-0.9-0.5l0.3-0.4
			c0-0.1,0.1-0.1,0.1-0.1s0.1,0,0.2,0s0.1,0,0.2,0.1c0.1,0.1,0.2,0.1,0.3,0.2c0.1,0.1,0.3,0.1,0.4,0.2c0.2,0.1,0.4,0.1,0.6,0.1
			c0.2,0,0.4,0,0.5-0.1c0.2-0.1,0.3-0.1,0.4-0.2c0.1-0.1,0.2-0.2,0.2-0.3s0.1-0.2,0.1-0.4c0-0.2,0-0.3-0.1-0.4
			c-0.1-0.1-0.2-0.2-0.4-0.3c-0.1-0.1-0.3-0.1-0.5-0.2c-0.2-0.1-0.4-0.1-0.6-0.2s-0.4-0.1-0.6-0.2s-0.4-0.2-0.5-0.3
			c-0.1-0.1-0.3-0.3-0.4-0.5s-0.1-0.4-0.1-0.7c0-0.2,0-0.5,0.1-0.7c0.1-0.2,0.2-0.4,0.4-0.6c0.2-0.2,0.4-0.3,0.7-0.4
			c0.3-0.1,0.6-0.1,0.9-0.1c0.4,0,0.8,0.1,1.1,0.2c0.3,0.1,0.6,0.3,0.8,0.5L374.7,109.3z"/>
		<path class="st2" d="M383,114.3c-0.2,0-0.2-0.1-0.3-0.2l-0.1-0.7c-0.3,0.3-0.6,0.6-0.9,0.8c-0.3,0.2-0.7,0.3-1.1,0.3
			c-0.3,0-0.7-0.1-0.9-0.2c-0.3-0.1-0.5-0.3-0.7-0.6c-0.2-0.3-0.4-0.6-0.5-1c-0.1-0.4-0.2-0.8-0.2-1.3c0-0.4,0.1-0.9,0.2-1.3
			c0.1-0.4,0.3-0.7,0.5-1c0.2-0.3,0.5-0.5,0.8-0.7c0.3-0.2,0.7-0.2,1.1-0.2c0.4,0,0.7,0.1,1,0.2s0.5,0.3,0.7,0.5v-3.4h1.1v8.8H383z
			 M380.9,113.6c0.3,0,0.7-0.1,0.9-0.2c0.3-0.2,0.5-0.4,0.7-0.7v-2.9c-0.2-0.3-0.4-0.4-0.6-0.6c-0.2-0.1-0.5-0.2-0.8-0.2
			c-0.6,0-1,0.2-1.3,0.6c-0.3,0.4-0.5,1-0.5,1.7c0,0.4,0,0.7,0.1,1c0.1,0.3,0.2,0.5,0.3,0.7c0.1,0.2,0.3,0.3,0.5,0.4
			C380.5,113.5,380.7,113.6,380.9,113.6z"/>
		<path class="st2" d="M387.8,108.2c0.4,0,0.7,0.1,1,0.2c0.3,0.1,0.6,0.3,0.8,0.5c0.2,0.2,0.4,0.5,0.5,0.9s0.2,0.7,0.2,1.2
			c0,0.2,0,0.3-0.1,0.3c0,0.1-0.1,0.1-0.2,0.1h-4c0,0.4,0.1,0.7,0.2,1c0.1,0.3,0.2,0.5,0.4,0.7c0.2,0.2,0.4,0.3,0.6,0.4
			c0.2,0.1,0.5,0.1,0.8,0.1c0.3,0,0.5,0,0.7-0.1c0.2-0.1,0.4-0.1,0.5-0.2c0.1-0.1,0.3-0.1,0.4-0.2s0.2-0.1,0.2-0.1
			c0.1,0,0.2,0,0.2,0.1l0.3,0.4c-0.1,0.2-0.3,0.3-0.5,0.4c-0.2,0.1-0.4,0.2-0.6,0.3c-0.2,0.1-0.4,0.1-0.7,0.2
			c-0.2,0-0.4,0.1-0.7,0.1c-0.4,0-0.8-0.1-1.2-0.2c-0.4-0.1-0.7-0.4-0.9-0.6s-0.5-0.6-0.6-1c-0.1-0.4-0.2-0.9-0.2-1.4
			c0-0.4,0.1-0.8,0.2-1.2c0.1-0.4,0.3-0.7,0.6-1c0.2-0.3,0.5-0.5,0.9-0.6C387,108.2,387.4,108.2,387.8,108.2z M387.9,109
			c-0.5,0-0.9,0.1-1.2,0.4s-0.5,0.7-0.6,1.2h3.3c0-0.2,0-0.5-0.1-0.7c-0.1-0.2-0.2-0.4-0.3-0.5s-0.3-0.3-0.5-0.3
			C388.3,109,388.1,109,387.9,109z"/>
		<path class="st2" d="M397.5,109.3c0,0.1-0.1,0.1-0.2,0.1c-0.1,0-0.1,0-0.2-0.1c-0.1,0-0.2-0.1-0.3-0.1c-0.1-0.1-0.2-0.1-0.4-0.1
			c-0.2,0-0.3-0.1-0.5-0.1c-0.2,0-0.3,0-0.5,0.1c-0.1,0-0.3,0.1-0.4,0.2c-0.1,0.1-0.2,0.2-0.2,0.3c-0.1,0.1-0.1,0.2-0.1,0.3
			c0,0.2,0,0.3,0.1,0.4c0.1,0.1,0.2,0.2,0.4,0.3c0.1,0.1,0.3,0.1,0.5,0.2c0.2,0.1,0.4,0.1,0.6,0.2c0.2,0.1,0.4,0.1,0.6,0.2
			c0.2,0.1,0.4,0.2,0.5,0.3c0.1,0.1,0.3,0.3,0.4,0.4c0.1,0.2,0.1,0.4,0.1,0.6c0,0.3,0,0.5-0.2,0.8c-0.1,0.2-0.2,0.4-0.4,0.6
			c-0.2,0.2-0.4,0.3-0.7,0.4c-0.3,0.1-0.6,0.2-1,0.2c-0.4,0-0.8-0.1-1.2-0.2c-0.3-0.1-0.6-0.3-0.9-0.5l0.3-0.4
			c0-0.1,0.1-0.1,0.1-0.1s0.1,0,0.2,0s0.1,0,0.2,0.1c0.1,0.1,0.2,0.1,0.3,0.2c0.1,0.1,0.3,0.1,0.4,0.2c0.2,0.1,0.4,0.1,0.6,0.1
			c0.2,0,0.4,0,0.5-0.1c0.2-0.1,0.3-0.1,0.4-0.2c0.1-0.1,0.2-0.2,0.2-0.3s0.1-0.2,0.1-0.4c0-0.2,0-0.3-0.1-0.4
			c-0.1-0.1-0.2-0.2-0.4-0.3c-0.1-0.1-0.3-0.1-0.5-0.2c-0.2-0.1-0.4-0.1-0.6-0.2s-0.4-0.1-0.6-0.2s-0.4-0.2-0.5-0.3
			c-0.1-0.1-0.3-0.3-0.4-0.5s-0.1-0.4-0.1-0.7c0-0.2,0-0.5,0.1-0.7c0.1-0.2,0.2-0.4,0.4-0.6c0.2-0.2,0.4-0.3,0.7-0.4
			c0.3-0.1,0.6-0.1,0.9-0.1c0.4,0,0.8,0.1,1.1,0.2c0.3,0.1,0.6,0.3,0.8,0.5L397.5,109.3z"/>
		<path class="st2" d="M403.7,114.3h-0.5c-0.1,0-0.2,0-0.3,0c-0.1,0-0.1-0.1-0.1-0.2l-0.1-0.6c-0.2,0.1-0.3,0.3-0.5,0.4
			c-0.2,0.1-0.3,0.2-0.5,0.3s-0.3,0.1-0.5,0.2c-0.2,0-0.4,0.1-0.6,0.1c-0.2,0-0.5,0-0.7-0.1c-0.2-0.1-0.4-0.2-0.5-0.3
			c-0.2-0.1-0.3-0.3-0.4-0.5s-0.1-0.4-0.1-0.7c0-0.2,0.1-0.5,0.2-0.7s0.3-0.4,0.6-0.6c0.3-0.2,0.7-0.3,1.2-0.4
			c0.5-0.1,1.1-0.2,1.7-0.2v-0.5c0-0.5-0.1-0.8-0.3-1.1s-0.5-0.4-0.9-0.4c-0.3,0-0.5,0-0.7,0.1c-0.2,0.1-0.3,0.1-0.5,0.2
			c-0.1,0.1-0.2,0.2-0.3,0.2c-0.1,0.1-0.2,0.1-0.3,0.1c-0.1,0-0.1,0-0.2-0.1c-0.1,0-0.1-0.1-0.1-0.1l-0.2-0.3
			c0.3-0.3,0.7-0.6,1.1-0.7c0.4-0.2,0.8-0.2,1.3-0.2c0.3,0,0.6,0.1,0.9,0.2c0.3,0.1,0.5,0.3,0.7,0.5c0.2,0.2,0.3,0.4,0.4,0.7
			c0.1,0.3,0.1,0.6,0.1,0.9V114.3z M400.9,113.7c0.2,0,0.4,0,0.5-0.1c0.2,0,0.3-0.1,0.4-0.2c0.1-0.1,0.3-0.2,0.4-0.3
			s0.2-0.2,0.4-0.3v-1.3c-0.5,0-0.9,0-1.3,0.1s-0.6,0.1-0.8,0.2c-0.2,0.1-0.4,0.2-0.5,0.4c-0.1,0.1-0.1,0.3-0.1,0.5
			c0,0.2,0,0.3,0.1,0.4s0.1,0.2,0.2,0.3c0.1,0.1,0.2,0.1,0.3,0.2C400.7,113.7,400.8,113.7,400.9,113.7z"/>
		<path class="st2" d="M406.3,108.3v3.9c0,0.5,0.1,0.8,0.3,1.1c0.2,0.3,0.5,0.4,1,0.4c0.3,0,0.6-0.1,0.9-0.2
			c0.3-0.1,0.5-0.4,0.8-0.6v-4.5h1.1v6.1h-0.6c-0.2,0-0.2-0.1-0.3-0.2l-0.1-0.7c-0.3,0.3-0.6,0.5-0.9,0.7c-0.3,0.2-0.7,0.3-1.1,0.3
			c-0.3,0-0.6-0.1-0.9-0.2c-0.3-0.1-0.5-0.3-0.6-0.5c-0.2-0.2-0.3-0.4-0.4-0.7c-0.1-0.3-0.1-0.6-0.1-0.9v-3.9H406.3z M409.5,105.7
			l-1.4,1.5c-0.1,0.1-0.1,0.1-0.2,0.1c-0.1,0-0.1,0-0.2,0h-0.6l0.9-1.5c0.1-0.1,0.1-0.2,0.2-0.2c0.1,0,0.2-0.1,0.3-0.1H409.5z"/>
		<path class="st2" d="M416.3,114.3c-0.2,0-0.2-0.1-0.3-0.2l-0.1-0.7c-0.3,0.3-0.6,0.6-0.9,0.8c-0.3,0.2-0.7,0.3-1.1,0.3
			c-0.3,0-0.7-0.1-0.9-0.2c-0.3-0.1-0.5-0.3-0.7-0.6c-0.2-0.3-0.4-0.6-0.5-1c-0.1-0.4-0.2-0.8-0.2-1.3c0-0.4,0.1-0.9,0.2-1.3
			c0.1-0.4,0.3-0.7,0.5-1c0.2-0.3,0.5-0.5,0.8-0.7s0.7-0.2,1.1-0.2c0.4,0,0.7,0.1,1,0.2c0.3,0.1,0.5,0.3,0.7,0.5v-3.4h1.1v8.8H416.3
			z M414.2,113.6c0.3,0,0.7-0.1,0.9-0.2s0.5-0.4,0.7-0.7v-2.9c-0.2-0.3-0.4-0.4-0.6-0.6s-0.5-0.2-0.8-0.2c-0.6,0-1,0.2-1.3,0.6
			c-0.3,0.4-0.5,1-0.5,1.7c0,0.4,0,0.7,0.1,1c0.1,0.3,0.2,0.5,0.3,0.7c0.1,0.2,0.3,0.3,0.5,0.4C413.7,113.5,414,113.6,414.2,113.6z"
			/>
		<path class="st2" d="M421.1,108.2c0.4,0,0.7,0.1,1,0.2c0.3,0.1,0.6,0.3,0.8,0.5c0.2,0.2,0.4,0.5,0.5,0.9s0.2,0.7,0.2,1.2
			c0,0.2,0,0.3-0.1,0.3c0,0.1-0.1,0.1-0.2,0.1h-4c0,0.4,0.1,0.7,0.2,1c0.1,0.3,0.2,0.5,0.4,0.7c0.2,0.2,0.4,0.3,0.6,0.4
			c0.2,0.1,0.5,0.1,0.8,0.1c0.3,0,0.5,0,0.7-0.1c0.2-0.1,0.4-0.1,0.5-0.2c0.1-0.1,0.3-0.1,0.4-0.2c0.1-0.1,0.2-0.1,0.2-0.1
			c0.1,0,0.2,0,0.2,0.1l0.3,0.4c-0.1,0.2-0.3,0.3-0.5,0.4c-0.2,0.1-0.4,0.2-0.6,0.3c-0.2,0.1-0.4,0.1-0.7,0.2
			c-0.2,0-0.4,0.1-0.7,0.1c-0.4,0-0.8-0.1-1.2-0.2c-0.4-0.1-0.7-0.4-0.9-0.6c-0.3-0.3-0.5-0.6-0.6-1c-0.1-0.4-0.2-0.9-0.2-1.4
			c0-0.4,0.1-0.8,0.2-1.2c0.1-0.4,0.3-0.7,0.6-1s0.5-0.5,0.9-0.6C420.3,108.2,420.7,108.2,421.1,108.2z M421.1,109
			c-0.5,0-0.9,0.1-1.2,0.4s-0.5,0.7-0.6,1.2h3.3c0-0.2,0-0.5-0.1-0.7s-0.2-0.4-0.3-0.5s-0.3-0.3-0.5-0.3
			C421.6,109,421.4,109,421.1,109z"/>
		<path class="st2" d="M355.9,130.8v-8.1h0.6c0.2,0,0.2,0.1,0.3,0.2l0.1,0.7c0.3-0.3,0.6-0.6,0.9-0.8c0.3-0.2,0.7-0.3,1.2-0.3
			c0.3,0,0.7,0.1,0.9,0.2s0.5,0.3,0.7,0.6c0.2,0.3,0.4,0.6,0.5,1c0.1,0.4,0.2,0.8,0.2,1.3c0,0.4-0.1,0.9-0.2,1.3s-0.3,0.7-0.5,1
			c-0.2,0.3-0.5,0.5-0.8,0.7s-0.7,0.2-1.1,0.2c-0.4,0-0.7-0.1-1-0.2c-0.3-0.1-0.5-0.3-0.7-0.5v2.7H355.9z M358.6,123.4
			c-0.3,0-0.7,0.1-0.9,0.2c-0.3,0.2-0.5,0.4-0.7,0.7v2.9c0.2,0.3,0.4,0.4,0.6,0.6s0.5,0.2,0.8,0.2c0.6,0,1-0.2,1.3-0.6
			c0.3-0.4,0.5-1,0.5-1.7c0-0.4,0-0.7-0.1-1c-0.1-0.3-0.2-0.5-0.3-0.7c-0.1-0.2-0.3-0.3-0.5-0.4
			C359.1,123.5,358.9,123.4,358.6,123.4z"/>
		<path class="st2" d="M362.6,128.7v-6.1h0.6c0.1,0,0.2,0,0.2,0.1c0,0,0.1,0.1,0.1,0.2l0.1,0.9c0.2-0.4,0.5-0.8,0.8-1
			c0.3-0.2,0.7-0.4,1.1-0.4c0.2,0,0.3,0,0.5,0.1c0.1,0,0.3,0.1,0.4,0.2l-0.1,0.8c0,0.1-0.1,0.1-0.2,0.1c-0.1,0-0.1,0-0.3-0.1
			c-0.1,0-0.3-0.1-0.5-0.1c-0.4,0-0.7,0.1-0.9,0.3s-0.5,0.5-0.6,0.9v3.9H362.6z"/>
		<path class="st2" d="M368.8,120.8c0,0.1,0,0.2-0.1,0.3s-0.1,0.2-0.2,0.2c-0.1,0.1-0.2,0.1-0.2,0.2c-0.1,0-0.2,0.1-0.3,0.1
			c-0.1,0-0.2,0-0.3-0.1c-0.1,0-0.2-0.1-0.2-0.2c-0.1-0.1-0.1-0.2-0.2-0.2s-0.1-0.2-0.1-0.3c0-0.1,0-0.2,0.1-0.3s0.1-0.2,0.2-0.2
			c0.1-0.1,0.1-0.1,0.2-0.2c0.1,0,0.2-0.1,0.3-0.1c0.1,0,0.2,0,0.3,0.1c0.1,0,0.2,0.1,0.2,0.2c0.1,0.1,0.1,0.2,0.2,0.2
			S368.8,120.7,368.8,120.8z M368.6,122.7v6.1h-1.1v-6.1H368.6z"/>
		<path class="st2" d="M369.7,122.7h0.9c0.1,0,0.2,0,0.2,0.1c0.1,0,0.1,0.1,0.1,0.2l1.5,3.9c0.1,0.1,0.1,0.3,0.1,0.4
			c0,0.1,0.1,0.3,0.1,0.4c0-0.1,0.1-0.3,0.1-0.4c0-0.1,0.1-0.3,0.1-0.4l1.6-3.9c0-0.1,0.1-0.1,0.1-0.2s0.1-0.1,0.2-0.1h0.8l-2.5,6.1
			h-1L369.7,122.7z"/>
		<path class="st2" d="M381.1,128.7h-0.5c-0.1,0-0.2,0-0.3,0c-0.1,0-0.1-0.1-0.1-0.2l-0.1-0.6c-0.2,0.1-0.3,0.3-0.5,0.4
			c-0.2,0.1-0.3,0.2-0.5,0.3s-0.3,0.1-0.5,0.2c-0.2,0-0.4,0.1-0.6,0.1c-0.2,0-0.5,0-0.7-0.1c-0.2-0.1-0.4-0.2-0.5-0.3
			c-0.2-0.1-0.3-0.3-0.4-0.5c-0.1-0.2-0.1-0.4-0.1-0.7c0-0.2,0.1-0.5,0.2-0.7s0.3-0.4,0.6-0.6c0.3-0.2,0.7-0.3,1.2-0.4
			c0.5-0.1,1.1-0.2,1.7-0.2v-0.5c0-0.5-0.1-0.8-0.3-1.1c-0.2-0.2-0.5-0.4-0.9-0.4c-0.3,0-0.5,0-0.7,0.1c-0.2,0.1-0.3,0.1-0.5,0.2
			s-0.2,0.2-0.3,0.2s-0.2,0.1-0.3,0.1c-0.1,0-0.1,0-0.2-0.1c-0.1,0-0.1-0.1-0.1-0.1l-0.2-0.3c0.3-0.3,0.7-0.6,1.1-0.7
			s0.8-0.2,1.3-0.2c0.3,0,0.6,0.1,0.9,0.2c0.3,0.1,0.5,0.3,0.7,0.5c0.2,0.2,0.3,0.4,0.4,0.7c0.1,0.3,0.1,0.6,0.1,0.9V128.7z
			 M378.3,128.1c0.2,0,0.4,0,0.5-0.1s0.3-0.1,0.4-0.2c0.1-0.1,0.3-0.2,0.4-0.3c0.1-0.1,0.2-0.2,0.4-0.3V126c-0.5,0-0.9,0-1.3,0.1
			c-0.3,0.1-0.6,0.1-0.8,0.2c-0.2,0.1-0.4,0.2-0.5,0.4s-0.1,0.3-0.1,0.5c0,0.2,0,0.3,0.1,0.4c0.1,0.1,0.1,0.2,0.2,0.3
			c0.1,0.1,0.2,0.1,0.3,0.2S378.2,128.1,378.3,128.1z"/>
		<path class="st2" d="M387,128.7c-0.2,0-0.2-0.1-0.3-0.2l-0.1-0.7c-0.3,0.3-0.6,0.6-0.9,0.8s-0.7,0.3-1.1,0.3
			c-0.3,0-0.7-0.1-0.9-0.2c-0.3-0.1-0.5-0.3-0.7-0.6s-0.4-0.6-0.5-1c-0.1-0.4-0.2-0.8-0.2-1.3c0-0.4,0.1-0.9,0.2-1.3
			c0.1-0.4,0.3-0.7,0.5-1c0.2-0.3,0.5-0.5,0.8-0.7c0.3-0.2,0.7-0.2,1.1-0.2c0.4,0,0.7,0.1,1,0.2s0.5,0.3,0.7,0.5v-3.4h1.1v8.8H387z
			 M384.9,128c0.3,0,0.7-0.1,0.9-0.2c0.3-0.2,0.5-0.4,0.7-0.7v-2.9c-0.2-0.3-0.4-0.4-0.6-0.6c-0.2-0.1-0.5-0.2-0.8-0.2
			c-0.6,0-1,0.2-1.3,0.6c-0.3,0.4-0.5,1-0.5,1.7c0,0.4,0,0.7,0.1,1c0.1,0.3,0.2,0.5,0.3,0.7c0.1,0.2,0.3,0.3,0.5,0.4
			S384.7,128,384.9,128z"/>
		<path class="st2" d="M391.9,122.6c0.4,0,0.8,0.1,1.2,0.2c0.4,0.1,0.7,0.4,0.9,0.6c0.2,0.3,0.4,0.6,0.6,1c0.1,0.4,0.2,0.8,0.2,1.3
			c0,0.5-0.1,0.9-0.2,1.3c-0.1,0.4-0.3,0.7-0.6,1c-0.2,0.3-0.6,0.5-0.9,0.6c-0.4,0.1-0.8,0.2-1.2,0.2c-0.4,0-0.8-0.1-1.2-0.2
			c-0.4-0.1-0.7-0.4-0.9-0.6c-0.3-0.3-0.4-0.6-0.6-1s-0.2-0.8-0.2-1.3c0-0.5,0.1-0.9,0.2-1.3c0.1-0.4,0.3-0.7,0.6-1
			c0.3-0.3,0.6-0.5,0.9-0.6C391,122.6,391.4,122.6,391.9,122.6z M391.9,128c0.6,0,1-0.2,1.3-0.6c0.3-0.4,0.4-1,0.4-1.7
			c0-0.7-0.1-1.3-0.4-1.7c-0.3-0.4-0.7-0.6-1.3-0.6c-0.3,0-0.6,0.1-0.8,0.2c-0.2,0.1-0.4,0.3-0.6,0.5c-0.1,0.2-0.3,0.4-0.3,0.7
			s-0.1,0.6-0.1,1s0,0.7,0.1,1s0.2,0.5,0.3,0.7c0.2,0.2,0.3,0.3,0.6,0.4C391.3,127.9,391.6,128,391.9,128z"/>
		<path class="st2" d="M399.6,123.7c0,0.1-0.1,0.1-0.2,0.1c-0.1,0-0.1,0-0.2-0.1c-0.1,0-0.2-0.1-0.3-0.1c-0.1-0.1-0.2-0.1-0.4-0.2
			c-0.2,0-0.3-0.1-0.5-0.1c-0.2,0-0.3,0-0.5,0.1c-0.1,0-0.3,0.1-0.4,0.2c-0.1,0.1-0.2,0.2-0.2,0.3c-0.1,0.1-0.1,0.2-0.1,0.3
			c0,0.2,0,0.3,0.1,0.4c0.1,0.1,0.2,0.2,0.4,0.3c0.1,0.1,0.3,0.1,0.5,0.2c0.2,0.1,0.4,0.1,0.6,0.2c0.2,0.1,0.4,0.1,0.6,0.2
			c0.2,0.1,0.4,0.2,0.5,0.3c0.1,0.1,0.3,0.3,0.4,0.4s0.1,0.4,0.1,0.6c0,0.3-0.1,0.5-0.2,0.8c-0.1,0.2-0.2,0.4-0.4,0.6
			c-0.2,0.2-0.4,0.3-0.7,0.4c-0.3,0.1-0.6,0.2-1,0.2c-0.4,0-0.8-0.1-1.2-0.2c-0.3-0.1-0.6-0.3-0.9-0.5l0.3-0.4
			c0-0.1,0.1-0.1,0.1-0.1c0,0,0.1,0,0.2,0c0.1,0,0.1,0,0.2,0.1c0.1,0.1,0.2,0.1,0.3,0.2c0.1,0.1,0.3,0.1,0.4,0.2
			c0.2,0.1,0.4,0.1,0.6,0.1c0.2,0,0.4,0,0.5-0.1c0.2-0.1,0.3-0.1,0.4-0.2c0.1-0.1,0.2-0.2,0.2-0.3c0-0.1,0.1-0.2,0.1-0.4
			c0-0.2,0-0.3-0.1-0.4c-0.1-0.1-0.2-0.2-0.4-0.3c-0.1-0.1-0.3-0.1-0.5-0.2c-0.2-0.1-0.4-0.1-0.6-0.2c-0.2-0.1-0.4-0.1-0.6-0.2
			c-0.2-0.1-0.4-0.2-0.5-0.3c-0.1-0.1-0.3-0.3-0.4-0.5c-0.1-0.2-0.1-0.4-0.1-0.7c0-0.2,0-0.5,0.1-0.7s0.2-0.4,0.4-0.6
			s0.4-0.3,0.7-0.4c0.3-0.1,0.6-0.1,0.9-0.1c0.4,0,0.8,0.1,1.1,0.2c0.3,0.1,0.6,0.3,0.8,0.5L399.6,123.7z"/>
	</g>
	<g>
		<path class="st2" d="M231.3,192.3v1h-2.8v7.6h-1.2v-7.6h-2.8v-1H231.3z"/>
		<path class="st2" d="M233.5,194.7c0.4,0,0.7,0.1,1,0.2c0.3,0.1,0.6,0.3,0.8,0.5c0.2,0.2,0.4,0.5,0.5,0.9s0.2,0.7,0.2,1.2
			c0,0.2,0,0.3-0.1,0.3c0,0.1-0.1,0.1-0.2,0.1h-4c0,0.4,0.1,0.7,0.2,1c0.1,0.3,0.2,0.5,0.4,0.7c0.2,0.2,0.4,0.3,0.6,0.4
			s0.5,0.1,0.8,0.1c0.3,0,0.5,0,0.7-0.1c0.2-0.1,0.4-0.1,0.5-0.2s0.3-0.1,0.4-0.2c0.1-0.1,0.2-0.1,0.2-0.1c0.1,0,0.2,0,0.2,0.1
			l0.3,0.4c-0.1,0.2-0.3,0.3-0.5,0.4s-0.4,0.2-0.6,0.3s-0.4,0.1-0.7,0.2c-0.2,0-0.4,0.1-0.7,0.1c-0.4,0-0.8-0.1-1.2-0.2
			s-0.7-0.3-0.9-0.6c-0.3-0.3-0.5-0.6-0.6-1s-0.2-0.9-0.2-1.4c0-0.4,0.1-0.8,0.2-1.2c0.1-0.4,0.3-0.7,0.6-1c0.2-0.3,0.5-0.5,0.9-0.6
			C232.6,194.8,233,194.7,233.5,194.7z M233.5,195.5c-0.5,0-0.9,0.1-1.2,0.4s-0.5,0.7-0.6,1.2h3.3c0-0.2,0-0.5-0.1-0.7
			c-0.1-0.2-0.2-0.4-0.3-0.5c-0.1-0.1-0.3-0.3-0.5-0.3S233.7,195.5,233.5,195.5z"/>
		<path class="st2" d="M241.5,195.9c0,0-0.1,0.1-0.1,0.1c0,0-0.1,0-0.1,0s-0.1,0-0.2-0.1c-0.1,0-0.2-0.1-0.3-0.2
			c-0.1-0.1-0.2-0.1-0.4-0.2c-0.2,0-0.3-0.1-0.6-0.1c-0.3,0-0.6,0.1-0.8,0.2c-0.2,0.1-0.4,0.3-0.6,0.5c-0.2,0.2-0.3,0.4-0.3,0.7
			c-0.1,0.3-0.1,0.6-0.1,1c0,0.4,0,0.7,0.1,1s0.2,0.5,0.4,0.7s0.3,0.3,0.6,0.4c0.2,0.1,0.5,0.2,0.7,0.2c0.3,0,0.5,0,0.6-0.1
			c0.2-0.1,0.3-0.1,0.4-0.2s0.2-0.1,0.3-0.2c0.1-0.1,0.1-0.1,0.2-0.1c0.1,0,0.2,0,0.2,0.1l0.3,0.4c-0.3,0.3-0.6,0.6-1,0.7
			c-0.4,0.1-0.8,0.2-1.3,0.2c-0.4,0-0.7-0.1-1.1-0.2c-0.3-0.1-0.6-0.3-0.8-0.6c-0.2-0.3-0.4-0.6-0.6-1c-0.1-0.4-0.2-0.8-0.2-1.3
			c0-0.5,0.1-0.9,0.2-1.3s0.3-0.7,0.6-1c0.2-0.3,0.5-0.5,0.9-0.7c0.4-0.2,0.8-0.2,1.2-0.2c0.4,0,0.8,0.1,1.1,0.2
			c0.3,0.1,0.6,0.3,0.9,0.6L241.5,195.9z"/>
		<path class="st2" d="M242.9,200.9v-6.1h0.6c0.2,0,0.2,0.1,0.3,0.2l0.1,0.7c0.3-0.3,0.6-0.5,0.9-0.7c0.3-0.2,0.7-0.3,1.1-0.3
			c0.3,0,0.6,0.1,0.9,0.2c0.3,0.1,0.5,0.3,0.6,0.5s0.3,0.4,0.4,0.7c0.1,0.3,0.1,0.6,0.1,0.9v3.9h-1.1V197c0-0.5-0.1-0.8-0.3-1.1
			c-0.2-0.3-0.5-0.4-1-0.4c-0.3,0-0.6,0.1-0.9,0.2s-0.5,0.4-0.8,0.6v4.5H242.9z"/>
		<path class="st2" d="M252.1,194.7c0.4,0,0.8,0.1,1.2,0.2c0.4,0.1,0.7,0.4,0.9,0.6c0.2,0.3,0.4,0.6,0.6,1c0.1,0.4,0.2,0.8,0.2,1.3
			c0,0.5-0.1,0.9-0.2,1.3c-0.1,0.4-0.3,0.7-0.6,1s-0.6,0.5-0.9,0.6s-0.8,0.2-1.2,0.2s-0.8-0.1-1.2-0.2s-0.7-0.4-0.9-0.6
			c-0.3-0.3-0.4-0.6-0.6-1c-0.1-0.4-0.2-0.8-0.2-1.3c0-0.5,0.1-0.9,0.2-1.3c0.1-0.4,0.3-0.7,0.6-1c0.3-0.3,0.6-0.5,0.9-0.6
			C251.2,194.8,251.6,194.7,252.1,194.7z M252.1,200.1c0.6,0,1-0.2,1.3-0.6c0.3-0.4,0.4-1,0.4-1.7c0-0.7-0.1-1.3-0.4-1.7
			c-0.3-0.4-0.7-0.6-1.3-0.6c-0.3,0-0.6,0.1-0.8,0.2c-0.2,0.1-0.4,0.3-0.6,0.5s-0.3,0.4-0.3,0.7s-0.1,0.6-0.1,1c0,0.4,0,0.7,0.1,1
			c0.1,0.3,0.2,0.5,0.3,0.7c0.1,0.2,0.3,0.3,0.6,0.4C251.5,200.1,251.8,200.1,252.1,200.1z"/>
		<path class="st2" d="M257.5,192v8.8h-1.1V192H257.5z"/>
		<path class="st2" d="M261.8,194.7c0.4,0,0.8,0.1,1.2,0.2c0.4,0.1,0.7,0.4,0.9,0.6c0.2,0.3,0.4,0.6,0.6,1c0.1,0.4,0.2,0.8,0.2,1.3
			c0,0.5-0.1,0.9-0.2,1.3c-0.1,0.4-0.3,0.7-0.6,1s-0.6,0.5-0.9,0.6c-0.4,0.1-0.8,0.2-1.2,0.2c-0.4,0-0.8-0.1-1.2-0.2
			c-0.4-0.1-0.7-0.4-0.9-0.6s-0.4-0.6-0.6-1c-0.1-0.4-0.2-0.8-0.2-1.3c0-0.5,0.1-0.9,0.2-1.3c0.1-0.4,0.3-0.7,0.6-1
			c0.3-0.3,0.6-0.5,0.9-0.6C261,194.8,261.4,194.7,261.8,194.7z M261.8,200.1c0.6,0,1-0.2,1.3-0.6c0.3-0.4,0.4-1,0.4-1.7
			c0-0.7-0.1-1.3-0.4-1.7s-0.7-0.6-1.3-0.6c-0.3,0-0.6,0.1-0.8,0.2c-0.2,0.1-0.4,0.3-0.6,0.5c-0.1,0.2-0.3,0.4-0.3,0.7
			s-0.1,0.6-0.1,1c0,0.4,0,0.7,0.1,1c0.1,0.3,0.2,0.5,0.3,0.7c0.2,0.2,0.3,0.3,0.6,0.4C261.2,200.1,261.5,200.1,261.8,200.1z"/>
		<path class="st2" d="M268.1,194.7c0.3,0,0.5,0,0.7,0.1c0.2,0.1,0.4,0.1,0.6,0.3h1.6v0.4c0,0.1-0.1,0.2-0.3,0.3l-0.7,0.1
			c0.1,0.3,0.2,0.5,0.2,0.9c0,0.3-0.1,0.6-0.2,0.8c-0.1,0.2-0.3,0.4-0.5,0.6s-0.4,0.3-0.7,0.4c-0.3,0.1-0.6,0.1-0.9,0.1
			c-0.3,0-0.6,0-0.8-0.1c-0.1,0.1-0.2,0.2-0.3,0.3c-0.1,0.1-0.1,0.2-0.1,0.3c0,0.1,0.1,0.3,0.2,0.3c0.1,0.1,0.3,0.1,0.5,0.2
			c0.2,0,0.4,0,0.7,0s0.5,0,0.7,0s0.5,0,0.7,0.1c0.2,0,0.5,0.1,0.7,0.2c0.2,0.1,0.3,0.2,0.5,0.4c0.1,0.2,0.2,0.4,0.2,0.7
			c0,0.3-0.1,0.5-0.2,0.8s-0.3,0.5-0.6,0.7s-0.5,0.3-0.9,0.5c-0.4,0.1-0.8,0.2-1.2,0.2c-0.4,0-0.8,0-1.2-0.1
			c-0.3-0.1-0.6-0.2-0.8-0.4c-0.2-0.1-0.4-0.3-0.5-0.5s-0.2-0.4-0.2-0.6c0-0.3,0.1-0.6,0.3-0.8c0.2-0.2,0.5-0.4,0.8-0.5
			c-0.2-0.1-0.3-0.2-0.4-0.3c-0.1-0.1-0.2-0.3-0.2-0.5c0-0.1,0-0.2,0-0.3c0-0.1,0.1-0.2,0.1-0.3c0.1-0.1,0.1-0.2,0.2-0.3
			c0.1-0.1,0.2-0.2,0.3-0.2c-0.3-0.2-0.5-0.4-0.7-0.7c-0.2-0.3-0.3-0.6-0.3-1c0-0.3,0.1-0.6,0.2-0.8c0.1-0.2,0.3-0.4,0.5-0.6
			s0.4-0.3,0.7-0.4C267.4,194.7,267.7,194.7,268.1,194.7z M270,201.2c0-0.2,0-0.3-0.1-0.4s-0.2-0.2-0.3-0.2
			c-0.1-0.1-0.3-0.1-0.5-0.1c-0.2,0-0.4,0-0.6,0s-0.4,0-0.6,0c-0.2,0-0.4,0-0.6-0.1c-0.2,0.1-0.4,0.2-0.6,0.4
			c-0.1,0.2-0.2,0.3-0.2,0.6c0,0.1,0,0.3,0.1,0.4s0.2,0.2,0.3,0.3c0.1,0.1,0.3,0.2,0.5,0.2c0.2,0,0.5,0.1,0.8,0.1
			c0.3,0,0.5,0,0.8-0.1c0.2-0.1,0.4-0.1,0.6-0.2c0.2-0.1,0.3-0.2,0.4-0.3C269.9,201.5,270,201.3,270,201.2z M268.1,197.9
			c0.2,0,0.4,0,0.6-0.1c0.2-0.1,0.3-0.1,0.4-0.3c0.1-0.1,0.2-0.2,0.3-0.4c0.1-0.1,0.1-0.3,0.1-0.5c0-0.4-0.1-0.7-0.3-0.9
			c-0.2-0.2-0.6-0.3-1-0.3c-0.4,0-0.8,0.1-1,0.3c-0.2,0.2-0.3,0.5-0.3,0.9c0,0.2,0,0.3,0.1,0.5c0.1,0.2,0.1,0.3,0.3,0.4
			c0.1,0.1,0.2,0.2,0.4,0.3C267.7,197.9,267.9,197.9,268.1,197.9z"/>
		<path class="st2" d="M273.6,192.9c0,0.1,0,0.2-0.1,0.3c0,0.1-0.1,0.2-0.2,0.2c-0.1,0.1-0.2,0.1-0.2,0.2c-0.1,0-0.2,0.1-0.3,0.1
			c-0.1,0-0.2,0-0.3-0.1c-0.1,0-0.2-0.1-0.2-0.2c-0.1-0.1-0.1-0.1-0.2-0.2c0-0.1-0.1-0.2-0.1-0.3c0-0.1,0-0.2,0.1-0.3
			c0-0.1,0.1-0.2,0.2-0.2c0.1-0.1,0.1-0.1,0.2-0.2c0.1,0,0.2-0.1,0.3-0.1c0.1,0,0.2,0,0.3,0.1c0.1,0,0.2,0.1,0.2,0.2
			c0.1,0.1,0.1,0.2,0.2,0.2C273.6,192.7,273.6,192.8,273.6,192.9z M273.3,194.8v6.1h-1.1v-6.1H273.3z"/>
		<path class="st2" d="M279.7,200.9h-0.5c-0.1,0-0.2,0-0.3,0c-0.1,0-0.1-0.1-0.1-0.2l-0.1-0.6c-0.2,0.1-0.3,0.3-0.5,0.4
			c-0.2,0.1-0.3,0.2-0.5,0.3s-0.3,0.1-0.5,0.2c-0.2,0-0.4,0.1-0.6,0.1c-0.2,0-0.5,0-0.7-0.1s-0.4-0.2-0.5-0.3
			c-0.2-0.1-0.3-0.3-0.4-0.5c-0.1-0.2-0.1-0.4-0.1-0.7c0-0.2,0.1-0.5,0.2-0.7s0.3-0.4,0.6-0.6s0.7-0.3,1.2-0.4
			c0.5-0.1,1.1-0.2,1.7-0.2V197c0-0.5-0.1-0.8-0.3-1.1c-0.2-0.2-0.5-0.4-0.9-0.4c-0.3,0-0.5,0-0.7,0.1c-0.2,0.1-0.3,0.1-0.5,0.2
			c-0.1,0.1-0.2,0.2-0.3,0.2c-0.1,0.1-0.2,0.1-0.3,0.1c-0.1,0-0.1,0-0.2-0.1c-0.1,0-0.1-0.1-0.1-0.1l-0.2-0.3
			c0.3-0.3,0.7-0.6,1.1-0.7c0.4-0.2,0.8-0.2,1.3-0.2c0.3,0,0.6,0.1,0.9,0.2c0.3,0.1,0.5,0.3,0.7,0.5c0.2,0.2,0.3,0.4,0.4,0.7
			c0.1,0.3,0.1,0.6,0.1,0.9V200.9z M276.9,200.2c0.2,0,0.4,0,0.5-0.1c0.2,0,0.3-0.1,0.4-0.2c0.1-0.1,0.3-0.2,0.4-0.3
			c0.1-0.1,0.2-0.2,0.4-0.3v-1.3c-0.5,0-0.9,0-1.3,0.1s-0.6,0.1-0.8,0.2s-0.4,0.2-0.5,0.4c-0.1,0.1-0.1,0.3-0.1,0.5
			c0,0.2,0,0.3,0.1,0.4c0.1,0.1,0.1,0.2,0.2,0.3s0.2,0.1,0.3,0.2C276.7,200.2,276.8,200.2,276.9,200.2z"/>
		<path class="st2" d="M284.8,195.8c0,0.1-0.1,0.1-0.2,0.1c-0.1,0-0.1,0-0.2-0.1c-0.1,0-0.2-0.1-0.3-0.1c-0.1-0.1-0.2-0.1-0.4-0.1
			c-0.2,0-0.3-0.1-0.5-0.1c-0.2,0-0.3,0-0.5,0.1c-0.1,0-0.3,0.1-0.4,0.2c-0.1,0.1-0.2,0.2-0.2,0.3c-0.1,0.1-0.1,0.2-0.1,0.3
			c0,0.2,0,0.3,0.1,0.4c0.1,0.1,0.2,0.2,0.4,0.3c0.1,0.1,0.3,0.1,0.5,0.2c0.2,0.1,0.4,0.1,0.6,0.2c0.2,0.1,0.4,0.1,0.6,0.2
			c0.2,0.1,0.4,0.2,0.5,0.3c0.1,0.1,0.3,0.3,0.4,0.4c0.1,0.2,0.1,0.4,0.1,0.6c0,0.3,0,0.5-0.2,0.8c-0.1,0.2-0.2,0.4-0.4,0.6
			c-0.2,0.2-0.4,0.3-0.7,0.4c-0.3,0.1-0.6,0.2-1,0.2c-0.4,0-0.8-0.1-1.2-0.2c-0.3-0.1-0.6-0.3-0.9-0.5l0.3-0.4
			c0-0.1,0.1-0.1,0.1-0.1c0,0,0.1,0,0.2,0s0.1,0,0.2,0.1c0.1,0.1,0.2,0.1,0.3,0.2c0.1,0.1,0.3,0.1,0.4,0.2c0.2,0.1,0.4,0.1,0.6,0.1
			c0.2,0,0.4,0,0.5-0.1c0.2-0.1,0.3-0.1,0.4-0.2c0.1-0.1,0.2-0.2,0.2-0.3s0.1-0.2,0.1-0.4c0-0.2,0-0.3-0.1-0.4s-0.2-0.2-0.4-0.3
			c-0.1-0.1-0.3-0.1-0.5-0.2c-0.2-0.1-0.4-0.1-0.6-0.2c-0.2-0.1-0.4-0.1-0.6-0.2s-0.4-0.2-0.5-0.3c-0.1-0.1-0.3-0.3-0.4-0.5
			c-0.1-0.2-0.1-0.4-0.1-0.7c0-0.2,0-0.5,0.1-0.7c0.1-0.2,0.2-0.4,0.4-0.6c0.2-0.2,0.4-0.3,0.7-0.4c0.3-0.1,0.6-0.1,0.9-0.1
			c0.4,0,0.8,0.1,1.1,0.2c0.3,0.1,0.6,0.3,0.8,0.5L284.8,195.8z"/>
		<path class="st2" d="M237,215.3c-0.2,0-0.2-0.1-0.3-0.2l-0.1-0.7c-0.3,0.3-0.6,0.6-0.9,0.8c-0.3,0.2-0.7,0.3-1.1,0.3
			c-0.3,0-0.7-0.1-0.9-0.2c-0.3-0.1-0.5-0.3-0.7-0.6c-0.2-0.3-0.4-0.6-0.5-1c-0.1-0.4-0.2-0.8-0.2-1.3c0-0.4,0.1-0.9,0.2-1.3
			c0.1-0.4,0.3-0.7,0.5-1s0.5-0.5,0.8-0.7c0.3-0.2,0.7-0.2,1.1-0.2c0.4,0,0.7,0.1,1,0.2c0.3,0.1,0.5,0.3,0.7,0.5v-3.4h1.1v8.8H237z
			 M234.9,214.5c0.3,0,0.7-0.1,0.9-0.2c0.3-0.2,0.5-0.4,0.7-0.7v-2.9c-0.2-0.3-0.4-0.4-0.6-0.6c-0.2-0.1-0.5-0.2-0.8-0.2
			c-0.6,0-1,0.2-1.3,0.6c-0.3,0.4-0.5,1-0.5,1.7c0,0.4,0,0.7,0.1,1c0.1,0.3,0.2,0.5,0.3,0.7s0.3,0.3,0.5,0.4
			C234.5,214.4,234.7,214.5,234.9,214.5z"/>
		<path class="st2" d="M241.9,209.1c0.4,0,0.7,0.1,1,0.2c0.3,0.1,0.6,0.3,0.8,0.5c0.2,0.2,0.4,0.5,0.5,0.9s0.2,0.7,0.2,1.2
			c0,0.2,0,0.3-0.1,0.3c0,0.1-0.1,0.1-0.2,0.1h-4c0,0.4,0.1,0.7,0.2,1c0.1,0.3,0.2,0.5,0.4,0.7c0.2,0.2,0.4,0.3,0.6,0.4
			s0.5,0.1,0.8,0.1c0.3,0,0.5,0,0.7-0.1c0.2-0.1,0.4-0.1,0.5-0.2s0.3-0.1,0.4-0.2c0.1-0.1,0.2-0.1,0.2-0.1c0.1,0,0.2,0,0.2,0.1
			l0.3,0.4c-0.1,0.2-0.3,0.3-0.5,0.4s-0.4,0.2-0.6,0.3s-0.4,0.1-0.7,0.2c-0.2,0-0.4,0.1-0.7,0.1c-0.4,0-0.8-0.1-1.2-0.2
			s-0.7-0.3-0.9-0.6c-0.3-0.3-0.5-0.6-0.6-1s-0.2-0.9-0.2-1.4c0-0.4,0.1-0.8,0.2-1.2c0.1-0.4,0.3-0.7,0.6-1c0.2-0.3,0.5-0.5,0.9-0.6
			C241,209.2,241.4,209.1,241.9,209.1z M241.9,209.9c-0.5,0-0.9,0.1-1.2,0.4s-0.5,0.7-0.6,1.2h3.3c0-0.2,0-0.5-0.1-0.7
			c-0.1-0.2-0.2-0.4-0.3-0.5c-0.1-0.1-0.3-0.3-0.5-0.3S242.1,209.9,241.9,209.9z"/>
		<path class="st2" d="M251.5,210.2c0,0.1-0.1,0.1-0.2,0.1c-0.1,0-0.1,0-0.2-0.1c-0.1,0-0.2-0.1-0.3-0.1c-0.1-0.1-0.2-0.1-0.4-0.1
			c-0.2,0-0.3-0.1-0.5-0.1c-0.2,0-0.3,0-0.5,0.1s-0.3,0.1-0.4,0.2c-0.1,0.1-0.2,0.2-0.2,0.3c-0.1,0.1-0.1,0.2-0.1,0.3
			c0,0.2,0,0.3,0.1,0.4c0.1,0.1,0.2,0.2,0.4,0.3s0.3,0.1,0.5,0.2s0.4,0.1,0.6,0.2c0.2,0.1,0.4,0.1,0.6,0.2s0.4,0.2,0.5,0.3
			s0.3,0.3,0.4,0.4c0.1,0.2,0.1,0.4,0.1,0.6c0,0.3-0.1,0.5-0.2,0.8c-0.1,0.2-0.2,0.4-0.4,0.6s-0.4,0.3-0.7,0.4
			c-0.3,0.1-0.6,0.2-1,0.2c-0.4,0-0.8-0.1-1.2-0.2c-0.3-0.1-0.6-0.3-0.9-0.5l0.3-0.4c0-0.1,0.1-0.1,0.1-0.1c0,0,0.1,0,0.2,0
			c0.1,0,0.1,0,0.2,0.1c0.1,0.1,0.2,0.1,0.3,0.2c0.1,0.1,0.3,0.1,0.4,0.2c0.2,0.1,0.4,0.1,0.6,0.1c0.2,0,0.4,0,0.5-0.1
			s0.3-0.1,0.4-0.2s0.2-0.2,0.2-0.3c0-0.1,0.1-0.2,0.1-0.4c0-0.2,0-0.3-0.1-0.4s-0.2-0.2-0.4-0.3s-0.3-0.1-0.5-0.2
			c-0.2-0.1-0.4-0.1-0.6-0.2c-0.2-0.1-0.4-0.1-0.6-0.2c-0.2-0.1-0.4-0.2-0.5-0.3s-0.3-0.3-0.4-0.5c-0.1-0.2-0.1-0.4-0.1-0.7
			c0-0.2,0-0.5,0.1-0.7c0.1-0.2,0.2-0.4,0.4-0.6c0.2-0.2,0.4-0.3,0.7-0.4c0.3-0.1,0.6-0.1,0.9-0.1c0.4,0,0.8,0.1,1.1,0.2
			s0.6,0.3,0.8,0.5L251.5,210.2z"/>
		<path class="st2" d="M257.7,215.3h-0.5c-0.1,0-0.2,0-0.3,0c-0.1,0-0.1-0.1-0.1-0.2l-0.1-0.6c-0.2,0.1-0.3,0.3-0.5,0.4
			c-0.2,0.1-0.3,0.2-0.5,0.3s-0.3,0.1-0.5,0.2s-0.4,0.1-0.6,0.1c-0.2,0-0.5,0-0.7-0.1s-0.4-0.2-0.5-0.3c-0.2-0.1-0.3-0.3-0.4-0.5
			c-0.1-0.2-0.1-0.4-0.1-0.7c0-0.2,0.1-0.5,0.2-0.7s0.3-0.4,0.6-0.6s0.7-0.3,1.2-0.4s1.1-0.2,1.7-0.2v-0.5c0-0.5-0.1-0.8-0.3-1.1
			c-0.2-0.2-0.5-0.4-0.9-0.4c-0.3,0-0.5,0-0.7,0.1c-0.2,0.1-0.3,0.1-0.5,0.2c-0.1,0.1-0.2,0.2-0.3,0.2c-0.1,0.1-0.2,0.1-0.3,0.1
			c-0.1,0-0.1,0-0.2-0.1s-0.1-0.1-0.1-0.1l-0.2-0.3c0.3-0.3,0.7-0.6,1.1-0.7c0.4-0.2,0.8-0.2,1.3-0.2c0.3,0,0.6,0.1,0.9,0.2
			c0.3,0.1,0.5,0.3,0.7,0.5c0.2,0.2,0.3,0.4,0.4,0.7c0.1,0.3,0.1,0.6,0.1,0.9V215.3z M255,214.6c0.2,0,0.4,0,0.5-0.1
			c0.2,0,0.3-0.1,0.4-0.2c0.1-0.1,0.3-0.2,0.4-0.3c0.1-0.1,0.2-0.2,0.4-0.3v-1.3c-0.5,0-0.9,0-1.3,0.1c-0.3,0.1-0.6,0.1-0.8,0.2
			c-0.2,0.1-0.4,0.2-0.5,0.4c-0.1,0.1-0.1,0.3-0.1,0.5c0,0.2,0,0.3,0.1,0.4c0.1,0.1,0.1,0.2,0.2,0.3c0.1,0.1,0.2,0.1,0.3,0.2
			C254.7,214.6,254.8,214.6,255,214.6z"/>
		<path class="st2" d="M260.3,209.2v3.9c0,0.5,0.1,0.8,0.3,1.1s0.5,0.4,1,0.4c0.3,0,0.6-0.1,0.9-0.2c0.3-0.1,0.5-0.4,0.8-0.6v-4.5
			h1.1v6.1h-0.6c-0.2,0-0.2-0.1-0.3-0.2l-0.1-0.7c-0.3,0.3-0.6,0.5-0.9,0.7s-0.7,0.3-1.1,0.3c-0.3,0-0.6-0.1-0.9-0.2
			c-0.3-0.1-0.5-0.3-0.6-0.5c-0.2-0.2-0.3-0.4-0.4-0.7s-0.1-0.6-0.1-0.9v-3.9H260.3z M263.5,206.6l-1.4,1.5
			c-0.1,0.1-0.1,0.1-0.2,0.1s-0.1,0-0.2,0h-0.6l0.9-1.5c0.1-0.1,0.1-0.2,0.2-0.2c0.1,0,0.2-0.1,0.3-0.1H263.5z"/>
		<path class="st2" d="M270.3,215.3c-0.2,0-0.2-0.1-0.3-0.2l-0.1-0.7c-0.3,0.3-0.6,0.6-0.9,0.8c-0.3,0.2-0.7,0.3-1.1,0.3
			c-0.3,0-0.7-0.1-0.9-0.2c-0.3-0.1-0.5-0.3-0.7-0.6c-0.2-0.3-0.4-0.6-0.5-1c-0.1-0.4-0.2-0.8-0.2-1.3c0-0.4,0.1-0.9,0.2-1.3
			s0.3-0.7,0.5-1c0.2-0.3,0.5-0.5,0.8-0.7s0.7-0.2,1.1-0.2c0.4,0,0.7,0.1,1,0.2c0.3,0.1,0.5,0.3,0.7,0.5v-3.4h1.1v8.8H270.3z
			 M268.2,214.5c0.3,0,0.7-0.1,0.9-0.2s0.5-0.4,0.7-0.7v-2.9c-0.2-0.3-0.4-0.4-0.6-0.6c-0.2-0.1-0.5-0.2-0.8-0.2
			c-0.6,0-1,0.2-1.3,0.6c-0.3,0.4-0.5,1-0.5,1.7c0,0.4,0,0.7,0.1,1c0.1,0.3,0.2,0.5,0.3,0.7s0.3,0.3,0.5,0.4
			C267.8,214.4,268,214.5,268.2,214.5z"/>
		<path class="st2" d="M275.1,209.1c0.4,0,0.7,0.1,1,0.2c0.3,0.1,0.6,0.3,0.8,0.5c0.2,0.2,0.4,0.5,0.5,0.9s0.2,0.7,0.2,1.2
			c0,0.2,0,0.3-0.1,0.3c0,0.1-0.1,0.1-0.2,0.1h-4c0,0.4,0.1,0.7,0.2,1c0.1,0.3,0.2,0.5,0.4,0.7c0.2,0.2,0.4,0.3,0.6,0.4
			c0.2,0.1,0.5,0.1,0.8,0.1c0.3,0,0.5,0,0.7-0.1c0.2-0.1,0.4-0.1,0.5-0.2c0.1-0.1,0.3-0.1,0.4-0.2c0.1-0.1,0.2-0.1,0.2-0.1
			c0.1,0,0.2,0,0.2,0.1l0.3,0.4c-0.1,0.2-0.3,0.3-0.5,0.4c-0.2,0.1-0.4,0.2-0.6,0.3s-0.4,0.1-0.7,0.2c-0.2,0-0.4,0.1-0.7,0.1
			c-0.4,0-0.8-0.1-1.2-0.2c-0.4-0.1-0.7-0.3-0.9-0.6c-0.3-0.3-0.5-0.6-0.6-1c-0.1-0.4-0.2-0.9-0.2-1.4c0-0.4,0.1-0.8,0.2-1.2
			c0.1-0.4,0.3-0.7,0.6-1c0.2-0.3,0.5-0.5,0.9-0.6C274.3,209.2,274.7,209.1,275.1,209.1z M275.2,209.9c-0.5,0-0.9,0.1-1.2,0.4
			s-0.5,0.7-0.6,1.2h3.3c0-0.2,0-0.5-0.1-0.7s-0.2-0.4-0.3-0.5c-0.1-0.1-0.3-0.3-0.5-0.3C275.6,209.9,275.4,209.9,275.2,209.9z"/>
	</g>
	<g>
		<path class="st3" d="M241.1,120.2v3.1h-1.6v-8.7h2.8c0.6,0,1.1,0.1,1.5,0.2c0.4,0.1,0.8,0.3,1,0.6c0.3,0.2,0.5,0.5,0.6,0.9
			c0.1,0.3,0.2,0.7,0.2,1.1c0,0.4-0.1,0.8-0.2,1.2c-0.1,0.3-0.4,0.7-0.6,0.9c-0.3,0.3-0.6,0.4-1.1,0.6c-0.4,0.1-0.9,0.2-1.5,0.2
			H241.1z M241.1,118.9h1.2c0.3,0,0.6,0,0.8-0.1c0.2-0.1,0.4-0.2,0.5-0.3s0.3-0.3,0.3-0.5c0.1-0.2,0.1-0.4,0.1-0.7
			c0-0.2,0-0.4-0.1-0.6c-0.1-0.2-0.2-0.3-0.3-0.5s-0.3-0.2-0.5-0.3c-0.2-0.1-0.5-0.1-0.8-0.1h-1.2V118.9z"/>
		<path class="st3" d="M247.9,114.6c0,0,0.1,0,0.1,0c0,0,0.1,0,0.1,0.1c0,0,0.1,0.1,0.1,0.1l4.6,5.8c0-0.1,0-0.3,0-0.4
			c0-0.1,0-0.3,0-0.4v-5.3h1.4v8.7h-0.8c-0.1,0-0.2,0-0.3-0.1s-0.2-0.1-0.2-0.2l-4.5-5.8c0,0.1,0,0.3,0,0.4s0,0.2,0,0.3v5.3h-1.4
			v-8.7h0.8C247.8,114.6,247.9,114.6,247.9,114.6z"/>
		<path class="st3" d="M255.1,114.6h1.3c0.1,0,0.3,0,0.3,0.1c0.1,0.1,0.2,0.2,0.2,0.3l2,5.3c0.1,0.2,0.1,0.4,0.2,0.6
			c0.1,0.2,0.1,0.4,0.2,0.7c0.1-0.5,0.2-0.9,0.3-1.2l2-5.3c0-0.1,0.1-0.2,0.2-0.3c0.1-0.1,0.2-0.1,0.3-0.1h1.3l-3.5,8.7h-1.5
			L255.1,114.6z"/>
		<path class="st3" d="M269.2,116.2c0,0.1-0.1,0.1-0.2,0.2c-0.1,0-0.1,0.1-0.2,0.1s-0.2,0-0.3-0.1c-0.1-0.1-0.2-0.1-0.4-0.2
			c-0.1-0.1-0.3-0.1-0.5-0.2c-0.2-0.1-0.4-0.1-0.6-0.1c-0.2,0-0.4,0-0.6,0.1c-0.2,0.1-0.3,0.1-0.4,0.2c-0.1,0.1-0.2,0.2-0.3,0.3
			c-0.1,0.1-0.1,0.3-0.1,0.4c0,0.2,0.1,0.4,0.2,0.5c0.1,0.1,0.3,0.3,0.5,0.3c0.2,0.1,0.4,0.2,0.6,0.3c0.2,0.1,0.5,0.2,0.7,0.2
			s0.5,0.2,0.7,0.3c0.2,0.1,0.5,0.3,0.6,0.4c0.2,0.2,0.3,0.4,0.5,0.6c0.1,0.3,0.2,0.6,0.2,0.9c0,0.4-0.1,0.8-0.2,1.1
			s-0.3,0.6-0.6,0.9c-0.3,0.3-0.6,0.5-0.9,0.6c-0.4,0.1-0.8,0.2-1.3,0.2c-0.3,0-0.5,0-0.8-0.1c-0.3-0.1-0.5-0.1-0.8-0.2
			c-0.2-0.1-0.5-0.2-0.7-0.4s-0.4-0.3-0.6-0.5l0.5-0.8c0-0.1,0.1-0.1,0.2-0.1c0.1,0,0.1-0.1,0.2-0.1c0.1,0,0.2,0,0.3,0.1
			s0.3,0.2,0.4,0.3s0.3,0.2,0.6,0.3c0.2,0.1,0.5,0.1,0.8,0.1c0.5,0,0.8-0.1,1.1-0.3c0.3-0.2,0.4-0.5,0.4-0.9c0-0.2-0.1-0.4-0.2-0.6
			c-0.1-0.1-0.3-0.3-0.5-0.4c-0.2-0.1-0.4-0.2-0.6-0.2c-0.2-0.1-0.5-0.1-0.7-0.2s-0.5-0.2-0.7-0.3c-0.2-0.1-0.5-0.3-0.6-0.4
			c-0.2-0.2-0.3-0.4-0.5-0.7s-0.2-0.6-0.2-1c0-0.3,0.1-0.6,0.2-0.9c0.1-0.3,0.3-0.6,0.6-0.8c0.2-0.2,0.5-0.4,0.9-0.6
			c0.4-0.1,0.8-0.2,1.2-0.2c0.5,0,1,0.1,1.4,0.2c0.4,0.2,0.8,0.4,1.1,0.7L269.2,116.2z"/>
	</g>
	<g>
		<polygon class="st2" points="261.9,83 261.9,63.5 265.9,63.5 255,50 244.1,63.5 248.1,63.5 248.1,83 		"/>
		<polygon class="st2" points="248.1,156 248.1,175.5 244.1,175.5 255,189 265.9,175.5 261.9,175.5 261.9,156 		"/>
	</g>
	<g>
		<polygon class="st2" points="218.5,112.6 199,112.6 199,108.6 185.5,119.5 199,130.4 199,126.4 218.5,126.4 		"/>
		<polygon class="st2" points="291.5,126.4 311,126.4 311,130.4 324.5,119.5 311,108.6 311,112.6 291.5,112.6 		"/>
	</g>
</g>
</svg>
