
<svg xmlns="http://www.w3.org/2000/svg" version="1.1" xmlns:xlink="http://www.w3.org/1999/xlink" preserveAspectRatio="none" x="0px" y="0px" width="153px" height="236px" viewBox="0 0 153 236">
<defs>
<g id="Layer1_0_FILL">
<path fill="#6FB590" stroke="none" d="
M 146.85 47
Q 141 33.3 130.45 22.7 119.85 12.15 106.15 6.3 91.95 0.3 76.5 0.3 61.05 0.3 46.9 6.3 33.2 12.15 22.6 22.7 12.05 33.3 6.2 47 0.2 61.15 0.2 76.6
L 0.2 159.4
Q 0.2 174.85 6.2 189 12.05 202.7 22.6 213.3 33.2 223.85 46.9 229.7 61.05 235.7 76.5 235.7 91.95 235.7 106.15 229.7 119.85 223.85 130.45 213.3 141 202.7 146.85 189 152.85 174.85 152.85 159.4
L 152.85 76.6
Q 152.85 61.15 146.85 47 Z"/>
</g>

<g id="Layer0_0_FILL">
<path fill="#D4D4D4" stroke="none" d="
M 117.35 39.85
Q 117.2 39.5 117 39.2 116.85 38.9 116.65 38.65 116.4 38.35 116.2 38.1 115.9 37.9 115.65 37.7 115.7 37.7 115.8 37.65 115.8 37.6 115.85 37.65 115.8 37.5 115.7 37.4
L 113.8 36
Q 84.7 41.25 55.65 46.45
L 36.7 49.9
Q 27.6 51.7 18.65 53.85 17.25 54.2 16.25 55.05 14.95 56.25 14.15 57.7 14.05 57.95 13.95 58.2 13.8 58.55 13.55 58.9
L 13.65 59.4 13.5 60
Q 13.55 60.15 13.6 60.2 13.75 60.35 13.95 60.4 14 60.35 14.05 60.35
L 39.2 200.75
Q 39.15 200.95 39.15 201.1 39.15 203.8 40.5 206 40.7 206.3 40.95 206.6 41.1 206.8 41.4 207.05 41.65 207.25 41.8 207.5
L 41.1 207.7 44.4 209.05 77.8 203
Q 83.3015625 201.990625 88.8 201 89.1126953125 201.8083984375 89.35 202.55 89.75 203.65 90.55 206.35 90.9 207.4 91.15 208.3 91.5 209.4 91.8 210.15 92.45 212.1 93.8 215.25 93.9 215.45 94 215.7 94.65 217.2 95 218 95.65 219.3 96.3 220.2 96.7 220.7 97.3 221.3 97.25 221.4 97.25 221.5 97.25 221.65 97.5 221.95
L 98.1 222.7
Q 98.1 222.95 98.2 223.15
L 100.7 227.3
Q 102.15 229.75 103.1 230.85 103.11953125 230.8720703125 103.15 230.9 103.721484375 230.6775390625 104.3 230.45 105.2302734375 230.088671875 106.15 229.7 107.512890625 229.11796875 108.85 228.5 120.9044921875 222.800390625 130.45 213.3 132.4052734375 211.335546875 134.2 209.25 135.9515625 207.245703125 137.55 205.1 138.071484375 204.4310546875 138.55 203.7 138.3494140625 197.5123046875 138.75 191.3 138.831640625 191.3166015625 138.9 191.3 140.2 190.85 141.2 190 142.5 188.85 143.35 187.45 143.45 187.2 143.55 186.9 143.75 186.6 143.95 186.3
L 143.85 185.75 144.05 185.15
Q 144 185.05 143.9 185 143.75 184.85 143.6 184.85 143.5 184.85 143.45 184.85
L 139.35 162
Q 139.6533203125 161.8189453125 140 161.6 140.8 161.15 141.7 161.05 142.25 160.95 142.45 160.85 142.75 160.6 142.8 160 142.8 159.2 142.35 157.75
L 141.7 155.75
Q 141.5 155.1 141.2 154.85 140.9 154.65 140.3 154.7 139.6 154.7 139 154.85 138.5470703125 154.7529296875 138.05 154.7
L 118.35 44.4
Q 118.4 44.25 118.4 44.05 118.45 41.8 117.35 39.85 Z"/>
</g>

<g id="Layer0_1_FILL">
<path fill="#242037" stroke="none" d="
M 117 39.2
Q 116.85 38.9 116.65 38.65 116.4 38.35 116.2 38.1 115.9 37.9 115.65 37.7 115.7 37.7 115.8 37.65 115.8 37.6 115.85 37.65 115.8 37.5 115.7 37.4
L 113.8 36
Q 84.7 41.25 55.65 46.45
L 36.7 49.9
Q 27.6 51.7 18.65 53.85 17.25 54.2 16.25 55.05 14.95 56.25 14.15 57.7 14.05 57.95 13.95 58.2 13.8 58.55 13.55 58.9
L 13.65 59.4 13.5 60
Q 13.55 60.15 13.6 60.2 13.75 60.35 13.95 60.4 14 60.35 14.05 60.35
L 39.2 200.75
Q 39.15 200.95 39.15 201.1 39.15 203.8 40.5 206 40.7 206.3 40.95 206.6 41.1 206.8 41.4 207.05 41.65 207.25 41.8 207.5
L 41.1 207.7 44.4 209.05 77.8 203
Q 94.15 200 110.7 197.1 124.9 194.7 138.9 191.3 140.2 190.85 141.2 190 142.5 188.85 143.35 187.45 143.45 187.2 143.55 186.9 143.75 186.6 143.95 186.3
L 143.85 185.75 144.05 185.15
Q 144 185.05 143.9 185 143.75 184.85 143.6 184.85 143.5 184.85 143.45 184.85
L 118.35 44.4
Q 118.4 44.25 118.4 44.05 118.45 41.8 117.35 39.85 117.2 39.5 117 39.2
M 98.9 42.9
Q 98.3 42.25 96.7 42.7 96.6 42.75 96.45 42.85 96.45 42.75 96.4 42.7 96.4 42.55 96.4 42.45 96.4 42.35 96.35 42.2 96.3 42.05 96.3 41.9 96.25 41.8 96.25 41.65 96.2 41.5 96.2 41.4 96.2 41.3 96.15 41.2 103.7 39.8 111.35 38.65 112.6 38.5 113.95 39.05 114.35 39.1 114.7 39.35 115.2 39.7 115.55 40.2 115.9 40.5 116.15 40.9 116.4 41.35 116.55 41.85 116.8 42.35 117 42.95 116.6 43.7 116.7 44.6 117.1 47.05 117.5 49.4 118 52.35 118.5 55.3 119.15 59.1 119.9 63 121.15 69.8 122.35 76.6 123.6 83.35 124.8 90.2 125.45 93.8 126.1 97.4 126.7 100.6 127.25 103.75 128.5 110.55 129.7 117.35 130.95 124.15 132.1 130.9 132.5 132.9 132.8 134.8 133.1 136.3 133.3 137.8 134 141.2 134.6 144.55 134.95 146.35 135.35 148.15 136.25 153.1 137.2 158.1 138.4 164.85 139.6 171.65 140.6 177.1 141.7 182.55 141.85 183.2 142 183.9 142.05 184.15 142.15 184.4 142.25 184.65 142.3 184.95 142.35 185.05 142.4 185.2 142.4 185.35 142.45 185.45 142.5 185.6 142.55 185.7
L 143 185.9 140.6 188.8
Q 139.7 189.35 138.65 189.7 132.7 191.75 126.3 192.55 121 193.45 115.65 194.4 108.9 195.55 102.15 196.7 98.05 197.45 93.95 198.2 89.85 198.9 85.7 199.65 81.6 200.35 77.4 201.1 69.65 202.5 61.85 203.9 54.05 205.25 46.2 206.7 44.4 206.7 42.9 205.8 42.35 205.45 41.95 205.05 41.65 204.65 41.4 204.3 41.25 204.05 41.15 203.85 41 203.65 40.95 203.35 40.7 202.8 40.5 202.25 40.85 201.45 40.75 200.55 40.45 198.15 40.05 195.75 38.85 188.95 37.6 182.15 36.35 175.35 35.15 168.55 34 162.15 32.85 155.75 32.75 155.35 32.7 154.95 31.5 148.2 30.25 141.4 29 134.6 27.8 127.8 26.6 121 25.4 114.25 24.2 107.4 22.85 100.65 21.6 93.9 20.35 87.1 19.15 80.3 17.9 73.5 16.9 68.05 15.75 62.65 15.6 62 15.5 61.3 15.45 61 15.4 60.75 15.25 60.5 15.2 60.25 15.15 60.1 15.1 59.95 15.1 59.85 15.1 59.7 15 59.6 14.95 59.45
L 14.5 59.25 16.9 56.4
Q 17.9 55.8 19.1 55.4 20.85 54.75 22.75 54.4 29.9 53.1 37.05 51.85 39.3 51.45 41.65 51 41.65 51.15 41.7 51.25
L 41.95 53.15 40.3 53.7 40.05 54.3 40.25 55.6 18.85 59.45 36.4 157.2 44.95 204.65 45.7 204.5 45.8 204.85 139.1 188.05 132.25 150.05 113 42.85 112.25 42.95 112.2 42.65 99.5 44.9 99.35 44.05
Q 99.2 43.2 98.9 42.9
M 95.25 42.8
Q 95.3 42.95 95.3 43.05 79.05 46 62.8 48.9 62.85 48.95 62.85 49 59.6 49.6 56.3 50.2
L 43.3 52.6 42.95 50.75 56 48.4
Q 75.5 44.9 95 41.4
L 95.05 41.45
Q 95.05 41.6 95.05 41.75 95.05 41.85 95.1 42 95.1 42.15 95.15 42.25 95.15 42.45 95.2 42.55 95.25 42.65 95.25 42.8
M 96.4 44.45
Q 96.45 44.3 96.5 44.15
L 96.55 44.15
Q 96.55 44.1 96.55 44.05 96.65 44.05 96.8 44.05 97.75 43.85 97.95 43.95 98 44.5 98.35 46.2 98.65 47.55 98.6 48.4 98.4 50.05 96.9 51.3 95.65 52.4 93.75 53 93.05 53.2 90.3 53.7 90.15 53.75 89.95 53.8 89.9 53.8 89.85 53.8 88.95 53.9 88.1 54 73.05 56.7 57.95 59.35 50.9 60.9 43.8 61.3 43.7 61.2 43.65 61.15
L 43.15 59.65 42.8 59.35 42.4 57.8 42.05 57.6 41.45 54.65 41.8 54.25 56.6 51.85
Q 59.9 51.25 63.15 50.7 79.45 47.75 95.8 44.8 96 44.75 96.25 44.7 96.3 44.55 96.4 44.45
M 100 49.4
Q 100.1 48.4 99.8 46.45
L 99.75 46.2 111.8 44.05 131 150.8 137.5 187 47.35 203.2 47.4 203.55 46.6 203.7 46.55 203.3 46.35 203.4 38.15 157.85 20.6 60.5 40.45 56.9 40.8 58.85 41.25 59.35 41.45 60.7 42.85 63.15 58.25 61
Q 73.3 58.3 88.4 55.6 89.4 55.4 90.4 55.15 90.55 55.1 90.75 55.05
L 90.85 55.05
Q 92.8 54.8 93.75 54.6 95.3 54.2 96.5 53.7 97.85 53 98.75 51.95 99.8 50.75 100 49.4
M 112.4 43.95
L 112.5 43.95 138.3 187.2 138.2 187.2 112.4 43.95 Z"/>

<path fill="#D6AF86" stroke="none" d="
M 112.5 43.95
L 112.4 43.95 138.2 187.2 138.3 187.2 112.5 43.95
M 37.05 51.85
Q 29.9 53.1 22.75 54.4 20.85 54.75 19.1 55.4 17.9 55.8 16.9 56.4
L 14.5 59.25 14.95 59.45
Q 15 59.6 15.1 59.7 15.1 59.85 15.1 59.95 15.15 60.1 15.2 60.25 15.25 60.5 15.4 60.75 15.45 61 15.5 61.3 15.6 62 15.75 62.65 16.9 68.05 17.9 73.5 19.15 80.3 20.35 87.1 21.6 93.9 22.85 100.65 24.2 107.4 25.4 114.25 26.6 121 27.8 127.8 29 134.6 30.25 141.4 31.5 148.2 32.7 154.95 32.75 155.35 32.85 155.75
L 36.4 157.2 18.85 59.45 40.25 55.6 40.05 54.3 40.3 53.7 41.95 53.15 41.7 51.25
Q 41.65 51.15 41.65 51 39.3 51.45 37.05 51.85
M 96.7 42.7
Q 98.3 42.25 98.9 42.9 99.2 43.2 99.35 44.05
L 99.5 44.9 112.2 42.65 112.25 42.95 113 42.85 132.25 150.05 135.35 148.15
Q 134.95 146.35 134.6 144.55 134 141.2 133.3 137.8 133.1 136.3 132.8 134.8 132.5 132.9 132.1 130.9 130.95 124.15 129.7 117.35 128.5 110.55 127.25 103.75 126.7 100.6 126.1 97.4 125.45 93.8 124.8 90.2 123.6 83.35 122.35 76.6 121.15 69.8 119.9 63 119.15 59.1 118.5 55.3 118 52.35 117.5 49.4 117.1 47.05 116.7 44.6 116.6 43.7 117 42.95 116.8 42.35 116.55 41.85 116.4 41.35 116.15 40.9 115.9 40.5 115.55 40.2 115.2 39.7 114.7 39.35 114.35 39.1 113.95 39.05 112.6 38.5 111.35 38.65 103.7 39.8 96.15 41.2 96.2 41.3 96.2 41.4 96.2 41.5 96.25 41.65 96.25 41.8 96.3 41.9 96.3 42.05 96.35 42.2 96.4 42.35 96.4 42.45 96.4 42.55 96.4 42.7 96.45 42.75 96.45 42.85 96.6 42.75 96.7 42.7 Z"/>

<path fill="#FFFDF6" stroke="none" d="
M 71.1 167.05
L 65.2 166.8 38.15 157.85 46.35 203.4 46.55 203.3 46.6 203.7 47.4 203.55 47.35 203.2 137.5 187 131 150.8
Q 130.6 151 130.25 151.25 120.7 157.05 110.75 161.65 103.3 165.3 95.25 166.45 83.05 167.75 71.1 167.05 Z"/>

<path fill="#FFFFFF" stroke="none" d="
M 99.8 46.45
Q 100.1 48.4 100 49.4 99.8 50.75 98.75 51.95 97.85 53 96.5 53.7 95.3 54.2 93.75 54.6 92.8 54.8 90.85 55.05
L 90.75 55.05
Q 90.55 55.1 90.4 55.15 89.4 55.4 88.4 55.6 73.3 58.3 58.25 61
L 42.85 63.15 41.45 60.7 41.25 59.35 40.8 58.85 40.45 56.9 20.6 60.5 38.15 157.85 65.2 166.8 71.1 167.05
Q 83.05 167.75 95.25 166.45 103.3 165.3 110.75 161.65 120.7 157.05 130.25 151.25 130.6 151 131 150.8
L 111.8 44.05 99.75 46.2 99.8 46.45 Z"/>

<path fill="#D4D4D4" stroke="none" d="
M 96.5 44.15
Q 96.45 44.3 96.4 44.45 96.3 44.55 96.25 44.7 96 44.75 95.8 44.8 79.45 47.75 63.15 50.7 59.9 51.25 56.6 51.85
L 41.8 54.25 41.45 54.65 42.05 57.6 42.4 57.8 42.8 59.35 43.15 59.65 43.65 61.15
Q 43.7 61.2 43.8 61.3 50.9 60.9 57.95 59.35 73.05 56.7 88.1 54 88.95 53.9 89.85 53.8 89.9 53.8 89.95 53.8 90.15 53.75 90.3 53.7 93.05 53.2 93.75 53 95.65 52.4 96.9 51.3 98.4 50.05 98.6 48.4 98.65 47.55 98.35 46.2 98 44.5 97.95 43.95 97.75 43.85 96.8 44.05 96.65 44.05 96.55 44.05 96.55 44.1 96.55 44.15
L 96.5 44.15 Z"/>

<path fill="#B1B1B1" stroke="none" d="
M 95.3 43.05
Q 95.3 42.95 95.25 42.8 95.25 42.65 95.2 42.55 95.15 42.45 95.15 42.25 95.1 42.15 95.1 42 95.05 41.85 95.05 41.75 95.05 41.6 95.05 41.45
L 95 41.4
Q 75.5 44.9 56 48.4
L 42.95 50.75 43.3 52.6 56.3 50.2
Q 59.6 49.6 62.85 49 62.85 48.95 62.8 48.9 79.05 46 95.3 43.05 Z"/>

<path fill="#D69686" stroke="none" d="
M 36.4 157.2
L 32.85 155.75
Q 34 162.15 35.15 168.55 36.35 175.35 37.6 182.15 38.85 188.95 40.05 195.75 40.45 198.15 40.75 200.55 40.85 201.45 40.5 202.25 40.7 202.8 40.95 203.35 41 203.65 41.15 203.85 41.25 204.05 41.4 204.3 41.65 204.65 41.95 205.05 42.35 205.45 42.9 205.8 44.4 206.7 46.2 206.7 54.05 205.25 61.85 203.9 69.65 202.5 77.4 201.1 81.6 200.35 85.7 199.65 89.85 198.9 93.95 198.2 98.05 197.45 102.15 196.7 108.9 195.55 115.65 194.4 121 193.45 126.3 192.55 132.7 191.75 138.65 189.7 139.7 189.35 140.6 188.8
L 143 185.9 142.55 185.7
Q 142.5 185.6 142.45 185.45 142.4 185.35 142.4 185.2 142.35 185.05 142.3 184.95 142.25 184.65 142.15 184.4 142.05 184.15 142 183.9 141.85 183.2 141.7 182.55 140.6 177.1 139.6 171.65 138.4 164.85 137.2 158.1 136.25 153.1 135.35 148.15
L 132.25 150.05 139.1 188.05 45.8 204.85 45.7 204.5 44.95 204.65 36.4 157.2 Z"/>
</g>

<g id="Layer0_1_MEMBER_0_FILL">
<path fill="#D4D4D4" stroke="none" d="
M 217.55 96.65
L 217.55 86.05 69.2 86.05 69.2 96.65 217.55 96.65 Z"/>
</g>

<g id="Layer0_1_MEMBER_1_FILL">
<path fill="#D4D4D4" stroke="none" d="
M 217.55 96.65
L 217.55 86.05 69.2 86.05 69.2 96.65 217.55 96.65 Z"/>
</g>

<g id="Layer0_1_MEMBER_2_FILL">
<path fill="#D4D4D4" stroke="none" d="
M 217.55 96.65
L 217.55 86.05 69.2 86.05 69.2 96.65 217.55 96.65 Z"/>
</g>

<g id="Layer0_1_MEMBER_3_FILL">
<path fill="#D4D4D4" stroke="none" d="
M 217.55 96.65
L 217.55 86.05 69.2 86.05 69.2 96.65 217.55 96.65 Z"/>
</g>

<g id="Layer0_1_MEMBER_4_FILL">
<path fill="#D4D4D4" stroke="none" d="
M 217.55 96.65
L 217.55 86.05 69.2 86.05 69.2 96.65 217.55 96.65 Z"/>
</g>

<g id="Layer0_1_MEMBER_5_FILL">
<path fill="#144162" stroke="none" d="
M 99 292.15
L 100.25 299.1 217.8 277.95 216.55 271 99 292.15 Z"/>
</g>

<g id="Layer0_1_MEMBER_6_FILL">
<path fill="#D4D4D4" stroke="none" d="
M 217.55 96.65
L 217.55 86.05 69.2 86.05 69.2 96.65 217.55 96.65 Z"/>
</g>

<g id="Layer0_1_MEMBER_7_FILL">
<path fill="#D4D4D4" stroke="none" d="
M 217.55 96.65
L 217.55 86.05 69.2 86.05 69.2 96.65 217.55 96.65 Z"/>
</g>

<g id="Layer0_1_MEMBER_8_FILL">
<path fill="#D4D4D4" stroke="none" d="
M 217.55 96.65
L 217.55 86.05 69.2 86.05 69.2 96.65 217.55 96.65 Z"/>
</g>

<g id="Layer0_1_MEMBER_9_FILL">
<path fill="#D4D4D4" stroke="none" d="
M 217.55 96.65
L 217.55 86.05 69.2 86.05 69.2 96.65 217.55 96.65 Z"/>
</g>

<g id="Layer0_1_MEMBER_10_FILL">
<path fill="#D4D4D4" stroke="none" d="
M 217.55 96.65
L 217.55 86.05 69.2 86.05 69.2 96.65 217.55 96.65 Z"/>
</g>

<g id="Layer0_1_MEMBER_11_FILL">
<path fill="#D4D4D4" stroke="none" d="
M 217.55 96.65
L 217.55 86.05 69.2 86.05 69.2 96.65 217.55 96.65 Z"/>
</g>

<g id="Layer0_1_MEMBER_12_FILL">
<path fill="#144162" stroke="none" d="
M 99 292.15
L 100.25 299.1 217.8 277.95 216.55 271 99 292.15 Z"/>
</g>

<g id="Layer0_1_MEMBER_13_FILL">
<path fill="#D4D4D4" stroke="none" d="
M 217.55 96.65
L 217.55 86.05 69.2 86.05 69.2 96.65 217.55 96.65 Z"/>
</g>

<g id="Layer0_2_FILL">
<path fill="#DA9E8B" stroke="none" d="
M 96.05 217.95
L 96.05 218
Q 96.7 219.25 97.45 220.05 97.9 220.6 98.7 221.25 99.1 221.6 100 222.3 103.3 225.05 106.25 229.4
L 99.35 223.25
Q 99.6 223.6 99.85 224 100.45 224.75 101.05 225.8 102.65 228.5 103.25 229.3 103.6599609375 229.7919921875 104.3 230.45 105.2302734375 230.088671875 106.15 229.7 107.512890625 229.11796875 108.85 228.5 103.38046875 224.76953125 99.5 221.3 97.53671875 219.5330078125 96.05 217.95
M 111.6 177.8
Q 111.75 177.3 111.95 176.85 111.4 177.45 110.85 178.1 110.8 178.2 110.25 179.05 110.3 179.35 110.25 179.7 110.1 179.6 109.95 179.4 109.35 180.25 108.4 181.6 107.85 182.35 107.1 183.35 106.2 184.55 106.05 184.75 105.7 185.2 105.05 186.05 104.7 186.5 104.45 186.35 104.4 186.35 104.35 186.25
L 104.25 186.3
Q 103.4 186.7 102.75 187 103.05 187.2 103.4 187.4 104.45 188.05 105.05 188.5 105.25 188.55 105.45 188.6 105.85 188.75 106.5 188.75 107.65 188.75 109.45 185.4 110.6 183.1 111 181.85 110.7 180.15 111.6 177.8
M 108.55 170.1
Q 108.85 170.4 108.8 170.9 108.8 171.15 108.6 171.8 108.35 172.65 108.45 174.4 108.5 175.55 108.7 176.15 108.85 176.55 109.15 177 109.35 177.3 109.7 177.85 109.75 177.9 109.8 178 110.3 177.4 110.85 176.7 111.75 175.75 112.15 175.45 112.3 175.3 112.55 175.15 112.95 174.85 113.65 174.4 114.35 174 114.9 173.75 115.77421875 172.9244140625 116.4 172.3 115.8140625 172.8609375 114.7 173.2 113.5 173.6 112.5 173.6 111.2 172.95 111.2 171.95 111.8 171.3 116.85 169.05 120.55 167.45 123.95 166.2 121 166.7 118.2 167.65 116.9 168.05 116.3 168.1 116.25 168.1 116.25 168.15 116.05 168.2 115.85 168.25 115.15 168.4 112.85 168.95
L 101.65 171.3
Q 96.7 173.55 94.55 174.75 93.8 175.15 93.25 175.35
L 94.2 176.5
Q 95 177.5 95.7 178.4 95.7 178.3 95.85 178.2 95.95 178.05 96.2 178.05 98.05 177.85 99.25 177.45 99.6 177.35 102 176.3 103.7 175.55 104.85 175.45 105.35 175.4 105.45 175.7 104.4 175.95 100.8 177.45 97.95 178.65 96.05 178.6 95.9 178.6 95.85 178.55 98.15 181.5 99.4 183.4 100.35 184.8 100.9 185.4 101.4 185.95 102.15 186.55 102.25 186.5 102.35 186.5 102.75 186.35 103.55 186.1 103.95 186 104.3 185.95 104.3 185.9 104.3 185.85 104.4 185.65 104.6 185.4 104.95 185.05 105.4 184.4 105.2 184.25 105.05 184.05 104.8 183.7 104.75 183.1 104.7 182.7 104.75 182.3 104.75 181.65 104.9 180.95 105.2 179.5 105.3 178.8 105.55 177.45 105.7 177.05 105.95 176.1 106.6 175.65
L 106.8 175.85
Q 106.35 176.35 106.1 177.6
L 105.75 179.35
Q 105.45 180.8 105.35 181.8 105.25 182.45 105.25 182.9 105.25 183.75 105.5 184.15
L 105.55 184.1
Q 106.1 183.1 106.4 182.75 106.55 182.5 106.95 182.05 107.35 181.6 107.5 181.45 107.5 181.4 108.35 180.1 108.8 179.35 109.4 178.6
L 108.9 177.85
Q 108.25 176.85 108.05 176.35 107.95 175.95 107.85 175.15 107.6 172.55 108.55 170.1
M 103.5 171.25
Q 103.6 171.4 104.2 172.4 105.5 174.55 107.65 175.85 107.6 176 107.45 176 107.3 176 107.15 175.95 105.95 175.3 104.85 174 104.15 173.1 103.15 171.4 103.05 171.25 103.1 171.15 103.15 171.1 103.3 171.1 103.4 171.15 103.5 171.25
M 105.65 176.25
Q 105.1 177.5 104.9 178.3 104.8 178.95 104.8 180.05 104.8 181.25 104.75 181.75 104.75 181.85 104.65 181.95 104.6 182 104.55 182 103.95 179 105.25 176.15 105.5 175.65 105.75 175.5 105.85 175.75 105.65 176.25
M 75.7 173
Q 75.35 172.7 75 172.4 72.6 170.45 71.4 168.9 71.7 171 73.55 173.2 73.95 173.7 74.6 174.35 74.7 174.4 74.8 174.45 74.95 174.5 75 174.65 75.05 174.75 75.05 174.85 75.15 175 75.25 175.1 76.55 176.45 77.05 176.95 79.05 179.25 80.3 182.05 80.6 182.7 81.15 183.9 81.65 185 82.15 185.7 82.5 186.25 83.55 187.35 84.5 188.35 84.9 189 85.4 189.8 85.9 191.15 86.15 191.85 86.65 193.35 86.95 194.15 87.6 195.45 88 196.3 88.25 196.85 88.3 195.9 88.25 195.65 88.15 194.8 87 192.55 85.6 189.8 84.9 187.4 84.25 185.3 84.3 182.85 84.35 181.2 84.2 180.8
L 83.05 181.9
Q 83 181.55 83.25 181.1 83.4 180.85 83.8 180.4 82.65 179.45 82 178.7 80.7 177.2 81.35 176.05 81.25 176.05 81.2 176.05 81.05 176.25 80.8 176.55 80.35 177 80 177.25
L 79.95 177.05
Q 80.2 176.5 80.7 175.95 80.65 175.95 80.55 175.9 80.3 176.15 80.15 176.25 79.95 176.1 80.1 175.75 78.7 175.25 76.5 173.6 76.45 173.65 76.4 173.65 76.25 173.7 75.9 173.65 75.4 173.5 74.65 172.8 74.5 172.65 74.45 172.55 74.35 172.35 74.5 172.25 74.7 172.3 75.1 172.65 75.45 172.9 75.7 173
M 82.25 187.4
Q 82.15 187.6 81.75 187.9 81.3 188.3 81.2 188.85 81.05 189.4 81.2 189.9 81.35 190.25 81.8 190.85 83.35 192.8 84.85 193.15 85.2 193.2 85.4 193.3 85.7 193.55 85.6 193.85 85.5 193.95 85.35 194.05 85.35 194.15 85.25 194.25 85.05 194.5 84.55 194.65 84.05 194.75 83.9 195 83.65 195.35 83.85 195.8 84.05 196.1 84.45 196.45 85.6 197.4 86.2 197.8 87.1 198.45 87.95 198.75 87.3 197.05 86.45 195.1 85 191.8 84 190.1 83.55 189.35 82.65 188 82.45 187.7 82.25 187.4
M 77.4 181.35
Q 77.5 181.6 77.95 182.5 78.3 183.05 78.5 183.2 78.65 183.35 78.95 183.45 79.15 183.5 79.5 183.6 79.9 183.75 80.2 184 79.8 183.25 79.25 182.2 78.3 180.45 77.55 179.3 77.5 179.6 77.4 180.1 77.3 180.9 77.4 181.35
M 90.2 163.35
Q 89.95 163.65 89.65 163.95 87.75 165.75 84.95 165.75 84.7 165.75 84.65 165.75 84.4 165.75 83.7 165.65 83.95 165.8 84.2 166.05
L 85.8 167.3
Q 85.9 167.4 86.05 167.5
L 86.2 167.45
Q 86.05 167.35 85.9 167.25 88.35 166.4 91.8 165.55 91.2 165 91.05 164.55 91 164.55 91 164.5 90.65 164 90.2 163.35
M 103.05 160.05
Q 102.85 160.5 102.75 160.75 102.4 161.75 102.4 162.65 102.65 162.25 102.95 161.95 103.35 161.45 103.4 161.35 103.55 161.05 103.65 160.95 103.8 160.75 103.95 160.7
L 104.1 160.85 102.65 162.9
Q 104.7 162.4 106.95 161.95 104.5 161.05 103.05 160.05
M 102.15 160.8
Q 102.45 160.2 102.6 159.75 102.3 159.5 102.05 159.25 100.75 160.4 99.65 161.1 97.5 162.4 94.95 162.4 94.1 162.4 92.85 161.85 91.8 161.4 91.35 161.3
L 91.3 163.2
Q 91.3 163.95 91.4 164.3 91.45 164.45 91.55 164.6 91.7 164.75 91.9 165.05 92 165.15 92.05 165.25 92.1 165.3 92.25 165.4 96.4 164.3 101.95 163.05 101.9 162.85 101.9 162.55 101.9 161.7 102.15 160.8 Z"/>

<path fill="#053336" stroke="none" d="
M 128.55 176.65
Q 128.590234375 176.7408203125 128.6 176.8 130.7337890625 181.5890625 132.5 186.25 132.5 185.35 131.95 183.75 131.25 181.7 129.5 178
L 128.45 175.8
Q 128.4 175.65 128.25 175.6 128.15 175.55 128.1 175.65 128.35 176.15 128.55 176.65
M 133.6 192.05
Q 133.65 192.35 133.85 192.35 132.95 189.25 131.7 186 131.55 186.1 131.65 186.4
L 133.6 192.05 Z"/>

<path fill="#ECDCCF" stroke="none" d="
M 138.6 179.25
Q 138.35 178 137.7 177.25 137.1 176.55 136 175.95 134.65 175.3 134 174.95 133.95 174.95 133.9 174.9 134.05 175.6 134.1 176 134.3 177.05 134.25 177.95 134.25 178.2 134.2 178.7 134.2 179.15 134.25 179.4 134.3 179.9 134.3 179.95 134.25 180.1 134.15 180.2 134.05 180.35 133.95 180.35 133.55 180.35 133.5 179.65 133.35 176.2 132.45 172.95 131.45 173.3 129.85 173.7 128 174.2 128 174.65 128 174.85 128.25 175.6 128.4 175.65 128.45 175.8
L 129.5 178
Q 131.25 181.7 131.95 183.75 132.5 185.35 132.5 186.25 130.7337890625 181.5890625 128.6 176.8 128.67265625 176.9408203125 128.7 177.05 129.2 178.45 130.95 183.5 131.25 184.35 132.15 186.35 132.85 187.9 132.85 188.15 133.3 187.75 134.6 185.5 135.95 183.2 136.55 182.6 136.55 182.5 136.6 182.4 136.65 182.2 136.75 182.2 136.95 183.1 136.95 184.95 136.95 188.8 134.9 191.3 133.55 192.95 133.5 193 132.85 194 132.85 195.15 132.85 198.45 133.95 207.3 134.0759765625 208.323828125 134.2 209.25 135.9515625 207.245703125 137.55 205.1 137.2978515625 202.0392578125 137.15 198.95 137 194.85 137.7 190.75 138.7 183.7 138.75 181.55 138.8 180.2 138.6 179.25
M 109.3 193.7
L 107.55 194.85
Q 101.5 198 94.75 199.45 95.7 201 97.2 201.75 106.05 206.3 110.5 197
L 110.05 197
Q 109.4 197.9 108.7 198.85 108.25 199.4 107.65 199.8 108.15 199.05 108.6 198.3 109.9 196.15 109.3 193.7 Z"/>

<path fill="#242037" stroke="none" d="
M 89.8 174.75
Q 88.6 175.6 86.4 177.8 85.55 178.7 83.8 180.4 83.4 180.85 83.25 181.1 83 181.55 83.05 181.9
L 84.2 180.8 90.05 175.05
Q 90.25 174.85 90.15 174.7 90.05 174.6 89.8 174.75
M 104.9 178.3
Q 105.1 177.5 105.65 176.25 105.85 175.75 105.75 175.5 105.5 175.65 105.25 176.15 103.95 179 104.55 182 104.6 182 104.65 181.95 104.75 181.85 104.75 181.75 104.8 181.25 104.8 180.05 104.8 178.95 104.9 178.3
M 104.2 172.4
Q 103.6 171.4 103.5 171.25 103.4 171.15 103.3 171.1 103.15 171.1 103.1 171.15 103.05 171.25 103.15 171.4 104.15 173.1 104.85 174 105.95 175.3 107.15 175.95 107.3 176 107.45 176 107.6 176 107.65 175.85 105.5 174.55 104.2 172.4
M 80 177.25
Q 80.35 177 80.8 176.55 81.05 176.25 81.2 176.05 81.35 175.85 81.45 175.75 81.95 175.3 82.75 174.65
L 85.65 172.3
Q 84.35 172.85 82.4 174.45 81.5 175.15 81 175.65 80.85 175.8 80.7 175.95 80.2 176.5 79.95 177.05
L 80 177.25
M 80.15 176.25
Q 80.3 176.15 80.55 175.9 80.75 175.75 80.95 175.5
L 85 171.1
Q 85.25 170.8 85.15 170.65 85.1 170.55 84.9 170.6 84.75 170.65 84.6 170.8 82.45 172.95 80.3 175.5 80.15 175.65 80.1 175.75 79.95 176.1 80.15 176.25
M 77.15 163.55
Q 77.05 163.6 77 163.7 77.3 164.05 77.85 164.45 78.15 164.7 78.8 165.15
L 79.7 165.8
Q 79.95 165.95 80.45 166.3 80.9 166.6 81.1 166.9 81.35 167.3 81.4 167.75 81.45 168.2 81.15 168.55 81.05 168.65 80.8 168.75 80.7 168.85 80.45 168.95 79.85 169.25 79.2 170 78.85 170.4 78.15 171.25 77.9 171.5 77.4 172
L 76.8 172.5
Q 76.2 173.05 75.8 173 75.75 173 75.7 173 75.45 172.9 75.1 172.65 74.7 172.3 74.5 172.25 74.35 172.35 74.45 172.55 74.5 172.65 74.65 172.8 75.4 173.5 75.9 173.65 76.25 173.7 76.4 173.65 76.45 173.65 76.5 173.6 76.6 173.5 76.8 173.35
L 79.05 171.15
Q 79.45 170.75 79.5 170.65 79.95 170 80.05 169.95 80.25 169.75 80.85 169.5 81.4 169.25 81.6 169.05 82 168.65 82 167.95 81.95 167.35 81.7 166.85 81.45 166.3 81 165.95 80.85 165.85 80.45 165.65 80.1 165.45 79.95 165.3 79.45 164.85 79.15 164.6 78.75 164.3 78.2 164.05 77.5 163.7 77.15 163.55
M 79.35 159.7
Q 77.45 160.2 76.6 160.85 76.5 160.9 75.75 161.65 75.2 162.15 74.8 162.3 74.25 162.6 74.15 162.85 73.4 163.15 72.8 163.7 72.7 163.8 72.6 163.9 71.85 164.35 71.3 165.25 70.65 166.15 70.5 167.2 70.4 167.7 70.4 168.2 70.45 170.15 71.65 172.25
L 68.45 173.7
Q 68.05 173.9 67.9 174.05 67.6 174.35 67.75 174.7 67.9 175 68.5 175.05 71.3 175.3 74.05 175.25 74.45 175.7 74.95 176.25 76.2 177.6 76.9 178.45 76.85 178.5 76.8 178.65 76.5 180.35 76.45 181.1 76.45 181.65 76.6 182 76.75 182.3 77.25 182.8 77.25 182.85 77.6 183.5 77.85 183.95 78.1 184.1 78.3 184.2 78.6 184.3 79 184.4 79.15 184.45 79.3 184.5 79.6 184.7 79.9 184.9 80.05 184.95 80.3 185.1 80.55 185.05 80.65 185.05 80.75 185 81.1 185.6 81.25 185.9 81.5 186.25 81.85 186.85 81.8 186.85 81.75 186.9 81.2 187.35 80.95 187.55 80.55 187.95 80.4 188.35 80.25 188.7 80.2 189.3 80.2 189.95 80.3 190.3 80.45 190.8 80.95 191.4 81.8 192.55 83.05 193.4 83.55 193.8 84.05 193.95 83.5 194.2 83.25 194.5 82.9 194.9 82.85 195.4 82.8 195.95 83.05 196.45 83.25 196.75 83.85 197.3 85.1 198.35 85.75 198.8 86.9 199.5 87.95 199.8 88.05 199.8 88.15 199.85 88.25 199.85 88.4 199.85 88.95 201.3 89.35 202.55 89.75 203.65 90.55 206.35 90.9 207.4 91.15 208.3 91.5 209.4 91.8 210.15 92.45 212.1 93.8 215.25 93.9 215.45 94 215.7 94.65 217.2 95 218 95.65 219.3 96.3 220.2 96.7 220.7 97.3 221.3 97.25 221.4 97.25 221.5 97.25 221.65 97.5 221.95
L 98.1 222.7
Q 98.1 222.95 98.2 223.15
L 100.7 227.3
Q 102.15 229.75 103.1 230.85 103.11953125 230.8720703125 103.15 230.9 103.721484375 230.6775390625 104.3 230.45 103.6599609375 229.7919921875 103.25 229.3 102.65 228.5 101.05 225.8 100.45 224.75 99.85 224 99.6 223.6 99.35 223.25
L 106.25 229.4
Q 103.3 225.05 100 222.3 99.1 221.6 98.7 221.25 97.9 220.6 97.45 220.05 96.7 219.25 96.05 218
L 96.05 217.95
Q 96.021875 217.948046875 96 217.9
L 96 217.9
Q 95.6 217.15 95.05 215.7 92.45 209.4 90.3 202.6 89.65 200.4 89.55 200.05 89.05 198.65 88.6 197.55 88.5 197.3 88.25 196.85 88 196.3 87.6 195.45 86.95 194.15 86.65 193.35 86.15 191.85 85.9 191.15 85.4 189.8 84.9 189 84.5 188.35 83.55 187.35 82.5 186.25 82.15 185.7 81.65 185 81.15 183.9 80.6 182.7 80.3 182.05 79.05 179.25 77.05 176.95 76.55 176.45 75.25 175.1 75.15 175 75.05 174.85 75.05 174.75 75 174.65 74.95 174.5 74.8 174.45 74.7 174.4 74.6 174.35 73.95 173.7 73.55 173.2 71.7 171 71.4 168.9 71.4 168.75 71.4 168.65 71.25 167.3 71.75 166.1 72.3 164.8 73.35 164.2 73.6 164.05 73.75 163.85 74.25 163.6 74.8 163.45 76 163.15 77.2 163.3 78.65 163.5 80.25 164.45 80.7 164.75 81.35 165.15 82.05 165.65 83 166.4
L 85.15 168.1
Q 86.6 169.25 87.25 169.85 88.35 170.85 90.25 173.2
L 93.45 177.2
Q 96.9 181.5 98.35 183.6 99.6 185.45 100.05 185.95 100.5 186.45 101 186.9
L 100.95 186.95
Q 100.95 187 101 187.05 101.05 187.2 101.25 187.3 101.35 187.3 101.55 187.3 102.1 187.75 102.8 188.1 104.35 188.95 106.05 189.2 105.8 189 105.05 188.5 104.45 188.05 103.4 187.4 103.05 187.2 102.75 187 103.4 186.7 104.25 186.3
L 104.35 186.25
Q 104.4 186.35 104.45 186.35 104.7 186.5 105.05 186.05 105.7 185.2 106.05 184.75 106.2 184.55 107.1 183.35 107.85 182.35 108.4 181.6 109.35 180.25 109.95 179.4 110.1 179.6 110.25 179.7 110.3 179.35 110.25 179.05 110.8 178.2 110.85 178.1 111.4 177.45 111.95 176.85 112.9 175.8 113.8 175.15 114.3 174.85 114.55 174.65 114.95 174.35 115.2 174.1 115.5 173.8 115.4 173.55 115.2 173.6 114.9 173.75 114.35 174 113.65 174.4 112.95 174.85 112.55 175.15 112.3 175.3 112.15 175.45 111.75 175.75 110.85 176.7 110.3 177.4 109.8 178 109.75 177.9 109.7 177.85 109.35 177.3 109.15 177 108.85 176.55 108.7 176.15 108.5 175.55 108.45 174.4 108.35 172.65 108.6 171.8 108.8 171.15 108.8 170.9 108.85 170.4 108.55 170.1 107.6 172.55 107.85 175.15 107.95 175.95 108.05 176.35 108.25 176.85 108.9 177.85
L 109.4 178.6
Q 108.8 179.35 108.35 180.1 107.5 181.4 107.5 181.45 107.35 181.6 106.95 182.05 106.55 182.5 106.4 182.75 106.1 183.1 105.55 184.1
L 105.5 184.15
Q 105.25 183.75 105.25 182.9 105.25 182.45 105.35 181.8 105.45 180.8 105.75 179.35
L 106.1 177.6
Q 106.35 176.35 106.8 175.85
L 106.6 175.65
Q 105.95 176.1 105.7 177.05 105.55 177.45 105.3 178.8 105.2 179.5 104.9 180.95 104.75 181.65 104.75 182.3 104.7 182.7 104.75 183.1 104.8 183.7 105.05 184.05 105.2 184.25 105.4 184.4 104.95 185.05 104.6 185.4 104.4 185.65 104.3 185.85 104.3 185.9 104.3 185.95 103.95 186 103.55 186.1 102.75 186.35 102.35 186.5 102.25 186.5 102.15 186.55 101.4 185.95 100.9 185.4 100.35 184.8 99.4 183.4 98.15 181.5 95.85 178.55 95.9 178.6 96.05 178.6 97.95 178.65 100.8 177.45 104.4 175.95 105.45 175.7 105.35 175.4 104.85 175.45 103.7 175.55 102 176.3 99.6 177.35 99.25 177.45 98.05 177.85 96.2 178.05 95.95 178.05 95.85 178.2 95.7 178.3 95.7 178.4 95 177.5 94.2 176.5
L 93.25 175.35
Q 93.8 175.15 94.55 174.75 96.7 173.55 101.65 171.3
L 112.85 168.95
Q 115.15 168.4 115.85 168.25 116.05 168.2 116.25 168.15 116.25 168.1 116.3 168.1 116.9 168.05 118.2 167.65 121 166.7 123.95 166.2
L 124 166.2
Q 124.2 166.15 124.45 166.1 124.45 166.25 124.55 166.4 124.65 166.5 124.9 166.6 125 166.65 125.25 166.75 125.5 166.9 126 167.3 126.2 167.45 127.25 167.9 128.25 168.25 130.2 169.5 130.75 169.9 130.95 170.05 131.4 170.4 131.6 170.75 131.65 170.8 131.7 170.9 131.9 171.25 132.1 171.9 132.3 172.4 132.45 172.95 133.35 176.2 133.5 179.65 133.55 180.35 133.95 180.35 134.05 180.35 134.15 180.2 134.25 180.1 134.3 179.95 134.3 179.9 134.25 179.4 134.2 179.15 134.2 178.7 134.25 178.2 134.25 177.95 134.3 177.05 134.1 176 134.05 175.6 133.9 174.9 133.95 174.95 134 174.95 134.65 175.3 136 175.95 137.1 176.55 137.7 177.25 138.35 178 138.6 179.25 138.8 180.2 138.75 181.55 138.7 183.7 137.7 190.75 137 194.85 137.15 198.95 137.2978515625 202.0392578125 137.55 205.1 138.071484375 204.4310546875 138.55 203.7 138.3396484375 197.244140625 138.8 190.8 139.85 184.05 139.85 181.7 139.95 178.45 138.65 176.8 138 175.95 136.8 175.35 136.05 174.95 134.55 174.35 134.25 174.25 134 174.35 133.85 174.35 133.8 174.4 133.75 174.25 133.7 174.05
L 133.2 172.1
Q 132.9 170.75 132.45 170.15 132.05 169.55 130.8 168.85 128.85 167.7 128.15 167.35 127.15 166.85 126.65 166.65 125.9 166.3 125.35 166 127.4 165.7 129.55 165.6 130.45 165.6 130.9 165.5 131.55 165.35 132.3 164.95 132.8 164.7 133.55 164.15 134.6 163.45 135.15 163 135.35 162.85 135.5 162.7 135.5 162.85 135.65 162.95
L 136.25 162.8
Q 137.4 163 138.55 162.45 139.05 162.2 140 161.6 140.8 161.15 141.7 161.05 142.25 160.95 142.45 160.85 142.75 160.6 142.8 160 142.8 159.2 142.35 157.75
L 141.7 155.75
Q 141.5 155.1 141.2 154.85 140.9 154.65 140.3 154.7 139.6 154.7 139 154.85 136.9 154.4 134.15 154.9 132.55 155.25 128.7 156.5 124.4 157.9 117.35 159.6 114.75 156.65 111.2 154.8 109.5 153.95 108.2 153.75 107.25 153.6 106.1 153.7 105.35 153.8 104 154.05 91.4 156.4 79.35 159.7
M 80.3 163.35
Q 78.1 162.2 76.15 162.35 77.95 161.25 80.4 160.45 82.4 159.8 86.15 158.95 92.65 157.45 95.65 156.85 100.95 155.7 105.2 155.1 107.15 154.8 108.25 154.95 109.45 155.15 110.95 156 112.95 157.05 114.6 158.5 115.85 159.55 116 159.65 116.15 159.75 116.25 159.9 112.2 160.8 107.3 161.9 107.1 161.9 106.95 161.95 104.7 162.4 102.65 162.9
L 104.1 160.85 103.95 160.7
Q 103.8 160.75 103.65 160.95 103.55 161.05 103.4 161.35 103.35 161.45 102.95 161.95 102.65 162.25 102.4 162.65 102.4 161.75 102.75 160.75 102.85 160.5 103.05 160.05 103.35 159.4 103.8 158.4 104 157.95 103.75 157.8 103.4 158 103.15 158.5 103.05 158.65 102.75 159.35 102.7 159.5 102.6 159.75 102.45 160.2 102.15 160.8 101.9 161.7 101.9 162.55 101.9 162.85 101.95 163.05 96.4 164.3 92.25 165.4 92.1 165.3 92.05 165.25 92 165.15 91.9 165.05 91.7 164.75 91.55 164.6 91.45 164.45 91.4 164.3 91.3 163.95 91.3 163.2
L 91.35 161.3 91.35 161
Q 91.35 160.3 91.2 160.05 91.05 160 90.95 160.15 90.9 160.3 90.9 160.45
L 90.9 163.4
Q 90.9 163.55 90.9 163.7 90.75 163.45 90.55 163.15 90.5 163.1 90.45 163.05 90.4 163 90.4 162.95 90.2 162.85 90.15 162.95 90.05 163.1 90.2 163.3
L 90.2 163.35
Q 90.65 164 91 164.5 91 164.55 91.05 164.55 91.2 165 91.8 165.55 88.35 166.4 85.9 167.25 86.05 167.35 86.2 167.45 86.7 167.75 87.4 167.7 88.1 167.65 89.15 167.3 91.45 166.55 94.45 165.8 94.3 166 94.2 166.2 94.1 166.45 94.1 167.2 94.1 167.65 94.1 168.5 94.1 169.25 94.25 169.75 94.45 170.4 94.95 170.85 95.45 171.3 96.05 171.25 96.45 171.25 96.6 171.05 96.45 170.8 96.05 170.65 95.55 170.45 95.4 170.35 95 170.05 94.85 169.4 94.75 168.95 94.75 168.25
L 94.75 167.05
Q 94.75 166.7 94.8 166.5 94.9 166.05 95.5 165.55 99.2 164.6 103.9 163.7 106.75 163.15 109.1 162.65 116.05 161.25 118.8 160.55 118.85 160.55 127.9 157.9 130.15 157.25 132.05 156.8 132 157.05 132 157.5 132 157.75 132.05 158.3 132.05 158.6 131.95 159.2 131.9 159.75 131.9 160.05 131.85 161 132.2 161.85 131.8 161.95 131.35 162.05 130.95 162.1 130.1 162.2
L 126.25 162.65
Q 122.7 163.1 120.75 163.55 120.25 163.65 119.05 164
L 117.4 164.45
Q 117.25 164.5 117.1 164.6 116.85 164.55 116.55 164.65 115.8 164.8 115.2 165.05 114.4 165.35 114.1 165.75 113.85 166.15 113.95 166.7 114.05 167.1 114.3 167.4 109.5 168.4 102.45 170
L 99.85 170.6
Q 93.5 171.95 90.95 172.45 89.25 170.35 88.25 169.35 87.65 168.85 86.05 167.5 85.9 167.4 85.8 167.3
L 84.2 166.05
Q 83.95 165.8 83.7 165.65 82.75 164.9 82.3 164.6 81.25 163.8 80.3 163.35
M 71.2 173.6
Q 71.2 173.4 71.15 173.25 71.6 173 71.95 172.7 72.35 173.3 72.85 173.9 73 174.1 73.25 174.35
L 70.8 174.3
Q 69.85 174.3 69.4 174.15 69.65 174 70.75 173.45
L 70.75 173.8 70.85 174
Q 71.05 173.95 71.1 173.9 71.2 173.85 71.2 173.6
M 77.95 182.5
Q 77.5 181.6 77.4 181.35 77.3 180.9 77.4 180.1 77.5 179.6 77.55 179.3 78.3 180.45 79.25 182.2 79.8 183.25 80.2 184 79.9 183.75 79.5 183.6 79.15 183.5 78.95 183.45 78.65 183.35 78.5 183.2 78.3 183.05 77.95 182.5
M 116.6 165.3
Q 116.6 165.4 116.7 165.5 117.4 165.1 119.05 164.7 122 164.15 123.15 164 123.9 163.9 125.35 163.8 128.2 163.5 131.05 162.8 131.9 162.6 132.45 162.3
L 132.45 162.35
Q 132.55 162.3 132.6 162.2 132.95 161.95 133.15 161.7
L 133.05 161.45
Q 132.9 161.55 132.75 161.65 132.75 161.3 132.7 160.95 132.55 159.8 132.55 157.5 132.55 156.95 132.65 156.65 134.65 156.15 136.3 155.85 136.25 156.05 136.25 156.4 136.2 157.45 136.25 158.05 136.3 158.9 136.65 159.55 136.95 160.15 137.95 161.1 138.2 161.35 138.45 161.5 138.35 161.5 138.3 161.55 137.95 161.7 137.65 161.8 137 161.85 136.2 162.05 136.15 162.05 136.05 162.1 136.3 161.85 136.45 161.6 135.9 161.5 134.95 162.15 134.1 162.8 132.55 163.75 131.6 164.35 131 164.45 130.65 164.55 130.15 164.5 129.55 164.5 129.25 164.5 128.25 164.45 126.65 164.75 124.4 165.1 122.65 165.5 120.85 165.85 119.55 166.25
L 117.35 166.95
Q 116.9 167.1 116.55 167.15 116.3 166.95 115.75 167.1
L 115.7 167.1
Q 115.25 167 114.95 166.7 114.9193359375 166.6693359375 114.9 166.65 115.0869140625 166.6861328125 115.45 166.55 118.55 165.55 121.85 164.8 122.1 164.75 122.25 164.65 122.45 164.5 122.4 164.35
L 117.7 165.55
Q 115.7 166 114.85 166.6 114.75 166.45 114.75 166.3 114.75 166.1 115.1 165.9 115.85 165.55 116.6 165.3
M 81.75 187.9
Q 82.15 187.6 82.25 187.4 82.45 187.7 82.65 188 83.55 189.35 84 190.1 85 191.8 86.45 195.1 87.3 197.05 87.95 198.75 87.1 198.45 86.2 197.8 85.6 197.4 84.45 196.45 84.05 196.1 83.85 195.8 83.65 195.35 83.9 195 84.05 194.75 84.55 194.65 85.05 194.5 85.25 194.25 85.35 194.15 85.35 194.05 85.5 193.95 85.6 193.85 85.7 193.55 85.4 193.3 85.2 193.2 84.85 193.15 83.35 192.8 81.8 190.85 81.35 190.25 81.2 189.9 81.05 189.4 81.2 188.85 81.3 188.3 81.75 187.9
M 139.25 155.6
L 140.65 155.6 141.8 160
Q 141.35 160.1 141 160.25 140.15 159.15 139.45 158.05 139.05 157.4 138.95 157 138.95 156.7 139 156.3 139 156 139.05 155.85
L 139.1 155.8 139.2 155.75
Q 139.25 155.65 139.25 155.6
M 138.1 155.6
L 138.5 155.6 138.6 155.75
Q 138.5 156.75 138.6 157.2 138.7 157.6 139.15 158.3 139.8 159.3 140.2 159.8 140.4 160.1 140.65 160.35 140.2 160.5 139.85 160.65 139.4 160.95 139.05 161.15 138.9 161 138.7 160.85 138.15 160.35 137.9 160.1 136.7 158.75 136.7 156.95 136.7 156.15 137.05 155.75 137.1 155.75 137.15 155.7 137.65 155.65 138 155.6 138.05 155.6 138.1 155.6 Z"/>

<path fill="#E3C5AB" stroke="none" d="
M 77 163.7
Q 77.05 163.6 77.15 163.55 77.5 163.7 78.2 164.05 78.75 164.3 79.15 164.6 79.45 164.85 79.95 165.3 80.1 165.45 80.45 165.65 80.85 165.85 81 165.95 81.45 166.3 81.7 166.85 81.95 167.35 82 167.95 82 168.65 81.6 169.05 81.4 169.25 80.85 169.5 80.25 169.75 80.05 169.95 79.95 170 79.5 170.65 79.45 170.75 79.05 171.15
L 76.8 173.35
Q 76.6 173.5 76.5 173.6 78.7 175.25 80.1 175.75 80.15 175.65 80.3 175.5 82.45 172.95 84.6 170.8 84.75 170.65 84.9 170.6 85.1 170.55 85.15 170.65 85.25 170.8 85 171.1
L 80.95 175.5
Q 80.75 175.75 80.55 175.9 80.65 175.95 80.7 175.95 80.85 175.8 81 175.65 81.5 175.15 82.4 174.45 84.35 172.85 85.65 172.3
L 82.75 174.65
Q 81.95 175.3 81.45 175.75 81.35 175.85 81.2 176.05 81.25 176.05 81.35 176.05 80.7 177.2 82 178.7 82.65 179.45 83.8 180.4 85.55 178.7 86.4 177.8 88.6 175.6 89.8 174.75 90.05 174.6 90.15 174.7 90.25 174.85 90.05 175.05
L 84.2 180.8
Q 84.35 181.2 84.3 182.85 84.25 185.3 84.9 187.4 85.6 189.8 87 192.55 88.15 194.8 88.25 195.65 88.3 195.9 88.25 196.85 88.5 197.3 88.6 197.55 89.05 198.65 89.55 200.05 89.65 200.4 90.3 202.6 92.45 209.4 95.05 215.7 95.6 217.15 96 217.9
L 96 217.9
Q 96.021875 217.948046875 96.05 217.95 97.53671875 219.5330078125 99.5 221.3 103.38046875 224.76953125 108.85 228.5 120.9044921875 222.800390625 130.45 213.3 132.4052734375 211.335546875 134.2 209.25 134.0759765625 208.323828125 133.95 207.3 132.85 198.45 132.85 195.15 132.85 194 133.5 193 133.55 192.95 134.9 191.3 136.95 188.8 136.95 184.95 136.95 183.1 136.75 182.2 136.65 182.2 136.6 182.4 136.55 182.5 136.55 182.6 135.95 183.2 134.6 185.5 133.3 187.75 132.85 188.15 132.85 187.9 132.15 186.35 131.25 184.35 130.95 183.5 129.2 178.45 128.7 177.05 128.67265625 176.9408203125 128.6 176.8 128.590234375 176.7408203125 128.55 176.65 128.35 176.15 128.1 175.65 128.15 175.55 128.25 175.6 128 174.85 128 174.65 128 174.2 129.85 173.7 131.45 173.3 132.45 172.95 132.3 172.4 132.1 171.9 131.9 171.25 131.7 170.9 131.65 170.8 131.6 170.75 131.4 170.4 130.95 170.05 130.75 169.9 130.2 169.5 128.25 168.25 127.25 167.9 126.2 167.45 126 167.3 125.5 166.9 125.25 166.75 125 166.65 124.9 166.6 124.65 166.5 124.55 166.4 124.45 166.25 124.45 166.1 124.2 166.15 124 166.2
L 123.95 166.2
Q 120.55 167.45 116.85 169.05 111.8 171.3 111.2 171.95 111.2 172.95 112.5 173.6 113.5 173.6 114.7 173.2 115.8140625 172.8609375 116.4 172.3 115.77421875 172.9244140625 114.9 173.75 115.2 173.6 115.4 173.55 115.5 173.8 115.2 174.1 114.95 174.35 114.55 174.65 114.3 174.85 113.8 175.15 112.9 175.8 111.95 176.85 111.75 177.3 111.6 177.8 110.7 180.15 111 181.85 110.6 183.1 109.45 185.4 107.65 188.75 106.5 188.75 105.85 188.75 105.45 188.6 105.25 188.55 105.05 188.5 105.8 189 106.05 189.2 104.35 188.95 102.8 188.1 102.1 187.75 101.55 187.3 101.35 187.3 101.25 187.3 101.05 187.2 101 187.05 100.95 187 100.95 186.95
L 101 186.9
Q 100.5 186.45 100.05 185.95 99.6 185.45 98.35 183.6 96.9 181.5 93.45 177.2
L 90.25 173.2
Q 88.35 170.85 87.25 169.85 86.6 169.25 85.15 168.1
L 83 166.4
Q 82.05 165.65 81.35 165.15 80.7 164.75 80.25 164.45 78.65 163.5 77.2 163.3 76 163.15 74.8 163.45 74.25 163.6 73.75 163.85 73.6 164.05 73.35 164.2 72.3 164.8 71.75 166.1 71.25 167.3 71.4 168.65 71.4 168.75 71.4 168.9 72.6 170.45 75 172.4 75.35 172.7 75.7 173 75.75 173 75.8 173 76.2 173.05 76.8 172.5
L 77.4 172
Q 77.9 171.5 78.15 171.25 78.85 170.4 79.2 170 79.85 169.25 80.45 168.95 80.7 168.85 80.8 168.75 81.05 168.65 81.15 168.55 81.45 168.2 81.4 167.75 81.35 167.3 81.1 166.9 80.9 166.6 80.45 166.3 79.95 165.95 79.7 165.8
L 78.8 165.15
Q 78.15 164.7 77.85 164.45 77.3 164.05 77 163.7
M 107.55 194.85
L 109.3 193.7
Q 109.9 196.15 108.6 198.3 108.15 199.05 107.65 199.8 108.25 199.4 108.7 198.85 109.4 197.9 110.05 197
L 110.5 197
Q 106.05 206.3 97.2 201.75 95.7 201 94.75 199.45 101.5 198 107.55 194.85
M 133.85 192.35
Q 133.65 192.35 133.6 192.05
L 131.65 186.4
Q 131.55 186.1 131.7 186 132.95 189.25 133.85 192.35
M 76.15 162.35
Q 78.1 162.2 80.3 163.35 81.25 163.8 82.3 164.6 82.75 164.9 83.7 165.65 84.4 165.75 84.65 165.75 84.7 165.75 84.95 165.75 87.75 165.75 89.65 163.95 89.95 163.65 90.2 163.35
L 90.2 163.3
Q 90.05 163.1 90.15 162.95 90.2 162.85 90.4 162.95 90.4 163 90.45 163.05 90.5 163.1 90.55 163.15 90.75 163.45 90.9 163.7 90.9 163.55 90.9 163.4
L 90.9 160.45
Q 90.9 160.3 90.95 160.15 91.05 160 91.2 160.05 91.35 160.3 91.35 161
L 91.35 161.3
Q 91.8 161.4 92.85 161.85 94.1 162.4 94.95 162.4 97.5 162.4 99.65 161.1 100.75 160.4 102.05 159.25 102.3 159.5 102.6 159.75 102.7 159.5 102.75 159.35 103.05 158.65 103.15 158.5 103.4 158 103.75 157.8 104 157.95 103.8 158.4 103.35 159.4 103.05 160.05 104.5 161.05 106.95 161.95 107.1 161.9 107.3 161.9 112.2 160.8 116.25 159.9 116.15 159.75 116 159.65 115.85 159.55 114.6 158.5 112.95 157.05 110.95 156 109.45 155.15 108.25 154.95 107.15 154.8 105.2 155.1 100.95 155.7 95.65 156.85 92.65 157.45 86.15 158.95 82.4 159.8 80.4 160.45 77.95 161.25 76.15 162.35 Z"/>

<path fill="#94919F" stroke="none" d="
M 138.5 155.6
L 138.1 155.6
Q 138.05 155.6 138 155.6 137.65 155.65 137.15 155.7 137.1 155.75 137.05 155.75 136.7 156.15 136.7 156.95 136.7 158.75 137.9 160.1 138.15 160.35 138.7 160.85 138.9 161 139.05 161.15 139.4 160.95 139.85 160.65 140.2 160.5 140.65 160.35 140.4 160.1 140.2 159.8 139.8 159.3 139.15 158.3 138.7 157.6 138.6 157.2 138.5 156.75 138.6 155.75
L 138.5 155.6 Z"/>

<path fill="#D4D4D4" stroke="none" d="
M 140.65 155.6
L 139.25 155.6
Q 139.25 155.65 139.2 155.75
L 139.1 155.8 139.05 155.85
Q 139 156 139 156.3 138.95 156.7 138.95 157 139.05 157.4 139.45 158.05 140.15 159.15 141 160.25 141.35 160.1 141.8 160
L 140.65 155.6
M 116.7 165.5
Q 116.6 165.4 116.6 165.3 115.85 165.55 115.1 165.9 114.75 166.1 114.75 166.3 114.75 166.45 114.85 166.6 115.7 166 117.7 165.55
L 122.4 164.35
Q 122.45 164.5 122.25 164.65 122.1 164.75 121.85 164.8 118.55 165.55 115.45 166.55 115.0869140625 166.6861328125 114.9 166.65 114.9193359375 166.6693359375 114.95 166.7 115.25 167 115.7 167.1
L 115.75 167.1
Q 116.3 166.95 116.55 167.15 116.9 167.1 117.35 166.95
L 119.55 166.25
Q 120.85 165.85 122.65 165.5 124.4 165.1 126.65 164.75 128.25 164.45 129.25 164.5 129.55 164.5 130.15 164.5 130.65 164.55 131 164.45 131.6 164.35 132.55 163.75 134.1 162.8 134.95 162.15 135.9 161.5 136.45 161.6 136.3 161.85 136.05 162.1 136.15 162.05 136.2 162.05 137 161.85 137.65 161.8 137.95 161.7 138.3 161.55 138.35 161.5 138.45 161.5 138.2 161.35 137.95 161.1 136.95 160.15 136.65 159.55 136.3 158.9 136.25 158.05 136.2 157.45 136.25 156.4 136.25 156.05 136.3 155.85 134.65 156.15 132.65 156.65 132.55 156.95 132.55 157.5 132.55 159.8 132.7 160.95 132.75 161.3 132.75 161.65 132.9 161.55 133.05 161.45
L 133.15 161.7
Q 132.95 161.95 132.6 162.2 132.55 162.3 132.45 162.35
L 132.45 162.3
Q 131.9 162.6 131.05 162.8 128.2 163.5 125.35 163.8 123.9 163.9 123.15 164 122 164.15 119.05 164.7 117.4 165.1 116.7 165.5
M 71.15 173.25
Q 71.2 173.4 71.2 173.6 71.2 173.85 71.1 173.9 71.05 173.95 70.85 174
L 70.75 173.8 70.75 173.45
Q 69.65 174 69.4 174.15 69.85 174.3 70.8 174.3
L 73.25 174.35
Q 73 174.1 72.85 173.9 72.35 173.3 71.95 172.7 71.6 173 71.15 173.25 Z"/>

<path fill="#C9EE95" stroke="none" d="
M 109.1 162.65
Q 106.75 163.15 103.9 163.7 99.2 164.6 95.5 165.55 94.9 166.05 94.8 166.5 94.75 166.7 94.75 167.05
L 94.75 168.25
Q 94.75 168.95 94.85 169.4 95 170.05 95.4 170.35 95.55 170.45 96.05 170.65 96.45 170.8 96.6 171.05 96.45 171.25 96.05 171.25 95.45 171.3 94.95 170.85 94.45 170.4 94.25 169.75 94.1 169.25 94.1 168.5 94.1 167.65 94.1 167.2 94.1 166.45 94.2 166.2 94.3 166 94.45 165.8 91.45 166.55 89.15 167.3 88.1 167.65 87.4 167.7 86.7 167.75 86.2 167.45
L 86.05 167.5
Q 87.65 168.85 88.25 169.35 89.25 170.35 90.95 172.45 93.5 171.95 99.85 170.6
L 102.45 170
Q 109.5 168.4 114.3 167.4 114.05 167.1 113.95 166.7 113.85 166.15 114.1 165.75 114.4 165.35 115.2 165.05 115.8 164.8 116.55 164.65 116.85 164.55 117.1 164.6 117.25 164.5 117.4 164.45
L 119.05 164
Q 120.25 163.65 120.75 163.55 122.7 163.1 126.25 162.65
L 130.1 162.2
Q 130.95 162.1 131.35 162.05 131.8 161.95 132.2 161.85 131.85 161 131.9 160.05 131.9 159.75 131.95 159.2 132.05 158.6 132.05 158.3 132 157.75 132 157.5 132 157.05 132.05 156.8 130.15 157.25 127.9 157.9 118.85 160.55 118.8 160.55 116.05 161.25 109.1 162.65 Z"/>
</g>
</defs>

<g transform="matrix( 1, 0, 0, 1, 0,0) ">
<use xlink:href="#Layer1_0_FILL"/>
</g>

<g transform="matrix( 1, 0, 0, 1, 0,0) ">
<use xlink:href="#Layer0_0_FILL"/>
</g>

<g transform="matrix( 1, 0, 0, 1, 0,0) ">
<use xlink:href="#Layer0_1_FILL"/>
</g>

<g transform="matrix( 0.5326995849609375, -0.095794677734375, 0.0794830322265625, 0.4420013427734375, -3.05,105.9) ">
<use xlink:href="#Layer0_1_MEMBER_0_FILL"/>
</g>

<g transform="matrix( 0.5326995849609375, -0.095794677734375, 0.0794830322265625, 0.4420013427734375, -1.7,113.6) ">
<use xlink:href="#Layer0_1_MEMBER_1_FILL"/>
</g>

<g transform="matrix( 0.5326995849609375, -0.095794677734375, 0.0794830322265625, 0.4420013427734375, -0.3,121.35) ">
<use xlink:href="#Layer0_1_MEMBER_2_FILL"/>
</g>

<g transform="matrix( 0.5326995849609375, -0.095794677734375, 0.0794830322265625, 0.4420013427734375, 1.1,129.05) ">
<use xlink:href="#Layer0_1_MEMBER_3_FILL"/>
</g>

<g transform="matrix( 0.5326995849609375, -0.095794677734375, 0.0794830322265625, 0.4420013427734375, 2.5,136.8) ">
<use xlink:href="#Layer0_1_MEMBER_4_FILL"/>
</g>

<g transform="matrix( 0.6722259521484375, 0, 0, 0.6722259521484375, -16.25,-5.1) ">
<use xlink:href="#Layer0_1_MEMBER_5_FILL"/>
</g>

<g transform="matrix( 0.5326995849609375, -0.095794677734375, 0.0794830322265625, 0.4420013427734375, 5.2,152.5) ">
<use xlink:href="#Layer0_1_MEMBER_6_FILL"/>
</g>

<g transform="matrix( -0.5326995849609375, 0.095794677734375, -0.0794830322265625, -0.4420013427734375, 161.4,146.95) ">
<use xlink:href="#Layer0_1_MEMBER_7_FILL"/>
</g>

<g transform="matrix( -0.5326995849609375, 0.095794677734375, -0.0794830322265625, -0.4420013427734375, 160,139.25) ">
<use xlink:href="#Layer0_1_MEMBER_8_FILL"/>
</g>

<g transform="matrix( -0.5326995849609375, 0.095794677734375, -0.0794830322265625, -0.4420013427734375, 158.65,131.5) ">
<use xlink:href="#Layer0_1_MEMBER_9_FILL"/>
</g>

<g transform="matrix( -0.5326995849609375, 0.095794677734375, -0.0794830322265625, -0.4420013427734375, 157.25,123.85) ">
<use xlink:href="#Layer0_1_MEMBER_10_FILL"/>
</g>

<g transform="matrix( -0.5326995849609375, 0.095794677734375, -0.0794830322265625, -0.4420013427734375, 155.85,116.05) ">
<use xlink:href="#Layer0_1_MEMBER_11_FILL"/>
</g>

<g transform="matrix( 0.6722259521484375, 0, 0, 0.6722259521484375, -37.05,-116.6) ">
<use xlink:href="#Layer0_1_MEMBER_12_FILL"/>
</g>

<g transform="matrix( 0.5326995849609375, -0.095794677734375, 0.0794830322265625, 0.4420013427734375, -15.6,40.95) ">
<use xlink:href="#Layer0_1_MEMBER_13_FILL"/>
</g>

<g transform="matrix( 1, 0, 0, 1, 0,0) ">
<use xlink:href="#Layer0_2_FILL"/>
</g>
</svg>
