
<svg xmlns="http://www.w3.org/2000/svg" version="1.1" xmlns:xlink="http://www.w3.org/1999/xlink" preserveAspectRatio="none" x="0px" y="0px" width="153px" height="236px" viewBox="0 0 153 236">
<defs>
<g id="Layer2_0_FILL">
<path fill="#6FB590" stroke="none" d="
M 767.25 231.45
Q 756.65 220.9 742.95 215.05 728.75 209.05 713.3 209.05 697.85 209.05 683.7 215.05 670 220.9 659.4 231.45 648.85 242.05 643 255.75 637 269.9 637 285.35
L 637 368.15
Q 637 383.6 643 397.75 648.85 411.45 659.4 422.05 670 432.6 683.7 438.45 697.85 444.45 713.3 444.45 728.75 444.45 742.95 438.45 756.65 432.6 767.25 422.05 777.8 411.45 783.65 397.75 789.65 383.6 789.65 368.15
L 789.65 285.35
Q 789.65 269.9 783.65 255.75 777.8 242.05 767.25 231.45 Z"/>
</g>

<g id="Layer0_0_MEMBER_0_FILL">
<path fill="#94919F" stroke="none" d="
M 82.4 20.05
Q 82.2 19.95 81.95 19.85 80.65 19.35 79.9 19.35 79.1 19.3 77.45 19.85 68.25 21.9 62.35 29.3 62.05 29.9 61.7 30.7 61.15 32.1 60.8 33.45
L 60.3 35.85
Q 60.2 36.5 59.95 39.7 59.85 42.45 59.95 45.5
L 58.4 43.65 57.4 44.1
Q 56.35 45.6 56.05 47.35 55.55 50.55 56.95 53.45 57.55 54.7 57.65 56.25 57.75 57.4 57.85 58.65 57.95 59.9 58.9 60.85 60.3 62.25 61.8 63.4
L 62.7 68.75
Q 62.8 69.1 62.9 69.35 63.1 69.75 63.8 70.75 63.5 72.8 63.7 77.35 63.7 77.45 63.7 77.55 63.6 77.6 63.45 77.65 61.5 78.85 59.4 79.9 58.35 80.3 57.4 80.9 51.65 85 45.8 88.7 42.75 90.3 38.7 92.05 28.8 96.3 28.1 96.65 25.9 97.65 24.3 98.7 24.15 98.55 23.8 98.6 23.75 98.85 23.7 99.15 22.7 99.8 22 100.5 22.65 100.3 23.6 100 23.45 101.15 23.5 102.7
L 23.55 105.35
Q 21.25 106.95 19.65 109.8 18.35 112.05 17.35 115.65 16.25 119.25 16 122.2
L 15.8 124.9
Q 15.65 128.9 15.75 132.85 14.35 135.7 13.4 138.8
L 12.9 140.7
Q 12.7 142.1 12.7 142.8 12.7 143.7 12.85 144.1 13.15 144.9 14.65 145.45 14.5 145.6 14.4 145.85 13.85 147 13.5 149.35 13.45 149.55 13.4 149.8 12.75 153.75 11.15 160.35 10.1 164.7 9.5 167.55
L 8.25 174.6 7.85 174.75
Q 7.85 175.15 7.8 175.6 7.75 176.5 7.7 177.45 7.65 178.1 7.55 178.8 7.1 181.25 6.5 183.75 6.4 184.65 6.25 185.6 5.85 187.7 7.1 189.45 7.8 190.5 8.65 191.45 9.45 192.4 10.4 193.25 11.75 194.4 13.25 195.25 18.25 198.25 24 198.85 25.3 198.8 26.6 198.75 27.95 198.5 29.3 198.3 29.45 198.3 29.6 198.3
L 29.05 199.25
Q 26.6 204.05 26.1 206.65 25.75 208.45 25.85 213.5 25.8896484375 214.9490234375 25.9 216.4 26.3501953125 216.7908203125 26.8 217.15 27.0916015625 217.432421875 27.35 217.65 27.8390625 218.0728515625 28.3 218.45 36.7494140625 225.365625 46.9 229.7 53.975 232.7 61.35 234.2 65.8353515625 235.1041015625 70.4 235.45 70.9595703125 235.5150390625 71.5 235.55 73.976953125 235.7 76.5 235.7 84.225 235.7 91.65 234.2 99.05 232.7 106.15 229.7 114.5103515625 226.1298828125 121.7 220.8 121.915234375 220.6572265625 122.1 220.5 122.3810546875 220.3109375 122.6 220.1 122.823046875 219.965625 123 219.8 123.1240234375 219.7287109375 123.2 219.65 123.5251953125 219.41796875 123.8 219.15 124.5431640625 218.609765625 125.25 218 125.7013671875 217.6404296875 126.15 217.25 126.4197265625 217.0259765625 126.65 216.8 126.55 213.353125 125.7 209.15 125.2 206.65 123.8 201.2 123.1 198.5 122.95 197.1 122.8 195.95 122.8 191.35
L 122.65 187.95
Q 123.3 188.4 124.15 188.9 128.6 191.4 133.5 192.75 133.6 192.75 133.7 192.8 134.25 193.3 134.6 193.55 137.15 195.3 140.1 194.15 142.35 193.25 144.1 190.35 144.6 189.45 145.05 188.4 145.7 187 146.15 185.35 146.15 185.3 146.2 185.3
L 146.4 185.75
Q 147.8 181.3 147.25 178.7 146.45 174.8 146.35 170.8 146.15 159.9 142.65 149.6 142.25 148.55 141.9 147.55 142.4 147.3 142.7 147.05
L 143.7 146.25
Q 143.9 146.1 144.35 145.85 144.75 145.6 144.9 145.3 145.05 145 144.95 144.85
L 144.95 144.8
Q 145.15 143.9 145.15 142.05 145.15 141.2 144.85 140.7
L 144.1 139.95
Q 143.75 139.6 143.5 139 142.95 137.75 142.55 134.85
L 142.1 131.5
Q 142 129.95 141.85 129.2 141.75 128.45 141.35 127.05 140.55 124.3 139.7 122.65 138.85 121 138.8 120.45 138.7 119.6 138.5 119.35 138.35 119.1 138.05 119.1 138 119.1 137.95 119.1 137.95 117.3 137.95 116.4 137.95 114.6 137.85 113.7 137.6 111.6 136.55 109.15 135.95 107.6 134.45 104.8
L 133.7 103.6 134.75 101.2
Q 134.95 101.25 135.1 101.2 135.4 101.1 135.5 100.85 135.65 100.5 135.2 100.05 133.05 97.4 128.25 96.3 125.6 95.8 124.3 95.55 121.9 95.05 120.4 94.45 119.4 94.05 116.85 92.65
L 109.35 88.45
Q 103.25 85.05 100.3 83.25 99.95 83.05 99.75 83 99 81.3 96.9 80.45 95.9 80.1 93.05 79.75 93 79.75 92.95 79.75 93.15 78.35 93.4 76.9
L 93.6 76.65
Q 93.5 76.65 93.45 76.7 93.85 73.85 94.35 70.65 94.4 70.25 94.5 69.85 94.75 69.35 94.9 68.75
L 98.35 61.1
Q 100.1 61.3 101.05 59.6 102.25 57.4 103.1 55.1 103.4 54.3 103.55 53.55 103.65 52.95 103.75 52.4 103.95 52.25 104.05 52.15 103.95 52 103.8 51.95 103.95 50.1 103.75 48.35 103.45 46.45 102.75 44.65 102.6 44.6 102.45 44.6 102.2 44.55 102 44.55 101.55 44.65 101.2 44.95 101.2 43.5 101.15 42.05 100.8 38.95 99.85 36.1 95.3 22.25 82.4 20.05 Z"/>
</g>

<g id="Layer0_0_MEMBER_1_FILL">
<path fill="#242037" stroke="none" d="
M 123.3 218.35
L 123 218.4
Q 122.7494140625 219.1515625 122.6 220.1 122.823046875 219.965625 123 219.8 123.1412109375 218.9396484375 123.3 218.35
M 119.45 192.2
Q 119 193.45 118.9 195.65 118.55 202.55 118.6 204.85 118.6 206.95 118.75 207.95 118.9 209 119.75 211.5 120.5 213.7 120.6 215.05 120.65 215.9 120.7 217.55 120.8 218.65 121.45 220.2 121.586328125 220.5271484375 121.7 220.8 121.915234375 220.6572265625 122.1 220.5 121.8748046875 219.85546875 121.75 219.45 121.3 218.2 121.2 217.2 121.15 215.5 121.1 214.65 121 213.7 120.6 212.4 120.1 210.9 119.85 210.15 118.85 206.7 119.15 199.9
L 119.45 192.2
M 110.3 201.8
Q 110.7 201.3 110.7 201 110.25 201.05 109.6 201.8 100.9 212.35 91.1 222.45 88.8 224.75 88 226.15 89 225.45 90.3 224.05 100.55 213.85 110.3 201.8
M 110.15 207.95
Q 109.5 208.1 108.45 209.15 101 217.55 92.3 224.55 91.85 225 92 225.25 98.3 220.65 104 214.7
L 109.55 208.7
Q 110 208.25 110.15 207.95
M 55.25 231
Q 54.8 230.8 54.6 230.95 57.85 232.65 60.8 233.85 61.3 234 61.45 233.85 58.4 232.6 55.25 231
M 51.7 223.3
Q 54.3 225.25 58.6 227.9 60.9 229.45 63.65 231.05 64.2 231.4 64.65 231.35 59 228.1 51.3 222.2 42.8 215.55 38.4 212.35 37.5 211.65 36.95 211.6 36.65 211.95 37.45 212.55 40.4 214.3 44.65 217.75 50.25 222.25 51.7 223.3
M 48.2 224.75
Q 47.7 224.5 47.5 224.75 52.15 227.05 57.05 229.15 56.85 228.8 56.05 228.4
L 48.2 224.75
M 82.4 20.05
Q 82.2 19.95 81.95 19.85 80.65 19.35 79.9 19.35 79.1 19.3 77.45 19.85 68.25 21.9 62.35 29.3 62.05 29.9 61.7 30.7 61.15 32.1 60.8 33.45
L 60.3 35.85
Q 60.2 36.5 59.95 39.7 59.85 42.45 59.95 45.5
L 58.4 43.65 57.4 44.1
Q 56.35 45.6 56.05 47.35 55.55 50.55 56.95 53.45 57.55 54.7 57.65 56.25 57.75 57.4 57.85 58.65 57.95 59.9 58.9 60.85 60.3 62.25 61.8 63.4
L 62.7 68.75
Q 62.8 69.1 62.9 69.35 63.1 69.75 63.8 70.75 63.5 72.8 63.7 77.35 63.7 77.45 63.7 77.55 63.6 77.6 63.45 77.65 61.5 78.85 59.4 79.9 58.35 80.3 57.4 80.9 51.65 85 45.8 88.7 42.75 90.3 38.7 92.05 28.8 96.3 28.1 96.65 25.9 97.65 24.3 98.7 24.15 98.55 23.8 98.6 23.75 98.85 23.7 99.15 22.7 99.8 22 100.5 22.65 100.3 23.6 100 23.45 101.15 23.5 102.7
L 23.55 105.35
Q 21.25 106.95 19.65 109.8 18.35 112.05 17.35 115.65 16.25 119.25 16 122.2
L 15.8 124.9
Q 15.65 128.9 15.75 132.85 14.35 135.7 13.4 138.8
L 12.9 140.7
Q 12.7 142.1 12.7 142.8 12.7 143.7 12.85 144.1 13.15 144.9 14.65 145.45 14.5 145.6 14.4 145.85 13.85 147 13.5 149.35 13.45 149.55 13.4 149.8 12.75 153.75 11.15 160.35 10.1 164.7 9.5 167.55
L 8.25 174.6 7.85 174.75
Q 7.85 175.15 7.8 175.6 7.75 176.5 7.7 177.45 7.65 178.1 7.55 178.8 7.1 181.25 6.5 183.75 6.4 184.65 6.25 185.6 5.85 187.7 7.1 189.45 7.8 190.5 8.65 191.45 9.45 192.4 10.4 193.25 11.75 194.4 13.25 195.25 18.25 198.25 24 198.85 25.3 198.8 26.6 198.75 27.95 198.5 29.3 198.3 29.45 198.3 29.6 198.3
L 29.05 199.25
Q 26.6 204.05 26.1 206.65 25.75 208.45 25.85 213.5 25.8896484375 214.9490234375 25.9 216.4 26.3501953125 216.7908203125 26.8 217.15 27.0916015625 217.432421875 27.35 217.65 27.3580078125 211.3791015625 27.4 209.95 27.6 206.5 28.2 204.55
L 31 197.85
Q 31.65 197.45 32.1 196.75 32.7 197 33.35 197.25
L 35.35 198.1
Q 36.5 198.5 38.4 198.7 41.85 199.2 43.8 198.8 45.15 198.45 46.75 197.7 48.9 196.7 51 195.65 51.65 195.8 52.55 195.8 54.55 195.85 57.35 196.3 57.4 196.3 57.4 196.35 57.6 196.55 57.8 196.5 57.8 196.45 57.85 196.35 57.95 196.4 58.05 196.4
L 72.8 198.55
Q 72.6 198.9 72.55 199.7 72.45 208.4 72.3 212.75 72 219.95 71.3 225.7 70.55 232.25 70.5 232.7 70.396484375 234.1486328125 70.4 235.45 70.9595703125 235.5150390625 71.5 235.55 71.6521484375 233.201953125 72.05 230.35 73.1 222 73.2 221.05 73.3 220.15 73.55 215.3 73.95 205.5 73.7 200.6 73.65 199.4 73.95 198.7
L 87.55 200.7
Q 94.65 202.15 101.5 202.35
L 102.2 202.75
Q 102.2 201.95 102.15 201.2 101.9 194.75 100.2 188.6 100.25 188.55 100.35 188.55 100.6 188.5 101 188.2 101.8 187.65 103.6 186.75
L 107.9 184.7
Q 111.05 183.25 113.65 182.45
L 115.65 181.9
Q 116.35 181.7 117.8 181.35 118.6 181.15 119.2 180.85 119.25 181.45 119.35 182.15 119.6 184.25 120.2 185.4 120.7 186.3 121.8 187.25 121.75 187.35 121.75 187.5
L 121.6 193.75
Q 121.5 196.85 121.75 198.4 121.9 199.3 122.7 202.2 123.1 203.7 123.7 206.7
L 125.1 213.8
Q 125.226953125 214.9427734375 125.25 218 125.7013671875 217.6404296875 126.15 217.25 126.4197265625 217.0259765625 126.65 216.8 126.55 213.353125 125.7 209.15 125.2 206.65 123.8 201.2 123.1 198.5 122.95 197.1 122.8 195.95 122.8 191.35
L 122.65 187.95
Q 123.3 188.4 124.15 188.9 128.6 191.4 133.5 192.75 133.6 192.75 133.7 192.8 134.25 193.3 134.6 193.55 137.15 195.3 140.1 194.15 142.35 193.25 144.1 190.35 144.6 189.45 145.05 188.4 145.7 187 146.15 185.35 146.15 185.3 146.2 185.3
L 146.4 185.75
Q 147.8 181.3 147.25 178.7 146.45 174.8 146.35 170.8 146.15 159.9 142.65 149.6 142.25 148.55 141.9 147.55 142.4 147.3 142.7 147.05
L 143.7 146.25
Q 143.9 146.1 144.35 145.85 144.75 145.6 144.9 145.3 145.05 145 144.95 144.85
L 144.95 144.8
Q 145.15 143.9 145.15 142.05 145.15 141.2 144.85 140.7
L 144.1 139.95
Q 143.75 139.6 143.5 139 142.95 137.75 142.55 134.85
L 142.1 131.5
Q 142 129.95 141.85 129.2 141.75 128.45 141.35 127.05 140.55 124.3 139.7 122.65 138.85 121 138.8 120.45 138.7 119.6 138.5 119.35 138.35 119.1 138.05 119.1 138 119.1 137.95 119.1 137.95 117.3 137.95 116.4 137.95 114.6 137.85 113.7 137.6 111.6 136.55 109.15 135.95 107.6 134.45 104.8
L 133.7 103.6 134.75 101.2
Q 134.95 101.25 135.1 101.2 135.4 101.1 135.5 100.85 135.65 100.5 135.2 100.05 133.05 97.4 128.25 96.3 125.6 95.8 124.3 95.55 121.9 95.05 120.4 94.45 119.4 94.05 116.85 92.65
L 109.35 88.45
Q 103.25 85.05 100.3 83.25 99.95 83.05 99.75 83 99 81.3 96.9 80.45 95.9 80.1 93.05 79.75 93 79.75 92.95 79.75 93.15 78.35 93.4 76.9
L 93.6 76.65
Q 93.5 76.65 93.45 76.7 93.85 73.85 94.35 70.65 94.4 70.25 94.5 69.85 94.75 69.35 94.9 68.75
L 98.35 61.1
Q 100.1 61.3 101.05 59.6 102.25 57.4 103.1 55.1 103.4 54.3 103.55 53.55 103.65 52.95 103.75 52.4 103.95 52.25 104.05 52.15 103.95 52 103.8 51.95 103.95 50.1 103.75 48.35 103.45 46.45 102.75 44.65 102.6 44.6 102.45 44.6 102.2 44.55 102 44.55 101.55 44.65 101.2 44.95 101.2 43.5 101.15 42.05 100.8 38.95 99.85 36.1 95.3 22.25 82.4 20.05
M 91.65 26.25
Q 97.35 29.55 98.55 36.5 99.65 43.4 100 45.85
L 100.2 50.55
Q 100.35 50.5 100.45 50.45
L 99.95 51.8
Q 98.9 54.85 99 56.3 99.1 56.4 99.2 56.25 99.2 56.3 99.2 56.35
L 99.25 56.35 99.55 56.25
Q 99.7 55.85 100.5 54.95
L 101.65 53.75
Q 102.1 53.25 102.45 53 101.2 55.85 100.1 58.55 99.7 59.6 98.6 60.25 98.95 58.6 99.4 57 99.5 56.7 99.15 56.5
L 99.1 56.45
Q 98.35 57.9 97.9 59.4 97.8 59.7 97.75 60.05 97.7 60.4 97.7 60.8 97.7 61.6 97.15 62.6 96.9 63.1 96.65 63.6 96.55 63.4 96.4 63.35 96.15 63.25 95.95 63.4 95.85 63.5 95.75 63.95 95.6 64.7 94.35 65.8 93.9 66.65 93.55 67
L 93 67.5
Q 92.6 68.15 92.4 68.45 91.9 69.1 91.45 69.5 91.05 69.9 91.05 69.95
L 91.05 70
Q 90.9 70.25 91.2 70.45 92.05 69.85 93.5 67.95
L 94.45 66.75 95.4 65.55
Q 95.3 65.8 95.2 66.05 94.85 66.6 94.55 67.2 94.2 67.05 93.95 67.4 93.8 67.6 93.7 68.1
L 93.6 68.8
Q 93.2 69.4 92.75 70 92.8 70.05 92.9 70.1 92.35 70.75 91.5 71.6 90.75 72.3 90 73 86.75 75.8 83.3 77.75 82.2 78.35 81.65 78.45 81.5 78.45 81.4 78.5 81.95 77.7 81.75 77.15
L 81.4 77.35
Q 81.15 77.45 80.75 77.85 80.4 78.35 80.25 78.4
L 79.5 78.7
Q 79.05 79.05 78.85 79.2 78.5 79.55 78.1 79.45 78.1 79.25 78.25 79 78.2 78.8 77.9 78.8
L 77.5 79.05 77.5 79.1
Q 77.4 78.9 77.2 78.75 76.6 78.6 76.25 78.5 75.45 78.4 74.15 77.6
L 72.05 76.45
Q 70 75.25 69.25 74.65 67.8 73.6 65.2 70.45 65.1 70.3 65 70.2 64.4 69.45 64.15 68.9 64.65 69.4 65.5 70.4
L 65.65 70.3 64.3 68.3
Q 64 67.9 63.85 67.6 63.75 66.6 63.55 65.7 63.4 65 63.25 64.35 62.75 62.5 62.6 60.15 62.6 60.05 62.6 60 62.55 59.35 62.35 58.85 62.05 58.1 61.45 57.65 61.3 57.7 61.3 57.75 61.2 59.65 61.65 61.7 60.5 60.75 59.7 59.5 59.25 58.75 59.25 58.05 59.15 55.85 58.55 53.8 58.65 53.75 58.75 53.75 59.35 53.75 59.45 53.8 59.65 53.9 60 54.35 60.1 54.5 60.65 55 61.1 55.35 61.25 55.65
L 61.3 56.5
Q 61.4 56.45 61.5 56.35 61.5 56.45 61.5 56.5 61.65 57.05 61.85 57.35
L 62 57.35 62.05 57.35
Q 62.05 55.95 61.7 55.35
L 61.7 55.3
Q 61.95 52.8 61.05 51.3 60.9 51 60.05 49.9 59.65 49.5 59.4 49.4 59.2 49.3 58.75 49.3
L 58 49.35
Q 57.75 49.35 57.65 49.45 57.5 49.5 57.55 49.65 57.5 49.7 57.55 49.75 58.7 49.85 59.1 50.05
L 59.85 50.65
Q 60.35 51.25 60.65 51.9 60.75 52.05 60.8 52.25 60.95 52.65 61.05 53.3 61.1 53.85 61.2 54.65 61.1 54.55 61 54.45 60.35 53.8 60.25 53.65 60.05 53.3 59.8 53.15 59.6 53.05 59.15 53.05 58.75 53.05 58.3 53.15 58.1 52.5 57.8 51.75 57.4 50.75 57.3 49.75 56.95 47.2 58.2 44.8 58.45 44.9 58.6 45.1 59.25 45.85 60 46.45 60 47.05 60.05 47.7 60.25 50.15 61.15 51.05
L 61.15 47 61.2 47 61.15 46.95 61.15 45
Q 61.15 40.05 61.45 37.45 61.9 33.3 63.35 30.3 63.6 29.75 63.9 29.3 64.2 28.85 64.6 28.5 70.25 23.6 77.35 20.8 78.25 20.45 78.8 20.35 79.7 20.25 79.9 20.1 80.3 20.3 80.9 20.4 81.8 20.75 82.7 21.2 85.95 22.9 91.65 26.25
M 101.1 48.95
Q 101.1 48.8 101.1 48.7 101.15 47.45 101.2 46.2
L 102 45.75
Q 102.4 47.1 102.6 48.55 102.55 48.5 102.5 48.5 101.85 48.35 101.5 48.5 101.3 48.6 101.1 48.95
M 101.4 49.35
Q 101.95 49 102.65 48.95 102.8 50.15 102.75 51.4 102.75 51.85 102.7 52.25 102.2 52.5 101.85 52.8 101.05 53.4 100.1 54.6 99.7 55.05 99.5 55.45 99.45 55.55 99.4 55.7 99.45 55.2 99.65 54.6 99.9 53.75 100.4 52.65 101.35 50.5 101.4 49.35
M 98.65 83.25
Q 99 83.9 99.1 85.4
L 99.55 91.25
Q 99.8 91.4 100.05 91.25 100.4 87.75 100.1 84.8 100.1 84.6 100.05 84.45 103.7 86.85 107.45 89.05
L 116.5 94.05
Q 119.95 95.9 121.4 96.35 123.5 97.05 127.9 97.65 131.95 98.5 133.75 100.5 133.8 100.55 133.9 100.65 133.85 100.7 133.8 100.75 129.05 110.95 126.4 118.85 123.9 126.35 122.75 133.25 122.05 134.6 121.6 135.75 121.1 136.9 121.4 137.55 121.75 137.65 122.1 137 122.15 136.85 122.25 136.75 122.15 137.3 122.1 137.85 121.65 137.65 121 137.55
L 120.35 137.45
Q 120.45 137.2 120.55 136.85
L 124.7 122.15
Q 125.1 120.55 126.65 113.4 127.85 108.05 128.85 104.75 128.8 104.6 128.65 104.55 128.45 104.45 128.35 104.55
L 128 105.05
Q 126.85 108 125.85 112.45 125.3 114.95 124.25 120 124.05 120.8 121.9 128.5 120.45 133.6 119.95 137.05 119.9 137.25 119.95 137.4
L 117.4 136.95
Q 114.2 136.35 112.35 136.15 110.55 135.95 109.7 136.15 108.85 136.3 107.35 137.1
L 101.25 140.3 96.75 134.6
Q 95.6 133.2 94.85 132.55 93.7 131.55 92.5 131.35 91.05 131.15 88.45 132.25 86.15 133.25 83 134.8
L 94.75 105.35
Q 95.8 102.7 96.2 101.15 96.45 100 95.75 100.05 95.35 100.1 95.25 100.8 95.05 101.7 94.05 104.15 90.7 112.05 85.15 126.2 83.9 129.35 83.55 130.4 82.7 132.8 82.1 135.2 80.45 135.95 78.65 136.85 80.1 132.55 81.55 128 83.25 122.45 84.45 116.65 85.6 111 87.2 105.6 88.7 100.5 90.4 95.55 90.55 94.75 90.65 94.1 90.8 93.4 90.85 92.7
L 91.45 88.95
Q 92 85.65 92.8 80.7 94.85 80.75 96.55 81.55 98.05 82.2 98.65 83.25
M 92 78.5
L 91.6 80.8
Q 90.4 87.95 90.1 92.45 90 92.65 89.9 92.9 89.8 93.3 89.55 94.6
L 89.55 94.65 88.6 96.8
Q 86.6 97.7 84.8 98.6 82.95 99.5 80.5 99.8 79.35 99.7 78.4 99.3 76.3 98.4 74.3 97.45 74.35 97.35 74.25 97.15 73.8 96.2 72.55 94.9 71.5 92.5 70.35 90.25
L 69.7 88.95
Q 68.55 86.75 68.1 85.35 67.65 83.65 67.25 82.85
L 66.9 82.95
Q 67.35 85.55 69.55 89.9
L 71.45 93.75
Q 70.7 92.85 70.35 92.3 70 91.6 69.6 91.75 69.75 92.2 70.1 92.75 70.5 93.35 72 95 72.25 95.6 72.65 96.6 72.15 96.35 71.65 96.1 67.95 94.25 65.15 91
L 64.8 90.6
Q 64.8 90.5 64.8 90.4
L 64.85 80.6
Q 64.95 78.15 64.7 76.5
L 64.45 74.55
Q 64.4 73.75 64.5 72.5 64.55 72.05 64.6 71.65
L 65.5 72.7
Q 65.95 73.5 66.75 74.6 68.05 76.3 68.75 77.1 70.4 79 72.2 80.5
L 73.2 81.35
Q 74.1 82.15 76.1 83.45 78.1 84.75 79.15 85.2 79.7 85.4 80.25 85.55 80.2 85.65 80.2 85.75 80 85.9 79.05 86.35 78.3 86.65 78 87.05 77.6 87.65 77.7 88.9
L 77.75 90.35
Q 77.75 91.15 78.1 91.3
L 78.3 91.15 78.3 88.75
Q 78.4 87.65 78.7 87.3 78.95 87 79.75 86.7 80.5 86.4 80.75 86.05 80.8 85.9 80.85 85.7 82 85.9 83.15 85.8 83.9 85.75 84.55 85.55 82.1 88.05 80.3 89.45 80.15 89.55 80.15 89.7 80.15 89.85 80.45 89.85 80.75 89.85 81 89.6 83.5 88 86.5 84.75 86.7 84.6 86.95 84.45 87.9 83.8 88.8 82.7 89.4 81.95 89.55 81.25
L 92 78.5
M 53.75 84.6
L 60.6 80.55
Q 61.55 80 62.7 79.3
L 63.75 78.75
Q 63.75 80.7 63.75 84.9 63.75 87.55 63.9 89.65 63.85 90.1 63.9 90.6 63.85 90.65 63.85 90.75 64.9 96 65.7 99.35
L 67.4 101.65
Q 67.65 102.3 67.9 103 70.5 110 72.9 117.05 73.4 118.5 73.9 119.9 74.35 121.35 74.7 122.8 76 128.35 77 134.15 77.2 135.35 77.05 136.5 77 137.1 76.9 137.7 70.3 140.95 61.15 145.55 50.65 150.8 42.8 154.45
L 37.95 156.65
Q 37.45 153.6 36.7 150.6 37.4 150.35 37.8 149.95 37.65 149.55 36.75 149.55 36.6 149.55 36.45 149.55 35 143.85 32.85 138.3 31.85 135.7 30.7 133.15 25.1 120.6 25 106.7 25.05 103.1 24.5 99.6 25.15 99.35 25.95 99
L 32.8 96
Q 41.65 92.1 45.4 90.25 45.55 90.15 45.75 90.1
L 50.65 87.15
Q 50.75 87.6 51.05 88 59.2 99.45 67.75 110.7 68.75 112.1 69.9 113.65 70.15 114 70.35 113.85 69.25 111.65 67.85 109.4 58.4 98.45 52.35 86.05
L 53.8 85.2 53.75 84.6
M 67.7 95.1
Q 68.2 95.55 68.85 95.85 70.4 96.65 71.75 97.75 72.8 98.6 73.9 99.25 74 99.35 74.05 99.45 74.1 99.45 74.15 99.4 75.9 100.3 77.85 100.75 78.55 100.9 79.3 101.05 80.25 101.1 81.15 100.8 85.4 100.35 88.6 97.65 87.75 99.55 87 101.5 86.85 101.95 86.7 102.35 85.7 103.05 84.1 103.75
L 79.7 105.65
Q 79.2 105.9 79.4 106.1 81.8 105.5 86.45 103.3 86.3 103.75 86.2 104.25 82.75 119.5 78.15 134.25 78 133.1 77.9 132 77.3 126.65 75.65 121.65 75.35 120.65 75.05 119.65 72.5 110.7 68.75 101.95 73.15 104.75 78.4 105.95 77.3 105.25 75.65 104.5 73.7 103.7 72.75 103.25 70.25 102.05 68.15 100.65 68.05 100.45 67.95 100.2 67.25 98.65 66.5 97 65.5 94.75 65.1 92.5
L 65.85 93.5
Q 66.5 94.05 67.2 94.65 67.45 94.85 67.7 95.1
M 76.85 139.45
Q 77.25 139.3 77.55 139.1 79.9 137.9 82 136.95
L 82.1 136.95 82.15 136.85
Q 86.9 134.6 89.9 133.25 91.55 132.55 92.45 132.75 93.15 132.9 93.8 133.55 94 133.8 94.8 134.8 96.7 137.45 98.7 139.7 99.45 140.5 100.15 141.05 99.95 141.2 99.85 141.35 99.6 141.85 99.7 142.75
L 99.75 144.6
Q 99.8 144.8 99.9 145.25 100.1 145.5 100.3 145.55 99.4 145.9 99.05 146 98.2 146.25 98 146.45 97.55 146.9 97.65 147.6 97.7 148.5 98.35 149.45 98.4 149.5 98.45 149.55 98.8 150.1 99.35 150.65 99.7 151 100 151.2 99.5 151.5 99.45 151.55 98.8 152.25 99.5 153.25 99.75 153.65 100.3 154.3 100.45 154.45 100.6 154.65 100.8 154.95 101.1 155.55 101.4 156.05 101.75 156.25 102.15 156.4 102.6 156.4 104 156.5 105.3 156.5 105.2 157 105.35 157.35 105.6 158 106.1 158.05 106.15 158.15 106.15 158.45 105.6 159.1 105.1 159.95 104.6 160.85 104.8 161.35 104.95 161.8 105.75 162.3 105.8 162.4 106.05 162.9 106.25 163.25 106.45 163.4 106.7 163.6 107.3 163.6 107.65 163.6 107.95 163.6 108.05 164.45 108.65 165.6
L 113.5 175.55
Q 113.9 176.3 114.2 176.85
L 109.3 179.5 100.15 185.7
Q 99.7 185.95 99.5 186.25 97.5 179.95 93.95 174
L 94.35 173.8
Q 94.2 173.7 94.1 173.6 91.75 172 89.25 170.8 85.4 168.9 81.5 168 76.15 166.6 70.95 165.95 65.1 165.2 59.25 164.6 55 164.2 50.75 163.8 46.5 163.45 42.25 163.15 38.9 162.9 35.55 162.7 34.65 162.6 33.75 162.55 32.1 162 32.35 160.95 32.45 160.65 32.85 160.35 33.1 160.15 33.5 160 36.4 158.8 39.85 157.3
L 42.8 156
Q 50.95 152.25 61.8 146.85 70.45 142.55 76.85 139.45
M 23.55 106.6
L 23.55 106.7
Q 24.1 118.5 28.2 129.35 30.7 136.05 32.95 142.9 32.35 142.45 31.5 141.8 23.3 135.3 19.65 131.5 19.3 131.15 19.05 131.05 18.55 130.95 18.4 131.3 18.3 131.7 18.7 132 24.3 138 31.3 142.9 32.5 143.7 33.35 144.1 34.2 146.8 35.05 149.5 32.2 149.3 28.05 148.45 26 148 25.2 147.75
L 15.05 144.1
Q 14.35 143.8 14.15 143.5 14.05 143.3 14.05 142.7 14.1 141.4 14.55 139.65 15 137.85 15.6 136.25
L 15.8 135.7 15.85 136.05
Q 15.95 136.25 16.25 136.2 16.5 136.15 16.6 135.95 16.8 135.75 16.8 135.1 16.8 134.25 16.85 132.9
L 17.15 132.05
Q 17.25 131.75 17.2 131.5 17.05 131.25 16.9 131.2 17 128.2 17.25 123.6 17.35 121.7 17.5 120.8
L 18 118.6
Q 19.05 114.05 20.15 111.55 21.45 108.5 23.55 106.6
M 15.45 146.3
Q 16.8 147.55 17.55 148.1 18.1 148.55 19.95 149.7 23.8 152.05 26.15 153.25 25.55 153.15 25.05 153.2 27.4 154.9 30.9 155.75 32.15 156.05 34.1 156.35 34.25 156.35 34.4 156.4
L 35.75 156.6
Q 35.85 156.6 35.95 156.6 36.55 156.65 37.2 156.75 37.2 156.85 37.25 156.95
L 36.4 157.3
Q 34.95 157.9 33.65 158.45 31.95 159.2 31.35 160.05 30.9 160.55 30.9 161.1 30.85 161.75 31.4 162.4 30.9 162.35 30.4 162.35 28.45 162.25 28.25 163.35 28.4 163.35 28.55 163.4 28.55 163.5 28.6 163.7 28.85 164.9 29.45 166.9 29.75 167.95 30.2 169.25 30.35 169.65 30.5 170.05 30.9 171.35 31.25 172.45 30.95 172.4 30.45 172.55 29.85 172.7 29.35 172.95 25.65 168.75 20.95 168.05 20.85 168.3 20.95 168.55 23.95 169.45 25.25 170.3 26.3 171 27.25 171.85 27.15 171.8 27.05 171.75 25.2 170.9 23.6 170.25 23.55 170.2 23.5 170.2 23.3 170.1 23.15 170.05 20.2 168.9 18.05 168.35 17.65 168.25 17.45 168.45 17.15 168.9 18 169.15 19.65 169.65 21.35 170.25 24.75 171.55 28.3 173.35 27.3 173.8 26.45 174.35 26.3 174.45 26.15 174.55 25 175.4 24.8 176.05 24.65 176.55 24.75 177.3
L 24.9 179.85
Q 25 181.05 25.65 181.05 26.2 179.4 26.05 177.65 26.05 176.75 26.15 176.5 26.3 176.15 27 175.65 27.65 175.25 28.2 174.9 29.1 174.35 29.85 174.05 30.15 174.2 30.35 174.2 30.25 174.05 30.15 173.9 30.65 173.7 31.1 173.6 31.35 173.55 31.5 173.5 31.7 174.25 31.8 174.85 31.9 175.3 32 175.7 31.25 175.45 30.65 175.45
L 30.6 175.45
Q 30.4 175.4 30.2 175.5 30.15 175.5 30.1 175.55 29.85 175.65 29.9 175.9 29.95 176.15 30.3 176.25 30.85 176.45 31.95 176.8
L 32.55 177.2
Q 32.6 177.3 32.7 177.4 32.7 177.35 32.75 177.3
L 32.8 177.35
Q 32.95 177.4 33.9 177.55 37.15 177.65 38.75 177.5 39.8 177.45 41.2 177.2 42 177.05 43.65 176.7
L 48.55 175.8 48.5 175.85 48 176.55 47.5 177.05
Q 47.35 177.3 47.45 177.7
L 47.45 177.8 47.55 179.05 49.85 179.35 49.9 179.1 47.9 178.75
Q 47.95 178.55 47.95 177.95 47.95 177.8 48 177.7 48 177.4 48.1 177.25 48.45 176.95 48.6 176.75 48.85 176.25 49.1 176.05 49.25 175.95 49.7 175.8 50.1 175.7 50.25 175.55 50.2 175.5 50.15 175.5
L 50.3 175.45
Q 50.85 175.35 51.05 175.45 51.3 175.6 51.5 176.15 51.65 176.6 51.9 176.95 52 177.15 52.1 177.3 52.45 177.9 52.4 178.15 52.4 178.3 52.25 178.55
L 49.85 179.35 45.2 180.9
Q 44.4 180.1 43.4 179.6
L 42.55 179.1
Q 42.35 178.95 42.25 178.9 42.1 178.8 42.1 178.75
L 41.7 178.3
Q 41.5 178.1 41.2 178.2 41.4 178.65 41.7 179 42.05 179.4 42.55 179.7 42.95 179.9 43.7 180.25 44 180.4 44.5 180.75 44.7 180.85 45 181
L 44.95 181
Q 44.3 181.2 43.7 181.4
L 42.4 180.65
Q 41.95 180.45 41.75 180.6 41.7 180.7 41.85 180.85 42.25 181.15 43.2 181.55 39.2 182.85 35.55 184.6 35.25 184.7 35.15 184.85 35.05 185.1 35.2 185.25 36.6 185.05 38.4 184.4 39.45 184.05 41.55 183.25
L 46.6 181.7
Q 54.65 179.15 59.3 178.75 57.55 179.75 56.95 180.3 56.45 180.8 56.35 181.1 56.2 181.4 56.2 182.05
L 56.3 182.7
Q 56.45 183.1 57.1 183.4
L 53.65 184.6 53.6 184.55 51.35 181.3
Q 51.25 181.15 51.1 181.05 50.9 180.95 50.85 181.1 51.05 181.55 51.3 182.05 51.25 182.05 51.2 182.1 51.35 182.25 51.45 182.4 52.05 183.5 53.05 184.8
L 53.1 184.85
Q 52.7 185 51.4 185.55 51.35 185.45 51.3 185.4 50.9 184.55 50.4 184.55 50.5 185.1 50.9 185.8 49.75 186.3 48.4 186.75 44.1 188.25 42.3 188.6 42 188.7 41.9 188.85 41.7 189.2 42.35 189.45 43.25 189.65 44.4 189.3
L 46.35 188.55
Q 47.05 188.3 48.45 188 49.1 187.85 50.95 187.05
L 51.6 186.8
Q 52.05 187.45 52.75 188.15
L 53.7 189.15
Q 46.35 192.7 46.1 192.85 44.65 193.5 44.2 194.05 45.9 193.55 47.7 192.85 49.15 192.25 54.3 189.75
L 55.35 190.85
Q 55.5 190.7 55.3 190.5 54.95 190 54.65 189.6 55.45 189.15 56.35 188.75 56.45 188.95 56.55 189.15 56.8 189.65 57.05 189.5 56.85 189.1 56.55 188.6 58.9 187.45 60.9 186.65 60.85 186.85 60.85 187.4
L 60.9 188.05
Q 60.95 188.2 61.05 188.3 57.6 190.5 51.05 194 47.75 195.8 45.8 196.55 42.85 197.65 40.25 197.6 38.05 197.55 34.3 196.3 30.15 194.85 28.35 194.65 28 194.55 27.65 194.65 27.15 194.85 27.35 195.25 27.4 195.55 28 195.65 29.35 195.9 30.65 196.3 30.6 196.35 30.55 196.45 29.85 196.5 29.2 196.7 27.2 197.4 25.1 197.4 21.1 197.45 17.6 195.6 16 194.8 14.35 194.15 13 193.7 11.85 192.7 11.45 192.35 11.1 192 9.25 190.15 8 187.6 7.75 187.1 7.8 186.55 7.85 185.05 8.05 183.6 8.25 178.7 10.65 174.55 11.05 173.95 11.2 173.3 11.25 173.1 11.2 172.85
L 8.8 175.5 10.8 167.45
Q 12 162.35 13.15 157.4
L 13.7 154.75
Q 14.1 151.95 14.45 150.2 14.6 149.4 14.7 148.8 14.95 147.5 15.35 146.2 15.4 146.25 15.45 146.3
M 30.2 165.7
Q 29.8 164.45 29.7 163.5 31.1 163.6 32.55 163.7 33.2 163.75 33.85 163.8 34.6 164 35.35 164 36.25 164 37.2 164.05 41.55 164.25 46.6 164.9
L 46.7 166.45 32.55 165.45
Q 31.8 165.5 31.45 165.85 31.4 165.9 31.35 165.95
L 32.95 166.1
Q 33.85 166.15 34.8 166.25
L 40.85 166.8
Q 41.9 166.9 42.95 167 44.9 167.2 46.75 167.55 47 167.6 47.2 167.65 49.2 168.25 51.3 168.15
L 71.3 170.8
Q 71.95 170.95 72.6 171.15 73.05 171.2 73.55 171.1 73.7 171.05 73.85 171 74.55 170.9 75.2 170.6 77.45 170.85 79.75 171.45 82.2 172.05 84.7 172.6 84.8 172.6 84.85 172.6 84.9 172.6 84.95 172.6 85.75 172.7 86.5 172.4 86.6 172.6 86.7 172.35 86.35 171.85 85.7 171.75 80.7 170.75 75.7 169.8
L 75.7 168.15
Q 78.05 168.7 80.35 169.45 84.75 170.9 89.15 172.5
L 92.65 173.95
Q 94.85 178.35 96.8 182.95 100.15 190.7 101.15 198.95 101.3 200.15 101.4 201.35
L 60.05 195.2
Q 59.15 195.05 58.3 195 58.6 194.4 59.05 193.85 60.45 192.45 61.1 191.7 61.55 191.1 62.6 189.35 62.95 188.8 63.25 188.35 63.5 188.15 63.8 187.95 64.4 187.6 64.65 187.15 64.8 186.9 64.85 186.5
L 64.85 183.8
Q 64.9 183.3 64.85 183 64.8 182.85 64.75 182.75 64.55 182.5 63.85 182.5
L 62.05 182.65
Q 61.95 182.65 61.9 182.65
L 61.85 182.6
Q 62.6 180.35 61.3 178.4 60.85 177.75 60.5 177.6 60.05 177.3 59.15 177.4 57.25 177.5 53.4 178.3 53.75 177.55 53.4 176.85 53.35 176.75 53.3 176.7 53.05 176.2 52.9 175.95 52.55 174.95 52.15 174.55 51.4 173.8 49.3 174.2
L 43.9 175.25
Q 37.65 176.5 34.7 176.4 33.6 176.3 33.35 176.2
L 32.8 176
Q 32.85 173.45 31.7 170.3 31.7 170.25 31.7 170.2 30.9 167.95 30.55 166.85 30.35 166.25 30.2 165.7
M 73.75 167.75
L 75.25 168.05 74.55 169.6
Q 63.55 167.9 52.5 166.9 51.9 166.85 51.3 166.85 49.35 167.1 48 166.1
L 47.8 165.45
Q 47.8 165.25 47.85 165.05 52.4 165.45 56.95 165.9 61.2 166.3 65.5 166.75 69.55 167.2 73.75 167.75
M 56.95 181.5
Q 57.2 180.9 57.9 180.4 58.5 179.95 60.15 179.1 60.65 179.8 60.8 180.7 60.85 181.15 60.9 182 60.9 182.1 60.95 182.25 60.85 182.25 60.8 182.25 60.05 182.35 58 183.05
L 57.65 183.2
Q 57.3 183 57.15 182.85 56.65 182.35 56.95 181.5
M 55.05 185.55
L 56.05 185.15 60.8 183.75
Q 60.85 183.75 60.9 183.75
L 60.9 184.8
Q 60.9 185.5 61.1 185.75
L 61.15 185.8
Q 58.8 186.7 56.15 187.95 55.45 186.95 54.5 185.7 54.75 185.6 55.05 185.55
M 55.85 188.1
Q 55.85 187.9546875 55.8 187.8 55.853125 187.953125 55.95 188.05 55.9 188.1 55.85 188.1
M 53.85 185.85
Q 55.1 187.55 55.5 188.3 54.8 188.6 54.15 188.95 53.75 188.45 53.45 188.15
L 52.25 186.95
Q 52.1 186.8 52 186.6
L 53.75 185.85
Q 53.8 185.85 53.85 185.85
M 61.4 183.85
L 61.95 183.9
Q 61.9 183.65 62.35 183.55 63.05 183.45 63.75 183.55 63.75 184.4 63.8 184.55
L 63.8 184.6
Q 63.8 184.7 63.85 184.9 62.8 185.2 61.75 185.6 61.5 185.35 61.45 185.25
L 61.4 184.8 61.4 183.85
M 63.2 186.25
Q 62.8 186.2 62.45 186.05 63.15 185.75 63.85 185.55 63.65 186.5 62.25 187.45 61.9 187.7 61.5 188
L 61.45 187.75 61.4 186.65
Q 61.3 186.55 61.2 186.55 61.55 186.4 61.9 186.25 62.45 186.45 62.9 186.5
L 63.15 186.45
Q 63.3 186.35 63.2 186.25
M 133.15 104.9
Q 134 106.55 135.35 109.75 136.2 111.95 136.35 112.5 136.7 113.8 136.75 115.65 136.8 116.7 136.75 118.8 136.7 122.55 137.15 126.65 137.2 126.8 137.35 126.8 137.5 126.8 137.6 126.7 137.75 126.55 137.75 126.2 137.85 123.45 137.9 121.45 137.95 121.65 138.05 121.85 138.25 122.45 138.85 123.65
L 140.6 129.45
Q 140.7 129.95 140.7 130.95 140.7 131.4 140.95 133.65 141.25 136 141.5 137 141.8 138.55 142.4 139.95 142.65 140.65 143.05 141.05
L 143.8 141.65
Q 144 142 143.9 142.8 143.85 143.45 143.95 144.55 144 144.65 144 144.75 143.55 144.9 143 145.2 142.1 145.75 141.6 146 139.75 146.95 135.45 147.05
L 129.95 147.15
Q 127.5 147.2 126.3 147.3 126.25 147.2 126.2 147.1 125.8 146.1 124.55 144.45
L 130.1 144.25
Q 134.05 144.15 136 143.9 138.45 143.6 139.5 142.65 136.5 143.3 131.75 143.45 125.05 143.65 123.95 143.75 123.75 143.55 123.55 143.3 123.1 142.75 123.05 142.45 123 142.15 123.3 141.3 124 139.6 123.3 138.6 123.05 138.25 122.5 138 122.6 137.95 122.7 137.8 122.85 137.6 122.95 137.15 123.25 135.6 123.6 134.05 124.05 133.15 124.55 132.35 124.65 132.55 124.9 132.5 124.9 132.15 125.6 131.2 131.4 124.8 134.85 122.2 132.8 122.8 130.45 125.15 128.45 127.15 125.85 130.1 127.35 127.6 129.1 125.25 131.55 121.95 133.3 120.5
L 133.7 120.1
Q 133.8 119.75 133.6 119.55 133.4 119.35 132.8 119.7 131.25 120.9 129.8 122.5 128.75 123.75 127.7 125.3 125.85 127.9 124.5 130.1 127.45 118.1 132.4 106.5
L 133.15 104.9
M 122.1 139.55
Q 122.3 139.85 122.1 140.35 122 140.65 121.7 141.2 121.2 142.65 122.55 144.4 122.95 144.85 123.7 145.7 124.4 146.45 124.7 147.1 125.25 148.3 125.05 151 124.85 153.15 124.5 155.3
L 124.4 155.35
Q 124.2 155.6 124.4 155.8
L 124.45 155.8
Q 123.5 161.4 121.7 166.9 121.45 167.6 121.2 168.35
L 121.85 168.4
Q 122.15 167.95 122.45 167.45 123.4 165.6 124.15 163.2 124.3 162.65 124.5 161.95 124.8 161 125.1 159.75 125.2 159.85 125.3 159.95 125.6 160.2 126.65 160.9 126.75 160.95 126.8 161 126.9 161.05 127.05 161.15 128.35 162 130.35 163.6 132.8 165.5 133.9 166.25
L 136.05 167.65
Q 137.25 168.35 137.9 168.45 137.9 168.4 137.9 168.35 137.9 168.1 137.6 167.85 136.85 167.05 135.25 165.85
L 134.1 165
Q 137.8 166.25 139.6 166.55 139.95 166.65 140.1 166.45 139.15 165.95 137.2 165.4 135.15 164.8 134.25 164.35 133.5 163.9 133.15 164.25
L 130.75 162.45 130.1 161.95
Q 128.8 160.95 127.8 160.25 127.2 159.85 126.7 159.5 125.75 158.95 125.4 158.4 125.45 158 125.55 157.6 125.8 156.25 126.05 155.1 128.05 154.15 131.05 152.55 135.35 150.2 137.65 149.3 138.45 148.95 138.95 148.75 138.6 149 138.2 149.25 134.55 151.7 130.2 155.05 130.65 155.2 131.45 154.7 137.9 150.25 141.1 147.85 141.35 149.15 141.6 150.45 142.1 153.2 142.65 155.9 145.4 169.65 145.35 183.45 144.55 186.7 143.5 188.9 143.15 189.7 142.75 190.3 141.95 191.55 141 192.2 139.85 193.05 138.4 193.15 136.9 193.3 135.65 192.65 135.45 192.55 135.15 192.35 134.95 192.15 134.6 191.95 134 191.5 133.2 190.85 130.95 189.05 128.25 188 128.3 189.15 129.5 189.85 129.6 189.95 129.8 190.05 127.65 189.15 125.65 188.15 122 186.3 121.15 184.05 120.9 183.4 120.7 181.8 120.55 180.35 119.95 177.7
L 119.4 175
Q 119 173 118.55 172 118.35 171.55 117.6 170.35 116.75 169 116 167.95
L 119.35 169.3
Q 119.85 169.5 120.1 169.45 120.6 169.35 120.6 168.95 120.6 168.8 120.1 168.4 116.6 166.6 114.75 165.9 113.85 165.65 113.3 165.2 113.05 165 112.5 164.1
L 111.5 162.2
Q 111.4 161.95 111.35 161.85 111.55 161.55 111.75 161.25 111 160.9 109.55 161.6 109.4 161.65 109.25 161.75
L 109.25 161.5
Q 109.25 161 109.1 160.8
L 108.9 160.6 108.9 160.35 108.6 160.05
Q 108.4 159.95 108.15 159.9 107.9 159.85 107.6 159.85
L 107.6 159.95 106.95 160.15
Q 106.65 160.25 106.7 160.45 106.7 160.5 106.85 160.65
L 107.15 160.65 108.2 160.5 108.85 161.9
Q 107.85 162.3 107.3 162.2 107.35 161.9 106.9 161.55 106.6 161.3 106.5 161.1 106.4 161 106.4 160.9 106.35 160.65 106.6 160.3 107.8 158.35 108.85 158.05 109.45 157.85 110.65 157.95
L 118.4 158.55
Q 118.8 158.65 119.15 158.5 119.5 158.3 119.5 158.1 119.55 158.05 119.6 158.05 119.9 158 120.1 157.9 119.8 157.5 119.2 157.25 118.45 156.95 118.1 156.8 117.45 156.55 116.2 155.75 115 155 114.3 154.75 113.05 154.3 111.25 154.4 110.6 154.45 108.15 154.8 105.25 155.15 103.2 155.15 102.75 155.15 102.6 155.05 102.3 154.95 102.05 154.5 101.9 154.25 101.75 154 101.2 153.2 100.35 152.25 100.4 152.2 100.85 151.9 101.55 151.95 103.05 152 103.6 152.1 103.85 152.35
L 104 153.45 104.05 154.05
Q 104.3 154.15 104.5 153.85 104.65 153.65 104.65 153.35
L 104.65 153.25 104.7 152.45
Q 104.7 152.05 104.6 151.9 104.55 151.75 104.2 151.5 103.45 151.15 102.55 151.2
L 101.45 151.2
Q 101.45 151.15 101.45 151.1 102.5 150.8 103.5 150.25 104.35 149.75 104.6 149.7 105 149.5 105.85 149.4
L 106.25 149.3
Q 106.3 149.3 106.3 149.35
L 107.75 151.8
Q 107.9 152.05 108.1 152.2 108.3 152.35 108.5 152.3 108.45 152.2 108.4 152.1 107.6 150.35 106.85 149.1
L 107.4 148.95 107.5 149.1
Q 107.95 149.65 108.3 150.65 108.55 150.65 108.4 150.25 108.15 149.55 107.7 148.9
L 109.75 148.3
Q 111.75 147.75 112.7 147.85 112.7 147.95 112.7 148.15 112.65 148.75 112.75 149.1 112.85 149.5 113.1 150.2 113.15 150.5 113.2 151.15 113.25 151.5 113.3 151.75 113.3 151.95 113.35 152.1 113.45 151.95 113.5 151.8 113.8 151.05 113.55 149.95
L 113.3 149
Q 113.15 148.45 113.2 147.9 114.05 148.1 115.05 148.75 115.7 149.15 117 150.05
L 118.4 150.75
Q 118.95 150.95 119.2 150.85
L 119.25 150.8 119.25 150.65
Q 117.5 149.2 115.4 147.95 113.3 146.7 111.9 146.75 111.15 146.85 110.8 147 109.65 147.5 109.45 147.55
L 108.1 147.75
Q 107.55 147.95 107.2 148.1
L 107 147.85
Q 106.65 147.35 106.45 146.65 106.4 146.6 106.4 146.55
L 106.2 146.2
Q 106 146 105.85 146.15 105.9 146.4 106.05 146.8 106.1 146.95 106.2 147.15 106.55 147.9 106.8 148.25
L 106.75 148.25
Q 106.55 148.3 106.4 148.35 105.9 147.5 105.8 146.9 105.65 146.5 105.7 146.2 105.7 145.75 105.65 145.65 105.6 145.5 105.45 145.45 105.3 145.4 105.2 145.5 105.1 146.3 105.3 147.1 105.35 147.45 105.45 147.75 105.55 148.1 105.75 148.5 104.75 148.7 104.15 148.95 103.75 149.1 102.8 149.65 102.7 149.7 102.55 149.8 102.6 149.75 102.6 149.7
L 102.85 149.25
Q 102.95 149.05 102.9 148.65 102.9 148.2 102.9 148.05 102.9 147.55 102.8 147.45 102.7 147.35 102.5 147.35 101.75 147.25 101.1 147.15 100.4 147.05 99.8 147.05
L 100.8 146.6
Q 102.1 146.05 103.25 145.55 106.35 144.25 108.15 143.55 109.75 142.95 110.55 142.8 110.8 142.75 111 142.75
L 111.15 143.05 112 145.45 112.05 145.65 112.25 145.6 112.25 145.55 111.8 143.8 111.55 143.3
Q 111.5 142.95 111.45 142.7 112.45 142.65 113.35 142.85 113.7 142.9 115.2 143.4
L 115.85 143.5
Q 116.25 143.4 116.3 143.15 116.2 143.1 116.15 143.05 116.3 142.95 116.45 142.7 116.6 142.55 116.85 141.95
L 116.6 141.95 116.5 142.05 116.1 142.35 115.95 142.6 115.85 142.9
Q 114.7 142.25 114 142 113.2 141.75 112.15 141.65 111.15 141.5 110.4 141.6 110.45 141.45 110.45 141.25
L 110.45 140.55 110.55 139.75
Q 110.55 139.7 110.55 139.65 110.75 140 110.85 140.1
L 110.95 140.1
Q 110.95 139.8 110.65 139.3
L 110.45 138.95
Q 110.35 138.55 110.15 138.1 109.95 137.65 109.85 137.6
L 109.8 137.55
Q 110.75 137.35 112.75 137.65 113.75 137.8 121.2 139.1 121.95 139.35 122.1 139.55
M 100.8 145.3
Q 100.7 145.35 100.6 145.4 100.95 144.95 100.85 143.85 100.75 142.6 101.05 142.15 101.15 142 101.45 141.8 102.05 142 102.6 142
L 102.5 141.85 103.15 141.9
Q 104 141.9 104.55 142.3 104.35 142.8 104.15 143.05 103.8 143.4 103.75 143.6 103.55 143.9 103.75 144.1
L 100.8 145.3
M 98.95 147.5
Q 99.5 147.5 100.4 147.65 100.55 147.7 100.7 147.7 102.15 148 102.25 148 102.3 148.1 102.3 148.25 102.3 148.6 102.15 149.1 101.95 149.65 102.1 150.05 101.7 150.2 101.35 150.3 101.25 150.35 101.15 150.4 100.95 150.2 100.3 149.65 100 149.4 99.8 149.15 99.55 148.85 99.35 148.55 99.2 148.3 99.05 148.05 98.9 147.75 98.95 147.5
M 109.15 137.8
L 109.3 137.85
Q 109.5 137.9 109.65 138.2 109.7 138.25 109.75 138.35
L 109.75 138.4 110 139.35
Q 110.1 139.85 110.1 140.85 110.1 141.3 110.15 141.6 109.65 141.65 107.8 142.35
L 104.15 143.9 104.75 143.3
Q 105.25 142.7 105.25 142.15 105.35 142 105.15 141.8 105.1 141.75 104.85 141.6 104.25 141.35 103.7 141.35
L 102.2 141.3 107.8 138.4
Q 108.5 138 109.15 137.8
M 113.65 155.9
Q 114.45 156.1 116 156.95 116.65 157.35 117.25 157.6
L 111 156.7
Q 109.2 156.5 108.4 156.75 107.7 156.95 107 157.55 107 157.2 106.95 156.7 106.95 156.5 106.95 156.4 107.8 156.3 108.6 156.15 109.45 156.05 111.15 155.75 112.6 155.6 113.65 155.9
M 134.7 185.2
L 134.7 185.4 139.1 186
Q 139.65 186 139.9 185.95
L 139.9 185.8
Q 139.7 185.8 135.35 185.2 134.9 185.1 134.7 185.2
M 140 183.7
Q 136.75 181.65 133 179.8
L 132.55 179.7
Q 132.25 179.8 132.4 180.05 133.85 180.55 136.35 182.05 138.95 183.6 140.25 184.1 140.3 183.9 140 183.7
M 129.5 144.9
Q 129.4 145 129.45 145.15 132.05 145.2 132.95 145.2 134.95 145.1 136.45 144.75 136.75 144.75 136.65 144.55
L 129.8 144.8 129.5 144.9
M 133.2 125.6
Q 134.45 124.75 135.15 124.15 131.5 125.7 128.5 128.75 127.65 129.7 127.35 130.45 127.65 130.65 127.85 130.45 128.8 128.7 131.2 126.95 131.55 126.7 133.2 125.6
M 90.7 176.9
Q 90.3 176.25 90 176.55 89.95 176.6 89.95 176.75 89.9 176.9 89.95 177.1 90.2 177.7 90.8 178.7 90.85 178.8 90.9 178.9 93.05 182.45 95.75 187.9 98 192.45 98.6 194.5
L 99 195.85
Q 99.05 196 99.1 196.2 99.65 197.95 100.45 199.85
L 100.8 199.8 100.15 197.4 98.55 191.8 97.75 189.95
Q 94.6 183.3 90.7 176.9
M 39.8 194.55
Q 39.6 194.75 39.75 194.9
L 42.2 195
Q 42.7 195 42.85 194.8
L 43 194.65
Q 43.1 194.55 43.35 194.4 43.6 194.2 43.55 194 43.5 194 42.45 194.25
L 41.75 194.35
Q 41.2 194.35 40.2 194.45
L 39.8 194.55
M 37.4 190.55
Q 37.7 190.5 38.3 190.2
L 40.1 189.15
Q 39.5 189 38.6 189.3 37.2 189.8 37.1 189.8
L 35.6 189.9
Q 34.7 189.9 34.25 189.8
L 33.2 189.4
Q 32.55 189.2 32.15 189.55 33.55 190.45 34.35 190.55 34.65 190.6 35.3 190.6
L 37.4 190.55
M 32.1 185.5
L 31.15 185.4
Q 30.45 185.3 30.3 185.15
L 29.8 184.6
Q 29.45 184.25 29.15 184.5 29 184.65 29.1 184.95 29.2 185.35 29.45 185.6
L 29.9 185.9 30.5 186.1 30.85 186.15 31.35 186.15
Q 32.45 186.25 32.9 185.85 32.7 185.5 32.1 185.5
M 22 137.8
Q 21.85 137.65 21.6 137.6 21.35 137.55 21.3 137.7 21.15 137.9 21.5 138.15 25.9 142.45 32 143.7 31.7 143.2 30.5 142.8 25.7 141.3 22 137.8
M 18.65 142.8
Q 18.25 142.5 17.95 142.45 17.45 142.45 17.3 142.85 24.4 146.9 32.4 147.65 32.1 147.55 25.35 145.6 21.1 144.4 18.65 142.8
M 75.25 106.85
Q 75.1 107.05 75.5 107.3 79.1 109.2 80.75 109.65 80.75 109.3 80.2 109.1 78.05 108.25 76.2 107.15 75.6 106.85 75.25 106.85
M 71.45 104.35
Q 71.75 104.7 72.35 104.9 76.55 106.6 80.25 108.8 80.45 108.6 80.05 108.3 75.85 105.45 72.15 104.3 71.7 104.1 71.45 104.35
M 69.45 135.25
Q 67.45 134.15 63.15 132.55 59.2 131.05 50.8 127.2 42.8 123.5 38.45 121.9 38.2 121.8 37.95 121.9 37.65 121.95 37.7 122.15 37.75 122.35 38.05 122.45 41.35 123.75 51.9 128.55 60.5 132.45 65.9 134.3 68.2 135.1 69.45 135.25
M 59.6 139.75
Q 59.2 139.4 58.1 139.2 54.55 138.45 51.3 137.1 51.1 137 50.95 137.05 50.65 137.15 50.75 137.3 54.85 139.2 59.6 139.75
M 48.95 134.05
Q 43.5 131.85 40.7 130.85 40.15 130.65 40 131
L 40.85 131.4
Q 49.95 135.55 65.5 139.55 64.8 139 63.5 138.6 61.6 137.95 56.25 136.4 51.6 135 48.95 134.05
M 60.3 133.95
Q 59.7 133.7 59.15 133.7 59.2 133.9 59.6 134.1
L 64.5 135.95
Q 67.65 137.15 69.7 137.5 69.8 137.55 69.65 137.35
L 60.3 133.95
M 51.5 113.8
L 51.5 113.95 55 115.85
Q 55.6 116.2 55.9 116.15 55.85 116 55.3 115.6
L 52.45 114.05
Q 51.85 113.75 51.5 113.8
M 64.9 117.4
Q 65.3 117.05 64.6 116.45 61.2 113.75 53.85 109.25 46.5 104.7 43.1 102.05 42.9 101.85 42.55 101.75 42.1 101.75 42.1 102.1 42.1 102.2 42.35 102.45 44.25 104.15 45.75 105.3 47.2 106.35 49.8 107.9 53.15 109.95 62.85 116.2 64.15 117.1 64.9 117.4
M 119.3 119.35
Q 117.25 118.85 114.95 118.85 109.5 118.35 104.45 116.85 100.95 115.7 97.3 115.8 96.55 118.35 96.95 121.1 97.25 123.2 99.4 123.55 104.35 123.75 109.05 124.55 110.3 124.65 111.5 125 115.2 125.75 118.8 125.55 119.2 124.95 119.3 123.95 119.6 121.7 119.3 119.35
M 103 117.7
Q 110.6 119.55 118.5 120
L 118.15 124.7 98.6 122.35
Q 98.5 121.95 98.35 121.7 98.1 121.35 98.05 120.9 97.9 118.75 97.85 116.65 98.55 116.7 99.25 116.8 101.15 117.15 103 117.7
M 79.5 134.8
Q 79.3 135.3 79.55 135.55 79.95 135.25 80.25 134.25 81.35 130.55 83.9 124.85 87.05 117.7 87.85 115.6
L 90 109.85
Q 89.8 109.5 89.5 109.8 89.35 109.9 89.25 110.25 88.05 113.9 84.2 122.5 80.8 130.2 79.5 134.8
M 80.15 75.45
Q 80.2 75.15 80.35 75 80.5 74.85 80.85 74.55 80.45 74.5 79.95 75 79.75 75.3 79.55 75.5 79.6 75.35 79.65 75.1 79.55 75.05 79.3 75.3 78.5 75.9 78.1 76.35 78 76.4 77.95 76.45
L 77.6 76.85 77.05 77.2
Q 76.65 77.4 76.8 77.75 77.55 77.55 78.2 76.9
L 78.3 76.85 78.55 76.9
Q 78.75 76.65 79.35 76.2 79.9 75.8 80.1 75.45
L 80.15 75.45
M 69.55 66.1
Q 69.55 65.7 69.45 65.55 69.1 65.3 69 65.55 68.95 66.05 68.95 66.55 68.85 67.35 68.9 68.05 68.9 68.25 68.95 68.45 69.05 69.85 69.45 71.05 69.4 71 69.35 70.95 68.65 70.3 67.65 68.6 67.3 68.15 67.05 68.25 66.9 68.4 66.9 68.65 66.9 68.8 67.1 69 67.75 70 68.35 70.75 68.5 70.9 68.6 71.05 67.95 70.5 67.25 69.8 66.5 69.05 66.1 68.4 65.8 67.95 65.45 67.1 65 66.1 64.85 65.8 64.5 65.25 64.15 65.45 64.2 65.65 64.25 65.85 64.85 68.15 66.35 69.9 66.75 70.3 68.35 71.7 69.2 72.45 69.85 72.25
L 69.85 72.2
Q 69.95 72.35 70.1 72.45 70.15 72.6 70.25 72.75
L 70.4 72.9 70.4 72.95
Q 70.45 72.95 70.5 73
L 70.65 73.15
Q 70.95 73.35 71.2 73.15
L 71.15 73.05
Q 71.2 73 71.3 73 71.1 72.65 70.75 72.2 69.85 70.75 69.65 68.15 69.55 67.2 69.55 66.1
M 90.9 65.75
Q 90.9 66.25 90.9 66.7 90.8 67.6 90.6 68.1 90.45 68.5 90 69.2 89.7 69.95 90.05 70.4
L 90.3 70.25
Q 90.35 69.8 90.7 69.2 90.8 68.95 90.9 68.8 91.15 68.25 91.2 68.2 91.45 67.6 91.55 66.3 91.65 64.75 91.4 63.15
L 91.05 63.15
Q 90.9 64.45 90.9 65.75
M 90.7 64.75
Q 90.7 64.2 90.35 64.25 90.05 64.25 90.05 64.95 90.1 65.65 89.45 67.05 88.25 69.2 87.2 71.1 86.45 72.3 85.8 73.4 85.7515625 73.4484375 85.75 73.5 85.75 73.39921875 85.75 73.35 85.8 73.05 85.85 72.7
L 85.85 71.75
Q 85.85 71.35 85.75 71.15 85.55 70.75 85.2 71 85.2 71.05 85 71.05 84.9 71.1 84.8 71.4 84.7 71.9 84.45 72.1 84.2 72.3 83.5 72.3
L 83.1 72.15 83.05 72.15
Q 83 72.15 83 72.1 82.85 71.95 82.85 71.7
L 82.85 71.25
Q 82.8 71.15 82.65 71.1 82.45 71.1 82.35 71.15 82.25 71.2 82.2 71.35
L 82.2 70.45
Q 82.25 70.45 82.3 70.4 82.4 70.3 82.55 70
L 82.9 69.9
Q 83 69.8 83 69.6 83 69.45 82.9 69.35 82.65 69.15 82.3 69.15 81.4 69.05 79 69.4
L 78.2 69.55
Q 78.1 69.45 78 69.35 77.95 69.45 77.95 69.6
L 75.95 69.9
Q 75.65 70 75.6 70.05 75.4 70.25 75.55 70.4 76.3 70.6 77.55 70.55 76.9 71.85 75.8 72.15 75.3 72.3 74.8 72.2 73.95 72.1 73.1 71.4 72.75 71.15 72.4 70.8 70.45 68.85 70.7 66.9 70.7 66.25 70.45 66.25 70.15 66.2 70.05 66.65 69.9 67.4 70.15 68.4 70.3 69.1 70.7 69.9 71.85 71.9 73.35 72.7 75.5 73.75 77.1 72.55 77.6 72.2 78.05 71.45 78.4 70.85 78.45 70.45 78.5 70.45 78.55 70.45 80.5 70.25 81.45 70.45 81.35 71.05 81.4 71.4
L 81.7 72.6 81.75 73.2 82 73.8
Q 82 74.3 82.1 74.45 82.2 74.6 82.65 74.6 82.45 74.65 82.2 74.85 81.5 75.4 80.25 76
L 80.2 76.05 79.95 76.25
Q 79.8 76.45 80 76.55
L 80 76.6 80.05 76.6 80.25 76.5 81.5 75.85
Q 82.3 75.35 82.85 74.55
L 82.8 74.55
Q 82.9 73.95 82.6 72.9
L 82.5 72.55
Q 82.6 72.65 82.7 72.75 82.85 72.9 82.9 73.05
L 84.65 73.1 84.9 72.75 85.15 72.9
Q 85.05 73.5 85.3 73.95
L 85.45 73.95
Q 85.3 74.15 85.15 74.4 85.35 74.7 85.6 74.5 85.8 74.45 86 74.15 86.15 74 86.25 73.85 88.3 71.1 89.9 67.8 90.65 66.2 90.7 65.15 90.7 64.95 90.7 64.75
M 73.3 55.1
Q 73.05 55.2 72.9 55.4 71.35 56.95 69.1 59.95 68.5 60.8 68.65 61.35 68.9 61.3 69.35 60.6 69.45 60.4 70.2 59.4
L 73.7 55.3
Q 73.6 55 73.3 55.1
M 74.75 49.85
L 74.55 49.65 74.1 49.9
Q 73.85 50 73.4 50.35 72.45 51.1 71.85 51.1
L 71.6 51.15
Q 71.45 51.25 71.45 51.35 72.15 51.6 73.15 51 73.9 50.65 74.75 49.85
M 65.1 49.4
L 65.25 49.3 65.5 49.2 66.2 49
Q 66.75 48.9 66.85 48.75
L 66.55 48.5
Q 66.45 48.6 66.1 48.6
L 65.4 48.65
Q 65 48.75 64.85 48.9 64.6 49.15 64.75 49.45 64.9 49.5 65.1 49.4
M 75.55 48.25
Q 75.25 48.55 74.45 49.05 74.35 49.05 74.3 49.1 72.85 49.9 71.55 50.45 71.1 50.65 71.05 50.95 72.45 50.8 74.6 49.6 75.45 49.15 75.9 48.75 76.05 48.6 76.15 48.5 76.35 48.3 76.25 48.1 76.15 47.9 75.9 48 75.75 48.05 75.55 48.25
M 68.1 46.5
Q 68 46.75 68.1 46.9 69 47.3 70.6 46.7 72.2 46.05 73 46.15 73.45 46.2 74.35 46.6 75.2 47 75.7 47 75.9 46.8 75.8 46.4
L 75.95 46.25
Q 75.75 45.65 75.55 45.4 74.95 45 74.75 44.7
L 74.5 44.4
Q 74.35 44.25 74.1 44.3
L 74.05 44.5 74.15 44.7 74.8 45.45
Q 75 45.5 75.15 45.75
L 75.1 45.7
Q 74.6 45.3 74.1 45.15 73.5 44.9 72.5 45 71.5 45.15 69.7 45.85
L 68.1 46.5
M 65.35 46.95
L 65 46.8 64.05 46.75
Q 63.7 46.75 63.55 46.85 63.45 46.95 63.45 47.05 63.45 47.2 63.55 47.25 64.85 47.35 65.65 47.65
L 66.1 47.85
Q 66.45 47.95 67.15 47.75
L 67.35 47.7
Q 67.45 47.6 67.35 47.5 67.2 47.5 67.05 47.45 66.1 47.3 65.35 46.95
M 68.55 42.6
L 68.6 42.6
Q 68.65 42.7 68.85 42.8
L 69.5 42.85
Q 70.1 42.9 71.25 43.15 72.75 43.45 75.2 43.25 75.35 43.15 75.55 43.05 75.75 42.9 76.05 42.6 76.55 42.1 76.35 41.75 76.2 41.4 75.75 41.5
L 75.5 41.6
Q 75.5 41.55 75.45 41.55 75.2 41.3 74.4 41.3
L 70.9 41.3
Q 69.65 41.2 68.85 41.4 67.5 41.7 65.1 43.45 64.65 43.9 64.8 44.15 65 44.4 65.5 44.2 66.25 43.9 67 43.4 68.15 42.7 68.55 42.6
M 66 41
L 66.05 39.05
Q 66.05 38.6 65.8 38.55 65.55 38.45 65.45 38.7
L 65.35 39.15
Q 65.45 40.35 65.3 40.8
L 64.45 42.15
Q 64.2 42.4 64.15 42.55 64.05 42.85 64.35 42.95 64.55 42.9 65 42.45
L 65.6 41.6
Q 65.95 41.15 66 41
M 68.8 37.05
Q 69.2 37.05 70.25 36.95 73.3 36.7 76.05 37.3 77.35 37.6 78 37.6 78.75 37.6 79.35 37.3 74.2 36.4 73.45 36.3 69.9 35.95 67.5 36.7 68.05 37.05 68.8 37.05
M 69.2 33.4
L 69.15 33.5 69.05 33.55 69.05 33.75 69.65 33.75
Q 69.95 33.75 70.05 33.65
L 70 33.55 69.9 33.55 69.2 33.4
M 83.1 66.5
Q 82.65 66.7 81.7 66.7 79.35 66.7 76.95 66.85 76.5 66.95 76.5 67.15 77.25 67.4 78.35 67.4
L 82.15 67.4
Q 82.6 67.4 82.8 67.3 83.25 67 83.1 66.5
M 87.95 61.1
Q 87.7 61.2 87.05 61.2 83.45 61 81.6 61
L 76.7 61
Q 76.05 61 75.7 61.05
L 71.3 61.85
Q 70.85 61.95 70.85 62.2 70.85 62.35 71.25 62.5 71.85 62.65 72.45 62.7
L 72.3 62.85 72.4 62.85 72.8 63.25 73.25 63.85 73.4 63.95
Q 73.55 64.3 73.85 64.55 74.6 65.2 76.5 65.5 79.2 65.95 80.7 65.95 83.1 65.95 84.75 65.1 86.4 64.25 87.9 62.4 88.05 62.35 88.15 62.3 88.75 62.2 89 61.75 89.15 61.5 89.35 60.95 89.25 60.45 88.65 60.7
L 87.95 61.1
M 84.85 64.05
Q 83.5 64.8 81.6 65.05 80.15 65.2 77.8 65 76.1 64.8 75.2 64.35 75.2 64.15 75.2 63.9
L 75.2 63.25
Q 75.2 62.7 75.05 62.5
L 75.65 62.35
Q 75.9 62.3 76.45 62.3 81.6203125 62.2005859375 85.95 62.35 85.15 62.55 84.9 62.9 84.7 63.05 84.7 63.55
L 84.75 63.9
Q 84.75 63.95 84.85 64.05
M 81.9 60
Q 81.85 59.85 81.6 59.85
L 80.75 59.85
Q 80.8 59.7 80.7 59.6
L 80.5 59.4 80.4 59.25 80.1 59.25 80.1 59.65 80.4 59.8 80.45 60.25 81.55 60.25 81.7 60.2
Q 81.8 60.2 81.9 60
M 85.55 54.6
Q 85.25 53.9 84.55 53.8 84.2 53.9 84.45 54.35
L 84.8 54.9
Q 84.9 55.5 84.25 55.75 84.1 55.8 83.2 55.95 82.85 56.05 81.95 56.45 81.15 56.8 80.65 56.85 80.1 56.95 78.75 56.6
L 75.35 55.7 75.25 54.05
Q 75 53.9 74.75 54 74.45 54.1 74.35 54.35 74.55 54.6 74.45 55.25 74.4 55.95 74.5 56.2 74.7 56.65 75.65 56.95
L 78.95 57.85
Q 80.15 58.2 80.95 58.1 81.5 57.95 82.5 57.45
L 84.2 56.95
Q 85.25 56.55 85.55 55.95 85.9 55.3 85.55 54.6
M 86.55 55.35
Q 86.35 55.15 86.2 55.25 86.35 56.35 87.4 57.5
L 88.25 58.45
Q 88.8 59 89.05 59.45 89.75 60.6 90.2 60.75 89.95 59.65 88.6 58.2 87.1 56.55 86.75 55.7
L 86.55 55.35
M 95.75 47.95
Q 95.7 48.1 95.55 48.1
L 95.6 48.3 96.4 48.4 96.6 48.45 96.75 48.55
Q 96.95 48.65 97.4 48.6
L 97.45 48.35
Q 97 48.1 96.75 48
L 95.75 47.95
M 94.4 39.85
Q 94.1 39.05 94.1 38.65
L 94.15 38.2
Q 94.15 37.85 94 37.75 93.8 37.55 93.6 37.7 93.5 37.8 93.5 38.05
L 93.55 39.5 93.75 40
Q 93.85 40.35 93.9 41.15 93.95 41.5 94.35 41.9 94.65 41.75 94.55 41.3
L 94.4 39.85
M 95.4 46.15
L 95.4 46.25 94.95 46.35 94.8 46.45
Q 94.7 46.55 94.7 46.8 94.7 47 94.75 47.1 94.8 47.2 94.85 47.2 94.9 47.25 95.05 47.25 95.15 47.2 95.35 47.1
L 95.35 46.9 96.2 46.7
Q 96.55 46.6 96.6 46.45 96.55 46.25 96.25 46.25
L 95.4 46.15
M 86 48.95
L 85.95 48.9
Q 85.75 48.75 85.55 48.85 85.4 49.2 85.65 49.55 85.75 49.75 86.15 50.05 86.45 50.3 86.75 50.5 87.35 50.9 87.95 51.15 88.55 51.35 89.8 51.35 91.05 51.45 91.85 51.25 92.55 51.1 93.35 50.6
L 93.35 50.25
Q 93.1 50.1 92.35 50.45 91.95 50.6 91.1 50.6
L 89.55 50.55
Q 88.8 50.55 88.05 50.4 87.2 50.1 86.15 49.25
L 86.1 49.2 86.1 49.15
Q 86.1 49 86 48.95
M 85.25 45.85
L 85.15 46.3 85.05 46.5
Q 84.6 46.8 84.5 47 84.3 47.5 84.6 47.75 84.95 47.75 85.45 47.6 85.7 47.5 85.95 47.4 87.35 46.8 88.1 46.75 89 46.7 90.5 47.25 92.15 47.85 92.85 47.9 93.35 47.55 92.95 46.95 92.75 46.75 92.35 46.5 92.2 46.45 92 46.35 90.3 45.75 88.55 45.65 87.05 45.55 85.75 46.15
L 85.75 46
Q 85.85 45.75 86.25 45.45
L 86.45 45.2 86.75 44.9
Q 86.95 44.6 86.7 44.5
L 86.4 44.5 85.9 45
Q 85.4 45.5 85.25 45.85
M 82.6 43
Q 82.45 42.7 82.05 42.9 81.8 43 81.65 43.35 81.05 44.45 80.95 46.1 80.9 46.25 80.9 46.45 80.9 46.55 80.9 46.75 80.85 47.45 80.85 49.65 80.85 50.7 80.95 51.3 80.9 51.3 80.85 51.3 79.8 51.35 77.9 51.15 77.4 51.05 77.2 51.25
L 77.25 51.45
Q 78.7 51.8 80.5 51.8 80.75 51.8 81 51.8 81.05 52 81.15 52.15
L 79.6 52.15
Q 78.7 52.15 78.35 52.35
L 78.4 52.6 81.15 52.55
Q 81.25 52.5 81.35 52.5 81.7 53.1 82.35 53.3 81.9 52.65 81.7 51.65 82.15 51.5 82.45 51.25
L 82.35 51
Q 82.05 51.15 81.65 51.25 81.35 49.7 81.5 47.55 81.5 47.5 81.5 47.45 81.5 46.1 81.7 45.1 81.95 43.75 82.6 43
M 87.4 43
Q 88.15 43 88.9 42.95 91.45 42.75 92.25 42.95 92.75 43.1 93.75 43.55 94.6 43.85 95.2 43.8 95.25 43.8 95.3 43.75 95.4 43.65 95.4 43.4 95.4 43.1 95.25 42.95 95.05 42.75 94.35 42.5 93.35 41.8 92.8 41.65 92.35 41.5 91.05 41.5
L 84.75 42
Q 84.15 42.1 84.1 42.4 84.1 42.6 84.25 42.7 84.4 42.85 84.8 42.9 86.05 43.05 87.4 43
M 90 36.1
L 89.85 35.9 89.15 36.1
Q 88.5 36.3 88.15 36.4 86.85 36.85 84.8 37.1 84.8 37.35 84.9 37.45 86.9 37.35 88.25 36.85
L 90 36.1
M 83.35 37.1
Q 83.3 36.9 82.9 36.8 82.65 36.75 81.4 36.75
L 81.35 36.8
Q 81.2 36.8 81.2 37
L 81.3 37.25 82.35 37.3
Q 83.05 37.3 83.35 37.1 Z"/>

<path fill="#1368A4" stroke="none" d="
M 101 188.2
Q 100.6 188.5 100.35 188.55 100.25 188.55 100.2 188.6 101.9 194.75 102.15 201.2 102.2 201.95 102.2 202.75
L 101.5 202.35
Q 94.65 202.15 87.55 200.7
L 73.95 198.7
Q 73.65 199.4 73.7 200.6 73.95 205.5 73.55 215.3 73.3 220.15 73.2 221.05 73.1 222 72.05 230.35 71.6521484375 233.201953125 71.5 235.55 73.976953125 235.7 76.5 235.7 84.225 235.7 91.65 234.2 99.05 232.7 106.15 229.7 114.5103515625 226.1298828125 121.7 220.8 121.586328125 220.5271484375 121.45 220.2 120.8 218.65 120.7 217.55 120.65 215.9 120.6 215.05 120.5 213.7 119.75 211.5 118.9 209 118.75 207.95 118.6 206.95 118.6 204.85 118.55 202.55 118.9 195.65 119 193.45 119.45 192.2
L 119.15 199.9
Q 118.85 206.7 119.85 210.15 120.1 210.9 120.6 212.4 121 213.7 121.1 214.65 121.15 215.5 121.2 217.2 121.3 218.2 121.75 219.45 121.8748046875 219.85546875 122.1 220.5 122.3810546875 220.3109375 122.6 220.1 122.7494140625 219.1515625 123 218.4
L 123.3 218.35
Q 123.1412109375 218.9396484375 123 219.8 123.1240234375 219.7287109375 123.2 219.65 123.5251953125 219.41796875 123.8 219.15 124.5431640625 218.609765625 125.25 218 125.226953125 214.9427734375 125.1 213.8
L 123.7 206.7
Q 123.1 203.7 122.7 202.2 121.9 199.3 121.75 198.4 121.5 196.85 121.6 193.75
L 121.75 187.5
Q 121.75 187.35 121.8 187.25 120.7 186.3 120.2 185.4 119.6 184.25 119.35 182.15 119.25 181.45 119.2 180.85 118.6 181.15 117.8 181.35 116.35 181.7 115.65 181.9
L 113.65 182.45
Q 111.05 183.25 107.9 184.7
L 103.6 186.75
Q 101.8 187.65 101 188.2
M 108.45 209.15
Q 109.5 208.1 110.15 207.95 110 208.25 109.55 208.7
L 104 214.7
Q 98.3 220.65 92 225.25 91.85 225 92.3 224.55 101 217.55 108.45 209.15
M 110.7 201
Q 110.7 201.3 110.3 201.8 100.55 213.85 90.3 224.05 89 225.45 88 226.15 88.8 224.75 91.1 222.45 100.9 212.35 109.6 201.8 110.25 201.05 110.7 201
M 33.35 197.25
Q 32.7 197 32.1 196.75 31.65 197.45 31 197.85
L 28.2 204.55
Q 27.6 206.5 27.4 209.95 27.3580078125 211.3791015625 27.35 217.65 27.8390625 218.0728515625 28.3 218.45 36.7494140625 225.365625 46.9 229.7 53.975 232.7 61.35 234.2 65.8353515625 235.1041015625 70.4 235.45 70.396484375 234.1486328125 70.5 232.7 70.55 232.25 71.3 225.7 72 219.95 72.3 212.75 72.45 208.4 72.55 199.7 72.6 198.9 72.8 198.55
L 58.05 196.4
Q 57.95 196.4 57.85 196.35 57.8 196.45 57.8 196.5 57.6 196.55 57.4 196.35 57.4 196.3 57.35 196.3 54.55 195.85 52.55 195.8 51.65 195.8 51 195.65 48.9 196.7 46.75 197.7 45.15 198.45 43.8 198.8 41.85 199.2 38.4 198.7 36.5 198.5 35.35 198.1
L 33.35 197.25
M 47.5 224.75
Q 47.7 224.5 48.2 224.75
L 56.05 228.4
Q 56.85 228.8 57.05 229.15 52.15 227.05 47.5 224.75
M 58.6 227.9
Q 54.3 225.25 51.7 223.3 50.25 222.25 44.65 217.75 40.4 214.3 37.45 212.55 36.65 211.95 36.95 211.6 37.5 211.65 38.4 212.35 42.8 215.55 51.3 222.2 59 228.1 64.65 231.35 64.2 231.4 63.65 231.05 60.9 229.45 58.6 227.9
M 54.6 230.95
Q 54.8 230.8 55.25 231 58.4 232.6 61.45 233.85 61.3 234 60.8 233.85 57.85 232.65 54.6 230.95
M 116 156.95
Q 114.45 156.1 113.65 155.9 112.6 155.6 111.15 155.75 109.45 156.05 108.6 156.15 107.8 156.3 106.95 156.4 106.95 156.5 106.95 156.7 107 157.2 107 157.55 107.7 156.95 108.4 156.75 109.2 156.5 111 156.7
L 117.25 157.6
Q 116.65 157.35 116 156.95
M 60.6 80.55
L 53.75 84.6 53.8 85.2 52.35 86.05
Q 58.4 98.45 67.85 109.4 69.25 111.65 70.35 113.85 70.15 114 69.9 113.65 68.75 112.1 67.75 110.7 59.2 99.45 51.05 88 50.75 87.6 50.65 87.15
L 45.75 90.1
Q 45.55 90.15 45.4 90.25 41.65 92.1 32.8 96
L 25.95 99
Q 25.15 99.35 24.5 99.6 25.05 103.1 25 106.7 25.1 120.6 30.7 133.15 31.85 135.7 32.85 138.3 35 143.85 36.45 149.55 36.6 149.55 36.75 149.55 37.65 149.55 37.8 149.95 37.4 150.35 36.7 150.6 37.45 153.6 37.95 156.65
L 42.8 154.45
Q 50.65 150.8 61.15 145.55 70.3 140.95 76.9 137.7 77 137.1 77.05 136.5 77.2 135.35 77 134.15 76 128.35 74.7 122.8 74.35 121.35 73.9 119.9 73.4 118.5 72.9 117.05 70.5 110 67.9 103 67.65 102.3 67.4 101.65
L 65.7 99.35
Q 64.9 96 63.85 90.75 63.85 90.65 63.9 90.6 63.85 90.1 63.9 89.65 63.75 87.55 63.75 84.9 63.75 80.7 63.75 78.75
L 62.7 79.3
Q 61.55 80 60.6 80.55
M 64.6 116.45
Q 65.3 117.05 64.9 117.4 64.15 117.1 62.85 116.2 53.15 109.95 49.8 107.9 47.2 106.35 45.75 105.3 44.25 104.15 42.35 102.45 42.1 102.2 42.1 102.1 42.1 101.75 42.55 101.75 42.9 101.85 43.1 102.05 46.5 104.7 53.85 109.25 61.2 113.75 64.6 116.45
M 51.5 113.95
L 51.5 113.8
Q 51.85 113.75 52.45 114.05
L 55.3 115.6
Q 55.85 116 55.9 116.15 55.6 116.2 55 115.85
L 51.5 113.95
M 59.15 133.7
Q 59.7 133.7 60.3 133.95
L 69.65 137.35
Q 69.8 137.55 69.7 137.5 67.65 137.15 64.5 135.95
L 59.6 134.1
Q 59.2 133.9 59.15 133.7
M 40.7 130.85
Q 43.5 131.85 48.95 134.05 51.6 135 56.25 136.4 61.6 137.95 63.5 138.6 64.8 139 65.5 139.55 49.95 135.55 40.85 131.4
L 40 131
Q 40.15 130.65 40.7 130.85
M 58.1 139.2
Q 59.2 139.4 59.6 139.75 54.85 139.2 50.75 137.3 50.65 137.15 50.95 137.05 51.1 137 51.3 137.1 54.55 138.45 58.1 139.2
M 63.15 132.55
Q 67.45 134.15 69.45 135.25 68.2 135.1 65.9 134.3 60.5 132.45 51.9 128.55 41.35 123.75 38.05 122.45 37.75 122.35 37.7 122.15 37.65 121.95 37.95 121.9 38.2 121.8 38.45 121.9 42.8 123.5 50.8 127.2 59.2 131.05 63.15 132.55
M 99.1 85.4
Q 99 83.9 98.65 83.25 98.05 82.2 96.55 81.55 94.85 80.75 92.8 80.7 92 85.65 91.45 88.95
L 90.85 92.7
Q 90.8 93.4 90.65 94.1 90.55 94.75 90.4 95.55 88.7 100.5 87.2 105.6 85.6 111 84.45 116.65 83.25 122.45 81.55 128 80.1 132.55 78.65 136.85 80.45 135.95 82.1 135.2 82.7 132.8 83.55 130.4 83.9 129.35 85.15 126.2 90.7 112.05 94.05 104.15 95.05 101.7 95.25 100.8 95.35 100.1 95.75 100.05 96.45 100 96.2 101.15 95.8 102.7 94.75 105.35
L 83 134.8
Q 86.15 133.25 88.45 132.25 91.05 131.15 92.5 131.35 93.7 131.55 94.85 132.55 95.6 133.2 96.75 134.6
L 101.25 140.3 107.35 137.1
Q 108.85 136.3 109.7 136.15 110.55 135.95 112.35 136.15 114.2 136.35 117.4 136.95
L 119.95 137.4
Q 119.9 137.25 119.95 137.05 120.45 133.6 121.9 128.5 124.05 120.8 124.25 120 125.3 114.95 125.85 112.45 126.85 108 128 105.05
L 128.35 104.55
Q 128.45 104.45 128.65 104.55 128.8 104.6 128.85 104.75 127.85 108.05 126.65 113.4 125.1 120.55 124.7 122.15
L 120.55 136.85
Q 120.45 137.2 120.35 137.45
L 121 137.55
Q 121.65 137.65 122.1 137.85 122.15 137.3 122.25 136.75 122.15 136.85 122.1 137 121.75 137.65 121.4 137.55 121.1 136.9 121.6 135.75 122.05 134.6 122.75 133.25 123.9 126.35 126.4 118.85 129.05 110.95 133.8 100.75 133.85 100.7 133.9 100.65 133.8 100.55 133.75 100.5 131.95 98.5 127.9 97.65 123.5 97.05 121.4 96.35 119.95 95.9 116.5 94.05
L 107.45 89.05
Q 103.7 86.85 100.05 84.45 100.1 84.6 100.1 84.8 100.4 87.75 100.05 91.25 99.8 91.4 99.55 91.25
L 99.1 85.4
M 79.55 135.55
Q 79.3 135.3 79.5 134.8 80.8 130.2 84.2 122.5 88.05 113.9 89.25 110.25 89.35 109.9 89.5 109.8 89.8 109.5 90 109.85
L 87.85 115.6
Q 87.05 117.7 83.9 124.85 81.35 130.55 80.25 134.25 79.95 135.25 79.55 135.55
M 114.95 118.85
Q 117.25 118.85 119.3 119.35 119.6 121.7 119.3 123.95 119.2 124.95 118.8 125.55 115.2 125.75 111.5 125 110.3 124.65 109.05 124.55 104.35 123.75 99.4 123.55 97.25 123.2 96.95 121.1 96.55 118.35 97.3 115.8 100.95 115.7 104.45 116.85 109.5 118.35 114.95 118.85 Z"/>

<path fill="#DA9E8B" stroke="none" d="
M 109.3 137.85
L 109.15 137.8
Q 108.5 138 107.8 138.4
L 102.2 141.3 103.7 141.35
Q 104.25 141.35 104.85 141.6 105.1 141.75 105.15 141.8 105.35 142 105.25 142.15 105.25 142.7 104.75 143.3
L 104.15 143.9 107.8 142.35
Q 109.65 141.65 110.15 141.6 110.1 141.3 110.1 140.85 110.1 139.85 110 139.35
L 109.75 138.4 109.75 138.35
Q 109.7 138.25 109.65 138.2 109.5 137.9 109.3 137.85
M 100.4 147.65
Q 99.5 147.5 98.95 147.5 98.9 147.75 99.05 148.05 99.2 148.3 99.35 148.55 99.55 148.85 99.8 149.15 100.9 148.75 102.3 148.25 102.3 148.1 102.25 148 102.15 148 100.7 147.7 100.55 147.7 100.4 147.65
M 100.6 145.4
Q 100.7 145.35 100.8 145.3
L 103.75 144.1
Q 103.55 143.9 103.75 143.6 103.8 143.4 104.15 143.05 104.35 142.8 104.55 142.3 104 141.9 103.15 141.9
L 102.5 141.85 102.6 142
Q 102.05 142 101.45 141.8 101.15 142 101.05 142.15 100.75 142.6 100.85 143.85 100.95 144.95 100.6 145.4
M 143.7 169.9
Q 143 169.8 142.1 169.6 140.8 169.25 140.6 169.05
L 138.65 169.05
Q 138.3 168.7 137.9 168.35 137.9 168.4 137.9 168.45 137.25 168.35 136.05 167.65
L 133.9 166.25
Q 132.8 165.5 130.35 163.6 128.35 162 127.05 161.15 126.9 161.05 126.8 161 126.75 160.95 126.65 160.9 125.6 160.2 125.3 159.95 125.2 159.85 125.1 159.75 124.8 161 124.5 161.95 124.3 162.65 124.15 163.2 123.4 165.6 122.45 167.45 123.45 168.25 123.45 168.35 123.45 168.95 122.65 170.9 121.8 172.85 121.8 173.95 121.8 179.2 128.85 184.65 135.5 189.8 142.75 190.3 143.15 189.7 143.5 188.9 144.55 186.7 145.35 183.45 145.4 169.65 142.65 155.9 142.1 153.2 141.6 150.45 137.75 153.55 132.4 157.2 129.6 159.05 127.8 160.25 128.8 160.95 130.1 161.95
L 130.75 162.45
Q 137.4 164.8 139.85 166.2 141.7 167.25 143.7 169.9
M 133 179.8
Q 136.75 181.65 140 183.7 140.3 183.9 140.25 184.1 138.95 183.6 136.35 182.05 133.85 180.55 132.4 180.05 132.25 179.8 132.55 179.7
L 133 179.8
M 134.7 185.4
L 134.7 185.2
Q 134.9 185.1 135.35 185.2 139.7 185.8 139.9 185.8
L 139.9 185.95
Q 139.65 186 139.1 186
L 134.7 185.4
M 104 153.45
L 103.85 152.35
Q 103.6 152.1 103.05 152 101.55 151.95 100.85 151.9 100.4 152.2 100.35 152.25 101.2 153.2 101.75 154 102.9 153.7 104 153.45
M 108.05 152.2
L 108.1 152.2
Q 107.9 152.05 107.75 151.8
L 106.3 149.35
Q 106.3 149.3 106.25 149.3
L 105.85 149.4
Q 105 149.5 104.6 149.7 104.35 149.75 103.5 150.25 102.5 150.8 101.45 151.1 101.45 151.15 101.45 151.2
L 102.55 151.2
Q 103.45 151.15 104.2 151.5 104.55 151.75 104.6 151.9 104.7 152.05 104.7 152.45
L 104.65 153.25
Q 106.65 152.7 108.05 152.2
M 112.7 148.15
Q 112.7 147.95 112.7 147.85 111.75 147.75 109.75 148.3
L 107.7 148.9
Q 108.15 149.55 108.4 150.25 108.55 150.65 108.3 150.65 107.95 149.65 107.5 149.1
L 107.4 148.95 106.85 149.1
Q 107.6 150.35 108.4 152.1 109.95 151.5 111.1 151.5 112.2 151.5 113.3 151.75 113.25 151.5 113.2 151.15 113.15 150.5 113.1 150.2 112.85 149.5 112.75 149.1 112.65 148.75 112.7 148.15
M 100.8 146.6
L 99.8 147.05
Q 100.4 147.05 101.1 147.15 101.75 147.25 102.5 147.35 102.7 147.35 102.8 147.45 102.9 147.55 102.9 148.05 104 147.6 105.3 147.1 105.1 146.3 105.2 145.5 105.3 145.4 105.45 145.45 105.6 145.5 105.65 145.65 105.7 145.75 105.7 146.2 105.65 146.5 105.8 146.9 105.9 147.5 106.4 148.35 106.55 148.3 106.75 148.25
L 106.8 148.25
Q 106.55 147.9 106.2 147.15 106.1 146.95 106.05 146.8 105.9 146.4 105.85 146.15 106 146 106.2 146.2
L 106.4 146.55
Q 106.4 146.6 106.45 146.65 110.25 145.1 110.45 145.1 111 145.1 112 145.45
L 111.15 143.05 111 142.75
Q 110.8 142.75 110.55 142.8 109.75 142.95 108.15 143.55 106.35 144.25 103.25 145.55 102.1 146.05 100.8 146.6
M 122.1 140.35
Q 122.3 139.85 122.1 139.55 121.95 139.35 121.2 139.1 113.75 137.8 112.75 137.65 110.75 137.35 109.8 137.55
L 109.85 137.6
Q 109.95 137.65 110.15 138.1 110.35 138.55 110.45 138.95
L 110.65 139.3
Q 110.95 139.8 110.95 140.1
L 110.85 140.1
Q 110.75 140 110.55 139.65 110.55 139.7 110.55 139.75
L 110.45 140.55 110.45 141.25
Q 110.45 141.45 110.4 141.6 111.15 141.5 112.15 141.65 113.2 141.75 114 142 114.7 142.25 115.85 142.9
L 115.95 142.6 116.1 142.35 116.5 142.05 116.6 141.95 116.85 141.95
Q 116.6 142.55 116.45 142.7 116.3 142.95 116.15 143.05 116.2 143.1 116.3 143.15 116.25 143.4 115.85 143.5
L 115.2 143.4
Q 113.7 142.9 113.35 142.85 112.45 142.65 111.45 142.7 111.5 142.95 111.55 143.3
L 111.8 143.8 112.25 145.55
Q 113.6 146.1 115.7 147.2 119.5 149.2 120.9 150.5
L 120.9 150.8 119.25 150.8 119.2 150.85
Q 118.95 150.95 118.4 150.75
L 117 150.05
Q 115.7 149.15 115.05 148.75 114.05 148.1 113.2 147.9 113.15 148.45 113.3 149
L 113.55 149.95
Q 113.8 151.05 113.5 151.8 116.05 152.4 118.5 154.3 121.45 156.65 121.8 158.15
L 119.85 158.15
Q 119.75 158.1 119.6 158.05 119.55 158.05 119.5 158.1 119.5 158.3 119.15 158.5 118.8 158.65 118.4 158.55
L 110.65 157.95
Q 109.45 157.85 108.85 158.05 107.8 158.35 106.6 160.3 106.35 160.65 106.4 160.9 106.4 161 106.5 161.1 106.6 161.3 106.9 161.55 107.35 161.9 107.3 162.2 107.85 162.3 108.85 161.9
L 108.2 160.5 107.15 160.65 106.85 160.65
Q 106.7 160.5 106.7 160.45 106.65 160.25 106.95 160.15
L 107.6 159.95 107.6 159.85
Q 107.9 159.85 108.15 159.9 108.4 159.75 108.7 159.65 109.25 159.45 110.45 159.45 111.65 159.45 117.65 163.85 120.25 165.75 121.7 166.9 123.5 161.4 124.45 155.8
L 124.4 155.8
Q 124.2 155.6 124.4 155.35
L 124.5 155.3
Q 124.85 153.15 125.05 151 125.25 148.3 124.7 147.1 124.4 146.45 123.7 145.7 122.95 144.85 122.55 144.4 121.2 142.65 121.7 141.2 122 140.65 122.1 140.35
M 51.5 176.15
Q 51.3 175.6 51.05 175.45 50.85 175.35 50.3 175.45
L 50.15 175.5
Q 50.2 175.5 50.25 175.55 50.1 175.7 49.7 175.8 49.25 175.95 49.1 176.05 48.85 176.25 48.6 176.75 48.45 176.95 48.1 177.25 48 177.4 48 177.7 50.35 177.2 51.9 176.95 51.65 176.6 51.5 176.15
M 28.55 163.4
Q 28.4 163.35 28.25 163.35 28.45 162.25 30.4 162.35 30.9 162.35 31.4 162.4 30.85 161.75 30.9 161.1 30.9 160.55 31.35 160.05 27.6 159.2 24.7 157.7 20.85 155.7 14.45 150.2 14.1 151.95 13.7 154.75
L 13.15 157.4
Q 12 162.35 10.8 167.45
L 8.8 175.5 11.2 172.85
Q 11.25 173.1 11.2 173.3 11.05 173.95 10.65 174.55 8.25 178.7 8.05 183.6 7.85 185.05 7.8 186.55 7.75 187.1 8 187.6 9.25 190.15 11.1 192 14.45 192.6 18.1 192.6 29.4 192.6 29.4 187.45 29.4 186.85 28.6 184.9 27.8 182.95 27.8 182.7 27.8 182.05 39.8 179.4 40.8 179.2 41.7 179 41.4 178.65 41.2 178.2 41.5 178.1 41.7 178.3
L 42.1 178.75
Q 42.1 178.8 42.25 178.9 45.2 178.25 47.45 177.8
L 47.45 177.7
Q 47.35 177.3 47.5 177.05
L 48 176.55 48.5 175.85 48.55 175.8 43.65 176.7
Q 42 177.05 41.2 177.2 39.8 177.45 38.75 177.5 37.15 177.65 33.9 177.55 32.95 177.4 32.8 177.35
L 32.75 177.3
Q 32.7 177.35 32.7 177.4 32.6 177.3 32.55 177.2
L 31.95 176.8
Q 30.85 176.45 30.3 176.25 29.95 176.15 29.9 175.9 29.85 175.65 30.1 175.55 30.15 175.5 30.2 175.5 30.4 175.4 30.6 175.45
L 30.65 175.45
Q 31.25 175.45 32 175.7 31.9 175.3 31.8 174.85 31.7 174.25 31.5 173.5 31.35 173.55 31.1 173.6 30.65 173.7 30.15 173.9 30.25 174.05 30.35 174.2 30.15 174.2 29.85 174.05 29.1 174.35 28.2 174.9 27.65 175.25 27 175.65 26.3 176.15 26.15 176.5 26.05 176.75 26.05 177.65 26.2 179.4 25.65 181.05 25 181.05 24.9 179.85
L 24.75 177.3
Q 24.65 176.55 24.8 176.05 25 175.4 26.15 174.55 26.3 174.45 26.45 174.35 27.3 173.8 28.3 173.35 24.75 171.55 21.35 170.25 19.65 169.65 18 169.15 17.15 168.9 17.45 168.45 17.65 168.25 18.05 168.35 20.2 168.9 23.15 170.05 23.3 170.1 23.5 170.2 23.55 170.2 23.6 170.25 25.2 170.9 27.05 171.75 27.15 171.8 27.25 171.85 26.3 171 25.25 170.3 23.95 169.45 20.95 168.55 20.85 168.3 20.95 168.05 25.65 168.75 29.35 172.95 29.85 172.7 30.45 172.55 30.95 172.4 31.25 172.45 30.9 171.35 30.5 170.05 30.35 169.65 30.2 169.25 29.75 167.95 29.45 166.9 28.85 164.9 28.6 163.7 28.55 163.5 28.55 163.4
M 101.1 48.7
Q 101.1 48.8 101.1 48.95 101.3 48.6 101.5 48.5 101.85 48.35 102.5 48.5 102.55 48.5 102.6 48.55 102.4 47.1 102 45.75
L 101.2 46.2
Q 101.15 47.45 101.1 48.7
M 61.05 53.3
Q 60.95 52.65 60.8 52.25 60.75 52.05 60.65 51.9 60.85 52.6 61.05 53.3
M 95.4 65.55
L 94.45 66.75
Q 94.85 66.35 95.2 66.05 95.3 65.8 95.4 65.55
M 98.55 36.5
Q 97.35 29.55 91.65 26.25 85.95 22.9 82.7 21.2 81.8 20.75 80.9 20.4 80.3 20.3 79.9 20.1 79.7 20.25 78.8 20.35 78.25 20.45 77.35 20.8 70.25 23.6 64.6 28.5 64.2 28.85 63.9 29.3 63.6 29.75 63.35 30.3 61.9 33.3 61.45 37.45 61.15 40.05 61.15 45
L 61.15 46.95 61.2 47 61.15 47 61.15 51.05
Q 60.25 50.15 60.05 47.7 60 47.05 60 46.45 59.25 45.85 58.6 45.1 58.45 44.9 58.2 44.8 56.95 47.2 57.3 49.75 57.4 49.7 57.55 49.65 57.5 49.5 57.65 49.45 57.75 49.35 58 49.35
L 58.75 49.3
Q 59.2 49.3 59.4 49.4 59.65 49.5 60.05 49.9 60.9 51 61.05 51.3 61.95 52.8 61.7 55.3
L 61.7 55.35
Q 62.05 55.95 62.05 57.35
L 62 57.35
Q 62.15 58.05 62.35 58.85 62.55 59.35 62.6 60 62.6 60.05 62.6 60.15 62.75 62.5 63.25 64.35 63.4 65 63.55 65.7 63.65 65.8 63.75 65.85
L 63.75 64.75
Q 63.9 65.25 64.25 65.85 64.2 65.65 64.15 65.45 64.5 65.25 64.85 65.8 65 66.1 65.45 67.1 65.8 67.95 66.1 68.4 66.5 69.05 67.25 69.8 67.95 70.5 68.6 71.05 68.5 70.9 68.35 70.75 67.75 70 67.1 69 66.9 68.8 66.9 68.65 66.9 68.4 67.05 68.25 67.3 68.15 67.65 68.6 68.65 70.3 69.35 70.95 69.4 71 69.45 71.05 69.05 69.85 68.95 68.45 68.9 68.25 68.9 68.05 68.85 67.35 68.95 66.55 68.95 66.05 69 65.55 69.1 65.3 69.45 65.55 69.55 65.7 69.55 66.1 69.55 67.2 69.65 68.15 69.8 68.5 70 68.9
L 70.1 69 70.15 68.4
Q 69.9 67.4 70.05 66.65 70.15 66.2 70.45 66.25 70.7 66.25 70.7 66.9 70.45 68.85 72.4 70.8 72.75 71.15 73.1 71.4 73.95 72.1 74.8 72.2 75.3 72.3 75.8 72.15 76.9 71.85 77.55 70.55 76.3 70.6 75.55 70.4 75.4 70.25 75.6 70.05 75.65 70 75.95 69.9
L 77.95 69.6
Q 77.95 69.45 78 69.35 78.1 69.45 78.2 69.55
L 79 69.4
Q 81.4 69.05 82.3 69.15 82.65 69.15 82.9 69.35 83 69.45 83 69.6 83 69.8 82.9 69.9
L 82.55 70
Q 82.4 70.3 82.3 70.4 82.25 70.45 82.2 70.45
L 82.2 71.35
Q 82.25 71.2 82.35 71.15 82.45 71.1 82.65 71.1 82.8 71.15 82.85 71.25
L 82.85 71.7
Q 82.85 71.95 83 72.1 83 72.15 83.05 72.15
L 83.1 72.15 83.5 72.3
Q 84.2 72.3 84.45 72.1 84.7 71.9 84.8 71.4 84.9 71.1 85 71.05 85.2 71.05 85.2 71 85.55 70.75 85.75 71.15 85.85 71.35 85.85 71.75
L 85.85 72.7
Q 85.8 73.05 85.75 73.35 85.75 73.39921875 85.75 73.5 85.7515625 73.4484375 85.8 73.4 86.45 72.3 87.2 71.1 88.25 69.2 89.45 67.05 90.1 65.65 90.05 64.95 90.05 64.25 90.35 64.25 90.7 64.2 90.7 64.75 90.7 64.95 90.7 65.15 90.8 65 90.85 64.85
L 90.9 66.7
Q 90.9 66.25 90.9 65.75 90.9 64.45 91.05 63.15
L 91.4 63.15
Q 91.65 64.75 91.55 66.3 91.45 67.6 91.2 68.2 91.15 68.25 90.9 68.8
L 90.9 70 91.05 70 91.05 69.95
Q 91.05 69.9 91.45 69.5 91.9 69.1 92.4 68.45 92.6 68.15 93 67.5
L 93.55 67
Q 93.9 66.65 94.35 65.8 95.6 64.7 95.75 63.95 95.85 63.5 95.95 63.4 96.15 63.25 96.4 63.35 96.55 63.4 96.65 63.6 96.9 63.1 97.15 62.6 97.7 61.6 97.7 60.8 97.7 60.4 97.75 60.05 97.8 59.7 97.9 59.4 98.35 57.9 99.1 56.45
L 99.15 56.5
Q 99.2 56.45 99.2 56.4
L 99.2 56.35
Q 99.2 56.3 99.2 56.25 99.1 56.4 99 56.3 98.9 54.85 99.95 51.8
L 100.45 50.45
Q 100.35 50.5 100.2 50.55
L 100 45.85
Q 99.65 43.4 98.55 36.5
M 82.9 36.8
Q 83.3 36.9 83.35 37.1 83.05 37.3 82.35 37.3
L 81.3 37.25 81.2 37
Q 81.2 36.8 81.35 36.8
L 81.4 36.75
Q 82.65 36.75 82.9 36.8
M 89.85 35.9
L 90 36.1 88.25 36.85
Q 86.9 37.35 84.9 37.45 84.8 37.35 84.8 37.1 86.85 36.85 88.15 36.4 88.5 36.3 89.15 36.1
L 89.85 35.9
M 82.05 42.9
Q 82.45 42.7 82.6 43 82.65 42.95 82.75 42.9 83 42.7 83.45 42.7 83.65 42.7 84.25 42.7 84.1 42.6 84.1 42.4 84.15 42.1 84.75 42
L 91.05 41.5
Q 92.35 41.5 92.8 41.65 93.35 41.8 94.35 42.5 95.05 42.75 95.25 42.95 95.4 43.1 95.4 43.4 95.4 43.65 95.3 43.75 96.4 44.55 96.6 45.75
L 96.6 46.45
Q 96.55 46.6 96.2 46.7
L 95.35 46.9 95.35 47.1
Q 95.15 47.2 95.05 47.25 94.9 47.25 94.85 47.2 94.8 47.2 94.75 47.1 93.8 46.65 92.35 46.5 92.75 46.75 92.95 46.95 93.35 47.55 92.85 47.9 92.15 47.85 90.5 47.25 89 46.7 88.1 46.75 87.35 46.8 85.95 47.4 85.7 47.5 85.45 47.6 85.6 48 85.9 48.7 85.95 48.8 86 48.95 86.1 49 86.1 49.15
L 86.1 49.2 86.15 49.25
Q 87.2 50.1 88.05 50.4 88.8 50.55 89.55 50.55
L 91.1 50.6
Q 91.95 50.6 92.35 50.45 93.1 50.1 93.35 50.25
L 93.35 50.6
Q 92.55 51.1 91.85 51.25 91.05 51.45 89.8 51.35 88.55 51.35 87.95 51.15 87.35 50.9 86.75 50.5 86.85 50.75 86.95 50.95
L 86.95 51.4
Q 84.55 50.05 82.8 48.65 82 48 81.5 47.55 81.35 49.7 81.65 51.25 82.05 51.15 82.35 51
L 82.45 51.25
Q 82.15 51.5 81.7 51.65 81.9 52.65 82.35 53.3 81.7 53.1 81.35 52.5 81.25 52.5 81.15 52.55
L 78.4 52.6 78.35 52.35
Q 78.7 52.15 79.6 52.15
L 81.15 52.15
Q 81.05 52 81 51.8 80.75 51.8 80.5 51.8 78.7 51.8 77.25 51.45
L 77.2 51.25
Q 77.4 51.05 77.9 51.15 79.8 51.35 80.85 51.3 80.9 51.3 80.95 51.3 80.85 50.7 80.85 49.65 80.85 47.45 80.9 46.75 80.9 46.55 80.9 46.45 80.9 46.25 80.95 46.1 81.05 44.45 81.65 43.35 81.8 43 82.05 42.9
M 94.1 38.65
Q 94.1 39.05 94.4 39.85
L 94.55 41.3
Q 94.65 41.75 94.35 41.9 93.95 41.5 93.9 41.15 93.85 40.35 93.75 40
L 93.55 39.5 93.5 38.05
Q 93.5 37.8 93.6 37.7 93.8 37.55 94 37.75 94.15 37.85 94.15 38.2
L 94.1 38.65
M 95.55 48.1
Q 95.7 48.1 95.75 47.95
L 96.75 48
Q 97 48.1 97.45 48.35
L 97.4 48.6
Q 96.95 48.65 96.75 48.55
L 96.6 48.45 96.4 48.4 95.6 48.3 95.55 48.1
M 86.2 55.25
Q 86.35 55.15 86.55 55.35
L 86.75 55.7
Q 87.1 56.55 88.6 58.2 89.95 59.65 90.2 60.75 89.75 60.6 89.05 59.45 88.8 59 88.25 58.45
L 87.4 57.5
Q 86.35 56.35 86.2 55.25
M 84.55 53.8
Q 85.25 53.9 85.55 54.6 85.9 55.3 85.55 55.95 85.25 56.55 84.2 56.95
L 82.5 57.45
Q 81.5 57.95 80.95 58.1 80.15 58.2 78.95 57.85
L 75.65 56.95
Q 74.7 56.65 74.5 56.2 74.4 55.95 74.45 55.25 74.55 54.6 74.35 54.35 74.45 54.1 74.75 54 75 53.9 75.25 54.05
L 75.35 55.7 78.75 56.6
Q 80.1 56.95 80.65 56.85 81.15 56.8 81.95 56.45 82.85 56.05 83.2 55.95 84.1 55.8 84.25 55.75 84.9 55.5 84.8 54.9
L 84.45 54.35
Q 84.2 53.9 84.55 53.8
M 81.6 59.85
Q 81.85 59.85 81.9 60 81.8 60.2 81.7 60.2
L 81.55 60.25 80.45 60.25 80.4 59.8 80.1 59.65 80.1 59.25 80.4 59.25 80.5 59.4 80.7 59.6
Q 80.8 59.7 80.75 59.85
L 81.6 59.85
M 87.05 61.2
Q 87.7 61.2 87.95 61.1
L 88.65 60.7
Q 89.25 60.45 89.35 60.95 89.15 61.5 89 61.75 88.75 62.2 88.15 62.3 88.05 62.35 87.9 62.4 86.4 64.25 84.75 65.1 83.1 65.95 80.7 65.95 79.2 65.95 76.5 65.5 74.6 65.2 73.85 64.55 73.55 64.3 73.4 63.95
L 73.25 63.85 72.8 63.25 72.4 62.85 72.3 62.85 72.45 62.7
Q 71.85 62.65 71.25 62.5 70.85 62.35 70.85 62.2 70.85 61.95 71.3 61.85
L 75.7 61.05
Q 76.05 61 76.7 61
L 81.6 61
Q 83.45 61 87.05 61.2
M 81.7 66.7
Q 82.65 66.7 83.1 66.5 83.25 67 82.8 67.3 82.6 67.4 82.15 67.4
L 78.35 67.4
Q 77.25 67.4 76.5 67.15 76.5 66.95 76.95 66.85 79.35 66.7 81.7 66.7
M 69.15 33.5
L 69.2 33.4 69.9 33.55 70 33.55 70.05 33.65
Q 69.95 33.75 69.65 33.75
L 69.05 33.75 69.05 33.55 69.15 33.5
M 70.25 36.95
Q 69.2 37.05 68.8 37.05 68.05 37.05 67.5 36.7 69.9 35.95 73.45 36.3 74.2 36.4 79.35 37.3 78.75 37.6 78 37.6 77.35 37.6 76.05 37.3 73.3 36.7 70.25 36.95
M 66.05 39.05
L 66 41
Q 65.95 41.15 65.6 41.6
L 65 42.45
Q 64.55 42.9 64.35 42.95 64.05 42.85 64.15 42.55 64.2 42.4 64.45 42.15
L 65.3 40.8
Q 65.45 40.35 65.35 39.15
L 65.45 38.7
Q 65.55 38.45 65.8 38.55 66.05 38.6 66.05 39.05
M 63.45 45.6
Q 63.45 45.05 64.8 44.15 64.65 43.9 65.1 43.45 67.5 41.7 68.85 41.4 69.65 41.2 70.9 41.3
L 74.4 41.3
Q 75.2 41.3 75.45 41.55 75.5 41.55 75.5 41.6
L 75.75 41.5
Q 76.2 41.4 76.35 41.75 76.55 42.1 76.05 42.6 75.75 42.9 75.55 43.05 75.85 43.4 76.15 43.95 76.95 45.35 76.95 47.35 76.95 48.6 76.45 48.65 76.2 48.65 75.9 48.75 75.45 49.15 74.6 49.6 72.45 50.8 71.05 50.95 71.1 50.65 71.55 50.45 72.85 49.9 74.3 49.1 74.35 49.05 74.45 49.05 74.95 48.3 75.7 47 75.2 47 74.35 46.6 73.45 46.2 73 46.15 72.2 46.05 70.6 46.7 69 47.3 68.1 46.9 67.45 47.25 67.05 47.45 67.2 47.5 67.35 47.5 67.45 47.6 67.35 47.7
L 67.15 47.75
Q 66.45 47.95 66.1 47.85
L 65.65 47.65
Q 64.85 47.35 63.55 47.25 63.45 47.2 63.45 47.05 63.45 46.95 63.55 46.85 63.7 46.75 64.05 46.75
L 65 46.8 65.35 46.95
Q 65.2 46.85 65.05 46.75 64.1 46.25 63.8 46.1 63.45 45.9 63.45 45.6
M 65.25 49.3
L 65.1 49.4
Q 64.9 49.5 64.75 49.45 64.6 49.15 64.85 48.9 65 48.75 65.4 48.65
L 66.1 48.6
Q 66.45 48.6 66.55 48.5
L 66.85 48.75
Q 66.75 48.9 66.2 49
L 65.5 49.2 65.25 49.3
M 74.55 49.65
L 74.75 49.85
Q 73.9 50.65 73.15 51 72.15 51.6 71.45 51.35 71.45 51.25 71.6 51.15
L 71.85 51.1
Q 72.45 51.1 73.4 50.35 73.85 50 74.1 49.9
L 74.55 49.65
M 72.9 55.4
Q 73.05 55.2 73.3 55.1 73.6 55 73.7 55.3
L 70.2 59.4
Q 69.45 60.4 69.35 60.6 68.9 61.3 68.65 61.35 68.5 60.8 69.1 59.95 71.35 56.95 72.9 55.4 Z"/>

<path fill="#C1807B" stroke="none" d="
M 101.35 150.3
Q 101.7 150.2 102.1 150.05 101.95 149.65 102.15 149.1 102.3 148.6 102.3 148.25 100.9 148.75 99.8 149.15 100 149.4 100.3 149.65 100.95 150.2 101.15 150.4 101.25 150.35 101.35 150.3
M 132.4 157.2
Q 137.75 153.55 141.6 150.45 141.35 149.15 141.1 147.85 137.9 150.25 131.45 154.7 130.65 155.2 130.2 155.05 134.55 151.7 138.2 149.25 138.6 149 138.95 148.75 138.45 148.95 137.65 149.3 135.35 150.2 131.05 152.55 128.05 154.15 126.05 155.1 125.8 156.25 125.55 157.6 125.45 158 125.4 158.4 125.75 158.95 126.7 159.5 127.2 159.85 127.8 160.25 129.6 159.05 132.4 157.2
M 142.1 169.6
Q 143 169.8 143.7 169.9 141.7 167.25 139.85 166.2 137.4 164.8 130.75 162.45
L 133.15 164.25
Q 133.5 163.9 134.25 164.35 135.15 164.8 137.2 165.4 139.15 165.95 140.1 166.45 139.95 166.65 139.6 166.55 137.8 166.25 134.1 165
L 135.25 165.85
Q 136.85 167.05 137.6 167.85 137.9 168.1 137.9 168.35 138.3 168.7 138.65 169.05
L 140.6 169.05
Q 140.8 169.25 142.1 169.6
M 108.7 159.65
Q 108.4 159.75 108.15 159.9 108.4 159.95 108.6 160.05
L 108.9 160.35 108.9 160.6 109.1 160.8
Q 109.25 161 109.25 161.5
L 109.25 161.75
Q 109.4 161.65 109.55 161.6 111 160.9 111.75 161.25 111.55 161.55 111.35 161.85 111.4 161.95 111.5 162.2
L 112.5 164.1
Q 113.05 165 113.3 165.2 113.85 165.65 114.75 165.9 116.6 166.6 120.1 168.4 120.6 168.8 120.6 168.95 120.6 169.35 120.1 169.45 119.85 169.5 119.35 169.3
L 116 167.95
Q 116.75 169 117.6 170.35 118.35 171.55 118.55 172 119 173 119.4 175
L 119.95 177.7
Q 120.55 180.35 120.7 181.8 120.9 183.4 121.15 184.05 122 186.3 125.65 188.15 127.65 189.15 129.8 190.05 129.6 189.95 129.5 189.85 128.3 189.15 128.25 188 130.95 189.05 133.2 190.85 134 191.5 134.6 191.95 134.95 192.15 135.15 192.35 135.45 192.55 135.65 192.65 136.9 193.3 138.4 193.15 139.85 193.05 141 192.2 141.95 191.55 142.75 190.3 135.5 189.8 128.85 184.65 121.8 179.2 121.8 173.95 121.8 172.85 122.65 170.9 123.45 168.95 123.45 168.35 123.45 168.25 122.45 167.45 122.15 167.95 121.85 168.4
L 121.2 168.35
Q 121.45 167.6 121.7 166.9 120.25 165.75 117.65 163.85 111.65 159.45 110.45 159.45 109.25 159.45 108.7 159.65
M 113.35 152.1
Q 113.3 151.95 113.3 151.75 112.2 151.5 111.1 151.5 109.95 151.5 108.4 152.1 108.45 152.2 108.5 152.3 108.3 152.35 108.1 152.2
L 108.05 152.2
Q 106.65 152.7 104.65 153.25
L 104.65 153.35
Q 104.65 153.65 104.5 153.85 104.3 154.15 104.05 154.05
L 104 153.45
Q 102.9 153.7 101.75 154 101.9 154.25 102.05 154.5 102.3 154.95 102.6 155.05 102.75 155.15 103.2 155.15 105.25 155.15 108.15 154.8 110.6 154.45 111.25 154.4 113.05 154.3 114.3 154.75 115 155 116.2 155.75 117.45 156.55 118.1 156.8 118.45 156.95 119.2 157.25 119.8 157.5 120.1 157.9 119.9 158 119.6 158.05 119.75 158.1 119.85 158.15
L 121.8 158.15
Q 121.45 156.65 118.5 154.3 116.05 152.4 113.5 151.8 113.45 151.95 113.35 152.1
M 106.45 146.65
Q 106.65 147.35 107 147.85
L 107.2 148.1
Q 107.55 147.95 108.1 147.75
L 109.45 147.55
Q 109.65 147.5 110.8 147 111.15 146.85 111.9 146.75 113.3 146.7 115.4 147.95 117.5 149.2 119.25 150.65
L 119.25 150.8 120.9 150.8 120.9 150.5
Q 119.5 149.2 115.7 147.2 113.6 146.1 112.25 145.55
L 112.25 145.6 112.05 145.65 112 145.45
Q 111 145.1 110.45 145.1 110.25 145.1 106.45 146.65
M 105.45 147.75
Q 105.35 147.45 105.3 147.1 104 147.6 102.9 148.05 102.9 148.2 102.9 148.65 102.95 149.05 102.85 149.25
L 102.6 149.7
Q 102.6 149.75 102.55 149.8 102.7 149.7 102.8 149.65 103.75 149.1 104.15 148.95 104.75 148.7 105.75 148.5 105.55 148.1 105.45 147.75
M 62.45 186.05
Q 62.8 186.2 63.2 186.25 63.3 186.35 63.15 186.45
L 62.9 186.5
Q 62.45 186.45 61.9 186.25 61.55 186.4 61.2 186.55 61.3 186.55 61.4 186.65
L 61.45 187.75 61.5 188
Q 61.9 187.7 62.25 187.45 63.65 186.5 63.85 185.55 63.15 185.75 62.45 186.05
M 61.95 183.9
L 61.4 183.85 61.4 184.8 61.45 185.25
Q 61.5 185.35 61.75 185.6 62.8 185.2 63.85 184.9 63.8 184.7 63.8 184.6
L 63.8 184.55
Q 63.75 184.4 63.75 183.55 63.05 183.45 62.35 183.55 61.9 183.65 61.95 183.9
M 55.5 188.3
Q 55.1 187.55 53.85 185.85 53.8 185.85 53.75 185.85
L 52 186.6
Q 52.1 186.8 52.25 186.95
L 53.45 188.15
Q 53.75 188.45 54.15 188.95 54.8 188.6 55.5 188.3
M 56.05 185.15
L 55.05 185.55
Q 54.75 185.6 54.5 185.7 55.45 186.95 56.15 187.95 58.8 186.7 61.15 185.8
L 61.1 185.75
Q 60.9 185.5 60.9 184.8
L 60.9 183.75
Q 60.85 183.75 60.8 183.75
L 56.05 185.15
M 57.9 180.4
Q 57.2 180.9 56.95 181.5 56.65 182.35 57.15 182.85 57.3 183 57.65 183.2
L 58 183.05
Q 60.05 182.35 60.8 182.25 60.85 182.25 60.95 182.25 60.9 182.1 60.9 182 60.85 181.15 60.8 180.7 60.65 179.8 60.15 179.1 58.5 179.95 57.9 180.4
M 47.55 179.05
L 47.45 177.8
Q 45.2 178.25 42.25 178.9 42.35 178.95 42.55 179.1
L 43.4 179.6
Q 44.4 180.1 45.2 180.9
L 49.85 179.35 47.55 179.05
M 52.25 178.55
Q 52.4 178.3 52.4 178.15 52.45 177.9 52.1 177.3 52 177.15 51.9 176.95 50.35 177.2 48 177.7 47.95 177.8 47.95 177.95 47.95 178.55 47.9 178.75
L 49.9 179.1 49.85 179.35 52.25 178.55
M 11.1 192
Q 11.45 192.35 11.85 192.7 13 193.7 14.35 194.15 16 194.8 17.6 195.6 21.1 197.45 25.1 197.4 27.2 197.4 29.2 196.7 29.85 196.5 30.55 196.45 30.6 196.35 30.65 196.3 29.35 195.9 28 195.65 27.4 195.55 27.35 195.25 27.15 194.85 27.65 194.65 28 194.55 28.35 194.65 30.15 194.85 34.3 196.3 38.05 197.55 40.25 197.6 42.85 197.65 45.8 196.55 47.75 195.8 51.05 194 57.6 190.5 61.05 188.3 60.95 188.2 60.9 188.05
L 60.85 187.4
Q 60.85 186.85 60.9 186.65 58.9 187.45 56.55 188.6 56.85 189.1 57.05 189.5 56.8 189.65 56.55 189.15 56.45 188.95 56.35 188.75 55.45 189.15 54.65 189.6 54.95 190 55.3 190.5 55.5 190.7 55.35 190.85
L 54.3 189.75
Q 49.15 192.25 47.7 192.85 45.9 193.55 44.2 194.05 44.65 193.5 46.1 192.85 46.35 192.7 53.7 189.15
L 52.75 188.15
Q 52.05 187.45 51.6 186.8
L 50.95 187.05
Q 49.1 187.85 48.45 188 47.05 188.3 46.35 188.55
L 44.4 189.3
Q 43.25 189.65 42.35 189.45 41.7 189.2 41.9 188.85 42 188.7 42.3 188.6 44.1 188.25 48.4 186.75 49.75 186.3 50.9 185.8 50.5 185.1 50.4 184.55 50.9 184.55 51.3 185.4 51.35 185.45 51.4 185.55 52.7 185 53.1 184.85
L 53.05 184.8
Q 52.05 183.5 51.45 182.4 51.35 182.25 51.2 182.1 51.25 182.05 51.3 182.05 51.05 181.55 50.85 181.1 50.9 180.95 51.1 181.05 51.25 181.15 51.35 181.3
L 53.6 184.55 53.65 184.6 57.1 183.4
Q 56.45 183.1 56.3 182.7
L 56.2 182.05
Q 56.2 181.4 56.35 181.1 56.45 180.8 56.95 180.3 57.55 179.75 59.3 178.75 54.65 179.15 46.6 181.7
L 41.55 183.25
Q 39.45 184.05 38.4 184.4 36.6 185.05 35.2 185.25 35.05 185.1 35.15 184.85 35.25 184.7 35.55 184.6 39.2 182.85 43.2 181.55 42.25 181.15 41.85 180.85 41.7 180.7 41.75 180.6 41.95 180.45 42.4 180.65
L 43.7 181.4
Q 44.3 181.2 44.95 181
L 45 181
Q 44.7 180.85 44.5 180.75 44 180.4 43.7 180.25 42.95 179.9 42.55 179.7 42.05 179.4 41.7 179 40.8 179.2 39.8 179.4 27.8 182.05 27.8 182.7 27.8 182.95 28.6 184.9 29.4 186.85 29.4 187.45 29.4 192.6 18.1 192.6 14.45 192.6 11.1 192
M 31.15 185.4
L 32.1 185.5
Q 32.7 185.5 32.9 185.85 32.45 186.25 31.35 186.15
L 30.85 186.15 30.5 186.1 29.9 185.9 29.45 185.6
Q 29.2 185.35 29.1 184.95 29 184.65 29.15 184.5 29.45 184.25 29.8 184.6
L 30.3 185.15
Q 30.45 185.3 31.15 185.4
M 38.3 190.2
Q 37.7 190.5 37.4 190.55
L 35.3 190.6
Q 34.65 190.6 34.35 190.55 33.55 190.45 32.15 189.55 32.55 189.2 33.2 189.4
L 34.25 189.8
Q 34.7 189.9 35.6 189.9
L 37.1 189.8
Q 37.2 189.8 38.6 189.3 39.5 189 40.1 189.15
L 38.3 190.2
M 39.75 194.9
Q 39.6 194.75 39.8 194.55
L 40.2 194.45
Q 41.2 194.35 41.75 194.35
L 42.45 194.25
Q 43.5 194 43.55 194 43.6 194.2 43.35 194.4 43.1 194.55 43 194.65
L 42.85 194.8
Q 42.7 195 42.2 195
L 39.75 194.9
M 17.55 148.1
Q 16.8 147.55 15.45 146.3 15.4 146.25 15.35 146.2 14.95 147.5 14.7 148.8 14.6 149.4 14.45 150.2 20.85 155.7 24.7 157.7 27.6 159.2 31.35 160.05 31.95 159.2 33.65 158.45 34.95 157.9 36.4 157.3
L 37.25 156.95
Q 37.2 156.85 37.2 156.75 36.55 156.65 35.95 156.6 35.85 156.6 35.75 156.6
L 34.4 156.4
Q 34.25 156.35 34.1 156.35 32.15 156.05 30.9 155.75 27.4 154.9 25.05 153.2 25.55 153.15 26.15 153.25 23.8 152.05 19.95 149.7 18.1 148.55 17.55 148.1
M 91.6 80.8
L 92 78.5 89.55 81.25
Q 89.4 81.95 88.8 82.7 87.9 83.8 86.95 84.45 86.7 84.6 86.5 84.75 83.5 88 81 89.6 80.75 89.85 80.45 89.85 80.15 89.85 80.15 89.7 80.15 89.55 80.3 89.45 82.1 88.05 84.55 85.55 83.9 85.75 83.15 85.8 82 85.9 80.85 85.7 80.8 85.9 80.75 86.05 80.5 86.4 79.75 86.7 78.95 87 78.7 87.3 78.4 87.65 78.3 88.75
L 78.3 91.15 78.1 91.3
Q 77.75 91.15 77.75 90.35
L 77.7 88.9
Q 77.6 87.65 78 87.05 78.3 86.65 79.05 86.35 80 85.9 80.2 85.75 80.2 85.65 80.25 85.55 79.7 85.4 79.15 85.2 78.1 84.75 76.1 83.45 74.1 82.15 73.2 81.35
L 72.2 80.5
Q 70.4 79 68.75 77.1 68.05 76.3 66.75 74.6 65.95 73.5 65.5 72.7
L 64.6 71.65
Q 64.55 72.05 64.5 72.5 64.4 73.75 64.45 74.55
L 64.7 76.5
Q 64.95 78.15 64.85 80.6
L 64.8 90.4
Q 64.8 90.5 64.8 90.6
L 65.15 91
Q 67.95 94.25 71.65 96.1 72.15 96.35 72.65 96.6 72.25 95.6 72 95 70.5 93.35 70.1 92.75 69.75 92.2 69.6 91.75 70 91.6 70.35 92.3 70.7 92.85 71.45 93.75
L 69.55 89.9
Q 67.35 85.55 66.9 82.95
L 67.25 82.85
Q 67.65 83.65 68.1 85.35 68.55 86.75 69.7 88.95
L 70.35 90.25
Q 71.5 92.5 72.55 94.9 73.8 96.2 74.25 97.15 74.35 97.35 74.3 97.45 76.3 98.4 78.4 99.3 79.35 99.7 80.5 99.8 82.95 99.5 84.8 98.6 86.6 97.7 88.6 96.8
L 89.55 94.65 89.55 94.6
Q 89.8 93.3 89.9 92.9 90 92.65 90.1 92.45 90.4 87.95 91.6 80.8
M 102.65 48.95
Q 101.95 49 101.4 49.35 101.35 50.5 100.4 52.65 99.9 53.75 99.65 54.6 99.6 55.05 99.5 55.45 99.7 55.05 100.1 54.6 101.05 53.4 101.85 52.8 102.2 52.5 102.7 52.25 102.75 51.85 102.75 51.4 102.8 50.15 102.65 48.95
M 61.5 56.5
Q 61.5 56.45 61.5 56.35 61.4 56.45 61.3 56.5
L 61.25 55.65
Q 61.1 55.35 60.65 55 60.1 54.5 60 54.35 59.65 53.9 59.45 53.8 59.35 53.75 58.75 53.75 58.65 53.75 58.55 53.8 59.15 55.85 59.25 58.05 59.25 58.75 59.7 59.5 60.5 60.75 61.65 61.7 61.2 59.65 61.3 57.75 61.3 57.7 61.45 57.65 62.05 58.1 62.35 58.85 62.15 58.05 62 57.35
L 61.85 57.35
Q 61.65 57.05 61.5 56.5
M 61.2 54.65
Q 61.1 53.85 61.05 53.3 60.85 52.6 60.65 51.9 60.35 51.25 59.85 50.65
L 59.1 50.05
Q 58.7 49.85 57.55 49.75 57.5 49.7 57.55 49.65 57.4 49.7 57.3 49.75 57.4 50.75 57.8 51.75 58.1 52.5 58.3 53.15 58.75 53.05 59.15 53.05 59.6 53.05 59.8 53.15 60.05 53.3 60.25 53.65 60.35 53.8 61 54.45 61.1 54.55 61.2 54.65
M 102.45 53
Q 102.1 53.25 101.65 53.75
L 100.5 54.95
Q 99.7 55.85 99.55 56.25
L 99.25 56.35 99.2 56.35 99.2 56.4
Q 99.2 56.45 99.15 56.5 99.5 56.7 99.4 57 98.95 58.6 98.6 60.25 99.7 59.6 100.1 58.55 101.2 55.85 102.45 53
M 68.6 42.6
L 68.55 42.6
Q 68.15 42.7 67 43.4 66.25 43.9 65.5 44.2 65 44.4 64.8 44.15 63.45 45.05 63.45 45.6 63.45 45.9 63.8 46.1 64.1 46.25 65.05 46.75 65.2 46.85 65.35 46.95 66.1 47.3 67.05 47.45 67.45 47.25 68.1 46.9 68 46.75 68.1 46.5
L 69.7 45.85
Q 71.5 45.15 72.5 45 73.5 44.9 74.1 45.15 74.6 45.3 75.1 45.7
L 75.15 45.75
Q 75 45.5 74.8 45.45
L 74.15 44.7 74.05 44.5 74.1 44.3
Q 74.35 44.25 74.5 44.4
L 74.75 44.7
Q 74.95 45 75.55 45.4 75.75 45.65 75.95 46.25
L 75.8 46.4
Q 75.9 46.8 75.7 47 74.95 48.3 74.45 49.05 75.25 48.55 75.55 48.25 75.75 48.05 75.9 48 76.15 47.9 76.25 48.1 76.35 48.3 76.15 48.5 76.05 48.6 75.9 48.75 76.2 48.65 76.45 48.65 76.95 48.6 76.95 47.35 76.95 45.35 76.15 43.95 75.85 43.4 75.55 43.05 75.35 43.15 75.2 43.25 72.75 43.45 71.25 43.15 70.1 42.9 69.5 42.85
L 68.85 42.8
Q 68.65 42.7 68.6 42.6
M 88.9 42.95
Q 88.15 43 87.4 43 86.05 43.05 84.8 42.9 84.4 42.85 84.25 42.7 83.65 42.7 83.45 42.7 83 42.7 82.75 42.9 82.65 42.95 82.6 43 81.95 43.75 81.7 45.1 81.5 46.1 81.5 47.45 81.5 47.5 81.5 47.55 82 48 82.8 48.65 84.55 50.05 86.95 51.4
L 86.95 50.95
Q 86.85 50.75 86.75 50.5 86.45 50.3 86.15 50.05 85.75 49.75 85.65 49.55 85.4 49.2 85.55 48.85 85.75 48.75 85.95 48.9
L 86 48.95
Q 85.95 48.8 85.9 48.7 85.6 48 85.45 47.6 84.95 47.75 84.6 47.75 84.3 47.5 84.5 47 84.6 46.8 85.05 46.5
L 85.15 46.3 85.25 45.85
Q 85.4 45.5 85.9 45
L 86.4 44.5 86.7 44.5
Q 86.95 44.6 86.75 44.9
L 86.45 45.2 86.25 45.45
Q 85.85 45.75 85.75 46
L 85.75 46.15
Q 87.05 45.55 88.55 45.65 90.3 45.75 92 46.35 92.2 46.45 92.35 46.5 93.8 46.65 94.75 47.1 94.7 47 94.7 46.8 94.7 46.55 94.8 46.45
L 94.95 46.35 95.4 46.25 95.4 46.15 96.25 46.25
Q 96.55 46.25 96.6 46.45
L 96.6 45.75
Q 96.4 44.55 95.3 43.75 95.25 43.8 95.2 43.8 94.6 43.85 93.75 43.55 92.75 43.1 92.25 42.95 91.45 42.75 88.9 42.95 Z"/>

<path fill="#C9EE95" stroke="none" d="
M 135.35 109.75
Q 134 106.55 133.15 104.9
L 132.4 106.5
Q 127.45 118.1 124.5 130.1 125.85 127.9 127.7 125.3 128.75 123.75 129.8 122.5 131.25 120.9 132.8 119.7 133.4 119.35 133.6 119.55 133.8 119.75 133.7 120.1
L 133.3 120.5
Q 131.55 121.95 129.1 125.25 127.35 127.6 125.85 130.1 128.45 127.15 130.45 125.15 132.8 122.8 134.85 122.2 131.4 124.8 125.6 131.2 124.9 132.15 124.9 132.5 124.65 132.55 124.55 132.35 124.05 133.15 123.6 134.05 123.25 135.6 122.95 137.15 122.85 137.6 122.7 137.8 122.6 137.95 122.5 138 123.05 138.25 123.3 138.6 124 139.6 123.3 141.3 123 142.15 123.05 142.45 123.1 142.75 123.55 143.3 123.75 143.55 123.95 143.75 125.05 143.65 131.75 143.45 136.5 143.3 139.5 142.65 138.45 143.6 136 143.9 134.05 144.15 130.1 144.25
L 124.55 144.45
Q 125.8 146.1 126.2 147.1 126.25 147.2 126.3 147.3 127.5 147.2 129.95 147.15
L 135.45 147.05
Q 139.75 146.95 141.6 146 142.1 145.75 143 145.2 143.55 144.9 144 144.75 144 144.65 143.95 144.55 143.85 143.45 143.9 142.8 144 142 143.8 141.65
L 143.05 141.05
Q 142.65 140.65 142.4 139.95 141.8 138.55 141.5 137 141.25 136 140.95 133.65 140.7 131.4 140.7 130.95 140.7 129.95 140.6 129.45
L 138.85 123.65
Q 138.25 122.45 138.05 121.85 137.95 121.65 137.9 121.45 137.85 123.45 137.75 126.2 137.75 126.55 137.6 126.7 137.5 126.8 137.35 126.8 137.2 126.8 137.15 126.65 136.7 122.55 136.75 118.8 136.8 116.7 136.75 115.65 136.7 113.8 136.35 112.5 136.2 111.95 135.35 109.75
M 135.15 124.15
Q 134.45 124.75 133.2 125.6 131.55 126.7 131.2 126.95 128.8 128.7 127.85 130.45 127.65 130.65 127.35 130.45 127.65 129.7 128.5 128.75 131.5 125.7 135.15 124.15
M 129.45 145.15
Q 129.4 145 129.5 144.9
L 129.8 144.8 136.65 144.55
Q 136.75 144.75 136.45 144.75 134.95 145.1 132.95 145.2 132.05 145.2 129.45 145.15
M 23.55 106.7
L 23.55 106.6
Q 21.45 108.5 20.15 111.55 19.05 114.05 18 118.6
L 17.5 120.8
Q 17.35 121.7 17.25 123.6 17 128.2 16.9 131.2 17.05 131.25 17.2 131.5 17.25 131.75 17.15 132.05
L 16.85 132.9
Q 16.8 134.25 16.8 135.1 16.8 135.75 16.6 135.95 16.5 136.15 16.25 136.2 15.95 136.25 15.85 136.05
L 15.8 135.7 15.6 136.25
Q 15 137.85 14.55 139.65 14.1 141.4 14.05 142.7 14.05 143.3 14.15 143.5 14.35 143.8 15.05 144.1
L 25.2 147.75
Q 26 148 28.05 148.45 32.2 149.3 35.05 149.5 34.2 146.8 33.35 144.1 32.5 143.7 31.3 142.9 24.3 138 18.7 132 18.3 131.7 18.4 131.3 18.55 130.95 19.05 131.05 19.3 131.15 19.65 131.5 23.3 135.3 31.5 141.8 32.35 142.45 32.95 142.9 30.7 136.05 28.2 129.35 24.1 118.5 23.55 106.7
M 17.95 142.45
Q 18.25 142.5 18.65 142.8 21.1 144.4 25.35 145.6 32.1 147.55 32.4 147.65 24.4 146.9 17.3 142.85 17.45 142.45 17.95 142.45
M 21.6 137.6
Q 21.85 137.65 22 137.8 25.7 141.3 30.5 142.8 31.7 143.2 32 143.7 25.9 142.45 21.5 138.15 21.15 137.9 21.3 137.7 21.35 137.55 21.6 137.6
M 68.85 95.85
Q 68.2 95.55 67.7 95.1 67.45 94.85 67.2 94.65 66.5 94.05 65.85 93.5
L 65.1 92.5
Q 65.5 94.75 66.5 97 67.25 98.65 67.95 100.2 68.05 100.45 68.15 100.65 70.25 102.05 72.75 103.25 73.7 103.7 75.65 104.5 77.3 105.25 78.4 105.95 73.15 104.75 68.75 101.95 72.5 110.7 75.05 119.65 75.35 120.65 75.65 121.65 77.3 126.65 77.9 132 78 133.1 78.15 134.25 82.75 119.5 86.2 104.25 86.3 103.75 86.45 103.3 81.8 105.5 79.4 106.1 79.2 105.9 79.7 105.65
L 84.1 103.75
Q 85.7 103.05 86.7 102.35 86.85 101.95 87 101.5 87.75 99.55 88.6 97.65 85.4 100.35 81.15 100.8 80.25 101.1 79.3 101.05 78.55 100.9 77.85 100.75 75.9 100.3 74.15 99.4 74.1 99.45 74.05 99.45 74 99.35 73.9 99.25 72.8 98.6 71.75 97.75 70.4 96.65 68.85 95.85
M 72.35 104.9
Q 71.75 104.7 71.45 104.35 71.7 104.1 72.15 104.3 75.85 105.45 80.05 108.3 80.45 108.6 80.25 108.8 76.55 106.6 72.35 104.9
M 75.5 107.3
Q 75.1 107.05 75.25 106.85 75.6 106.85 76.2 107.15 78.05 108.25 80.2 109.1 80.75 109.3 80.75 109.65 79.1 109.2 75.5 107.3 Z"/>

<path fill="#FFFFFF" stroke="none" d="
M 55.8 187.8
Q 55.85 187.9546875 55.85 188.1 55.9 188.1 55.95 188.05 55.853125 187.953125 55.8 187.8
M 77.55 139.1
Q 77.25 139.3 76.85 139.45 70.45 142.55 61.8 146.85 50.95 152.25 42.8 156
L 39.85 157.3
Q 36.4 158.8 33.5 160 33.1 160.15 32.85 160.35 32.45 160.65 32.35 160.95 32.1 162 33.75 162.55 34.65 162.6 35.55 162.7 35.5 162.65 35.45 162.6
L 35.4 162.45
Q 56.3 158.55 71.95 152.85 78.5 150.5 90.05 145.05 90.05 145.6 94.8 154.1 95.9 151.8 98.35 149.45 97.7 148.5 97.65 147.6 97.55 146.9 98 146.45 98.2 146.25 99.05 146 99.4 145.9 100.3 145.55 100.1 145.5 99.9 145.25 99.8 144.8 99.75 144.6
L 99.7 142.75
Q 99.6 141.85 99.85 141.35 99.95 141.2 100.15 141.05 99.45 140.5 98.7 139.7 96.7 137.45 94.8 134.8 94 133.8 93.8 133.55 93.15 132.9 92.45 132.75 91.55 132.55 89.9 133.25 86.9 134.6 82.15 136.85
L 82.1 136.95 82 136.95
Q 79.9 137.9 77.55 139.1
M 118.5 120
Q 110.6 119.55 103 117.7 101.15 117.15 99.25 116.8 98.55 116.7 97.85 116.65 97.9 118.75 98.05 120.9 98.1 121.35 98.35 121.7 98.5 121.95 98.6 122.35
L 118.15 124.7 118.5 120
M 99.5 55.45
Q 99.6 55.05 99.65 54.6 99.45 55.2 99.4 55.7 99.45 55.55 99.5 55.45
M 81.6 65.05
Q 83.5 64.8 84.85 64.05 84.75 63.95 84.75 63.9
L 84.7 63.55
Q 84.7 63.05 84.9 62.9 85.15 62.55 85.95 62.35 81.6203125 62.2005859375 76.45 62.3 75.9 62.3 75.65 62.35
L 75.05 62.5
Q 75.2 62.7 75.2 63.25
L 75.2 63.9
Q 75.2 64.15 75.2 64.35 76.1 64.8 77.8 65 80.15 65.2 81.6 65.05 Z"/>

<path fill="#D3E7EE" stroke="none" d="
M 75.25 168.05
L 73.75 167.75
Q 69.55 167.2 65.5 166.75 61.2 166.3 56.95 165.9 52.4 165.45 47.85 165.05 47.8 165.25 47.8 165.45
L 48 166.1
Q 49.35 167.1 51.3 166.85 51.9 166.85 52.5 166.9 63.55 167.9 74.55 169.6
L 75.25 168.05 Z"/>

<path fill="#B1B1B1" stroke="none" d="
M 90.9 178.9
Q 90.95 179 91 179.15 91.85 181.7 93.1 184.1 95.25 188.2 97 192.65 97.85 194.75 99.1 196.2 99.05 196 99 195.85
L 98.6 194.5
Q 98 192.45 95.75 187.9 93.05 182.45 90.9 178.9
M 75.7 168.15
L 75.7 169.8
Q 80.7 170.75 85.7 171.75 86.35 171.85 86.7 172.35 86.6 172.6 86.5 172.4 85.75 172.7 84.95 172.6 88.2 173.85 89.95 176.75 89.95 176.6 90 176.55 90.3 176.25 90.7 176.9 94.6 183.3 97.75 189.95
L 98.55 191.8 100.15 197.4 101.15 198.95
Q 100.15 190.7 96.8 182.95 94.85 178.35 92.65 173.95
L 89.15 172.5
Q 84.75 170.9 80.35 169.45 78.05 168.7 75.7 168.15
M 29.7 163.5
Q 29.8 164.45 30.2 165.7
L 31.45 165.85
Q 31.8 165.5 32.55 165.45
L 46.7 166.45 46.6 164.9
Q 41.55 164.25 37.2 164.05 36.25 164 35.35 164 34.6 164 33.85 163.8 33.2 163.75 32.55 163.7 31.1 163.6 29.7 163.5 Z"/>

<path fill="#94919F" stroke="none" d="
M 31.35 165.95
Q 31.4 165.9 31.45 165.85
L 30.2 165.7
Q 30.35 166.25 30.55 166.85 30.9 167.95 31.7 170.2 31.7 170.25 31.7 170.3 32.85 173.45 32.8 176
L 33.35 176.2
Q 33.6 176.3 34.7 176.4 37.65 176.5 43.9 175.25
L 49.3 174.2
Q 51.4 173.8 52.15 174.55 52.55 174.95 52.9 175.95 53.05 176.2 53.3 176.7 53.35 176.75 53.4 176.85 53.75 177.55 53.4 178.3 57.25 177.5 59.15 177.4 60.05 177.3 60.5 177.6 60.85 177.75 61.3 178.4 62.6 180.35 61.85 182.6
L 61.9 182.65
Q 61.95 182.65 62.05 182.65
L 63.85 182.5
Q 64.55 182.5 64.75 182.75 64.8 182.85 64.85 183 64.9 183.3 64.85 183.8
L 64.85 186.5
Q 64.8 186.9 64.65 187.15 64.4 187.6 63.8 187.95 63.5 188.15 63.25 188.35 62.95 188.8 62.6 189.35 61.55 191.1 61.1 191.7 60.45 192.45 59.05 193.85 58.6 194.4 58.3 195 59.15 195.05 60.05 195.2
L 101.4 201.35
Q 101.3 200.15 101.15 198.95
L 100.15 197.4 100.8 199.8 100.45 199.85
Q 99.65 197.95 99.1 196.2 97.85 194.75 97 192.65 95.25 188.2 93.1 184.1 91.85 181.7 91 179.15 90.95 179 90.9 178.9 90.85 178.8 90.8 178.7 90.2 177.7 89.95 177.1 89.9 176.9 89.95 176.75 88.2 173.85 84.95 172.6 84.9 172.6 84.85 172.6 84.8 172.6 84.7 172.6 82.2 172.05 79.75 171.45 77.45 170.85 75.2 170.6 74.55 170.9 73.85 171 73.7 171.05 73.55 171.1 73.05 171.2 72.6 171.15 71.95 170.95 71.3 170.8
L 51.3 168.15
Q 49.2 168.25 47.2 167.65 47 167.6 46.75 167.55 44.9 167.2 42.95 167 41.9 166.9 40.85 166.8
L 34.8 166.25
Q 33.85 166.15 32.95 166.1
L 31.35 165.95 Z"/>

<path fill="#FCF4E9" stroke="none" d="
M 35.45 162.6
Q 35.5 162.65 35.55 162.7 38.9 162.9 42.25 163.15 46.5 163.45 50.75 163.8 55 164.2 59.25 164.6 65.1 165.2 70.95 165.95 76.15 166.6 81.5 168 85.4 168.9 89.25 170.8 91.75 172 94.1 173.6 94.2 173.7 94.35 173.8
L 93.95 174
Q 97.5 179.95 99.5 186.25 99.7 185.95 100.15 185.7
L 109.3 179.5 114.2 176.85
Q 113.9 176.3 113.5 175.55
L 108.65 165.6
Q 108.05 164.45 107.95 163.6 107.65 163.6 107.3 163.6 106.7 163.6 106.45 163.4 106.25 163.25 106.05 162.9 105.8 162.4 105.75 162.3 104.95 161.8 104.8 161.35 104.6 160.85 105.1 159.95 105.6 159.1 106.15 158.45 106.15 158.15 106.1 158.05 105.6 158 105.35 157.35 105.2 157 105.3 156.5 104 156.5 102.6 156.4 102.15 156.4 101.75 156.25 101.4 156.05 101.1 155.55 100.8 154.95 100.6 154.65 100.45 154.45 100.3 154.3 99.75 153.65 99.5 153.25 98.8 152.25 99.45 151.55 99.5 151.5 100 151.2 99.7 151 99.35 150.65 98.8 150.1 98.45 149.55 98.4 149.5 98.35 149.45 95.9 151.8 94.8 154.1 90.05 145.6 90.05 145.05 78.5 150.5 71.95 152.85 56.3 158.55 35.4 162.45
L 35.45 162.6 Z"/>

<path fill="#767062" stroke="none" d="
M 80 76.55
L 79.95 76.6 80 76.6 80 76.55
M 82.9 73.05
Q 82.85 72.9 82.7 72.75 82.6 72.65 82.5 72.55
L 82.6 72.9
Q 82.9 73.95 82.8 74.55
L 82.85 74.55
Q 82.3 75.35 81.5 75.85
L 80.25 76.5
Q 82.25 75.9 85.15 74.4 85.3 74.15 85.45 73.95
L 85.3 73.95
Q 85.05 73.5 85.15 72.9
L 84.9 72.75 84.65 73.1 82.9 73.05
M 81.7 72.6
L 81.4 71.4
Q 81.35 71.05 81.45 70.45 80.5 70.25 78.55 70.45 78.5 70.45 78.45 70.45 78.4 70.85 78.05 71.45 77.6 72.2 77.1 72.55 75.5 73.75 73.35 72.7 71.85 71.9 70.7 69.9 70.3 69.1 70.15 68.4
L 70.1 69 70 68.9
Q 69.8 68.5 69.65 68.15 69.85 70.75 70.75 72.2 71.1 72.65 71.3 73 71.2 73 71.15 73.05
L 71.2 73.15
Q 70.95 73.35 70.65 73.15
L 70.5 73
Q 70.45 72.95 70.4 72.95
L 70.4 72.9 70.25 72.75
Q 70.15 72.6 70.1 72.45 69.95 72.35 69.85 72.2
L 69.85 72.25
Q 69.2 72.45 68.35 71.7 66.75 70.3 66.35 69.9 64.85 68.15 64.25 65.85 63.9 65.25 63.75 64.75
L 63.75 65.85
Q 63.65 65.8 63.55 65.7 63.75 66.6 63.85 67.6 64 67.9 64.3 68.3
L 65.65 70.3 65.5 70.4
Q 64.65 69.4 64.15 68.9 64.4 69.45 65 70.2 67.2 71.7 70.7 73.6 75.9 76.35 77.75 76.35 77.9 76.35 78.1 76.35 78.5 75.9 79.3 75.3 79.55 75.05 79.65 75.1 79.6 75.35 79.55 75.5 79.75 75.3 79.95 75 80.45 74.5 80.85 74.55 80.5 74.85 80.35 75 80.2 75.15 80.15 75.45 80.3 75.3 80.5 75.15 80.5 75.35 80.2 76.05
L 80.25 76
Q 81.5 75.4 82.2 74.85 82.45 74.65 82.65 74.6 82.2 74.6 82.1 74.45 82 74.3 82 73.8
L 81.75 73.2 81.7 72.6
M 90.7 65.15
Q 90.65 66.2 89.9 67.8 88.3 71.1 86.25 73.85 86.95 73.45 87.75 73
L 87.8 73 87.8 73.3 87.15 74.3 87.1 74.45
Q 88.65 73.65 90 73 90.75 72.3 91.5 71.6 92.35 70.75 92.9 70.1 92.8 70.05 92.75 70 93.2 69.4 93.6 68.8
L 93.7 68.1
Q 93.8 67.6 93.95 67.4 94.2 67.05 94.55 67.2 94.85 66.6 95.2 66.05 94.85 66.35 94.45 66.75
L 93.5 67.95
Q 92.05 69.85 91.2 70.45 90.9 70.25 91.05 70
L 90.9 70 90.9 68.8
Q 90.8 68.95 90.7 69.2 90.35 69.8 90.3 70.25
L 90.05 70.4
Q 89.7 69.95 90 69.2 90.45 68.5 90.6 68.1 90.8 67.6 90.9 66.7
L 90.85 64.85
Q 90.8 65 90.7 65.15 Z"/>

<path fill="#665946" stroke="none" d="
M 87.75 73
Q 86.95 73.45 86.25 73.85 86.15 74 86 74.15 85.8 74.45 85.6 74.5 85.35 74.7 85.15 74.4 82.25 75.9 80.25 76.5
L 80.05 76.6 80 76.6 79.95 76.6 80 76.55
Q 79.8 76.45 79.95 76.25
L 80.2 76.05
Q 80.5 75.35 80.5 75.15 80.3 75.3 80.15 75.45
L 80.1 75.45
Q 79.9 75.8 79.35 76.2 78.75 76.65 78.55 76.9
L 78.3 76.85 78.2 76.9
Q 77.55 77.55 76.8 77.75 76.65 77.4 77.05 77.2
L 77.6 76.85 77.95 76.45
Q 78 76.4 78.1 76.35 77.9 76.35 77.75 76.35 75.9 76.35 70.7 73.6 67.2 71.7 65 70.2 65.1 70.3 65.2 70.45 67.8 73.6 69.25 74.65 70 75.25 72.05 76.45
L 74.15 77.6
Q 75.45 78.4 76.25 78.5 76.6 78.6 77.2 78.75 77.4 78.9 77.5 79.1
L 77.5 79.05 77.9 78.8
Q 78.2 78.8 78.25 79 78.1 79.25 78.1 79.45 78.5 79.55 78.85 79.2 79.05 79.05 79.5 78.7
L 80.25 78.4
Q 80.4 78.35 80.75 77.85 81.15 77.45 81.4 77.35
L 81.75 77.15
Q 81.95 77.7 81.4 78.5 81.5 78.45 81.65 78.45 82.2 78.35 83.3 77.75 86.75 75.8 90 73 88.65 73.65 87.1 74.45
L 87.15 74.3 87.8 73.3 87.8 73 87.75 73 Z"/>
</g>
</defs>

<g transform="matrix( 1, 0, 0, 1, -636.8,-208.75) ">
<use xlink:href="#Layer2_0_FILL"/>
</g>

<g transform="matrix( 1, 0, 0, 1, 0,0) ">
<use xlink:href="#Layer0_0_MEMBER_0_FILL"/>
</g>

<g transform="matrix( 1, 0, 0, 1, 0,0) ">
<use xlink:href="#Layer0_0_MEMBER_1_FILL"/>
</g>
</svg>
